<?xml version="1.0" encoding="UTF-8"?>
<svg width="522px" height="159px" viewBox="0 0 522 159" version="1.1" xmlns="http://www.w3.org/2000/svg" xmlns:xlink="http://www.w3.org/1999/xlink">
    <title>Logo / Dark Logo</title>
    <g id="Metricio-Logo" stroke="none" stroke-width="1" fill="none" fill-rule="evenodd">
        <g id="Logo-Dark">
            <g id="Logo-/-Dark-Logo">
                <g id="Text" transform="translate(0.000000, 20.000000)" fill="#737373">
                    <path d="M0,35.593 C0,33.598 0.266,30.139 2.014,27.617 C4.698,23.892 9.53,23.36 12.756,23.36 L76.81,23.36 C81.912,23.36 89.832,24.291 94.934,28.947 C98.963,32.8 101.381,39.18 101.381,46.23 L101.381,93.823 L85.67,93.823 L85.67,48.62 C85.67,45.565 85.267,41.441 82.715,38.648 C80.031,35.593 76.003,35.327 73.181,35.327 L58.544,35.327 L58.544,93.823 L42.833,93.823 L42.833,35.327 L19.872,35.327 C17.587,35.327 16.784,35.992 16.381,36.391 C16.115,36.657 15.711,37.455 15.711,40.111 L15.711,93.823 L0,93.823 L0,35.593" id="Fill-1"></path>
                    <path d="M159.108,51.812 C162.196,51.812 162.599,49.551 162.599,47.689 C162.599,43.304 160.314,39.978 158.029,38.253 C154.138,35.327 149.036,35.061 144.604,35.061 C140.442,35.061 133.995,34.928 129.696,39.712 C126.475,43.304 126.608,47.156 126.475,51.812 L159.108,51.812 Z M137.083,93.823 C129.833,93.823 121.239,93.158 115.329,84.915 C110.631,78.269 110.227,68.563 110.227,59.257 C110.227,46.097 110.897,36.391 118.688,29.745 C126.475,23.094 138.561,23.094 145.273,23.094 C153.601,23.094 162.196,23.493 168.775,27.617 C177.099,32.8 178.847,41.574 178.847,50.482 C178.847,54.073 178.443,58.192 175.488,61.119 C173.341,63.247 170.652,63.779 167.835,63.779 L126.475,63.779 C126.475,66.834 126.878,71.357 127.415,73.48 C129.43,81.063 136.009,81.856 141.782,81.856 L176.562,81.856 L176.562,93.823 L137.083,93.823 L137.083,93.823 Z" id="Fill-2"></path>
                    <path d="M218.312,93.823 C208.777,93.823 203.674,92.227 199.242,88.64 C194.677,84.915 192.125,79.732 192.125,70.825 L192.125,35.327 L182.325,35.327 L182.325,23.36 L192.125,23.36 L192.125,0.761 L207.836,0.761 L207.836,23.36 L227.713,23.36 L227.713,35.327 L207.836,35.327 L207.836,63.646 C207.836,68.43 207.437,75.077 212.003,78.801 C215.494,81.723 221.4,81.856 224.221,81.856 L228.117,81.856 L228.117,93.823 L218.312,93.823" id="Fill-3"></path>
                    <path d="M233.481,49.95 C233.481,42.239 234.82,34.662 240.863,29.479 C247.443,23.759 256.712,23.36 262.213,23.36 L272.822,23.36 L272.822,35.327 L266.242,35.327 C262.08,35.327 256.574,35.859 252.816,40.244 C249.861,43.836 249.191,48.753 249.191,54.073 L249.191,93.823 L233.481,93.823 L233.481,49.95" id="Fill-4"></path>
                    <path d="M278.19,93.823 L293.901,93.823 L293.901,23.36 L278.19,23.36 L278.19,93.823 Z M278.19,13.122 L293.901,13.122 L293.901,0.761 L278.19,0.761 L278.19,13.122 Z" id="Fill-5"></path>
                    <polygon id="Fill-7" points="371.014 93.823 386.725 93.823 386.725 23.36 371.014 23.36"></polygon>
                    <path d="M330.42,93.823 C325.047,93.823 315.645,92.759 309.203,85.181 C303.293,78.269 302.756,69.495 302.756,59.523 C302.756,51.147 302.889,39.047 310.814,30.937 C313.768,28.016 319.811,23.36 332.567,23.36 L363.048,23.36 L363.048,35.327 L337.67,35.327 C327.061,35.327 321.959,40.51 320.211,46.496 C319.137,50.216 319.004,57.66 319.004,59.789 C319.004,63.912 319.408,70.692 321.289,74.412 C324.776,81.191 332.567,81.856 339.147,81.856 L364.659,81.856 L364.659,93.823 L330.42,93.823" id="Fill-6"></path>
                </g>
                <g id="Logo-/-Icon-/-Blue" transform="translate(363.000000, 0.000000)" fill="#15C4FD">
                    <g id="Logo">
                        <g id="Circles">
                            <path d="M154.844,58.319 C160.332,65.937 158.606,76.561 150.988,82.05 C143.37,87.538 132.746,85.812 127.257,78.194 C121.769,70.576 123.495,59.951 131.113,54.463 C138.731,48.975 149.355,50.701 154.844,58.319 Z M149.326,62.294 C146.033,57.723 139.659,56.687 135.088,59.98 C130.517,63.273 129.482,69.648 132.775,74.219 C136.068,78.79 142.442,79.825 147.013,76.532 C151.584,73.239 152.619,66.865 149.326,62.294 Z" id="Combined-Shape"></path>
                            <path d="M31.304,7.238 C36.792,14.856 35.066,25.48 27.448,30.969 C19.83,36.457 9.206,34.731 3.717,27.113 C-1.771,19.495 -0.045,8.871 7.573,3.382 C15.191,-2.106 25.815,-0.38 31.304,7.238 Z M25.786,11.213 C22.493,6.642 16.119,5.607 11.548,8.9 C6.977,12.193 5.942,18.567 9.235,23.138 C12.528,27.709 18.902,28.744 23.473,25.451 C28.044,22.158 29.079,15.784 25.786,11.213 Z" id="Combined-Shape"></path>
                            <path d="M62.196,123.874 C67.02,130.57 65.502,139.909 58.807,144.733 C52.111,149.557 42.772,148.039 37.948,141.344 C33.124,134.648 34.642,125.309 41.337,120.485 C48.033,115.661 57.372,117.178 62.196,123.874 Z M57.346,127.368 C54.452,123.351 48.849,122.44 44.831,125.335 C40.814,128.229 39.903,133.832 42.798,137.85 C45.692,141.867 51.295,142.778 55.313,139.883 C59.33,136.989 60.241,131.386 57.346,127.368 Z" id="Combined-Shape"></path>
                            <path d="M139.194,121.817 C146.397,133.033 143.145,147.965 131.929,155.169 C120.714,162.373 105.782,159.12 98.578,147.905 C91.374,136.689 94.626,121.757 105.842,114.553 C117.058,107.349 131.99,110.602 139.194,121.817 Z M131.07,127.035 C126.748,120.305 117.789,118.354 111.06,122.676 C104.33,126.999 102.379,135.958 106.701,142.687 C111.023,149.417 119.983,151.368 126.712,147.046 C133.441,142.723 135.393,133.764 131.07,127.035 Z" id="Combined-Shape"></path>
                            <path d="M110.889,54.562 C123.055,73.502 117.562,98.718 98.622,110.883 C79.682,123.049 54.466,117.557 42.3,98.616 C30.135,79.676 35.627,54.46 54.567,42.295 C73.508,30.129 98.724,35.621 110.889,54.562 Z M97.171,63.373 C89.872,52.008 74.743,48.713 63.378,56.012 C52.014,63.312 48.719,78.441 56.018,89.805 C63.317,101.17 78.447,104.465 89.811,97.166 C101.175,89.867 104.471,74.737 97.171,63.373 Z" id="Combined-Shape"></path>
                        </g>
                        <g id="Circle-Connectors" transform="translate(22.000000, 22.000000)">
                            <path d="M9.031,0.164 C9.031,0.164 9.101,5.641 18.8,14.852 C28.499,24.063 32.693,22.144 32.693,22.144 C32.693,22.144 28.53,24.585 26.483,26.741 C24.436,28.896 22.477,31.791 22.477,31.791 C22.477,31.791 23.384,28.061 13.962,19.113 C4.54,10.166 0.554,10.479 0.554,10.479 C0.554,10.479 9.138,6.989 9.031,0.164" id="Fill-15"></path>
                            <path d="M29.531,96.67 C29.531,96.67 32.728,96.931 34.214,93.563 C35.7,90.196 32.867,88.428 32.867,88.428 C32.867,88.428 35.994,90.211 38.094,91.137 C40.194,92.064 42.693,92.994 42.693,92.994 C42.693,92.994 40.129,92.437 38.686,95.709 C37.242,98.98 39.045,100.58 39.045,100.58 C39.045,100.58 33.506,96.987 29.531,96.67" id="Fill-16"></path>
                            <path d="M83.387,82.324 C83.387,82.324 80.912,85.506 83.234,88.73 C85.556,91.953 89.279,89.9 89.279,89.9 C89.279,89.9 85.337,92.251 82.96,93.964 C80.582,95.677 77.923,97.803 77.923,97.803 C77.923,97.803 80.254,95.423 77.998,92.292 C75.742,89.161 72.9,90.229 72.9,90.229 C72.9,90.229 80.317,86.285 83.387,82.324" id="Fill-17"></path>
                            <path d="M93.3,43.929 C93.3,43.929 94.878,47.165 98.899,46.655 C102.921,46.145 102.97,42.39 102.97,42.39 C102.97,42.39 103.074,46.438 103.399,49 C103.724,51.562 104.273,54.512 104.273,54.512 C104.273,54.512 103.335,51.716 99.428,52.211 C95.522,52.706 95.042,55.37 95.042,55.37 C95.042,55.37 95.269,47.949 93.3,43.929" id="Fill-18"></path>
                        </g>
                    </g>
                </g>
            </g>
        </g>
    </g>
</svg>