<?xml version="1.0" encoding="utf-8"?>
<!-- Generator: Adobe Illustrator 28.0.0, SVG Export Plug-In . SVG Version: 6.00 Build 0)  -->
<svg version="1.1" id="Layer_1" xmlns="http://www.w3.org/2000/svg" xmlns:xlink="http://www.w3.org/1999/xlink" x="0px" y="0px"
	 viewBox="0 0 891.4 336.6" style="enable-background:new 0 0 891.4 336.6;" xml:space="preserve">
<style type="text/css">
	.st0{fill:#054E5A;}
	.st1{fill:#A1A9B4;}
	.st2{fill:#E1B77E;}
	.st3{fill:none;}
</style>
<g>
	<g>
		<g>
			<g>
				<path class="st0" d="M209.1,77.1l-32.5,86.1h13.5l7.6-20h39.8l7.5,20h13.5l-32.5-86.1H209.1z M202.2,131.1l15.4-40.9l15.3,40.9
					H202.2z"/>
				<path class="st0" d="M279.2,82.6h-11.3V89c0,4.5-0.6,7.8-1.7,9.8c-1.1,2-3.5,3-7.2,3h-6.6v11.2h14.1v34.6c0,5.4,1.3,9.4,4,11.9
					c2.7,2.5,6.6,3.8,12,3.8h13.5v-10.8h-8.7c-3,0-5.1-0.6-6.3-1.7c-1.2-1.1-1.8-2.9-1.8-5.3v-32.5h16.8v-11.2h-16.8V82.6z"/>
				<rect x="305.1" y="77.1" class="st0" width="12.6" height="86.1"/>
				<path class="st0" d="M379.7,150.8c-0.8-0.8-1.2-2.3-1.2-4.4v-24c0-6.9-2.2-12.2-6.7-16.1c-4.5-3.9-10.6-5.8-18.4-5.8
					c-7.9,0-14.1,2-18.6,6c-4.5,4-7.1,9.3-7.6,15.9h11.6c0.6-3.6,2-6.4,4.3-8.4c2.3-2,5.5-3,9.8-3c4.2,0,7.5,1.1,9.8,3.1
					c2.3,2.1,3.5,5.2,3.5,9.4v3h-17.5c-7.4,0-13.1,1.7-17.2,5.1c-4.1,3.4-6.2,8.1-6.2,13.9c0,3.9,0.9,7.2,2.7,10
					c1.8,2.8,4.3,5,7.6,6.6c3.3,1.5,7.1,2.3,11.4,2.3c4.7,0,8.8-0.8,12.1-2.3c3.4-1.5,6.1-3.9,8.2-6.9c1.1,2.7,2.9,4.6,5.4,6
					c2.5,1.3,5.5,2,9.1,2h3.6V152H384C381.9,152,380.5,151.6,379.7,150.8z M361.5,149.5c-3.2,3-7.3,4.4-12.5,4.4
					c-3.7,0-6.5-0.7-8.5-2.2c-2-1.5-3-3.7-3-6.5c0-2.7,1-4.9,2.9-6.4c1.9-1.5,4.8-2.2,8.7-2.2h17.2v1.3
					C366.2,142.7,364.6,146.6,361.5,149.5z"/>
				<path class="st0" d="M438.4,133.4c-2.8-3-6.8-4.8-12.1-5.5l-14.6-2.1c-2.6-0.4-4.5-1.2-5.9-2.4c-1.4-1.2-2.1-2.7-2.1-4.7
					c0-2.5,1.1-4.4,3.2-5.8c2.1-1.4,5-2.1,8.5-2.1c3.9,0,7,0.8,9.3,2.5c2.2,1.7,3.7,4,4.5,7h11.7c-0.9-5.9-3.4-10.7-7.5-14.5
					c-4.2-3.7-10-5.6-17.5-5.6c-7.5,0-13.4,1.7-17.9,5.2c-4.5,3.5-6.7,8.1-6.7,13.8c0,4.7,1.5,8.5,4.6,11.5c3.1,3,7.6,4.9,13.6,5.7
					l12.2,1.7c2.8,0.4,4.9,1.2,6.4,2.3c1.4,1.1,2.1,2.7,2.1,4.8c0,2.7-1.1,4.7-3.4,6.2c-2.3,1.5-5.5,2.2-9.6,2.2
					c-4.7,0-8.4-1-11.1-2.9c-2.7-1.9-4.4-4.6-5.2-8.2h-11.7c0.9,7,3.7,12.4,8.5,16.1c4.8,3.7,11.2,5.5,19.1,5.5
					c8.5,0,14.9-1.7,19.3-5.2c4.4-3.5,6.6-8.2,6.6-14.3C442.6,140.2,441.2,136.4,438.4,133.4z"/>
			</g>
			<path class="st0" d="M490.4,158.8c-6.3-3.8-11.3-9.1-14.9-15.8c-3.6-6.7-5.4-14.3-5.4-22.8c0-8.6,1.8-16.2,5.4-22.9
				c3.6-6.7,8.6-12,14.9-15.7c6.3-3.8,13.5-5.7,21.6-5.7c6.5,0,12.4,1.2,17.8,3.7c5.4,2.5,9.8,6,13.3,10.6c3.5,4.6,5.8,9.9,6.9,16
				h-13.5c-1.4-5.7-4.2-10.2-8.6-13.4c-4.4-3.2-9.7-4.8-16.1-4.8c-5.7,0-10.6,1.3-15,4c-4.3,2.7-7.7,6.4-10.1,11.3
				c-2.4,4.9-3.6,10.5-3.6,16.8c0,6.4,1.2,12.1,3.6,17c2.4,4.9,5.8,8.7,10.1,11.4c4.3,2.7,9.3,4,15,4c6.4,0,11.8-1.6,16.3-4.9
				c4.4-3.3,7.3-7.7,8.5-13.4h13.5c-1.1,6-3.4,11.3-7,15.9c-3.6,4.6-8,8.1-13.4,10.7c-5.4,2.5-11.3,3.8-17.7,3.8
				C503.9,164.5,496.7,162.6,490.4,158.8z"/>
			<path class="st0" d="M570.1,160.4c-4.7-2.7-8.3-6.5-11-11.4c-2.7-4.8-4-10.3-4-16.5c0-6.2,1.3-11.7,4-16.5
				c2.7-4.8,6.3-8.6,11-11.4c4.7-2.7,10-4.1,16-4.1c6,0,11.3,1.4,16,4.1c4.7,2.7,8.3,6.5,11,11.4c2.7,4.8,4,10.3,4,16.5
				c0,6.2-1.3,11.7-4,16.5c-2.7,4.8-6.3,8.6-11,11.4c-4.7,2.7-10,4.1-16,4.1C580.1,164.5,574.8,163.1,570.1,160.4z M599.3,147.8
				c3.3-3.8,4.9-8.9,4.9-15.4c0-6.4-1.7-11.5-4.9-15.4c-3.3-3.8-7.7-5.7-13.2-5.7c-5.5,0-9.9,1.9-13.2,5.7
				c-3.3,3.8-4.9,8.9-4.9,15.4c0,6.4,1.6,11.5,4.9,15.4c3.3,3.8,7.7,5.7,13.2,5.7C591.6,153.6,596,151.7,599.3,147.8z"/>
			<path class="st0" d="M624,101.8h12.3v7.8c2.4-3,5.2-5.3,8.5-6.8c3.3-1.5,7-2.3,11-2.3c5.5,0,10.3,1.3,14.6,4
				c4.2,2.7,7.6,6.5,10,11.4c2.4,4.9,3.6,10.4,3.6,16.6c0,6.2-1.2,11.7-3.6,16.6c-2.4,4.9-5.7,8.7-10,11.4c-4.2,2.7-9.1,4-14.6,4
				c-3.9,0-7.4-0.6-10.7-1.9c-3.3-1.2-6.1-3.1-8.5-5.5v30.5H624V101.8z M666.6,148c3-3.7,4.6-8.9,4.6-15.5c0-6.6-1.5-11.8-4.6-15.5
				c-3-3.7-7.2-5.6-12.5-5.6c-5.5,0-9.8,1.9-12.9,5.6c-3.1,3.7-4.6,8.9-4.6,15.5c0,6.6,1.5,11.8,4.6,15.5c3.1,3.7,7.4,5.6,12.9,5.6
				C659.4,153.6,663.6,151.7,666.6,148z"/>
			<path class="st0" d="M703.7,160.5c-4.5-2.7-8.1-6.4-10.5-11.2c-2.5-4.8-3.7-10.4-3.7-16.8c0-6.3,1.3-11.9,3.8-16.8
				c2.5-4.8,6.1-8.6,10.7-11.2c4.6-2.7,9.8-4,15.6-4c7.7,0,14.1,2,19.1,5.9c5,3.9,8.1,9.5,9.2,16.6h-12.2c-1.1-3.8-3-6.6-5.8-8.6
				c-2.7-2-6.1-3-10-3c-5.5,0-9.8,1.8-13,5.5c-3.2,3.7-4.8,8.9-4.8,15.5c0,6.7,1.6,11.9,4.8,15.5c3.2,3.7,7.4,5.5,12.7,5.5
				c4.1,0,7.5-1,10.3-3c2.7-2,4.7-4.8,5.8-8.6h12.2c-1.3,7.2-4.5,12.7-9.6,16.6c-5.1,3.9-11.4,5.8-18.9,5.8
				C713.4,164.5,708.2,163.2,703.7,160.5z"/>
			<path class="st0" d="M767.3,160.4c-4.7-2.7-8.3-6.5-11-11.4c-2.7-4.8-4-10.3-4-16.5c0-6.2,1.3-11.7,4-16.5
				c2.7-4.8,6.3-8.6,11-11.4c4.7-2.7,10-4.1,16-4.1c6,0,11.3,1.4,16,4.1c4.7,2.7,8.3,6.5,11,11.4c2.7,4.8,4,10.3,4,16.5
				c0,6.2-1.3,11.7-4,16.5c-2.7,4.8-6.3,8.6-11,11.4c-4.7,2.7-10,4.1-16,4.1C777.4,164.5,772,163.1,767.3,160.4z M796.5,147.8
				c3.3-3.8,4.9-8.9,4.9-15.4c0-6.4-1.7-11.5-4.9-15.4c-3.3-3.8-7.7-5.7-13.2-5.7c-5.5,0-9.9,1.9-13.2,5.7
				c-3.3,3.8-4.9,8.9-4.9,15.4c0,6.4,1.6,11.5,4.9,15.4c3.3,3.8,7.7,5.7,13.2,5.7C788.8,153.6,793.2,151.7,796.5,147.8z"/>
		</g>
		<g>
			<path class="st1" d="M100.6,253.7c-7.6-4.6-13.4-11-17.4-19.2c-4-8.2-6-17.4-6-27.7c0-10.8,2.2-20.3,6.6-28.7
				c4.4-8.4,10.6-14.9,18.5-19.6c7.9-4.7,16.9-7,27-7c11.2,0,20.9,2.9,29,8.5c8.2,5.7,13.9,13.8,17.3,24.4h-17.3
				c-2.5-5.7-6.2-10.1-11.1-13.1c-4.9-3.1-10.9-4.6-17.9-4.6c-7.2,0-13.5,1.6-18.9,4.8c-5.4,3.2-9.5,7.9-12.4,13.9
				c-2.9,6-4.4,13-4.4,21c0,7.7,1.5,14.6,4.4,20.5c2.9,5.9,7,10.5,12.3,13.8c5.3,3.3,11.3,4.9,18.1,4.9c6.3,0,12-1.3,16.9-4
				c4.9-2.6,8.7-5.9,11.3-9.9c2.6-4,4-7.8,4-11.5v-17.7h15.8v57.1H161V245c-2.6,3.4-5.6,6.3-9,8.6c-3.4,2.3-7.2,4.1-11.4,5.2
				c-4.1,1.2-8.6,1.8-13.5,1.8C117,260.6,108.1,258.3,100.6,253.7z"/>
			<path class="st1" d="M189.7,182.4h15.5v10.3c3-3.5,6.3-6.2,10-8.1c3.7-1.8,8-2.7,13.1-2.7h2.9v15h-6c-6.3,0-11.2,1.8-14.6,5.4
				c-3.4,3.6-5.1,8.6-5.1,15.1v42.1h-15.8V182.4z"/>
			<path class="st1" d="M250.6,256c-5.9-3.4-10.5-8.2-13.8-14.3c-3.3-6.1-5-13-5-20.7s1.7-14.6,5-20.7c3.3-6.1,7.9-10.8,13.8-14.3
				c5.9-3.4,12.6-5.2,20.1-5.2c7.5,0,14.2,1.7,20.1,5.2c5.9,3.4,10.5,8.2,13.8,14.3c3.3,6.1,5,13,5,20.7s-1.7,14.7-5,20.7
				c-3.3,6.1-7.9,10.8-13.8,14.3c-5.9,3.4-12.6,5.2-20.1,5.2C263.1,261.1,256.4,259.4,250.6,256z M287.2,240.2
				c4.1-4.8,6.2-11.2,6.2-19.3s-2.1-14.5-6.2-19.3c-4.1-4.8-9.7-7.2-16.5-7.2c-6.9,0-12.4,2.4-16.5,7.2c-4.1,4.8-6.2,11.2-6.2,19.3
				s2.1,14.5,6.2,19.3c4.1,4.8,9.6,7.2,16.5,7.2C277.5,247.4,283,245,287.2,240.2z"/>
			<path class="st1" d="M325.3,252.9c-5.2-5.5-7.7-13-7.7-22.4v-48.1h15.8v45.8c0,5.8,1.6,10.5,4.7,14c3.1,3.5,7.3,5.2,12.4,5.2
				c5.8,0,10.4-1.9,13.9-5.8c3.4-3.9,5.2-9,5.2-15.5v-43.7h15.8v77.1h-15.5v-8.7c-3,3.4-6.5,6-10.3,7.7c-3.9,1.7-8.3,2.6-13.2,2.6
				C337.5,261.1,330.5,258.4,325.3,252.9z"/>
			<path class="st1" d="M398.2,182.4h15.5v9.8c3-3.8,6.6-6.6,10.7-8.5c4.1-1.9,8.7-2.9,13.8-2.9c6.9,0,13,1.7,18.3,5.1
				c5.3,3.4,9.5,8.1,12.5,14.3c3,6.1,4.5,13.1,4.5,20.8s-1.5,14.7-4.5,20.8c-3,6.1-7.2,10.9-12.5,14.3c-5.3,3.4-11.4,5.1-18.3,5.1
				c-4.8,0-9.3-0.8-13.5-2.3c-4.1-1.6-7.7-3.8-10.7-6.9v38.2h-15.8V182.4z M451.7,240.4c3.8-4.7,5.7-11.2,5.7-19.4
				c0-8.3-1.9-14.8-5.7-19.4c-3.8-4.7-9.1-7-15.7-7c-6.9,0-12.3,2.3-16.1,7c-3.9,4.7-5.8,11.2-5.8,19.4c0,8.3,1.9,14.8,5.8,19.4
				c3.9,4.7,9.2,7,16.1,7C442.6,247.4,447.9,245.1,451.7,240.4z"/>
		</g>
		<rect x="132.3" y="202.4" class="st2" width="18.7" height="18.7"/>
	</g>
	<rect class="st3" width="891.4" height="336.6"/>
</g>
</svg>
