<svg id="Layer_1" data-name="Layer 1" xmlns="http://www.w3.org/2000/svg" viewBox="0 0 271.68 271.68"><defs><style>.cls-1,.cls-3{fill:#fff;}.cls-1,.cls-2{stroke:#000;stroke-miterlimit:3.86;}.cls-1{stroke-width:4.71px;}.cls-2{stroke-width:0.94px;}.cls-3{fill-rule:evenodd;}</style></defs><title>DKM logo(black)</title><path class="cls-1" d="M9.42,140.08A133.49,133.49,0,1,1,142.91,273.57,133.48,133.48,0,0,1,9.42,140.08Z" transform="translate(-7.07 -4.24)"/><path class="cls-2" d="M16,140.08A126.92,126.92,0,1,1,142.91,267,126.91,126.91,0,0,1,16,140.08Z" transform="translate(-7.07 -4.24)"/><path class="cls-3" d="M231.56,141a3.76,3.76,0,0,0,2.48-2.77l-23.83-61,22.59-8.36c-1.29.87-4,2.42-4,5,0,1.61,21.65,56.29,21.65,56.32a11.12,11.12,0,0,0,7.44.93L231.56,141Zm-13,3.72s-51.08-45.13-52-46.14c-1.51-1.73-2-2.16-6.2-1.51l24.75-9.9,23.52,22s-.77-26.3-.31-29.09c-.31,2.33,2.81,7.28,4.64,13.3,0,.1,5.57,51.37,5.57,51.37ZM188.85,158c.81-1.21,1.59-1.12,1.87-3.09l-18.88-49.2a58.89,58.89,0,0,0,5,4.94s15.26,39.9,17.44,42.28a4.32,4.32,0,0,0,3.6,1.36s-7.68,3-9,3.71Zm-38.66,15.16c1.82-1,4.11-1.83,4.64-4l-24.15-26c-1.28,1.29-1.22,2.16-2.46,4.64-1.08-3-2.07-4.8-2.48-6.51L141.84,106c.3-1.16-1-1-1.87-1.23l9-3.41c-3.17,3.16-11.14,24.76-11.14,24.76,0,1.42,35.74,34.48,37.45,35.45a4.85,4.85,0,0,0,2.46.75l-27.53,10.83ZM52.1,211.25a3.56,3.56,0,0,0,.92-2.47S31.25,152.7,30.8,151.45a3.23,3.23,0,0,0-2.84-2.4L49,141l24.53,62.05-21.05,8-.38.15Zm65.29-25.07c.84-1.05,1.85-2.6,1.85-3.71,0-.41-22-56.21-22.51-57.27s-1.36-1.37-3.79-1.52l21.66-8.35a1.92,1.92,0,0,0,0,2.17c0,1.2,21.46,57,22,58s1.44,1.39,4.33,1.39l-23.51,9.28Zm-47-53.31c10.86.85,23.62,11.91,27.24,26.07,4.75,11.67,5,27.67-4.61,36.52l-15.52,6.2-1.54-3.41c3.29-6.47,5.6-18.68,2.09-30.17-4.19-13.72-13.83-23.34-22.93-23.77L53,139.77l17.33-7.12c0,.09,0,.22,0,.22Zm10.26,7.21a62.29,62.29,0,1,1,62.29,62.28,62.31,62.31,0,0,1-62.29-62.28Zm.8,0a61.49,61.49,0,1,1,61.49,61.49,61.5,61.5,0,0,1-61.49-61.49Zm188.41-.72v1.58H16v-1.58h0M142.12,13.16h1.59V267h-1.59V13.16Z" transform="translate(-7.07 -4.24)"/></svg>