<?xml version="1.0" encoding="UTF-8"?>
<svg id="Lager_2" data-name="Lager 2" xmlns="http://www.w3.org/2000/svg" viewBox="0 0 192.72 85.04">
  <defs>
    <style>
      .cls-1 {
        fill: none;
      }

      .cls-1, .cls-2 {
        stroke-width: 0px;
      }

      .cls-2 {
        fill: #043349;
      }
    </style>
  </defs>
  <g id="margin">
    <g>
      <path class="cls-2" d="M78.12,39.45c.06.19.17.42.38.63.11.11.3.18.49.23h8.13c.17-.07.36-.17.54-.35.13-.13.21-.37.26-.59v-15.89c0-6.92-2.61-12.37-11.23-12.37-4.7,0-7.77,1.46-10.05,5.1-1.7-3.46-5.35-5.1-9.79-5.1-4.76,0-7.96,2.34-9.27,4.57h-.13v-3.37c-.05-.09-.12-.17-.2-.26-.11-.11-.32-.19-.53-.24h-8.06c-.18.06-.38.17-.56.36-.02.02-.03.04-.04.06v27.17c.06.19.17.43.38.64.13.13.41.22.64.27h7.87c.19-.06.43-.17.65-.38.12-.12.2-.36.26-.58v-13.23c0-3.69.78-7.27,5.88-7.27,4.5,0,4.37,4.28,4.37,6.39v14.24c.06.17.17.37.35.55.14.15.44.23.69.28h7.79c.2-.06.45-.17.67-.39.15-.15.24-.47.29-.72v-13.96c0-3.52,1.44-6.39,5.94-6.39,3.2,0,4.31,2.23,4.31,4.87v15.73Z"/>
      <path class="cls-2" d="M124.67,27.58v-1.52c0-9.09-5.94-14.95-15.4-14.95-10.13,0-18.23,5.86-18.23,14.95s8.11,14.95,18.23,14.95c4.91,0,9.87-1.78,13.15-4.92.11-.18.23-.42.25-.66,0-.14-.08-.3-.19-.45l-5.92-3.77c-.18-.07-.37-.12-.57-.08-.11.03-.25.11-.39.21-1.63,1.75-3.76,2.99-6.8,2.99-3.64,0-6.58-1.75-7.6-4.69-.08-.23-.18-.58.09-.76.24-.16.62-.06.62-.06h21.75c.2-.05.47-.16.7-.4.18-.18.26-.58.31-.84ZM113.87,22.84h-12.27s-.3.04-.36-.14c-.04-.13-.02-.27.02-.48.55-2.52,2.94-4.78,7.06-4.78,3.36,0,5.87,2.09,6.18,4.72.03.22-.02.31-.15.49-.16.21-.49.18-.49.18Z"/>
      <path class="cls-2" d="M177.73,11.12c-4.89,0-9.83,1.28-13.48,3.84-.33.23-.51.34-.51.79s.26.59.26.59l3.27,3.39s.26.33.62.32c.37,0,.54-.21.82-.4,2.91-2.04,5.47-2.81,8.42-2.75,4.42.08,5.91,1.96,6.24,4.74.02.18-.01.24-.12.4-.09.13-.18.16-.36.16-8.47.01-21.71.37-21.71,10.03,0,5.75,5.54,8.8,11.68,8.8,3.99,0,7.91-1.15,10.18-3.99.08-.1.14-.09.24-.07.13.02.12.29.12.29v2.1s-.02.57.21.79c.23.22.68.18.68.18h7.4s.37.07.74-.18c.31-.21.3-.74.3-.74v-13.56c0-9.5-3.17-14.72-14.99-14.72ZM183.35,29.8c0,2.56-3.43,5.24-7.65,5.24-2.23,0-4.8-.99-4.8-3.11,0-3.87,7-4.37,10-4.1,1.18.18,1.74.6,1.78.63.38.31.62.99.67,1.34Z"/>
      <path class="cls-2" d="M87.94,73.57v-26.89c-.06-.19-.17-.42-.38-.62-.13-.13-.4-.21-.63-.27h-7.86c-.19.06-.43.17-.64.38-.19.19-.28.64-.32.89v26.48c.07.15.17.32.32.48.13.13.38.21.61.26h8.08c.19-.06.42-.17.62-.37.08-.08.14-.2.19-.34Z"/>
      <path class="cls-2" d="M124.34,73.35v-14.78c0-7.62-1.89-13.48-12.16-13.48-4.53,0-7.69,1.98-9.22,4.03-.11.14-.26.34-.39.28-.12-.06-.12-.37-.12-.37v-2.45c-.07-.17-.17-.35-.34-.52-.13-.13-.4-.21-.63-.27h-8.03c-.16.07-.33.17-.49.32-.11.11-.19.32-.24.52v26.83c.06.19.17.41.37.61.09.09.24.16.4.21h8.68c.15-.07.32-.16.47-.32.09-.09.16-.24.21-.41v-13.46c0-3.69.81-7.27,6.08-7.27s5.27,4.22,5.27,7.5v13.2c.07.16.17.34.33.5.13.13.38.21.61.26h8.33c.19-.06.42-.17.62-.37.12-.12.2-.34.25-.55Z"/>
      <path class="cls-2" d="M139.74,53.76c.18-.28.56-.3.56-.3l1.11-.02c2.14-.07,5.27-.43,6.1-.44,6.66-.08,11.37-5.65,11.37-15.11V12.87s0-.48-.35-.79c-.35-.31-.68-.26-.68-.26h-6.85s-.31,0-.62.2c-.27.19-.27.73-.27.73v1.74c-.03.19-.15.25-.31.25-.13,0-.34-.08-.48-.22-1.43-1.4-3.91-3.01-9.41-2.89-9.86.23-12.78,10.66-12.78,14.43,0,7.01,3.75,14.31,13.89,14.31,2.86,0,6.34-.6,8.68-3,.15-.15.17-.09.35-.09.16,0,.21.4.21.4v1.97c0,4.66-2.49,6.76-6.17,6.76-.57,0-1.08,0-1.54.02h-2.26s-.28.1-.51-.13c-.34-.34-.24-.9-.24-.9v-1.94s.06-.14-.21-.51c-.27-.37-.85-.42-.85-.42h-8.07s-.34.08-.62.31c-.34.28-.38.73-.38.73v2.28s.04.17-.13.34c-.11.11-.56.24-.56.24h-2.48s-.12-.02-.44.3c-.11.11-.15.59-.15.59v5.53s-.03.4.14.51c.21.14.45.11.45.11h2.43s.15-.08.57.23c.23.17.19.56.19.56v12.09c0,6.21,5.2,8.62,11.95,8.62.73,0,1.58-.04,2.48-.12.23-.02.45-.08.56-.25.11-.17.13-.51.13-.51v-5.59s.02-.76-.07-.85c-.23-.22-.44-.15-.69-.16-3.7-.24-4.24-2.32-4.24-5.19v-8.16s0-.12.18-.4ZM142.41,33.42c-5.29,0-7.52-3.09-7.52-7.56s4.05-7.36,6.9-7.36c6.7,0,8.23,4.87,8.23,7.59,0,6.13-6.02,7.33-7.62,7.33Z"/>
      <path class="cls-2" d="M57.57,75.62c10.14,0,17.17-6.21,17.17-15.52s-7.03-15.13-17.17-15.13-17.23,6.04-17.23,15.36,7.08,15.29,17.23,15.29ZM57.57,52.9c6.71,0,8.11,4.13,8.11,7.39,0,6.45-5.44,7.39-8.11,7.39-4.68,0-8.11-2.62-8.11-7.39,0-3.87,1.45-7.39,8.11-7.39Z"/>
      <ellipse class="cls-2" cx="157.05" cy="68.4" rx="7.36" ry="6.55"/>
      <path class="cls-2" d="M22.21,45.33c-4.59,0-7.85,1.8-9.4,3.85h-.13v-2.97c-.07-.17-.17-.36-.35-.53-.12-.12-.35-.2-.56-.25h-7.39c-.18.06-.4.17-.59.36-.1.1-.18.28-.23.47v37.92c.06.18.17.4.37.6.08.08.19.13.32.18h8.02c.14-.07.28-.16.42-.29.06-.06.1-.14.14-.23v-13.56h.13c2.3,2.76,6.21,3.75,10.4,3.75,9.32,0,14.99-7.27,14.99-15.19,0-8.62-6.42-14.11-16.15-14.11ZM21.85,66.88c-5.06,0-8.1-2.93-8.1-7.21s3.59-7.21,8.1-7.21c5.07,0,8.1,2.93,8.1,7.21s-2.2,7.21-8.1,7.21Z"/>
      <path class="cls-2" d="M17.23,40.99c10.14,0,17.17-6.21,17.17-15.52s-7.03-15.13-17.17-15.13S0,16.38,0,25.7s7.08,15.29,17.23,15.29ZM17.23,18.27c6.71,0,8.11,4.13,8.11,7.39,0,6.45-5.44,7.39-8.11,7.39-4.68,0-8.11-2.62-8.11-7.39,0-3.87,1.45-7.39,8.11-7.39Z"/>
    </g>
    <rect class="cls-1" width="192.72" height="85.04"/>
  </g>
</svg>