<?xml version="1.0" encoding="UTF-8" standalone="no"?>
<!-- Generator: Adobe Illustrator 15.0.0, SVG Export Plug-In . SVG Version: 6.00 Build 0)  -->
<svg version="1.1" id="Lager_1" x="0px" y="0px" width="800" height="800" viewBox="0 0 800 800" enable-background="new 0 0 842 595" xml:space="preserve" inkscape:version="1.4 (e7c3feb100, 2024-10-09)" sodipodi:docname="systemgruppen.svg" xmlns:inkscape="http://www.inkscape.org/namespaces/inkscape" xmlns:sodipodi="http://sodipodi.sourceforge.net/DTD/sodipodi-0.dtd" xmlns="http://www.w3.org/2000/svg" xmlns:svg="http://www.w3.org/2000/svg" xmlns:rdf="http://www.w3.org/1999/02/22-rdf-syntax-ns#" xmlns:cc="http://creativecommons.org/ns#" xmlns:dc="http://purl.org/dc/elements/1.1/"><metadata id="metadata3427"><rdf:RDF><cc:Work rdf:about=""><dc:format>image/svg+xml</dc:format><dc:type rdf:resource="http://purl.org/dc/dcmitype/StillImage"/></cc:Work></rdf:RDF></metadata><defs id="defs3425">
	
	
	
	
	
	
</defs><sodipodi:namedview pagecolor="#ffffff" bordercolor="#666666" borderopacity="1" objecttolerance="10" gridtolerance="10" guidetolerance="10" inkscape:pageopacity="0" inkscape:pageshadow="2" inkscape:window-width="2560" inkscape:window-height="1368" id="namedview3423" showgrid="false" inkscape:zoom="0.94933245" inkscape:cx="259.12945" inkscape:cy="368.15343" inkscape:window-x="0" inkscape:window-y="0" inkscape:window-maximized="1" inkscape:current-layer="Lager_1" inkscape:showpageshadow="2" inkscape:pagecheckerboard="0" inkscape:deskcolor="#d1d1d1" inkscape:clip-to-page="false"/>

<circle style="display:inline;fill:#ee2a7b;stroke-width:2.68227" id="circle3237" cy="389.28726" cx="400.50421" inkscape:export-filename="/home/frost/Downloads/g4285.png" inkscape:export-xdpi="90" inkscape:export-ydpi="90" r="348.3396"/><g id="g3317" inkscape:export-filename="/home/frost/Downloads/g4285.png" inkscape:export-xdpi="90" inkscape:export-ydpi="90" transform="matrix(2.6822588,0,0,2.6822588,-722.24776,-383.17647)" style="display:inline">
		
			<linearGradient gradientTransform="matrix(4,-2.593994e-4,-2.593994e-4,-4,-3186.3069,-574.4521)" y2="-221.0686" x2="900.94263" y1="-221.0686" x1="877.677" gradientUnits="userSpaceOnUse" id="SVGID_1_">
			<stop id="stop3320" style="stop-color:#FCED00" offset="0"/>
			<stop id="stop3322" style="stop-color:#FCB216" offset="1"/>
		</linearGradient>
		<polygon style="fill:url(#SVGID_1_)" id="polygon3324" points="324.46,387.327 417.513,206.791 361.528,412.392 337.527,408.926 "/>
		
			<linearGradient gradientTransform="matrix(4,-2.593994e-4,-2.593994e-4,-4,-3186.3069,-574.4521)" y2="-215.2683" x2="900.94263" y1="-215.2683" x1="868.1438" gradientUnits="userSpaceOnUse" id="SVGID_2_">
			<stop id="stop3327" style="stop-color:#FCED00" offset="0"/>
			<stop id="stop3329" style="stop-color:#FCB216" offset="1"/>
		</linearGradient>
		<polygon style="fill:url(#SVGID_2_)" id="polygon3331" points="288.723,325.465 417.513,205.191 307.925,367.594 286.324,352.398 "/>
		
			<linearGradient gradientTransform="matrix(4,-2.593994e-4,-2.593994e-4,-4,-3186.3069,-574.4521)" y2="-223.50169" x2="908.20923" y1="-223.50169" x1="894.47681" gradientUnits="userSpaceOnUse" id="SVGID_3_">
			<stop id="stop3334" style="stop-color:#FCED00" offset="0"/>
			<stop id="stop3336" style="stop-color:#FCB216" offset="1"/>
		</linearGradient>
		<polygon style="fill:url(#SVGID_3_)" id="polygon3338" points="446.594,421.053 418.046,206.391 391.661,421.59 419.928,432.255 "/>
		
			<linearGradient gradientTransform="matrix(4,-2.593994e-4,-2.593994e-4,-4,-3186.3069,-574.4521)" y2="-220.96851" x2="924.60962" y1="-220.96851" x1="901.34302" gradientUnits="userSpaceOnUse" id="SVGID_4_">
			<stop id="stop3341" style="stop-color:#FCED00" offset="0"/>
			<stop id="stop3343" style="stop-color:#FCB216" offset="1"/>
		</linearGradient>
		<polygon style="fill:url(#SVGID_4_)" id="polygon3345" points="512.191,386.915 419.113,206.391 475.125,411.984 499.125,408.516 "/>
		
			<linearGradient gradientTransform="matrix(4,-2.593994e-4,-2.593994e-4,-4,-3186.3069,-574.4521)" y2="-215.1682" x2="934.14282" y1="-215.1682" x1="901.34302" gradientUnits="userSpaceOnUse" id="SVGID_5_">
			<stop id="stop3348" style="stop-color:#FCED00" offset="0"/>
			<stop id="stop3350" style="stop-color:#FCB216" offset="1"/>
		</linearGradient>
		<polygon style="fill:url(#SVGID_5_)" id="polygon3352" points="547.918,325.048 419.113,204.791 528.722,367.181 550.321,351.979 "/>
		
			<linearGradient gradientTransform="matrix(4,-2.593994e-4,-2.593994e-4,-4,-3186.3069,-574.4521)" y2="-206.9021" x2="936.74237" y1="-206.9021" x1="901.34302" gradientUnits="userSpaceOnUse" id="SVGID_6_">
			<stop id="stop3355" style="stop-color:#FCED00" offset="0"/>
			<stop id="stop3357" style="stop-color:#FCB216" offset="1"/>
		</linearGradient>
		<polygon style="fill:url(#SVGID_6_)" id="polygon3359" points="549.515,256.248 419.113,204.791 552.718,301.048 560.716,279.714 "/>
		
			<linearGradient gradientTransform="matrix(4,-2.593994e-4,-2.593994e-4,-4,-3186.3069,-574.4521)" y2="-198.5354" x2="932.07642" y1="-198.5354" x1="901.34302" gradientUnits="userSpaceOnUse" id="SVGID_7_">
			<stop id="stop3362" style="stop-color:#FCED00" offset="0"/>
			<stop id="stop3364" style="stop-color:#FCB216" offset="1"/>
		</linearGradient>
		<polygon style="fill:url(#SVGID_7_)" id="polygon3366" points="520.711,202.917 419.113,204.791 542.047,235.983 538.312,214.384 "/>
		
			<linearGradient gradientTransform="matrix(4,-2.593994e-4,-2.593994e-4,-4,-3186.3069,-574.4521)" y2="-190.43581" x2="923.40942" y1="-190.43581" x1="901.34302" gradientUnits="userSpaceOnUse" id="SVGID_8_">
			<stop id="stop3369" style="stop-color:#FCED00" offset="0"/>
			<stop id="stop3371" style="stop-color:#FCB216" offset="1"/>
		</linearGradient>
		<polygon style="fill:url(#SVGID_8_)" id="polygon3373" points="476.977,169.321 419.113,204.791 507.378,188.518 496.177,174.12 "/>
		
			<linearGradient gradientTransform="matrix(4,-2.593994e-4,-2.593994e-4,-4,-3186.3069,-574.4521)" y2="-188.5686" x2="911.80878" y1="-188.5686" x1="901.34302" gradientUnits="userSpaceOnUse" id="SVGID_9_">
			<stop id="stop3376" style="stop-color:#FCED00" offset="0"/>
			<stop id="stop3378" style="stop-color:#FCB216" offset="1"/>
		</linearGradient>
		<polygon style="fill:url(#SVGID_9_)" id="polygon3380" points="426.843,154.924 419.113,206.391 460.976,161.855 444.976,152.79 "/>
		
			<linearGradient gradientTransform="matrix(4,-2.593994e-4,-2.593994e-4,-4,-3186.3069,-574.4521)" y2="-206.9021" x2="901.07642" y1="-206.9021" x1="865.677" gradientUnits="userSpaceOnUse" id="SVGID_10_">
			<stop id="stop3383" style="stop-color:#FCED00" offset="0"/>
			<stop id="stop3385" style="stop-color:#FCB216" offset="1"/>
		</linearGradient>
		<polygon style="fill:url(#SVGID_10_)" id="polygon3387" points="287.651,256.265 418.046,204.791 284.455,301.065 276.453,279.733 "/>
		
			<linearGradient gradientTransform="matrix(4,-2.593994e-4,-2.593994e-4,-4,-3186.3069,-574.4521)" y2="-198.5354" x2="901.07642" y1="-198.5354" x1="870.34399" gradientUnits="userSpaceOnUse" id="SVGID_11_">
			<stop id="stop3390" style="stop-color:#FCED00" offset="0"/>
			<stop id="stop3392" style="stop-color:#FCB216" offset="1"/>
		</linearGradient>
		<polygon style="fill:url(#SVGID_11_)" id="polygon3394" points="316.448,202.93 418.046,204.791 295.117,235.999 298.849,214.399 "/>
		
			<linearGradient gradientTransform="matrix(4,-2.593994e-4,-2.593994e-4,-4,-3186.3069,-574.4521)" y2="-190.43581" x2="901.07642" y1="-190.43581" x1="879.01001" gradientUnits="userSpaceOnUse" id="SVGID_12_">
			<stop id="stop3397" style="stop-color:#FCED00" offset="0"/>
			<stop id="stop3399" style="stop-color:#FCB216" offset="1"/>
		</linearGradient>
		<polygon style="fill:url(#SVGID_12_)" id="polygon3401" points="360.178,169.329 418.046,204.791 329.78,188.53 340.979,174.13 "/>
		
			<linearGradient gradientTransform="matrix(4,-2.593994e-4,-2.593994e-4,-4,-3186.3069,-574.4521)" y2="-188.56911" x2="901.07642" y1="-188.56911" x1="890.60962" gradientUnits="userSpaceOnUse" id="SVGID_13_">
			<stop id="stop3404" style="stop-color:#FCED00" offset="0"/>
			<stop id="stop3406" style="stop-color:#FCB216" offset="1"/>
		</linearGradient>
		<polygon style="fill:url(#SVGID_13_)" id="polygon3408" points="410.31,154.925 418.046,206.391 376.177,161.861 392.177,152.794 "/>
		
			<linearGradient gradientTransform="matrix(4,-2.593994e-4,-2.593994e-4,-4,-3186.3069,-574.4521)" y2="-195.2693" x2="904.94751" y1="-195.2693" x1="897.73749" gradientUnits="userSpaceOnUse" id="SVGID_14_">
			<stop id="stop3411" style="stop-color:#FCED00" offset="0"/>
			<stop id="stop3413" style="stop-color:#FCB216" offset="1"/>
		</linearGradient>
		<circle style="fill:url(#SVGID_14_)" id="circle3415" r="14.42" cy="206.39101" cx="419.11301"/>
	</g><g transform="matrix(4.88338,0,0,4.88338,55.612745,82.927609)" style="display:inline" id="g4285" inkscape:export-xdpi="90" inkscape:export-ydpi="90"><g id="g4241"><path style="display:inline;fill:#3163b5;fill-opacity:1;stroke:#000000;stroke-width:1px;stroke-linecap:butt;stroke-linejoin:miter;stroke-opacity:1" d="M 7.68,106.45334 C 7.2533334,101.76 9.5807606,94.931622 10.026666,90.026667 c 0.426668,-4.693333 3.954151,-10.446745 5.760001,-18.56 C 17.689257,62.91878 36.48,42.026667 42.666667,35.84 44.718441,33.788225 55.04,23.04 59.306667,22.613333 63.573333,22.186666 71.04,19.2 77.226667,20.693333 83.413333,22.186667 92.373333,29.44 94.08,31.146666 c 1.706666,1.706667 22.61208,18.391723 31.36,35.626667 7.42914,14.636724 8.53333,23.253333 8.10667,39.039997 -0.35267,13.04873 -3.84,14.50667 -3.84,14.50667 l -4.48,-26.453333 L 97.28,55.253333 c 0,0 -2.986667,3.413334 -0.426667,14.72 C 99.413333,81.28 101.33333,88.96 101.33333,88.96 L 40.746667,87.893333 c 0,0 7.253333,-5.973333 7.68,-14.72 0.426666,-8.746666 -0.426667,-16 -0.426667,-16 L 10.666667,117.54667 c 0,0 -2.1333336,-0.85334 -2.5600003,-3.84001 C 7.6800001,110.72 7.68,106.45334 7.68,106.45334 Z" id="path3009" inkscape:connector-curvature="0" sodipodi:nodetypes="csssssssscccsccsccsc"/><path style="display:inline;fill:#000000;fill-opacity:1;stroke:#000000;stroke-width:1px;stroke-linecap:butt;stroke-linejoin:miter;stroke-opacity:1" d="m 74.453333,32.426667 -0.32,19.306666 c 0,0 -3.84,-2.026666 -5.76,-4.906666 -1.92,-2.88 -1.066666,-7.893334 -1.066666,-7.893334 0,0 -2.773334,1.386667 -2.88,3.2 -0.106667,1.813334 0.32,5.333334 0.32,5.333334 0,0 -2.026667,-2.453334 -1.706667,-8.96 C 63.36,32 64.746667,28.053333 64.746667,28.053333 c 0,0 -1.813334,0.533334 -2.24,2.24 -0.426667,1.706667 -1.6,2.453334 -1.6,2.453334 0,0 -0.426667,-3.2 0,-4.266667 0.426666,-1.066667 1.386666,-3.733333 1.386666,-3.733333 0,0 -2.346666,-0.746667 -5.76,0.64 -3.413333,1.386666 -5.44,2.346666 -5.44,2.346666 0,0 2.666667,-4.906666 3.306667,-5.12 0.64,-0.213333 3.413333,-1.6 3.413333,-1.6 L 54.506667,19.2 61.013333,16.213333 c 0,0 -2.773333,-1.066666 -4.16,-2.133333 C 55.466667,13.013333 56.32,12.693333 56.32,12.693333 L 66.666667,12.16 c 0,0 0.32,-2.5600001 -0.96,-3.5200001 -1.28,-0.96 -5.226667,-4.16 -5.226667,-4.16 0,0 4.48,-0.7466666 6.72,0.7466667 2.24,1.4933333 3.626667,3.7333333 3.626667,3.7333333 l -0.213334,-4.16 c 0,0 2.24,0.1066667 2.773334,0.8533334 C 73.92,6.3999999 75.84,8.9599999 75.84,8.9599999 c 0,0 -0.106667,-2.9866666 0.96,-4.16 1.066667,-1.1733333 5.653333,-4.47999997 5.653333,-4.47999997 L 80,7.3599999 c 0,0 7.04,-0.32 8.213333,0.32 1.173334,0.64 2.88,2.4533331 2.88,2.4533331 0,0 -5.013333,-0.106666 -5.333333,0.533334 -0.32,0.64 -2.56,3.093333 -2.56,3.093333 0,0 6.293333,0 7.466667,1.173333 1.173333,1.173334 2.88,2.56 3.093333,3.733334 0.213333,1.173333 0,2.453333 0,2.453333 0,0 -0.853333,-1.92 -3.093333,-2.773333 -2.24,-0.853334 -2.666667,-1.28 -2.666667,-1.28 0,0 1.386667,1.386666 1.706667,2.56 0.32,1.173333 0.213333,1.386666 0.213333,1.386666 0,0 -1.706667,-2.24 -3.413333,-2.346666 C 84.8,18.56 83.733333,18.026667 84.053333,18.453333 c 0.32,0.426667 1.813334,6.4 6.613334,7.893334 4.8,1.493333 4.693333,1.92 4.693333,1.92 0,0 -4.266667,3.2 -7.04,2.986666 -2.773333,-0.213333 -7.573333,-3.946666 -7.573333,-3.946666 0,0 0.64,2.56 -0.426667,6.186666 C 79.253333,37.12 77.226667,40 77.013333,39.36 76.8,38.72 78.08,31.253333 76.48,31.146667 74.88,31.04 74.56,32.96 74.56,32.96 Z" id="path3012" inkscape:connector-curvature="0"/><g style="display:inline" id="g3803"><ellipse transform="matrix(1.1034139,0.29078828,-0.2809708,1.133031,3.1992478,-20.464543)" id="path3783" style="fill:#ffffff;fill-opacity:1;stroke:#000000;stroke-width:0.566684;stroke-miterlimit:4;stroke-dasharray:none;stroke-opacity:1" cx="63.040001" cy="47.306667" rx="4.6933331" ry="7.7333331"/><ellipse transform="matrix(1.1400397,-0.04888381,0.0670287,1.1654231,8.2676611,-0.7439809)" id="path3783-5" style="display:inline;fill:#ffffff;fill-opacity:1;stroke:#000000;stroke-width:0.566684;stroke-miterlimit:4;stroke-dasharray:none;stroke-opacity:1" cx="63.040001" cy="47.306667" rx="4.6933331" ry="7.7333331"/></g><g style="display:inline" id="g3830"><ellipse transform="matrix(1.1846174,0,0,1.2580862,-12.338991,-10.57822)" id="path3808" style="fill:#000000;fill-opacity:1;stroke:#000000;stroke-width:0.654;stroke-miterlimit:4;stroke-dasharray:none;stroke-opacity:1" cx="60.48" cy="46.773335" rx="1.92" ry="2.6133332"/><ellipse transform="matrix(1.1846174,0,0,1.2580862,11.021007,-9.7782197)" id="path3808-9" style="display:inline;fill:#000000;fill-opacity:1;stroke:#000000;stroke-width:0.654;stroke-miterlimit:4;stroke-dasharray:none;stroke-opacity:1" cx="60.48" cy="46.773335" rx="1.92" ry="2.6133332"/></g><path style="display:inline;fill:none;stroke:#000000;stroke-width:1px;stroke-linecap:butt;stroke-linejoin:miter;stroke-opacity:1" d="m 50.88,60.48 c 0.746667,1.813333 2.133333,3.733333 3.306667,3.733333 1.173333,0 2.986666,-0.106666 3.733333,-0.96 0.746667,-0.853333 0.64,-1.28 0.64,-1.28" id="path3834" inkscape:connector-curvature="0"/><path style="display:inline;fill:none;stroke:#000000;stroke-width:1px;stroke-linecap:butt;stroke-linejoin:miter;stroke-opacity:1" d="m 78.293333,59.413333 c 1.92,3.093334 2.133334,4.693334 5.12,4.586667 2.986667,-0.106667 4.8,-2.773333 4.8,-2.773333" id="path3836" inkscape:connector-curvature="0"/><g style="display:inline" id="g3854"><path inkscape:connector-curvature="0" id="path3838" d="m 82.453333,37.76 c 4.693334,0.213333 9.6,2.773333 9.6,2.773333" style="fill:none;stroke:#000000;stroke-width:1px;stroke-linecap:round;stroke-linejoin:round;stroke-opacity:1"/><path inkscape:connector-curvature="0" id="path3840" d="M 82.666667,34.986667 C 85.866667,34.56 91.84,39.573333 91.84,39.573333" style="fill:none;stroke:#000000;stroke-width:1px;stroke-linecap:round;stroke-linejoin:round;stroke-opacity:1"/><path inkscape:connector-curvature="0" id="path3842" d="m 82.986667,36.48 c 5.12,0 8.746666,3.733333 8.746666,3.733333" style="fill:none;stroke:#000000;stroke-width:1px;stroke-linecap:round;stroke-linejoin:round;stroke-opacity:1"/><path inkscape:connector-curvature="0" id="path3844" d="m 62.293333,37.44 c -7.786666,0 -13.546666,4.48 -13.546666,4.48" style="fill:none;stroke:#000000;stroke-width:1px;stroke-linecap:round;stroke-linejoin:round;stroke-opacity:1"/><path inkscape:connector-curvature="0" id="path3846" d="M 59.946667,36.053333 C 52.693333,36.16 49.173333,41.6 49.173333,41.6" style="fill:none;stroke:#000000;stroke-width:1px;stroke-linecap:round;stroke-linejoin:round;stroke-opacity:1"/><path inkscape:connector-curvature="0" id="path3848" d="m 59.733333,34.773333 c -7.68,0 -10.773333,6.08 -10.773333,6.08 v 0 h 0.106667" style="fill:none;stroke:#000000;stroke-width:1px;stroke-linecap:round;stroke-linejoin:round;stroke-opacity:1"/><path inkscape:connector-curvature="0" id="path3850" d="m 56.746667,31.253333 c -3.946667,0 -5.653334,2.88 -5.653334,2.88" style="fill:none;stroke:#000000;stroke-width:1px;stroke-linecap:round;stroke-linejoin:round;stroke-opacity:1"/><path inkscape:connector-curvature="0" id="path3852" d="m 81.92,29.546667 c 9.066667,0.32 12.906667,5.76 12.906667,5.76" style="fill:none;stroke:#000000;stroke-width:1px;stroke-linecap:round;stroke-linejoin:round;stroke-opacity:1"/></g><path style="display:inline;fill:none;stroke:#000000;stroke-width:1px;stroke-linecap:round;stroke-linejoin:round;stroke-opacity:1" d="m 47.253333,57.493333 c 0,0 0.533334,-9.6 0.213334,-11.306666 -0.32,-1.706667 0,-6.613334 0,-6.613334" id="path3875" inkscape:connector-curvature="0"/><path style="display:inline;fill:none;stroke:#000000;stroke-width:1px;stroke-linecap:round;stroke-linejoin:round;stroke-opacity:1" d="m 96,40.32 c 2.88,5.866667 2.453333,9.813333 2.24,12.906667 C 98.026667,56.32 98.026667,56.32 98.026667,56.32" id="path3877" inkscape:connector-curvature="0"/><path style="display:inline;fill:none;stroke:#000000;stroke-width:1px;stroke-linecap:round;stroke-linejoin:round;stroke-opacity:1" d="M 71.573333,74.453333 C 69.866667,65.706667 70.186667,56.32 70.08,53.226666 c -0.106666,-3.093333 1.173333,-7.573333 1.173333,-7.573333" id="path3879" inkscape:connector-curvature="0" sodipodi:nodetypes="csc"/><path style="display:inline;fill:none;stroke:#000000;stroke-width:1px;stroke-linecap:round;stroke-linejoin:round;stroke-opacity:1" d="m 67.733333,59.946667 c 4.48,-0.106667 3.84,0.106666 3.84,0.106666" id="path3881" inkscape:connector-curvature="0"/><path style="display:inline;fill:none;stroke:#000000;stroke-width:1px;stroke-linecap:round;stroke-linejoin:round;stroke-opacity:1" d="M 68.373333,62.72 C 69.44,62.72 71.36,63.04 71.36,63.04" id="path3883" inkscape:connector-curvature="0"/><path style="display:inline;fill:#3163b5;fill-opacity:1;stroke:#000000;stroke-width:1px;stroke-linecap:butt;stroke-linejoin:round;stroke-opacity:1" d="m 63.893333,44.906667 c -7.893334,-0.213333 -9.28,4.16 -9.28,4.16 0,0 1.066667,-7.573333 5.013334,-7.68 3.946667,-0.106666 4.266666,3.52 4.266666,3.52 z" id="path3865" inkscape:connector-curvature="0" sodipodi:nodetypes="ccsc"/><path style="display:inline;fill:#3163b5;fill-opacity:1;stroke:#000000;stroke-width:1px;stroke-linecap:butt;stroke-linejoin:round;stroke-opacity:1" d="m 78.933333,45.76 c 7.466667,-1.066666 9.600001,3.413333 9.600001,3.413333 0,0 -2.026667,-7.68 -5.653334,-7.36 -3.626667,0.32 -3.946667,3.946667 -3.946667,3.946667 z" id="path3867" inkscape:connector-curvature="0" sodipodi:nodetypes="ccsc"/><g style="display:inline" id="g3871"><path inkscape:connector-curvature="0" id="path3653" d="m 10.026667,117.76 c 2.133333,0 3.52,0 7.36,-6.29333 3.84,-6.29334 6.08,-10.77334 11.52,-16.213337 5.44,-5.44 15.36,-23.04 17.28,-28.906666 1.92,-5.866667 1.066666,-8.853333 1.066666,-8.853333 0,0 -6.613333,6.186666 -9.066666,10.239999 C 35.733333,71.786667 31.466667,78.826667 26.773333,83.2 22.08,87.573333 14.826667,92.693333 12.906667,100.58667 10.986667,108.48 8.64,114.02667 9.28,116.16 c 0.64,2.13333 0.746667,1.6 0.746667,1.6 z" style="fill:#c6297b;fill-opacity:1;stroke:#000000;stroke-width:1px;stroke-linecap:butt;stroke-linejoin:round;stroke-opacity:1" sodipodi:nodetypes="cssscssssc"/><path sodipodi:nodetypes="cssssssc" inkscape:connector-curvature="0" id="path3655" d="m 98.24,54.613333 c 0,0 -2.133333,7.466667 5.01333,21.866667 7.14667,14.4 15.35518,18.442789 19.84,28.26667 4.48001,9.81333 3.84001,17.06666 5.54667,16.96 1.70667,-0.10667 2.50639,-6.40245 1.92,-12.69334 -0.31927,-3.42517 -0.23113,-17.455155 -8.10667,-25.599997 -9.31327,-9.631729 -19.30666,-21.866666 -20.90666,-25.6 -1.600003,-3.733333 -3.30667,-3.2 -3.30667,-3.2 z" style="fill:#c6297b;fill-opacity:1;stroke:#000000;stroke-width:1px;stroke-linecap:butt;stroke-linejoin:round;stroke-opacity:1"/></g><g id="g5984"><g id="g5939"><path sodipodi:nodetypes="cssssssssssssssc" inkscape:connector-curvature="0" id="path4436" d="m 71.786667,73.813333 c -4.906667,0 -14.506667,3.413334 -16.213334,4.693334 -1.706666,1.28 -8.106666,7.68 -9.92,6.72 -1.813333,-0.96 -5.44,-0.533334 -6.506666,1.706666 -1.066667,2.24 -0.426667,6.72 1.6,7.146667 2.026666,0.426667 1.706666,0.106667 1.706666,1.493333 C 42.453333,96.96 41.92,105.6 48.32,111.14667 c 6.4,5.54666 8.853333,9.6 22.933333,9.49333 14.08,-0.10667 19.413334,-4.48 22.186667,-8 2.773333,-3.52 6.85716,-10.34758 6.93333,-13.546667 0.10667,-4.48 0.30208,-5.606051 0.96,-5.653332 1.74465,-0.12538 2.50553,-2.460189 2.23052,-4.582862 C 103.34805,87.19147 101.35201,85.336002 99.946663,85.12 98.45568,84.890837 96.32,85.333333 94.933334,84.48 93.258261,83.449186 88.776097,79.718481 83.413333,76.693333 c -4.159999,-2.346666 -11.626666,-2.88 -11.626666,-2.88 z" style="display:inline;fill:#efded6;fill-opacity:1;stroke:#000000;stroke-width:1px;stroke-linecap:round;stroke-linejoin:round;stroke-opacity:1"/><g id="g5944"><path sodipodi:nodetypes="csssc" inkscape:connector-curvature="0" id="path5934" d="m 42.56,94.186667 c 0,0 -0.746667,-2.88 0.32,-2.986667 1.066667,-0.106666 2.659173,-0.363331 1.066667,-0.853333 -1.386667,-0.426667 -2.88,-0.64 -2.346667,0.32 0.533334,0.96 0.96,3.52 0.96,3.52 z" style="fill:#000000;fill-opacity:1;stroke:#000000;stroke-width:1px;stroke-linecap:round;stroke-linejoin:round;stroke-opacity:1"/><path sodipodi:nodetypes="csssc" inkscape:connector-curvature="0" id="path5936" d="m 100.58667,95.04 c 0.10666,-2.453334 0.32,-3.626667 -1.493337,-3.733334 C 97.28,91.2 97.813334,90.56 99.626667,90.666667 c 1.813333,0.106666 1.280003,0 1.386663,1.28 0.24322,2.91885 -0.42666,3.093333 -0.42666,3.093333 z" style="fill:#000000;fill-opacity:1;stroke:#000000;stroke-width:1px;stroke-linecap:round;stroke-linejoin:round;stroke-opacity:1"/></g></g><g id="g5924" style="display:inline" transform="translate(0.3407578,0.37333313)"><path style="fill:none;stroke:#000000;stroke-width:1px;stroke-linecap:round;stroke-linejoin:round;stroke-opacity:1" d="m 65.28,100.05333 c 0,0 -4.586667,0.42667 -5.546667,-0.959997 -0.96,-1.386666 0.64,-2.453333 1.386667,-2.56 0.746667,-0.106666 2.24,0.64 3.2,1.493334 0.96,0.853333 0.96,2.026663 0.96,2.026663 z" id="path5889" inkscape:connector-curvature="0"/><path style="fill:none;stroke:#000000;stroke-width:1px;stroke-linecap:round;stroke-linejoin:round;stroke-opacity:1" d="m 80,98.986667 c 0,0 4.906667,1.066663 5.653333,0 C 86.4,97.92 86.506667,96.853334 84.906667,96.426667 83.306667,96 82.160658,96.386996 80.746667,97.28 79.976112,97.766643 80,98.986667 80,98.986667 Z" id="path5891" inkscape:connector-curvature="0" sodipodi:nodetypes="csssc"/><path style="fill:none;stroke:#000000;stroke-width:1px;stroke-linecap:round;stroke-linejoin:miter;stroke-opacity:1" d="m 71.36,120 c 2.453333,-8.53333 2.282681,-15.31809 2.453333,-23.68 0.213333,-10.453333 -2.56,-22.613333 -2.56,-22.613333" id="path5893" inkscape:connector-curvature="0" sodipodi:nodetypes="csc"/><path style="fill:none;stroke:#000000;stroke-width:1px;stroke-linecap:round;stroke-linejoin:round;stroke-opacity:1" d="M 70.826667,82.026667 C 73.706667,82.026667 74.88,81.92 74.88,81.92" id="path5897" inkscape:connector-curvature="0" sodipodi:nodetypes="cc"/><path style="display:inline;fill:none;stroke:#000000;stroke-width:1px;stroke-linecap:round;stroke-linejoin:miter;stroke-opacity:1" d="m 71.253333,84.586667 c 2.56,0.106667 2.986667,0 4.053333,0" id="path5897-8" inkscape:connector-curvature="0" sodipodi:nodetypes="cc"/><path style="display:inline;fill:none;stroke:#000000;stroke-width:1px;stroke-linecap:round;stroke-linejoin:miter;stroke-opacity:1" d="m 70.293334,112.96 c 2.453333,-0.10667 4.159999,1.06667 4.159999,1.06667" id="path5897-84" inkscape:connector-curvature="0" sodipodi:nodetypes="cc"/></g></g></g></g></svg>