<svg xmlns="http://www.w3.org/2000/svg" xmlns:xlink="http://www.w3.org/1999/xlink" viewBox="53.29 101.96 1054.81 776.04">
  <defs>
    <style>
      .cls-1 {
      letter-spacing: -.01em;
      }

      .cls-2 {
      letter-spacing: 0em;
      }

      .cls-3 {
      letter-spacing: -.02em;
      }

      .cls-4 {
      stroke-dasharray: 0 0 .97 11.66;
      }

      .cls-4, .cls-5, .cls-6, .cls-7, .cls-8, .cls-9, .cls-10, .cls-11, .cls-12, .cls-13 {
      fill: none;
      stroke-miterlimit: 10;
      }

      .cls-4, .cls-6, .cls-7, .cls-8, .cls-9, .cls-10 {
      stroke: #e6e7e8;
      stroke-linecap: round;
      stroke-width: 8px;
      }

      .cls-5 {
      stroke: #fff;
      stroke-width: 7px;
      }

      .cls-14 {
      letter-spacing: 0em;
      }

      .cls-15 {
      fill: url(#linear-gradient);
      }

      .cls-15, .cls-16, .cls-17, .cls-18, .cls-19, .cls-20 {
      stroke-width: 0px;
      }

      .cls-21 {
      letter-spacing: 0em;
      }

      .cls-6 {
      stroke-dasharray: 0 0 1.02 12.19;
      }

      .cls-7 {
      stroke-dasharray: 0 0 1.07 12.79;
      }

      .cls-8 {
      stroke-dasharray: 0 0 1 12;
      }

      .cls-22 {
      letter-spacing: -.02em;
      }

      .cls-23 {
      letter-spacing: 0em;
      }

      .cls-24 {
      letter-spacing: -.02em;
      }

      .cls-25 {
      letter-spacing: 0em;
      }

      .cls-26 {
      font-family: NHaasGroteskDSPro-65Md, 'Neue Haas Grotesk Display Pro';
      font-size: 19px;
      font-weight: 500;
      cursor: pointer;
      }

      .cls-26, .cls-16 {
      fill: #fff;
      }

      .cls-17, .cls-27 {
      fill: #ee2a7b;
      }

      .cls-18 {
      fill: #939598;
      }

      .cls-28 {
      letter-spacing: -.01em;
      }

      .cls-19 {
      fill: url(#linear-gradient-2);
      }

      .cls-27 {
      font-family: NHaasGroteskDSPro-45Lt, 'Neue Haas Grotesk Display Pro';
      font-size: 30px;
      }

      .cls-20 {
      fill: url(#linear-gradient-3);
      }

      .cls-10 {
      stroke-dasharray: 0 0 .92 11.06;
      }

      .cls-29 {
      letter-spacing: 0em;
      }

      .cls-30 {
      letter-spacing: 0em;
      }

      .cls-31 {
      letter-spacing: 0em;
      }

      .cls-32 {
      letter-spacing: -.02em;
      }

      .cls-33 {
      fill: #231f20;
      font-family: NHaasGroteskDSPro-55Rg, 'Neue Haas Grotesk Display Pro';
      font-size: 25px;
      cursor: default;
      }

      .cls-34 {
      letter-spacing: 0em;
      }

      .cls-35 {
      letter-spacing: 0em;
      }

      .cls-36 {
      letter-spacing: -.02em;
      }

      .cls-37 {
      letter-spacing: -.02em;
      }

      .cls-38 {
      letter-spacing: .02em;
      }

      .cls-39 {
      letter-spacing: -.01em;
      }

      .cls-11 {
      stroke: #ee2a7b;
      stroke-width: 3px;
      }

      .cls-40 {
      letter-spacing: -.02em;
      }

      .cls-12, .cls-13 {
      stroke: #808285;
      }

      .cls-13 {
      stroke-width: 2px;
      }

      .cls-41 {
      letter-spacing: 0em;
      }

      .cls-42 {
      letter-spacing: 0em;
      }

      .cls-43 {
      letter-spacing: -.06em;
      }
    </style>
    <linearGradient id="linear-gradient" x1="117.39" y1="759.14" x2="30.53" y2="724.49" gradientUnits="userSpaceOnUse">
      <stop offset="0" stop-color="#fff"/>
      <stop offset=".11" stop-color="#f1f1f1"/>
      <stop offset="1" stop-color="#808285"/>
    </linearGradient>
    <linearGradient id="linear-gradient-2" x1="552.68" y1="264.72" x2="627.67" y2="294.88" xlink:href="#linear-gradient"/>
    <linearGradient id="linear-gradient-3" x1="260.98" y1="818.1" x2="308.05" y2="837.03" xlink:href="#linear-gradient"/>
  </defs>
  <g id="Layer_2" data-name="Layer 2">
    <polygon class="cls-15" points="54.29 714.87 123.52 742.41 110.55 775.28 54.29 753.14 54.29 714.87"/>
    <polygon class="cls-19" points="560.11 259.21 616.36 265.08 616.36 292.27 558.41 292.27 560.11 259.21"/>
    <polygon class="cls-20" points="270.01 803.98 306.64 818.61 295.2 849.66 257.61 834.6 270.01 803.98"/>
    <polygon class="cls-18" points="295.2 849.66 363.43 877 382.32 784.01 282.37 764.22 279.94 766.84 277.34 782.34 334.48 807.01 328.69 827.41 306.29 819.29 295.2 849.66"/>
    <line class="cls-13" x1="130.82" y1="710.85" x2="224.47" y2="746.59"/>
    <polyline class="cls-13" points="209.07 740.72 235.55 672.75 134.34 632.97 294.96 233.7 480.75 291.94 526.4 292.1 526.9 103.29 820.61 102.96 821.11 292.13 828.48 292.25 651.18 292.13"/>
    <polyline class="cls-13" points="862.24 484.02 823.29 292.25 783.18 292.22 783.18 327.52 829.73 328.03 740.05 327.52 740.05 471.69 859.22 471.94"/>
    <polyline class="cls-13" points="548.05 292.27 616.36 292.27 616.36 265.08 558.37 259.21"/>
    <polyline class="cls-13" points="480.75 291.94 424.48 572.76 329.45 554.51 335.87 516.24 430.78 535.38 486.62 535.11"/>
    <line class="cls-13" x1="522.29" y1="535.13" x2="871.97" y2="533.36"/>
    <line class="cls-13" x1="870.45" y1="522.29" x2="898.15" y2="653.7"/>
    <polyline class="cls-13" points="187.13 501.76 281.87 538.65 295.46 508.69 194.21 484.15"/>
    <line class="cls-13" x1="141.14" y1="750.12" x2="54.29" y2="714.87"/>
    <polyline class="cls-13" points="54.29 753.14 363.43 877 417.06 612.92"/>
    <polygon class="cls-13" points="343.55 612.92 325.17 705.81 395.21 720.53 414.32 626.37 343.55 612.92"/>
    <polyline class="cls-13" points="382.32 784.01 282.37 764.22 279.94 766.84 277.34 782.34 334.48 807.01 328.69 827.41 268.78 803.49"/>
    <line class="cls-13" x1="265.05" y1="761.46" x2="279.94" y2="766.84"/>
    <polyline class="cls-13" points="395.94 716.89 909.73 717.64 904.19 684.41 946.23 674.85 988.27 844.27 1107.1 811.04 1027.55 507.05 928.86 533.36"/>
    <line class="cls-13" x1="456.08" y1="632.55" x2="413.07" y2="632.55"/>
    <line class="cls-13" x1="483.27" y1="632.55" x2="596.8" y2="632.55"/>
    <polyline class="cls-13" points="622.99 632.55 788.89 632.55 788.89 662.76"/>
    <circle class="cls-13" cx="839.24" cy="672.08" r="26.27"/>
    <rect class="cls-16" x="798.29" y="665.11" width="33.4" height="35.92"/>
    <path class="cls-13" d="m324.66,180.16v62.85-62.85Z"/>
    <polyline class="cls-13" points="324.66 180.16 481.41 180.16 481.41 213.9"/>
    <rect class="cls-16" x="504.92" y="232.27" width="26.43" height="63.2"/>
    <rect class="cls-16" x="352.8" y="258.54" width="79.55" height="10.66" transform="translate(94.3 -103.25) rotate(17)"/>
    <line class="cls-5" x1="432.92" y1="531.18" x2="446.05" y2="465.1"/>
    <polyline class="cls-13" points="897.44 652.78 939.18 644.29 931.63 611.06 890.35 619.11"/>
    <line class="cls-12" x1="270.36" y1="804.44" x2="258.11" y2="834.23"/>
    <line class="cls-12" x1="274.9" y1="806.88" x2="262.65" y2="836.67"/>
    <line class="cls-12" x1="279.71" y1="808.85" x2="267.46" y2="838.65"/>
    <line class="cls-12" x1="284.55" y1="810.27" x2="272.29" y2="840.07"/>
    <line class="cls-12" x1="289.59" y1="811.93" x2="277.34" y2="841.72"/>
    <line class="cls-12" x1="294.66" y1="814.57" x2="282.4" y2="844.37"/>
    <line class="cls-12" x1="299.82" y1="816.55" x2="287.56" y2="846.35"/>
    <line class="cls-12" x1="119.88" y1="742.02" x2="106.64" y2="774.22"/>
    <line class="cls-12" x1="112.79" y1="738.63" x2="99.55" y2="770.83"/>
    <line class="cls-12" x1="105.62" y1="735.67" x2="92.37" y2="767.87"/>
    <line class="cls-12" x1="97.71" y1="733.41" x2="84.47" y2="765.61"/>
    <line class="cls-12" x1="90.17" y1="730.31" x2="76.93" y2="762.51"/>
    <line class="cls-12" x1="82.7" y1="727.23" x2="69.45" y2="759.43"/>
    <line class="cls-12" x1="74.84" y1="724" x2="61.59" y2="756.2"/>
    <text class="cls-27" transform="translate(111.42 767.8) rotate(22)">
      <tspan x="0" y="0">E</tspan>
      <tspan class="cls-39" x="17.94" y="0">n</tspan>
      <tspan x="32.7" y="0">t</tspan>
      <tspan class="cls-37" x="41.16" y="0">r</tspan>
      <tspan x="49.65" y="0">é</tspan>
    </text>
    <g>
      <polyline class="cls-11" points="377.78 854.59 397.25 854.59 397.59 843.52 416.47 843.52 416.47 831.69 434.17 831.69 434.17 820.1 452.22 820.1 452.45 806.67"/>
      <polygon class="cls-17" points="452.77 787.82 463.17 814.57 452.42 808.08 441.46 814.19 452.77 787.82"/>
    </g>
    <g>
      <polyline class="cls-11" points="867.81 482.31 887.28 482.31 887.62 471.23 906.5 471.23 906.5 459.4 924.2 459.4 924.2 447.82 942.24 447.82 942.48 434.38"/>
      <polygon class="cls-17" points="942.8 415.53 953.2 442.28 942.45 435.79 931.49 441.9 942.8 415.53"/>
    </g>
    <text class="cls-27" transform="translate(900.04 507.05)">
      <tspan x="0" y="0">E</tspan>
      <tspan class="cls-39" x="17.94" y="0">n</tspan>
      <tspan x="32.7" y="0">t</tspan>
      <tspan class="cls-37" x="41.16" y="0">r</tspan>
      <tspan x="49.65" y="0">é</tspan>
    </text>
    <text class="cls-33" transform="translate(216.88 600.79) rotate(18)">
      <tspan x="0" y="0">Puben</tspan>
    </text>
    <text class="cls-33" transform="translate(528.2 482.08)">
      <tspan x="0" y="0">N</tspan>
      <tspan class="cls-28" x="17.32" y="0">y</tspan>
      <tspan x="29.17" y="0">a m</tspan>
      <tspan class="cls-23" x="65.75" y="0">a</tspan>
      <tspan x="78.25" y="0">t</tspan>
      <tspan class="cls-41" x="85.92" y="0">s</tspan>
      <tspan class="cls-14" x="98" y="0">alen</tspan>
    </text>
    <text class="cls-33" transform="translate(575.01 600.9)">
      <tspan x="0" y="0">Hyllan</tspan>
    </text>
    <text class="cls-33" transform="translate(263.8 458.76) rotate(15)">
      <tspan x="0" y="0">Gamla m</tspan>
      <tspan class="cls-23" x="92.65" y="0">a</tspan>
      <tspan x="105.15" y="0">t</tspan>
      <tspan class="cls-35" x="112.82" y="0">s</tspan>
      <tspan x="124.9" y="0">alen</tspan>
    </text>
    <text class="cls-33" transform="translate(593.43 173.17)">
      <tspan class="cls-23" x="0" y="0">K</tspan>
      <tspan x="15.85" y="0">årbokhandeln</tspan>
    </text>
    <text class="cls-33" transform="translate(360.87 250.4)">
      <tspan x="0" y="0">Bi</tspan>
      <tspan class="cls-23" x="20.88" y="0">s</tspan>
      <tspan x="32.57" y="0">t</tspan>
      <tspan class="cls-36" x="40.25" y="0">r</tspan>
      <tspan x="48.32" y="0">on</tspan>
    </text>
    <line class="cls-12" x1="560.11" y1="259.21" x2="558.41" y2="292.27"/>
    <line class="cls-12" x1="566.88" y1="259.97" x2="565.18" y2="293.03"/>
    <line class="cls-12" x1="573.81" y1="260.69" x2="572.26" y2="291.83"/>
    <line class="cls-12" x1="580.67" y1="261.23" x2="579.11" y2="292.37"/>
    <line class="cls-12" x1="587.09" y1="261.97" x2="585.54" y2="293.11"/>
    <line class="cls-12" x1="593.58" y1="261.97" x2="592.02" y2="293.11"/>
    <line class="cls-12" x1="600.57" y1="262.84" x2="598.84" y2="292.46"/>
    <line class="cls-12" x1="607.66" y1="264.09" x2="606.06" y2="292.63"/>
    <text class="cls-33" transform="translate(980.29 594.58) rotate(75)">
      <tspan x="0" y="0">G</tspan>
      <tspan class="cls-32" x="18.55" y="0">r</tspan>
      <tspan class="cls-21" x="26.62" y="0">ö</tspan>
      <tspan class="cls-30" x="40.15" y="0">t</tspan>
      <tspan x="47.7" y="0">en</tspan>
    </text>
  </g>
  <g id="Layer_4" data-name="Layer 4">
    <polyline class="cls-8" points="442.73 243.98 473.11 246.62 495.41 253.67 522.03 269.2"/>
    <line class="cls-8" x1="401.36" y1="267.05" x2="414.29" y2="253.67"/>
    <polyline class="cls-8" points="777.87 500 723.85 489.39 676.99 465.56"/>
    <polyline class="cls-8" points="503.43 570.62 540.03 357.56 647.73 361.61 668.3 370.23 678.12 386.34 676.99 465.56"/>
    <line class="cls-8" x1="609.98" y1="665.88" x2="609.98" y2="606.62"/>
    <g>
      <line class="cls-9" x1="500.37" y1="581.95" x2="499.97" y2="582.25"/>
      <line class="cls-10" x1="491.16" y1="588.95" x2="476.49" y2="600.12"/>
      <polyline class="cls-9" points="472.08 603.47 471.69 603.77 471.69 604.27"/>
      <line class="cls-7" x1="471.69" y1="617.06" x2="471.69" y2="652.24"/>
      <polyline class="cls-9" points="471.69 658.63 471.69 659.13 472.06 659.46"/>
      <polyline class="cls-6" points="481.28 667.44 492.45 677.11 787.88 675.69 797.91 666.33"/>
      <polyline class="cls-9" points="802.37 662.18 802.73 661.84 802.73 661.34"/>
      <polyline class="cls-4" points="802.73 649.68 802.73 625.92 788.05 607.63 761.18 594.23 716.72 586.15 655.58 588.88"/>
      <line class="cls-9" x1="649.75" y1="589.15" x2="649.25" y2="589.17"/>
    </g>
    <polyline class="cls-8" points="277.59 636.83 212.99 610.99 206.17 592.94 209.2 579.43 222.66 574.4 292.78 582.12 471.69 603.77"/>
    <polyline class="cls-8" points="192.92 785.03 229 788.05 248.3 775.8 259.21 752.3 299.24 590.85"/>
    <line class="cls-8" x1="253.46" y1="817.74" x2="231.92" y2="786.2"/>
    <polyline class="cls-8" points="374.76 463 390.96 461.95 427.04 317.01 406.57 301.84 394.15 274.99 362 290.43 338.08 293.11 322.82 310.57 289.78 412.27 296.3 445.67"/>
    <line class="cls-8" x1="303.01" y1="571.38" x2="326.16" y2="483.26"/>
    <polyline class="cls-8" points="435.32 495.61 474.45 501.14 508.27 505.08"/>
    <line class="cls-8" x1="399.26" y1="465.9" x2="412.27" y2="476.47"/>
    <polyline class="cls-8" points="753.87 181.8 757.89 201.14 755.66 225.08 745.31 236.05 656.09 240.96 639.73 250.4 634.99 263.87 622.92 363.62"/>
    <polyline class="cls-8" points="541.2 346.82 528.75 313.44 524.72 273.99 544.19 248.64 585.16 236.05 583.97 185.57 593.43 173.17"/>
    <polyline class="cls-8" points="596.3 224.85 616.52 241.08 627.6 245.45 639.73 250.4"/>
    <polyline class="cls-8" points="812.97 635.07 851.57 635.07 865.5 638.34 875.74 650.68 882.54 664.02 892.61 668.55 914.77 668.55 949.76 659.05 978.2 661.34 1000.02 680.47 1009.22 707.99 1016.83 740.72 1024.38 775.8"/>
    <polyline class="cls-8" points="787.55 502.23 807.52 505.59 836.55 507.05 865.5 507.05 887.24 507.05 901.67 517.34 907.38 531.1 918.68 547.64 927.61 559.55 947.99 566.68 960.75 578.43 967.46 591.18 970.48 605.38 972.5 621.39 972.5 634.06 968.8 647.66 960.08 652.21"/>
    <line class="cls-8" x1="512.14" y1="578.53" x2="570.74" y2="589.95"/>
  </g>
  <g id="Layer_3" data-name="Layer 3">
    <g id="g4">
      <circle id="p4" class="cls-17" cx="317.87" cy="635.7" r="18.63"/>
      <text class="cls-26" transform="translate(312.21 642.14)">
        <tspan x="0" y="0">4</tspan>
      </text>
    </g>
    <g id="g3">
      <circle id="p3" class="cls-17" cx="309.53" cy="687.88" r="18.63"/>
      <text class="cls-26" transform="translate(304.14 694.32)">
        <tspan x="0" y="0">3</tspan>
      </text>
    </g>
    <g id="g2">
      <circle id="p2" class="cls-17" cx="299.24" cy="740.72" r="18.63"/>
      <text class="cls-26" transform="translate(294.04 747.16)">
        <tspan x="0" y="0">2</tspan>
      </text>
    </g>
    <g id="g1">
      <circle id="p1" class="cls-17" cx="241.29" cy="714.87" r="18.63"/>
      <text class="cls-26" transform="translate(237.57 721.32)">
        <tspan x="0" y="0">1</tspan>
      </text>
    </g>
    <g id="g5">
      <circle id="p5" class="cls-17" cx="218.23" cy="643.4" r="18.63"/>
      <text class="cls-26" transform="translate(212.74 649.84)">
        <tspan x="0" y="0">5</tspan>
      </text>
    </g>
    <g id="g6">
      <circle id="p6" class="cls-17" cx="171.24" cy="626.26" r="18.63"/>
      <text class="cls-26" transform="translate(165.59 632.7)">
        <tspan x="0" y="0">6</tspan>
      </text>
    </g>
    <g id="g7">
      <circle id="p7" class="cls-17" cx="177.64" cy="584.64" r="18.63"/>
      <text class="cls-26" transform="translate(172.61 591.08)">
        <tspan x="0" y="0">7</tspan>
      </text>
    </g>
    <g id="g8">
      <circle id="p8" class="cls-17" cx="250.15" cy="549.06" r="18.63"/>
      <text class="cls-26" transform="translate(244.48 555.5)">
        <tspan x="0" y="0">8</tspan>
      </text>
    </g>
    <g id="g79">
      <circle id="p79" class="cls-17" cx="238.34" cy="434.87" r="18.63"/>
      <text class="cls-26" transform="translate(227.68 441.32)">
        <tspan class="cls-31" x="0" y="0">7</tspan>
        <tspan x="9.98" y="0">9</tspan>
      </text>
    </g>
    <g id="g77">
      <circle id="p77" class="cls-17" cx="272.19" cy="350.87" r="18.63"/>
      <text class="cls-26" transform="translate(261.97 357.31)">
        <tspan class="cls-38" x="0" y="0">7</tspan>
        <tspan x="10.35" y="0">7</tspan>
      </text>
    </g>
    <g id="g75">
      <circle id="p75" class="cls-17" cx="304.19" cy="269.95" r="18.63"/>
      <text class="cls-26" transform="translate(293.85 276.39)">
        <tspan class="cls-22" x="0" y="0">7</tspan>
        <tspan class="cls-34" x="9.69" y="0">5</tspan>
      </text>
    </g>
    <g id="g78">
      <circle id="p78" class="cls-17" cx="253.56" cy="394.87" r="18.63"/>
      <text class="cls-26" transform="translate(242.9 401.32)">
        <tspan class="cls-31" x="0" y="0">7</tspan>
        <tspan x="9.98" y="0">8</tspan>
      </text>
    </g>
    <g id="g76">
      <circle id="p76" class="cls-17" cx="289.78" cy="310.57" r="18.63"/>
      <text class="cls-26" transform="translate(279.25 317.01)">
        <tspan class="cls-1" x="0" y="0">7</tspan>
        <tspan class="cls-34" x="9.79" y="0">6</tspan>
      </text>
    </g>
    <g id="g74">
      <circle id="p74" class="cls-17" cx="351.71" cy="329.2" r="18.63"/>
      <text class="cls-26" transform="translate(341.6 335.64)">
        <tspan class="cls-43" x="0" y="0">7</tspan>
        <tspan x="8.93" y="0">4</tspan>
      </text>
    </g>
    <g id="g69">
      <circle id="p69" class="cls-17" cx="392.57" cy="338.93" r="18.63"/>
      <text class="cls-26" transform="translate(381.31 345.37)">
        <tspan class="cls-31" x="0" y="0">6</tspan>
        <tspan x="11.19" y="0">9</tspan>
      </text>
    </g>
    <g id="g73">
      <circle id="p73" class="cls-17" cx="338.08" cy="369.5" r="18.63"/>
      <text class="cls-26" transform="translate(327.75 375.94)">
        <tspan class="cls-25" x="0" y="0">7</tspan>
        <tspan x="9.88" y="0">3</tspan>
      </text>
    </g>
    <g id="g70">
      <circle id="p70" class="cls-17" cx="380.63" cy="378.93" r="18.63"/>
      <text class="cls-26" transform="translate(369.74 385.37)">
        <tspan class="cls-1" x="0" y="0">7</tspan>
        <tspan x="9.79" y="0">0</tspan>
      </text>
    </g>
    <g id="g72">
      <circle id="p72" class="cls-17" cx="325.79" cy="409.8" r="18.63"/>
      <text class="cls-26" transform="translate(315.6 416.24)">
        <tspan class="cls-31" x="0" y="0">7</tspan>
        <tspan x="9.98" y="0">2</tspan>
      </text>
    </g>
    <g id="g71">
      <circle id="p71" class="cls-17" cx="365.41" cy="421.84" r="18.63"/>
      <text class="cls-26" transform="translate(356.65 428.28)">
        <tspan x="0" y="0">71</tspan>
      </text>
    </g>
    <g id="g66">
      <circle id="p66" class="cls-17" cx="448.83" cy="333.58" r="18.63"/>
      <text class="cls-26" transform="translate(437.54 340.02)">
        <tspan x="0" y="0">66</tspan>
      </text>
    </g>
    <g id="g67">
      <circle id="p67" class="cls-17" cx="439.48" cy="378.93" r="18.63"/>
      <text class="cls-26" transform="translate(428.9 385.37)">
        <tspan class="cls-25" x="0" y="0">6</tspan>
        <tspan x="11.1" y="0">7</tspan>
      </text>
    </g>
    <g id="g68">
      <circle id="p68" class="cls-17" cx="429.83" cy="424.28" r="18.63"/>
      <text class="cls-26" transform="translate(418.52 430.72)">
        <tspan x="0" y="0">68</tspan>
      </text>
    </g>
    <g id="g65">
      <circle id="p65" class="cls-17" cx="350.19" cy="206.45" r="18.63"/>
      <text class="cls-26" transform="translate(339.06 212.89)">
        <tspan x="0" y="0">65</tspan>
      </text>
    </g>
    <g id="g64">
      <circle id="p64" class="cls-17" cx="397.59" cy="206.45" r="18.63"/>
      <text class="cls-26" transform="translate(386.3 212.89)">
        <tspan x="0" y="0">64</tspan>
      </text>
    </g>
    <g id="g63">
      <circle id="p63" class="cls-17" cx="444.99" cy="206.45" r="18.63"/>
      <text class="cls-26" transform="translate(433.97 212.89)">
        <tspan x="0" y="0">63</tspan>
      </text>
    </g>
    <g id="g62">
      <circle id="p62" class="cls-17" cx="549.98" cy="211.59" r="18.63"/>
      <text class="cls-26" transform="translate(539.23 218.03)">
        <tspan class="cls-42" x="0" y="0">6</tspan>
        <tspan class="cls-34" x="11.1" y="0">2</tspan>
      </text>
    </g>
    <g id="g61">
      <circle id="p61" class="cls-17" cx="549.98" cy="169.19" r="18.63"/>
      <text class="cls-26" transform="translate(540.61 175.63)">
        <tspan x="0" y="0">61</tspan>
      </text>
    </g>
    <g id="g60">
      <circle id="p60" class="cls-17" cx="600.83" cy="129.41" r="18.63"/>
      <text class="cls-26" transform="translate(589.19 135.85)">
        <tspan x="0" y="0">60</tspan>
      </text>
    </g>
    <g id="g58">
      <circle id="p58" class="cls-17" cx="644.71" cy="129.41" r="18.63"/>
      <text class="cls-26" transform="translate(633.55 135.85)">
        <tspan x="0" y="0">58</tspan>
      </text>
    </g>
    <g id="g56">
      <circle id="p56" class="cls-17" cx="689.81" cy="129.41" r="18.63"/>
      <text class="cls-26" transform="translate(678.67 135.85)">
        <tspan x="0" y="0">56</tspan>
      </text>
    </g>
    <g id="g54">
      <circle id="p54" class="cls-17" cx="734.51" cy="129.41" r="18.63"/>
      <text class="cls-26" transform="translate(723.37 135.85)">
        <tspan x="0" y="0">54</tspan>
      </text>
    </g>
    <g id="g53">
      <circle id="p53" class="cls-17" cx="795.15" cy="169.19" r="18.63"/>
      <text class="cls-26" transform="translate(784.27 175.63)">
        <tspan x="0" y="0">53</tspan>
      </text>
    </g>
    <g id="g52">
      <circle id="p52" class="cls-17" cx="795.15" cy="211.59" r="18.63"/>
      <text class="cls-26" transform="translate(784.51 218.03)">
        <tspan class="cls-31" x="0" y="0">5</tspan>
        <tspan class="cls-34" x="10.89" y="0">2</tspan>
      </text>
    </g>
    <g id="g49">
      <circle id="p49" class="cls-17" cx="674.59" cy="267.27" r="18.63"/>
      <text class="cls-26" transform="translate(663.26 273.71)">
        <tspan x="0" y="0">49</tspan>
      </text>
    </g>
    <g id="g50">
      <circle id="p50" class="cls-17" cx="715.88" cy="267.27" r="18.63"/>
      <text class="cls-26" transform="translate(704.39 273.71)">
        <tspan x="0" y="0">50</tspan>
      </text>
    </g>
    <g id="g51">
      <circle id="p51" class="cls-17" cx="757.89" cy="267.27" r="18.63"/>
      <text class="cls-26" transform="translate(748.87 273.71)">
        <tspan class="cls-24" x="0" y="0">5</tspan>
        <tspan x="10.6" y="0">1</tspan>
      </text>
    </g>
    <g id="g59">
      <circle id="p59" class="cls-17" cx="634.99" cy="202.57" r="18.63"/>
      <text class="cls-26" transform="translate(623.87 209.01)">
        <tspan class="cls-31" x="0" y="0">5</tspan>
        <tspan class="cls-34" x="10.89" y="0">9</tspan>
      </text>
    </g>
    <g id="g57">
      <circle id="p57" class="cls-17" cx="677.67" cy="202.62" r="18.63"/>
      <text class="cls-26" transform="translate(667.24 209.06)">
        <tspan class="cls-25" x="0" y="0">5</tspan>
        <tspan x="10.79" y="0">7</tspan>
      </text>
    </g>
    <g id="g55">
      <circle id="p55" class="cls-17" cx="719.29" cy="202.62" r="18.63"/>
      <text class="cls-26" transform="translate(708.31 209.06)">
        <tspan x="0" y="0">55</tspan>
      </text>
    </g>
    <g id="g38">
      <circle id="p38" class="cls-17" cx="788.89" cy="372.07" r="18.63"/>
      <text class="cls-26" transform="translate(777.83 378.51)">
        <tspan x="0" y="0">38</tspan>
      </text>
    </g>
    <g id="g39">
      <circle id="p39" class="cls-17" cx="788.89" cy="421.84" r="18.63"/>
      <text class="cls-26" transform="translate(777.83 428.28)">
        <tspan x="0" y="0">39</tspan>
      </text>
    </g>
    <g id="g48">
      <circle id="p48" class="cls-17" cx="585.61" cy="320.3" r="18.63"/>
      <text class="cls-26" transform="translate(574.24 326.74)">
        <tspan class="cls-29" x="0" y="0">4</tspan>
        <tspan x="11.4" y="0">8</tspan>
      </text>
    </g>
    <g id="g40">
      <circle id="p40" class="cls-17" cx="681.97" cy="320.3" r="18.63"/>
      <text class="cls-26" transform="translate(670.31 326.74)">
        <tspan x="0" y="0">40</tspan>
      </text>
    </g>
    <g id="g47">
      <circle id="p47" class="cls-17" cx="496.24" cy="344.01" r="18.63"/>
      <text class="cls-26" transform="translate(485.69 350.45)">
        <tspan class="cls-3" x="0" y="0">4</tspan>
        <tspan class="cls-2" x="11.02" y="0">7</tspan>
      </text>
    </g>
    <g id="g46">
      <circle id="p46" class="cls-17" cx="486.62" cy="390.7" r="18.63"/>
      <text class="cls-26" transform="translate(475.33 397.14)">
        <tspan x="0" y="0">46</tspan>
      </text>
    </g>
    <g id="g45">
      <circle id="p45" class="cls-17" cx="477.61" cy="438.57" r="18.63"/>
      <text class="cls-26" transform="translate(466.47 445.02)">
        <tspan x="0" y="0">45</tspan>
      </text>
    </g>
    <g id="g43">
      <circle id="p43" class="cls-17" cx="585.16" cy="395" r="18.63"/>
      <text class="cls-26" transform="translate(574.12 401.44)">
        <tspan x="0" y="0">43</tspan>
      </text>
    </g>
    <g id="g41">
      <circle id="p41" class="cls-17" cx="626.37" cy="395" r="18.63"/>
      <text class="cls-26" transform="translate(617.23 401.44)">
        <tspan class="cls-40" x="0" y="0">4</tspan>
        <tspan x="10.83" y="0">1</tspan>
      </text>
    </g>
    <g id="g44">
      <circle id="p44" class="cls-17" cx="585.9" cy="437.49" r="18.63"/>
      <text class="cls-26" transform="translate(574.55 443.93)">
        <tspan class="cls-29" x="0" y="0">4</tspan>
        <tspan x="11.4" y="0">4</tspan>
      </text>
    </g>
    <g id="g42">
      <circle id="p42" class="cls-17" cx="626.37" cy="437.49" r="18.63"/>
      <text class="cls-26" transform="translate(615.57 443.93)">
        <tspan class="cls-31" x="0" y="0">4</tspan>
        <tspan x="11.21" y="0">2</tspan>
      </text>
    </g>
    <g id="g37">
      <circle id="p37" class="cls-17" cx="554.03" cy="507.05" r="18.63"/>
      <text class="cls-26" transform="translate(543.75 513.49)">
        <tspan class="cls-3" x="0" y="0">3</tspan>
        <tspan x="10.49" y="0">7</tspan>
      </text>
    </g>
    <g id="g36">
      <circle id="p36" class="cls-17" cx="615.66" cy="507.05" r="18.63"/>
      <text class="cls-26" transform="translate(604.63 513.49)">
        <tspan x="0" y="0">36</tspan>
      </text>
    </g>
    <g id="g35">
      <circle id="p35" class="cls-17" cx="682.44" cy="507.05" r="18.63"/>
      <text class="cls-26" transform="translate(671.56 513.49)">
        <tspan x="0" y="0">35</tspan>
      </text>
    </g>
    <g id="g9">
      <circle id="p9" class="cls-17" cx="458.98" cy="557.28" r="18.63"/>
      <text class="cls-26" transform="translate(453.31 563.72)">
        <tspan x="0" y="0">9</tspan>
      </text>
    </g>
    <g id="g10">
      <circle id="p10" class="cls-17" cx="514.87" cy="608.58" r="18.63"/>
      <text class="cls-26" transform="translate(505.14 615.02)">
        <tspan x="0" y="0">10</tspan>
      </text>
    </g>
    <g id="g14">
      <circle id="p14" class="cls-17" cx="673.41" cy="612.1" r="18.63"/>
      <text class="cls-26" transform="translate(664.03 618.54)">
        <tspan x="0" y="0">14</tspan>
      </text>
    </g>
    <g id="g11">
      <circle id="p11" class="cls-17" cx="569.16" cy="557.28" r="18.63"/>
      <text class="cls-26" transform="translate(561.71 563.72)">
        <tspan x="0" y="0">11</tspan>
      </text>
    </g>
    <g id="g12">
      <circle id="p12" class="cls-17" cx="611.15" cy="557.28" r="18.63"/>
      <text class="cls-26" transform="translate(602.23 563.72)">
        <tspan x="0" y="0">12</tspan>
      </text>
    </g>
    <g id="g13">
      <circle id="p13" class="cls-17" cx="652.84" cy="557.28" r="18.63"/>
      <text class="cls-26" transform="translate(643.72 563.72)">
        <tspan x="0" y="0">13</tspan>
      </text>
    </g>
    <g id="g15">
      <circle id="p15" class="cls-17" cx="693.66" cy="557.28" r="18.63"/>
      <text class="cls-26" transform="translate(684.44 563.72)">
        <tspan x="0" y="0">15</tspan>
      </text>
    </g>
    <g id="g16">
      <circle id="p16" class="cls-17" cx="734.38" cy="557.28" r="18.63"/>
      <text class="cls-26" transform="translate(725.02 563.72)">
        <tspan x="0" y="0">16</tspan>
      </text>
    </g>
    <g id="g18">
      <circle id="p18" class="cls-17" cx="768.92" cy="652.69" r="18.63"/>
      <text class="cls-26" transform="translate(759.52 659.13)">
        <tspan x="0" y="0">18</tspan>
      </text>
    </g>
    <g id="g19">
      <circle id="p19" class="cls-17" cx="706.69" cy="652.61" r="18.63"/>
      <text class="cls-26" transform="translate(697.3 659.05)">
        <tspan x="0" y="0">19</tspan>
      </text>
    </g>
    <g id="g21">
      <circle id="p21" class="cls-17" cx="644.78" cy="652.69" r="18.63"/>
      <text class="cls-26" transform="translate(635.81 659.13)">
        <tspan class="cls-29" x="0" y="0">2</tspan>
        <tspan x="10.49" y="0">1</tspan>
      </text>
    </g>
    <g id="g23">
      <circle id="p23" class="cls-17" cx="570.74" cy="652.69" r="18.63"/>
      <text class="cls-26" transform="translate(560.16 659.13)">
        <tspan x="0" y="0">23</tspan>
      </text>
    </g>
    <g id="g25">
      <circle id="p25" class="cls-17" cx="510.56" cy="652.69" r="18.63"/>
      <text class="cls-26" transform="translate(499.87 659.13)">
        <tspan x="0" y="0">25</tspan>
      </text>
    </g>
    <g id="g26">
      <circle id="p26" class="cls-17" cx="474.71" cy="696.81" r="18.63"/>
      <text class="cls-26" transform="translate(463.87 703.25)">
        <tspan x="0" y="0">26</tspan>
      </text>
    </g>
    <g id="g24">
      <circle id="p24" class="cls-17" cx="539.38" cy="696.81" r="18.63"/>
      <text class="cls-26" transform="translate(528.67 703.25)">
        <tspan class="cls-3" x="0" y="0">2</tspan>
        <tspan x="10.11" y="0">4</tspan>
      </text>
    </g>
    <g id="g22">
      <circle id="p22" class="cls-17" cx="606.42" cy="696.64" r="18.63"/>
      <text class="cls-26" transform="translate(595.98 703.08)">
        <tspan class="cls-29" x="0" y="0">2</tspan>
        <tspan x="10.49" y="0">2</tspan>
      </text>
    </g>
    <g id="g20">
      <circle id="p20" class="cls-17" cx="676.88" cy="697.26" r="18.63"/>
      <text class="cls-26" transform="translate(665.67 703.71)">
        <tspan x="0" y="0">20</tspan>
      </text>
    </g>
    <g id="g17">
      <circle id="p17" class="cls-17" cx="737.66" cy="697.26" r="18.63"/>
      <text class="cls-26" transform="translate(728.9 703.71)">
        <tspan x="0" y="0">17</tspan>
      </text>
    </g>
    <g id="g27">
      <circle id="p27" class="cls-17" cx="429.38" cy="659.44" r="18.63"/>
      <text class="cls-26" transform="translate(419.15 665.88)">
        <tspan x="0" y="0">27</tspan>
      </text>
    </g>
    <g id="g28">
      <circle id="p28" class="cls-17" cx="1006.39" cy="814.62" r="18.63"/>
      <text class="cls-26" transform="translate(995.53 821.07)">
        <tspan x="0" y="0">28</tspan>
      </text>
    </g>
    <g id="g34">
      <circle id="p34" class="cls-17" cx="908.98" cy="594.54" r="18.63"/>
      <text class="cls-26" transform="translate(897.94 600.98)">
        <tspan x="0" y="0">34</tspan>
      </text>
    </g>
    <g id="g29">
      <circle id="p29" class="cls-17" cx="1073.34" cy="779.38" r="18.63"/>
      <text class="cls-26" transform="translate(1062.42 785.82)">
        <tspan class="cls-29" x="0" y="0">2</tspan>
        <tspan x="10.49" y="0">9</tspan>
      </text>
    </g>
    <g id="g32">
      <circle id="p32" class="cls-17" cx="1027.85" cy="600.98" r="18.63"/>
      <text class="cls-26" transform="translate(1017.27 607.42)">
        <tspan x="0" y="0">32</tspan>
      </text>
    </g>
    <g id="g33">
      <circle id="p33" class="cls-17" cx="1012.69" cy="540.92" r="18.63"/>
      <text class="cls-26" transform="translate(1001.92 547.36)">
        <tspan x="0" y="0">33</tspan>
      </text>
    </g>
    <g id="g31">
      <circle id="p31" class="cls-17" cx="1043.01" cy="659.05" r="18.63"/>
      <text class="cls-26" transform="translate(1033.9 665.49)">
        <tspan x="0" y="0">31</tspan>
      </text>
    </g>
    <g id="g30">
      <circle id="p30" class="cls-17" cx="1058.17" cy="717.12" r="18.63"/>
      <text class="cls-26" transform="translate(1046.78 723.56)">
        <tspan x="0" y="0">30</tspan>
      </text>
    </g>
  </g>
</svg>