<?xml version="1.0" encoding="UTF-8" standalone="no"?>
<svg
   version="1.1"
   viewBox="0 0 1388 1000"
   id="svg240"
   sodipodi:docname="floor-2.svg"
   inkscape:version="1.2.2 (732a01da63, 2022-12-09)"
   xmlns:inkscape="http://www.inkscape.org/namespaces/inkscape"
   xmlns:sodipodi="http://sodipodi.sourceforge.net/DTD/sodipodi-0.dtd"
   xmlns:xlink="http://www.w3.org/1999/xlink"
   xmlns="http://www.w3.org/2000/svg"
   xmlns:svg="http://www.w3.org/2000/svg">
  <sodipodi:namedview
     id="namedview242"
     pagecolor="#ffffff"
     bordercolor="#000000"
     borderopacity="0.25"
     inkscape:showpageshadow="2"
     inkscape:pageopacity="0.0"
     inkscape:pagecheckerboard="0"
     inkscape:deskcolor="#d1d1d1"
     showgrid="false"
     inkscape:zoom="0.56851385"
     inkscape:cx="451.17634"
     inkscape:cy="438.86354"
     inkscape:window-width="1920"
     inkscape:window-height="991"
     inkscape:window-x="-9"
     inkscape:window-y="-9"
     inkscape:window-maximized="1"
     inkscape:current-layer="svg240" />
  <!-- Generator: Adobe Illustrator 29.8.2, SVG Export Plug-In . SVG Version: 2.1.1 Build 3)  -->
  <defs
     id="defs14">
    <style
       id="style2">
      .st0, .st1, .st2, .st3, .st4, .st5, .st6, .st7, .st8, .st9 {
        fill: none;
      }

      .st1 {
        stroke-dasharray: 1 12;
      }

      .st1, .st2, .st10, .st3, .st4, .st5, .st6, .st7, .st8, .st9 {
        stroke-miterlimit: 10;
      }

      .st1, .st3, .st4, .st5, .st8, .st9 {
        stroke: #e6e7e8;
        stroke-linecap: round;
        stroke-width: 8px;
      }

      .st11 {
        fill: url(#linear-gradient2);
      }

      .st12 {
        fill: url(#linear-gradient1);
      }

      .st2 {
        stroke: #ee2a7b;
        stroke-width: 3px;
      }

      .st13 {
        fill: url(#linear-gradient);
      }

      .st10 {
        fill: #0e122f;
        stroke: #ab84bc;
      }

      .st14 {
        font-size: 30px;
      }

      .st14, .st15 {
        font-family: NHaasGroteskDSPro-45Lt, 'Neue Haas Grotesk Display Pro';
      }

      .st14, .st16 {
        fill: #ee2a7b;
      }

      .st4 {
        stroke-dasharray: 1 11.7;
      }

      .st5 {
        stroke-dasharray: .9 11.1;
      }

      .st15 {
        fill: #231f20;
        font-size: 19.8px;
      }

      .st6, .st7 {
        stroke: #808285;
      }

      .st7 {
        stroke-width: 2px;
      }

      .st8 {
        stroke-dasharray: 1 12.2;
      }

      .st17 {
        display: none;
      }

      .st18 {
        fill: #939598;
      }

      .st9 {
        stroke-dasharray: 1.1 12.8;
      }
    </style>
    <linearGradient
       id="linear-gradient"
       x1="117.4"
       y1="759.1"
       x2="30.5"
       y2="724.5"
       gradientUnits="userSpaceOnUse">
      <stop
         offset="0"
         stop-color="#fff"
         id="stop4" />
      <stop
         offset=".1"
         stop-color="#f1f1f1"
         id="stop6" />
      <stop
         offset="1"
         stop-color="#808285"
         id="stop8" />
    </linearGradient>
    <linearGradient
       id="linear-gradient1"
       x1="552.7"
       y1="264.7"
       x2="627.7"
       y2="294.9"
       xlink:href="#linear-gradient" />
    <linearGradient
       id="linear-gradient2"
       x1="261"
       y1="818.1"
       x2="308"
       y2="837"
       xlink:href="#linear-gradient" />
    <path
       id="path"
       d="M54.3,753.1l309.1,123.9,53.6-264.1" />
    <linearGradient
       inkscape:collect="always"
       xlink:href="#linear-gradient"
       id="linearGradient488"
       gradientUnits="userSpaceOnUse"
       x1="117.4"
       y1="759.1"
       x2="30.5"
       y2="724.5" />
  </defs>
  <g
     id="Lager_5"
     class="st17">
    <rect
       class="st10"
       x="11.4"
       y="45.9"
       width="1379.2"
       height="1000"
       id="rect16" />
  </g>
  <g
     id="Layer_2"
     transform="matrix(1.3153307,0,0,1.2880086,-70.92815,-130.63377)">
    <polygon
       class="st13"
       points="54.3,714.9 123.5,742.4 110.6,775.3 54.3,753.1 "
       id="polygon19"
       style="fill:url(#linearGradient488)" />
    <polygon
       class="st12"
       points="560.1,259.2 616.4,265.1 616.4,292.3 558.4,292.3 "
       id="polygon21"
       style="fill:url(#linear-gradient1)" />
    <polygon
       class="st11"
       points="270,804 306.6,818.6 295.2,849.7 257.6,834.6 "
       id="polygon23"
       style="fill:url(#linear-gradient2)" />
    <polygon
       class="st18"
       points="334.5,807 328.7,827.4 306.3,819.3 295.2,849.7 363.4,877 382.3,784 282.4,764.2 279.9,766.8 277.3,782.3 "
       id="polygon25" />
    <line
       class="st7"
       x1="130.8"
       y1="710.79999"
       x2="224.5"
       y2="746.59998"
       id="line27" />
    <path
       class="st7"
       d="M 526.8,231.4 C 527,188 527,146 527,103 c 32.4,0.3 0,9.4 0,0 98,1 196,-3 294,2 0,63 -2,125 2,188 0,1 3,-2 5.5,-0.7 -1,0 -1.9,0 -2.9,0 1,0 1.9,0 2.9,0 C 769,292 710,292 651.2,292.2"
       id="path29" />
    <path
       class="st7"
       d="M 422.3,273.6 C 442,279 461,288 482,291 c 21,3 14,4 21.5,1.4"
       id="path31" />
    <path
       class="st7"
       d="M 209.1,740.7 C 218,718 227,696 235,673 c -20,-10 -41,-16 -61,-24 -13,-6 -26,-11 -39.7,-16 0.5,-1.3 0.1,0 0,0 13.7,-33 26.7,-66 39.7,-100 3,-6 6,-11 8,-17 15,-41 32,-79 47,-120 2,-6 5,-11 8,-17 2,-3 2,-7 3,-10 18,-45 36,-90 55,-135 25,7 49,15 74.4,23"
       id="path33" />
    <polyline
       class="st7"
       points="862.2 484 823.3 292.2 783.2 292.2 783.2 327.5 829.7 328 740 327.5 740 471.7 859.2 471.9"
       id="polyline35" />
    <polyline
       class="st7"
       points="548 292.3 616.4 292.3 616.4 265.1 558.4 259.2"
       id="polyline37" />
    <path
       class="st7"
       d="M 434.3,523.6 C 431,540 429,555 425,571 c 0,2 -1,2 -2,2 -32,-7 -62,-12 -93,-18 1,-13 4,-26 5.9,-38.8 7.2,1.4 -0.1,0.6 0,0 C 367,523 397,527 429,535 c 32,8 9,1 13,1 15,-2 30,0 44.6,-0.9"
       id="path39" />
    <path
       class="st7"
       d="m 487.9,292.6 c -7.7,40.1 -16.7,79.1 -23.7,121.1 -4,20 -9,39 -12.4,59.3"
       id="path41" />
    <line
       class="st7"
       x1="522.29999"
       y1="535.09998"
       x2="744.59998"
       y2="533.40002"
       id="line43" />
    <line
       class="st7"
       x1="870.5"
       y1="522.29999"
       x2="898.09998"
       y2="653.70001"
       id="line45" />
    <polyline
       class="st7"
       points="187.1 501.8 281.9 538.7 295.5 508.7 194.2 484.2"
       id="polyline47" />
    <line
       class="st7"
       x1="141.10001"
       y1="750.09998"
       x2="54.299999"
       y2="714.90002"
       id="line49" />
    <text
       id="text51" />
    <polygon
       class="st7"
       points="343.5,612.9 325.2,705.8 395.2,720.5 414.3,626.4 "
       id="polygon53" />
    <polyline
       class="st7"
       points="382.3 784 282.4 764.2 279.9 766.8 277.3 782.3 334.5 807 328.7 827.4 268.8 803.5"
       id="polyline55" />
    <line
       class="st7"
       x1="265.10001"
       y1="761.5"
       x2="279.89999"
       y2="766.79999"
       id="line57" />
    <polyline
       class="st7"
       points="395.9 716.9 909.7 717.6 904.2 684.4 946.2 674.8 988.3 844.3 1107.1 811 1027.5 507.1 928.9 533.4"
       id="polyline59" />
    <line
       class="st7"
       x1="456.10001"
       y1="632.59998"
       x2="413.10001"
       y2="632.59998"
       id="line61" />
    <line
       class="st7"
       x1="483.29999"
       y1="632.59998"
       x2="596.79999"
       y2="632.59998"
       id="line63" />
    <polyline
       class="st7"
       points="623 632.6 788.9 632.6 788.9 662.8"
       id="polyline65" />
    <circle
       class="st7"
       cx="839.20001"
       cy="672.09998"
       r="26.299999"
       id="circle67" />
    <path
       class="st7"
       d="m 324.7,180.2 v 62.9 z"
       id="path69" />
    <polyline
       class="st7"
       points="324.7 180.2 481.4 180.2 481.4 213.9"
       id="polyline71" />
    <rect
       class="st0"
       x="352.79999"
       y="258.5"
       width="79.599998"
       height="10.7"
       transform="rotate(17,392.41366,263.88802)"
       id="rect73" />
    <polyline
       class="st7"
       points="897.4 652.8 939.2 644.3 931.6 611.1 890.3 619.1"
       id="polyline75" />
    <line
       class="st6"
       x1="270.39999"
       y1="804.40002"
       x2="258.10001"
       y2="834.20001"
       id="line77" />
    <line
       class="st6"
       x1="274.89999"
       y1="806.90002"
       x2="262.60001"
       y2="836.70001"
       id="line79" />
    <line
       class="st6"
       x1="279.70001"
       y1="808.90002"
       x2="267.5"
       y2="838.59998"
       id="line81" />
    <line
       class="st6"
       x1="284.5"
       y1="810.29999"
       x2="272.29999"
       y2="840.09998"
       id="line83" />
    <line
       class="st6"
       x1="289.60001"
       y1="811.90002"
       x2="277.29999"
       y2="841.70001"
       id="line85" />
    <line
       class="st6"
       x1="294.70001"
       y1="814.59998"
       x2="282.39999"
       y2="844.40002"
       id="line87" />
    <line
       class="st6"
       x1="299.79999"
       y1="816.59998"
       x2="287.60001"
       y2="846.29999"
       id="line89" />
    <line
       class="st6"
       x1="119.9"
       y1="742"
       x2="106.6"
       y2="774.20001"
       id="line91" />
    <line
       class="st6"
       x1="112.8"
       y1="738.59998"
       x2="99.5"
       y2="770.79999"
       id="line93" />
    <line
       class="st6"
       x1="105.6"
       y1="735.70001"
       x2="92.400002"
       y2="767.90002"
       id="line95" />
    <line
       class="st6"
       x1="97.699997"
       y1="733.40002"
       x2="84.5"
       y2="765.59998"
       id="line97" />
    <line
       class="st6"
       x1="90.199997"
       y1="730.29999"
       x2="76.900002"
       y2="762.5"
       id="line99" />
    <line
       class="st6"
       x1="82.699997"
       y1="727.20001"
       x2="69.5"
       y2="759.40002"
       id="line101" />
    <line
       class="st6"
       x1="74.800003"
       y1="724"
       x2="61.599998"
       y2="756.20001"
       id="line103" />
    <text
       class="st14"
       transform="rotate(22,-1919.2943,670.45166)"
       id="text107"><tspan
         x="0"
         y="0"
         id="tspan105">Entré</tspan></text>
    <g
       id="g113">
      <polyline
         class="st2"
         points="377.8 854.6 397.3 854.6 397.6 843.5 416.5 843.5 416.5 831.7 434.2 831.7 434.2 820.1 452.2 820.1 452.4 806.7"
         id="polyline109" />
      <polygon
         class="st16"
         points="452.8,787.8 463.2,814.6 452.4,808.1 441.5,814.2 "
         id="polygon111" />
    </g>
    <g
       id="g119">
      <polyline
         class="st2"
         points="867.8 482.3 887.3 482.3 887.6 471.2 906.5 471.2 906.5 459.4 924.2 459.4 924.2 447.8 942.2 447.8 942.5 434.4"
         id="polyline115" />
      <polygon
         class="st16"
         points="942.8,415.5 953.2,442.3 942.5,435.8 931.5,441.9 "
         id="polygon117" />
    </g>
    <text
       class="st14"
       transform="translate(900,507.1)"
       id="text123"><tspan
         x="0"
         y="0"
         id="tspan121">Entré</tspan></text>
    <text
       class="st15"
       transform="rotate(18,-1572.6059,875.25546)"
       id="text127"><tspan
         x="0"
         y="0"
         id="tspan125">Puben</tspan></text>
    <text
       class="st15"
       transform="translate(549.2,479.1)"
       id="text131"><tspan
         x="0"
         y="0"
         id="tspan129">Nya matsalen</tspan></text>
    <text
       class="st15"
       transform="translate(582.6,589.9)"
       id="text135"><tspan
         x="0"
         y="0"
         id="tspan133">Hyllan</tspan></text>
    <text
       class="st15"
       transform="rotate(15,-1618.3533,1348.2163)"
       id="text139"><tspan
         x="0"
         y="0"
         id="tspan137">Gamla matsalen</tspan></text>
    <text
       class="st15"
       transform="translate(588.4,164.2)"
       id="text143"><tspan
         x="0"
         y="0"
         id="tspan141">Kårbokhandeln</tspan></text>
    <text
       class="st15"
       transform="translate(377.9,250.4)"
       id="text147"><tspan
         x="0"
         y="0"
         id="tspan145">Bistron</tspan></text>
    <line
       class="st6"
       x1="560.09998"
       y1="259.20001"
       x2="558.40002"
       y2="292.29999"
       id="line149" />
    <line
       class="st6"
       x1="566.90002"
       y1="260"
       x2="565.20001"
       y2="293"
       id="line151" />
    <line
       class="st6"
       x1="573.79999"
       y1="260.70001"
       x2="572.29999"
       y2="291.79999"
       id="line153" />
    <line
       class="st6"
       x1="580.70001"
       y1="261.20001"
       x2="579.09998"
       y2="292.39999"
       id="line155" />
    <line
       class="st6"
       x1="587.09998"
       y1="262"
       x2="585.5"
       y2="293.10001"
       id="line157" />
    <line
       class="st6"
       x1="593.59998"
       y1="262"
       x2="592"
       y2="293.10001"
       id="line159" />
    <line
       class="st6"
       x1="600.59998"
       y1="262.79999"
       x2="598.79999"
       y2="292.5"
       id="line161" />
    <line
       class="st6"
       x1="607.70001"
       y1="264.10001"
       x2="606.09998"
       y2="292.60001"
       id="line163" />
    <text
       class="st15"
       transform="rotate(75,98.18497,943.68237)"
       id="text167"><tspan
         x="0"
         y="0"
         id="tspan165">Gröten</tspan></text>
    <line
       class="st7"
       x1="805.90002"
       y1="533.5"
       x2="872.20001"
       y2="533.29999"
       id="line169" />
    <text
       class="st15"
       transform="rotate(7.7,-5348.9007,2597.5064)"
       id="text173"><tspan
         x="0"
         y="0"
         id="tspan171">Monter</tspan></text>
    <text
       class="st15"
       transform="rotate(75,35.834987,966.98915)"
       id="text177"><tspan
         x="0"
         y="0"
         id="tspan175">Paneldiskussioner</tspan></text>
  </g>
  <g
     id="Layer_4"
     transform="matrix(1.3153307,0,0,1.2880086,-70.92815,-130.63377)">
    <path
       class="st1"
       d="m 443.4,238.5 23.1,-3 c 4.6,-0.6 9.3,-0.4 13.9,0.7 l 16.3,3.8 c 7.6,1.8 14.1,6.8 17.6,13.8 l 11,17.2"
       id="path180" />
    <line
       class="st1"
       x1="401.39999"
       y1="267.10001"
       x2="414.29999"
       y2="253.7"
       id="line182" />
    <path
       class="st1"
       d="M 777.9,500 736,491.8 c -8,-1.6 -15.6,-4.6 -22.5,-9 l -22.2,-18.2"
       id="path184" />
    <polyline
       class="st1"
       points="503.4 570.6 540 357.6 647.7 361.6 681 367.1 687 387.8 693.9 468.9"
       id="polyline186" />
    <line
       class="st1"
       x1="610"
       y1="665.90002"
       x2="610"
       y2="606.59998"
       id="line188" />
    <g
       id="g208">
      <line
         class="st3"
         x1="500.39999"
         y1="582"
         x2="500"
         y2="582.29999"
         id="line190" />
      <line
         class="st5"
         x1="491.20001"
         y1="589"
         x2="476.5"
         y2="600.09998"
         id="line192" />
      <polyline
         class="st3"
         points="472.1 603.5 471.7 603.8 471.7 604.3"
         id="polyline194" />
      <line
         class="st9"
         x1="471.70001"
         y1="617.09998"
         x2="471.70001"
         y2="652.20001"
         id="line196" />
      <polyline
         class="st3"
         points="471.7 658.6 471.7 659.1 472.1 659.5"
         id="polyline198" />
      <polyline
         class="st8"
         points="481.3 667.4 492.5 677.1 787.9 675.7 797.9 666.3"
         id="polyline200" />
      <polyline
         class="st3"
         points="802.4 662.2 802.7 661.8 802.7 661.3"
         id="polyline202" />
      <polyline
         class="st4"
         points="802.7 649.7 802.7 625.9 788 607.6 761.2 594.2 716.7 586.1 655.6 588.9"
         id="polyline204" />
      <line
         class="st3"
         x1="649.79999"
         y1="589.09998"
         x2="649.29999"
         y2="589.20001"
         id="line206" />
    </g>
    <path
       class="st1"
       d="M 277.6,636.8 213,611 l -6.8,-18 3,-13.5 7.7,-17.8 c 4.3,-9.9 16.5,-13.7 25.6,-8 l 37.6,23.5 191.6,26.6"
       id="path210" />
    <polyline
       class="st1"
       points="192.9 785 229 788 248.3 775.8 259.2 752.3 299.2 590.8"
       id="polyline212" />
    <line
       class="st1"
       x1="253.5"
       y1="817.70001"
       x2="231.89999"
       y2="786.20001"
       id="line214" />
    <path
       class="st1"
       d="m 374.8,463 16.2,-1 30.2,-145.4 -11.6,-25.2 -15.4,-16.4 -36,2.8 -24.2,7.8 -18.4,20.3 -27.5,103.9 c -2.3,8.6 -1.2,17.7 2.9,25.6 l 5.4,10.2"
       id="path216" />
    <line
       class="st1"
       x1="303"
       y1="571.40002"
       x2="326.20001"
       y2="483.29999"
       id="line218" />
    <polyline
       class="st1"
       points="435.3 495.6 474.5 501.1 508.3 505.1"
       id="polyline220" />
    <line
       class="st1"
       x1="399.29999"
       y1="465.89999"
       x2="412.29999"
       y2="476.5"
       id="line222" />
    <path
       class="st1"
       d="m 639.8,245.1 19.3,-3.3 76.6,-1.8 c 5.8,-0.1 11.1,-2.9 14.6,-7.6 l 5.4,-7.4 2.2,-23.9 -4,-19.3 -2.3,-10.6 c -1.1,-5.1 -5.1,-9 -10.2,-10 l -17.7,-2.3"
       id="path224" />
    <polyline
       class="st1"
       points="541.2 346.8 528.7 313.4 524.7 274 544.2 248.6 568 234.9 568 184.3 579 160.9"
       id="polyline226" />
    <polyline
       class="st1"
       points="576 238.6 608 246.6 626.5 248.4 639.7 250.4"
       id="polyline228" />
    <polyline
       class="st1"
       points="813 635.1 851.6 635.1 865.5 638.3 875.7 650.7 882.5 664 892.6 668.6 914.8 668.6 949.8 659 978.2 661.3 1000 680.5 1009.2 708 1016.8 740.7 1024.4 775.8"
       id="polyline230" />
    <polyline
       class="st1"
       points="960.1 652.2 968.8 647.7 972.5 634.1 972.5 621.4 970.5 605.4 967.5 591.2 960.7 578.4 948 566.7 927.6 559.5 918.7 547.6 907.4 531.1 901.7 517.3 887.2 507.1 865.5 507.1 836.6 507.1 807.5 505.6 787.5 502.2 781.9 553.3 761.2 594.2"
       id="polyline232" />
    <line
       class="st1"
       x1="512.09998"
       y1="578.5"
       x2="570.70001"
       y2="589.90002"
       id="line234" />
  </g>
  <g
     id="Layer_1"
     class="st17">
    <image
       width="1744"
       height="1437"
       transform="translate(0 61.2) scale(.6)"
       xlink:href="karta-plan2-1.png"
       id="image237" />
  </g>
</svg>
