<?xml version="1.0" encoding="UTF-8" standalone="no"?>
<svg
   viewBox="123.1 332.73 760.59 383.44"
   version="1.1"
   id="svg49"
   sodipodi:docname="floor-3.svg"
   inkscape:version="1.3 (0e150ed, 2023-07-21)"
   xmlns:inkscape="http://www.inkscape.org/namespaces/inkscape"
   xmlns:sodipodi="http://sodipodi.sourceforge.net/DTD/sodipodi-0.dtd"
   xmlns="http://www.w3.org/2000/svg"
   xmlns:svg="http://www.w3.org/2000/svg">
  <sodipodi:namedview
     id="namedview49"
     pagecolor="#505050"
     bordercolor="#eeeeee"
     borderopacity="1"
     inkscape:showpageshadow="0"
     inkscape:pageopacity="0"
     inkscape:pagecheckerboard="0"
     inkscape:deskcolor="#d1d1d1"
     inkscape:zoom="1.2227569"
     inkscape:cx="293.59884"
     inkscape:cy="204.0471"
     inkscape:window-width="1472"
     inkscape:window-height="891"
     inkscape:window-x="0"
     inkscape:window-y="37"
     inkscape:window-maximized="1"
     inkscape:current-layer="Layer_2" />
  <defs
     id="defs2">
    <style
       id="style1">&#10;      @font-face {&#10;        font-family: &quot;neue-haas-normal&quot;;&#10;        src: url(&quot;/fonts/NeueHaasDisplay/NeueHaasDisplayRoman.ttf&quot;) format(&quot;truetype&quot;);&#10;      }&#10;&#10;      tspan {&#10;        font-family:neue-haas-normal;&#10;      }&#10;      &#10;      .cls-1 {&#10;      letter-spacing: 0em;&#10;      }&#10;&#10;      .cls-2 {&#10;      letter-spacing: -.02em;&#10;      }&#10;&#10;      .cls-3 {&#10;      fill: url(#linear-gradient);&#10;      }&#10;&#10;      .cls-3, .cls-4 {&#10;      stroke-width: 0px;&#10;      }&#10;&#10;      .cls-5 {&#10;      stroke: #e6e7e8;&#10;      stroke-dasharray: 0 0 1 12;&#10;      stroke-linecap: round;&#10;      stroke-width: 8px;&#10;      }&#10;&#10;      .cls-5, .cls-6, .cls-7, .cls-8, .cls-9 {&#10;      fill: none;&#10;      stroke-miterlimit: 10;&#10;      }&#10;&#10;      .cls-10 {&#10;      letter-spacing: 0em;&#10;      }&#10;&#10;      .cls-11 {&#10;      fill: #fff;&#10;      font-size: 19px;&#10;      font-weight: 500;&#10;      cursor: pointer;&#10;      }&#10;&#10;      .cls-4 {&#10;      fill: #ee2a7b;&#10;      }&#10;&#10;      .cls-12 {&#10;      letter-spacing: 0em;&#10;      }&#10;&#10;      .cls-13 {&#10;      letter-spacing: 0em;&#10;      }&#10;&#10;      .cls-14 {&#10;      letter-spacing: 0em;&#10;      }&#10;&#10;      .cls-6 {&#10;      stroke: #ee2a7b;&#10;      }&#10;&#10;      .cls-6, .cls-7 {&#10;      stroke-width: 3px;&#10;      }&#10;&#10;      .cls-7, .cls-8, .cls-9 {&#10;      stroke: #808285;&#10;      }&#10;&#10;      .cls-9 {&#10;      stroke-width: 2px;&#10;      }&#10;    </style>
    <linearGradient
       id="linear-gradient"
       x1="222.49"
       y1="645.61"
       x2="261.73"
       y2="655.49"
       gradientUnits="userSpaceOnUse">
      <stop
         offset=".19"
         stop-color="#fff"
         id="stop1" />
      <stop
         offset="1"
         stop-color="#939598"
         id="stop2" />
    </linearGradient>
  </defs>
  <g
     id="Layer_3"
     data-name="Layer 3">
    <polygon
       class="cls-3"
       points="240.26 614.37 307.42 629.28 293.78 701.28 224.66 676.1 240.26 614.37"
       id="polygon2" />
    <polyline
       class="cls-9"
       points="257.36 665.36 124.1 608.8 147.94 540.33 163.55 546.37 171.6 527.24 132.08 510.71 175.13 401.7 208.86 414.29 347.32 428.38 352.36 388.61 757.67 388.86 750.37 345.56 793.67 335.74 796.94 348.83"
       id="polyline2" />
    <polyline
       class="cls-9"
       points="803.66 374.34 841.25 573.39 319.63 574.73 293.78 701.28 223.38 676.27"
       id="polyline3" />
    <line
       class="cls-9"
       x1="238.82"
       y1="614.05"
       x2="307.42"
       y2="629.28"
       id="line3" />
    <polyline
       class="cls-9"
       points="431.57 469.5 340.27 469.5 319.63 574.73"
       id="polyline4" />
    <polyline
       class="cls-9"
       points="318.92 578.03 299.83 573.56 322.82 465.98 340.27 469.5"
       id="polyline5" />
    <line
       class="cls-9"
       x1="205.84"
       y1="607.13"
       x2="199.25"
       y2="640.7"
       id="line5" />
    <line
       class="cls-9"
       x1="455.07"
       y1="469.5"
       x2="481.04"
       y2="573.94"
       id="line6" />
    <line
       class="cls-9"
       x1="487.13"
       y1="469.5"
       x2="563.32"
       y2="469.5"
       id="line7" />
    <line
       class="cls-9"
       x1="588.24"
       y1="470.17"
       x2="570.81"
       y2="573.55"
       id="line8" />
    <path
       class="cls-7"
       d="m617.7,472.1c5.64-3.02,39.95-21.28,77.54-8.14,37.93,13.26,50.18,58.91,55.47,109.58"
       id="path8" />
    <line
       class="cls-8"
       x1="240.26"
       y1="614.37"
       x2="224.66"
       y2="676.1"
       id="line9" />
    <line
       class="cls-8"
       x1="245.75"
       y1="616.44"
       x2="230.14"
       y2="678.17"
       id="line10" />
    <line
       class="cls-8"
       x1="251.38"
       y1="617.86"
       x2="235.77"
       y2="679.59"
       id="line11" />
    <line
       class="cls-8"
       x1="257.47"
       y1="618.72"
       x2="241.21"
       y2="681.81"
       id="line12" />
    <line
       class="cls-8"
       x1="268.67"
       y1="621.47"
       x2="252.21"
       y2="686.51"
       id="line13" />
    <line
       class="cls-8"
       x1="263.32"
       y1="619.23"
       x2="246.87"
       y2="684.27"
       id="line14" />
    <polyline
       class="cls-5"
       points="467.78 460.86 479.49 483.01 497.99 496.1 530.09 500.51 553.7 492.96 570.81 479.89 579.53 459.27"
       id="polyline14" />
    <polyline
       class="cls-5"
       points="265.35 464.6 248.97 469.5 236.55 469.5 223.38 467.32 210.87 473.7 198.45 494.51 194.93 508.94 194.93 532.27 203.83 557.95 212.05 571.88 216.82 579.75 220.3 589.36"
       id="polyline15" />
    <polyline
       class="cls-5"
       points="439.71 449.2 445.45 473.7 439.71 500.55 419.57 516.41 391.63 524.7 366.45 529.08"
       id="polyline16" />
    <polyline
       class="cls-5"
       points="604.7 464.51 603.1 496.52 616.36 515.66 640.36 521.03"
       id="polyline17" />
  </g>
  <g
     id="Layer_2"
     data-name="Layer 2">
    <g
       id="g18">
      <polyline
         class="cls-6"
         points="302.78 714.67 322.25 714.67 322.58 703.6 341.46 703.6 341.46 691.76 359.17 691.76 359.17 680.18 377.21 680.18 377.44 666.74"
         id="polyline18" />
      <polygon
         class="cls-4"
         points="377.77 647.9 388.16 674.64 377.42 668.15 366.46 674.27 377.77 647.9"
         id="polygon18" />
    </g>
    <g
       id="g19">
      <polyline
         class="cls-6"
         points="798.3 334.23 817.77 334.23 818.11 345.31 836.99 345.31 836.99 357.14 854.69 357.14 854.69 368.72 872.74 368.72 872.97 382.16"
         id="polyline19" />
      <polygon
         class="cls-4"
         points="873.29 401.01 861.98 374.63 872.94 380.75 883.69 374.26 873.29 401.01"
         id="polygon19" />
    </g>
    <polyline
       class="cls-5"
       points="226.36 639.85 220.69 592.61 220.06 587.36 245.74 569.43"
       id="polyline49" />
    <path
       class="cls-5"
       d="m813.72,361.05l-8.47-.38-13.22,2.14-9.45,4.81-7.79,11.93-2.14,13.59-3.02,24.55-3.52,13.59s-9,11.08-9.31,11.45-22.63,4.63-22.63,4.63l-31.2,1.83h-389.37l-17.12,2.52-12.67,6.29-8.81,7.97-10.07,23.04-1.97,17.42-2.39,22.64-2.35,22.66-9.86,15.73-7.33,5.26"
       id="path49" />
  </g>
</svg>
