<svg xmlns="http://www.w3.org/2000/svg" xmlns:xlink="http://www.w3.org/1999/xlink" viewBox="123.1 332.73 760.59 383.44">
  <defs>
    <style>
      @font-face {
        font-family: "neue-haas-normal";
        src: url("/fonts/NeueHaasDisplay/NeueHaasDisplayRoman.ttf") format("truetype");
      }

      tspan {
        font-family:neue-haas-normal;
      }
      
      .cls-1 {
      letter-spacing: 0em;
      }

      .cls-2 {
      letter-spacing: -.02em;
      }

      .cls-3 {
      fill: url(#linear-gradient);
      }

      .cls-3, .cls-4 {
      stroke-width: 0px;
      }

      .cls-5 {
      stroke: #e6e7e8;
      stroke-dasharray: 0 0 1 12;
      stroke-linecap: round;
      stroke-width: 8px;
      }

      .cls-5, .cls-6, .cls-7, .cls-8, .cls-9 {
      fill: none;
      stroke-miterlimit: 10;
      }

      .cls-10 {
      letter-spacing: 0em;
      }

      .cls-11 {
      fill: #fff;
      font-size: 19px;
      font-weight: 500;
      cursor: pointer;
      }

      .cls-4 {
      fill: #ee2a7b;
      }

      .cls-12 {
      letter-spacing: 0em;
      }

      .cls-13 {
      letter-spacing: 0em;
      }

      .cls-14 {
      letter-spacing: 0em;
      }

      .cls-6 {
      stroke: #ee2a7b;
      }

      .cls-6, .cls-7 {
      stroke-width: 3px;
      }

      .cls-7, .cls-8, .cls-9 {
      stroke: #808285;
      }

      .cls-9 {
      stroke-width: 2px;
      }
    </style>
    <linearGradient id="linear-gradient" x1="222.49" y1="645.61" x2="261.73" y2="655.49" gradientUnits="userSpaceOnUse">
      <stop offset=".19" stop-color="#fff"/>
      <stop offset="1" stop-color="#939598"/>
    </linearGradient>
  </defs>
  <g id="Layer_3" data-name="Layer 3">
    <polygon class="cls-3" points="240.26 614.37 307.42 629.28 293.78 701.28 224.66 676.1 240.26 614.37"/>
    <polyline class="cls-9" points="257.36 665.36 124.1 608.8 147.94 540.33 163.55 546.37 171.6 527.24 132.08 510.71 175.13 401.7 208.86 414.29 347.32 428.38 352.36 388.61 757.67 388.86 750.37 345.56 793.67 335.74 796.94 348.83"/>
    <polyline class="cls-9" points="803.66 374.34 841.25 573.39 319.63 574.73 293.78 701.28 223.38 676.27"/>
    <line class="cls-9" x1="238.82" y1="614.05" x2="307.42" y2="629.28"/>
    <polyline class="cls-9" points="431.57 469.5 340.27 469.5 319.63 574.73"/>
    <polyline class="cls-9" points="318.92 578.03 299.83 573.56 322.82 465.98 340.27 469.5"/>
    <line class="cls-9" x1="205.84" y1="607.13" x2="199.25" y2="640.7"/>
    <line class="cls-9" x1="455.07" y1="469.5" x2="481.04" y2="573.94"/>
    <line class="cls-9" x1="487.13" y1="469.5" x2="563.32" y2="469.5"/>
    <line class="cls-9" x1="588.24" y1="470.17" x2="570.81" y2="573.55"/>
    <path class="cls-7" d="m617.7,472.1c5.64-3.02,39.95-21.28,77.54-8.14,37.93,13.26,50.18,58.91,55.47,109.58"/>
    <line class="cls-8" x1="240.26" y1="614.37" x2="224.66" y2="676.1"/>
    <line class="cls-8" x1="245.75" y1="616.44" x2="230.14" y2="678.17"/>
    <line class="cls-8" x1="251.38" y1="617.86" x2="235.77" y2="679.59"/>
    <line class="cls-8" x1="257.47" y1="618.72" x2="241.21" y2="681.81"/>
    <line class="cls-8" x1="268.67" y1="621.47" x2="252.21" y2="686.51"/>
    <line class="cls-8" x1="263.32" y1="619.23" x2="246.87" y2="684.27"/>
    <polyline class="cls-5" points="467.78 460.86 479.49 483.01 497.99 496.1 530.09 500.51 553.7 492.96 570.81 479.89 579.53 459.27"/>
    <polyline class="cls-5" points="265.35 464.6 248.97 469.5 236.55 469.5 223.38 467.32 210.87 473.7 198.45 494.51 194.93 508.94 194.93 532.27 203.83 557.95 212.05 571.88 216.82 579.75 220.3 589.36"/>
    <polyline class="cls-5" points="439.71 449.2 445.45 473.7 439.71 500.55 419.57 516.41 391.63 524.7 366.45 529.08"/>
    <polyline class="cls-5" points="604.7 464.51 603.1 496.52 616.36 515.66 640.36 521.03"/>
  </g>
  <g id="Layer_2" data-name="Layer 2">
    <g id="g91">
      <circle id="p91" class="cls-4" cx="492.07" cy="409.4" r="18.63"/>
      <text class="cls-11" transform="translate(482.67 415.84)">
        <tspan x="0" y="0">91</tspan>
      </text>
    </g>
    <g>
      <polyline class="cls-6" points="302.78 714.67 322.25 714.67 322.58 703.6 341.46 703.6 341.46 691.76 359.17 691.76 359.17 680.18 377.21 680.18 377.44 666.74"/>
      <polygon class="cls-4" points="377.77 647.9 388.16 674.64 377.42 668.15 366.46 674.27 377.77 647.9"/>
    </g>
    <g>
      <polyline class="cls-6" points="798.3 334.23 817.77 334.23 818.11 345.31 836.99 345.31 836.99 357.14 854.69 357.14 854.69 368.72 872.74 368.72 872.97 382.16"/>
      <polygon class="cls-4" points="873.29 401.01 861.98 374.63 872.94 380.75 883.69 374.26 873.29 401.01"/>
    </g>
    <g id="g80">
      <circle id="p80" class="cls-4" cx="180.62" cy="607.13" r="18.63"/>
      <text class="cls-11" transform="translate(168.99 613.57)">
        <tspan class="cls-13" x="0" y="0">8</tspan>
        <tspan x="11.25" y="0">0</tspan>
      </text>
    </g>
    <g id="g81">
      <circle id="p81" class="cls-4" cx="180.62" cy="562.24" r="18.63"/>
      <text class="cls-11" transform="translate(171.32 568.69)">
        <tspan class="cls-10" x="0" y="0">8</tspan>
        <tspan x="11.15" y="0">1</tspan>
      </text>
    </g>
    <g id="g85">
      <circle id="p85" class="cls-4" cx="232.67" cy="500" r="18.63"/>
      <text class="cls-11" transform="translate(221.51 506.44)">
        <tspan x="0" y="0">85</tspan>
      </text>
    </g>
    <g id="g86">
      <circle id="p86" class="cls-4" cx="229.5" cy="543.62" r="18.63"/>
      <text class="cls-11" transform="translate(218.24 550.06)">
        <tspan class="cls-13" x="0" y="0">8</tspan>
        <tspan x="11.25" y="0">6</tspan>
      </text>
    </g>
    <g id="g82">
      <circle id="p82" class="cls-4" cx="165.05" cy="495.75" r="18.63"/>
      <text class="cls-11" transform="translate(154.23 502.19)">
        <tspan class="cls-13" x="0" y="0">8</tspan>
        <tspan class="cls-14" x="11.25" y="0">2</tspan>
      </text>
    </g>
    <g id="g83">
      <circle id="p83" class="cls-4" cx="188.56" cy="444.47" r="18.63"/>
      <text class="cls-11" transform="translate(177.5 450.91)">
        <tspan x="0" y="0">83</tspan>
      </text>
    </g>
    <g id="g84">
      <circle id="p84" class="cls-4" cx="248.13" cy="440.64" r="18.63"/>
      <text class="cls-11" transform="translate(236.76 447.08)">
        <tspan class="cls-12" x="0" y="0">8</tspan>
        <tspan x="11.44" y="0">4</tspan>
      </text>
    </g>
    <g id="g89">
      <circle id="p89" class="cls-4" cx="296.47" cy="489.02" r="18.63"/>
      <text class="cls-11" transform="translate(285.17 495.46)">
        <tspan class="cls-13" x="0" y="0">8</tspan>
        <tspan x="11.25" y="0">9</tspan>
      </text>
    </g>
    <g id="g88">
      <circle id="p88" class="cls-4" cx="285.78" cy="540.35" r="18.63"/>
      <text class="cls-11" transform="translate(274.39 546.79)">
        <tspan class="cls-12" x="0" y="0">8</tspan>
        <tspan x="11.44" y="0">8</tspan>
      </text>
    </g>
    <g id="g87">
      <circle id="p87" class="cls-4" cx="273.12" cy="591.68" r="18.63"/>
      <text class="cls-11" transform="translate(262.51 598.12)">
        <tspan class="cls-10" x="0" y="0">8</tspan>
        <tspan x="11.15" y="0">7</tspan>
      </text>
    </g>
    <g id="g101">
      <circle id="p101" class="cls-4" cx="380.94" cy="495.75" r="18.63"/>
      <text class="cls-11" transform="translate(367.58 502.19)">
        <tspan x="0" y="0">101</tspan>
      </text>
    </g>
    <g id="g100">
      <circle id="p100" class="cls-4" cx="426.82" cy="550.06" r="18.63"/>
      <text class="cls-11" transform="translate(411.09 556.5)">
        <tspan x="0" y="0">100</tspan>
      </text>
    </g>
    <g id="g99">
      <circle id="p99" class="cls-4" cx="492.07" cy="524.7" r="18.63"/>
      <text class="cls-11" transform="translate(480.73 531.14)">
        <tspan x="0" y="0">99</tspan>
      </text>
    </g>
    <g id="g98">
      <circle id="p98" class="cls-4" cx="549.37" cy="531.14" r="18.63"/>
      <text class="cls-11" transform="translate(538.03 537.59)">
        <tspan x="0" y="0">98</tspan>
      </text>
    </g>
    <g id="g97">
      <circle id="p97" class="cls-4" cx="672.47" cy="524.99" r="18.63"/>
      <text class="cls-11" transform="translate(661.9 531.43)">
        <tspan class="cls-2" x="0" y="0">9</tspan>
        <tspan class="cls-1" x="11.06" y="0">7</tspan>
      </text>
    </g>
    <g id="g90">
      <circle id="p90" class="cls-4" cx="426.82" cy="409.4" r="18.63"/>
      <text class="cls-11" transform="translate(415.14 415.84)">
        <tspan x="0" y="0">90</tspan>
      </text>
    </g>
    <g id="g92">
      <circle id="p92" class="cls-4" cx="553.7" cy="409.4" r="18.63"/>
      <text class="cls-11" transform="translate(542.93 415.84)">
        <tspan class="cls-10" x="0" y="0">9</tspan>
        <tspan x="11.15" y="0">2</tspan>
      </text>
    </g>
    <g id="g93">
      <circle id="p93" class="cls-4" cx="614.68" cy="409.4" r="18.63"/>
      <text class="cls-11" transform="translate(603.62 415.84)">
        <tspan x="0" y="0">93</tspan>
      </text>
    </g>
    <g id="g94">
      <circle id="p94" class="cls-4" cx="672.47" cy="409.4" r="18.63"/>
      <text class="cls-11" transform="translate(661.14 415.84)">
        <tspan x="0" y="0">94</tspan>
      </text>
    </g>
    <g id="g95">
      <circle id="p95" class="cls-4" cx="734.16" cy="409.4" r="18.63"/>
      <text class="cls-11" transform="translate(723 415.84)">
        <tspan x="0" y="0">95</tspan>
      </text>
    </g>
    <g id="g96">
      <circle id="p96" class="cls-4" cx="793.42" cy="440.64" r="18.63"/>
      <text class="cls-11" transform="translate(782.11 447.08)">
        <tspan x="0" y="0">96</tspan>
      </text>
    </g>
    <polyline class="cls-5" points="226.36 639.85 220.69 592.61 220.06 587.36 245.74 569.43"/>
    <path class="cls-5" d="m813.72,361.05l-8.47-.38-13.22,2.14-9.45,4.81-7.79,11.93-2.14,13.59-3.02,24.55-3.52,13.59s-9,11.08-9.31,11.45-22.63,4.63-22.63,4.63l-31.2,1.83h-389.37l-17.12,2.52-12.67,6.29-8.81,7.97-10.07,23.04-1.97,17.42-2.39,22.64-2.35,22.66-9.86,15.73-7.33,5.26"/>
  </g>
</svg>