<svg xmlns="http://www.w3.org/2000/svg" xmlns:xlink="http://www.w3.org/1999/xlink" viewBox="25.34 443.16 848.13 255.09">
  <defs>
    <style>
      .cls-1 {
      fill: url(#linear-gradient);
      }

      .cls-1, .cls-2, .cls-3 {
      stroke-width: 0px;
      }

      .cls-4 {
      stroke: #e6e7e8;
      stroke-dasharray: 0 0 1 12;
      stroke-linecap: round;
      stroke-width: 8px;
      }

      .cls-4, .cls-5, .cls-6 {
      fill: none;
      stroke-miterlimit: 10;
      }

      .cls-7 {
      fill: #fff;
      font-family: NHaasGroteskDSPro-65Md, 'Neue Haas Grotesk Display Pro';
      font-size: 19px;
      font-weight: 500;
      cursor: pointer;
      }

      .cls-2 {
      fill: #ee2a7b;
      }

      .cls-3 {
      fill: url(#linear-gradient-2);
      }

      .cls-8 {
      letter-spacing: 0em;
      }

      .cls-9 {
      letter-spacing: -.02em;
      }

      .cls-5, .cls-6 {
      stroke: #808285;
      }

      .cls-6 {
      stroke-width: 2px;
      }
    </style>
    <linearGradient id="linear-gradient" x1="332.11" y1="542.33" x2="187.81" y2="543.54" gradientUnits="userSpaceOnUse">
      <stop offset="0" stop-color="#fff"/>
      <stop offset=".17" stop-color="#939598"/>
    </linearGradient>
    <linearGradient id="linear-gradient-2" x1="220.18" y1="508.9" x2="327.28" y2="510.12" gradientUnits="userSpaceOnUse">
      <stop offset="0" stop-color="#fff"/>
      <stop offset=".85" stop-color="#939598"/>
    </linearGradient>
  </defs>
  <g id="Layer_3" data-name="Layer 3">
    <polygon class="cls-1" points="222.29 524.55 323.15 524.55 323.19 543.56 306.29 543.69 226.71 561.91 222.29 524.55"/>
    <polygon class="cls-3" points="226.31 493.42 306.07 494.3 306.07 524.26 226.31 524.55 226.31 493.42"/>
    <polygon class="cls-6" points="872.47 444.16 870.62 543.35 306.29 543.69 207.35 566.34 88.78 697.25 26.34 620.22 182.68 445.76 872.47 444.16"/>
    <polyline class="cls-6" points="226.71 561.91 222.29 524.55 325 524.55"/>
    <polyline class="cls-6" points="222.29 493.42 312.75 494.01 312.75 445.45"/>
    <line class="cls-5" x1="225.9" y1="494.01" x2="225.9" y2="523.97"/>
    <line class="cls-5" x1="235.63" y1="494.01" x2="235.63" y2="523.97"/>
    <line class="cls-5" x1="246.03" y1="494.01" x2="246.03" y2="523.97"/>
    <line class="cls-5" x1="256.23" y1="494.3" x2="256.23" y2="524.26"/>
    <line class="cls-5" x1="266.26" y1="494.3" x2="266.26" y2="524.26"/>
    <line class="cls-5" x1="276.01" y1="494.01" x2="276.01" y2="523.97"/>
    <line class="cls-5" x1="285.77" y1="494.01" x2="285.77" y2="523.97"/>
    <line class="cls-5" x1="295.8" y1="494.3" x2="295.8" y2="524.26"/>
    <line class="cls-5" x1="306.07" y1="494.3" x2="306.07" y2="524.26"/>
    <line class="cls-5" x1="323.19" y1="524.99" x2="323.19" y2="543.56"/>
    <line class="cls-5" x1="313.4" y1="524.26" x2="313.52" y2="543.68"/>
    <line class="cls-5" x1="304.15" y1="524.99" x2="304.15" y2="543.91"/>
    <line class="cls-5" x1="60.13" y1="582.86" x2="74.84" y2="596.15"/>
    <line class="cls-5" x1="83.19" y1="558.14" x2="97.9" y2="571.43"/>
    <line class="cls-5" x1="88.81" y1="550.71" x2="103.53" y2="564"/>
    <line class="cls-5" x1="111.87" y1="525.99" x2="126.58" y2="539.28"/>
    <line class="cls-5" x1="117.01" y1="519.11" x2="131.72" y2="532.4"/>
    <line class="cls-5" x1="140.06" y1="494.38" x2="154.78" y2="507.67"/>
    <path class="cls-5" d="m72.01,569.25c1.22,1.18,4.82,6.52,5.65,13.68.87,7.44-2.02,11.32-2.94,12.68"/>
    <path class="cls-5" d="m97.22,571.45c-.57.61-5,5.19-13.04,4.3-7.52-.83-11.64-5.7-12.17-6.5"/>
    <path class="cls-5" d="m100.68,537.1c1.22,1.18,4.82,6.52,5.65,13.68.87,7.44-2.02,11.32-2.94,12.68"/>
    <path class="cls-5" d="m125.89,539.3c-.57.61-5,5.19-13.04,4.3-7.52-.83-11.64-5.7-12.17-6.5"/>
    <path class="cls-5" d="m128.88,505.46c1.22,1.18,4.82,6.52,5.65,13.68.87,7.44-2.02,11.32-2.94,12.68"/>
    <path class="cls-5" d="m154.09,507.66c-.57.61-5,5.19-13.04,4.3-7.52-.83-11.64-5.7-12.17-6.5"/>
    <polyline class="cls-4" points="214.23 511.97 193.63 517.63 161.87 554.26 138.97 561.01 120.75 557.36"/>
    <line class="cls-4" x1="734.13" y1="505.67" x2="317.11" y2="510.45"/>
  </g>
  <g id="Layer_2" data-name="Layer 2">
    <g id="g102">
      <circle id="p102" class="cls-2" cx="677.75" cy="472.06" r="18.63"/>
      <text class="cls-7" transform="translate(662.87 478.5)">
        <tspan x="0" y="0">102</tspan>
      </text>
    </g>
    <g id="g103">
      <circle id="p103" class="cls-2" cx="729.42" cy="473.32" r="18.63"/>
      <text class="cls-7" transform="translate(714.31 479.76)">
        <tspan x="0" y="0">103</tspan>
      </text>
    </g>
    <g id="g104">
      <circle id="p104" class="cls-2" cx="781.72" cy="472.06" r="18.63"/>
      <text class="cls-7" transform="translate(766.34 478.5)">
        <tspan x="0" y="0">104</tspan>
      </text>
    </g>
    <g id="g105">
      <circle id="p105" class="cls-2" cx="840.88" cy="472.06" r="18.63"/>
      <text class="cls-7" transform="translate(825.71 478.5)">
        <tspan x="0" y="0">105</tspan>
      </text>
    </g>
    <g id="g107">
      <circle id="p107" class="cls-2" cx="781.72" cy="520.52" r="18.63"/>
      <text class="cls-7" transform="translate(767.2 526.96)">
        <tspan x="0" y="0">107</tspan>
      </text>
    </g>
    <g id="g106">
      <circle id="p106" class="cls-2" cx="840.88" cy="520.52" r="18.63"/>
      <text class="cls-7" transform="translate(825.51 526.96)">
        <tspan x="0" y="0">106</tspan>
      </text>
    </g>
  </g>
</svg>