<?xml version="1.0" encoding="UTF-8" standalone="no"?>
<svg
   viewBox="25.34 443.16 848.13 255.09"
   version="1.1"
   id="svg2144"
   sodipodi:docname="kth-entrance.svg"
   inkscape:version="1.2.2 (b0a8486541, 2022-12-01)"
   xmlns:inkscape="http://www.inkscape.org/namespaces/inkscape"
   xmlns:sodipodi="http://sodipodi.sourceforge.net/DTD/sodipodi-0.dtd"
   xmlns="http://www.w3.org/2000/svg"
   xmlns:svg="http://www.w3.org/2000/svg">
  <sodipodi:namedview
     id="namedview2146"
     pagecolor="#ffffff"
     bordercolor="#000000"
     borderopacity="0.25"
     inkscape:showpageshadow="2"
     inkscape:pageopacity="0.0"
     inkscape:pagecheckerboard="0"
     inkscape:deskcolor="#d1d1d1"
     showgrid="false"
     inkscape:zoom="1.699032"
     inkscape:cx="424.065"
     inkscape:cy="127.71978"
     inkscape:window-width="1920"
     inkscape:window-height="1011"
     inkscape:window-x="0"
     inkscape:window-y="0"
     inkscape:window-maximized="1"
     inkscape:current-layer="Layer_2" />
  <defs
     id="defs2042">
    <style
       id="style2030">
      @font-face {
        font-family: "neue-haas-normal";
        src: url("/fonts/NeueHaasDisplay/NeueHaasDisplayRoman.ttf") format("truetype");
      }

      tspan {
        font-family:neue-haas-normal;
      }

      .cls-1 {
      fill: url(#linear-gradient);
      }

      .cls-1, .cls-2, .cls-3 {
      stroke-width: 0px;
      }

      .cls-4 {
      stroke: #e6e7e8;
      stroke-dasharray: 0 0 1 12;
      stroke-linecap: round;
      stroke-width: 8px;
      }

      .cls-4, .cls-5, .cls-6 {
      fill: none;
      stroke-miterlimit: 10;
      }

      .cls-7 {
      fill: #fff;
      font-size: 19px;
      font-weight: 500;
      cursor: pointer;
      }

      .cls-2 {
      fill: #ee2a7b;
      }

      .cls-3 {
      fill: url(#linear-gradient-2);
      }

      .cls-8 {
      letter-spacing: 0em;
      }

      .cls-9 {
      letter-spacing: -.02em;
      }

      .cls-5, .cls-6 {
      stroke: #808285;
      }

      .cls-6 {
      stroke-width: 2px;
      }
    </style>
    <linearGradient
       id="linear-gradient"
       x1="332.11"
       y1="542.33"
       x2="187.81"
       y2="543.54"
       gradientUnits="userSpaceOnUse">
      <stop
         offset="0"
         stop-color="#fff"
         id="stop2032" />
      <stop
         offset=".17"
         stop-color="#939598"
         id="stop2034" />
    </linearGradient>
    <linearGradient
       id="linear-gradient-2"
       x1="220.18"
       y1="508.9"
       x2="327.28"
       y2="510.12"
       gradientUnits="userSpaceOnUse">
      <stop
         offset="0"
         stop-color="#fff"
         id="stop2037" />
      <stop
         offset=".85"
         stop-color="#939598"
         id="stop2039" />
    </linearGradient>
  </defs>
  <g
     id="Layer_3"
     data-name="Layer 3">
    <polygon
       class="cls-1"
       points="222.29 524.55 323.15 524.55 323.19 543.56 306.29 543.69 226.71 561.91 222.29 524.55"
       id="polygon2044" />
    <polygon
       class="cls-3"
       points="226.31 493.42 306.07 494.3 306.07 524.26 226.31 524.55 226.31 493.42"
       id="polygon2046" />
    <polygon
       class="cls-6"
       points="872.47 444.16 870.62 543.35 306.29 543.69 207.35 566.34 88.78 697.25 26.34 620.22 182.68 445.76 872.47 444.16"
       id="polygon2048" />
    <polyline
       class="cls-6"
       points="226.71 561.91 222.29 524.55 325 524.55"
       id="polyline2050" />
    <polyline
       class="cls-6"
       points="222.29 493.42 312.75 494.01 312.75 445.45"
       id="polyline2052" />
    <line
       class="cls-5"
       x1="225.9"
       y1="494.01"
       x2="225.9"
       y2="523.97"
       id="line2054" />
    <line
       class="cls-5"
       x1="235.63"
       y1="494.01"
       x2="235.63"
       y2="523.97"
       id="line2056" />
    <line
       class="cls-5"
       x1="246.03"
       y1="494.01"
       x2="246.03"
       y2="523.97"
       id="line2058" />
    <line
       class="cls-5"
       x1="256.23"
       y1="494.3"
       x2="256.23"
       y2="524.26"
       id="line2060" />
    <line
       class="cls-5"
       x1="266.26"
       y1="494.3"
       x2="266.26"
       y2="524.26"
       id="line2062" />
    <line
       class="cls-5"
       x1="276.01"
       y1="494.01"
       x2="276.01"
       y2="523.97"
       id="line2064" />
    <line
       class="cls-5"
       x1="285.77"
       y1="494.01"
       x2="285.77"
       y2="523.97"
       id="line2066" />
    <line
       class="cls-5"
       x1="295.8"
       y1="494.3"
       x2="295.8"
       y2="524.26"
       id="line2068" />
    <line
       class="cls-5"
       x1="306.07"
       y1="494.3"
       x2="306.07"
       y2="524.26"
       id="line2070" />
    <line
       class="cls-5"
       x1="323.19"
       y1="524.99"
       x2="323.19"
       y2="543.56"
       id="line2072" />
    <line
       class="cls-5"
       x1="313.4"
       y1="524.26"
       x2="313.52"
       y2="543.68"
       id="line2074" />
    <line
       class="cls-5"
       x1="304.15"
       y1="524.99"
       x2="304.15"
       y2="543.91"
       id="line2076" />
    <line
       class="cls-5"
       x1="60.13"
       y1="582.86"
       x2="74.84"
       y2="596.15"
       id="line2078" />
    <line
       class="cls-5"
       x1="83.19"
       y1="558.14"
       x2="97.9"
       y2="571.43"
       id="line2080" />
    <line
       class="cls-5"
       x1="88.81"
       y1="550.71"
       x2="103.53"
       y2="564"
       id="line2082" />
    <line
       class="cls-5"
       x1="111.87"
       y1="525.99"
       x2="126.58"
       y2="539.28"
       id="line2084" />
    <line
       class="cls-5"
       x1="117.01"
       y1="519.11"
       x2="131.72"
       y2="532.4"
       id="line2086" />
    <line
       class="cls-5"
       x1="140.06"
       y1="494.38"
       x2="154.78"
       y2="507.67"
       id="line2088" />
    <path
       class="cls-5"
       d="m72.01,569.25c1.22,1.18,4.82,6.52,5.65,13.68.87,7.44-2.02,11.32-2.94,12.68"
       id="path2090" />
    <path
       class="cls-5"
       d="m97.22,571.45c-.57.61-5,5.19-13.04,4.3-7.52-.83-11.64-5.7-12.17-6.5"
       id="path2092" />
    <path
       class="cls-5"
       d="m100.68,537.1c1.22,1.18,4.82,6.52,5.65,13.68.87,7.44-2.02,11.32-2.94,12.68"
       id="path2094" />
    <path
       class="cls-5"
       d="m125.89,539.3c-.57.61-5,5.19-13.04,4.3-7.52-.83-11.64-5.7-12.17-6.5"
       id="path2096" />
    <path
       class="cls-5"
       d="m128.88,505.46c1.22,1.18,4.82,6.52,5.65,13.68.87,7.44-2.02,11.32-2.94,12.68"
       id="path2098" />
    <path
       class="cls-5"
       d="m154.09,507.66c-.57.61-5,5.19-13.04,4.3-7.52-.83-11.64-5.7-12.17-6.5"
       id="path2100" />
    <polyline
       class="cls-4"
       points="214.23 511.97 193.63 517.63 161.87 554.26 138.97 561.01 120.75 557.36"
       id="polyline2102" />
    <line
       class="cls-4"
       x1="734.13"
       y1="505.67"
       x2="317.11"
       y2="510.45"
       id="line2104" />
  </g>
  <g
     id="Layer_2"
     data-name="Layer 2">
    <g
       id="g102"
       transform="translate(-85.680682,-2.6117813)">
      <circle
         id="p102"
         class="cls-2"
         cx="677.75"
         cy="472.06"
         r="18.629999" />
      <text
         class="cls-7"
         transform="translate(662.87,478.5)"
         id="text2110"><tspan
           x="0"
           y="0"
           id="tspan2108">102</tspan></text>
    </g>
    <g
       id="g103"
       transform="translate(-85.680682,-2.6117813)">
      <circle
         id="p103"
         class="cls-2"
         cx="729.41998"
         cy="473.32001"
         r="18.629999" />
      <text
         class="cls-7"
         transform="translate(714.31,479.76)"
         id="text2116"><tspan
           x="0"
           y="0"
           id="tspan2114">103</tspan></text>
    </g>
    <g
       id="g104"
       transform="translate(-85.680682,-2.6117813)">
      <circle
         id="p104"
         class="cls-2"
         cx="781.71997"
         cy="472.06"
         r="18.629999" />
      <text
         class="cls-7"
         transform="translate(766.34,478.5)"
         id="text2122"><tspan
           x="0"
           y="0"
           id="tspan2120">104</tspan></text>
    </g>
    <g
       id="g105"
       transform="translate(-85.680682,-2.6117813)">
      <circle
         id="p105"
         class="cls-2"
         cx="840.88"
         cy="472.06"
         r="18.629999" />
      <text
         class="cls-7"
         transform="translate(825.71,478.5)"
         id="text2128"><tspan
           x="0"
           y="0"
           id="tspan2126">105</tspan></text>
    </g>
    <g
       id="g107"
       transform="translate(64.758842,-19.296374)">
      <circle
         id="p107"
         class="cls-2"
         cx="781.71997"
         cy="520.52002"
         r="18.629999" />
      <text
         class="cls-7"
         transform="translate(767.2,526.96)"
         id="text2134"><tspan
           x="0"
           y="0"
           id="tspan2132">107</tspan></text>
    </g>
    <g
       id="g106"
       transform="translate(-32.463339,-50.074469)">
      <circle
         id="p106"
         class="cls-2"
         cx="840.88"
         cy="520.52002"
         r="18.629999" />
      <text
         class="cls-7"
         transform="translate(825.51,526.96)"
         id="text2140"><tspan
           x="0"
           y="0"
           id="tspan2138">106</tspan></text>
    </g>
  </g>
</svg>
