<?xml version="1.0" encoding="UTF-8"?><svg id="a" xmlns="http://www.w3.org/2000/svg" viewBox="0 0 714.24 111.35"><path d="M714.24,81.64V14.73h-14.85V52.18h-51.88V14.73h-14.85V52.18c0,8.2,6.65,14.85,14.85,14.85h37.36c7.13,0,13.08-5.02,14.52-11.72v26.49h-66.73v14.85h66.57c8.29,0,15.01-6.72,15.01-15.01Z"/><path d="M241.34,0V26.49c-1.44-6.7-7.39-11.72-14.52-11.72h-37.31c-8.2,0-14.85,6.65-14.85,14.85l.02,52.18c0,8.2,6.65,14.85,14.85,14.85h37.31c7.13,0,13.08-5.02,14.52-11.72v11.73h14.85l-.02-96.65h-14.85Zm-51.81,81.8l-.02-52.18h51.83v.06l.02,52.12h-51.83Z"/><path d="M377.9,111.35v-26.49c1.44,6.7,7.39,11.72,14.52,11.72h37.31c8.2,0,14.85-6.65,14.85-14.85l-.02-52.18c0-8.2-6.65-14.85-14.85-14.85h-37.31c-7.13,0-13.08,5.02-14.52,11.72V14.7h-14.85l.02,96.65h14.85Zm51.81-81.8l.02,52.18h-51.83v-.06l-.02-52.12h51.83Z"/><path d="M14.85,84.87V29.51h58.77V14.73H29.37c-7.13,0-13.08,4.95-14.52,11.65V14.73H0V96.65H14.85v-11.78"/><path d="M604.93,14.73h-51.86c-8.21,0-14.86,6.65-14.86,14.86v52.2c0,8.21,6.65,14.86,14.86,14.86h51.86c8.21,0,14.86-6.65,14.86-14.86V29.59c0-8.21-6.65-14.86-14.86-14.86Zm0,67.06h-51.86V29.59h51.86v52.2Z"/><path d="M336.18,14.73h-51.52c-8.29,0-15.01,6.72-15.01,15.01v51.91c0,8.29,6.72,15.01,15.01,15.01h66.52v-14.86h-66.64v-18.52h51.64c8.23,0,14.9-6.62,15-14.83h0V29.74c0-8.29-6.72-15.01-15.01-15.01Zm.13,15.31v18.36h-51.77V29.6h33.43v.02h18.36v.43h-.02Z"/><path d="M147.4,14.73h-51.52c-8.29,0-15.01,6.72-15.01,15.01v51.91c0,8.29,6.72,15.01,15.01,15.01h66.52v-14.86H95.76v-18.52h51.64c8.23,0,14.9-6.62,15-14.83h0V29.74c0-8.29-6.72-15.01-15.01-15.01Zm.13,15.31v18.36h-51.77V29.6h33.43v.02h18.36v.43h-.02Z"/><path d="M456.48,14.73V81.65c0,8.29,6.72,15.01,15.01,15.01h59.84v-14.86h-59.95V14.73h-14.89Z"/></svg>