<?xml version="1.0" encoding="utf-8"?>
<!-- Generator: Adobe Illustrator 20.1.0, SVG Export Plug-In . SVG Version: 6.00 Build 0)  -->
<svg version="1.1" id="Lager_1" xmlns="http://www.w3.org/2000/svg" xmlns:xlink="http://www.w3.org/1999/xlink" x="0px" y="0px"
	 viewBox="0 0 555.3 380" style="enable-background:new 0 0 555.3 380;" xml:space="preserve">
<style type="text/css">
	.st0{fill:#0053A1;}
	.st1{fill:none;}
	.st2{fill:#B20933;}
	.st3{fill:#AA0A2F;stroke:#000000;stroke-width:1.2336;}
	.st4{fill:#FFD64D;}
	.st5{fill:none;stroke:#000000;stroke-width:1.19;stroke-linejoin:round;}
	.st6{fill:#FFD64D;stroke:#000000;stroke-width:1.19;}
	.st7{fill:none;stroke:#000000;stroke-width:1.19;}
	.st8{fill:none;stroke:#000000;stroke-width:1.2336;stroke-linejoin:round;}
	.st9{fill:none;stroke:#000000;stroke-width:1.3144;stroke-linejoin:round;}
	.st10{fill:#FFD64D;stroke:#000000;stroke-width:1.19;stroke-linejoin:round;}
	.st11{fill:none;stroke:#000000;stroke-width:1.0688;}
	.st12{fill:none;stroke:#000000;stroke-width:1.0936;}
</style>
<path class="st0" d="M238.8,170.5c0,0,0,99.4,0,107.5c0,6.9,4.2,17.4,18.3,20.4c14.1,3,32.4,5.8,35.9,6.6c3.7,0.8,4.6,2,4.6,2.9h0
	c0-0.9,0.9-2.2,4.6-2.9c3.6-0.8,21.9-3.6,35.9-6.6c14.1-3,18.3-13.4,18.3-20.4c0-8.1,0-107.5,0-107.5H238.8z"/>
<path class="st1" d="M275.7,119.1c4.4-0.5,9.4-0.9,14.8-1c0.4-5.3,1-9.7,1.4-11.7C283.5,109.7,278.4,113.7,275.7,119.1z"/>
<path class="st1" d="M303.3,106.3c0.4,2.1,1,6.4,1.4,11.7c5.4,0.1,10.3,0.4,14.7,0.9C316.7,113.7,311.6,109.6,303.3,106.3z"/>
<path class="st1" d="M276.7,106.3c-9.2,1.5-19.2,4.8-24.9,9.8c-4.3,3.7-6,9-6,13.5l0,0.6c3.6-3.6,8.7-6.4,15.7-8.4
	C264.2,115.6,269.5,109.6,276.7,106.3z"/>
<path class="st1" d="M343.3,116.1c-5.8-5-15.7-8.3-24.9-9.8c7.1,3.2,12.4,9.2,15.1,15.2c7.1,2,12.3,4.8,15.9,8.4v-0.3
	C349.4,125,347.6,119.8,343.3,116.1z"/>
<path class="st2" d="M354.7,161c-0.2,0.8-0.3,1.6-0.4,2.3C354.4,162.6,354.6,161.8,354.7,161z"/>
<path class="st3" d="M350.5,154.2c-3.7-0.3-5.8-3.1-5.5-6.2c0.3-3,4.8-4.2,8-4.2c-0.4-0.8-2-2.9-1.9-4.4c0.1-1.7,0.8-3,2.1-3.9
	c-0.9-1.7-1.9-3.3-3.2-4.8l-0.7-0.1l0-0.6c-3.6-3.7-8.7-6.5-15.9-8.4c1.2,2.8,1.9,5.7,1.9,8.4l0,0.8l-7.2,2.2l-6.5-2.2v-0.8
	c0-4.2-0.8-7.8-2.4-10.9c-4.4-0.5-9.3-0.8-14.7-0.9c0.2,3.5,0.4,7.5,0.3,11.6l0,0.9l-7.3,2.4l-7.4-2.4l0-0.9c-0.1-4.1,0-8,0.3-11.6
	c-5.4,0.2-10.3,0.5-14.8,1c-1.6,3.1-2.3,6.7-2.3,10.8v0.6l-6.5,2.4l-7.2-2.4v-0.6c0-2.6,0.6-5.4,1.8-8.1c-7,2-12.1,4.8-15.7,8.4
	l0,0.3l-0.4,0.1c-1.4,1.5-2.6,3.1-3.5,4.9c1.3,0.9,2,2.2,2.1,3.9c0.1,1.5-1.6,3.5-2,4.4c3.3,0,7.7,1.2,8,4.2c0.3,3.2-1.8,6-5.5,6.2
	c-1.8,0.1-4-0.8-5.5-1.8c0.1,0.7,0.1,1.4,0.2,2.1c0.7,1.7,1.7,4.4,4.8,4.4c5.3,0,7.7-3.6,7.7-3.6s3.5,3.6,7.5,3.6
	c4,0,7.8-6.5,7.8-6.5s3.6,6.5,7.5,6.5s7.5-3.6,7.5-3.6s2.4,3.6,7.6,3.6c4,0,7.6-6.3,7.6-6.3s3.7,6.3,7.7,6.3c4,0,7.5-3.6,7.5-3.6
	s2.4,3.6,7.6,3.6c4,0,7.7-6.4,7.7-6.4s3.2,6.5,7.1,6.5s8-3.6,8-3.6s2.4,3.6,7.7,3.6c2.7,0,3.9-1.9,4.8-3.6c0.1-1,0.2-1.9,0.3-2.8
	C354.1,153.5,351.7,154.3,350.5,154.2z M272.5,154.4c-2.2,0-4.2-1.8-5.4-3.3c-1.2,1.4-3.2,3.3-5.4,3.3c-3.7,0-6.7-2.6-6.7-5.8
	c0-3,4.1-4.4,7.3-4.7c-0.5-0.8-2-2.8-2-3.8c0-3.2,3-5.8,6.7-5.8c3.7,0,6.7,2.6,6.7,5.8c0,1-1.5,3-1.9,3.8c3.2,0.2,7.3,1.6,7.3,4.7
	C279.2,151.9,276.2,154.4,272.5,154.4z M302.9,154.3c-2.2,0-4.2-1.8-5.4-3.3c-1.2,1.4-3.2,3.3-5.4,3.3c-3.7,0-6.7-2.6-6.7-5.8
	c0-3,4.1-4.5,7.3-4.7c-0.5-0.8-2-2.8-2-3.8c0-3.2,3-5.8,6.7-5.8c3.7,0,6.7,2.6,6.7,5.8c0,1-1.5,3-1.9,3.8c3.2,0.2,7.3,1.6,7.3,4.7
	C309.6,151.7,306.6,154.3,302.9,154.3z M333.3,154.4c-2.2,0-4.2-1.8-5.4-3.3c-1.2,1.4-3.2,3.3-5.4,3.3c-3.7,0-6.7-2.6-6.7-5.8
	c0-3,4.1-4.4,7.3-4.7c-0.5-0.8-2-2.8-2-3.8c0-3.2,3-5.8,6.7-5.8c3.7,0,6.7,2.6,6.7,5.8c0,1-1.5,3-2,3.8c3.2,0.2,7.3,1.6,7.3,4.7
	C339.9,151.9,337,154.4,333.3,154.4z"/>
<path class="st4" d="M355.5,155.3c-0.9,1.7-2.1,3.6-4.8,3.6c-5.3-0.1-7.7-3.6-7.7-3.6s-4.1,3.6-8,3.6s-7.1-6.5-7.1-6.5
	s-3.7,6.4-7.7,6.4c-5.3,0-7.6-3.6-7.6-3.6s-3.5,3.6-7.5,3.6c-3.9,0-7.7-6.3-7.7-6.3s-3.7,6.3-7.6,6.3c-5.3,0-7.6-3.6-7.6-3.6
	s-3.5,3.6-7.5,3.6s-7.5-6.5-7.5-6.5s-3.9,6.5-7.8,6.5c-4,0-7.5-3.6-7.5-3.6s-2.4,3.6-7.7,3.6c-3.1,0-4.1-2.7-4.8-4.4
	c-0.3-0.7-0.5-1.2-0.8-1.4c0.3,1.1,1.4,6.6,1.6,7.4c1.4,6.3,1.1,9.4,1.1,9.4h112.5c0,0-0.1-2.1,0.6-6.4c0.1-0.7,0.3-1.5,0.4-2.3
	c0-0.2,0.1-0.4,0.1-0.6c0.2-0.8,1.8-6.4,2.1-7.5C356.5,153.2,356.1,154.2,355.5,155.3z"/>
<path class="st4" d="M345.7,107.4c-9.6-5-24-7.1-43.9-7.3c2.6-1.5,4.4-4.3,4.4-7.5c0-4-2.8-7.4-6.5-8.3v-8.2h8.5v-3.5h-8.5v-7.7h-4
	v7.7h-8.7v3.5h8.7v8.2c-3.8,0.9-6.6,4.3-6.6,8.3c0,3.2,1.8,6.1,4.5,7.5c-20,0.3-34.5,2.2-44.1,7.2c-9.4,4.9-14.2,12.9-14.2,22.2
	l0,3.3l10.2-2.3l0.4-0.1l0-0.3l0-0.6c-0.1-4.6,1.7-9.8,6-13.5c5.8-5,15.7-8.3,24.9-9.8c-7.2,3.3-12.6,9.3-15.2,15.5
	c-1.2,2.8-1.8,5.6-1.8,8.1v0.6l7.2,2.4l6.5-2.4v-0.6c0-4.1,0.7-7.7,2.3-10.8c2.7-5.3,7.8-9.4,16.1-12.8c-0.4,2.1-1,6.4-1.4,11.7
	c-0.2,3.5-0.4,7.5-0.3,11.6l0,0.9l7.4,2.4l7.3-2.4l0-0.9c0.1-4.1,0-8.1-0.3-11.6c-0.4-5.3-1-9.7-1.4-11.7
	c8.3,3.3,13.4,7.3,16.1,12.6c1.6,3.2,2.3,6.8,2.4,10.9v0.8l6.5,2.2l7.2-2.2l0-0.8c0-2.6-0.6-5.5-1.9-8.4c-2.6-6.1-8-12-15.1-15.2
	c9.2,1.5,19.2,4.8,24.9,9.8c4.3,3.7,6,9,6,13.5v0.3l0,0.6l0.7,0.1l9.9,2.2v-3.3C359.9,120.3,355.1,112.3,345.7,107.4z"/>
<path class="st4" d="M332.6,144c0.5-0.8,2-2.8,2-3.8c0-3.2-3-5.8-6.7-5.8c-3.7,0-6.7,2.6-6.7,5.8c0,1,1.5,3,2,3.8
	c-3.2,0.2-7.3,1.6-7.3,4.7c0,3.2,3,5.8,6.7,5.8c2.2,0,4.2-1.8,5.4-3.3c1.2,1.4,3.2,3.3,5.4,3.3c3.7,0,6.7-2.6,6.7-5.8
	C339.9,145.6,335.8,144.2,332.6,144z"/>
<path class="st4" d="M271.8,144c0.5-0.8,1.9-2.8,1.9-3.8c0-3.2-3-5.8-6.7-5.8c-3.7,0-6.7,2.6-6.7,5.8c0,1,1.5,3,2,3.8
	c-3.2,0.2-7.3,1.6-7.3,4.7c0,3.2,3,5.8,6.7,5.8c2.2,0,4.2-1.8,5.4-3.3c1.2,1.4,3.2,3.3,5.4,3.3c3.7,0,6.7-2.6,6.7-5.8
	C279.2,145.6,275.1,144.2,271.8,144z"/>
<path class="st4" d="M302.2,143.9c0.5-0.8,1.9-2.8,1.9-3.8c0-3.2-3-5.8-6.7-5.8c-3.7,0-6.7,2.6-6.7,5.8c0,1,1.5,3,2,3.8
	c-3.2,0.2-7.3,1.6-7.3,4.7c0,3.2,3,5.8,6.7,5.8c2.2,0,4.2-1.8,5.4-3.3c1.2,1.4,3.2,3.3,5.4,3.3c3.7,0,6.7-2.6,6.7-5.8
	C309.6,145.5,305.5,144.1,302.2,143.9z"/>
<path class="st4" d="M250.1,147.9c-0.3-3-4.7-4.2-8-4.2c0.4-0.8,2-2.9,2-4.4c-0.1-1.7-0.9-3-2.1-3.9c-1.2-0.8-2.8-1.3-4.8-1.2
	c-2,0-3,0.1-4.3,0.1l5.3,17.2c0.3,0.3,0.6,0.5,1,0.8c1.5,1,3.7,1.9,5.5,1.8C248.3,153.9,250.4,151.1,250.1,147.9z"/>
<path class="st4" d="M358,134.2c-2,0-3.6,0.4-4.8,1.2c-1.3,0.9-2,2.2-2.1,3.9c-0.1,1.5,1.6,3.5,1.9,4.4c-3.2,0-7.7,1.2-8,4.2
	c-0.3,3.2,1.8,6,5.5,6.2c1.2,0.1,3.6-0.7,5.2-1.7c0.5-0.3,0.9-0.6,1.2-0.9l5.3-17.2C361,134.3,360,134.3,358,134.2z"/>
<g>
	<g>
		<path class="st4" d="M268.9,210.6c1.5,2.1,3.2,2.8,4.6,2.8c2.5,0,4.6-2.1,4.6-4.7c0-2.6-2.1-4.7-4.6-4.7c-0.3,0-1.6,0.4-2,0.5
			c0.7-0.9,2.2-2.3,2.2-3.6c0-2.8-2.2-5-4.9-5c-2.7,0-4.9,2.2-4.9,5c0,1.2,1.5,2.7,2.2,3.6c-0.3-0.1-1.5-0.5-1.9-0.5
			c-2.5,0-4.6,2.1-4.6,4.7c0,2.6,2,4.7,4.6,4.7C266.1,213.4,268.1,211.9,268.9,210.6z M251.7,213.6c1.4,0,4.9-0.4,4.8-4.7
			c-0.1-4.7-6-4.2-6-4.2s2.3-2.5,1.6-5.1c-1.1-4.6-6.8-3.6-6.8-3.6c0.3,1,2.1,9.2,3.5,16.2C248.8,212.1,249.9,213.6,251.7,213.6z
			 M269,212.3c0,0,3.6,5,6.4,5c2.8,0,4.4-2.6,4.4-2.6s1.3,2.5,5.1,2.6c3.2,0.1,3.5-3.5,4.3-4.1c-0.2,1-1.3,4.9-1.4,5.6
			c-1,5.9-0.8,11-0.8,11h-35.9c0,0,0.2-5.1-0.8-11c-0.1-0.7-1.2-4.6-1.3-5.6c0.8,0.7,1.2,4.2,4.3,4.1c3.7,0,5.1-2.6,5.1-2.6
			s1.7,2.6,4.5,2.6C265.6,217.2,269,212.3,269,212.3z M289.2,212.1c1.4-7,3.2-15.2,3.5-16.2c0,0-5.7-0.9-6.8,3.6
			c-0.6,2.5,1.6,5.1,1.6,5.1s-5.9-0.5-6,4.2c-0.1,4.3,3.4,4.7,4.8,4.7C288.1,213.6,289.2,212.1,289.2,212.1z"/>
	</g>
	<g>
		<path class="st4" d="M325.8,210.6c1.5,2.1,3.1,2.8,4.6,2.8c2.5,0,4.6-2.1,4.6-4.7c0-2.6-2-4.7-4.6-4.7c-0.3,0-1.6,0.4-2,0.5
			c0.7-0.9,2.2-2.3,2.2-3.6c0-2.8-2.2-5-4.9-5c-2.7,0-4.9,2.2-4.9,5c0,1.2,1.5,2.7,2.2,3.6c-0.3-0.1-1.5-0.5-1.9-0.5
			c-2.5,0-4.6,2.1-4.6,4.7c0,2.6,2.1,4.7,4.6,4.7C322.9,213.4,325,211.9,325.8,210.6z M308.5,213.6c1.4,0,4.9-0.4,4.8-4.7
			c-0.1-4.7-6-4.2-6-4.2s2.3-2.5,1.6-5.1c-1.1-4.6-6.8-3.6-6.8-3.6c0.3,1,2.1,9.2,3.5,16.2C305.7,212.1,306.8,213.6,308.5,213.6z
			 M325.9,212.3c0,0,3.6,5,6.4,5c2.8,0,4.4-2.6,4.4-2.6s1.3,2.5,5.1,2.6c3.2,0.1,3.5-3.5,4.3-4.1c-0.2,1-1.3,4.9-1.4,5.6
			c-1,5.9-0.8,11-0.8,11H308c0,0,0.1-5.1-0.8-11c-0.1-0.7-1.2-4.6-1.3-5.6c0.8,0.7,1.2,4.2,4.2,4.1c3.7,0,5.1-2.6,5.1-2.6
			s1.7,2.6,4.5,2.6C322.4,217.2,325.9,212.3,325.9,212.3z M346.1,212.1c1.4-7,3.2-15.2,3.5-16.2c0,0-5.7-0.9-6.8,3.6
			c-0.6,2.5,1.6,5.1,1.6,5.1s-5.9-0.5-6,4.2c-0.1,4.3,3.4,4.7,4.8,4.7C345,213.6,346.1,212.1,346.1,212.1z"/>
	</g>
</g>
<g>
	<path class="st4" d="M297.4,260.2c1.6,2.4,3.5,3.1,5.1,3.1c2.8,0,5.1-2.3,5.1-5.2c0-2.9-2.3-5.2-5.1-5.2c-0.4,0-1.8,0.5-2.2,0.6
		c0.8-1,2.5-2.6,2.5-3.9c0-3-2.4-5.5-5.4-5.5c-3,0-5.4,2.5-5.4,5.5c0,1.3,1.7,3,2.4,3.9c-0.4-0.1-1.7-0.6-2.1-0.6
		c-2.8,0-5.1,2.3-5.1,5.2c0,2.9,2.3,5.2,5.1,5.2C294.2,263.3,296.5,261.6,297.4,260.2z M278.3,263.4c1.6,0,5.4-0.5,5.4-5.2
		c-0.1-5.2-6.6-4.7-6.6-4.7s2.5-2.8,1.8-5.6c-1.2-5-7.5-4-7.5-4c0.3,1.1,2.3,10.1,3.8,17.9C275.2,261.8,276.4,263.4,278.3,263.4z
		 M297.4,262c0,0,3.9,5.5,7.1,5.5c3.1,0,4.9-2.9,4.9-2.9s1.5,2.8,5.6,2.9c3.5,0.1,3.9-3.9,4.8-4.6c-0.2,1.1-1.4,5.4-1.6,6.2
		c-1.1,6.5-0.9,12.2-0.9,12.2h-39.6c0,0,0.2-5.6-0.9-12.2c-0.1-0.8-1.3-5.1-1.5-6.2c0.9,0.7,1.3,4.6,4.7,4.6c4.1,0,5.6-2.9,5.6-2.9
		s1.9,2.9,5,2.9C293.7,267.5,297.4,262,297.4,262z M319.8,261.8c1.5-7.7,3.5-16.8,3.8-17.9c0,0-6.3-1-7.5,4
		c-0.7,2.8,1.8,5.6,1.8,5.6s-6.5-0.5-6.6,4.7c-0.1,4.8,3.8,5.2,5.4,5.2C318.6,263.4,319.8,261.8,319.8,261.8z"/>
</g>
<path class="st5" d="M363.9,304.6"/>
<g>
	<path class="st4" d="M243.2,290.5l-11,9.7l-0.3-0.4c-0.9-1-2.3-1.1-3.3-0.3l-1.1,1c-0.9,0.8-1,2.3-0.1,3.3l0.3,0.3l-5.9,5.2
		l-0.3-0.3c-0.9-1-2.3-1.1-3.3-0.3l-1.1,1c-0.9,0.8-1,2.3-0.1,3.3l0.2,0.2l-8,7.1l8.2,9.1l7.9-7.2l0.2,0.3c0.9,1,2.3,1.1,3.3,0.3
		l1.1-1c0.9-0.8,1-2.3,0.1-3.3l-0.3-0.3l5.8-5.3l0.3,0.3c0.9,1,2.3,1.1,3.3,0.3l1.1-1c0.9-0.8,1-2.3,0.1-3.3l-0.3-0.4l12.6-11.5
		C248.7,295.8,245.6,293.5,243.2,290.5z"/>
	<path class="st6" d="M246.7,293.4c-1.2-1-2.4-2.1-3.4-3.4l-11,9.7l-0.3-0.4c-0.9-1-2.3-1.1-3.2-0.3l-1.1,1c-0.9,0.8-1,2.3-0.1,3.3
		l0.3,0.3l-5.9,5.2l-0.3-0.3c-0.9-1-2.3-1.1-3.3-0.3l-1.1,1c-0.9,0.8-1,2.3-0.1,3.3l0.2,0.2l-8,7.1l8.2,9.1l7.9-7.2l0.2,0.3
		c0.9,1,2.3,1.1,3.3,0.3l1.1-1c0.9-0.8,1-2.3,0.1-3.3l-0.3-0.3l5.8-5.3l0.3,0.3c0.9,1,2.3,1.1,3.3,0.3l1.1-1c0.9-0.8,1-2.3,0.1-3.3
		l-0.3-0.4l12.3-11.3C250.2,296.2,248.3,294.9,246.7,293.4z"/>
</g>
<path class="st4" d="M351.6,290.6l11,9.7l0.3-0.4c0.9-1,2.3-1.1,3.3-0.3l1.1,1c0.9,0.8,1,2.3,0.1,3.3l-0.3,0.3l5.9,5.2l0.3-0.3
	c0.9-1,2.3-1.1,3.2-0.3l1.1,1c0.9,0.8,1,2.3,0.1,3.3l-0.2,0.2l8,7.1l-8.2,9.2l-7.9-7.2l-0.2,0.3c-0.9,1-2.3,1.1-3.3,0.3l-1.1-1
	c-0.9-0.8-1-2.3-0.1-3.3l0.3-0.3l-5.8-5.3l-0.3,0.3c-0.9,1-2.3,1.1-3.3,0.3l-1.1-1c-0.9-0.8-1-2.3-0.1-3.3l0.3-0.4l-12.6-11.4
	C346.1,296,349.2,293.6,351.6,290.6z"/>
<path class="st7" d="M348.1,293.5c1.2-1,2.4-2.2,3.3-3.4l11,9.7l0.3-0.4c0.9-1,2.3-1.1,3.3-0.3l1.1,1c0.9,0.8,1,2.3,0.1,3.3
	l-0.3,0.3l5.9,5.2l0.3-0.3c0.9-1,2.3-1.1,3.2-0.3l1.1,1c0.9,0.8,1,2.3,0.1,3.3l-0.2,0.2l8,7.1l-8.2,9.2l-7.9-7.2l-0.2,0.3
	c-0.9,1-2.3,1.1-3.3,0.3l-1.1-1c-0.9-0.8-1-2.3-0.1-3.3l0.3-0.3l-5.8-5.3l-0.3,0.3c-0.9,1-2.3,1.1-3.3,0.3l-1.2-1
	c-0.9-0.8-1-2.3-0.1-3.3l0.3-0.4l-12.3-11.2C344.6,296.3,346.5,295,348.1,293.5z"/>
<path class="st5" d="M238.9,170c0,0,0,99.4,0,107.5c0,4.3,1.6,9.9,6.1,14.3c1.6,1.5,3.5,2.8,5.8,3.9c1.9,0.9,4,1.6,6.4,2.1
	c14.1,3,32.4,5.8,35.9,6.6c3.7,0.8,4.6,2,4.6,2.9h0c0-0.9,0.9-2.2,4.6-2.9c3.6-0.8,21.9-3.6,35.9-6.6c5.3-1.1,9.2-3.3,12-6
	c2.6-2.5,4.2-5.3,5.2-8.1c0.7-2.2,1.1-4.4,1.1-6.3c0-8.1,0-107.5,0-107.5H238.9z"/>
<path class="st8" d="M354.7,160.7c-0.2,0.8-0.3,1.6-0.4,2.3C354.4,162.3,354.5,161.5,354.7,160.7z"/>
<path class="st8" d="M272.5,154.1c-2.2,0-4.2-1.8-5.4-3.3c-1.2,1.4-3.2,3.3-5.4,3.3c-3.7,0-6.7-2.6-6.7-5.8c0-3,4.1-4.4,7.3-4.7
	c-0.5-0.8-2-2.8-2-3.8c0-3.2,3-5.8,6.7-5.8c3.7,0,6.7,2.6,6.7,5.8c0,1-1.5,3-2,3.8c3.2,0.2,7.3,1.6,7.3,4.7
	C279.2,151.6,276.2,154.1,272.5,154.1z M302.9,154c-2.2,0-4.2-1.8-5.4-3.3c-1.2,1.4-3.2,3.3-5.4,3.3c-3.7,0-6.7-2.6-6.7-5.8
	c0-3,4.1-4.5,7.3-4.7c-0.5-0.8-2-2.8-2-3.8c0-3.2,3-5.8,6.7-5.8c3.7,0,6.7,2.6,6.7,5.8c0,1-1.5,3-1.9,3.8c3.2,0.2,7.3,1.6,7.3,4.7
	C309.5,151.4,306.6,154,302.9,154z M333.3,154.1c-2.2,0-4.2-1.8-5.4-3.3c-1.2,1.4-3.2,3.3-5.4,3.3c-3.7,0-6.7-2.6-6.7-5.8
	c0-3,4.1-4.4,7.3-4.7c-0.5-0.8-1.9-2.8-1.9-3.8c0-3.2,3-5.8,6.7-5.8c3.7,0,6.7,2.6,6.7,5.8c0,1-1.5,3-2,3.8c3.2,0.2,7.3,1.6,7.3,4.7
	C339.9,151.6,336.9,154.1,333.3,154.1z"/>
<path class="st8" d="M355.5,155c-0.9,1.7-2.1,3.6-4.8,3.6c-5.3-0.1-7.7-3.6-7.7-3.6s-4.1,3.6-8,3.6c-4,0-7.1-6.5-7.1-6.5
	s-3.7,6.4-7.7,6.4c-5.3,0-7.6-3.6-7.6-3.6s-3.5,3.6-7.5,3.6c-4,0-7.7-6.3-7.7-6.3s-3.7,6.2-7.6,6.2c-5.3,0-7.6-3.6-7.6-3.6
	s-3.5,3.6-7.5,3.6c-4,0-7.5-6.5-7.5-6.5s-3.9,6.5-7.8,6.5c-4,0-7.5-3.6-7.5-3.6s-2.4,3.6-7.7,3.6c-3.1,0-4.1-2.7-4.8-4.4
	c-0.3-0.7-0.5-1.2-0.8-1.4c0.3,1.1,1.4,6.6,1.6,7.4c1.4,6.3,1.1,9.4,1.1,9.4h112.5c0,0-0.1-2.1,0.6-6.4c0.1-0.7,0.3-1.5,0.4-2.3
	c0-0.2,0.1-0.4,0.1-0.6c0.2-0.8,1.8-6.4,2.1-7.5C356.4,152.9,356.1,153.9,355.5,155z"/>
<path class="st8" d="M345.7,107.1c-9.6-5-24-7.1-43.9-7.3c2.6-1.5,4.4-4.3,4.4-7.5c0-4-2.8-7.4-6.5-8.3v-8.2h8.5v-3.5h-8.5v-7.7h-4
	v7.7h-8.7v3.5h8.7V84c-3.8,0.9-6.6,4.3-6.6,8.3c0,3.2,1.8,6.1,4.5,7.5c-20,0.3-34.5,2.2-44.1,7.2c-9.4,4.9-14.2,12.9-14.2,22.2
	l0,3.2l10.2-2.3l0.4-0.1l0-0.3l0-0.6c-0.1-4.6,1.7-9.8,6-13.5c5.8-5,15.7-8.3,24.9-9.8c-7.2,3.3-12.6,9.3-15.2,15.5
	c-1.2,2.8-1.8,5.6-1.8,8.1l0,0.6l7.2,2.4l6.5-2.4v-0.6c0-4.1,0.7-7.7,2.3-10.8c2.7-5.3,7.8-9.4,16.1-12.8c-0.4,2.1-1,6.4-1.4,11.7
	c-0.2,3.5-0.4,7.5-0.3,11.6l0,0.9l7.4,2.4l7.2-2.4l0-0.9c0.1-4.1,0-8.1-0.3-11.6c-0.4-5.3-1-9.7-1.4-11.7
	c8.3,3.3,13.4,7.3,16.1,12.6c1.6,3.2,2.3,6.8,2.4,10.9v0.8l6.4,2.2l7.2-2.2l0-0.8c0-2.6-0.6-5.5-1.9-8.4c-2.6-6.1-8-12-15.1-15.2
	c9.2,1.5,19.2,4.8,24.9,9.8c4.3,3.7,6,9,6,13.5v0.3l0,0.6l0.7,0.1l9.9,2.2v-3.2C359.9,120,355.1,112,345.7,107.1z"/>
<path class="st8" d="M332.6,143.7c0.5-0.8,2-2.8,2-3.8c0-3.2-3-5.8-6.7-5.8c-3.7,0-6.7,2.6-6.7,5.8c0,1,1.5,3,1.9,3.8
	c-3.2,0.2-7.3,1.6-7.3,4.7c0,3.2,3,5.8,6.7,5.8c2.2,0,4.2-1.8,5.4-3.3c1.2,1.4,3.2,3.3,5.4,3.3c3.7,0,6.7-2.6,6.7-5.8
	C339.9,145.3,335.8,143.9,332.6,143.7z"/>
<path class="st8" d="M271.8,143.7c0.5-0.8,2-2.8,2-3.8c0-3.2-3-5.8-6.7-5.8c-3.7,0-6.7,2.6-6.7,5.8c0,1,1.5,3,2,3.8
	c-3.2,0.2-7.3,1.6-7.3,4.7c0,3.2,3,5.8,6.7,5.8c2.2,0,4.2-1.8,5.4-3.3c1.2,1.4,3.2,3.3,5.4,3.3c3.7,0,6.7-2.6,6.7-5.8
	C279.2,145.3,275,143.9,271.8,143.7z"/>
<path class="st8" d="M302.2,143.6c0.5-0.8,1.9-2.8,1.9-3.8c0-3.2-3-5.8-6.7-5.8c-3.7,0-6.7,2.6-6.7,5.8c0,1,1.5,3,2,3.8
	c-3.2,0.2-7.3,1.6-7.3,4.7c0,3.2,3,5.8,6.7,5.8c2.2,0,4.2-1.8,5.4-3.3c1.2,1.4,3.2,3.3,5.4,3.3c3.7,0,6.7-2.6,6.7-5.8
	C309.5,145.2,305.4,143.8,302.2,143.6z"/>
<path class="st8" d="M250.1,147.6c-0.3-3-4.7-4.2-8-4.2c0.4-0.8,2-2.9,2-4.4c-0.1-1.7-0.9-3-2.1-3.9c-1.2-0.8-2.8-1.3-4.8-1.2
	c-2,0-3,0.1-4.3,0.1l5.3,17.2c0.3,0.3,0.6,0.5,1,0.8c1.5,1,3.7,1.9,5.5,1.8C248.2,153.6,250.4,150.8,250.1,147.6z"/>
<path class="st8" d="M358,133.9c-2,0-3.6,0.4-4.8,1.2c-1.3,0.9-2,2.2-2.1,3.9c-0.1,1.5,1.6,3.5,1.9,4.4c-3.2,0-7.7,1.2-8,4.2
	c-0.3,3.2,1.8,6,5.5,6.2c1.2,0.1,3.6-0.7,5.2-1.7c0.5-0.3,0.9-0.6,1.2-0.9l5.3-17.2C361,134,360,134,358,133.9z"/>
<g>
	<g>
		<path class="st5" d="M268.9,210.3c1.5,2.1,3.2,2.8,4.6,2.8c2.5,0,4.6-2.1,4.6-4.7c0-2.6-2.1-4.7-4.6-4.7c-0.3,0-1.6,0.4-2,0.5
			c0.7-0.9,2.2-2.3,2.2-3.6c0-2.8-2.2-5-4.9-5c-2.7,0-4.9,2.2-4.9,5c0,1.2,1.5,2.7,2.2,3.6c-0.3-0.1-1.5-0.5-1.9-0.5
			c-2.5,0-4.6,2.1-4.6,4.7c0,2.6,2,4.7,4.6,4.7C266.1,213.1,268.1,211.6,268.9,210.3z M251.6,213.3c1.4,0,4.9-0.4,4.8-4.7
			c-0.1-4.7-6-4.2-6-4.2s2.3-2.5,1.6-5.1c-1.1-4.6-6.8-3.6-6.8-3.6c0.3,1,2.1,9.2,3.5,16.2C248.8,211.8,249.9,213.3,251.6,213.3z
			 M269,212c0,0,3.6,5,6.4,5c2.8,0,4.4-2.6,4.4-2.6s1.3,2.5,5.1,2.6c3.2,0.1,3.5-3.5,4.3-4.1c-0.2,1-1.3,4.9-1.4,5.6
			c-1,5.9-0.8,11-0.8,11h-35.9c0,0,0.2-5.1-0.8-11c-0.1-0.7-1.2-4.6-1.3-5.6c0.8,0.7,1.2,4.2,4.3,4.1c3.7,0,5.1-2.6,5.1-2.6
			s1.7,2.6,4.5,2.6C265.6,216.9,269,212,269,212z M289.2,211.8c1.4-7,3.2-15.2,3.5-16.2c0,0-5.7-0.9-6.8,3.6
			c-0.6,2.5,1.6,5.1,1.6,5.1s-5.9-0.5-6,4.2c-0.1,4.3,3.4,4.7,4.8,4.7C288.1,213.3,289.2,211.8,289.2,211.8z"/>
	</g>
	<g>
		<path class="st5" d="M325.8,210.3c1.5,2.1,3.1,2.8,4.6,2.8c2.5,0,4.6-2.1,4.6-4.7c0-2.6-2-4.7-4.6-4.7c-0.3,0-1.6,0.4-2,0.5
			c0.7-0.9,2.2-2.3,2.2-3.6c0-2.8-2.2-5-4.9-5c-2.7,0-4.9,2.2-4.9,5c0,1.2,1.5,2.7,2.2,3.6c-0.3-0.1-1.5-0.5-1.9-0.5
			c-2.5,0-4.6,2.1-4.6,4.7c0,2.6,2.1,4.7,4.6,4.7C322.9,213.1,325,211.6,325.8,210.3z M308.5,213.3c1.4,0,4.9-0.4,4.8-4.7
			c-0.1-4.7-6-4.2-6-4.2s2.3-2.5,1.6-5.1c-1.1-4.6-6.8-3.6-6.8-3.6c0.3,1,2.1,9.2,3.5,16.2C305.7,211.8,306.8,213.3,308.5,213.3z
			 M325.8,212c0,0,3.6,5,6.4,5c2.8,0,4.4-2.6,4.4-2.6s1.3,2.5,5.1,2.6c3.2,0.1,3.5-3.5,4.3-4.1c-0.2,1-1.3,4.9-1.4,5.6
			c-1,5.9-0.8,11-0.8,11h-35.9c0,0,0.1-5.1-0.8-11c-0.1-0.7-1.2-4.6-1.3-5.6c0.8,0.7,1.2,4.2,4.2,4.1c3.7,0,5.1-2.6,5.1-2.6
			s1.7,2.6,4.5,2.6C322.4,216.9,325.8,212,325.8,212z M346.1,211.8c1.4-7,3.2-15.2,3.5-16.2c0,0-5.7-0.9-6.8,3.6
			c-0.6,2.5,1.6,5.1,1.6,5.1s-5.9-0.5-6,4.2c-0.1,4.3,3.4,4.7,4.8,4.7C345,213.3,346.1,211.8,346.1,211.8z"/>
	</g>
</g>
<g>
	<path class="st9" d="M297.4,259.8c1.6,2.4,3.5,3.1,5.1,3.1c2.8,0,5.1-2.3,5.1-5.2c0-2.9-2.3-5.2-5.1-5.2c-0.4,0-1.8,0.5-2.2,0.6
		c0.8-1,2.5-2.6,2.5-3.9c0-3-2.4-5.5-5.4-5.5c-3,0-5.4,2.5-5.4,5.5c0,1.3,1.7,3,2.4,3.9c-0.4-0.1-1.7-0.6-2.1-0.6
		c-2.8,0-5.1,2.3-5.1,5.2c0,2.9,2.3,5.2,5.1,5.2C294.2,262.9,296.4,261.3,297.4,259.8z M278.3,263.1c1.6,0,5.4-0.5,5.4-5.2
		c-0.1-5.2-6.6-4.7-6.6-4.7s2.5-2.8,1.8-5.6c-1.2-5-7.5-4-7.5-4c0.3,1.1,2.3,10.1,3.8,17.9C275.1,261.5,276.3,263.1,278.3,263.1z
		 M297.4,261.7c0,0,3.9,5.5,7.1,5.5c3.1,0,4.9-2.9,4.9-2.9s1.5,2.8,5.6,2.9c3.5,0.1,3.9-3.9,4.8-4.6c-0.2,1.1-1.4,5.4-1.6,6.2
		c-1.1,6.5-0.9,12.2-0.9,12.2h-39.6c0,0,0.2-5.6-0.9-12.2c-0.1-0.8-1.3-5.1-1.5-6.2c0.9,0.7,1.3,4.6,4.7,4.6c4.1,0,5.6-2.9,5.6-2.9
		s1.9,2.9,5,2.9C293.6,267.2,297.4,261.7,297.4,261.7z M319.8,261.5c1.5-7.7,3.5-16.8,3.8-17.9c0,0-6.3-1-7.5,4
		c-0.7,2.8,1.8,5.6,1.8,5.6s-6.5-0.5-6.6,4.7c-0.1,4.8,3.8,5.2,5.3,5.2C318.5,263.1,319.8,261.5,319.8,261.5z"/>
</g>
<g>
	<path class="st4" d="M231.4,182.1l0.2-0.3c0.5-0.5,0.5-1.3-0.1-1.8c-0.5-0.5-1.3-0.5-1.8,0.1l-0.1,0.2c-2.2-2.5-3.8-5.1-4.7-7
		c0.6-0.8,0.6-2-0.2-2.7c-0.8-0.7-1.9-0.7-2.7-0.1c-2.2-3.1-7-12.7-10.1-15.4c-2.5-2.2-4.6-3.6-5.6-4.2l-2.9-2.7
		c-1.1-1-2.8-1-3.8,0.1c-1,1.1,2.5,6,3.6,7.1l-0.3-0.2l-14.2-13.3c-0.9-0.9-2.4-0.8-3.2,0.1c-0.8,0.8-0.8,2.1-0.2,2.9l6.1,6.1
		l-7.5-7.1c-1-0.9-2.5-0.9-3.5,0.1c-0.9,1-0.9,2.5,0.1,3.4l10.8,10.1c-0.8-0.3-1.8-0.1-2.4,0.6c-0.9,0.9-0.8,2.3,0.1,3.2l1.2,1.1
		c-0.8-0.3-1.7-0.1-2.3,0.6c-0.8,0.9-0.8,2.3,0.1,3.1l5.5,5.2l1.6,1.5c0.2,0.2,0.4,0.3,0.6,0.4c7.7,6.7,15.1,7.1,16.9,7.6
		c-0.2,0.7,0,1.5,0.6,2c0.8,0.7,1.9,0.7,2.7,0c2,0.7,4.8,2,7.5,4l-0.1,0.1c-0.5,0.5-0.5,1.3,0.1,1.8c0.5,0.5,1.3,0.5,1.8-0.1
		l0.2-0.3l12.8,11.4l-0.3-11.6L231.4,182.1z"/>
	<g>
		<path class="st10" d="M193.6,170.7c0,0,2.8,2.8,3.1,2.9c7.7,6.7,14.7,6.8,16.5,7.3c-0.2,0.7,0,1.5,0.6,2c0.8,0.7,1.9,0.7,2.7,0
			c2,0.7,4.8,2,7.5,4l-0.1,0.1c-0.5,0.5-0.5,1.3,0.1,1.8c0.5,0.5,1.3,0.5,1.8-0.1l0.2-0.3l12.9,11.6l-0.4-11.7l-6.6-6.1l0.2-0.3
			c0.5-0.5,0.5-1.3-0.1-1.8c-0.5-0.5-1.3-0.5-1.8,0.1l-0.1,0.2c-2.2-2.5-3.8-5.1-4.7-7c0.6-0.8,0.6-2-0.2-2.7
			c-0.8-0.7-1.9-0.7-2.7-0.1c-2.2-3.1-7-12.7-10.1-15.4c-2.5-2.2-4.6-3.6-5.6-4.2l-2.9-2.7c-1.1-1-2.8-1-3.8,0.1
			c-1,1,2.2,5.6,3.4,6.9c0.1,0.1,4.7,4,5.4,4.6c0.1,0.1,0.1,0.1,0.1,0.1l-5.6-4.7L189.2,142c-0.9-0.9-2.4-0.8-3.2,0.1
			c-0.8,0.8-0.9,2.1-0.2,3l16.8,15.4l-18.3-16.4c-1-0.9-2.3-1-3.3,0c-0.9,1-0.9,2.5,0.1,3.4l10.5,9.9l8.2,7c-0.1,0-8.1-7-8.2-7
			c-0.8-0.2-1.6,0.2-2.2,0.8c-0.9,0.9-0.8,2.3,0.1,3.2l0.8,0.7l4.2,3.6"/>
		<path class="st10" d="M213.3,169.6c-2.1-1.7-5.4-7.7-4.5-10.1"/>
		<path class="st10" d="M199.7,167.3c-0.8,0.9-2.2,1.1-3,0.3l-7.1-6.1c-0.9-0.8-1-2.1-0.2-3.1l0,0c0.8-0.9,2.2-1.1,3-0.3l7.1,6.1
			C200.4,165,200.5,166.4,199.7,167.3L199.7,167.3z"/>
		<path class="st10" d="M196.4,170.4c-0.8,0.9-2.1,1-3,0.2l-5.8-5c-0.9-0.8-1-2.1-0.2-3l0,0c0.8-0.9,2.1-1,3-0.2l5.8,5
			C197.1,168.1,197.2,169.5,196.4,170.4L196.4,170.4z"/>
	</g>
</g>
<g>
	<path class="st4" d="M414.6,149.6c0.9-0.8,1-2.3,0.2-3.2c-0.7-0.8-2-1-2.9-0.4l-6.6,5.5l7.8-6.8c1-0.9,1.1-2.4,0.2-3.4
		c-0.9-1-2.4-1.1-3.4-0.2l-11.1,9.7c0.4-0.8,0.3-1.8-0.3-2.5c-0.8-0.9-2.2-1-3.2-0.2L394,149c0.3-0.7,0.2-1.7-0.3-2.3
		c-0.8-0.9-2.2-1-3.1-0.2l-5.7,5l-1.6,1.4c-0.2,0.2-0.4,0.4-0.5,0.6c-7.5,7-8.6,14.3-9.3,16.1c-0.7-0.2-1.4-0.1-2,0.4
		c-0.8,0.7-0.9,1.9-0.3,2.7c-0.9,1.9-2.4,4.6-4.8,7.1l-0.1-0.1c-0.5-0.5-1.3-0.6-1.8-0.1c-0.5,0.5-0.6,1.3-0.1,1.8l0.2,0.3L357,188
		v11.7l13.3-11.8l0.2,0.3c0.5,0.5,1.3,0.6,1.8,0.1c0.5-0.5,0.6-1.3,0.1-1.8l-0.1-0.2c2.7-1.9,5.5-3.3,7.4-4c0.8,0.7,1.9,0.8,2.7,0.1
		c0.8-0.7,0.9-1.8,0.3-2.7c3.3-1.8,13.4-5.7,16.3-8.5c2.4-2.3,4-4.3,4.7-5.1l3-2.6c1.1-1,1.2-2.7,0.3-3.8c-1-1.1-6.3,1.9-7.4,2.9
		l0.2-0.3L414.6,149.6z"/>
	<g>
		<path class="st10" d="M385.5,151.5c0,0-3,2.6-3.2,2.8c-7.4,7-8.2,14-8.9,15.7c-0.7-0.2-1.4-0.1-2,0.4c-0.8,0.7-0.9,1.9-0.3,2.7
			c-0.9,1.9-2.4,4.6-4.7,7.1l-0.1-0.1c-0.5-0.5-1.3-0.6-1.8-0.1c-0.5,0.5-0.6,1.3-0.1,1.8l0.2,0.3l-7.5,6.6v11.7l13.2-11.8l0.2,0.3
			c0.5,0.5,1.3,0.6,1.8,0.1c0.5-0.5,0.6-1.3,0.1-1.8l-0.1-0.2c2.7-2,5.5-3.3,7.4-4c0.8,0.7,1.9,0.8,2.7,0.1c0.8-0.7,0.9-1.8,0.3-2.7
			c3.3-1.9,13.3-5.7,16.3-8.5c2.4-2.3,4-4.3,4.7-5.1l3-2.6c1.1-1,1.2-2.7,0.2-3.8c-0.9-1.1-5.8,1.6-7.2,2.8
			c-0.1,0.1-4.4,4.3-5.1,4.9c-0.1,0.1-0.1,0.1-0.1,0.1l5.2-5.1l14.6-12.9c0.9-0.8,1-2.3,0.2-3.2c-0.7-0.8-2-1.1-3-0.5l-16.9,15.2
			l18-16.6c1-0.9,1.2-2.2,0.3-3.3c-0.9-1-2.4-1.1-3.4-0.2l-10.8,9.5l-7.8,7.5c0-0.1,7.8-7.4,7.8-7.5c0.3-0.7,0-1.6-0.6-2.3
			c-0.8-0.9-2.2-1-3.2-0.2l-0.8,0.7l-3.9,3.8"/>
		<path class="st10" d="M384.7,171.3c1.8-1.9,8.2-4.7,10.5-3.5"/>
		<path class="st10" d="M388.2,157.9c-0.8-0.9-0.9-2.3,0-3.1l6.8-6.5c0.8-0.8,2.2-0.7,3.1,0.1l0,0c0.8,0.9,0.9,2.3,0,3.1l-6.8,6.5
			C390.5,158.8,389.1,158.8,388.2,157.9L388.2,157.9z"/>
		<path class="st10" d="M385.5,154.4c-0.8-0.8-0.8-2.2,0.1-3l5.5-5.3c0.8-0.8,2.2-0.8,3,0.1l0,0c0.8,0.8,0.8,2.2-0.1,3l-5.5,5.3
			C387.7,155.3,386.3,155.2,385.5,154.4L385.5,154.4z"/>
	</g>
</g>
<g>
	<path d="M68.5,340.9c0.7,1.8,1.5,3.6,2.3,5.4c0.8,1.8,1.5,3.6,2.3,5.4c0.8,1.8,1.5,3.5,2.2,5c0.7,1.5,1.3,2.9,1.8,4.1
		c0.5,1.2,1,2.1,1.3,2.8c-0.4,0-0.7-0.1-1-0.1c-0.3,0-0.7,0-1,0c-0.4,0-0.7,0-1,0c-0.3,0-0.7,0-1,0.1c-0.2-0.6-0.4-1.3-0.8-2.2
		c-0.3-0.9-0.7-1.7-1-2.7c-0.4-0.9-0.8-1.9-1.2-2.8c-0.4-1-0.8-1.9-1.1-2.7c-0.8,0-1.7,0-2.6,0c-0.9,0-1.7,0-2.6,0
		c-0.8,0-1.6,0-2.4,0c-0.8,0-1.6,0-2.4,0c-0.8,2-1.6,4-2.3,5.9c-0.7,1.9-1.2,3.4-1.5,4.6c-0.4,0-0.9-0.1-1.5-0.1c-0.5,0-1,0-1.5,0.1
		c2.1-4.6,4.2-9.2,6.2-13.7c2-4.6,4.1-9.2,6.1-13.9h0.8C67.1,337.4,67.7,339.1,68.5,340.9z M60.8,351.3c0.7,0,1.4,0,2.1,0
		c0.7,0,1.4,0,2.1,0c0.7,0,1.5,0,2.2,0c0.7,0,1.5,0,2.2,0l-4.4-10L60.8,351.3z M62.1,329.7c0.2-0.5,0.5-0.9,0.9-1.3
		c0.4-0.4,0.8-0.7,1.3-0.9c0.5-0.2,1-0.3,1.6-0.3c0.6,0,1.1,0.1,1.6,0.3c0.5,0.2,0.9,0.5,1.3,0.9c0.4,0.4,0.7,0.8,0.9,1.3
		c0.2,0.5,0.3,1,0.3,1.6s-0.1,1.1-0.3,1.6c-0.2,0.5-0.5,0.9-0.9,1.3c-0.4,0.4-0.8,0.7-1.3,0.9c-0.5,0.2-1,0.3-1.6,0.3
		c-0.6,0-1.1-0.1-1.6-0.3c-0.5-0.2-0.9-0.5-1.3-0.9c-0.4-0.4-0.7-0.8-0.9-1.3c-0.2-0.5-0.3-1-0.3-1.6S61.9,330.1,62.1,329.7z
		 M64.1,332.9c0.5,0.5,1,0.7,1.7,0.7c0.7,0,1.3-0.2,1.7-0.7c0.5-0.5,0.7-1,0.7-1.7c0-0.6-0.2-1.2-0.7-1.7c-0.5-0.5-1-0.7-1.7-0.7
		c-0.7,0-1.3,0.2-1.7,0.7c-0.5,0.5-0.7,1-0.7,1.7C63.4,331.9,63.7,332.4,64.1,332.9z"/>
	<path d="M84.7,358.6c0.1-1.7,0.1-3.4,0.1-5.1v-6.8c0-1.7,0-3.4-0.1-5.1c-0.1-1.7-0.1-3.4-0.2-5.1c0.3,0.1,0.7,0.1,1,0.1
		c0.3,0,0.6,0.1,0.9,0.1s0.6,0,0.9-0.1c0.3,0,0.6-0.1,1-0.1c-0.1,1.7-0.2,3.4-0.2,5.1c-0.1,1.7-0.1,3.4-0.1,5.1v2.2
		c0,0.2,0.1,0.3,0.2,0.3c0.1,0,0.3-0.1,0.6-0.4c0.9-0.8,1.9-1.7,2.9-2.7c1-1,2-2,3.1-3.1c1-1.1,2-2.2,3-3.3c1-1.1,2-2.2,2.9-3.3
		c0.3,0.1,0.6,0.1,0.8,0.1c0.3,0,0.5,0.1,0.8,0.1c0.3,0,0.6,0,0.9-0.1c0.3,0,0.6-0.1,0.9-0.1c-0.9,0.8-2,1.7-3.1,2.8
		c-1.2,1.1-2.3,2.2-3.5,3.3c-1.2,1.1-2.3,2.2-3.4,3.3c-1.1,1.1-2,2-2.7,2.9c2.1,2.4,4.3,4.8,6.5,7.3c2.2,2.5,4.4,5,6.6,7.5
		c-0.4,0-0.8-0.1-1.2-0.1c-0.4,0-0.8,0-1.2,0c-0.4,0-0.7,0-1.1,0s-0.7,0-1.1,0.1c-0.9-1.1-2-2.3-3.1-3.7c-1.1-1.4-2.3-2.7-3.4-4.1
		c-1.1-1.3-2.1-2.5-3-3.5c-0.9-1-1.5-1.8-2-2.2c-0.2-0.2-0.4-0.3-0.5-0.3c-0.1,0-0.2,0.1-0.2,0.2v3.4c0,1.7,0,3.4,0.1,5.1
		c0.1,1.7,0.1,3.3,0.2,5c-0.6,0-1.3-0.1-1.9-0.1c-0.7,0-1.3,0-1.9,0.1C84.6,361.9,84.7,360.3,84.7,358.6z"/>
	<path d="M110.8,341.5c-0.1-1.7-0.1-3.4-0.2-5.1c0.3,0.1,0.7,0.1,1,0.1c0.3,0,0.6,0.1,0.9,0.1s0.6,0,0.9-0.1c0.3,0,0.6-0.1,1-0.1
		c-0.1,1.7-0.2,3.4-0.3,5.1c-0.1,1.7-0.1,3.4-0.1,5.1c0,3.3,0,6.2,0,8.6c0,2.4,0.1,4.6,0.1,6.5c1.9,0,3.7,0,5.4-0.1
		c1.7,0,3.6-0.2,5.5-0.4c-0.1,0.5-0.2,0.9-0.2,1.2c0,0.3,0.1,0.6,0.2,1.1c-1.2,0-2.4-0.1-3.6-0.1c-1.2,0-2.4,0-3.6,0
		c-1.3,0-2.5,0-3.6,0c-1.2,0-2.4,0-3.6,0.1c0.1-1.6,0.1-3.3,0.2-5c0.1-1.7,0.1-3.4,0.1-5.1v-6.8
		C110.9,344.9,110.9,343.2,110.8,341.5z"/>
	<path d="M154.5,363.6c-0.4,0-0.7-0.1-1-0.1c-0.3,0-0.7,0-1,0c-0.4,0-0.7,0-1,0c-0.3,0-0.7,0-1,0.1c-0.2-0.6-0.4-1.3-0.8-2.2
		c-0.3-0.9-0.7-1.7-1-2.7c-0.4-0.9-0.8-1.9-1.2-2.8c-0.4-1-0.8-1.9-1.1-2.7c-0.8,0-1.7,0-2.6,0c-0.9,0-1.7,0-2.6,0
		c-0.8,0-1.6,0-2.4,0c-0.8,0-1.6,0-2.4,0c-0.8,2-1.6,4-2.3,5.9c-0.7,1.9-1.2,3.4-1.5,4.6c-0.4,0-0.9-0.1-1.5-0.1c-0.5,0-1,0-1.5,0.1
		c2.1-4.6,4.2-9.2,6.2-13.7c2-4.6,4.1-9.2,6.1-13.9h0.8c0.6,1.5,1.3,3.2,2.1,5c0.7,1.8,1.5,3.6,2.3,5.4c0.8,1.8,1.5,3.6,2.3,5.4
		c0.8,1.8,1.5,3.5,2.2,5c0.7,1.5,1.3,2.9,1.8,4.1C153.7,362,154.1,362.9,154.5,363.6z M137,351.3c0.7,0,1.4,0,2.1,0
		c0.7,0,1.4,0,2.1,0c0.7,0,1.5,0,2.2,0c0.7,0,1.5,0,2.2,0l-4.4-10L137,351.3z"/>
	<path d="M180.4,339.8c-0.6-0.5-1.3-0.9-2-1.2c-0.7-0.4-1.5-0.6-2.4-0.9c-0.9-0.2-1.8-0.3-2.8-0.3c-1.6,0-3.2,0.3-4.6,0.8
		c-1.4,0.5-2.6,1.3-3.7,2.3c-1,1-1.9,2.4-2.5,3.9c-0.6,1.6-0.9,3.5-0.9,5.7c0,1.9,0.3,3.7,0.8,5.2c0.5,1.6,1.3,2.9,2.3,3.9
		s2.3,1.9,3.7,2.5c1.5,0.6,3.1,0.9,5,0.9c0.6,0,1.1,0,1.7-0.1c0.6-0.1,1.2-0.1,1.8-0.2c0.6-0.1,1.1-0.2,1.6-0.4
		c0.5-0.2,0.9-0.3,1.2-0.6c0-0.8,0-1.6,0-2.4c0-0.8,0-1.6,0-2.4c0-0.9,0-1.8-0.1-2.8c0-0.9-0.1-1.8-0.1-2.6c0.7,0.1,1.3,0.2,1.9,0.2
		c0.3,0,0.6,0,0.9,0c0.3,0,0.6-0.1,0.8-0.2c-0.1,0.6-0.1,1.6-0.1,2.9c0,1.3,0,3,0,5.1c0,0.5,0,1.1,0,1.6c0,0.5,0,1.1,0,1.6
		c-0.6,0.2-1.2,0.4-2.1,0.6c-0.8,0.2-1.7,0.4-2.7,0.6c-0.9,0.1-1.9,0.3-2.8,0.4c-0.9,0.1-1.8,0.2-2.6,0.2c-2.4,0-4.5-0.3-6.4-0.8
		s-3.5-1.4-4.8-2.6c-1.3-1.2-2.3-2.7-3-4.4c-0.7-1.8-1.1-3.8-1.1-6.1c0-2.2,0.4-4.2,1.1-6c0.7-1.7,1.8-3.2,3.1-4.4
		c1.3-1.2,3-2.1,4.9-2.8c1.9-0.6,4-0.9,6.4-0.9c1.3,0,2.5,0.1,3.6,0.2c1,0.1,2,0.3,2.8,0.6c0.8,0.2,1.5,0.5,2.1,0.7
		c0.6,0.3,1.1,0.5,1.6,0.7c-0.2,0.4-0.4,0.8-0.6,1.4c-0.2,0.6-0.3,1.1-0.3,1.6h-0.5C181.5,340.8,181,340.3,180.4,339.8z"/>
	<path d="M213.7,363.6c-0.4,0-0.7-0.1-1-0.1c-0.3,0-0.7,0-1,0c-0.4,0-0.7,0-1,0c-0.3,0-0.7,0-1,0.1c-0.2-0.6-0.4-1.3-0.8-2.2
		c-0.3-0.9-0.7-1.7-1-2.7c-0.4-0.9-0.8-1.9-1.2-2.8c-0.4-1-0.8-1.9-1.1-2.7c-0.8,0-1.7,0-2.6,0c-0.9,0-1.7,0-2.6,0
		c-0.8,0-1.6,0-2.4,0c-0.8,0-1.6,0-2.4,0c-0.8,2-1.6,4-2.3,5.9c-0.7,1.9-1.2,3.4-1.5,4.6c-0.4,0-0.9-0.1-1.5-0.1s-1,0-1.5,0.1
		c2.1-4.6,4.2-9.2,6.2-13.7c2-4.6,4.1-9.2,6.1-13.9h0.8c0.6,1.5,1.3,3.2,2.1,5c0.7,1.8,1.5,3.6,2.3,5.4c0.8,1.8,1.5,3.6,2.3,5.4
		c0.8,1.8,1.5,3.5,2.2,5c0.7,1.5,1.3,2.9,1.8,4.1C212.9,362,213.4,362.9,213.7,363.6z M196.2,351.3c0.7,0,1.4,0,2.1,0
		c0.7,0,1.4,0,2.1,0c0.7,0,1.5,0,2.2,0c0.7,0,1.5,0,2.2,0l-4.4-10L196.2,351.3z"/>
	<path d="M220.2,341.5c-0.1-1.7-0.1-3.4-0.2-5.1c0.8,0.1,1.5,0.1,2.3,0.1c0.7,0,1.5,0.1,2.3,0.1c0.8,0,1.5,0,2.3-0.1
		s1.5-0.1,2.3-0.1c1.1,0,2.2,0.1,3.2,0.3c1,0.2,1.9,0.6,2.6,1c0.8,0.5,1.3,1.1,1.8,1.9c0.4,0.8,0.7,1.8,0.7,3c0,1.3-0.3,2.3-0.9,3.3
		c-0.6,0.9-1.3,1.7-2.1,2.3c-0.8,0.6-1.7,1.1-2.6,1.4c-0.9,0.3-1.8,0.5-2.6,0.7c0.3,0.4,0.8,0.9,1.3,1.7c0.6,0.7,1.2,1.5,1.9,2.4
		c0.7,0.9,1.4,1.8,2.1,2.7c0.7,0.9,1.4,1.8,2.1,2.7c0.7,0.9,1.3,1.6,1.9,2.4c0.6,0.7,1.1,1.3,1.5,1.6c-0.4,0-0.8-0.1-1.2-0.1
		c-0.4,0-0.8,0-1.2,0c-0.4,0-0.8,0-1.1,0s-0.8,0-1.1,0.1c-0.4-0.6-1-1.4-1.8-2.5s-1.7-2.3-2.7-3.6c-1-1.3-2-2.5-3-3.8
		c-1-1.3-1.9-2.3-2.8-3.2h-1.5v2.9c0,1.7,0,3.4,0.1,5.1c0.1,1.7,0.1,3.3,0.2,5c-0.6,0-1.3-0.1-1.9-0.1s-1.3,0-1.9,0.1
		c0.1-1.6,0.1-3.3,0.2-5c0.1-1.7,0.1-3.4,0.1-5.1v-6.8C220.3,344.9,220.2,343.2,220.2,341.5z M224.7,349c0.4,0,0.9,0,1.4,0
		c0.8,0,1.7-0.1,2.5-0.3c0.9-0.2,1.7-0.5,2.4-1c0.7-0.5,1.3-1.1,1.8-1.9c0.5-0.8,0.7-1.8,0.7-2.9c0-1-0.2-1.9-0.6-2.5
		c-0.4-0.7-0.9-1.2-1.5-1.6c-0.6-0.4-1.3-0.7-2-0.8c-0.7-0.1-1.4-0.2-2.1-0.2c-0.9,0-1.7,0-2.3,0.1c-0.6,0-1.1,0.1-1.5,0.1
		c-0.1,1.5-0.1,2.9-0.2,4.3c-0.1,1.4-0.1,2.8-0.1,4.3v2.3C223.9,349,224.3,349,224.7,349z"/>
	<path d="M254.4,346.8c1.9,3.5,3.8,7.1,5.8,10.9c0.3-0.5,0.6-1.2,1.1-2.2s1.1-2,1.7-3.2c0.7-1.2,1.4-2.5,2.1-3.9
		c0.8-1.4,1.5-2.8,2.3-4.3c0.8-1.4,1.5-2.9,2.3-4.3c0.8-1.4,1.5-2.7,2.1-3.9h0.5c0.3,2.5,0.6,5,0.8,7.3c0.3,2.4,0.5,4.7,0.8,6.9
		c0.3,2.3,0.5,4.5,0.8,6.8c0.3,2.2,0.6,4.4,0.9,6.6c-0.3,0-0.6-0.1-0.9-0.1s-0.6,0-0.9,0s-0.6,0-0.9,0c-0.3,0-0.6,0-0.9,0.1
		c-0.3-3.5-0.6-6.9-0.9-10.2c-0.3-3.3-0.6-6.6-1.1-10.1H270c-1.8,3.3-3.6,6.6-5.4,9.9c-1.8,3.3-3.4,6.7-5,10.3h-0.4
		c-1.6-3.3-3.2-6.6-5-10c-1.7-3.3-3.5-6.7-5.2-10.2H249c-0.2,1.6-0.4,3.4-0.6,5.3c-0.2,1.9-0.4,3.8-0.6,5.6
		c-0.2,1.9-0.3,3.6-0.5,5.2c-0.1,1.6-0.2,3-0.2,4c-0.4,0-0.9-0.1-1.4-0.1s-1,0-1.4,0.1c0.3-2.1,0.7-4.4,1.1-6.8
		c0.4-2.4,0.7-4.7,1.1-7.1c0.3-2.4,0.7-4.8,0.9-7.1c0.3-2.3,0.5-4.5,0.8-6.6h0.7C250.7,339.7,252.5,343.3,254.4,346.8z"/>
	<path d="M288.9,350.5c-0.5-0.9-1.1-1.8-1.7-2.8c-0.6-1-1.3-2.1-2-3.3c-0.7-1.1-1.3-2.2-2-3.3c-0.6-1-1.2-2-1.7-2.8
		c-0.5-0.8-0.9-1.5-1.1-1.9c0.4,0.1,0.7,0.1,1.1,0.1c0.4,0,0.7,0.1,1.1,0.1c0.4,0,0.7,0,1.1-0.1c0.4,0,0.7-0.1,1.1-0.1
		c1.2,2.3,2.4,4.5,3.6,6.8c1.2,2.2,2.5,4.5,3.9,6.9c0.6-0.9,1.2-2,1.9-3.1c0.7-1.1,1.3-2.3,2-3.5c0.7-1.2,1.3-2.4,1.9-3.6
		c0.6-1.2,1.2-2.4,1.7-3.5c0.7,0.1,1.2,0.2,1.5,0.2c0.4,0,0.9-0.1,1.5-0.2c-1.3,1.9-2.4,3.7-3.4,5.2c-1,1.6-1.9,3-2.6,4.2
		c-0.8,1.3-1.4,2.4-2,3.4c-0.6,1-1.1,1.9-1.5,2.7c0,1,0,2,0,3.1c0,1.1,0,2.2,0.1,3.3c0,1.1,0.1,2.1,0.1,3c0,0.9,0.1,1.6,0.1,2.2
		c-0.6,0-1.3-0.1-1.9-0.1s-1.3,0-1.9,0.1c0.2-1.4,0.3-3,0.3-5c0-1.9,0-4,0-6.1C289.8,352,289.4,351.4,288.9,350.5z"/>
	<path d="M322.1,353.3c-3.4-3.7-6.8-7.3-10.2-10.9c0,0.7-0.1,1.7-0.1,3c0,1.2,0,2.9,0,5c0,0.6,0,1.2,0,2.1c0,0.8,0,1.7,0,2.6
		c0,0.9,0,1.8,0.1,2.7c0,0.9,0.1,1.8,0.1,2.6c0,0.8,0.1,1.5,0.1,2.1c0,0.6,0.1,1,0.1,1.2c-0.4-0.1-0.9-0.1-1.4-0.1
		c-0.5,0-1,0-1.5,0.1c0.1-0.3,0.1-0.8,0.2-1.5c0.1-0.7,0.1-1.6,0.2-2.5c0.1-1,0.1-2.1,0.2-3.2c0.1-1.2,0.1-2.3,0.2-3.5
		c0-1.2,0.1-2.3,0.1-3.4c0-1.1,0-2.1,0-3c0-2.5,0-4.7,0-6.5c0-1.8,0-3.2-0.1-4.1h0.6c1.6,1.7,3.3,3.6,5.2,5.6c1.8,2,3.6,3.9,5.5,5.9
		c1.8,1.9,3.5,3.8,5.1,5.5c1.6,1.7,3,3.2,4.2,4.4v-5.4c0-2.8,0-5.4-0.1-8.1c0-2.6-0.1-5.1-0.3-7.4c0.5,0.1,1,0.2,1.4,0.2
		c0.3,0,0.7-0.1,1.3-0.2c-0.1,0.6-0.1,1.4-0.2,2.6c-0.1,1.2-0.1,2.4-0.2,3.7c-0.1,1.3-0.1,2.6-0.2,3.9c-0.1,1.3-0.1,2.3-0.1,3
		c0,0.7,0,1.4,0,2.4c0,0.9,0,1.8,0,2.8c0,1,0,2,0,2.9c0,1,0,1.9,0,2.8c0,0.9,0,1.6,0,2.2c0,0.6,0,1,0,1.3h-0.6
		C328.8,360.6,325.5,357,322.1,353.3z"/>
	<path d="M342.2,341.5c-0.1-1.7-0.1-3.4-0.2-5.1c1,0.1,2,0.1,3,0.1c1,0,2,0.1,3,0.1s2,0,3-0.1s2-0.1,3-0.1c2.3,0,4.3,0.3,5.9,0.9
		c1.6,0.6,3,1.5,4,2.6c1.1,1.1,1.8,2.5,2.3,4.1c0.5,1.6,0.7,3.4,0.7,5.5c0,2.6-0.5,4.9-1.4,6.7c-0.9,1.8-2.1,3.3-3.5,4.4
		c-1.4,1.1-3,1.9-4.7,2.3c-1.7,0.5-3.3,0.7-4.9,0.7c-0.9,0-1.8,0-2.6,0c-0.9,0-1.8,0-2.6,0c-0.9,0-1.8,0-2.6,0c-0.9,0-1.7,0-2.6,0.1
		c0.1-1.6,0.2-3.3,0.2-5c0.1-1.7,0.1-3.4,0.1-5.1v-6.8C342.3,344.9,342.2,343.2,342.2,341.5z M345.8,361.8c0.6,0.1,1.3,0.2,2.2,0.3
		c0.9,0.1,1.9,0.1,2.9,0.1c1.4,0,2.9-0.2,4.3-0.5c1.4-0.3,2.7-1,3.9-1.9c1.1-0.9,2.1-2.2,2.8-3.9c0.7-1.6,1.1-3.8,1.1-6.4
		c0-2.3-0.3-4.2-0.8-5.6c-0.6-1.5-1.3-2.6-2.3-3.5c-1-0.9-2.2-1.4-3.5-1.8c-1.4-0.3-2.9-0.5-4.5-0.5c-1.2,0-2.3,0-3.3,0.1
		c-1,0.1-1.9,0.2-2.8,0.3c-0.1,1.3-0.1,2.6-0.2,4c0,1.4-0.1,2.8-0.1,4.2v6.8C345.5,356.3,345.6,359.1,345.8,361.8z"/>
	<path d="M374.9,341.5c-0.1-1.7-0.1-3.4-0.2-5.1c0.3,0.1,0.7,0.1,1,0.1c0.3,0,0.6,0.1,0.9,0.1c0.3,0,0.6,0,0.9-0.1
		c0.3,0,0.6-0.1,1-0.1c-0.1,1.7-0.1,3.4-0.2,5.1c-0.1,1.7-0.1,3.4-0.1,5.1v6.8c0,1.7,0,3.4,0.1,5.1c0.1,1.7,0.1,3.3,0.2,5
		c-0.6,0-1.3-0.1-1.9-0.1s-1.3,0-1.9,0.1c0.1-1.6,0.1-3.3,0.2-5c0.1-1.7,0.1-3.4,0.1-5.1v-6.8C375,344.9,375,343.2,374.9,341.5z"/>
	<path d="M409.1,339.8c-0.6-0.5-1.3-0.9-2-1.2c-0.7-0.4-1.5-0.6-2.4-0.9c-0.9-0.2-1.8-0.3-2.8-0.3c-1.6,0-3.2,0.3-4.6,0.8
		c-1.4,0.5-2.6,1.3-3.7,2.3c-1,1-1.9,2.4-2.5,3.9c-0.6,1.6-0.9,3.5-0.9,5.7c0,1.9,0.3,3.7,0.8,5.2c0.5,1.6,1.3,2.9,2.3,3.9
		s2.3,1.9,3.7,2.5c1.5,0.6,3.1,0.9,5,0.9c0.6,0,1.1,0,1.7-0.1c0.6-0.1,1.2-0.1,1.8-0.2c0.6-0.1,1.1-0.2,1.6-0.4
		c0.5-0.2,0.9-0.3,1.2-0.6c0-0.8,0-1.6,0-2.4c0-0.8,0-1.6,0-2.4c0-0.9,0-1.8-0.1-2.8c0-0.9-0.1-1.8-0.1-2.6c0.7,0.1,1.3,0.2,1.9,0.2
		c0.3,0,0.6,0,0.9,0c0.3,0,0.6-0.1,0.8-0.2c-0.1,0.6-0.1,1.6-0.1,2.9c0,1.3,0,3,0,5.1c0,0.5,0,1.1,0,1.6c0,0.5,0,1.1,0,1.6
		c-0.6,0.2-1.2,0.4-2.1,0.6c-0.8,0.2-1.7,0.4-2.7,0.6c-0.9,0.1-1.9,0.3-2.8,0.4c-0.9,0.1-1.8,0.2-2.6,0.2c-2.4,0-4.5-0.3-6.4-0.8
		c-1.9-0.6-3.5-1.4-4.8-2.6c-1.3-1.2-2.3-2.7-3.1-4.4c-0.7-1.8-1.1-3.8-1.1-6.1c0-2.2,0.4-4.2,1.1-6c0.7-1.7,1.8-3.2,3.1-4.4
		c1.3-1.2,3-2.1,4.9-2.8c1.9-0.6,4-0.9,6.4-0.9c1.3,0,2.5,0.1,3.6,0.2c1,0.1,2,0.3,2.8,0.6c0.8,0.2,1.5,0.5,2.1,0.7
		c0.6,0.3,1.1,0.5,1.6,0.7c-0.2,0.4-0.4,0.8-0.6,1.4c-0.2,0.6-0.3,1.1-0.3,1.6h-0.5C410.2,340.8,409.7,340.3,409.1,339.8z"/>
	<path d="M440.3,341.6c-0.1-1.7-0.1-3.4-0.2-5.1c0.3,0.1,0.7,0.1,1,0.1c0.3,0,0.6,0.1,0.9,0.1c0.3,0,0.6,0,0.9-0.1
		c0.3,0,0.6-0.1,1-0.1c-0.1,1.7-0.2,3.4-0.2,5.1c-0.1,1.7-0.1,3.4-0.1,5.1v6.8c0,1.7,0,3.4,0.1,5.1c0.1,1.7,0.1,3.3,0.2,5
		c-0.6,0-1.3-0.1-1.9-0.1c-0.7,0-1.3,0-1.9,0.1c0.1-1.6,0.1-3.3,0.2-5c0.1-1.7,0.1-3.4,0.1-5.1v-3.5c-1.4,0-2.8,0-4.1,0
		c-1.3,0-2.7,0-4.1,0c-1.4,0-2.8,0-4.1,0c-1.3,0-2.7,0-4.1,0v3.5c0,1.7,0,3.4,0.1,5.1c0.1,1.7,0.1,3.3,0.2,5c-0.6,0-1.3-0.1-1.9-0.1
		c-0.7,0-1.3,0-1.9,0.1c0.1-1.6,0.1-3.3,0.2-5c0.1-1.7,0.1-3.4,0.1-5.1v-6.8c0-1.7,0-3.4-0.1-5.1c-0.1-1.7-0.1-3.4-0.2-5.1
		c0.3,0.1,0.7,0.1,1,0.1c0.3,0,0.6,0.1,0.9,0.1c0.3,0,0.6,0,0.9-0.1c0.3,0,0.6-0.1,1-0.1c-0.1,1.7-0.2,3.4-0.2,5.1
		c-0.1,1.7-0.1,3.4-0.1,5.1v1.4c1.4,0,2.8,0.1,4.1,0.1c1.3,0,2.7,0,4.1,0c1.4,0,2.8,0,4.1,0c1.3,0,2.7-0.1,4.1-0.1v-1.4
		C440.4,344.9,440.4,343.2,440.3,341.6z"/>
	<path d="M453.2,341.5c-0.1-1.7-0.1-3.4-0.2-5.1c1.2,0.1,2.3,0.1,3.5,0.1c1.2,0,2.3,0.1,3.5,0.1c1.2,0,2.4,0,3.5-0.1
		c1.2,0,2.3-0.1,3.5-0.1c-0.1,0.4-0.1,0.8-0.1,1.2c0,0.4,0,0.8,0.1,1.2c-0.8-0.1-1.6-0.1-2.3-0.2c-0.7-0.1-1.4-0.1-2.2-0.2
		c-0.8-0.1-1.6-0.1-2.6-0.1c-0.9,0-2-0.1-3.3-0.1c0,0.8-0.1,1.6-0.1,2.4c0,0.8-0.1,1.6-0.1,2.6c0,1,0,2,0,3c0,1,0,1.7,0,2.2
		c1.2,0,2.2,0,3.1,0c0.9,0,1.8-0.1,2.5-0.1c0.8,0,1.5-0.1,2.1-0.1c0.6,0,1.3-0.1,1.8-0.1c-0.1,0.4-0.1,0.8-0.1,1.2
		c0,0.4,0,0.8,0.1,1.2c-0.7-0.1-1.5-0.1-2.4-0.2c-0.9-0.1-1.8-0.1-2.7-0.1c-0.9,0-1.8,0-2.6,0c-0.8,0-1.4,0-1.9,0c0,0.2,0,0.5,0,0.8
		c0,0.3,0,0.6,0,1v1.5v2.4c0,1.5,0,2.7,0,3.7c0,1,0,1.7,0,2.2c0.9,0,1.8,0,2.8,0c1,0,2,0,2.9-0.1c1,0,1.9-0.1,2.7-0.2
		c0.9-0.1,1.6-0.2,2.2-0.3c-0.1,0.2-0.1,0.4-0.1,0.6c0,0.2,0,0.4,0,0.6c0,0.4,0,0.8,0.1,1c-1.2,0-2.4-0.1-3.5-0.1s-2.4,0-3.6,0
		c-1.2,0-2.4,0-3.6,0c-1.2,0-2.4,0-3.5,0.1c0.1-1.7,0.1-3.4,0.2-5c0.1-1.7,0.1-3.4,0.1-5.1v-6.8
		C453.3,344.9,453.3,343.2,453.2,341.5z"/>
	<path d="M480.5,338.5c-0.7,0-1.4,0-2.2,0c-0.8,0-1.5,0-2.3,0.1c-0.8,0-1.5,0.1-2.2,0.1c-0.7,0.1-1.3,0.1-1.9,0.2
		c0.1-0.5,0.2-0.9,0.2-1.3c0-0.3-0.1-0.7-0.2-1.2c1.7,0.1,3.4,0.1,5.1,0.1c1.7,0,3.4,0.1,5.1,0.1c1.7,0,3.4,0,5.1-0.1
		c1.7,0,3.4-0.1,5.1-0.1c-0.1,0.5-0.2,0.9-0.2,1.3c0,0.3,0.1,0.8,0.2,1.2c-0.6-0.1-1.2-0.1-1.9-0.2c-0.7-0.1-1.4-0.1-2.2-0.1
		c-0.8,0-1.5-0.1-2.3-0.1c-0.8,0-1.5,0-2.2,0c-0.1,2.7-0.1,5.4-0.1,8.2v6.8c0,1.7,0,3.4,0.1,5.1c0.1,1.7,0.1,3.3,0.2,5
		c-0.6,0-1.3-0.1-1.9-0.1c-0.7,0-1.3,0-1.9,0.1c0.1-1.6,0.2-3.3,0.3-5c0.1-1.7,0.1-3.4,0.1-5.1l-0.1-6.8
		C480.6,343.9,480.6,341.2,480.5,338.5z"/>
	<path d="M498.9,341.5c-0.1-1.7-0.1-3.4-0.2-5.1c1.2,0.1,2.3,0.1,3.5,0.1c1.2,0,2.3,0.1,3.5,0.1c1.2,0,2.4,0,3.5-0.1
		c1.2,0,2.3-0.1,3.5-0.1c-0.1,0.4-0.1,0.8-0.1,1.2c0,0.4,0,0.8,0.1,1.2c-0.8-0.1-1.6-0.1-2.3-0.2c-0.7-0.1-1.4-0.1-2.2-0.2
		c-0.8-0.1-1.6-0.1-2.5-0.1c-0.9,0-2-0.1-3.3-0.1c0,0.8-0.1,1.6-0.1,2.4c0,0.8-0.1,1.6-0.1,2.6c0,1,0,2,0,3c0,1,0,1.7,0,2.2
		c1.2,0,2.2,0,3.1,0c0.9,0,1.8-0.1,2.5-0.1c0.8,0,1.5-0.1,2.1-0.1c0.6,0,1.3-0.1,1.8-0.1c-0.1,0.4-0.1,0.8-0.1,1.2
		c0,0.4,0,0.8,0.1,1.2c-0.7-0.1-1.5-0.1-2.4-0.2c-0.9-0.1-1.8-0.1-2.7-0.1c-0.9,0-1.8,0-2.6,0c-0.8,0-1.4,0-1.9,0c0,0.2,0,0.5,0,0.8
		c0,0.3,0,0.6,0,1v1.5v2.4c0,1.5,0,2.7,0,3.7c0,1,0,1.7,0,2.2c0.9,0,1.8,0,2.8,0c1,0,2,0,2.9-0.1c1,0,1.9-0.1,2.7-0.2
		c0.9-0.1,1.6-0.2,2.2-0.3c-0.1,0.2-0.1,0.4-0.1,0.6c0,0.2,0,0.4,0,0.6c0,0.4,0,0.8,0.1,1c-1.2,0-2.4-0.1-3.5-0.1
		c-1.2,0-2.4,0-3.6,0c-1.2,0-2.4,0-3.6,0s-2.4,0-3.5,0.1c0.1-1.7,0.1-3.4,0.2-5c0.1-1.7,0.1-3.4,0.1-5.1v-6.8
		C499,344.9,498.9,343.2,498.9,341.5z"/>
	<path d="M533.3,353.3c-3.4-3.7-6.8-7.3-10.2-10.9c0,0.7-0.1,1.7-0.1,3c0,1.2,0,2.9,0,5c0,0.6,0,1.2,0,2.1c0,0.8,0,1.7,0,2.6
		c0,0.9,0,1.8,0.1,2.7c0,0.9,0.1,1.8,0.1,2.6c0,0.8,0.1,1.5,0.1,2.1c0,0.6,0.1,1,0.1,1.2c-0.4-0.1-0.9-0.1-1.4-0.1
		c-0.5,0-1,0-1.5,0.1c0.1-0.3,0.1-0.8,0.2-1.5c0.1-0.7,0.1-1.6,0.2-2.5c0.1-1,0.1-2.1,0.2-3.2c0.1-1.2,0.1-2.3,0.2-3.5
		c0-1.2,0.1-2.3,0.1-3.4c0-1.1,0-2.1,0-3c0-2.5,0-4.7,0-6.5c0-1.8,0-3.2-0.1-4.1h0.6c1.6,1.7,3.3,3.6,5.2,5.6c1.8,2,3.6,3.9,5.5,5.9
		c1.8,1.9,3.5,3.8,5.1,5.5c1.6,1.7,3,3.2,4.3,4.4v-5.4c0-2.8,0-5.4-0.1-8.1c0-2.6-0.1-5.1-0.3-7.4c0.5,0.1,1,0.2,1.4,0.2
		c0.3,0,0.7-0.1,1.3-0.2c-0.1,0.6-0.1,1.4-0.2,2.6c-0.1,1.2-0.1,2.4-0.2,3.7c-0.1,1.3-0.1,2.6-0.2,3.9c-0.1,1.3-0.1,2.3-0.1,3
		c0,0.7,0,1.4,0,2.4c0,0.9,0,1.8,0,2.8c0,1,0,2,0,2.9c0,1,0,1.9,0,2.8c0,0.9,0,1.6,0,2.2c0,0.6,0,1,0,1.3H543
		C539.9,360.6,536.7,357,533.3,353.3z"/>
</g>
<line class="st11" x1="79.7" y1="319.9" x2="189.2" y2="319.9"/>
<line class="st12" x1="404.9" y1="319.9" x2="519.5" y2="319.9"/>
</svg>
