<svg id="Layer_1" data-name="Layer 1" xmlns="http://www.w3.org/2000/svg" viewBox="0 0 235.25 43.49"><defs><style>.cls-1{fill:#64666a;}.cls-2{fill:#f9b000;}</style></defs><title>Xlent_logo_cmyk</title><path class="cls-1" d="M60,37.7V0h-6.4V43.49H87.71V37.7Z"/><path class="cls-1" d="M188.18,0V5.81h19.33V43.49h6.28V5.81h18.65L235.25,0Z"/><path class="cls-1" d="M175.17,0V34.34C173.62,32.77,141.59,0,141.59,0H94.64V43.49h36.91V37.7H101V23.63h20.62l3.06-5.8H101v-12h37.85l36.85,37.54.13.14h5.35V0Zm-37,43.49h6.27V21.08l-6.27-6.7Z"/><path class="cls-2" d="M46.36,0h-8L28.53,11.93l4.15,4.44Zm-38,0H0L19.84,21.26.61,43.49h8L24,25.74,40.42,43.49h8.37Z"/></svg>