<?xml version="1.0" standalone="no"?>
<!DOCTYPE svg PUBLIC "-//W3C//DTD SVG 20010904//EN"
 "http://www.w3.org/TR/2001/REC-SVG-20010904/DTD/svg10.dtd">
<svg version="1.0" xmlns="http://www.w3.org/2000/svg"
 width="3876.000000pt" height="1789.000000pt" viewBox="0 0 3876.000000 1789.000000"
 preserveAspectRatio="xMidYMid meet">

<g transform="translate(0.000000,1789.000000) scale(0.100000,-0.100000)"
fill="#000000" stroke="none">
<path d="M20 17500 l0 -380 1235 0 1235 0 0 -3255 0 -3255 430 0 430 0 2 3253
3 3252 1232 3 1233 2 0 380 0 380 -2900 0 -2900 0 0 -380z"/>
<path d="M7925 16104 c-135 -17 -371 -75 -485 -119 -265 -101 -481 -248 -660
-447 -75 -83 -81 -87 -89 -66 -4 13 -43 143 -86 291 l-78 267 -404 0 -403 0 0
-2710 0 -2710 405 0 404 0 4 1508 c3 1368 5 1518 20 1622 63 418 169 722 338
972 83 123 257 296 378 376 283 189 651 290 1069 293 149 1 230 -13 329 -57
29 -12 54 -20 57 -16 2 4 45 159 97 345 77 282 90 340 78 348 -22 14 -157 56
-234 73 -211 46 -515 58 -740 30z"/>
<path d="M11025 16110 c-684 -69 -1198 -331 -1587 -811 -456 -561 -677 -1273
-655 -2109 6 -238 16 -341 48 -535 96 -570 328 -1056 663 -1390 115 -114 208
-186 351 -272 410 -247 805 -393 1216 -449 152 -22 523 -24 684 -5 652 77
1139 309 1565 747 143 147 317 371 301 387 -5 5 -148 90 -317 188 l-308 179
-30 -38 c-17 -20 -75 -84 -130 -140 -310 -319 -666 -506 -1096 -577 -209 -35
-503 -30 -715 11 -813 157 -1344 801 -1421 1722 l-7 82 2163 0 2163 0 -6 293
c-3 166 -13 346 -22 416 -104 831 -496 1517 -1090 1907 -310 203 -604 313
-1010 376 -149 23 -603 33 -760 18z m580 -741 c298 -30 598 -139 817 -296 109
-78 258 -228 341 -344 37 -52 99 -157 137 -234 96 -192 152 -370 194 -617 l7
-38 -1736 0 c-954 0 -1735 2 -1735 5 0 3 12 60 26 127 55 263 161 527 288 717
347 521 921 755 1661 680z"/>
<path d="M16445 16109 c-448 -45 -847 -182 -1172 -401 -166 -111 -489 -409
-481 -443 2 -8 116 -118 253 -246 138 -127 269 -250 292 -272 l42 -40 28 34
c55 68 190 203 258 259 316 258 673 381 1115 381 581 0 996 -220 1131 -600 72
-204 60 -409 -32 -552 -71 -111 -220 -216 -379 -268 -83 -26 -295 -74 -425
-95 -150 -24 -304 -36 -465 -36 -528 0 -992 -86 -1305 -242 -354 -177 -655
-519 -773 -878 -64 -192 -87 -455 -63 -691 87 -842 638 -1366 1556 -1480 154
-19 515 -16 660 5 405 61 769 225 1080 486 53 45 98 80 99 78 2 -2 34 -114 72
-250 l69 -248 373 0 373 0 -4 1903 c-3 1745 -5 1912 -20 2017 -78 511 -236
850 -524 1120 -249 233 -573 376 -997 442 -150 23 -605 33 -761 17z m1512
-3004 c-7 -430 -21 -533 -112 -851 -69 -240 -125 -348 -258 -497 -220 -245
-548 -428 -895 -498 -147 -29 -364 -36 -491 -15 -518 87 -816 439 -814 961 2
398 182 694 498 816 187 73 375 103 745 119 361 16 585 49 845 124 181 52 377
137 460 200 18 13 20 13 24 -2 2 -9 1 -170 -2 -357z"/>
<path d="M21355 16110 c-317 -35 -597 -113 -895 -250 -261 -120 -403 -232
-552 -437 -103 -141 -198 -376 -234 -578 -26 -144 -26 -454 0 -590 82 -441
336 -754 786 -968 297 -142 590 -223 1160 -322 302 -53 403 -74 546 -115 425
-124 677 -311 761 -565 23 -70 26 -96 26 -205 -3 -451 -278 -708 -853 -797
-163 -25 -578 -25 -740 0 -321 50 -581 143 -800 288 -113 75 -278 235 -340
332 -25 37 -49 67 -55 67 -20 0 -678 -295 -682 -306 -6 -17 130 -212 209 -301
188 -210 484 -435 749 -569 409 -205 953 -301 1509 -265 624 40 1044 195 1346
496 348 347 502 749 464 1215 -17 216 -59 379 -138 535 -124 247 -338 449
-632 595 -279 139 -548 218 -1220 355 -179 37 -385 82 -459 101 -364 93 -582
198 -709 339 -125 141 -167 320 -127 549 60 342 283 543 700 630 192 40 518
50 690 21 278 -47 682 -219 906 -386 l115 -86 287 235 c243 199 285 237 277
252 -36 67 -270 265 -456 386 -232 152 -569 269 -934 325 -152 23 -563 34
-705 19z"/>
<path d="M32060 16113 c-510 -52 -925 -248 -1220 -575 -75 -83 -81 -87 -89
-66 -4 13 -43 143 -86 291 l-78 267 -404 0 -403 0 0 -2710 0 -2710 405 0 404
0 4 1508 c3 1648 0 1549 63 1862 30 153 105 381 168 512 146 307 397 562 691
703 246 118 557 184 883 186 149 1 230 -13 329 -57 29 -12 54 -20 56 -16 3 4
46 159 97 345 77 280 91 340 79 348 -52 32 -248 81 -422 104 -107 14 -377 18
-477 8z"/>
<path d="M24423 14093 c3 -2159 -2 -1995 72 -2289 56 -217 132 -390 253 -574
76 -116 269 -308 392 -389 304 -201 669 -303 1140 -318 383 -12 677 44 954
183 207 103 362 220 563 427 73 75 134 133 136 129 2 -4 48 -152 103 -329 l98
-323 403 0 403 0 0 2710 0 2710 -400 0 -400 0 0 -1342 c0 -762 -5 -1421 -10
-1523 -36 -642 -215 -1120 -545 -1451 -155 -156 -295 -250 -490 -329 -386
-156 -939 -168 -1266 -28 -336 144 -523 414 -584 845 -12 87 -15 387 -15 1966
l0 1862 -405 0 -405 0 3 -1937z"/>
<path d="M33494 16013 c4 -10 503 -1217 1109 -2683 605 -1465 1100 -2672 1100
-2681 -3 -32 -168 -403 -233 -522 -134 -246 -236 -376 -394 -503 -178 -143
-381 -204 -680 -204 l-95 0 -11 -42 c-31 -117 -183 -675 -188 -687 -5 -12 31
-13 239 -8 453 12 629 48 893 182 146 73 236 132 338 219 233 199 475 569 719
1101 56 123 2197 5185 2466 5833 4 10 -85 12 -438 10 l-443 -3 -882 -2160
c-485 -1188 -886 -2166 -891 -2173 -5 -8 -316 769 -864 2160 l-857 2173 -447
3 c-423 2 -447 1 -441 -15z"/>
<path d="M2625 9554 c-560 -43 -923 -129 -1280 -304 -245 -120 -434 -258 -625
-457 -275 -286 -420 -578 -491 -988 -30 -172 -37 -510 -15 -701 91 -785 522
-1243 1390 -1474 285 -76 596 -125 1276 -200 755 -84 989 -124 1287 -221 469
-152 734 -397 832 -771 45 -175 52 -420 16 -606 -113 -588 -584 -983 -1305
-1096 -345 -55 -839 -45 -1230 24 -744 132 -1344 487 -1689 998 -23 35 -48 62
-55 60 -24 -6 -726 -380 -726 -387 0 -4 23 -47 51 -96 422 -740 1325 -1249
2469 -1394 360 -46 870 -53 1170 -16 554 68 1026 249 1419 545 462 347 717
779 786 1329 21 166 16 548 -9 705 -64 396 -213 717 -446 959 -127 133 -237
213 -405 297 -438 217 -1038 347 -1954 425 -234 20 -535 58 -721 91 -587 103
-937 277 -1123 557 -171 258 -203 678 -80 1049 73 223 210 402 399 524 259
166 587 279 964 329 163 22 517 31 665 16 530 -53 967 -259 1359 -641 l131
-127 310 191 c171 105 325 200 342 211 l32 20 -72 90 c-99 124 -291 320 -410
418 -419 346 -878 541 -1467 623 -110 15 -667 28 -795 18z"/>
<path d="M16968 8517 l-3 -952 -487 -3 -488 -2 0 -380 0 -380 490 0 490 0 0
-1762 c0 -1122 4 -1805 10 -1878 6 -63 22 -177 35 -252 108 -597 397 -899 950
-990 126 -21 590 -17 735 6 194 30 425 97 425 123 0 7 -56 163 -125 348 -98
263 -128 334 -140 329 -8 -3 -58 -17 -110 -32 -86 -23 -113 -26 -275 -26 -197
-1 -256 9 -370 63 -124 59 -187 137 -240 295 -68 201 -65 116 -65 2039 l0
1737 685 0 685 0 0 380 0 380 -685 0 -685 0 0 855 c0 470 -2 855 -4 855 -7 0
-799 190 -813 195 -10 3 -13 -193 -15 -948z"/>
<path d="M13240 7650 c-337 -25 -658 -109 -994 -261 -231 -104 -375 -208 -502
-360 -160 -193 -256 -405 -311 -684 -25 -128 -25 -482 0 -614 126 -663 622
-1042 1644 -1255 67 -14 240 -46 385 -71 145 -25 327 -61 406 -81 519 -128
808 -323 909 -609 25 -73 27 -92 26 -215 -1 -156 -21 -248 -79 -367 -40 -79
-134 -189 -212 -247 -151 -111 -394 -187 -685 -217 -175 -17 -559 -7 -712 20
-307 52 -557 146 -775 290 -106 69 -292 252 -350 344 -30 47 -49 67 -59 64 -9
-3 -160 -69 -336 -147 -176 -78 -330 -146 -343 -151 l-23 -9 20 -37 c63 -122
226 -320 366 -446 471 -421 978 -635 1631 -688 186 -15 593 -7 764 16 543 70
914 237 1194 537 115 123 203 247 275 388 125 246 169 454 158 750 -25 678
-374 1105 -1114 1360 -218 76 -444 131 -953 235 -325 66 -555 122 -700 171
-487 163 -675 409 -619 810 64 459 413 689 1089 720 299 13 533 -38 875 -191
208 -92 295 -141 416 -234 87 -66 106 -77 119 -67 8 7 140 115 293 240 152
125 277 231 277 235 0 15 -57 86 -106 131 -66 61 -283 227 -373 285 -385 249
-1047 396 -1601 355z"/>
<path d="M21918 7649 c-729 -43 -1313 -328 -1725 -839 -265 -329 -456 -709
-563 -1123 -126 -487 -149 -1053 -64 -1587 106 -669 433 -1274 864 -1599 170
-128 490 -300 745 -400 228 -90 414 -140 655 -178 144 -22 606 -25 770 -5 725
90 1312 413 1750 962 111 140 144 190 133 201 -6 6 -152 92 -326 193 l-316
184 -72 -85 c-343 -399 -792 -640 -1309 -703 -110 -13 -392 -13 -500 1 -305
37 -569 132 -806 290 -154 102 -353 303 -457 459 -174 264 -286 576 -332 923
-8 65 -15 138 -15 163 l0 44 2221 0 2222 0 -6 303 c-4 166 -11 340 -17 387
-75 614 -276 1116 -613 1535 -92 114 -284 299 -403 387 -329 244 -713 399
-1144 462 -215 32 -448 40 -692 25z m437 -760 c885 -76 1450 -625 1598 -1551
l4 -28 -1784 0 -1783 0 6 43 c13 87 83 345 119 442 160 426 450 756 816 930
296 140 650 197 1024 164z"/>
<path d="M27690 7650 c-266 -28 -509 -119 -727 -273 -94 -67 -276 -236 -355
-330 -37 -45 -50 -55 -54 -42 -4 9 -42 137 -84 283 l-77 267 -417 3 -416 2 0
-2785 0 -2785 415 0 415 0 0 1408 c0 858 4 1470 10 1567 33 501 117 883 264
1191 195 407 496 646 910 721 130 24 383 23 496 -1 358 -76 580 -303 680 -694
56 -223 53 -98 57 -2230 l4 -1962 414 0 414 0 4 1518 c4 1522 6 1596 42 1907
52 447 148 769 299 999 212 326 528 480 986 479 181 0 247 -10 390 -62 259
-95 464 -316 529 -573 26 -101 49 -265 61 -433 6 -85 10 -871 10 -1987 l0
-1848 415 0 415 0 0 1903 c0 1951 -2 2051 -41 2319 -72 500 -273 915 -541
1121 -253 194 -553 288 -1015 318 -577 37 -1005 -112 -1392 -486 -126 -122
-209 -221 -308 -367 -37 -54 -69 -98 -72 -98 -3 0 -14 19 -23 43 -10 23 -43
85 -74 137 -260 436 -638 683 -1155 754 -137 19 -373 27 -479 16z"/>
<path d="M35600 7654 c-426 -28 -799 -130 -1170 -320 -361 -184 -597 -507
-692 -944 -20 -93 -22 -133 -23 -350 0 -221 2 -255 23 -349 91 -405 324 -700
722 -914 302 -162 665 -264 1355 -382 256 -44 412 -81 573 -134 519 -174 752
-447 712 -834 -44 -424 -309 -655 -855 -744 -139 -23 -628 -26 -770 -5 -232
35 -459 101 -640 187 -214 102 -434 284 -540 445 -26 41 -50 77 -52 79 -3 5
-694 -298 -707 -310 -6 -5 7 -34 29 -71 148 -242 418 -501 731 -703 312 -202
660 -323 1094 -382 168 -22 703 -26 870 -5 603 75 995 254 1282 588 239 279
360 553 389 887 13 147 2 343 -27 483 -89 434 -333 735 -769 952 -285 142
-542 217 -1220 357 -176 36 -383 81 -460 100 -565 135 -827 311 -901 605 -23
90 -15 295 16 400 47 166 140 299 274 394 163 116 381 181 696 207 322 26 567
-14 882 -147 226 -96 379 -178 499 -269 111 -84 113 -85 133 -66 12 10 138
114 281 231 143 117 266 218 274 225 12 11 8 21 -23 64 -52 70 -276 253 -446
363 -333 216 -812 347 -1325 361 -88 3 -185 3 -215 1z"/>
<path d="M5736 7453 c25 -60 539 -1303 1143 -2763 l1097 -2655 -49 -120 c-202
-495 -376 -766 -610 -946 -110 -85 -204 -132 -327 -163 -93 -24 -293 -46 -411
-46 -32 0 -59 -3 -59 -6 0 -3 -43 -167 -95 -365 -52 -197 -95 -366 -95 -375 0
-15 19 -16 213 -10 374 13 542 34 715 91 131 44 354 157 468 238 295 208 576
616 864 1252 77 169 2520 5957 2520 5969 0 3 -204 6 -452 6 l-453 0 -910
-2231 c-500 -1227 -913 -2232 -916 -2234 -3 -3 -402 1000 -886 2228 l-880
2232 -461 3 -461 2 45 -107z"/>
</g>
</svg>
