<svg xmlns="http://www.w3.org/2000/svg" viewBox="0 0 294.41 113.99"><defs><style>.cls-1{fill:#1d1d1b;}</style></defs><title>omegapoint-logo-black</title><g id="Lager_2" data-name="Lager 2"><g id="Layer_1" data-name="Layer 1"><path class="cls-1" d="M119.35,44.47a2.35,2.35,0,0,0,.58,1,1.65,1.65,0,0,0,.74.35H133.1a2.31,2.31,0,0,0,.81-.52,2,2,0,0,0,.4-.91V20.08c0-10.56-4-18.89-17.16-18.89C110,1.19,105.28,3.43,101.8,9c-2.6-5.28-8.18-7.79-15-7.79-7.27,0-12.16,3.58-14.15,7h-.21V3a2.55,2.55,0,0,0-.3-.39,2,2,0,0,0-.81-.37H59a2.26,2.26,0,0,0-.86.55l-.07.09V44.41a2.28,2.28,0,0,0,.59,1,2,2,0,0,0,1,.41h12a2.25,2.25,0,0,0,1-.58,2,2,0,0,0,.39-.89V24.12c0-5.65,1.2-11.11,9-11.11,6.88,0,6.68,6.54,6.68,9.76V44.52a2.32,2.32,0,0,0,.54.85,2.22,2.22,0,0,0,1,.42h11.91a1.8,1.8,0,0,0,1.46-1.7V22.77c0-5.37,2.19-9.76,9.08-9.76,4.88,0,6.58,3.4,6.58,7.43Z"/><path class="cls-1" d="M190.45,26.35V24c0-13.89-9.08-22.84-23.52-22.84-15.48,0-27.86,9-27.86,22.84s12.38,22.84,27.86,22.84c7.5,0,15.08-2.72,20.09-7.51a2.32,2.32,0,0,0,.37-1,1.2,1.2,0,0,0-.29-.69l-9-5.76a1.34,1.34,0,0,0-.86-.12,2,2,0,0,0-.6.32,13.55,13.55,0,0,1-10.38,4.57c-5.56,0-10.05-2.68-11.62-7.17-.12-.35-.27-.89.14-1.16a1.39,1.39,0,0,1,1-.09h33.23a2.33,2.33,0,0,0,1.07-.61A2.75,2.75,0,0,0,190.45,26.35ZM174,19.1H155.2s-.45.06-.54-.21a1.34,1.34,0,0,1,0-.73c.83-3.85,4.49-7.3,10.78-7.3,5.14,0,9,3.2,9.45,7.21a.87.87,0,0,1-.23.75A.94.94,0,0,1,174,19.1Z"/><path class="cls-1" d="M271.51,1.19c-7.47,0-15,2-20.6,5.86-.52.36-.78.52-.78,1.21a1,1,0,0,0,.4.9l5,5.18a1.36,1.36,0,0,0,1,.49c.56,0,.82-.32,1.24-.62,4.46-3.11,8.36-4.28,12.86-4.2,6.75.13,9,3,9.54,7.25a.73.73,0,0,1-.18.61.54.54,0,0,1-.54.25c-12.95,0-33.17.56-33.17,15.31,0,8.78,8.46,13.44,17.84,13.44,6.1,0,12.08-1.76,15.55-6.09a.31.31,0,0,1,.37-.12c.2,0,.18.44.18.44v3.21s0,.88.32,1.21a1.52,1.52,0,0,0,1,.27h11.3a1.55,1.55,0,0,0,1.13-.28,1.47,1.47,0,0,0,.45-1.12V23.67C294.41,9.16,289.56,1.19,271.51,1.19Zm8.58,28.54c0,3.91-5.23,8-11.68,8-3.41,0-7.33-1.52-7.33-4.74,0-5.91,10.7-6.67,15.27-6.27a6.31,6.31,0,0,1,2.72,1A3.7,3.7,0,0,1,280.09,29.73Z"/><path class="cls-1" d="M134.34,96.59V55.51a2.44,2.44,0,0,0-.57-.95,2.12,2.12,0,0,0-1-.41h-12a2.39,2.39,0,0,0-1,.59,2.72,2.72,0,0,0-.48,1.36V96.55a2.13,2.13,0,0,0,.49.73,1.94,1.94,0,0,0,.93.4h12.34a2.21,2.21,0,0,0,.95-.57A1.35,1.35,0,0,0,134.34,96.59Z"/><path class="cls-1" d="M190,96.27V73.68c0-11.64-2.89-20.6-18.57-20.6-6.92,0-11.75,3-14.09,6.16-.16.22-.4.52-.59.43s-.18-.57-.18-.57V55.36a2.37,2.37,0,0,0-.52-.8,2.12,2.12,0,0,0-1-.41H142.77a2.61,2.61,0,0,0-.74.5,1.87,1.87,0,0,0-.37.79v41a2.32,2.32,0,0,0,.58.94,1.35,1.35,0,0,0,.61.31H156.1a2.35,2.35,0,0,0,.73-.48,1.57,1.57,0,0,0,.31-.62V76c0-5.64,1.24-11.11,9.29-11.11s8,6.45,8,11.47V96.52a2.16,2.16,0,0,0,.51.76,1.9,1.9,0,0,0,.92.4h12.72a2.21,2.21,0,0,0,.95-.57A1.92,1.92,0,0,0,190,96.27Z"/><path class="cls-1" d="M213.48,66.34a1.2,1.2,0,0,1,.86-.45l1.7,0c3.28-.11,8.05-.65,9.32-.66,10.17-.12,17.37-8.63,17.37-23.08V3.86a1.75,1.75,0,0,0-.53-1.2,1.39,1.39,0,0,0-1-.4H230.71a1.79,1.79,0,0,0-1,.31c-.41.28-.4,1.12-.4,1.12l0,2.66c0,.29-.21.39-.46.39a1.16,1.16,0,0,1-.73-.34c-2.18-2.14-6-4.6-14.37-4.41-15.07.35-19.53,16.29-19.53,22.05,0,10.72,5.73,21.86,21.21,21.86,4.37,0,9.7-.92,13.26-4.58.22-.23.26-.14.53-.14s.32.61.32.61v3c0,7.11-3.8,10.32-9.42,10.32l-2.36,0h-3.45a.78.78,0,0,1-.77-.19,1.73,1.73,0,0,1-.37-1.38v-3s.09-.21-.32-.78a2.05,2.05,0,0,0-1.3-.64H199.25a2.55,2.55,0,0,0-.95.47,1.76,1.76,0,0,0-.57,1.12v3.49a.62.62,0,0,1-.21.52,3.09,3.09,0,0,1-.86.36h-3.79s-.19,0-.68.46a2.3,2.3,0,0,0-.23.9V65s0,.61.21.78a1.15,1.15,0,0,0,.7.16h3.71s.23-.11.86.36c.34.25.29.86.29.86V85.59c0,9.5,7.94,13.17,18.26,13.17,1.11,0,2.41-.06,3.79-.18a1.11,1.11,0,0,0,.86-.38,1.94,1.94,0,0,0,.19-.78V88.89a4.45,4.45,0,0,0-.12-1.3c-.35-.33-.68-.23-1-.25-5.65-.37-6.48-3.55-6.48-7.92V66.94A1.39,1.39,0,0,1,213.48,66.34Zm4.07-31.08c-8.09,0-11.48-4.71-11.48-11.55s6.19-11.24,10.54-11.24c10.23,0,12.58,7.44,12.58,11.6C229.19,33.43,220,35.26,217.55,35.26Z"/><path class="cls-1" d="M87.94,99.73c15.5,0,26.24-9.48,26.24-23.71S103.44,52.9,87.94,52.9,61.63,62.13,61.63,76.37,72.45,99.73,87.94,99.73Zm0-34.71c10.25,0,12.4,6.31,12.4,11.3,0,9.85-8.31,11.29-12.4,11.29-7.15,0-12.39-4-12.39-11.29C75.55,70.41,77.77,65,87.94,65Z"/><ellipse class="cls-1" cx="239.92" cy="88.7" rx="11.25" ry="10"/><path class="cls-1" d="M33.94,53.45c-7,0-12,2.75-14.36,5.88h-.21V54.8a2.33,2.33,0,0,0-.53-.82A2,2,0,0,0,18,53.6H6.7a2.27,2.27,0,0,0-.91.56,1.68,1.68,0,0,0-.34.71V112.8a2.27,2.27,0,0,0,.56.91,1.29,1.29,0,0,0,.49.28H18.75a2,2,0,0,0,.64-.45,1.1,1.1,0,0,0,.22-.35V92.47h.2c3.51,4.21,9.5,5.74,15.89,5.74C50,98.21,58.61,87.1,58.61,75,58.61,61.84,48.79,53.45,33.94,53.45Zm-.56,32.93c-7.74,0-12.38-4.48-12.38-11s5.49-11,12.38-11c7.74,0,12.38,4.48,12.38,11C45.76,81.74,42.41,86.38,33.38,86.38Z"/><path class="cls-1" d="M26.32,46.83c15.49,0,26.23-9.48,26.23-23.71S41.81,0,26.32,0,0,9.23,0,23.47,10.82,46.83,26.32,46.83Zm0-34.71c10.25,0,12.39,6.31,12.39,11.3,0,9.85-8.31,11.29-12.39,11.29-7.16,0-12.4-4-12.4-11.29C13.92,17.51,16.14,12.12,26.32,12.12Z"/></g></g></svg>