<?xml version="1.0" encoding="UTF-8"?>
<svg xmlns="http://www.w3.org/2000/svg" xmlns:xlink="http://www.w3.org/1999/xlink" version="1.1" viewBox="0 0 500 500">
  <defs>
    <style>
      .cls-1 {
        fill: none;
      }

      .cls-2 {
        fill: #1d1d1b;
      }

      .cls-3 {
        clip-path: url(#clippath-1);
      }

      .cls-4 {
        fill: #fff;
      }

      .cls-5 {
        clip-path: url(#clippath);
      }
    </style>
    <clipPath id="clippath">
      <rect class="cls-1" y="0" width="500" height="500"/>
    </clipPath>
    <clipPath id="clippath-1">
      <rect class="cls-1" y="0" width="500" height="500"/>
    </clipPath>
  </defs>
  <!-- Generator: Adobe Illustrator 28.6.0, SVG Export Plug-In . SVG Version: 1.2.0 Build 709)  -->
  <g>
    <g id="Lager_1">
      <g class="cls-5">
        <rect class="cls-2" y="0" width="500" height="500"/>
        <g class="cls-3">
          <path class="cls-4" d="M116.2,246.6c5.8,2.5,13.1,3.4,22.8,3.4h35.7c-14.6-2.8-25.3-11.9-25.3-48.1s10.7-45.3,25.3-48.1h-35.8c-9.7,0-17,.9-22.8,3.4-14.2,6-26.8,19.6-26.8,44.7s12.6,38.6,26.8,44.7"/>
          <path class="cls-4" d="M237.8,342.9c-5.8,2.5-13.1,3.4-22.8,3.4h-35.7c14.6-2.8,25.3-11.9,25.3-48.1s-10.7-45.3-25.3-48.1h35.8c9.7,0,17,.9,22.8,3.4,14.2,6,27.3,19.6,27.3,44.7s-13.1,38.6-27.3,44.7"/>
          <polygon class="cls-4" points="92.3 346.2 174.8 346.2 92.3 260.4 92.3 346.2"/>
          <polygon class="cls-4" points="179.2 153.8 257.6 247.5 257.6 153.8 179.2 153.8"/>
          <polygon class="cls-4" points="329.7 250 259.7 250 340.3 346.2 415 346.2 329.7 250"/>
          <path class="cls-4" d="M410.6,201.9c0,28.6-16.2,43.2-33.1,46.7-6.9,1.4-14.2,1.4-22.8,1.4h-20.9c11-1.8,18.1-11.9,18.1-48.1s-18.1-41.4-44.3-45.8c-6.1-1-10.7-1.7-17-2.3h58.2c12.1,0,21.6.8,28.9,3.4,17,5.9,33.1,20.1,33.1,44.7"/>
        </g>
      </g>
    </g>
  </g>
</svg>