<svg width="110" height="26" viewBox="0 0 110 26" fill="none" xmlns="http://www.w3.org/2000/svg">
<g clip-path="url(#clip0_1_60)">
<path d="M31.08 11.77L26.92 10.7C25.91 10.43 25.09 10.01 24.48 9.44C23.88 8.88 23.58 8.11 23.58 7.15C23.58 6 24 5.07 24.84 4.36C25.68 3.65 26.84 3.29 28.3 3.29C29.62 3.29 30.72 3.61 31.57 4.24C32.42 4.87 32.89 5.82 32.98 7.08V7.2H36.63V7.06C36.53 5.64 36.13 4.4 35.45 3.35C34.76 2.3 33.82 1.47 32.65 0.88C31.47 0.31 30.06 0 28.47 0C26.78 0 25.28 0.31 24.01 0.92C22.73 1.54 21.73 2.4 21.03 3.48C20.33 4.56 19.98 5.84 19.98 7.28C19.98 8.86 20.48 10.28 21.47 11.47C22.46 12.67 24.04 13.56 26.16 14.11L30.32 15.21C31.35 15.48 32.17 15.91 32.77 16.48C33.36 17.05 33.66 17.81 33.66 18.76C33.66 19.93 33.19 20.87 32.27 21.58C31.34 22.29 30.06 22.65 28.47 22.65C26.88 22.65 25.7 22.31 24.77 21.64C23.85 20.98 23.36 20.07 23.31 18.92V18.79H19.66V18.93C19.76 20.35 20.19 21.6 20.93 22.66C21.67 23.72 22.69 24.54 23.96 25.11C25.22 25.68 26.69 25.96 28.33 25.96C30.11 25.96 31.69 25.66 33.03 25.05C34.38 24.45 35.44 23.59 36.18 22.49C36.93 21.4 37.3 20.11 37.3 18.67C37.3 16.97 36.77 15.51 35.74 14.32C34.71 13.14 33.14 12.27 31.08 11.73" fill="#212222"/>
<path d="M85.48 0.459991H74.51V25.59H78.18V16.25H83.68L87.77 25.51L87.81 25.59H91.94L87.53 15.96C90.68 15.05 92.87 12.15 92.87 8.84999V7.84999C92.87 3.76999 89.55 0.459991 85.48 0.459991ZM89.2 8.00999V8.56999C89.2 10.98 87.24 12.94 84.83 12.94H78.19V3.64999H84.84C87.25 3.64999 89.21 5.60999 89.21 8.01999" fill="#212222"/>
<path d="M108.15 12.95H101.95L105.02 4.73L105.08 4.57L103.4 0H102.99L93.47 25.41L93.4 25.59H97.23L100.72 16.25H109.36L108.15 12.95Z" fill="#212222"/>
<path d="M8.9 0.049989L8.79 0.019989L7.48 3.63999L7.64 3.66999C9.45 3.96999 10.97 4.78999 12.16 6.11999C13.68 7.81999 14.51 10.2 14.51 12.84C14.51 15.48 13.66 17.85 12.13 19.56C10.61 21.25 8.53 22.14 6.12 22.14C4.35 22.14 2.79 21.68 1.46 20.77L1.32 20.67L0 24.33L0.1 24.39C1.89 25.42 3.92 25.93 6.13 25.93C9.59 25.93 12.73 24.57 14.96 22.09C17.12 19.69 18.31 16.4 18.31 12.83C18.31 6.43999 14.53 1.29999 8.9 0.049989Z" fill="#212222"/>
<path d="M38.02 3.91999H44.29V25.59H47.93V3.91999H54.19V0.459991H38.02V3.91999Z" fill="#212222"/>
<path d="M56.11 3.91999H62.37V25.59H66.01V3.91999H72.28V0.459991H56.11V3.91999Z" fill="#212222"/>
</g>
<defs>
<clipPath id="clip0_1_60">
<rect width="109.36" height="26" fill="white"/>
</clipPath>
</defs>
</svg>
