<?xml version="1.0" encoding="UTF-8"?>
<svg id="Decerno" xmlns="http://www.w3.org/2000/svg" viewBox="0 0 1745.48 347.57">
  <defs>
    <style>
      .cls-1 {
        stroke-width: 0px;
      }
    </style>
  </defs>
  <g id="DECERNO">
    <path class="cls-1" d="M176.96,184.96c-20.48,19.2-48.32,29.76-77.76,29.76H30.4c-16.64,0-30.4-13.44-30.4-30.08V34.88C0,18.24,14.08,4.8,30.72,4.8h68.48c29.44,0,57.28,10.56,78.08,30.08,21.12,19.84,32.64,46.72,32.64,75.2s-11.52,55.36-32.96,74.88ZM156.8,56.96c-15.36-14.4-35.84-22.4-57.6-22.4,0,0,0,.32-65.6.32-1.92,0-3.52,1.6-3.52,3.52v143.04c0,1.92,1.6,3.52,3.52,3.52h65.6c45.44,0,80.64-32.96,80.64-74.88,0-20.16-8-39.04-23.04-53.12Z"/>
    <path class="cls-1" d="M423.64,34.88h-129.92c-1.92,0-3.52,1.6-3.52,3.52v51.84h140.16c-.64,16-13.44,29.76-29.76,29.76h-110.4v61.44c0,1.92,1.6,3.52,3.52,3.52h124.16c16.64,0,30.4,13.44,30.72,30.08h-157.76c-16.64,0-30.72-13.44-30.72-30.08V34.88c0-16.64,13.76-30.08,30.4-30.08h161.92c-.32,16.32-12.8,30.08-28.8,30.08Z"/>
    <path class="cls-1" d="M674.96,62.4c-16.64-17.6-40.96-29.12-67.84-29.12-47.68,0-86.4,34.56-86.4,77.12s38.72,77.44,86.4,77.44c22.72,0,44.16-8.64,60.48-22.4,11.2-9.28,27.84-8.64,38.72.64-8.32,12.8-19.52,24-33.28,32.64-19.52,12.48-42.24,18.88-65.92,18.88-64.32,0-116.48-48-116.48-107.2S542.8,3.2,607.12,3.2c45.76,0,87.36,24.96,105.92,63.36-11.84,7.68-28.16,6.72-38.08-4.16Z"/>
    <path class="cls-1" d="M922.16,34.88h-129.92c-1.92,0-3.52,1.6-3.52,3.52v51.84h140.16c-.64,16-13.44,29.76-29.76,29.76h-110.4v61.44c0,1.92,1.6,3.52,3.52,3.52h124.16c16.64,0,30.4,13.44,30.72,30.08h-157.76c-16.64,0-30.72-13.44-30.72-30.08V34.88c0-16.64,13.76-30.08,30.4-30.08h161.92c-.32,16.32-12.8,30.08-28.8,30.08Z"/>
    <path class="cls-1" d="M1164.4,208l-61.12-73.6h-62.4v-3.52c1.6-15.04,14.08-27.2,29.12-27.2h41.92c19.2,0,34.88-3.2,45.12-9.28,9.92-5.76,14.4-13.76,14.4-25.6,0-8.32,0-33.28-59.52-33.28h-75.52c-1.92,0-3.52,1.6-3.52,3.52v148.48c0,16.32-14.08,29.76-30.72,29.76V33.28c0-15.36,13.44-28.48,29.12-28.48h80.64c78.4,0,90.24,40,90.24,64,0,22.72-10.24,40.96-29.44,52.16-8.96,5.12-19.52,8.64-31.68,10.88l64.96,78.4c-12.48,10.24-31.68,9.92-41.6-2.24Z"/>
    <path class="cls-1" d="M1431.28,217.29c-8.32,0-15.68-5.12-20.8-11.84l-.64-.32-121.92-160.64v143.36c0,16.32-14.08,29.44-30.72,29.44V33.92c0-16.64,11.84-30.08,26.24-30.4,7.68,0,14.72,3.84,19.52,9.92l.96,1.28.32.64c.32,0,.32.32.32.32l122.24,160.96V33.28c0-16.32,14.4-29.44,31.04-29.76v184.32c0,16.32-12.48,29.12-26.56,29.44Z"/>
    <path class="cls-1" d="M1626.75,218.89c-65.28,0-118.72-49.28-118.72-109.44S1561.47,0,1626.75,0s118.72,48.96,118.72,109.44-53.12,109.44-118.72,109.44ZM1626.75,30.72c-48.64,0-88,35.2-88,78.72s39.36,78.72,88,78.72,88-35.52,88-78.72-39.36-78.72-88-78.72Z"/>
  </g>
  <g>
    <path class="cls-1" d="M0,293.88h22.45c10.51,0,18.1,5.93,18.1,15.92s-7.58,15.62-18.1,15.62H6.99v21.02H0v-52.56ZM21.64,319.19c7.21,0,11.64-3.53,11.64-9.39s-4.43-9.69-11.64-9.69H6.99v19.07h14.64Z"/>
    <path class="cls-1" d="M61.97,293.88h7.13l19.75,52.56h-7.36l-4.96-14.04h-22l-4.96,14.04h-7.36l19.75-52.56ZM74.29,326.24l-3.6-10.21c-1.73-4.8-3.38-9.61-5.11-14.42h-.08c-1.73,4.8-3.38,9.61-5.11,14.42l-3.6,10.21h17.5Z"/>
    <path class="cls-1" d="M98.42,293.88h20.2c12.01,0,18.85,5.86,18.85,14.42,0,6.76-4.28,11.71-11.86,13.22v.15c6.31,2.48,8.64,7.28,10.44,13.89l3,10.89h-7.21l-2.48-9.16c-2.7-10.06-5.48-12.54-14.57-12.54h-9.39v21.7h-6.98v-52.56ZM115.17,318.58c9.76,0,15.02-3.38,15.02-9.69,0-5.56-4.13-8.79-11.64-8.79h-13.14v18.47h9.76Z"/>
    <path class="cls-1" d="M162.52,300.11h-18.02v-6.23h43.03v6.23h-18.02v46.33h-6.98v-46.33Z"/>
    <path class="cls-1" d="M218.31,320.16c0-17.57,11.94-27.41,25.68-27.41s25.68,9.84,25.68,27.41-11.94,27.41-25.68,27.41-25.68-9.84-25.68-27.41ZM243.99,341.34c10.14,0,18.4-7.06,18.4-21.17s-8.26-21.18-18.4-21.18-18.4,7.06-18.4,21.18,8.26,21.17,18.4,21.17Z"/>
    <path class="cls-1" d="M281.64,293.88h36.12v6.23h-29.06v16.89h26.13v6.23h-26.13v23.2h-7.06v-52.56Z"/>
    <path class="cls-1" d="M366.41,293.88h7.13l19.75,52.56h-7.36l-4.96-14.04h-22l-4.96,14.04h-7.36l19.75-52.56ZM378.73,326.24l-3.6-10.21c-1.73-4.8-3.38-9.61-5.11-14.42h-.08c-1.73,4.8-3.38,9.61-5.11,14.42l-3.6,10.21h17.5Z"/>
    <path class="cls-1" d="M402.86,293.88h19.37c14.72,0,25.68,9.46,25.68,26.28s-10.96,26.28-25.68,26.28h-19.37v-52.56ZM422.23,340.21c10.36,0,18.4-6.83,18.4-20.05s-8.04-20.05-18.4-20.05h-12.39v40.1h12.39Z"/>
    <path class="cls-1" d="M459.84,293.88h19.37c14.72,0,25.68,9.46,25.68,26.28s-10.96,26.28-25.68,26.28h-19.37v-52.56ZM479.21,340.21c10.36,0,18.4-6.83,18.4-20.05s-8.04-20.05-18.4-20.05h-12.39v40.1h12.39Z"/>
    <path class="cls-1" d="M523.88,303.27h-.15l.07,9.01v34.17h-6.98v-52.56h9.39l27.93,43.1h.15l-.08-9.01v-34.09h6.91v52.56h-9.31l-27.93-43.18Z"/>
    <path class="cls-1" d="M573.04,320.16c0-17.57,11.94-27.41,25.68-27.41s25.68,9.84,25.68,27.41-11.94,27.41-25.68,27.41-25.68-9.84-25.68-27.41ZM598.72,341.34c10.14,0,18.4-7.06,18.4-21.17s-8.26-21.18-18.4-21.18-18.4,7.06-18.4,21.18,8.26,21.17,18.4,21.17Z"/>
    <path class="cls-1" d="M636.37,293.88h19.37c14.72,0,25.68,9.46,25.68,26.28s-10.96,26.28-25.68,26.28h-19.37v-52.56ZM655.75,340.21c10.36,0,18.4-6.83,18.4-20.05s-8.04-20.05-18.4-20.05h-12.39v40.1h12.39Z"/>
    <path class="cls-1" d="M693.35,293.88h36.12v6.23h-29.06v16.89h26.13v6.23h-26.13v16.97h29.13v6.23h-36.19v-52.56Z"/>
    <path class="cls-1" d="M760.71,320.09c0-16.14,9.69-27.33,25.83-27.33,14.94,0,23.65,9.61,24.18,21.25h-7.28c-.3-8.33-6.83-15.02-16.89-15.02-11.49,0-18.55,8.79-18.55,21.1,0,13.07,8.18,21.25,18.55,21.25s16.59-8.03,17.57-14.42h-18.32v-6.23h20.95c2.63,0,4.13,1.5,4.13,3.98v21.78h-6.83l1.5-11.04h-.15c-3.38,7.58-9.91,12.16-19.6,12.16-14.64,0-25.08-10.81-25.08-27.48Z"/>
    <path class="cls-1" d="M824.59,293.88h20.2c12.01,0,18.85,5.86,18.85,14.42,0,6.76-4.28,11.71-11.86,13.22v.15c6.31,2.48,8.63,7.28,10.44,13.89l3,10.89h-7.21l-2.48-9.16c-2.7-10.06-5.48-12.54-14.57-12.54h-9.39v21.7h-6.98v-52.56ZM841.34,318.58c9.76,0,15.02-3.38,15.02-9.69,0-5.56-4.13-8.79-11.64-8.79h-13.14v18.47h9.76Z"/>
    <path class="cls-1" d="M872.57,320.16c0-17.57,11.94-27.41,25.68-27.41s25.68,9.84,25.68,27.41-11.94,27.41-25.68,27.41-25.68-9.84-25.68-27.41ZM898.25,341.34c10.14,0,18.4-7.06,18.4-21.17s-8.26-21.18-18.4-21.18-18.4,7.06-18.4,21.18,8.26,21.17,18.4,21.17Z"/>
    <path class="cls-1" d="M935.57,326.24v-32.36h6.98v32.21c0,10.06,6.16,15.24,13.74,15.24s13.74-5.18,13.74-15.24v-32.21h6.98v32.36c0,13.74-9.01,21.32-20.72,21.32s-20.72-7.58-20.72-21.32Z"/>
    <path class="cls-1" d="M991.54,293.88h22.45c10.51,0,18.1,5.93,18.1,15.92s-7.58,15.62-18.1,15.62h-15.47v21.02h-6.98v-52.56ZM1013.16,319.19c7.21,0,11.64-3.53,11.64-9.39s-4.43-9.69-11.64-9.69h-14.64v19.07h14.64Z"/>
  </g>
</svg>