<?xml version="1.0" encoding="UTF-8"?>
<svg xmlns="http://www.w3.org/2000/svg" version="1.1" viewBox="0 0 370 350">
  <defs>
    <style>
      .cls-1 {
        fill: #0089cf;
      }
    </style>
  </defs>
  <!-- Generator: Adobe Illustrator 28.6.0, SVG Export Plug-In . SVG Version: 1.2.0 Build 709)  -->
  <g>
    <g id="Layer_1">
      <path class="cls-1" d="M200.953,60.834c-53.378,0-96.629,43.524-96.629,96.902s43.25,96.629,96.629,96.629,96.629-43.25,96.629-96.629-42.977-96.902-96.629-96.902ZM200.953,241.5c-46.261,0-83.763-37.502-83.763-83.763s37.502-83.763,83.763-83.763,83.763,37.502,83.763,83.763c.274,46.261-37.228,83.763-83.763,83.763ZM260.901,134.076l.274,64.448h-55.842l53.378-76.372s2.19,4.476,2.19,11.925ZM195.478,118.319l-55.842,80.478v-60.687c0-21.186,15.295-33.204,30.932-33.204,17.798,0,24.363,12.866,24.91,13.413ZM253.236,115.034l-58.853,83.763h-45.166c18.888-26.826,39.56-56.883,49.414-70.843,9.439-13.467,14.397-23.048,32.98-23.048,14.354,0,21.351,9.854,21.625,10.128ZM81.283,294.11h9.252v42.699h-7.828v-29.534l-11.92,23.485h-6.049l-11.92-23.485v29.534h-7.828v-42.699h9.252l13.699,27.043,13.344-27.043ZM118.467,307.81c-2.313-1.423-4.982-1.957-7.828-1.957s-5.515.712-7.828,1.957c-2.313,1.423-4.27,3.203-5.515,5.515-1.423,2.313-2.135,5.16-2.135,8.184,0,3.203.712,5.871,1.957,8.184,1.423,2.313,3.202,4.27,5.515,5.515,2.313,1.423,4.982,1.957,7.828,1.957s5.515-.712,7.828-1.957c2.313-1.423,4.27-3.203,5.515-5.515,1.423-2.313,1.957-5.16,1.957-8.184,0-3.202-.712-5.871-1.957-8.184-1.245-2.313-3.024-4.092-5.337-5.515ZM115.798,328.448c-1.423,1.601-3.203,2.313-5.337,2.313-1.957,0-3.736-.712-5.337-2.313-1.423-1.601-2.313-3.736-2.313-6.761s.712-5.337,2.313-6.761c1.423-1.601,3.203-2.313,5.337-2.313,1.957,0,3.736.712,5.159,2.313,1.423,1.601,2.313,3.736,2.313,6.761.178,3.025-.534,5.16-2.135,6.761ZM156.541,309.589c1.957,2.313,3.025,5.693,3.025,10.319v17.08h-7.828v-16.368c0-2.669-.534-4.626-1.601-6.049-1.068-1.423-2.669-2.135-4.982-2.135-2.135,0-3.914.712-5.337,2.313-1.423,1.423-2.135,3.558-2.135,6.405v15.656h-7.828v-30.246h6.939l.534,5.16c.89-1.779,2.313-3.203,4.092-4.27s3.914-1.601,6.227-1.601c3.736,0,6.761,1.067,8.896,3.736ZM164.547,306.564h7.828v30.246h-7.828v-30.246ZM172.019,294.11c.89.89,1.423,1.957,1.423,3.202s-.534,2.313-1.423,3.203c-.89.889-2.135,1.245-3.558,1.245s-2.669-.356-3.558-1.245c-.89-.89-1.423-1.957-1.423-3.203s.534-2.313,1.423-3.202,2.135-1.246,3.558-1.246,2.669.356,3.558,1.246ZM188.21,306.564h8.184v6.583h-8.184v13.166c0,1.423.178,2.491.89,3.025.534.534,1.601.89,3.202.89h3.736v6.583h-5.337c-3.203,0-5.693-.712-7.65-2.313-1.957-1.423-2.847-4.27-2.847-8.184v-13.166h-5.159v-6.583h5.159l.89-8.184h7.117v8.184ZM221.302,307.81c-2.313-1.423-4.982-1.957-7.828-1.957s-5.515.712-7.828,1.957c-2.313,1.423-4.27,3.203-5.515,5.515-1.423,2.313-2.135,5.16-2.135,8.184,0,3.203.712,5.871,1.957,8.184,1.423,2.313,3.202,4.27,5.515,5.515,2.313,1.423,4.982,1.957,7.828,1.957s5.515-.712,7.828-1.957c2.313-1.423,4.27-3.203,5.515-5.515,1.423-2.313,1.957-5.16,1.957-8.184,0-3.202-.712-5.871-1.957-8.184-1.067-2.313-3.024-4.092-5.337-5.515ZM218.633,328.448c-1.423,1.601-3.203,2.313-5.337,2.313-1.957,0-3.736-.712-5.337-2.313-1.423-1.601-2.313-3.736-2.313-6.761s.712-5.337,2.313-6.761c1.423-1.601,3.203-2.313,5.337-2.313,1.957,0,3.736.712,5.159,2.313,1.423,1.601,2.313,3.736,2.313,6.761.178,3.025-.534,5.16-2.135,6.761ZM244.964,307.81c1.957-1.245,4.27-1.779,6.761-1.779v8.184h-2.135c-1.779,0-3.202.178-4.626.712-1.423.534-2.491,1.423-3.202,2.669-.712,1.423-1.067,3.202-1.067,5.515v13.699h-7.828v-30.246h6.939l.712,5.693c1.067-1.957,2.491-3.558,4.448-4.448ZM265.602,294.11h27.933v6.227h-20.104v11.742h18.325v6.049h-18.325v12.454h20.104v6.227h-27.933v-42.699ZM326.805,314.215c1.423-2.135,1.957-4.448,1.957-7.116,0-2.313-.534-4.626-1.601-6.583-1.067-1.957-2.669-3.558-4.982-4.626-2.135-1.246-4.982-1.779-8.362-1.779h-15.656v42.699h7.828v-16.902h6.405l8.006,16.902h8.896l-8.896-17.792c3.025-1.067,5.16-2.669,6.405-4.804ZM319.155,312.257c-1.245,1.246-3.202,1.957-5.693,1.957h-7.295v-13.521h7.295c2.669,0,4.626.534,5.871,1.779,1.246,1.245,1.779,2.847,1.779,4.804-.178,2.135-.712,3.736-1.957,4.982ZM362.744,300.159c-1.067-1.601-2.669-3.202-4.982-4.448-2.313-1.067-4.982-1.779-8.54-1.779h-15.834v42.699h7.828v-16.546h8.006c3.558,0,6.405-.534,8.54-1.779,2.313-1.246,3.914-2.847,4.982-4.804,1.067-1.957,1.601-4.092,1.601-6.583s-.534-4.804-1.601-6.761ZM354.737,312.08c-1.245,1.245-3.202,1.779-5.871,1.779h-7.472v-13.522h7.472c2.669,0,4.626.534,5.871,1.779s1.779,2.847,1.779,4.982-.534,3.736-1.779,4.982Z"/>
    </g>
  </g>
</svg>