<?xml version="1.0" encoding="utf-8"?>
<!-- Generator: Adobe Illustrator 24.1.3, SVG Export Plug-In . SVG Version: 6.00 Build 0)  -->
<svg version="1.1" id="Layer_1" xmlns="http://www.w3.org/2000/svg" xmlns:xlink="http://www.w3.org/1999/xlink" x="0px" y="0px"
	 viewBox="0 0 1475 635" style="enable-background:new 0 0 1475 635;" xml:space="preserve">
<path d="M921.09,593.07l43.59-160.61h78.01l43.6,160.61h-43.6l-8.03-32.12h-61.95l-8.03,32.12H921.09z M981.89,524.23h43.6
	l-13.77-52.77h-8.94h-7.12L981.89,524.23z"/>
<path d="M512.37,528.96v-96.37h42.45v95.22c0,9.64,2.67,17.21,8.03,22.71c5.35,5.51,12.62,8.26,21.8,8.26
	c9.18,0,16.44-2.75,21.8-8.26c5.35-5.51,8.03-13.08,8.03-22.71v-95.22h42.45v96.37c0,20.8-6.5,37.48-19.5,50.02
	c-13,12.54-30.6,18.81-52.77,18.81c-22.18,0-39.77-6.27-52.77-18.81C518.87,566.43,512.37,549.76,512.37,528.96z"/>
<path d="M698.92,593.2V432.59h59.66l35.96,88.7l36.31-88.7h59.66V593.2h-42.45l1.15-112.43l-30.98,80.14H771.2l-30.72-80.14
	l0.9,112.43H698.92z"/>
<path d="M1116.63,593.2V432.59h42.45V593.2H1116.63z"/>
<path d="M1201.05,593.2V432.59h51.63l56.21,100.96l-1.15-100.96h42.45V593.2h-51.62l-56.21-100.96l1.15,100.96H1201.05z"/>
<rect x="1392.22" y="432.6" width="42" height="42"/>
</svg>
