<?xml version="1.0" encoding="utf-8"?>
<!-- Generator: Adobe Illustrator 24.0.1, SVG Export Plug-In . SVG Version: 6.00 Build 0)  -->
<svg version="1.1" id="Layer_1" xmlns="http://www.w3.org/2000/svg" xmlns:xlink="http://www.w3.org/1999/xlink" x="0px" y="0px"
	 viewBox="0 0 2000 530.6" style="enable-background:new 0 0 2000 530.6;" xml:space="preserve">
<style type="text/css">
	.st0{fill:#FFFFFF;}
</style>
<g>
	<g>
		<g>
			<path class="st0" d="M407.6,110.3c0-25.5,0-28.1-12.8-30l-7-0.6c-1.9-1.9-1.9-5.7,0-7.7c12.1-1.3,31.2-2.6,59.9-2.6
				c22.3,0,39.5,1.9,51.7,8.9c12.1,7,18.5,17.9,18.5,34.4c0,15.3-11.5,27.4-30,33.2c-1.3,0-1.3,1.3-1.3,1.3c0,0.6,0.6,1.3,1.9,1.3
				c19.8,3.2,42.1,15.9,42.1,45.9c0,12.1-3.8,25.5-15.9,35.1c-12.1,10.2-30,14.7-59.3,14.7c-11.5,0-22.3-0.6-32.5-0.6
				c-11.5,0-23.6,0-35.7,0.6c-1.9-1.3-2.6-5.7-0.6-7.7l5.7-0.6c12.1-1.3,14.7-2.6,14.7-30v-95.7H407.6z M438.2,139c0,7,0.6,7,11.5,7
				c24.9,0,35.7-9.6,35.7-33.2c0-23-17.2-32.5-33.2-32.5c-13.4,0-14,0.6-14,10.8C438.2,91.2,438.2,139,438.2,139z M438.2,200.9
				c0,23.6,2.6,33.8,25.5,33.8c17.9,0,34.4-12.1,34.4-35.1c0-26.8-18.5-43.4-47.8-43.4c-11.5,0-12.1,1.3-12.1,7V200.9z"/>
			<path class="st0" d="M757.7,157.5c0,51.7-39.5,90.6-92.5,90.6c-59.3,0-93.7-41.5-93.7-88.6c0-53.6,38.9-93.1,93.7-93.1
				C726.5,66.3,757.7,110.3,757.7,157.5z M607.8,151.8c0,36.4,15.3,85.5,60.6,85.5c30,0,54.2-22.3,54.2-75.3
				c0-39.5-17.9-85.5-59.3-85.5C635.9,77.2,607.8,96.3,607.8,151.8z"/>
			<path class="st0" d="M834.9,179.8c-7,0-6.4,0-8.9,7l-10.8,31.2c-5.1,15.3-4.5,15.9,5.7,17.9l7.7,1.3c1.9,1.9,1.3,6.4-0.6,7.7
				c-8.3-0.6-17.2-0.6-28.1-0.6c-8.9,0-16.6,0-26.1,0.6c-1.9-1.3-1.9-5.1,0-7.7l7.7-1.3c7.7-1.3,10.2-3.2,14.7-12.1
				c3.2-7,7.7-17.9,12.8-31.9l35.7-93.7c3.2-8.3,5.7-14.7,5.1-19.1c8.9-1.9,17.9-12.8,18.5-12.8c1.9,0,3.2,0.6,4.5,1.9
				c4.5,12.1,7.7,24.2,12.1,35.7l37.6,109.7c5.7,17.9,7.7,19.1,21,21.7l3.8,0.6c1.9,1.9,1.9,6.4,0,7.7c-10.8-0.6-20.4-0.6-34.4-0.6
				c-11.5,0-23,0.6-31.9,0.6c-1.9-1.3-2.6-5.7-0.6-7.7l5.7-0.6c9.6-1.3,10.8-3.2,7-14l-12.1-35.7c-2.6-7-3.2-7-10.8-7h-35.1V179.8z
				 M866.8,167.7c7.7,0,8.3-0.6,6.4-7l-10.8-31.2c-4.5-14-5.7-19.1-7.7-21H854c-1.3,1.9-3.2,8.3-7.7,21l-10.8,30.6
				c-2.6,7.7-1.9,7.7,4.5,7.7H866.8z"/>
			<path class="st0" d="M996.2,110.3c0-25.5,0-28.1-12.8-30l-7-0.6c-1.9-1.9-1.9-5.7,0-7.7c16.6-1.3,38.9-2.6,60.6-2.6
				c20.4,0,38.3,2.6,49.7,8.9c13.4,7,23,19.1,23,38.3c0,24.2-18.5,36.4-31.2,41.5c-1.3,0.6-1.3,3.2,0,4.5c21,35.7,34.4,58,46.6,68.2
				c7.7,6.4,14.7,7.7,17.9,8.3c1.3,1.3,1.3,3.8,0.6,5.1c-3.2,0.6-8.3,1.3-17.2,1.3c-25.5,0-38.9-10.2-54.8-34.4
				c-7-10.8-14.7-25.5-21-35.7c-4.5-7.7-7.7-8.9-16.6-8.9c-7.7,0-8.3,0-8.3,5.7V206c0,28.1,2.6,28.7,14.7,30l5.7,0.6
				c1.9,1.9,1.3,6.4-0.6,7.7c-11.5-0.6-23.6-0.6-35.1-0.6c-11.5,0-23.6,0-35.7,0.6c-1.9-1.3-3.2-5.7-0.6-7.7l5.7-0.6
				c12.1-1.3,14.7-2.6,14.7-30v-95.7H996.2z M1026.2,148c0,8.3,0,8.9,12.8,8.9c25.5,0,37.6-12.8,37.6-37.6c0-21-13.4-38.9-36.4-38.9
				c-13.4,0-14,0.6-14,12.8V148z"/>
			<path class="st0" d="M1188.2,110.3c0-25.5,0-28.7-12.8-30l-5.7-0.6c-1.9-1.3-1.9-5.7,0-7.7c19.1-1.3,40.2-2.6,65.7-2.6
				c24.9,0,42.7,1.9,61.9,8.9c31.2,11.5,53.6,39.5,53.6,78.4c0,29.3-14.7,59.3-47.2,75.9c-18.5,9.6-41.5,12.8-65,12.8
				c-15.9,0-28.1-1.3-38.3-1.3c-10.2,0-21.7,0-33.2,0.6c-1.9-1.3-2.6-5.7-0.6-7.7l5.7-0.6c12.1-1.3,14.7-2.6,14.7-30v-96.3H1188.2z
				 M1218.1,195.8c0,25.5,1.9,38.9,30,38.9c46.6,0,67.6-33.2,67.6-77.2c0-52.3-30-77.2-74-77.2c-10.8,0-19.1,1.9-21,3.8
				c-1.9,1.3-1.9,7-1.9,19.1v92.5H1218.1z"/>
		</g>
		<g>
			<path class="st0" d="M431.8,433.7c0,19.1,1.3,20.4,10.2,21.7l5.7,1.3c1.9,1.3,1.3,5.7,0,7c-10.8-0.6-20.4-0.6-30-0.6
				c-9.6,0-19.8,0-30.6,0.6c-1.9-1.3-1.9-5.7,0-7l5.7-1.3c8.9-1.9,10.2-3.2,10.2-21.7v-74c0-19.1-1.3-20.4-10.2-21.7l-5.7-1.3
				c-1.9-1.3-1.9-5.7,0-7c10.8,0.6,21,0.6,30.6,0.6c9.6,0,19.1,0,30-0.6c1.9,1.3,1.9,5.7,0,7l-5.1,1.3c-8.9,1.9-10.2,3.2-10.2,21.7
				v74H431.8z"/>
			<path class="st0" d="M600.8,428.6c0,12.8,0,25.5,0.6,32.5c-1.9,1.9-7.7,4.5-12.1,4.5c0,0-7-10.2-15.9-21.7l-46.6-57.4
				c-11.5-14-18.5-23-21.7-25.5c-1.3,1.9-1.3,5.1-1.3,12.8v38.9c0,15.9,0.6,31.2,3.2,37c1.9,4.5,6.4,5.7,11.5,6.4l5.7,0.6
				c1.9,1.9,1.3,5.7,0,7c-10.8-0.6-19.1-0.6-26.8-0.6s-14.7,0-22.3,0.6c-1.3-1.3-1.9-5.1,0-7l3.2-0.6c5.1-1.3,9.6-2.6,10.8-6.4
				c1.9-5.1,2.6-20.4,2.6-37v-51c0-10.8,0-14-1.3-17.2c-1.9-3.2-4.5-5.7-11.5-7l-5.7-0.6c-1.3-1.9-1.3-6.4,0.6-7
				c9.6,0.6,19.1,0.6,27.4,0.6c7,0,12.8,0,16.6-0.6c1.9,8.9,15.3,24.2,33.2,45.9l16.6,19.8c8.9,10.2,14.7,17.2,19.1,22.3
				c0.6-1.9,0.6-5.1,0.6-8.9v-27.4c0-15.9-0.6-31.2-3.2-37c-1.9-4.5-6.4-5.7-11.5-6.4l-5.1-0.6c-1.9-1.9-1.3-5.7,0-7
				c10.8,0.6,18.5,0.6,26.8,0.6c7.7,0,14.7,0,22.3-0.6c1.3,1.3,1.9,5.1,0,7l-3.8,0.6c-5.1,0.6-8.9,2.6-10.8,6.4
				c-1.9,5.1-3.2,20.4-3.2,37v47.2H600.8z"/>
			<path class="st0" d="M686.3,345.6c0-5.1,0-5.7-5.1-5.7h-12.1c-14.7,0-19.1,8.3-24.9,23c-2.6,1.3-6.4,0.6-7.7-1.9
				c4.5-14,5.1-26.1,6.4-33.8c0.6-0.6,1.9-1.3,2.6-1.3c1.3,0,1.9,0,2.6,0.6c1.3,3.2,1.9,4.5,16.6,4.5h75.3c13.4,0,15.9,0,17.9-4.5
				c0.6-0.6,1.3-0.6,2.6-0.6c1.3,0,2.6,0.6,3.2,1.3c-1.9,7-3.2,23-3.2,34.4c-1.3,1.9-6.4,1.9-7.7,0.6c-3.2-12.8-6.4-22.3-21-22.3
				h-12.1c-5.1,0-5.1,0.6-5.1,5.7v88c0,18.5,1.3,20.4,10.2,21.7l8.3,1.3c1.3,1.3,1.3,5.7,0,7c-12.8-0.6-23-0.6-31.9-0.6
				c-9.6,0-19.8,0-33.8,0.6c-1.9-1.3-1.9-5.7,0-7l8.9-1.3c8.9-1.3,10.2-2.6,10.2-21.7V345.6z"/>
			<path class="st0" d="M831,382.6c0,5.7,0,5.7,5.7,5.7h14c10.2,0,12.8-1.3,14.7-10.8l1.3-5.1c1.3-1.9,6.4-1.9,7.7,0
				c-0.6,6.4-0.6,13.4-0.6,21c0,7.7,0,14.7,0.6,21c-1.3,1.9-5.7,1.9-7.7,0l-1.3-5.1c-1.9-9.6-4.5-11.5-14.7-11.5h-14
				c-5.1,0-5.7,0-5.7,6.4v23.6c0,8.9,0.6,15.9,3.2,19.1c2.6,3.8,6.4,5.1,21,5.1c17.2,0,24.2-0.6,35.1-23c1.9-1.9,6.4-1.3,7.7,1.3
				c-0.6,10.2-5.7,26.8-8.3,31.9c-10.8-0.6-30-0.6-46.6-0.6H817c-9.6,0-19.1,0-34.4,0.6c-1.9-1.3-1.9-5.7,0-7l9.6-1.3
				c8.9-1.3,10.2-2.6,10.2-21v-74c0-18.5-1.3-19.1-10.2-21l-5.1-1.3c-1.9-1.3-1.9-5.7,0.6-7c9.6,0.6,19.1,0.6,28.7,0.6h42.7
				c12.8,0,24.2,0,26.8-0.6c0,3.2,1.9,17.9,2.6,31.2c-0.6,1.9-5.1,2.6-7.7,0.6c-1.9-7-5.1-12.8-7.7-15.9c-3.8-3.8-9.6-6.4-19.8-6.4
				h-15.9c-6.4,0-6.4,0.6-6.4,7.7L831,382.6L831,382.6z"/>
			<path class="st0" d="M965,429.2c0,9.6,0.6,15.9,3.2,19.1c2.6,3.2,6.4,5.1,21,5.1c18.5,0,23.6-0.6,35.7-23.6
				c1.9-1.9,6.4-1.3,7.7,1.3c-1.3,10.2-5.7,26.8-8.9,32.5c-10.8-0.6-30-0.6-46.6-0.6h-26.8c-8.9,0-19.1,0-31.9,0.6
				c-1.9-1.3-1.9-5.7-0.6-7l7.7-1.3c8.9-1.3,10.2-2.6,10.2-21.7V359c0-18.5-1.3-20.4-10.2-21.7l-5.7-0.6c-1.9-1.3-1.9-5.7,0.6-7
				c10.2,0.6,20.4,0.6,30,0.6c9.6,0,19.8,0,30-0.6c1.9,1.3,1.9,5.7,0,7l-5.1,0.6c-8.9,1.3-10.2,3.2-10.2,21.7L965,429.2L965,429.2z"
				/>
			<path class="st0" d="M1097,429.2c0,9.6,0.6,15.9,3.2,19.1s6.4,5.1,21,5.1c18.5,0,23.6-0.6,35.7-23.6c1.9-1.9,6.4-1.3,7.7,1.3
				c-1.3,10.2-5.7,26.8-8.9,32.5c-10.8-0.6-30-0.6-46.6-0.6h-26.8c-8.9,0-19.1,0-31.9,0.6c-1.9-1.3-1.9-5.7-0.6-7l7.7-1.3
				c8.9-1.3,10.2-2.6,10.2-21.7V359c0-18.5-1.3-20.4-10.2-21.7l-5.7-0.6c-1.9-1.3-1.9-5.7,0.6-7c10.2,0.6,20.4,0.6,30,0.6
				c9.6,0,19.8,0,30-0.6c1.9,1.3,1.9,5.7,0,7l-5.1,0.6c-8.9,1.3-10.2,3.2-10.2,21.7V429.2z"/>
			<path class="st0" d="M1229.6,433.7c0,19.1,1.3,20.4,10.2,21.7l5.7,1.3c1.9,1.3,1.3,5.7,0,7c-10.8-0.6-20.4-0.6-30-0.6
				s-19.8,0-30.6,0.6c-1.9-1.3-1.9-5.7,0-7l5.7-1.3c8.9-1.9,10.2-3.2,10.2-21.7v-74c0-19.1-1.3-20.4-10.2-21.7l-5.7-1.3
				c-1.9-1.3-1.9-5.7,0-7c10.8,0.6,21,0.6,30.6,0.6s19.1,0,30-0.6c1.9,1.3,1.9,5.7,0,7l-5.7,1.3c-8.9,1.9-10.2,3.2-10.2,21.7V433.7z
				"/>
			<path class="st0" d="M1400.5,440c0,8.3,0.6,12.1,4.5,13.4c0.6,0.6,0.6,4.5-0.6,5.1c-3.2,0.6-8.9,1.3-14,3.2
				c-7,1.9-24.2,5.1-35.7,5.1c-13.4,0-25.5-1.3-39.5-7c-23.6-9.6-39.5-31.9-39.5-60.6c0-24.9,11.5-47.2,35.1-60.6
				c13.4-7.7,30-10.8,47.2-10.8c22.3,0,33.2,5.1,39.5,5.1c0.6,5.7,0.6,19.8,2.6,32.5c-0.6,1.9-6.4,2.6-7.7,0.6
				c-6.4-19.1-19.1-28.1-37.6-28.1c-31.9,0-47.2,26.8-47.2,58c0,28.7,9.6,45.9,23,54.8c9.6,6.4,19.8,7.7,27.4,7.7
				c11.5,0,14-1.9,14-15.3v-12.8c0-10.8-1.3-12.1-10.8-13.4l-8.9-1.3c-1.9-1.3-1.9-5.7,0-7c14,0.6,24.2,0.6,33.8,0.6
				s19.1,0,26.1-0.6c1.9,1.3,1.9,5.7,0,7l-4.5,0.6c-5.7,1.3-7,3.2-7,14L1400.5,440L1400.5,440z"/>
			<path class="st0" d="M1480.9,382.6c0,5.7,0,5.7,5.7,5.7h14c10.2,0,12.8-1.3,14.7-10.8l1.3-5.1c1.3-1.9,6.4-1.9,7.7,0
				c-0.6,6.4-0.6,13.4-0.6,21c0,7.7,0,14.7,0.6,21c-1.3,1.9-5.7,1.9-7.7,0l-1.3-5.1c-1.9-9.6-4.5-11.5-14.7-11.5h-14
				c-5.1,0-5.7,0-5.7,6.4v23.6c0,8.9,0.6,15.9,3.2,19.1c2.6,3.8,6.4,5.1,21,5.1c17.2,0,24.2-0.6,35.1-23c1.9-1.9,6.4-1.3,7.7,1.3
				c-0.6,10.2-5.7,26.8-8.3,31.9c-10.8-0.6-30-0.6-46.6-0.6h-26.1c-9.6,0-19.1,0-34.4,0.6c-1.9-1.3-1.9-5.7,0-7l9.6-1.3
				c8.9-1.3,10.2-2.6,10.2-21v-74c0-18.5-1.3-19.1-10.2-21l-5.1-1.3c-1.9-1.3-1.9-5.7,0.6-7c9.6,0.6,19.1,0.6,28.7,0.6h42.7
				c12.8,0,24.2,0,26.8-0.6c0,3.2,1.9,17.9,2.6,31.2c-0.6,1.9-5.1,2.6-7.7,0.6c-1.9-7-5.1-12.8-7.7-15.9c-3.8-3.8-9.6-6.4-19.8-6.4
				h-15.9c-6.4,0-6.4,0.6-6.4,7.7L1480.9,382.6L1480.9,382.6z"/>
			<path class="st0" d="M1693.9,428.6c0,12.8,0,25.5,0.6,32.5c-1.3,2.6-7,4.5-12.1,4.5c0,0-7-10.2-15.9-21.7l-46.6-57.4
				c-11.5-14-18.5-23-21.7-25.5c-1.3,1.9-1.3,5.1-1.3,12.8v38.9c0,15.9,0.6,31.2,3.2,37c1.9,4.5,6.4,5.7,11.5,6.4l5.7,0.6
				c1.9,1.9,1.3,5.7,0,7c-10.8-0.6-19.1-0.6-26.8-0.6s-14.7,0-22.3,0.6c-1.3-1.3-1.9-5.1,0-7l3.2-0.6c5.1-1.3,9.6-2.6,10.8-6.4
				c1.9-5.1,2.6-20.4,2.6-37v-51c0-10.8,0-14-1.3-17.2c-1.9-3.2-4.5-5.7-11.5-7l-5.7-0.6c-1.3-1.9-1.3-6.4,0.6-7
				c9.6,0.6,19.1,0.6,27.4,0.6c7,0,12.8,0,16.6-0.6c1.9,8.9,15.3,24.2,33.2,45.9l16.6,19.8c8.9,10.2,14.7,17.2,19.1,22.3
				c0.6-1.9,0.6-5.1,0.6-8.9v-27.4c0-15.9-0.6-31.2-3.2-37c-1.9-4.5-6.4-5.7-11.5-6.4l-5.1-0.6c-1.9-1.9-1.3-5.7,0-7
				c10.8,0.6,18.5,0.6,26.8,0.6c7.7,0,14.7,0,22.3-0.6c1.3,1.3,1.9,5.1,0,7l-3.8,0.6c-5.1,0.6-8.9,2.6-10.8,6.4
				c-1.9,5.1-3.2,20.4-3.2,37v47.2H1693.9z"/>
			<path class="st0" d="M1857.8,332.3c0,3.8,0.6,19.8,2.6,31.2c-0.6,2.6-6.4,3.2-7.7,1.3c-5.1-18.5-18.5-28.7-37.6-28.7
				c-22.3,0-45.9,19.1-45.9,58.7c0,40.2,23,61.2,47.2,61.2s35.7-17.2,40.8-31.2c1.9-1.9,6.4-1.3,7.7,1.3
				c-1.3,14.7-5.1,26.8-7.7,31.2c-10.8,3.2-24.9,7.7-40.8,7.7c-19.8,0-39.5-4.5-54.2-15.3c-14.7-10.8-25.5-27.4-25.5-52.3
				c0-24.2,10.2-41.5,24.2-52.9c14-12.1,34.4-17.9,55.5-17.9C1836.7,327.2,1851.4,331.6,1857.8,332.3z"/>
			<path class="st0" d="M1933,382.6c0,5.7,0,5.7,5.7,5.7h14c10.2,0,12.8-1.3,14.7-10.8l1.3-5.1c1.3-1.9,6.4-1.9,7.7,0
				c-0.6,6.4-0.6,13.4-0.6,21c0,7.7,0,14.7,0.6,21c-1.3,1.9-5.7,1.9-7.7,0l-1.3-5.1c-1.9-9.6-4.5-11.5-14.7-11.5h-14
				c-5.1,0-5.7,0-5.7,6.4v23.6c0,8.9,0.6,15.9,3.2,19.1c2.6,3.8,6.4,5.1,21,5.1c17.2,0,24.2-0.6,35.1-23c1.9-1.9,6.4-1.3,7.7,1.3
				c-0.6,10.2-5.7,26.8-8.3,31.9c-10.8-0.6-30-0.6-46.6-0.6h-25.5c-9.6,0-19.1,0-34.4,0.6c-1.9-1.3-1.9-5.7,0-7l9.6-1.3
				c8.9-1.3,10.2-2.6,10.2-21v-74c0-18.5-1.3-19.1-10.2-21l-5.1-1.3c-1.9-1.3-1.9-5.7,0.6-7c9.6,0.6,19.1,0.6,28.7,0.6h42.7
				c12.8,0,24.2,0,26.8-0.6c0,3.2,1.9,17.9,2.6,31.2c-0.6,1.9-5.1,2.6-7.7,0.6c-1.9-7-5.1-12.8-7.7-15.9c-3.8-3.8-9.6-6.4-19.8-6.4
				h-15.9c-6.4,0-6.4,0.6-6.4,7.7v35.7H1933z"/>
		</g>
	</g>
	<g>
		<path class="st0" d="M57.5,371.8c0,30.6,2.6,31.2,15.9,33.2l6.4,0.6c1.9,1.9,1.9,7-0.6,8.3c-12.8-0.6-25.5-0.6-38.3-0.6
			s-26.1,0-38.9,0.6c-2.6-1.3-2.6-6.4-0.6-8.3l6.4-0.6c13.4-1.9,15.9-2.6,15.9-33.2v-213c0-30.6-2.6-31.2-15.9-33.2L1.4,125
			c-1.9-1.9-1.9-7,0.6-8.3c12.8,0.6,25.5,0.6,38.9,0.6c12.8,0,25.5,0,38.3-0.6c2.6,1.3,2.6,6.4,0.6,8.3l-6.4,0.6
			c-13.4,1.9-15.9,2.6-15.9,33.2V371.8z"/>
		<path class="st0" d="M143.6,475.7c0,39.5,3.2,40.8,21,42.7l8.3,1.3c2.6,2.6,2.6,9.6-0.6,10.8c-16.6-0.6-33.2-1.3-49.7-1.3
			c-16.6,0-33.8,0.6-50.4,1.3c-3.2-1.3-3.2-8.3-0.6-10.8l8.3-1.3c17.2-2.6,21-3.2,21-42.7V54.8c0-39.5-3.2-40.8-21-42.7l-8.3-1.3
			C69,8.3,69,1.3,72.2,0c16.6,0.6,33.2,1.3,50.4,1.3c16.6,0,33.2-0.6,49.7-1.3c3.2,1.3,3.2,8.3,0.6,10.8l-8.3,1.3
			c-17.2,1.9-21,3.2-21,42.7C143.6,54.8,143.6,475.7,143.6,475.7z"/>
		<path class="st0" d="M219.5,371.8c0,30.6,2.6,31.2,15.9,33.2l6.4,0.6c1.9,1.9,1.9,7-0.6,8.3c-12.8-0.6-25.5-0.6-38.3-0.6
			c-12.8,0-26.1,0-38.9,0.6c-2.6-1.3-2.6-6.4-0.6-8.3l6.4-0.6c13.4-1.9,15.9-2.6,15.9-33.2v-213c0-30.6-2.6-31.2-15.9-33.2l-6.4-0.6
			c-1.9-1.9-1.9-7,0.6-8.3c12.8,0.6,25.5,0.6,38.9,0.6c12.8,0,25.5,0,38.3-0.6c2.6,1.3,2.6,6.4,0.6,8.3l-6.4,0.6
			c-13.4,1.9-15.9,2.6-15.9,33.2V371.8z"/>
	</g>
</g>
</svg>
