<svg id="Lager_1" data-name="Lager 1" xmlns="http://www.w3.org/2000/svg" width="72.66mm" height="24.74mm" viewBox="0 0 205.96 70.12">
  <defs>
    <style>
      .cls-1 {
        fill: #222221;
      }

      .cls-2 {
        fill: #3d96cc;
      }

      .cls-3 {
        fill: #eab724;
      }
    </style>
  </defs>
  <g>
    <path class="cls-1" d="M77.31,45.74h3.45c6.19,0,10.84-2.34,10.84-9.22,0-5.93-4.73-8.7-10.37-8.7H77.31ZM70.65,21.67h10c9.73,0,17.88,4.14,17.88,15.2,0,9.77-8,15-17,15H70.65Z" transform="translate(0 0)"/>
    <rect class="cls-1" x="102.3" y="31.15" width="6.4" height="20.74"/>
    <path class="cls-1" d="M124.06,46.47a5.13,5.13,0,1,0-5.14-5.12v0a5.16,5.16,0,0,0,5.14,5.08m11,3.63c0,7.81-4,12-12,12-3.67,0-7.43-.64-10.41-3l3.54-5.29a10.18,10.18,0,0,0,6.73,2.66c3.88,0,5.72-2.13,5.72-5.08v-2h-.09a7.2,7.2,0,0,1-5.84,2.73c-6.15,0-10.2-4.43-10.2-10.71,0-5.5,3.58-10.8,9.47-10.8a8.49,8.49,0,0,1,7.09,3.24h.08v-2.7H135Z" transform="translate(0 0)"/>
    <path class="cls-1" d="M151.8,46.77c3.2,0,5.12-2.14,5.12-5.25s-1.92-5.25-5.12-5.25-5.13,2.13-5.13,5.25,1.93,5.25,5.13,5.25m-11-15.62h5.88v2.73h.09a8,8,0,0,1,6.36-3.25c6.14,0,10.2,4.44,10.2,10.72,0,5.76-3.59,11-9.48,11-2.64,0-5.12-.72-6.57-2.73h-.08v12h-6.4Z" transform="translate(0 0)"/>
    <path class="cls-1" d="M167.07,31.15h6.4v3.32h.08c1.37-2.52,3.16-3.85,6-3.85a8.55,8.55,0,0,1,2.14.22v5.85a10,10,0,0,0-2.77-.42c-4.87,0-5.47,2.81-5.47,7v8.67h-6.4Z" transform="translate(0 0)"/>
    <path class="cls-1" d="M194.43,46.77c3.21,0,5.13-2.14,5.13-5.25s-1.92-5.26-5.13-5.26-5.12,2.14-5.12,5.26,1.92,5.25,5.12,5.25m0-16.14c6.4,0,11.53,4.27,11.53,10.89S200.83,52.4,194.43,52.4s-11.51-4.27-11.51-10.88S188,30.63,194.44,30.63" transform="translate(0 0)"/>
    <path class="cls-2" d="M52.7.55,52,0,40.48,7.53A29.63,29.63,0,0,0,11.7,58.69l7.41-10.5A16.79,16.79,0,0,1,38.43,20.8l7.41-10.5h0Z" transform="translate(0 0)"/>
    <path class="cls-3" d="M47.56,11.52,40.15,22A16.79,16.79,0,0,1,20.83,49.4L6.59,69.55l.71.57,11.49-7.44A29.63,29.63,0,0,0,47.56,11.52" transform="translate(0 0)"/>
  </g>
</svg>
