<?xml version="1.0" encoding="utf-8"?>
<!-- Generator: Adobe Illustrator 27.8.0, SVG Export Plug-In . SVG Version: 6.00 Build 0)  -->
<svg version="1.1" id="Layer_1" xmlns="http://www.w3.org/2000/svg" xmlns:xlink="http://www.w3.org/1999/xlink" x="0px" y="0px"
	 viewBox="0 0 580 180" style="enable-background:new 0 0 580 180;" xml:space="preserve">
<style type="text/css">
	.st0{display:none;fill:#FFFFFF;stroke:#000000;}
	.st1{fill:#E30613;}
</style>
<rect class="st0" width="580" height="180"/>
<g>
	<path class="st1" d="M552.9,132.1h-2.6v3.1h2.6c1.1,0,1.7-0.5,1.7-1.6C554.6,132.6,554,132.1,552.9,132.1z"/>
	<path class="st1" d="M542.7,126.5v19.5h19.5v-19.5H542.7z M554.9,141.2c-0.3-0.7-0.3-1.7-0.4-2.6c-0.2-1.2-0.6-1.7-1.8-1.7h-2.4
		v4.3h-2.4v-11h5.9c2,0,3.2,1.4,3.2,3c0,1.3-0.5,2.3-1.7,2.7v0c1.2,0.3,1.5,1.5,1.6,2.6c0,0.7,0,2,0.5,2.6H554.9z"/>
</g>
<path class="st1" d="M114.9,145.9H95.5V73h32.6l14.7,45.8h0.7l14-45.8H191v73h-19.4l0-56.1l0,0l-19.4,56.1h-17.8l-19.5-56.1l0,0
	L114.9,145.9z"/>
<path d="M221.2,123.6c1.1,7.7,7,10.8,16.4,10.8c5.3,0,11.3-1.2,17.1-4.3v13.7c-6.2,2.5-13.3,3.5-20.5,3.5
	c-18.5,0-32.6-10.9-32.6-29.3s12.6-29.2,30-29.2c20.7,0,28.3,14.7,28.3,31.4v3.5H221.2z M242.5,112.6c0-6.5-3-11.7-10.8-11.7
	c-7,0-10.3,5.3-10.8,11.7H242.5z"/>
<path d="M330.6,139.4c0,23-11.2,30.4-33.8,30.4c-9.2,0-16.9-1.9-21.4-3.5l1-15.3c5.9,2.9,10.9,4.6,18.9,4.6
	c11.2,0,17.2-5.3,17.2-16.2v-3h-0.2c-4.6,6.6-11.1,9.6-18.8,9.6c-15.4,0-24.9-11.6-24.9-28.2c0-16.7,7.8-29.1,25.3-29.1
	c8.3,0,14.9,4.5,19,11.4h0.2V89.9h17.5V139.4z M299.6,131.1c6.9,0,12.4-5.8,12.4-14.4c0-6.2-3.7-13.2-12.4-13.2c-7.2,0-11,6.3-11,14
	C288.6,126.1,293.8,131.1,299.6,131.1z"/>
<path d="M403.7,139.4c0,23-11.2,30.4-33.8,30.4c-9.2,0-16.9-1.9-21.4-3.5l1-15.3c5.9,2.9,10.9,4.6,18.9,4.6
	c11.2,0,17.2-5.3,17.2-16.2v-3h-0.2c-4.6,6.6-11.1,9.6-18.8,9.6c-15.4,0-24.9-11.6-24.9-28.2c0-16.7,7.8-29.1,25.3-29.1
	c8.3,0,14.9,4.5,19,11.4h0.2V89.9h17.5V139.4z M372.7,131.1c6.9,0,12.4-5.8,12.4-14.4c0-6.2-3.7-13.2-12.4-13.2c-7.2,0-11,6.3-11,14
	C361.7,126.1,366.9,131.1,372.7,131.1z"/>
<path d="M434.4,123.6c1.1,7.7,7,10.8,16.4,10.8c5.3,0,11.3-1.2,17.1-4.3v13.7c-6.2,2.5-13.3,3.5-20.5,3.5
	c-18.5,0-32.6-10.9-32.6-29.3s12.6-29.2,30-29.2c20.7,0,28.3,14.7,28.3,31.4v3.5H434.4z M455.7,112.6c0-6.5-3-11.7-10.8-11.7
	c-7,0-10.3,5.3-10.8,11.7H455.7z"/>
<path d="M522.3,112.5h18l2.2,0c0-7.3-2.2-12.7-2.3-13.1c-3-7.3-9.6-10.8-17.5-10.8c-8.8,0-16.6,3.5-20.4,11.6h-0.2V89.9h-17.6v56
	h19.3v-23.7c0-12,4.1-17.5,11-17.5C519.2,104.7,521.6,107.9,522.3,112.5z"/>
</svg>
