<?xml version="1.0" encoding="utf-8"?>
<!-- Generator: Adobe Illustrator 24.3.1, SVG Export Plug-In . SVG Version: 6.00 Build 0)  -->
<svg version="1.1" id="Lager_1" xmlns="http://www.w3.org/2000/svg" xmlns:xlink="http://www.w3.org/1999/xlink" x="0px" y="0px"
	 viewBox="0 0 860 600" style="enable-background:new 0 0 860 600;" xml:space="preserve">
<g>
	<path d="M268.03,540.11h-0.66c-7.96,13.44-21.23,19.74-36.66,19.74c-17.42,0-31.85-6.64-41.97-17.58
		c-10.62-11.45-16.26-27.54-16.26-46.45c0-19.91,6.64-37.32,18.75-48.94c9.95-9.79,23.56-15.59,41.14-15.59
		c30.19,0,47.78,16.09,52.25,39.32h-23.22c-3.32-11.45-12.28-20.07-28.7-20.07c-25.05,0-36.83,19.74-36.83,45.29
		c0,26.38,14.6,44.79,36.83,44.79c20.74,0,31.68-14.1,31.85-29.86v-1.49h-29.86v-17.92h51.92v65.69h-15.43L268.03,540.11z"/>
	<path d="M316.46,484.37h0.5c5.64-11.45,14.1-17.25,25.38-17.25c2.49,0,4.15,0.17,5.64,0.83v18.91h-0.66
		c-1.99-0.5-3.65-0.66-5.81-0.66c-13.93-0.17-24.39,9.29-24.39,26.38v44.46h-21.07v-88.58h20.4V484.37z"/>
	<path d="M347.15,512.91c0-26.38,17.75-46.78,43.96-46.78c12.94,0,23.06,4.48,30.52,12.44c8.63,9.12,12.77,23.06,12.61,39.48h-66.19
		c1.49,15.26,9.62,25.55,24.39,25.55c10.12,0,16.75-4.31,19.57-11.61h20.57c-4.31,15.93-18.58,27.7-40.31,27.7
		C364.07,559.69,347.15,539.12,347.15,512.91z M368.39,504.78h44.13c-0.83-14.6-8.63-23.39-21.4-23.39
		C377.34,481.39,370.21,490.84,368.39,504.78z"/>
	<path d="M462.44,544.26h-0.5v12.77h-20.4V433.61h21.07v29.2c0,6.97-0.33,14.1-0.66,18.75h0.5c5.81-9.29,14.76-15.43,27.37-15.43
		c22.73,0,37.99,18.58,37.99,46.78c0,28.86-14.6,46.95-38.15,46.95C477.87,559.85,467.75,554.71,462.44,544.26z M506.4,512.74
		c0-17.42-7.13-30.19-21.23-30.19c-16.09,0-23.39,13.44-23.39,30.36c0,17.25,8.13,29.69,23.39,29.69
		C499.27,542.6,506.4,530.49,506.4,512.74z"/>
	<path d="M556.5,544.26H556v12.77h-20.4V433.61h21.07v29.2c0,6.97-0.33,14.1-0.66,18.75h0.5c5.81-9.29,14.76-15.43,27.37-15.43
		c22.73,0,37.99,18.58,37.99,46.78c0,28.86-14.6,46.95-38.15,46.95C571.93,559.85,561.81,554.71,556.5,544.26z M600.46,512.74
		c0-17.42-7.13-30.19-21.23-30.19c-16.09,0-23.39,13.44-23.39,30.36c0,17.25,8.13,29.69,23.39,29.69
		C593.33,542.6,600.46,530.49,600.46,512.74z"/>
	<path d="M686.39,545.59h-0.33c-5.81,7.8-13.77,13.6-27.87,13.6c-17.25,0-30.19-8.96-30.19-26.21c0-20.07,15.26-24.88,36.33-27.37
		c14.6-1.82,21.9-4.15,21.9-12.11c0-7.63-5.31-12.77-15.93-12.77c-11.78,0-17.58,5.47-18.08,14.27h-19.91
		c0.66-15.1,12.61-28.86,37.82-28.86c10.12,0,17.92,1.49,23.72,5.14c8.29,4.98,12.61,13.44,12.61,25.21v46.61
		c0,7.3,1.33,11.11,3.32,12.44v1.49h-20.4C687.88,555.04,686.72,551.56,686.39,545.59z M686.72,524.85v-13.11
		c-4.15,2.65-10.78,4.48-17.25,5.81c-12.94,2.49-20.4,5.14-20.4,14.93c0,9.46,7.13,12.28,15.26,12.28
		C678.76,544.76,686.72,534.8,686.72,524.85z"/>
	<path d="M738.97,481.39h0.5c5.81-9.79,15.1-15.26,27.54-15.26c19.08,0,30.52,11.78,30.52,30.86v60.05h-21.07v-56.57
		c0-10.45-6.14-16.92-16.92-16.92c-11.78,0-20.07,8.96-20.07,21.57v51.92H718.4v-88.58h20.57V481.39z"/>
</g>
<g>
	<path d="M799.76,432.63h18.75v4.5h-6.63v17.54h-5.42v-17.54h-6.69V432.63z M822.37,432.63h7.44l2.42,8.02
		c0.92,3,2.02,8.31,2.02,8.31h0.12c0,0,1.1-5.31,2.02-8.31l2.42-8.02h7.56v22.04h-4.9v-7.27c0-3.75,0.17-9.63,0.17-9.63h-0.17
		c0,0-1.27,5.31-2.54,9.17l-2.37,7.73H832l-2.42-7.73c-1.21-3.98-2.48-9.17-2.48-9.17h-0.12c0,0,0.17,5.88,0.17,9.63v7.27h-4.79
		V432.63z"/>
</g>
</svg>
