<?xml version="1.0" encoding="UTF-8"?>
<svg id="Layer_1" xmlns="http://www.w3.org/2000/svg" version="1.1" viewBox="0 0 1920 1080">
  <!-- Generator: Adobe Illustrator 29.8.1, SVG Export Plug-In . SVG Version: 2.1.1 Build 2)  -->
  <defs>
    <style>
      .st0 {
        fill: #123836;
      }
    </style>
  </defs>
  <path class="st0" d="M12.31,638.01v-229.15h40.92l100.5,156.8c8.18,12.77,14.73,25.53,19.64,36.01h1.31c-.98-11.46-1.64-25.21-1.64-41.57v-151.24h31.75v229.15h-40.92l-100.82-155.49c-8.18-12.77-14.73-25.53-19.31-36.34h-1.31c.98,11.13,1.63,24.88,1.63,40.92v150.91H12.31Z"/>
  <path class="st0" d="M399.9,556.17h-137.16c2.62,37.97,24.22,60.89,55,60.89,24.55,0,44.19-13.75,47.14-33.72h31.75c-3.6,36.99-38.63,58.6-78.89,58.6-52.05,0-87.4-36.34-87.4-93.95,0-53.36,32.74-93.95,86.75-93.95s82.82,40.59,82.82,96.24v5.89ZM263.4,531.95h103.12c-2.29-34.7-22.26-53.03-49.43-53.03s-48.77,19.64-53.68,53.03Z"/>
  <path class="st0" d="M506.95,482.84h-39.94v105.08c0,20.62,8.51,27.83,22.26,27.83,5.89,0,12.11-1.31,17.68-3.93v25.53c-5.57,1.96-12.77,3.6-22.26,3.6-29.13,0-49.1-15.06-49.1-50.09v-108.03h-25.53v-24.88h25.53v-49.1h31.42v49.1h39.94v24.88Z"/>
  <path class="st0" d="M519.72,547.99c0-55.32,35.03-93.95,88.39-93.95,45.5,0,77.58,28.15,80.86,71.36h-32.74c-3.6-24.55-17.02-46.48-47.79-46.48-34.7,0-55.98,27.83-55.98,69.07s21.61,69.07,55.32,69.07c27.17,0,46.16-18,49.1-48.45h32.73c-3.27,45.17-36.66,73.33-82.17,73.33-52.05,0-87.73-38.63-87.73-93.95Z"/>
  <path class="st0" d="M708.61,547.33c0-55,34.37-93.3,87.73-93.3s87.73,38.3,87.73,93.3-34.37,94.6-87.73,94.6-87.73-38.63-87.73-94.6ZM851.34,547.33c0-40.92-21.61-68.42-55-68.42s-55,27.5-55,68.42,21.6,69.73,55,69.73,55-28.48,55-69.73Z"/>
  <path class="st0" d="M1166.58,514.6v123.41h-31.43v-120.14c0-22.26-14.4-38.3-36.66-38.3-27.5,0-46.16,24.22-46.16,66.45v91.99h-31.42v-120.14c0-22.26-14.73-38.3-36.34-38.3-28.15,0-46.48,27.17-46.48,66.45v91.99h-31.42v-180.05h30.44v41.25h.98c5.24-29.79,30.44-45.17,55.98-45.17,26.84,0,50.41,16.7,56.63,44.85h.66c7.86-32.08,32.08-44.85,56.63-44.85,32.73,0,58.6,23.24,58.6,60.56Z"/>
  <path class="st0" d="M1366.27,547.01c0,55.32-34.05,94.61-77.58,94.61-26.52,0-52.05-14.73-60.56-44.19h-.98v100.5h-31.43v-239.95h31.43v41.25h.33c8.18-28.81,33.39-45.17,62.2-45.17,44.52,0,76.6,37.65,76.6,92.97ZM1333.53,547.01c0-40.92-21.93-68.42-52.38-68.42-32.74,0-54.34,31.43-54.34,69.07s21.93,69.07,54.01,69.07,52.7-28.48,52.7-69.73Z"/>
  <path class="st0" d="M1559.74,613.13v23.57c-6.87,2.29-13.75,3.6-21.28,3.6-25.53,0-36.66-14.73-36.66-36.66v-6.22h-1.31c-7.53,27.5-31.1,44.52-62.52,44.52s-55.65-14.73-55.65-48.45c0-41.57,38.63-47.14,73.65-53.36,27.83-4.91,44.85-10.8,44.85-32.08,0-16.69-10.48-29.79-39.61-29.79-27.5,0-43.21,12.11-43.21,39.28h-31.43c.66-40.27,27.5-63.51,74.64-63.51s70.38,21.93,70.38,61.22v81.84c0,16.37,8.18,19.31,15.06,19.31,4.58,0,9.17-1.31,13.09-3.27ZM1500.82,556.5v-8.51c-11.13,8.18-25.54,12.11-37.97,14.73-24.88,5.24-48.45,7.86-48.45,29.79,0,17.35,14.73,24.55,33.06,24.55,34.37,0,53.36-24.55,53.36-60.56Z"/>
  <path class="st0" d="M1726.04,516.23v121.78h-31.43v-115.88c0-27.83-15.39-42.56-38.3-42.56-28.81,0-49.43,23.24-49.43,65.14v93.3h-31.43v-180.05h30.44v41.25h.98c5.24-29.13,30.12-45.17,57.94-45.17,35.68,0,61.22,24.88,61.22,62.2Z"/>
  <path class="st0" d="M1877.28,457.96h32.41l-64.82,173.5c-9.49,25.21-32.08,66.45-74.64,66.45-11.46,0-18.66-2.95-21.93-4.58v-25.86c4.25,2.29,11.79,5.24,21.28,5.24,20.62,0,34.05-14.4,40.92-31.75l-72.67-182.99h34.7l43.21,119.16c3.27,8.51,6.88,18.33,9.17,30.77h.98c2.62-12.11,6.22-21.93,9.49-30.77l41.9-119.16Z"/>
</svg>