<?xml version="1.0" encoding="utf-8"?>
<!-- Generator: Adobe Illustrator 27.4.1, SVG Export Plug-In . SVG Version: 6.00 Build 0)  -->
<svg version="1.1" id="Layer_1" xmlns="http://www.w3.org/2000/svg" xmlns:xlink="http://www.w3.org/1999/xlink" x="0px" y="0px"
	 viewBox="0 0 640 336" style="enable-background:new 0 0 640 336;" xml:space="preserve">
<style type="text/css">
	.st0{fill:#0400D2;}
	.st1{fill:#FFFFFF;}
</style>
<rect class="st0" width="640" height="336"/>
<g>
	<path class="st1" d="M248.2,131.2c-25.2,0-43.3,15.4-43.3,37c0,22.5,19.7,38.6,46.9,38.6c17.6,0,33.8-7,41-16.8l-9.2-7.9
		c-5.7,6.8-17.7,11.9-30.9,11.9c-16,0-29-7.9-30.9-19.7H290c0.3-1.9,0.4-4.4,0.4-6.2C290.4,146.5,273.2,131.2,248.2,131.2
		 M221.6,162.9c1.5-11.2,12.4-19,26.2-19c14.2,0,25.1,6.8,26.5,19H221.6z"/>
</g>
<rect x="302.6" y="102.1" class="st1" width="15.2" height="101.9"/>
<rect x="330.2" y="102.1" class="st1" width="15.2" height="101.9"/>
<g>
	<path class="st1" d="M406,131.4c-14.5,0-26.9,6.1-32.8,15.9H373L371,134h-13.1v99.1h15.5V191h0.1c6.1,9.8,18.2,15.7,32.6,15.7
		c24.4,0,41.1-15.3,41.1-37.7C447.2,146.7,430.4,131.4,406,131.4 M402.2,193.6c-17.4,0-29.4-10.2-29.4-24.6
		c0-14.4,12-24.6,29.4-24.6c17.5,0,29.5,10.1,29.5,24.6C431.8,183.4,419.8,193.6,402.2,193.6"/>
	<path class="st1" d="M536.8,134h-15.5v36.4c0,15.3-10.9,25.5-26.2,25.5c-14.1,0-22.9-9.2-22.9-22.9V134h-15.6v40.5
		c0,20.4,13.8,34.2,35,34.2c12.6,0,24.1-5.8,29.5-15.2h0.1v5.1c0,14.8-12.1,24-31,24c-14.6,0-27.2-5.8-34.2-13.4l-8.4,10.6
		c6.9,8.7,23.7,16,43.2,16c28,0,45.9-14.4,45.9-37V134z"/>
	<path class="st1" d="M146.6,102.8c-4.3,0-8.7,0.4-13.2,1.2c-16.2,2.9-28.4,11.9-30.3,25.3c-1.1,8.2,0.8,14.5,5,19.6
		c8.4,10,25.6,11.9,41.2,12.6c25.7,1.2,31.8,6.1,31.8,13.8c0,8.4-5.8,15.4-20.9,18c-2.8,0.5-5.7,0.8-8.6,0.8
		c-10.7,0-21.3-3.5-29.7-10.8c-4.2-3.6-8-9.3-9-14l-13.8,6.3c0.8,3.1,2,5.7,3.4,8c2.1,3.4,4.5,6.4,7.5,9.2
		c10.6,10,26.2,14.7,43,14.7c3.6,0,7.1-0.3,10.5-0.8c20.4-2.9,33.5-15.1,34.4-29.8c0.5-7.9-1.4-14.6-6-19.2
		c-9.7-9.7-23.3-9.7-41.8-11.1c-21.8-1.7-30.6-4.2-29.9-15.4c0.6-10,12.3-13.2,17.2-14.1c3.1-0.5,6.3-0.9,9.5-0.9
		c5.6,0,11.3,1,16.3,3.4c6.6,3.2,12.7,8.1,15.4,14.8l12.7-6.9c-3.4-8.3-9.9-14.1-18.7-18.8C165.3,104.9,156.3,102.8,146.6,102.8"/>
</g>
</svg>
