<?xml version="1.0" encoding="UTF-8"?>
<svg id="Ida_Infront_-_Part_of_Addnode_Group" data-name="Ida Infront - Part of Addnode Group" xmlns="http://www.w3.org/2000/svg" viewBox="0 0 2243.47 347.57">
  <defs>
    <style>
      .cls-1 {
        fill: gray;
      }

      .cls-1, .cls-2 {
        stroke-width: 0px;
      }

      .cls-2 {
        fill: #3eb1c8;
      }
    </style>
  </defs>
  <g id="Part_of_Addnode_Group" data-name="Part of Addnode Group">
    <path class="cls-1" d="M0,293.88h22.45c10.51,0,18.1,5.93,18.1,15.92s-7.58,15.62-18.1,15.62H6.99v21.02H0v-52.56ZM21.63,319.19c7.21,0,11.64-3.53,11.64-9.39s-4.43-9.69-11.64-9.69H6.99v19.07h14.64Z"/>
    <path class="cls-1" d="M61.97,293.88h7.13l19.75,52.56h-7.36l-4.96-14.04h-22l-4.96,14.04h-7.36l19.75-52.56ZM74.29,326.25l-3.6-10.21c-1.73-4.81-3.38-9.61-5.11-14.42h-.08c-1.73,4.81-3.38,9.61-5.11,14.42l-3.6,10.21h17.5Z"/>
    <path class="cls-1" d="M98.42,293.88h20.2c12.01,0,18.85,5.86,18.85,14.42,0,6.76-4.28,11.71-11.86,13.22v.15c6.31,2.48,8.64,7.28,10.44,13.89l3,10.89h-7.21l-2.48-9.16c-2.7-10.06-5.48-12.54-14.57-12.54h-9.39v21.7h-6.98v-52.56ZM115.16,318.59c9.76,0,15.02-3.38,15.02-9.69,0-5.56-4.13-8.79-11.64-8.79h-13.14v18.47h9.76Z"/>
    <path class="cls-1" d="M162.52,300.12h-18.02v-6.23h43.03v6.23h-18.02v46.33h-6.98v-46.33Z"/>
    <path class="cls-1" d="M218.31,320.17c0-17.57,11.94-27.41,25.68-27.41s25.68,9.84,25.68,27.41-11.94,27.41-25.68,27.41-25.68-9.84-25.68-27.41ZM243.99,341.34c10.14,0,18.4-7.06,18.4-21.17s-8.26-21.18-18.4-21.18-18.4,7.06-18.4,21.18,8.26,21.17,18.4,21.17Z"/>
    <path class="cls-1" d="M281.64,293.88h36.12v6.23h-29.06v16.9h26.13v6.23h-26.13v23.2h-7.06v-52.56Z"/>
    <path class="cls-1" d="M366.41,293.88h7.13l19.75,52.56h-7.36l-4.96-14.04h-22l-4.96,14.04h-7.36l19.75-52.56ZM378.73,326.25l-3.6-10.21c-1.73-4.81-3.38-9.61-5.11-14.42h-.08c-1.73,4.81-3.38,9.61-5.11,14.42l-3.6,10.21h17.5Z"/>
    <path class="cls-1" d="M402.86,293.88h19.37c14.72,0,25.68,9.46,25.68,26.28s-10.96,26.28-25.68,26.28h-19.37v-52.56ZM422.23,340.21c10.36,0,18.4-6.83,18.4-20.05s-8.04-20.05-18.4-20.05h-12.39v40.1h12.39Z"/>
    <path class="cls-1" d="M459.84,293.88h19.37c14.72,0,25.68,9.46,25.68,26.28s-10.96,26.28-25.68,26.28h-19.37v-52.56ZM479.21,340.21c10.36,0,18.4-6.83,18.4-20.05s-8.04-20.05-18.4-20.05h-12.39v40.1h12.39Z"/>
    <path class="cls-1" d="M523.87,303.27h-.15l.07,9.01v34.17h-6.98v-52.56h9.39l27.93,43.1h.15l-.08-9.01v-34.09h6.91v52.56h-9.31l-27.93-43.18Z"/>
    <path class="cls-1" d="M573.04,320.17c0-17.57,11.94-27.41,25.68-27.41s25.68,9.84,25.68,27.41-11.94,27.41-25.68,27.41-25.68-9.84-25.68-27.41ZM598.72,341.34c10.14,0,18.4-7.06,18.4-21.17s-8.26-21.18-18.4-21.18-18.4,7.06-18.4,21.18,8.26,21.17,18.4,21.17Z"/>
    <path class="cls-1" d="M636.37,293.88h19.37c14.72,0,25.68,9.46,25.68,26.28s-10.96,26.28-25.68,26.28h-19.37v-52.56ZM655.74,340.21c10.36,0,18.4-6.83,18.4-20.05s-8.04-20.05-18.4-20.05h-12.39v40.1h12.39Z"/>
    <path class="cls-1" d="M693.35,293.88h36.12v6.23h-29.06v16.9h26.13v6.23h-26.13v16.97h29.13v6.23h-36.19v-52.56Z"/>
    <path class="cls-1" d="M760.71,320.09c0-16.14,9.69-27.33,25.83-27.33,14.94,0,23.65,9.61,24.18,21.25h-7.28c-.3-8.33-6.83-15.02-16.89-15.02-11.49,0-18.55,8.79-18.55,21.1,0,13.07,8.18,21.25,18.55,21.25s16.59-8.03,17.57-14.42h-18.32v-6.23h20.95c2.63,0,4.13,1.5,4.13,3.98v21.78h-6.83l1.5-11.04h-.15c-3.38,7.58-9.91,12.16-19.6,12.16-14.64,0-25.08-10.81-25.08-27.48Z"/>
    <path class="cls-1" d="M824.59,293.88h20.2c12.01,0,18.85,5.86,18.85,14.42,0,6.76-4.28,11.71-11.86,13.22v.15c6.31,2.48,8.63,7.28,10.44,13.89l3,10.89h-7.21l-2.48-9.16c-2.7-10.06-5.48-12.54-14.57-12.54h-9.39v21.7h-6.98v-52.56ZM841.33,318.59c9.76,0,15.02-3.38,15.02-9.69,0-5.56-4.13-8.79-11.64-8.79h-13.14v18.47h9.76Z"/>
    <path class="cls-1" d="M872.57,320.17c0-17.57,11.94-27.41,25.68-27.41s25.68,9.84,25.68,27.41-11.94,27.41-25.68,27.41-25.68-9.84-25.68-27.41ZM898.24,341.34c10.14,0,18.4-7.06,18.4-21.17s-8.26-21.18-18.4-21.18-18.4,7.06-18.4,21.18,8.26,21.17,18.4,21.17Z"/>
    <path class="cls-1" d="M935.57,326.25v-32.36h6.98v32.21c0,10.06,6.16,15.24,13.74,15.24s13.74-5.18,13.74-15.24v-32.21h6.98v32.36c0,13.74-9.01,21.33-20.72,21.33s-20.72-7.58-20.72-21.33Z"/>
    <path class="cls-1" d="M991.54,293.88h22.45c10.51,0,18.1,5.93,18.1,15.92s-7.58,15.62-18.1,15.62h-15.47v21.02h-6.98v-52.56ZM1013.16,319.19c7.21,0,11.64-3.53,11.64-9.39s-4.43-9.69-11.64-9.69h-14.64v19.07h14.64Z"/>
  </g>
  <g id="Ida_Infront" data-name="Ida Infront">
    <path class="cls-2" d="M30.72,217.29c-16.64,0-30.72-13.44-30.72-30.08V3.52c16.64,0,30.72,13.44,30.72,29.76v184Z"/>
    <path class="cls-2" d="M268.29,184.96c-20.48,19.2-48.32,29.76-77.76,29.76h-68.8c-16.64,0-30.4-13.44-30.4-30.08V34.88c0-16.64,14.08-30.08,30.72-30.08h68.48c29.44,0,57.28,10.56,78.08,30.08,21.12,19.84,32.64,46.72,32.64,75.2s-11.52,55.36-32.96,74.88ZM248.13,56.96c-15.36-14.4-35.84-22.4-57.6-22.4,0,0,0,.32-65.6.32-1.92,0-3.52,1.6-3.52,3.52v143.04c0,1.92,1.6,3.52,3.52,3.52h65.6c45.44,0,80.64-32.96,80.64-74.88,0-20.16-8-39.04-23.04-53.12Z"/>
    <path class="cls-2" d="M533.28,202.56l-21.44-40.96h-134.72l-20.16,38.72c-7.68,15.04-25.92,21.44-40.96,13.76L416.48,21.44c5.76-11.2,16-17.6,27.84-17.6s22.4,6.4,28.16,17.6l100.48,192.64c-14.4,7.36-32.32,2.56-39.68-11.52ZM445.92,35.2c-.64-.96-1.28-1.6-1.6-1.6s-.96.64-1.6,1.92l-49.92,96h103.36l-50.24-96.32Z"/>
    <path class="cls-2" d="M747.67,217.29c-16.64,0-30.72-13.44-30.72-30.08V3.52c16.64,0,30.72,13.44,30.72,29.76v184Z"/>
    <path class="cls-2" d="M983.32,217.29c-8.32,0-15.68-5.12-20.8-11.84l-.64-.32-121.92-160.64v143.36c0,16.32-14.08,29.44-30.72,29.44V33.92c0-16.64,11.84-30.08,26.24-30.4,7.68,0,14.72,3.84,19.52,9.92l.96,1.28.32.64c.32,0,.32.32.32.32l122.24,160.96V33.28c0-16.32,14.4-29.44,31.04-29.76v184.32c0,16.32-12.48,29.12-26.56,29.44Z"/>
    <path class="cls-2" d="M1218.9,34.88h-114.88c-1.92,0-3.52,1.6-3.52,3.52v51.84h133.44c-.32,16-13.12,29.76-29.44,29.76h-104v66.88c0,16.32-13.44,29.76-30.08,30.08V34.88c0-16.64,13.76-30.08,30.4-30.08h146.88c-.32,16.32-12.8,30.08-28.8,30.08Z"/>
    <path class="cls-2" d="M1447.86,208l-61.12-73.6h-62.4v-3.52c1.6-15.04,14.08-27.2,29.12-27.2h41.92c19.2,0,34.88-3.2,45.12-9.28,9.92-5.76,14.4-13.76,14.4-25.6,0-8.32,0-33.28-59.52-33.28h-75.52c-1.92,0-3.52,1.6-3.52,3.52v148.48c0,16.32-14.08,29.76-30.72,29.76V33.28c0-15.36,13.44-28.48,29.12-28.48h80.64c78.4,0,90.24,40,90.24,64,0,22.72-10.24,40.96-29.44,52.16-8.96,5.12-19.52,8.64-31.68,10.88l64.96,78.4c-12.48,10.24-31.68,9.92-41.6-2.24Z"/>
    <path class="cls-2" d="M1641.81,218.89c-65.28,0-118.72-49.28-118.72-109.44S1576.53,0,1641.81,0s118.72,48.96,118.72,109.44-53.12,109.44-118.72,109.44ZM1641.81,30.72c-48.64,0-88,35.2-88,78.72s39.36,78.72,88,78.72,88-35.52,88-78.72-39.36-78.72-88-78.72Z"/>
    <path class="cls-2" d="M1984.11,217.29c-8.32,0-15.68-5.12-20.8-11.84l-.64-.32-121.92-160.64v143.36c0,16.32-14.08,29.44-30.72,29.44V33.92c0-16.64,11.84-30.08,26.24-30.4,7.68,0,14.72,3.84,19.52,9.92l.96,1.28.32.64c.32,0,.32.32.32.32l122.24,160.96V33.28c0-16.32,14.4-29.44,31.04-29.76v184.32c0,16.32-12.48,29.12-26.56,29.44Z"/>
    <path class="cls-2" d="M2213.07,35.52h-50.88v181.76h-1.28c-16.32,0-29.44-14.08-29.44-30.72V35.52h-50.88c-16.64,0-30.08-13.76-30.08-30.4h192.96c0,16.64-13.44,30.4-30.4,30.4Z"/>
  </g>
</svg>