<svg id="Logo" xmlns="http://www.w3.org/2000/svg" viewBox="0 0 640 350"><title>Qte_logo_original</title><polygon points="347.06 269.44 368.36 281.51 368.36 281.65 347.06 293.3 347.06 313.88 388.24 290.17 388.24 273.13 347.06 249.42 347.06 269.44"/><path d="M520.12,214.33l-22.58,13V244.8H487.39v16.73h10.15v39.05c0,13.38,9.66,17.78,23.15,17.78,6.25,0,10.65-.57,12.64-1.14v-16.9c-.85,0-3.13.15-5.11.15-5,0-8.1-1.42-8.1-7.1V261.53h13.21V244.8H520.12Z"/><path d="M457.32,254h-.43c-4.68-7.38-11.36-11.36-20.73-11.36-20.31,0-32,16.62-32,38.48,0,23.58,13.21,38.63,31.52,38.63,9.38,0,16-4,20.17-9.94h.42v22.58l23,13.25V244.8h-22ZM442,301.46c-9.09,0-14.34-7.24-14.34-19.74S432,260.85,442,260.85s15,9.09,15,20.87S451.21,301.46,442,301.46Z"/><path d="M588,297.83c-2.21,3.29-5.83,5.19-10.94,5.19-9.52,0-14.91-6.1-16.33-15.9h52.25c.14-14.77-4.12-27.41-12.78-35.36-6.25-5.68-14.48-9.09-24.85-9.09C553.16,242.67,538,259.29,538,281c0,22,14.76,38.63,38.76,38.63,9.23,0,16.62-2.42,22.72-6.68a30,30,0,0,0,11.62-15.13Zm-12.22-38.69c7.52,0,12.92,5.54,13.77,14.2H560.83C562.39,264.68,566.93,259.14,575.74,259.14Z"/></svg>