<?xml version="1.0" encoding="UTF-8"?>
<svg id="Folksam_x5F_Logotyp_x5F_Master_x5F_RGB" xmlns="http://www.w3.org/2000/svg" version="1.1" viewBox="0 0 1141.57 250.11">
  <!-- Generator: Adobe Illustrator 29.4.0, SVG Export Plug-In . SVG Version: 2.1.0 Build 152)  -->
  <defs>
    <style>
      .st0 {
        fill: none;
      }

      .st1 {
        fill: #059bf2;
      }
    </style>
  </defs>
  <rect class="st0" x="-49.63" y="-75" width="1240.8" height="400"/>
  <path class="st1" d="M789.24,218.08c-15.03,0-24.83-9.14-24.83-25.63s8.37-24.93,30.8-33.02c11.9-4.22,18.53-8.08,22.39-12.3v36.51c0,22.5-8.37,34.44-28.36,34.44ZM773.16,249.31c24.5,0,42.66-11.58,45.47-33.71v30.21h54.93v-5.28c-9.79-5.61-12.23-14.38-12.23-43.9v-75.49c0-36.87-23.44-55.15-71.02-55.15-20.64,0-43.03,3.17-60.17,9.83v53.36h5.24c10.48-22.5,34.29-38.62,60.86-38.62,14.34,0,22.02,5.97,22.02,19.66,0,12.3-8.41,18.6-25.88,24.24l-17.47,5.61c-41.64,13.36-55.62,29.16-55.62,57.59s21.33,51.62,53.87,51.62v.04h0ZM634.94,250c45.14,0,68.58-20.71,68.58-57.22,0-26.35-11.9-39.68-43.75-50.56l-16.09-5.61c-22.75-8.08-30.43-15.43-30.43-27.37s8.74-18.6,24.5-18.6c21.69,0,39.9,13.69,51.07,38.62h5.24v-53.36c-20.97-7.03-36.04-9.83-53.87-9.83-38.48,0-64.72,20.02-64.72,55.47,0,24.94,14.34,43.21,43.72,53.73l15.72,5.61c23.81,8.44,30.1,13.32,30.1,24.57,0,13.32-9.1,20.02-23.81,20.02-23.08,0-39.89-11.58-52.82-35.82h-4.88v50.23c15.73,6.3,36.04,10.19,51.4,10.19l.04-.07h0ZM406.16,240.54v5.28h68.58v-5.28c-6.99-4.91-9.1-13-9.1-36.87v-49.14l35.34,51.98c6.99,10.52,10.16,17.91,10.16,23.19s-2.8,8.77-7.72,10.88v5.28h71.38v-3.53l-63.67-96.21c-1.75-2.8-2.8-5.61-2.8-8.77,0-2.47,1.38-5.28,7.68-11.58l49-49.87v-5.61h-67.16v5.61c11.54,0,18.53,5.97,18.53,13.32,0,3.86-1.75,8.08-5.93,12.3l-44.81,45.28V0h-59.48v5.24c13.29,3.53,15.73,10.52,15.73,39.35v159.07c0,26.35-2.11,31.96-15.73,36.87h0ZM322.92,240.54v5.28h74.18v-5.28c-11.17-4.55-14.67-13-14.67-36.87V0h-59.48v5.24c13.29,3.53,15.72,10.52,15.72,39.35v159.07c0,26.35-2.07,31.96-15.72,36.87h-.04.01ZM236.14,224.74c-23.08,0-34.62-16.49-34.62-66.72s11.54-66.72,34.62-66.72,34.29,15.8,34.29,66.72-11.21,66.72-34.29,66.72ZM236.14,250c49.69,0,81.17-37.93,81.17-92.35s-31.49-91.66-81.17-91.66-81.5,37.24-81.5,91.66,31.85,92.35,81.5,92.35h0ZM0,240.54v5.28h90.27v-5.28c-16.09-4.22-22.75-15.11-22.75-36.87v-69.53h18.89c29.05,0,37.42,6.33,44.08,30.54h5.24v-84.96h-5.24c-6.62,22.46-15.72,28.43-44.08,28.43h-18.89V25.99h51.4c27.99,0,43.75,10.19,47.94,30.54h5.24V0H0v5.24c13.98,4.91,19.95,20.35,19.95,51.29v147.13c0,22.13-5.97,32.65-19.95,36.87h0ZM882.98,240.54v5.28h70.33v-5.28c-9.79-4.55-12.23-13.32-12.23-36.87v-79.72c0-19.66,8.74-30.54,26.93-30.54,15.72,0,23.45,10.52,23.45,30.54v79.72c0,23.55-2.44,31.96-12.6,36.87v5.28h68.58v-5.28c-10.15-4.55-12.23-13.32-12.23-36.87v-79.72c0-19.66,9.1-30.54,26.57-30.54,15.72,0,23.8,10.52,23.8,30.54v79.72c0,23.55-2.81,31.96-12.59,36.87v5.28h68.58v-5.28c-9.8-4.55-12.23-13.32-12.23-36.87v-83.21c0-35.09-18.89-54.42-52.81-54.42-23.44,0-39.2,10.19-46.89,28.1-5.24-17.91-21.69-28.1-45.14-28.1-22.02,0-37.09,9.14-44.4,25.63v-21.4h-57.04v5.61c10.48,2.11,14.34,11.58,14.34,34.76v93.04c0,23.55-3.49,31.96-14.34,36.87h-.08Z"/>
</svg>