<?xml version="1.0" encoding="UTF-8"?><svg id="Strawberry_Logotype_Primary_Black_RGB" xmlns="http://www.w3.org/2000/svg" viewBox="0 0 2275.64 1215.1"><defs><style>.cls-1{fill:none;}</style></defs><rect class="cls-1" width="2275.64" height="1215.1"/><path d="M1137.82,755.31c7.83,0,14.17,6.35,14.17,14.17s-6.34,14.17-14.17,14.17-14.17-6.35-14.17-14.17,6.35-14.17,14.17-14.17Zm0,111.06c6.92,0,12.53-5.61,12.53-12.53s-5.61-12.53-12.53-12.53-12.53,5.61-12.53,12.53,5.61,12.53,12.53,12.53Zm24.59-168.83c0-13.58-11.01-24.59-24.59-24.59s-24.59,11.01-24.59,24.59,11.01,24.59,24.59,24.59,24.59-11.01,24.59-24.59Zm-24.59,227.4c-10.48,0-18.97,8.49-18.97,18.97s8.49,18.97,18.97,18.97,18.97-8.49,18.97-18.97-8.49-18.97-18.97-18.97Zm-52.36-244.23c-7.83,0-14.17,6.35-14.17,14.17s6.35,14.17,14.17,14.17,14.17-6.35,14.17-14.17-6.34-14.17-14.17-14.17Zm-22.85,110.97c7.83,0,14.17-6.35,14.17-14.17s-6.34-14.17-14.17-14.17-14.17,6.35-14.17,14.17,6.35,14.17,14.17,14.17Zm-26.92-8.89c0-11.88-9.63-21.51-21.51-21.51s-21.51,9.63-21.51,21.51,9.63,21.51,21.51,21.51,21.51-9.63,21.51-21.51Zm60.06-63.31c-12.48,0-22.6,10.12-22.6,22.6s10.12,22.6,22.6,22.6,22.6-10.12,22.6-22.6-10.12-22.6-22.6-22.6Zm-1.69,139.43c-18.7,0-33.86,15.16-33.86,33.86s15.16,33.86,33.86,33.86,33.86-15.16,33.86-33.86-15.16-33.86-33.86-33.86Zm-25.87-21.72c0-13.96-11.35-25.31-25.31-25.31s-25.31,11.35-25.31,25.31,11.35,25.31,25.31,25.31,25.31-11.35,25.31-25.31Zm-4.15-115.06c0-15.66-12.69-28.35-28.35-28.35s-28.35,12.69-28.35,28.35,12.69,28.35,28.35,28.35,28.35-12.69,28.35-28.35Zm39.18,119.77c15.66,0,28.35-12.69,28.35-28.35s-12.69-28.35-28.35-28.35-28.35,12.69-28.35,28.35,12.69,28.35,28.35,28.35Zm86.98-132.84c7.83,0,14.17-6.35,14.17-14.17s-6.35-14.17-14.17-14.17-14.17,6.35-14.17,14.17,6.34,14.17,14.17,14.17Zm8.68,68.45c0,7.83,6.34,14.17,14.17,14.17s14.17-6.35,14.17-14.17-6.35-14.17-14.17-14.17-14.17,6.35-14.17,14.17Zm62.61-16.23c-11.88,0-21.51,9.63-21.51,21.51s9.63,21.51,21.51,21.51,21.51-9.63,21.51-21.51-9.63-21.51-21.51-21.51Zm-81.57,3.4c12.48,0,22.6-10.12,22.6-22.6s-10.12-22.6-22.6-22.6-22.6,10.12-22.6,22.6,10.12,22.6,22.6,22.6Zm1.69,94.23c-18.7,0-33.86,15.16-33.86,33.86s15.16,33.86,33.86,33.86,33.86-15.16,33.86-33.86-15.16-33.86-33.86-33.86Zm51.18-47.02c-13.96,0-25.31,11.35-25.31,25.31s11.35,25.31,25.31,25.31,25.31-11.35,25.31-25.31-11.35-25.31-25.31-25.31Zm7.18-61.4c15.66,0,28.35-12.69,28.35-28.35s-12.69-28.35-28.35-28.35-28.35,12.69-28.35,28.35,12.69,28.35,28.35,28.35Zm-67.53,91.42c15.66,0,28.35-12.69,28.35-28.35s-12.69-28.35-28.35-28.35-28.35,12.69-28.35,28.35,12.69,28.35,28.35,28.35Zm-283.32-449.87v113.11h-31.62v-24.24c0-1.41-.7-2.46-2.11-2.46-1.05,0-1.76,.7-2.46,1.76-13.35,19.32-36.53,29.86-59.72,29.86-34.78,0-58.67-18.27-58.67-49.53s22.13-49.53,61.48-55.5l61.48-9.13v-3.86c0-30.21-20.73-37.94-42.51-37.94s-41.1,9.48-42.51,29.16l-.35,4.57h-31.62l.35-4.57c2.81-40.4,36.53-58.31,75.18-58.31,36.53,0,73.07,14.75,73.07,67.1Zm-31.62,28.81l-60.77,9.48c-19.67,3.16-30.56,13.7-30.56,28.45s12.65,23.18,30.91,23.18c32.67,0,56.21-21.08,60.42-61.12Zm180.91-38.99l41.45,123.3h31.26l52.69-175.64h-31.62l-37.59,127.52-42.51-127.52h-28.1l-41.45,128.57-40.4-128.57h-31.97l56.56,175.64h31.62l40.05-123.3Zm-508.66-97.66h-31.62v30.56c0,10.89-7.03,15.81-18.62,15.81h-19.32v28.81h37.94v90.28c0,37.24,16.16,56.21,58.31,56.21h23.18v-29.86h-17.92c-25.64,0-31.97-9.48-31.97-35.83v-80.8h49.88v-29.86h-49.88v-45.32Zm-176.35,79.74c-43.91-7.38-57.96-20.02-57.96-43.56,0-21.78,18.27-36.53,56.56-36.53,32.67,0,52.69,13.35,55.5,42.15h32.67c-1.76-49.88-42.51-72.37-88.17-72.37-56.21,0-90.98,27.4-90.98,67.45,0,35.83,22.48,62.18,76.93,71.66,42.51,7.03,71.31,16.51,71.31,44.97s-23.18,42.15-53.75,42.15c-36.89,0-66.74-11.94-70.26-52.69h-32.32c2.46,57.96,45.32,83.26,102.58,83.26,41.1,0,88.52-20.37,88.52-71.31,0-48.13-34.43-65.69-90.63-75.18Zm269.79,141.22h31.62v-175.64h-31.62v175.64Zm69.2-178.45c-14.4,0-24.94,11.24-24.94,24.94s10.54,24.24,24.94,24.24,24.94-10.89,24.94-24.24-10.54-24.94-24.94-24.94Zm1120.26,0c-14.4,0-24.94,11.24-24.94,24.94s10.54,24.24,24.94,24.24,24.94-10.89,24.94-24.24-10.54-24.94-24.94-24.94Zm-432.79,89.93c0,54.45-40.75,93.44-92.74,93.44-24.94,0-45.32-10.19-57.96-24.94-.7-1.05-1.76-1.41-2.46-1.41-1.41,0-2.46,1.41-2.46,3.51v17.92h-31.62V252.22h31.62v95.55c0,2.11,1.05,3.51,2.46,3.51,1.05,0,1.76-.35,2.46-1.4,13-15.81,32.67-26,57.96-26,55.5,0,92.74,38.64,92.74,92.74Zm-33.02,0c0-39.7-26.7-62.88-60.77-62.88-39.34,0-61.83,26.7-61.83,62.88s22.48,63.58,61.83,63.58c34.08,0,60.77-24.24,60.77-63.58Zm642.15-87.12l-50.23,132.08-50.94-132.08h-33.72l68.85,171.78-2.81,6.67c-3.86,9.84-13.7,14.05-29.16,14.05h-21.08v30.21h21.08c31.62,0,46.72-9.49,57.26-36.18l74.47-186.53h-33.72Zm-245.55,175.64h31.62v-175.64h-31.62v175.64Zm-160.19-86.42c0,3.16,0,5.97-.35,9.13h-144.03c3.51,32.67,23.89,52.34,59.72,52.34,25.64,0,42.51-12.65,51.99-27.4l22.13,17.56c-12.3,20.37-38.29,39.7-74.12,39.7-62.88,0-93.09-40.75-93.09-93.09s35.48-92.74,90.98-92.74,86.77,43.21,86.77,94.5Zm-33.37-18.97c-1.76-27.4-20.37-45.67-53.4-45.67-30.56,0-50.94,17.56-56.56,45.67h109.95Zm67.1,105.39h31.62v-175.64h-31.62v175.64Zm69.2-178.45c-14.4,0-24.94,11.24-24.94,24.94s10.54,24.24,24.94,24.24,24.94-10.89,24.94-24.24-10.54-24.94-24.94-24.94Z"/></svg>