<svg width="162" height="30" viewBox="0 0 162 30" fill="none" xmlns="http://www.w3.org/2000/svg">
<path d="M54.4052 18.0059V23H51.9233V7.80575H54.4052V15.191L62.9709 7.80575H66.3306L60.5495 12.8604L68.8428 23H65.7252L58.4611 14.5554L54.4052 18.0059ZM69.8733 15.4331C69.8733 10.9233 74.7161 7.23067 80.6788 7.23067C86.6414 7.23067 91.454 10.9233 91.454 15.4331C91.454 19.943 86.6414 23.6053 80.6788 23.6053C74.7161 23.6053 69.8733 19.943 69.8733 15.4331ZM72.5368 15.4331C72.5368 18.702 76.1689 21.3353 80.6788 21.3353C85.1583 21.3353 88.7904 18.702 88.7904 15.4331C88.7904 12.134 85.1583 9.50073 80.6788 9.50073C76.1689 9.50073 72.5368 12.134 72.5368 15.4331ZM98.3854 7.80575V20.7602H110.704V23H95.843V7.80575H98.3854ZM116.12 7.80575V20.7602H128.439V23H113.578V7.80575H116.12ZM134.249 23H131.767V7.80575H134.249V23ZM142.488 23H140.006V7.13987L155.291 18.6415V7.80575H157.773V23.6053L142.488 12.0432V23Z" fill="black"/>
<path d="M36.7129 16.5143C36.3182 17.4893 35.6689 18.0083 34.9687 18.433C33.4282 19.3608 31.7732 19.2664 30.1562 19.0463C26.9734 18.6059 23.9434 17.3478 20.9261 16.074C18.5835 15.099 16.3173 13.8566 13.9493 12.9602C11.8232 12.1581 9.64611 11.7335 7.44359 12.6457C6.25957 13.1332 5.27926 13.9509 4.5663 15.2248C3.71331 16.7345 3.22952 16.703 2.44018 15.1304C1.53625 13.3533 0.874224 11.4818 0.810567 9.34312C0.721448 6.48089 1.63811 4.18484 4.05705 3.35134C5.11375 2.98964 6.22138 3.084 7.29081 3.28844C9.69702 3.76023 11.8613 5.01834 13.9238 6.52807C16.1391 8.14788 18.2525 9.97216 20.5186 11.4818C23.345 13.369 26.2605 15.036 29.3669 16.074C31.3148 16.7188 33.3009 17.0176 35.3124 16.8131C35.7708 16.766 36.2418 16.6086 36.7129 16.5143Z" fill="black"/>
<path d="M32.3794 21.7313C32.3794 22.1157 32.1892 22.1773 32.0371 22.3156C29.6658 24.4535 27.0536 25.8992 24.1499 26.6528C19.0269 27.9755 14.1957 27.0373 9.64347 23.9613C8.47684 23.177 7.32295 22.331 6.52406 20.9315C5.62375 19.3781 5.50963 17.9632 6.21975 16.5943C6.6255 15.7946 7.2722 15.4255 7.95699 15.1947C9.68149 14.6257 11.3933 14.8256 13.0672 15.5023C16.8713 17.0404 20.5613 18.9475 24.4415 20.2394C26.9395 21.0699 29.4629 21.7158 32.0751 21.7004C32.1639 21.6851 32.2653 21.7158 32.3794 21.7313Z" fill="black"/>
<path d="M20.6133 8.56528C20.6798 8.28661 20.8261 8.25567 20.9857 8.24019C22.5154 7.99247 23.859 7.172 25.2026 6.35151C27.3975 5.00467 29.619 3.65783 32.1066 3.25532C34.3281 2.88378 36.5097 3.16244 38.4385 4.66409C39.8885 5.79419 40.6733 7.37325 40.3541 9.43218C40.0082 11.646 38.8642 13.1012 37.0018 13.7978C34.9134 14.5719 32.8382 14.2158 30.8029 13.6585C27.2245 12.6832 23.9388 10.8409 20.733 8.75106C20.693 8.72006 20.6665 8.64269 20.6133 8.56528Z" fill="black"/>
</svg>
