<?xml version="1.0" encoding="UTF-8"?>
<svg id="Lager_1" xmlns="http://www.w3.org/2000/svg" version="1.1" viewBox="0 0 501.3 236.3">
  <!-- Generator: Adobe Illustrator 29.3.1, SVG Export Plug-In . SVG Version: 2.1.0 Build 151)  -->
  <defs>
    <style>
      .st0 {
        fill: #0da9d9;
      }

      .st1 {
        fill: #09aad6;
      }
    </style>
  </defs>
  <path class="st0" d="M.6,183.9v-.9c0-18.4,13.4-31,29.3-31s29,12.1,29,30.9v.9c0,18.5-13.2,31.1-29.2,31.1S.6,201.9.6,183.9ZM54.8,183.8v-.9c0-17.3-11.5-27.5-24.9-27.5s-25.2,10.5-25.2,27.6v.9c0,16.7,11.3,27.4,25.1,27.4s25-10.5,25-27.6h0s0,0,0,0Z"/>
  <path class="st0" d="M82,197.6v16.4h-4v-90.3h4v46.1c3.5-9.2,12.8-17.8,24.9-17.8s27.1,11.9,27.1,31v.9c0,19.5-12,31.1-27.1,31.1-11.1.1-21.1-6.9-24.9-17.3h0ZM129.9,183.9v-.9c0-17.8-10.7-27.6-23.4-27.6s-24.5,9.9-24.5,27.6v.9c0,17.4,11.3,27.4,24.7,27.4s23.2-10.1,23.2-27.4h0Z"/>
  <path class="st0" d="M144.3,232.1c6.9-.6,9-4,9-11.2v-68.1h4v67.9c0,9.8-3.4,14.6-13,15v-3.5ZM152.1,136.3c0-1.7,1.4-3.1,3.1-3,1.7,0,3,1.3,3.1,3h0c0,1.8-1.3,3.2-3.1,3.2-1.7,0-3.1-1.4-3.1-3.2Z"/>
  <path class="st0" d="M176.5,183.9v-.9c0-18.2,11.7-31.1,27.7-31.1s26.2,10.3,26.2,29.5v1.8h-49.8c.1,17.8,8.8,28.3,24.4,28.3s18.5-4.7,20.9-14.2h4c-2.8,11.3-12.3,17.8-24.9,17.8s-28.5-12.9-28.5-31h0ZM226.4,179.7c-.5-16.1-9.2-24.3-22.2-24.3s-22.5,9.6-23.5,24.3h45.7,0Z"/>
  <path class="st0" d="M247.2,183.9v-.9c0-18.6,13-31.1,28.9-31.1s23.2,7.1,24.9,19.8h-4c-1.4-10.6-10.6-16.2-20.9-16.2s-24.8,10.5-24.8,27.6v.9c0,16.9,11,27.4,24.7,27.4s20.1-6.4,22-18.1h3.7c-1.9,13.1-12.4,21.6-25.7,21.6s-28.8-12.5-28.8-31h0Z"/>
  <path class="st0" d="M322.8,199.6v-43.3h-9.2v-3.4h9.2v-13.9h4v13.9h17.1v3.4h-17.1v43.1c0,8.3,4.1,11.9,10.2,11.9,2.6,0,5.2-.4,7.7-1.3v3.5c-2.5.9-5.2,1.4-8,1.3-8.6,0-13.9-5.1-13.9-15.2h0Z"/>
  <path class="st0" d="M362.4,136.3c0-1.7,1.5-3.1,3.1-3,1.7,0,3,1.3,3,3h0c0,1.7-1.3,3.1-3,3.2-1.7,0-3.1-1.4-3.1-3.2h0ZM363.6,152.8h4v61.1h-4v-61.1Z"/>
  <path class="st0" d="M385,152.8h4.3l22.5,57.3,22.3-57.3h4.1l-23.8,61.1h-5.4l-24.1-61.1h0Z"/>
  <path class="st0" d="M446.8,183.9v-.9c0-18.2,11.7-31.1,27.7-31.1s26.2,10.3,26.2,29.5v1.8h-49.8c.1,17.8,8.8,28.3,24.4,28.3s18.5-4.7,20.9-14.2h4c-2.8,11.3-12.3,17.8-24.9,17.8s-28.5-12.9-28.5-31h0ZM496.7,179.7c-.5-16.1-9.2-24.3-22.2-24.3s-22.5,9.6-23.5,24.3h45.7Z"/>
  <path class="st1" d="M243.5,136.2s-37.1-38.7-23-72.5C236.5,31.5,253.4,36.6,329.6,0c0,0,32.7,32.1,3,47.3s-117.5,45-89.1,88.8Z"/>
  <path class="st1" d="M124,46s51.3,27.5,70.5,45.1c19.5,15.4,37.2,41.7,40.4,46.2l-.2.2c-4.3-3.9-28.3-25.2-43-33.5-16.6-9.4-36.3-19.7-42.7-23.6-6.3-3.9-20.7-13-25-34.3h0Z"/>
</svg>