<?xml version="1.0" encoding="utf-8"?>
<!-- Generator: Adobe Illustrator 19.0.1, SVG Export Plug-In . SVG Version: 6.00 Build 0)  -->
<!DOCTYPE svg PUBLIC "-//W3C//DTD SVG 1.1//EN" "http://www.w3.org/Graphics/SVG/1.1/DTD/svg11.dtd">
<svg version="1.1" id="Lager_1" xmlns="http://www.w3.org/2000/svg" xmlns:xlink="http://www.w3.org/1999/xlink" x="0px" y="0px"
	 viewBox="0 0 266.5 79.1" enable-background="new 0 0 266.5 79.1" xml:space="preserve">
<path fill="#2CA3E8" d="M65.6,78.7c-0.9-1.2,2.5-2.9,6.5-7.6c2-2.4,4.3-5.4,6.2-9.3c1.9-3.8,3.6-8.5,3.8-13.7
	c0.3-6.3-1-12.1-5.3-15.2c-5.6-4-16.7,4.1-23.8,9c-1.7,1.2-7.1,5-12.2,4.4c-5.6-0.8-8.2-5-8.6-8.4c-0.8-7.6,8.8-21.5,5.7-26.9
	c-1.2-2-4.8-2.1-9.1-0.9c-5.5,1.6-13,6.2-17.5,12.3C6.5,29,8.7,36.3,9.8,39.1c2.3,5.5,6.1,10.3,9.8,14.4c7.6,8.2,15,13.9,19.8,18.1
	c5,4.1,8.2,5.9,7.3,7.1c-0.8,1.2-3.7-0.9-9.4-4.1c-5.6-3.3-13.7-8.3-22.5-16.4c-4.3-4.1-8.8-9-12.2-16C1.1,39-3.2,28.3,4.1,17.6
	c2.5-3.7,5.6-6.8,9.1-9.5c3.6-2.6,18.5-12.4,29-5.8c3.5,2.3,4.7,6,5.1,7.6c2.1,9.7-4.3,19.4-5.4,25.3c-0.2,1.3,0.6,2.3,2.5,1.2
	c4.3-2.3,10.4-6.3,13.9-8.3c11.3-6.4,19-6.7,25.3-0.1c1.4,1.3,6.7,8.4,5.1,20.7c-0.9,6.4-3.2,11.3-5.9,15.7
	c-2.6,4.1-5.6,7.1-8.2,9.3C69.4,78,66.2,79.6,65.6,78.7z"/>
<path fill="#636463" d="M99.6,24.5c0-0.9,0.5-1.4,1.3-1.4h1.3c0.9,0,1.3,0.4,1.3,1.4v8.4c0,1-0.1,1.8-0.1,1.8h0.1
	c0,0,1.8-3.8,6.8-3.8c5.5,0,9,4.4,9,10.8c0,6.6-4,10.9-9.4,10.9c-4.9,0-6.6-3.9-6.6-3.9h-0.1c0,0,0.1,0.5,0.1,1.2v1
	c0,0.7-0.5,1.2-1.4,1.2h-1c-0.9,0-1.3-0.4-1.3-1.3V24.5z M109.2,49.1c3.3,0,6-2.7,6-7.4c0-4.5-2.4-7.4-5.8-7.4c-3.1,0-6,2.2-6,7.4
	C103.4,45.5,105.3,49.1,109.2,49.1"/>
<path fill="#636463" d="M132.6,30.9c6.2,0,11.2,4.5,11.2,10.8c0,6.3-5,10.9-11.2,10.9c-6.2,0-11.1-4.6-11.1-10.9
	C121.5,35.4,126.4,30.9,132.6,30.9 M132.6,49.1c3.9,0,7.1-3.1,7.1-7.4c0-4.3-3.2-7.4-7.1-7.4c-3.9,0-7.1,3.1-7.1,7.4
	C125.5,46,128.7,49.1,132.6,49.1"/>
<path fill="#636463" d="M146.4,32.7c0-0.9,0.5-1.3,1.3-1.3h1.1c0.9,0,1.3,0.4,1.3,1.3v1.8c0,0.6-0.1,1.2-0.1,1.2h0.1
	c0.8-1.8,3.3-4.9,7.9-4.9c4.9,0,7.1,2.7,7.1,7.9v11.9c0,0.9-0.4,1.3-1.3,1.3h-1.3c-0.9,0-1.3-0.5-1.3-1.3v-11c0-2.9-0.6-5.2-3.9-5.2
	c-4,0-6.9,3.4-6.9,7.6v8.5c0,0.9-0.4,1.3-1.3,1.3h-1.3c-0.9,0-1.3-0.5-1.3-1.3V32.7z"/>
<path fill="#636463" d="M169.8,34.8h-1.4c-0.9,0-1.3-0.5-1.3-1.3v-0.5c0-0.9,0.5-1.3,1.3-1.3h1.5V27c0-0.9,0.5-1.4,1.3-1.4h1.2
	c0.9,0,1.3,0.5,1.3,1.4v4.5h3.6c0.9,0,1.3,0.5,1.3,1.3v0.5c0,0.9-0.4,1.3-1.3,1.3h-3.6V44c0,3.9,2.4,4.5,3.9,4.7
	c1.1,0.1,1.4,0.4,1.4,1.4v0.9c0,0.9-0.5,1.3-1.6,1.3c-4.1,0-7.7-2.4-7.7-7.6V34.8z"/>
<path fill="#636463" d="M191,30.9c6.2,0,11.2,4.5,11.2,10.8c0,6.3-5,10.9-11.2,10.9c-6.2,0-11.1-4.6-11.1-10.9
	C179.8,35.4,184.8,30.9,191,30.9 M191,49.1c3.9,0,7.1-3.1,7.1-7.4c0-4.3-3.2-7.4-7.1-7.4c-3.9,0-7.1,3.1-7.1,7.4
	C183.8,46,187.1,49.1,191,49.1"/>
<path fill="#636463" d="M204.8,32.7c0-0.9,0.4-1.3,1.3-1.3h1.3c0.9,0,1.3,0.4,1.3,1.3v11c0,2.9,0.6,5.2,3.9,5.2
	c4.3,0,6.7-3.7,6.7-7.8v-8.3c0-0.9,0.5-1.3,1.4-1.3h1.3c0.9,0,1.3,0.4,1.3,1.3v18c0,0.9-0.5,1.3-1.3,1.3h-1.1
	c-0.9,0-1.3-0.5-1.3-1.3v-1.8c0-0.6,0.1-1.2,0.1-1.2h-0.1c-0.9,2-3.6,4.9-7.7,4.9c-4.7,0-7-2.5-7-7.9V32.7z"/>
<path fill="#636463" d="M237.3,30.9c3.5,0,5.7,1.3,6.8,2.2c0.7,0.4,0.7,1.1,0.2,1.8l-0.4,0.6c-0.5,0.7-1.1,0.8-1.8,0.3
	c-0.9-0.6-2.5-1.6-4.6-1.6c-4.2,0-7.2,3.1-7.2,7.4c0,4.2,3,7.4,7.3,7.4c2.5,0,4.3-1.1,5.3-1.9c0.7-0.5,1.4-0.4,1.8,0.4l0.3,0.6
	c0.4,0.7,0.3,1.3-0.4,1.8c-1.1,0.9-3.6,2.5-7.4,2.5c-6.5,0-11-4.6-11-10.8C226.3,35.6,230.9,30.9,237.3,30.9"/>
<path fill="#636463" d="M247.8,24.5c0-0.9,0.5-1.4,1.3-1.4h1.3c0.9,0,1.3,0.5,1.3,1.4v9.4c0,1-0.1,1.7-0.1,1.7h0.1
	c0.9-2,3.6-4.7,7.7-4.7c4.9,0,7.1,2.7,7.1,7.9v11.9c0,0.9-0.5,1.3-1.3,1.3h-1.3c-0.9,0-1.3-0.5-1.3-1.3v-11c0-2.9-0.6-5.2-3.9-5.2
	c-4,0-6.9,3.3-6.9,7.7v8.5c0,0.9-0.5,1.3-1.3,1.3h-1.3c-0.9,0-1.3-0.5-1.3-1.3V24.5z"/>
</svg>
