<svg id="Artwork" xmlns="http://www.w3.org/2000/svg" viewBox="0 0 288 205.51"><defs><style>.cls-1{fill:#1a5091;}</style></defs><title>tg-toptracer-logo-vertical-blue</title><polygon class="cls-1" points="0.6 178.37 0 185.25 10.13 185.25 8.36 205.51 15.24 205.51 17.01 185.25 27.14 185.25 27.75 178.37 0.6 178.37"/><polygon class="cls-1" points="95.17 178.37 94.57 185.25 104.7 185.25 102.93 205.51 109.81 205.51 111.58 185.25 121.71 185.25 122.31 178.37 95.17 178.37"/><path class="cls-1" d="M303.33,381.61H289.82a8.86,8.86,0,0,0-8.64,7.95l-1,11.25a7.18,7.18,0,0,0,7.25,7.95H301a8.86,8.86,0,0,0,8.64-7.95l1-11.25A7.17,7.17,0,0,0,303.33,381.61Zm-.62,19.2a1.19,1.19,0,0,1-1.16,1.07H288a1,1,0,0,1-1-1.07l1-11.25a1.19,1.19,0,0,1,1.15-1.07h13.51a1,1,0,0,1,1,1.07Z" transform="translate(-252 -203.24)"/><path class="cls-1" d="M337.1,381.61H315.65l-2.38,27.15h6.88l.59-6.76h14.58a8.84,8.84,0,0,0,8.63-7.94l.4-4.51A7.18,7.18,0,0,0,337.1,381.61Zm0,12.45a1.19,1.19,0,0,1-1.15,1.06H321.35l.58-6.63H336.5a1,1,0,0,1,1,1.06Z" transform="translate(-252 -203.24)"/><path class="cls-1" d="M396.92,402h.31a8.85,8.85,0,0,0,8.64-7.94l.4-4.51a7.18,7.18,0,0,0-7.25-7.94H377.57l-2.38,27.15h6.88l.84-9.57,11.39,9.57H405Zm-13.08-13.51h14.58a1,1,0,0,1,1,1.06l-.4,4.51a1.19,1.19,0,0,1-1.15,1.06H383.26Z" transform="translate(-252 -203.24)"/><path class="cls-1" d="M465,400.81a1.19,1.19,0,0,1-1.16,1.07H450.28a1,1,0,0,1-1-1.07l1-11.25a1.19,1.19,0,0,1,1.15-1.07H465a1,1,0,0,1,1,1.07l-.2,2.18h6.88l.2-2.18a7.18,7.18,0,0,0-7.25-7.95H452.06a8.86,8.86,0,0,0-8.64,7.95l-1,11.25a7.18,7.18,0,0,0,7.25,7.95h13.51a8.86,8.86,0,0,0,8.64-7.95l.19-2.19h-6.88Z" transform="translate(-252 -203.24)"/><path class="cls-1" d="M485.33,381.61a8.86,8.86,0,0,0-8.64,7.95l-1,11.25a7.17,7.17,0,0,0,7.24,7.95h21.46l.6-6.88H483.56a1,1,0,0,1-1-1.07l.19-2.19h15.64l.6-6.88H483.38l.19-2.18a1.19,1.19,0,0,1,1.16-1.07h21.45l.6-6.88Z" transform="translate(-252 -203.24)"/><path class="cls-1" d="M530.62,402h.32a8.86,8.86,0,0,0,8.64-7.94l.39-4.51a7.18,7.18,0,0,0-7.25-7.94H511.27l-2.38,27.15h6.88l.84-9.57,11.4,9.57h10.66Zm-13.07-13.51h14.57a1,1,0,0,1,1,1.06l-.39,4.51a1.19,1.19,0,0,1-1.16,1.06H517Z" transform="translate(-252 -203.24)"/><path class="cls-1" d="M408.47,408.76h6.88l.59-6.76h15.63l-.59,6.76h6.88l1.68-19.2a7.17,7.17,0,0,0-7.25-7.95h-13.5a8.86,8.86,0,0,0-8.64,7.94ZM417,389.55a1.19,1.19,0,0,1,1.15-1.06h13.51a1,1,0,0,1,1,1.07l-.39,4.5-.09,1.06H416.54Z" transform="translate(-252 -203.24)"/><path class="cls-1" d="M426.31,341.92v0a5.61,5.61,0,1,1,11.21,0v0a5.61,5.61,0,1,1-11.21,0Zm10.37,0v0a4.76,4.76,0,1,0-9.52,0v0a4.73,4.73,0,0,0,4.76,4.79A4.78,4.78,0,0,0,436.68,341.89Zm-7-2.91h2.63c1.3,0,2.25.59,2.25,1.86a1.72,1.72,0,0,1-1.23,1.73l1.42,2h-1.64l-1.2-1.76h-.87v1.76h-1.36Zm2.54,2.72c.61,0,.95-.31.95-.77s-.37-.78-.95-.78h-1.18v1.55Z" transform="translate(-252 -203.24)"/><path class="cls-1" d="M396,203.24a254.13,254.13,0,0,0-81.57,13.32A256.4,256.4,0,0,0,396,357.85a256.4,256.4,0,0,0,81.57-141.29A254.13,254.13,0,0,0,396,203.24Zm46.69,81.34-.29-.25a34,34,0,0,0-2.78-3.09c-1-1-2.13-2-3.34-3l-12.61-2.2a15.76,15.76,0,0,1,1.21,1.52,9.4,9.4,0,0,1,1.17,2.26,5.93,5.93,0,0,1,.33,2.23,5,5,0,0,1-.34,1.44l13.49,6.67-1.64,2.77L424,286a11.39,11.39,0,0,1-2.61,1.47,21.85,21.85,0,0,1-4.37,1.22,39.58,39.58,0,0,1-5.88.59,62.61,62.61,0,0,1-7.35-.23l8.86,20.2a79.09,79.09,0,0,0,15.19-.91A241.55,241.55,0,0,1,396,345.08a243.8,243.8,0,0,1-41.71-51.83,114.07,114.07,0,0,0,12.84,6.14,138.62,138.62,0,0,0,18,5.84,141.56,141.56,0,0,0,19,3.42l-6.73-20.45c-2.82-.46-5.64-1.06-8.42-1.78s-5.57-1.59-8.19-2.53-5-1.94-7.29-3a64.36,64.36,0,0,1-5.67-3.05l-19.46,4.93c-.7-1.3-1.39-2.6-2.06-3.91l17.32-3.91a24.69,24.69,0,0,1-3.35-3.19,11.86,11.86,0,0,1-1.88-2.93,6,6,0,0,1-.54-2.59,4.61,4.61,0,0,1,.36-1.65h0L337.9,261A240.74,240.74,0,0,1,325.49,223a247.65,247.65,0,0,1,141,0A243.43,243.43,0,0,1,442.69,284.58Z" transform="translate(-252 -203.24)"/><path class="cls-1" d="M405.31,272.83a1.52,1.52,0,0,1-.22.68,2.75,2.75,0,0,1-1.33,1,9,9,0,0,1-2.5.54,20.67,20.67,0,0,1-3.59,0l3.39,7.72a40.31,40.31,0,0,0,9.73-.08,12.68,12.68,0,0,0,5.59-1.95,3.68,3.68,0,0,0,1.71-3,5.31,5.31,0,0,0-1-2.79Z" transform="translate(-252 -203.24)"/><path class="cls-1" d="M399.81,271.45a.92.92,0,0,0-.06-.94,3.51,3.51,0,0,0-1-1.06,9.53,9.53,0,0,0-1.7-1c-.32-.15-.66-.3-1-.44V266.4l.79.25c1,.35,2,.74,2.91,1.15a20.77,20.77,0,0,1,2.5,1.33,12.51,12.51,0,0,1,1.41,1l10.87,2a28.93,28.93,0,0,0-4-2.82,50.89,50.89,0,0,0-5.53-2.77c-1.93-.83-4-1.59-6.13-2.28-.91-.28-1.84-.55-2.78-.81V262c1,.27,2,.55,3,.85,1.23.37,2.43.77,3.62,1.18s2.37.85,3.52,1.31l4.67-1.06c-1.64-.63-3.31-1.24-5-1.81s-3.35-1.1-5.06-1.61-3.17-.92-4.78-1.34V238.09c7.84-4.2,16.58,2.16,22.21-9.26-7.56,2.33-12.17-3.91-22.21-4h-4.66v42c-.43-.06-.84-.09-1.23-.11a9.53,9.53,0,0,0-1.86.11,2.77,2.77,0,0,0-1.22.48.88.88,0,0,0-.36.85,2.14,2.14,0,0,0,.74,1.09,8.07,8.07,0,0,0,1.7,1.13,16.33,16.33,0,0,0,2.43,1,19.64,19.64,0,0,0,2.84.7,14.23,14.23,0,0,0,2.62.23,6.33,6.33,0,0,0,1.86-.25A1.6,1.6,0,0,0,399.81,271.45Z" transform="translate(-252 -203.24)"/><path class="cls-1" d="M423.28,269.83c-1.61-.85-3.26-1.66-4.93-2.43-1.09-.5-2.2-1-3.3-1.43l-4.65,1.17c.62.28,1.25.57,1.85.87,1.1.55,2.17,1.12,3.18,1.7s2.05,1.23,3,1.88c.77.52,1.49,1.06,2.18,1.61l11.75,2.1c-1.35-.94-2.73-1.85-4.16-2.71Q425.81,271.15,423.28,269.83Z" transform="translate(-252 -203.24)"/><path class="cls-1" d="M370.6,259.07l-7.75-3.9c-1.82,0-3.62.11-5.38.26s-3.75.39-5.53.69a46.38,46.38,0,0,0-5.43,1.24,31.76,31.76,0,0,0-4.58,1.74l18,3.23a9.53,9.53,0,0,1,1.81-1.16,16.44,16.44,0,0,1,2.68-1,28,28,0,0,1,3.05-.68C368.49,259.28,369.53,259.16,370.6,259.07Z" transform="translate(-252 -203.24)"/><path class="cls-1" d="M377.14,259c1.19,0,2.42.12,3.67.23s2.49.26,3.78.44,2.34.35,3.54.57l-.89-2.7c-1.72-.33-3.43-.64-5.11-.9s-3.64-.53-5.42-.73-3.64-.36-5.42-.48c-.74,0-1.46-.07-2.19-.1l7.37,3.65Z" transform="translate(-252 -203.24)"/><path class="cls-1" d="M376.43,261.06a21.15,21.15,0,0,0-5,.94,7.6,7.6,0,0,0-3.13,1.82l13.21,2.37a2.71,2.71,0,0,1,.91-.68,7.48,7.48,0,0,1,2-.55,16,16,0,0,1,2.59-.14,25.08,25.08,0,0,1,2.75.2l-1.06-3.23a59.84,59.84,0,0,0-6.26-.74A40.88,40.88,0,0,0,376.43,261.06Z" transform="translate(-252 -203.24)"/><path class="cls-1" d="M388.74,273a28.44,28.44,0,0,1-3.57-1.6,14.67,14.67,0,0,1-2.57-1.72,6.39,6.39,0,0,1-.93-1l-14.43-2.53a5.51,5.51,0,0,0,1.32,3.34,20.73,20.73,0,0,0,5.47,4.63,53.61,53.61,0,0,0,9.46,4.52,73.25,73.25,0,0,0,11.78,3.24l-2.54-7.71A38,38,0,0,1,388.74,273Z" transform="translate(-252 -203.24)"/></svg>