<?xml version="1.0" encoding="UTF-8"?>
<svg id="Lager_2" data-name="Lager 2" xmlns="http://www.w3.org/2000/svg" xmlns:xlink="http://www.w3.org/1999/xlink" viewBox="0 0 761.34 379.08">
  <defs>
    <linearGradient id="linear-gradient" x1="99.64" y1="311.06" x2="138.88" y2="320.94" gradientUnits="userSpaceOnUse">
      <stop offset=".19" stop-color="#fff"/>
      <stop offset=".21" stop-color="#fcfcfc"/>
      <stop offset="1" stop-color="#8b8b8b"/>
    </linearGradient>
  </defs>
  <g id="Lager_1-2" data-name="Lager 1">
    <g>
      <g>
        <polygon points="117.41 279.82 184.57 294.73 170.93 366.73 101.8 341.55 117.41 279.82" style="fill: url(#linear-gradient);"/>
        <polyline points="134.51 330.81 1.25 274.25 25.08 205.78 40.69 211.82 48.75 192.69 9.22 176.16 52.27 67.15 86.01 79.74 224.47 93.83 229.5 54.06 634.82 54.31 627.52 11.01 670.82 1.19 674.09 14.28" style="fill: none; stroke: #747474; stroke-miterlimit: 10; stroke-width: 2px;"/>
        <polyline points="680.8 39.79 718.4 238.84 196.78 240.18 170.93 366.73 100.52 341.72" style="fill: none; stroke: #747474; stroke-miterlimit: 10; stroke-width: 2px;"/>
        <line x1="115.97" y1="279.5" x2="184.57" y2="294.73" style="fill: none; stroke: #747474; stroke-miterlimit: 10; stroke-width: 2px;"/>
        <polyline points="308.72 134.95 217.42 134.95 196.78 240.18" style="fill: none; stroke: #747474; stroke-miterlimit: 10; stroke-width: 2px;"/>
        <polyline points="196.06 243.48 176.97 239.01 199.97 131.43 217.42 134.95" style="fill: none; stroke: #747474; stroke-miterlimit: 10; stroke-width: 2px;"/>
        <line x1="82.99" y1="272.58" x2="76.39" y2="306.15" style="fill: none; stroke: #747474; stroke-miterlimit: 10; stroke-width: 2px;"/>
        <line x1="332.22" y1="134.95" x2="358.19" y2="239.39" style="fill: none; stroke: #747474; stroke-miterlimit: 10; stroke-width: 2px;"/>
        <line x1="364.27" y1="134.95" x2="440.47" y2="134.95" style="fill: none; stroke: #747474; stroke-miterlimit: 10; stroke-width: 2px;"/>
        <line x1="465.39" y1="135.63" x2="447.96" y2="239" style="fill: none; stroke: #747474; stroke-miterlimit: 10; stroke-width: 2px;"/>
        <path d="M494.85,137.56c5.64-3.02,39.95-21.28,77.54-8.14,37.93,13.26,50.18,58.91,55.47,109.58" style="fill: none; stroke: #747474; stroke-miterlimit: 10; stroke-width: 3px;"/>
        <line x1="117.41" y1="279.82" x2="101.8" y2="341.55" style="fill: none; stroke: #747474; stroke-miterlimit: 10;"/>
        <line x1="122.9" y1="281.89" x2="107.29" y2="343.62" style="fill: none; stroke: #747474; stroke-miterlimit: 10;"/>
        <line x1="128.52" y1="283.31" x2="112.92" y2="345.04" style="fill: none; stroke: #747474; stroke-miterlimit: 10;"/>
        <line x1="134.62" y1="284.17" x2="118.36" y2="347.26" style="fill: none; stroke: #747474; stroke-miterlimit: 10;"/>
        <line x1="145.81" y1="286.92" x2="129.36" y2="351.96" style="fill: none; stroke: #747474; stroke-miterlimit: 10;"/>
        <line x1="140.47" y1="284.68" x2="124.01" y2="349.72" style="fill: none; stroke: #747474; stroke-miterlimit: 10;"/>
        <polyline points="151.21 120.11 115.94 128.03 111.38 132.29 105.56 138.11 99.74 143.21 90.27 160.67 87.36 172.32 82.27 191.24 82.27 213.8 83.79 238.27 93.73 254.38" style="fill: none; stroke: #e8e8e8; stroke-dasharray: 0 12; stroke-linecap: round; stroke-miterlimit: 10; stroke-width: 6px;"/>
        <polyline points="316.86 114.65 322.59 139.15 316.86 166 296.72 181.86 269.25 185.51 241.07 184.99" style="fill: none; stroke: #e8e8e8; stroke-dasharray: 0 12; stroke-linecap: round; stroke-miterlimit: 10; stroke-width: 6px;"/>
        <g>
          <polyline points="202.93 313.54 222.4 313.54 222.74 322.99 241.62 322.99 241.62 333.08 259.33 333.08 259.33 342.96 277.37 342.96 277.72 360.23" style="fill: none; stroke: #dc2e79; stroke-miterlimit: 10; stroke-width: 3px;"/>
          <polygon points="278.1 379.08 266.71 352.74 277.69 358.82 288.41 352.3 278.1 379.08" style="fill: #dc2e79;"/>
        </g>
        <g>
          <polyline points="702.01 26.11 713.61 26.11 713.94 37.19 732.82 37.19 732.82 49.02 750.53 49.02 750.53 60.6 750.45 76.89" style="fill: none; stroke: #dc2e79; stroke-miterlimit: 10; stroke-width: 3px;"/>
          <polygon points="750.35 95.74 739.63 69.12 750.45 75.48 761.34 69.23 750.35 95.74" style="fill: #dc2e79;"/>
        </g>
        <g>
          <circle cx="162.16" cy="222.33" r="17.82" style="fill: #dc2e79;"/>
          <g>
            <path d="M159.46,219.44c-.57.88-1.08,1.83-1.52,2.84s-.8,2.04-1.08,3.11c-.28,1.07-.45,2.1-.51,3.11h-1.73c.07-1.09.25-2.15.54-3.19s.65-2.03,1.1-2.98c.45-.95.97-1.85,1.55-2.7s1.22-1.63,1.9-2.34h-6.76v-1.46h8.34v1.33c-.65.64-1.27,1.41-1.84,2.29Z" style="fill: #fff;"/>
            <path d="M165.5,217.19l-.69,3.71.04.04c.28-.31.64-.55,1.08-.7s.88-.23,1.32-.23c.57,0,1.11.09,1.62.27.51.18.95.46,1.33.83.38.37.67.83.89,1.38.22.55.33,1.2.33,1.94,0,.55-.09,1.08-.28,1.59-.19.52-.47.97-.85,1.37-.38.4-.84.72-1.41.96-.56.24-1.22.35-1.97.35-.56,0-1.08-.08-1.57-.25-.49-.16-.92-.4-1.3-.71-.38-.31-.67-.69-.89-1.15-.22-.46-.33-.98-.34-1.56h1.55c.02.33.11.63.24.92.14.28.33.53.56.75s.51.38.84.49c.32.12.68.17,1.06.17.36,0,.71-.06,1.05-.19.33-.13.62-.32.87-.57.25-.25.45-.57.59-.95.14-.38.22-.83.22-1.34,0-.42-.07-.82-.21-1.17s-.34-.67-.59-.93-.56-.46-.92-.61-.75-.22-1.19-.22c-.51,0-.96.11-1.35.34-.39.22-.74.52-1.04.88l-1.33-.07,1.2-6.69h6.36v1.36h-5.2Z" style="fill: #fff;"/>
          </g>
        </g>
        <g>
          <circle cx="175.3" cy="141.63" r="17.54" style="fill: #dc2e79;"/>
          <g>
            <path d="M172.65,138.78c-.56.87-1.06,1.8-1.49,2.79-.44.99-.79,2.01-1.06,3.06-.28,1.05-.44,2.07-.5,3.06h-1.7c.07-1.07.25-2.12.53-3.14s.64-2,1.08-2.93c.44-.94.95-1.82,1.53-2.66.58-.83,1.2-1.6,1.87-2.31h-6.65v-1.43h8.21v1.31c-.64.63-1.25,1.38-1.81,2.25Z" style="fill: #fff;"/>
            <path d="M179.36,140.47h.5c.32,0,.63-.04.92-.13.29-.09.55-.22.77-.39.22-.17.4-.39.53-.65.13-.26.2-.56.2-.89,0-.68-.21-1.19-.64-1.53-.43-.34-.97-.51-1.61-.51-.41,0-.76.07-1.06.22-.3.15-.55.35-.75.6s-.34.54-.44.88c-.1.33-.14.69-.14,1.05h-1.52c.02-.61.12-1.16.29-1.66s.42-.93.74-1.29.72-.64,1.21-.84c.48-.2,1.04-.3,1.67-.3.55,0,1.06.07,1.53.21.47.14.88.34,1.23.62.35.28.62.63.81,1.06.2.43.29.94.29,1.52s-.17,1.08-.5,1.52c-.33.44-.75.78-1.25,1v.04c.78.17,1.35.53,1.73,1.09.38.56.56,1.22.56,1.99,0,.63-.12,1.19-.35,1.67s-.55.88-.94,1.21-.86.56-1.39.72c-.53.16-1.09.24-1.69.24-.64,0-1.23-.09-1.75-.27-.52-.18-.97-.44-1.34-.79-.37-.35-.65-.78-.85-1.3s-.29-1.1-.28-1.75h1.52c.02.82.26,1.49.71,2.01.45.52,1.12.78,1.99.78.37,0,.72-.06,1.05-.17s.63-.27.88-.48c.25-.21.45-.46.6-.77s.22-.65.22-1.03-.07-.74-.21-1.05c-.14-.3-.33-.56-.57-.77s-.52-.36-.85-.46-.68-.15-1.06-.15c-.32,0-.62.02-.91.05v-1.29c.06.01.11.02.16.02Z" style="fill: #fff;"/>
          </g>
        </g>
        <g>
          <circle cx="53.23" cy="157.95" r="18.63" style="fill: #dc2e79;"/>
          <g>
            <path d="M50.42,154.93c-.6.92-1.12,1.91-1.59,2.96-.46,1.05-.84,2.13-1.13,3.25-.29,1.12-.47,2.2-.53,3.25h-1.8c.08-1.14.26-2.25.56-3.33.3-1.08.68-2.12,1.15-3.12.47-.99,1.01-1.93,1.62-2.82.61-.89,1.28-1.7,1.99-2.45h-7.07v-1.52h8.72v1.39c-.68.67-1.32,1.47-1.92,2.39Z" style="fill: #fff;"/>
            <path d="M58.38,164.39v-9.65h-3.5v-1.29c.46,0,.9-.03,1.33-.1.43-.07.82-.2,1.17-.39.35-.19.64-.45.88-.78.24-.33.41-.75.49-1.25h1.24v13.47h-1.62Z" style="fill: #fff;"/>
          </g>
        </g>
        <g>
          <circle cx="75.1" cy="105.46" r="18.63" style="fill: #dc2e79;"/>
          <g>
            <path d="M72.29,102.44c-.6.93-1.12,1.91-1.59,2.96s-.84,2.13-1.13,3.25c-.29,1.12-.47,2.2-.53,3.25h-1.8c.08-1.14.26-2.25.56-3.34.3-1.08.68-2.12,1.15-3.12.47-.99,1.01-1.93,1.62-2.82.61-.88,1.28-1.7,1.99-2.45h-7.07v-1.52h8.72v1.39c-.68.67-1.32,1.47-1.92,2.39Z" style="fill: #fff;"/>
            <path d="M76.14,101.3c.18-.58.45-1.09.83-1.51.37-.42.84-.76,1.4-1,.56-.24,1.19-.36,1.9-.36.58,0,1.13.08,1.64.26.51.17.96.42,1.34.74.38.32.68.73.9,1.21.22.48.33,1.04.33,1.67,0,.6-.09,1.12-.28,1.58-.18.46-.43.86-.73,1.22s-.65.69-1.04.98-.8.57-1.22.84c-.42.25-.84.5-1.25.75-.42.25-.8.51-1.15.79-.35.28-.65.58-.89.9-.25.32-.41.69-.48,1.11h6.92v1.43h-8.8c.06-.8.21-1.48.43-2.04.22-.56.5-1.05.85-1.47s.73-.79,1.16-1.1.88-.62,1.35-.89c.57-.36,1.07-.68,1.5-.98.43-.3.79-.6,1.07-.9.29-.3.5-.63.65-.99.14-.36.22-.77.22-1.24,0-.37-.07-.7-.21-1-.14-.3-.33-.55-.56-.77-.24-.22-.51-.38-.83-.49-.32-.12-.65-.17-1.01-.17-.47,0-.87.1-1.21.29-.34.2-.61.45-.83.77s-.37.67-.46,1.07c-.1.4-.14.8-.12,1.21h-1.62c-.04-.68.03-1.32.21-1.9Z" style="fill: #fff;"/>
          </g>
        </g>
        <g>
          <circle cx="308.72" cy="216.25" r="18.63" style="fill: #dc2e79;"/>
          <g>
            <path d="M305.91,213.23c-.6.92-1.12,1.91-1.59,2.96-.46,1.05-.84,2.13-1.13,3.25-.29,1.12-.47,2.2-.53,3.25h-1.8c.08-1.14.26-2.25.56-3.33.3-1.08.68-2.12,1.15-3.12.47-.99,1.01-1.93,1.62-2.82.62-.89,1.28-1.7,1.99-2.45h-7.07v-1.52h8.72v1.39c-.68.67-1.32,1.47-1.92,2.39Z" style="fill: #fff;"/>
            <path d="M309.56,214.54c.03-.53.09-1.05.19-1.56s.25-.99.44-1.44c.19-.46.45-.85.78-1.2.33-.34.74-.61,1.24-.82.5-.2,1.1-.3,1.8-.3s1.29.1,1.79.3c.5.2.92.47,1.24.82.33.34.59.74.78,1.2s.34.94.44,1.44c.1.51.16,1.03.19,1.56.03.53.04,1.04.04,1.54s-.01,1.01-.04,1.54-.09,1.05-.19,1.56c-.1.51-.25.98-.44,1.43-.19.45-.45.84-.78,1.19-.33.34-.74.61-1.23.81-.49.2-1.1.29-1.8.29s-1.3-.1-1.8-.29c-.5-.2-.91-.46-1.24-.81-.33-.34-.59-.74-.78-1.19-.19-.45-.33-.93-.44-1.43s-.17-1.03-.19-1.56-.04-1.04-.04-1.54.01-1.01.04-1.54ZM311.28,217.76c.03.63.13,1.22.3,1.77.17.55.45,1.02.83,1.4.38.38.91.57,1.6.57s1.21-.19,1.6-.57c.38-.38.66-.85.83-1.4.17-.55.27-1.14.3-1.77s.05-1.19.05-1.7c0-.33,0-.69,0-1.09,0-.4-.04-.8-.09-1.2-.06-.4-.14-.79-.25-1.17s-.27-.71-.47-1c-.21-.28-.47-.52-.79-.69-.32-.18-.7-.27-1.16-.27s-.84.09-1.16.27c-.32.18-.58.41-.79.69-.21.29-.37.62-.48,1s-.19.77-.25,1.17c-.06.4-.09.8-.1,1.2,0,.4,0,.76,0,1.09,0,.51.02,1.07.05,1.7Z" style="fill: #fff;"/>
          </g>
        </g>
        <polyline points="103.5 305.3 97.84 258.06 100.52 257.12 122.89 234.88" style="fill: none; stroke: #e8e8e8; stroke-dasharray: 0 12; stroke-linecap: round; stroke-miterlimit: 10; stroke-width: 6px;"/>
        <path d="M690.87,26.5l-8.47-.38-13.22,2.14-9.45,4.81-7.79,11.93-2.14,13.59-3.02,24.55-3.52,13.59s-9,11.08-9.31,11.45-22.63,4.63-22.63,4.63l-31.2,1.83H190.73l-17.12,2.52-12.67,6.29-8.81,7.97-10.07,23.04-1.97,17.42-2.39,22.64-2.35,22.66-9.86,15.73-7.33,5.26" style="fill: none; stroke: #e8e8e8; stroke-dasharray: 0 12; stroke-linecap: round; stroke-miterlimit: 10; stroke-width: 6px;"/>
        <g>
          <circle cx="166.25" cy="182.8" r="17.04" style="fill: #dc2e79;"/>
          <g>
            <path d="M163.68,180.04c-.54.85-1.03,1.75-1.45,2.71s-.77,1.95-1.03,2.97c-.27,1.02-.43,2.01-.49,2.97h-1.65c.07-1.04.24-2.06.51-3.05.27-.99.62-1.94,1.05-2.85.43-.91.92-1.77,1.49-2.58.56-.81,1.17-1.56,1.82-2.24h-6.46v-1.39h7.98v1.27c-.63.61-1.21,1.34-1.76,2.19Z" style="fill: #fff;"/>
            <path d="M175.2,184.51v1.3h-1.67v2.88h-1.39v-2.88h-5.4v-1.42l5.61-8.01h1.18v8.13h1.67ZM172.14,178.48h-.04l-4.1,6.03h4.14v-6.03Z" style="fill: #fff;"/>
          </g>
        </g>
        <g>
          <circle cx="59.81" cy="273.01" r="18.63" style="fill: #dc2e79;"/>
          <g>
            <path d="M56.99,269.99c-.6.92-1.12,1.91-1.59,2.96-.46,1.05-.84,2.13-1.13,3.25-.29,1.12-.47,2.2-.53,3.25h-1.8c.08-1.14.26-2.25.56-3.33s.68-2.12,1.15-3.12,1.01-1.93,1.62-2.82c.61-.89,1.28-1.7,1.99-2.45h-7.07v-1.52h8.72v1.39c-.68.67-1.32,1.47-1.92,2.39Z" style="fill: #fff;"/>
            <path d="M66.97,267.96c-.39-.37-.91-.55-1.56-.55-.68,0-1.24.17-1.65.5-.42.34-.75.76-.98,1.27-.24.51-.4,1.07-.49,1.66-.09.6-.14,1.15-.15,1.67l.04.04c.38-.62.85-1.07,1.42-1.35.56-.28,1.21-.42,1.95-.42.65,0,1.22.11,1.74.33.51.22.94.53,1.29.92s.62.86.81,1.39c.19.53.29,1.11.29,1.73,0,.49-.08,1.01-.23,1.54s-.4,1.02-.75,1.45c-.35.44-.81.8-1.39,1.08-.58.29-1.29.43-2.14.43-1,0-1.8-.2-2.41-.61-.61-.41-1.08-.92-1.41-1.56-.33-.63-.55-1.33-.66-2.09-.11-.76-.16-1.49-.16-2.2,0-.92.08-1.82.24-2.69.16-.87.43-1.64.81-2.31.38-.67.89-1.21,1.52-1.62.63-.41,1.43-.61,2.39-.61,1.11,0,2,.29,2.66.88.66.59,1.04,1.44,1.14,2.56h-1.61c-.08-.61-.31-1.1-.7-1.46ZM64.04,272.45c-.34.16-.63.37-.87.65-.24.27-.42.6-.54.97-.12.37-.18.77-.18,1.19s.06.81.19,1.18c.13.37.31.68.54.95.23.27.53.48.87.64.35.16.74.24,1.19.24s.83-.08,1.17-.24c.33-.16.62-.38.85-.66s.4-.6.52-.96c.12-.36.18-.74.18-1.13,0-.42-.05-.81-.16-1.19-.11-.37-.28-.7-.5-.97-.23-.27-.51-.49-.86-.66-.34-.16-.74-.25-1.2-.25s-.85.08-1.2.24Z" style="fill: #fff;"/>
          </g>
        </g>
        <g>
          <circle cx="35.79" cy="234.88" r="17.44" style="fill: #dc2e79;"/>
          <g>
            <path d="M33.16,232.05c-.56.87-1.05,1.79-1.49,2.78-.43.98-.79,2-1.06,3.04-.27,1.04-.44,2.06-.5,3.04h-1.69c.07-1.07.25-2.11.52-3.12.28-1.01.64-1.99,1.08-2.92.44-.93.95-1.81,1.52-2.64s1.2-1.6,1.86-2.29h-6.62v-1.42h8.17v1.3c-.64.63-1.24,1.38-1.8,2.24Z" style="fill: #fff;"/>
            <path d="M43.05,232.05c-.56.87-1.05,1.79-1.49,2.78-.43.98-.79,2-1.06,3.04-.27,1.04-.44,2.06-.5,3.04h-1.69c.07-1.07.25-2.11.53-3.12.28-1.01.64-1.99,1.08-2.92.44-.93.95-1.81,1.52-2.64s1.19-1.6,1.86-2.29h-6.62v-1.42h8.17v1.3c-.64.63-1.24,1.38-1.8,2.24Z" style="fill: #fff;"/>
          </g>
        </g>
        <g>
          <circle cx="250.36" cy="216.25" r="18.63" style="fill: #dc2e79;"/>
          <g>
            <path d="M246.96,211.19c-.39-.37-.91-.55-1.56-.55-.68,0-1.24.17-1.65.5-.42.34-.74.76-.98,1.27s-.4,1.07-.48,1.66c-.09.6-.14,1.15-.15,1.67l.04.04c.38-.62.85-1.07,1.42-1.35.56-.28,1.21-.42,1.95-.42.65,0,1.23.11,1.74.33.51.22.94.53,1.29.92.35.39.62.86.81,1.39.19.53.28,1.11.28,1.73,0,.49-.08,1.01-.23,1.54s-.4,1.02-.75,1.45c-.35.44-.81.8-1.39,1.08-.58.29-1.29.43-2.14.43-1,0-1.8-.2-2.41-.61s-1.08-.92-1.41-1.56c-.33-.63-.55-1.33-.66-2.09s-.16-1.49-.16-2.2c0-.92.08-1.82.24-2.69.16-.87.43-1.64.81-2.31.38-.67.89-1.21,1.52-1.62.63-.41,1.43-.61,2.39-.61,1.11,0,2,.29,2.66.88.66.59,1.04,1.44,1.14,2.56h-1.62c-.08-.61-.31-1.1-.7-1.46ZM244.03,215.69c-.34.16-.63.37-.87.65s-.42.6-.54.97c-.12.37-.18.77-.18,1.19s.06.81.19,1.18c.13.37.31.68.54.95.23.27.53.48.87.64.35.16.74.24,1.19.24s.83-.08,1.17-.24.62-.38.85-.66c.23-.28.4-.6.52-.96.12-.36.18-.74.18-1.13,0-.42-.05-.81-.16-1.19-.11-.37-.28-.7-.5-.97-.23-.27-.51-.49-.85-.66-.34-.16-.74-.25-1.2-.25s-.86.08-1.2.24Z" style="fill: #fff;"/>
            <path d="M253.7,220.96c.47.35,1.03.53,1.67.53.99,0,1.73-.43,2.22-1.28s.77-2.16.82-3.92l-.04-.04c-.3.57-.74,1.02-1.29,1.36-.56.33-1.17.5-1.82.5s-1.29-.11-1.82-.33-.98-.53-1.34-.92c-.36-.39-.63-.87-.82-1.42s-.28-1.17-.28-1.82.11-1.24.32-1.78c.21-.54.52-1,.91-1.39.39-.39.86-.69,1.41-.9.54-.21,1.14-.32,1.79-.32s1.23.1,1.79.29c.56.2,1.04.54,1.46,1.02.42.48.75,1.14,1,1.97s.37,1.88.37,3.16c0,2.33-.37,4.12-1.11,5.37-.74,1.25-1.93,1.87-3.56,1.87-1.13,0-2.07-.29-2.81-.86-.75-.57-1.17-1.44-1.27-2.6h1.62c.06.66.33,1.17.8,1.52ZM257.95,212.54c-.12-.37-.3-.69-.53-.98-.24-.29-.52-.51-.86-.67s-.74-.25-1.2-.25c-.48,0-.89.09-1.23.27-.34.18-.61.42-.82.71s-.36.64-.46,1.02c-.1.38-.14.78-.14,1.2,0,.37.07.72.2,1.06s.32.65.55.91.51.48.84.64c.32.16.68.24,1.07.24.42,0,.8-.08,1.14-.24.34-.16.63-.37.88-.65.24-.27.42-.59.55-.95.13-.36.19-.74.19-1.13,0-.42-.06-.81-.18-1.18Z" style="fill: #fff;"/>
          </g>
        </g>
      </g>
      <path d="M248.77,165.83c2.17,0,3.94-1.76,3.94-3.94s-1.76-3.94-3.94-3.94-3.94,1.76-3.94,3.94,1.76,3.94,3.94,3.94Z" style="fill: none; stroke: #dc2e79; stroke-miterlimit: 10; stroke-width: 2px;"/>
      <path d="M236.96,166.88v-9.97c0-1.47,0-2.21.29-2.77.25-.49.65-.9,1.15-1.15.56-.29,1.3-.29,2.77-.29h1.38c.16,0,.24,0,.32,0,.39-.04.74-.26.95-.59.04-.06.08-.13.15-.28.14-.29.22-.43.3-.56.43-.65,1.12-1.09,1.9-1.17.15-.02.31-.02.63-.02h3.96c.32,0,.48,0,.63.02.78.09,1.47.52,1.9,1.17.08.13.15.27.3.56.07.14.11.22.15.28.21.33.56.54.95.59.07,0,.16,0,.32,0h1.38c1.47,0,2.21,0,2.77.29.49.25.9.65,1.15,1.15.29.56.29,1.3.29,2.77v9.97c0,1.47,0,2.21-.29,2.77-.25.49-.65.9-1.15,1.15-.56.29-1.3.29-2.77.29h-15.22c-1.47,0-2.21,0-2.77-.29-.49-.25-.9-.65-1.15-1.15-.29-.56-.29-1.3-.29-2.77Z" style="fill: none; stroke: #dc2e79; stroke-miterlimit: 10; stroke-width: 2px;"/>
    </g>
  </g>
</svg>