<?xml version="1.0" encoding="UTF-8" standalone="no"?>
<svg
   xmlns:dc="http://purl.org/dc/elements/1.1/"
   xmlns:cc="http://creativecommons.org/ns#"
   xmlns:rdf="http://www.w3.org/1999/02/22-rdf-syntax-ns#"
   xmlns:svg="http://www.w3.org/2000/svg"
   xmlns="http://www.w3.org/2000/svg"
   viewBox="0 0 400 400"
   height="400"
   width="400"
   xml:space="preserve"
   id="svg2"
   version="1.1"><metadata
     id="metadata8"><rdf:RDF><cc:Work
         rdf:about=""><dc:format>image/svg+xml</dc:format><dc:type
           rdf:resource="http://purl.org/dc/dcmitype/StillImage" /></cc:Work></rdf:RDF></metadata><defs
     id="defs6"><clipPath
       id="clipPath20"
       clipPathUnits="userSpaceOnUse"><path
         id="path18"
         d="M 3000,1500 C 3000,671.57 2328.43,0 1500,0 671.574,0 0,671.57 0,1500 c 0,828.43 671.574,1500 1500,1500 828.43,0 1500,-671.57 1500,-1500 z" /></clipPath></defs><g
     transform="matrix(1.3333333,0,0,-1.3333333,0,400)"
     id="g10"><g
       transform="scale(0.1)"
       id="g12"><g
         id="g14"><g
           clip-path="url(#clipPath20)"
           id="g16"><path
             id="path22"
             style="fill:#ffffff;fill-opacity:1;fill-rule:nonzero;stroke:none"
             d="M 4496.86,0.339844 H -1499.99 V 3000 H 4496.86 V 0.339844" /><path
             id="path24"
             style="fill:#d11d2c;fill-opacity:1;fill-rule:nonzero;stroke:none"
             d="M 1198.56,1201.11 V 0.339844 h 599.75 V 1201.11 h 2698.56 v 599.68 H 1798.31 V 3000 H 1198.56 V 1800.79 H -1500 v -599.68 h 2698.56" /><path
             id="path26"
             style="fill:#273375;fill-opacity:1;fill-rule:nonzero;stroke:none"
             d="M 1998.3,2029.01 V 3000 h 1941.6 z" /><path
             id="path28"
             style="fill:#273375;fill-opacity:1;fill-rule:nonzero;stroke:none"
             d="M 1998.3,971.328 V 0.339844 h 1941.6 z" /><path
             id="path30"
             style="fill:#273375;fill-opacity:1;fill-rule:nonzero;stroke:none"
             d="M 998.563,971.328 V 0.339844 H -943.035 Z" /><path
             id="path32"
             style="fill:#273375;fill-opacity:1;fill-rule:nonzero;stroke:none"
             d="M 998.563,2029.01 V 3000 H -943.035 Z" /><path
             id="path34"
             style="fill:#d11d2c;fill-opacity:1;fill-rule:nonzero;stroke:none"
             d="M 4496.86,3000 H 4163.78 L 2168,2000.14 h 333.08 L 4500,3000" /><path
             id="path36"
             style="fill:#d11d2c;fill-opacity:1;fill-rule:nonzero;stroke:none"
             d="M 828.855,1000.25 H 495.777 L -1500,0.390625 h 333.08 L 831.996,1000.25" /><path
             id="path38"
             style="fill:#d11d2c;fill-opacity:1;fill-rule:nonzero;stroke:none"
             d="M 165.344,1999.36 H 498.422 L -1499.99,3000 -1500,2832.3 165.344,1999.36" /><path
             id="path40"
             style="fill:#d11d2c;fill-opacity:1;fill-rule:nonzero;stroke:none"
             d="M 2830.45,1000.64 H 2497.37 L 4495.79,0 4495.8,167.699 2830.45,1000.64" /></g></g></g></g></svg>