<svg xmlns="http://www.w3.org/2000/svg" xmlns:xlink="http://www.w3.org/1999/xlink" width="346.44mm" height="263.83mm" viewBox="0 0 982.05 747.86">
  <defs>
    <linearGradient id="b4394add-65fa-4829-828e-b7d3b67a678b" x1="537.08" y1="166.77" x2="593.36" y2="166.77" gradientUnits="userSpaceOnUse">
      <stop offset="0" stop-color="#fff"/>
      <stop offset="0.77" stop-color="#c2c2c2"/>
    </linearGradient>
    <linearGradient id="b8829422-1319-4e2b-976d-1e54ea112745" x1="93.39" y1="627.55" x2="2.18" y2="590.34" gradientUnits="userSpaceOnUse">
      <stop offset="0" stop-color="#fff"/>
      <stop offset="0.72" stop-color="#c2c2c2"/>
    </linearGradient>
    <linearGradient id="a9173e7f-a22a-4810-8f95-da5a3775621f" x1="255.53" y1="696.17" x2="287.28" y2="702.58" gradientUnits="userSpaceOnUse">
      <stop offset="0" stop-color="#fff"/>
      <stop offset="0.46" stop-color="#dfdfdf"/>
      <stop offset="0.95" stop-color="#c2c2c2"/>
    </linearGradient>
    <pattern id="b2aa77dd-0891-4ed0-91ad-6323cfb7c545" data-name="New Pattern Swatch 2" x="-22.08" y="-11.12" width="25.08" height="25.08" patternUnits="userSpaceOnUse" viewBox="0 0 25.08 25.08">
      <rect width="25.08" height="25.08" fill="none"/>
      <rect x="0.14" y="0.14" width="24.8" height="24.8" fill="#fff"/>
      <g>
        <polygon points="23.59 25.08 25.08 23.59 25.08 20.3 20.3 25.08 23.59 25.08" fill="none"/>
        <polygon points="14.03 0 0 14.03 0 17.32 17.32 0 14.03 0" fill="none"/>
        <polygon points="1.49 0 0 1.49 0 4.78 4.78 0 1.49 0" fill="none"/>
        <polygon points="7.76 0 0 7.76 0 11.05 11.05 0 7.76 0" fill="none"/>
        <polygon points="25.08 4.78 25.08 1.49 1.49 25.08 4.78 25.08 25.08 4.78" fill="none"/>
        <polygon points="17.32 25.08 25.08 17.32 25.08 14.03 14.03 25.08 17.32 25.08" fill="none"/>
        <polygon points="11.05 25.08 25.08 11.05 25.08 7.76 7.76 25.08 11.05 25.08" fill="none"/>
        <polygon points="20.3 0 0 20.3 0 23.59 23.59 0 20.3 0" fill="none"/>
        <polygon points="0 0 0 1.49 1.49 0 0 0" fill="#e8afcc"/>
        <polygon points="4.78 0 0 4.78 0 7.76 7.76 0 4.78 0" fill="#e8afcc"/>
        <polygon points="11.05 0 0 11.05 0 14.03 14.03 0 11.05 0" fill="#e8afcc"/>
        <polygon points="17.32 0 0 17.32 0 20.3 20.3 0 17.32 0" fill="#e8afcc"/>
        <polygon points="25.08 0 23.59 0 0 23.59 0 25.08 1.49 25.08 25.08 1.49 25.08 0" fill="#e8afcc"/>
        <polygon points="7.76 25.08 25.08 7.76 25.08 4.78 4.78 25.08 7.76 25.08" fill="#e8afcc"/>
        <polygon points="14.03 25.08 25.08 14.03 25.08 11.05 11.05 25.08 14.03 25.08" fill="#e8afcc"/>
        <polygon points="20.3 25.08 25.08 20.3 25.08 17.32 17.32 25.08 20.3 25.08" fill="#e8afcc"/>
        <polygon points="25.08 25.08 25.08 23.59 23.59 25.08 25.08 25.08" fill="#e8afcc"/>
      </g>
    </pattern>
  </defs>
  <title>Karta</title>
  <g id="a43d32b9-5501-43f7-9078-2ac95e80b2c0" data-name="Skuggning">
    <polygon points="537.08 150.61 537.08 182.92 593.36 182.35 593.36 156.8 537.08 150.61" fill="url(#b4394add-65fa-4829-828e-b7d3b67a678b)"/>
    <polygon points="103.47 612.97 90.87 644.39 3.49 609.69 16.43 577.33 103.47 612.97" fill="url(#b8829422-1319-4e2b-976d-1e54ea112745)"/>
    <polygon points="291.57 690.22 285.27 722.22 348.86 747.49 366.99 657.81 270.93 638.78 268.03 641.2 265.61 656.14 320.79 679.81 316.31 700.1 291.57 690.22" fill="#c2c2c2"/>
    <polygon points="291.57 690.22 257.8 676.59 251.33 708.51 285.27 722.22 291.57 690.22" fill="url(#a9173e7f-a22a-4810-8f95-da5a3775621f)"/>
    <g>
      <path d="M273.59,718.74l6.29-31Z" transform="translate(-22.08 -11.12)" fill="none" stroke="#000" stroke-linecap="round" stroke-linejoin="round" stroke-width="0.11"/>
      <line x1="262.2" y1="678.38" x2="255.82" y2="709.83" fill="none" stroke="#000" stroke-linecap="round" stroke-linejoin="round" stroke-width="0.11"/>
      <line x1="267.04" y1="680.32" x2="260.76" y2="711.32" fill="none" stroke="#000" stroke-linecap="round" stroke-linejoin="round" stroke-width="0.11"/>
      <line x1="271.89" y1="682.26" x2="265.61" y2="713.26" fill="none" stroke="#000" stroke-linecap="round" stroke-linejoin="round" stroke-width="0.11"/>
      <line x1="276.74" y1="684.2" x2="270.45" y2="715.2" fill="none" stroke="#000" stroke-linecap="round" stroke-linejoin="round" stroke-width="0.11"/>
      <line x1="281.58" y1="686.14" x2="275.3" y2="717.14" fill="none" stroke="#000" stroke-linecap="round" stroke-linejoin="round" stroke-width="0.11"/>
      <line x1="286.43" y1="688.08" x2="280.14" y2="719.08" fill="none" stroke="#000" stroke-linecap="round" stroke-linejoin="round" stroke-width="0.11"/>
    </g>
    <g>
      <line x1="80.01" y1="602.77" x2="67.15" y2="634.91" fill="none" stroke="#000" stroke-linecap="round" stroke-linejoin="round" stroke-width="0.11"/>
      <line x1="20.78" y1="579.07" x2="7.91" y2="611.24" fill="none" stroke="#000" stroke-linecap="round" stroke-linejoin="round" stroke-width="0.11"/>
      <line x1="25.13" y1="580.81" x2="12.26" y2="612.97" fill="none" stroke="#000" stroke-linecap="round" stroke-linejoin="round" stroke-width="0.11"/>
      <line x1="29.47" y1="582.55" x2="16.6" y2="614.71" fill="none" stroke="#000" stroke-linecap="round" stroke-linejoin="round" stroke-width="0.11"/>
      <line x1="33.82" y1="584.29" x2="20.95" y2="616.45" fill="none" stroke="#000" stroke-linecap="round" stroke-linejoin="round" stroke-width="0.11"/>
      <line x1="38.16" y1="586.03" x2="25.13" y2="618.61" fill="none" stroke="#000" stroke-linecap="round" stroke-linejoin="round" stroke-width="0.11"/>
      <line x1="42.51" y1="587.77" x2="29.64" y2="619.92" fill="none" stroke="#000" stroke-linecap="round" stroke-linejoin="round" stroke-width="0.11"/>
      <line x1="46.86" y1="589.51" x2="33.99" y2="621.66" fill="none" stroke="#000" stroke-linecap="round" stroke-linejoin="round" stroke-width="0.11"/>
      <line x1="51.2" y1="591.25" x2="38.34" y2="623.4" fill="none" stroke="#000" stroke-linecap="round" stroke-linejoin="round" stroke-width="0.11"/>
      <line x1="75.68" y1="601.04" x2="62.82" y2="633.18" fill="none" stroke="#000" stroke-linecap="round" stroke-linejoin="round" stroke-width="0.11"/>
      <line x1="84.33" y1="604.5" x2="71.47" y2="636.64" fill="none" stroke="#000" stroke-linecap="round" stroke-linejoin="round" stroke-width="0.11"/>
      <line x1="88.65" y1="606.23" x2="75.79" y2="638.36" fill="none" stroke="#000" stroke-linecap="round" stroke-linejoin="round" stroke-width="0.11"/>
      <line x1="92.97" y1="607.96" x2="80.11" y2="640.09" fill="none" stroke="#000" stroke-linecap="round" stroke-linejoin="round" stroke-width="0.11"/>
      <line x1="97.29" y1="609.69" x2="84.44" y2="641.82" fill="none" stroke="#000" stroke-linecap="round" stroke-linejoin="round" stroke-width="0.11"/>
      <line x1="101.62" y1="611.42" x2="88.65" y2="643.82" fill="none" stroke="#000" stroke-linecap="round" stroke-linejoin="round" stroke-width="0.11"/>
    </g>
    <polygon points="713.3 356.24 828.91 356.24 800.5 217.16 712.58 217.16 713.3 356.24" fill="url(#b2aa77dd-0891-4ed0-91ad-6323cfb7c545)"/>
    <polygon points="397.66 505.52 330.06 492.03 311.67 582.69 379.52 596.3 397.66 505.52" stroke="#000" stroke-miterlimit="10" stroke-width="0.75" fill="url(#b2aa77dd-0891-4ed0-91ad-6323cfb7c545)"/>
    <g>
      <line x1="593.36" y1="182.6" x2="593.36" y2="156.38" fill="none" stroke="#000" stroke-linecap="round" stroke-linejoin="round" stroke-width="0.11"/>
      <line x1="589.07" y1="182.6" x2="589.07" y2="155.96" fill="none" stroke="#000" stroke-linecap="round" stroke-linejoin="round" stroke-width="0.11"/>
      <line x1="584.7" y1="182.6" x2="584.7" y2="155.53" fill="none" stroke="#000" stroke-linecap="round" stroke-linejoin="round" stroke-width="0.11"/>
      <line x1="554.82" y1="182.6" x2="554.82" y2="152.59" fill="none" stroke="#000" stroke-linecap="round" stroke-linejoin="round" stroke-width="0.11"/>
      <line x1="550.61" y1="182.6" x2="550.61" y2="152.17" fill="none" stroke="#000" stroke-linecap="round" stroke-linejoin="round" stroke-width="0.11"/>
      <line x1="546.4" y1="182.6" x2="546.4" y2="151.76" fill="none" stroke="#000" stroke-linecap="round" stroke-linejoin="round" stroke-width="0.11"/>
      <line x1="542.03" y1="182.6" x2="542.03" y2="151.33" fill="none" stroke="#000" stroke-linecap="round" stroke-linejoin="round" stroke-width="0.11"/>
      <line x1="571.75" y1="182.6" x2="571.75" y2="154.26" fill="none" stroke="#000" stroke-linecap="round" stroke-linejoin="round" stroke-width="0.11"/>
      <line x1="563.25" y1="182.6" x2="563.25" y2="153.97" fill="none" stroke="#000" stroke-linecap="round" stroke-linejoin="round" stroke-width="0.11"/>
      <line x1="559.04" y1="182.6" x2="559.04" y2="153" fill="none" stroke="#000" stroke-linecap="round" stroke-linejoin="round" stroke-width="0.11"/>
      <line x1="567.46" y1="182.6" x2="567.46" y2="153.83" fill="none" stroke="#000" stroke-linecap="round" stroke-linejoin="round" stroke-width="0.11"/>
      <line x1="580.33" y1="182.6" x2="580.33" y2="155.1" fill="none" stroke="#000" stroke-linecap="round" stroke-linejoin="round" stroke-width="0.11"/>
      <line x1="575.97" y1="182.6" x2="575.97" y2="154.67" fill="none" stroke="#000" stroke-linecap="round" stroke-linejoin="round" stroke-width="0.11"/>
      <line x1="537.66" y1="182.6" x2="537.66" y2="150.84" fill="none" stroke="#000" stroke-linecap="round" stroke-linejoin="round" stroke-width="0.11"/>
    </g>
    <polyline points="506.71 87.71 462.73 87.71 462.73 62.26 310.38 62.26 310.38 22.18 506.71 22.18 506.71 87.71 506.71 87.71" stroke="#000" stroke-miterlimit="10" stroke-width="0.75" fill="url(#b2aa77dd-0891-4ed0-91ad-6323cfb7c545)"/>
  </g>
  <g id="bf261772-0114-46dd-aae3-8c5db08a431b" data-name="Layer 2">
    <g>
      <polyline points="310.29 110.36 310.48 22.33 506.8 22.33" fill="none" stroke="#010101" stroke-linecap="round" stroke-miterlimit="10" stroke-width="0.75"/>
      <path d="M615.44,194V168.48M559.16,162l56.28,5.63m119.22,60.69.72,139.08H851M822.58,228.28H734.66m81-34.5,37.13,185.15m10.49,47.75-75.17.46M887.5,543.83,861,415.57m32.3,157.18,5.3,32.21M402,605H898.59M280,687.89l58.27,23.32,4.9-20.33L287.7,667.26m0,0,2.41-15m99,16.61L293,649.9m-2.89,2.41L293,649.9M422.22,504.29,370.94,758.6M276.13,647.49l14,4.82m-133.8-15.74L38.51,588.45M237.07,633l-91-35m75.56,29.21,25.55-66.06m-97.81-37.77,97.81,37.77M461,428.83H435.72m-91.61-18.56,91.61,18.56m0,0-5.78,36.4m0,0-92.09-17.84m6.26-37.12-6.26,37.12M207.1,379.76l98,23.28m0,0L292.52,432m0,0-92.07-35.64M149.39,523.41,304.64,137m57.64,18.59L304.64,137m117.49,37,62.77,19.78m41,0h-41m242.53,0h93.05m-171.64,0h78.59m-178.35,0,66.36.22m205-154.55-7.58-28v7.4m0-7.4-284,0m0,0v96" transform="translate(-22.08 -11.12)" fill="none" stroke="#010101" stroke-linecap="round" stroke-miterlimit="10" stroke-width="0.75"/>
      <path d="M822.63,584.33c20,5,33.16-9.41,33.2-23.75,0-13.45-10.86-26-25.48-25.57-9,.27-18.58,3.94-24.17,17.72m-23.79,0,0,0,0-29.72m-160.55,0H782.39m-296,0H596.76m-178.31,0H460.8m289.29-95M630.4,428H750.09m-267.37,0H589.3" transform="translate(-22.08 -11.12)" fill="none" stroke="#010101" stroke-linecap="round" stroke-miterlimit="10" stroke-width="0.75"/>
      <line x1="3.49" y1="609.69" x2="348.86" y2="747.49" fill="#fff" stroke="#000" stroke-miterlimit="10" stroke-width="0.75"/>
    </g>
    <line x1="462.82" y1="182.66" x2="433.07" y2="320.38" fill="none" stroke="#1d1d1b" stroke-miterlimit="10"/>
    <line x1="754.62" y1="217.16" x2="754.62" y2="182.66" fill="none" stroke="#010101" stroke-linecap="round" stroke-miterlimit="10" stroke-width="0.75"/>
    <line x1="790.82" y1="25.84" x2="790.82" y2="152.86" fill="none" stroke="#010101" stroke-linecap="round" stroke-miterlimit="10" stroke-width="0.75"/>
  </g>
  <g id="af19d4c5-46da-41de-bd0a-0c20a2c18824" data-name="stig">
    <g>
      <line x1="204" y1="661.23" x2="204" y2="661.23" fill="none" stroke="#999" stroke-linecap="round" stroke-miterlimit="10" stroke-width="6"/>
      <path d="M231.8,668.4c32.08-25.13,59.83-96.31,56.1-131.53-.26-2.44.92-5-.19-7.22-1.26-2.51-4.14-3.68-6.77-4.65l-41-15c-10.36-3.81-26.68-9.18-29.19-14.91-1.68-3.84,12.55-38.36,17.92-39.43,5.57-1.12,37.38,13.43,52.38,19.89,3.18,1.36,15.68,5.47,19,4.46,5.29-1.6,7.33-7.86,8.58-13.24,8.08-34.63,13.85-63.76,21.78-98.05" transform="translate(-22.08 -11.12)" fill="none" stroke="#999" stroke-linecap="round" stroke-miterlimit="10" stroke-width="6" stroke-dasharray="0 6.96"/>
      <line x1="309.15" y1="354.18" x2="309.15" y2="354.18" fill="none" stroke="#999" stroke-linecap="round" stroke-miterlimit="10" stroke-width="6"/>
      <path d="M324.49,363.4c-9.25-3.35-17.51-9.09-27.38-11-3.39-.65-6.94-1.37-9.65-3.52-6.57-5.21-5-15.42-2.74-23.51l29.34-106.55c4.89-17.77,12.39-38.29,30.13-43.27,11.15-3.13,25.39.28,32.76-8.66,8.44-10.24.49-29.32,11.39-36.88,4.57-3.18,10.65-2.69,16.18-2.14a710.05,710.05,0,0,0,103.32,2.68c14.65-.69,29.56-1.9,43.09-7.55s25.64-16.47,29.32-30.65c2.39-9.18,1.48-19.88,7.8-26.95,5.9-6.6,15.8-7.34,24.66-7.54A1448.25,1448.25,0,0,1,759.58,62a13.37,13.37,0,0,1,5.78,1.35c4.2,2.48,4.41,8.38,4.11,13.25-.81,12.89-1.14,36.29-2,49.18-.51,8.06-2.85,9.54-8.65,15.17-5,4.82-9.42,1.81-16.28,2.57a356.21,356.21,0,0,1-76.83.21c-10.48-1.1-27.38-5.88-34.41,2-12.27,13.73,7.81,41.17,1.29,58.39-5.83,15.4-26.27,17.77-42.73,17.58l-41-.45c-5.22-.06-11,.12-14.74,3.8-3.08,3.07-3.79,7.73-4.33,12l-5.22,41.33c-.49,3.94-.89,8.32,1.45,11.53,1.93,2.66,5.13,5.07,8.4,4.76,50.09-4.76,98.09-7.51,144.3.37,2.84.49,6.05-.2,8.27,1.63s2.75,4.78,3.18,7.53c3.55,22.58,1.76,46,1.09,68.83-.11,3.91-.09,8.33,2.75,11,1.85,1.76,4.51,2.34,7,2.67,11.8,1.53,27-1.27,38.89-1.23s24.86,3.09,32.1,12.54c9.48,12.35-6.11,71.89,4.58,75.23,7,2.19,9.15,4.82,12.36,36.06,3.83,37.19,5.74,37.28,1.92,50.66-1,3.63-15.69,4.38-19.47,4.38q-97.36,0-194.72,0c-32.24,0-65.61,0-100.59-2.61-3.61-.27-7.55-.75-10.05-3.36-1.9-2-2.57-4.81-3.12-7.5-3.73-18.4-3.06-34.21-2.52-53,.11-3.81.36-7.8,2.35-11.05,5.15-8.47,17.42-4.23,27.3-5,35-2.63,66.52,1.68,103,.77a13.79,13.79,0,0,0,9.16-3.76c2.84-2.76,3.52-7,4-10.93a334.64,334.64,0,0,0,.48-73c-.37-3.61-.92-7.47-3.39-10.12-3-3.16-7.7-4.17-12-3.93-84.56,4.78-160.85,3.58-243.8-14.14" transform="translate(-22.08 -11.12)" fill="none" stroke="#999" stroke-linecap="round" stroke-miterlimit="10" stroke-width="6" stroke-dasharray="0 7"/>
      <line x1="322.05" y1="354.89" x2="322.05" y2="354.89" fill="none" stroke="#999" stroke-linecap="round" stroke-miterlimit="10" stroke-width="6"/>
    </g>
    <g>
      <line x1="271.87" y1="504.72" x2="271.87" y2="504.72" fill="none" stroke="#999" stroke-linecap="round" stroke-miterlimit="10" stroke-width="6"/>
      <path d="M296.1,509.71c2.34-6.93,1.53-6.3,3.59-15.8" transform="translate(-22.08 -11.12)" fill="none" stroke="#999" stroke-linecap="round" stroke-miterlimit="10" stroke-width="6" stroke-dasharray="0 6.49"/>
      <line x1="278.32" y1="479.63" x2="278.32" y2="479.63" fill="none" stroke="#999" stroke-linecap="round" stroke-miterlimit="10" stroke-width="6"/>
    </g>
    <g>
      <line x1="292.66" y1="470.31" x2="292.66" y2="470.31" fill="none" stroke="#999" stroke-linecap="round" stroke-miterlimit="10" stroke-width="6"/>
      <path d="M321.57,481.16c46.86-1.67,79.09.12,126,8.27" transform="translate(-22.08 -11.12)" fill="none" stroke="#999" stroke-linecap="round" stroke-miterlimit="10" stroke-width="6" stroke-dasharray="0 6.84"/>
      <line x1="428.86" y1="478.91" x2="428.86" y2="478.91" fill="none" stroke="#999" stroke-linecap="round" stroke-miterlimit="10" stroke-width="6"/>
    </g>
    <g>
      <line x1="590.16" y1="369.95" x2="590.16" y2="369.95" fill="none" stroke="#999" stroke-linecap="round" stroke-miterlimit="10" stroke-width="6"/>
      <path d="M619.19,379.83c23-3.63,35.21-.77,59.78,1" transform="translate(-22.08 -11.12)" fill="none" stroke="#999" stroke-linecap="round" stroke-miterlimit="10" stroke-width="6" stroke-dasharray="0 7.06"/>
      <line x1="660.41" y1="369.95" x2="660.41" y2="369.95" fill="none" stroke="#999" stroke-linecap="round" stroke-miterlimit="10" stroke-width="6"/>
    </g>
    <g>
      <line x1="755.04" y1="377.12" x2="755.04" y2="377.12" fill="none" stroke="#999" stroke-linecap="round" stroke-miterlimit="10" stroke-width="6"/>
      <path d="M784.27,387.93c28.39-.75,45.31,4.76,73.32,14" transform="translate(-22.08 -11.12)" fill="none" stroke="#999" stroke-linecap="round" stroke-miterlimit="10" stroke-width="6" stroke-dasharray="0 7.15"/>
      <line x1="838.91" y1="391.92" x2="838.91" y2="391.92" fill="none" stroke="#999" stroke-linecap="round" stroke-miterlimit="10" stroke-width="6"/>
    </g>
    <g>
      <line x1="493.38" y1="359.91" x2="493.38" y2="359.91" fill="none" stroke="#999" stroke-linecap="round" stroke-miterlimit="10" stroke-width="6"/>
      <path d="M516.15,364.41c2.25-18.62,7.09-37.14,11.45-55.38" transform="translate(-22.08 -11.12)" fill="none" stroke="#999" stroke-linecap="round" stroke-miterlimit="10" stroke-width="6" stroke-dasharray="0 6.66"/>
      <line x1="506.28" y1="294.68" x2="506.28" y2="294.68" fill="none" stroke="#999" stroke-linecap="round" stroke-miterlimit="10" stroke-width="6"/>
    </g>
    <g>
      <line x1="514.16" y1="210.76" x2="514.16" y2="210.76" fill="none" stroke="#999" stroke-linecap="round" stroke-miterlimit="10" stroke-width="6"/>
      <path d="M536.58,214.62c.87-26.34-1.93-57.65-.56-83.5" transform="translate(-22.08 -11.12)" fill="none" stroke="#999" stroke-linecap="round" stroke-miterlimit="10" stroke-width="6" stroke-dasharray="0 7.26"/>
      <line x1="514.16" y1="116.38" x2="514.16" y2="116.38" fill="none" stroke="#999" stroke-linecap="round" stroke-miterlimit="10" stroke-width="6"/>
    </g>
    <g>
      <line x1="368.65" y1="159.91" x2="368.65" y2="159.91" fill="none" stroke="#999" stroke-linecap="round" stroke-miterlimit="10" stroke-width="6"/>
      <path d="M396,175.47c17.31,15.78,15.59,28.69,13.32,55.25-1.11,12.89-5,25.34-8.44,37.81-6.68,24.43-17.08,62.74-20.5,89" transform="translate(-22.08 -11.12)" fill="none" stroke="#999" stroke-linecap="round" stroke-miterlimit="10" stroke-width="6" stroke-dasharray="0 6.91"/>
      <line x1="357.89" y1="349.88" x2="357.89" y2="349.88" fill="none" stroke="#999" stroke-linecap="round" stroke-miterlimit="10" stroke-width="6"/>
    </g>
    <g>
      <line x1="591.59" y1="471.74" x2="591.59" y2="471.74" fill="none" stroke="#999" stroke-linecap="round" stroke-miterlimit="10" stroke-width="6"/>
      <path d="M620.39,484.29c19.18,3.57,30.66,1.19,52.36.81l95.11-1.64" transform="translate(-22.08 -11.12)" fill="none" stroke="#999" stroke-linecap="round" stroke-miterlimit="10" stroke-width="6" stroke-dasharray="0 6.87"/>
      <line x1="749.22" y1="472.28" x2="749.22" y2="472.28" fill="none" stroke="#999" stroke-linecap="round" stroke-miterlimit="10" stroke-width="6"/>
    </g>
  </g>
  <g id="e30fe0e0-8d47-4d52-899b-49fb8368ad51" data-name="platser">
    <g>
      <circle cx="167.69" cy="464.88" r="17.57" fill="#ff357c"/>
      <text transform="translate(160.33 473.92)" font-size="25.37" fill="#fff" font-family="Lato-Bold, Lato" font-weight="700">4</text>
    </g>
    <g>
      <circle cx="161.87" cy="506.32" r="17.57" fill="#ff357c"/>
      <text transform="translate(154.51 515.36)" font-size="25.37" fill="#fff" font-family="Lato-Bold, Lato" font-weight="700">3</text>
    </g>
    <g>
      <circle cx="257.97" cy="239.19" r="17.57" fill="#ff357c"/>
      <text transform="translate(243.25 248.23)" font-size="25.37" fill="#fff" font-family="Lato-Bold, Lato" font-weight="700">11</text>
    </g>
    <g>
      <circle cx="225.95" cy="319" r="17.57" fill="#ff357c"/>
      <text transform="translate(211.23 328.04)" font-size="25.37" fill="#fff" font-family="Lato-Bold, Lato" font-weight="700">10</text>
    </g>
    <g>
      <circle cx="452.48" cy="397.86" r="17.57" fill="#ff357c"/>
      <text transform="translate(437.76 406.9)" font-size="25.37" fill="#fff" font-family="Lato-Bold, Lato" font-weight="700">57</text>
    </g>
    <g>
      <circle cx="504.57" cy="397.86" r="17.57" fill="#ff357c"/>
      <text transform="translate(489.85 406.9)" font-size="25.37" fill="#fff" font-family="Lato-Bold, Lato" font-weight="700">58</text>
    </g>
    <g>
      <circle cx="638.38" cy="398.33" r="17.57" fill="#ff357c"/>
      <text transform="translate(623.67 407.38)" font-size="25.37" fill="#fff" font-family="Lato-Bold, Lato" font-weight="700">59</text>
    </g>
    <g>
      <circle cx="693.34" cy="397.38" r="17.57" fill="#ff357c"/>
      <text transform="translate(678.63 406.42)" font-size="25.37" fill="#fff" font-family="Lato-Bold, Lato" font-weight="700">60</text>
    </g>
    <g>
      <circle cx="792.75" cy="461.42" r="17.57" fill="#ff357c"/>
      <text transform="translate(778.04 470.46)" font-size="25.37" fill="#fff" font-family="Lato-Bold, Lato" font-weight="700">65</text>
    </g>
    <g>
      <circle cx="808.52" cy="549.83" r="17.57" fill="#ff357c"/>
      <text transform="translate(793.81 558.87)" font-size="25.37" fill="#fff" font-family="Lato-Bold, Lato" font-weight="700">74</text>
    </g>
    <g>
      <circle cx="691.91" cy="441.35" r="17.57" fill="#ff357c"/>
      <text transform="translate(677.2 450.39)" font-size="25.37" fill="#fff" font-family="Lato-Bold, Lato" font-weight="700">64</text>
    </g>
    <g>
      <circle cx="640.3" cy="441.35" r="17.57" fill="#ff357c"/>
      <text transform="translate(625.58 450.39)" font-size="25.37" fill="#fff" font-family="Lato-Bold, Lato" font-weight="700">63</text>
    </g>
    <g>
      <circle cx="528.94" cy="441.35" r="17.57" fill="#ff357c"/>
      <text transform="translate(514.23 450.39)" font-size="25.37" fill="#fff" font-family="Lato-Bold, Lato" font-weight="700">62</text>
    </g>
    <g>
      <circle cx="504.57" cy="491.53" r="17.57" fill="#ff357c"/>
      <text transform="translate(489.85 500.57)" font-size="25.37" fill="#fff" font-family="Lato-Bold, Lato" font-weight="700">66</text>
    </g>
    <g>
      <circle cx="668.97" cy="492" r="17.57" fill="#ff357c"/>
      <text transform="translate(654.26 501.05)" font-size="25.37" fill="#fff" font-family="Lato-Bold, Lato" font-weight="700">67</text>
    </g>
    <g>
      <circle cx="730.14" cy="531.19" r="17.57" fill="#ff357c"/>
      <text transform="translate(715.43 540.23)" font-size="25.37" fill="#fff" font-family="Lato-Bold, Lato" font-weight="700">73</text>
    </g>
    <g>
      <circle cx="675.18" cy="530.72" r="17.57" fill="#ff357c"/>
      <text transform="translate(660.47 539.76)" font-size="25.37" fill="#fff" font-family="Lato-Bold, Lato" font-weight="700">72</text>
    </g>
    <g>
      <circle cx="747.35" cy="574.68" r="17.57" fill="#ff357c"/>
      <text transform="translate(732.64 583.73)" font-size="25.37" fill="#fff" font-family="Lato-Bold, Lato" font-weight="700">79</text>
    </g>
    <g>
      <circle cx="677.57" cy="574.68" r="17.57" fill="#ff357c"/>
      <text transform="translate(662.86 583.73)" font-size="25.37" fill="#fff" font-family="Lato-Bold, Lato" font-weight="700">78</text>
    </g>
    <g>
      <circle cx="606.84" cy="575.16" r="17.57" fill="#ff357c"/>
      <text transform="translate(592.13 584.2)" font-size="25.37" fill="#fff" font-family="Lato-Bold, Lato" font-weight="700">77</text>
    </g>
    <g>
      <circle cx="623.57" cy="531.19" r="17.57" fill="#ff357c"/>
      <text transform="translate(608.86 540.23)" font-size="25.37" fill="#fff" font-family="Lato-Bold, Lato" font-weight="700">71</text>
    </g>
    <g>
      <circle cx="541.37" cy="531.19" r="17.57" fill="#ff357c"/>
      <text transform="translate(526.65 540.23)" font-size="25.37" fill="#fff" font-family="Lato-Bold, Lato" font-weight="700">70</text>
    </g>
    <g>
      <circle cx="488.32" cy="531.19" r="17.57" fill="#ff357c"/>
      <text transform="translate(473.61 540.23)" font-size="25.37" fill="#fff" font-family="Lato-Bold, Lato" font-weight="700">69</text>
    </g>
    <g>
      <circle cx="535.63" cy="575.16" r="17.57" fill="#ff357c"/>
      <text transform="translate(520.92 584.2)" font-size="25.37" fill="#fff" font-family="Lato-Bold, Lato" font-weight="700">76</text>
    </g>
    <g>
      <circle cx="466.34" cy="574.68" r="17.57" fill="#ff357c"/>
      <text transform="translate(451.62 583.73)" font-size="25.37" fill="#fff" font-family="Lato-Bold, Lato" font-weight="700">75</text>
    </g>
    <g>
      <circle cx="415.2" cy="548.4" r="17.57" fill="#ff357c"/>
      <text transform="translate(400.49 557.44)" font-size="25.37" fill="#fff" font-family="Lato-Bold, Lato" font-weight="700">68</text>
    </g>
    <g>
      <circle cx="475.42" cy="441.35" r="17.57" fill="#ff357c"/>
      <text transform="translate(460.7 450.39)" font-size="25.37" fill="#fff" font-family="Lato-Bold, Lato" font-weight="700">61</text>
    </g>
    <g>
      <circle cx="395.6" cy="395.47" r="17.57" fill="#ff357c"/>
      <text transform="translate(380.89 404.51)" font-size="25.37" fill="#fff" font-family="Lato-Bold, Lato" font-weight="700">20</text>
    </g>
    <g>
      <circle cx="348.29" cy="384.47" r="17.57" fill="#ff357c"/>
      <text transform="translate(333.58 393.52)" font-size="25.37" fill="#fff" font-family="Lato-Bold, Lato" font-weight="700">19</text>
    </g>
    <g>
      <circle cx="239.45" cy="429.88" r="17.57" fill="#ff357c"/>
      <text transform="translate(232.09 438.92)" font-size="25.37" fill="#fff" font-family="Lato-Bold, Lato" font-weight="700">5</text>
    </g>
    <g>
      <circle cx="260.87" cy="367.27" r="17.57" fill="#ff357c"/>
      <text transform="translate(253.51 376.31)" font-size="25.37" fill="#fff" font-family="Lato-Bold, Lato" font-weight="700">9</text>
    </g>
    <g>
      <circle cx="287.36" cy="615.17" r="17.57" fill="#ff357c"/>
      <text transform="translate(280 624.21)" font-size="25.37" fill="#fff" font-family="Lato-Bold, Lato" font-weight="700">6</text>
    </g>
    <g>
      <circle cx="306.47" cy="515.18" r="17.57" fill="#ff357c"/>
      <text transform="translate(299.12 524.23)" font-size="25.37" fill="#fff" font-family="Lato-Bold, Lato" font-weight="700">8</text>
    </g>
    <g>
      <circle cx="296.96" cy="564.22" r="17.57" fill="#ff357c"/>
      <text transform="translate(289.6 573.26)" font-size="25.37" fill="#fff" font-family="Lato-Bold, Lato" font-weight="700">7</text>
    </g>
    <g>
      <circle cx="229.33" cy="590.5" r="17.57" fill="#ff357c"/>
      <text transform="translate(221.98 599.55)" font-size="25.37" fill="#fff" font-family="Lato-Bold, Lato" font-weight="700">1</text>
    </g>
    <g>
      <circle cx="206.89" cy="523.89" r="17.57" fill="#ff357c"/>
      <text transform="translate(199.53 532.93)" font-size="25.37" fill="#fff" font-family="Lato-Bold, Lato" font-weight="700">2</text>
    </g>
    <g>
      <circle cx="355.64" cy="220.45" r="17.57" fill="#ff357c"/>
      <text transform="translate(340.93 229.49)" font-size="25.37" fill="#fff" font-family="Lato-Bold, Lato" font-weight="700">18</text>
    </g>
    <g>
      <circle cx="415.38" cy="189.86" r="17.57" fill="#ff357c"/>
      <text transform="translate(400.66 198.91)" font-size="25.37" fill="#fff" font-family="Lato-Bold, Lato" font-weight="700">24</text>
    </g>
    <g>
      <circle cx="429.24" cy="231.44" r="17.57" fill="#ff357c"/>
      <text transform="translate(414.52 240.48)" font-size="25.37" fill="#fff" font-family="Lato-Bold, Lato" font-weight="700">23</text>
    </g>
    <g>
      <circle cx="418.72" cy="280.67" r="17.57" fill="#ff357c"/>
      <text transform="translate(404.01 289.71)" font-size="25.37" fill="#fff" font-family="Lato-Bold, Lato" font-weight="700">22</text>
    </g>
    <g>
      <circle cx="408.21" cy="324.16" r="17.57" fill="#ff357c"/>
      <text transform="translate(393.5 333.2)" font-size="25.37" fill="#fff" font-family="Lato-Bold, Lato" font-weight="700">21</text>
    </g>
    <g>
      <circle cx="466.51" cy="328.46" r="17.57" fill="#ff357c"/>
      <text transform="translate(451.8 337.5)" font-size="25.37" fill="#fff" font-family="Lato-Bold, Lato" font-weight="700">56</text>
    </g>
    <g>
      <circle cx="475.6" cy="281.15" r="17.57" fill="#ff357c"/>
      <text transform="translate(460.88 290.19)" font-size="25.37" fill="#fff" font-family="Lato-Bold, Lato" font-weight="700">55</text>
    </g>
    <g>
      <circle cx="544.41" cy="255.34" r="17.57" fill="#ff357c"/>
      <text transform="translate(529.7 264.38)" font-size="25.37" fill="#fff" font-family="Lato-Bold, Lato" font-weight="700">44</text>
    </g>
    <g>
      <circle cx="535.81" cy="306.38" r="17.57" fill="#ff357c"/>
      <text transform="translate(521.1 315.42)" font-size="25.37" fill="#fff" font-family="Lato-Bold, Lato" font-weight="700">51</text>
    </g>
    <g>
      <circle cx="535.81" cy="341.74" r="17.57" fill="#ff357c"/>
      <text transform="translate(521.1 350.78)" font-size="25.37" fill="#fff" font-family="Lato-Bold, Lato" font-weight="700">54</text>
    </g>
    <g>
      <circle cx="584.56" cy="304.56" r="17.57" fill="#ff357c"/>
      <text transform="translate(569.84 313.61)" font-size="25.37" fill="#fff" font-family="Lato-Bold, Lato" font-weight="700">50</text>
    </g>
    <g>
      <circle cx="584.56" cy="340.41" r="17.57" fill="#ff357c"/>
      <text transform="translate(569.84 349.45)" font-size="25.37" fill="#fff" font-family="Lato-Bold, Lato" font-weight="700">53</text>
    </g>
    <g>
      <circle cx="632.83" cy="340.41" r="17.57" fill="#ff357c"/>
      <text transform="translate(618.11 349.45)" font-size="25.37" fill="#fff" font-family="Lato-Bold, Lato" font-weight="700">52</text>
    </g>
    <g>
      <circle cx="632.35" cy="305.52" r="17.57" fill="#ff357c"/>
      <text transform="translate(617.64 314.56)" font-size="25.37" fill="#fff" font-family="Lato-Bold, Lato" font-weight="700">49</text>
    </g>
    <g>
      <circle cx="653.86" cy="256.29" r="17.57" fill="#ff357c"/>
      <text transform="translate(639.14 265.34)" font-size="25.37" fill="#fff" font-family="Lato-Bold, Lato" font-weight="700">46</text>
    </g>
    <g>
      <circle cx="694" cy="275.41" r="17.57" fill="#ff357c"/>
      <text transform="translate(679.29 284.45)" font-size="25.37" fill="#fff" font-family="Lato-Bold, Lato" font-weight="700">47</text>
    </g>
    <g>
      <circle cx="693.05" cy="333.24" r="17.57" fill="#ff357c"/>
      <text transform="translate(678.33 342.28)" font-size="25.37" fill="#fff" font-family="Lato-Bold, Lato" font-weight="700">48</text>
    </g>
    <g>
      <circle cx="599.37" cy="247.45" r="17.57" fill="#ff357c"/>
      <text transform="translate(584.66 256.49)" font-size="25.37" fill="#fff" font-family="Lato-Bold, Lato" font-weight="700">45</text>
    </g>
    <g>
      <circle cx="724.91" cy="20.25" r="17.57" fill="#ff357c"/>
      <text transform="translate(710.19 29.29)" font-size="25.37" fill="#fff" font-family="Lato-Bold, Lato" font-weight="700">33</text>
    </g>
    <g>
      <circle cx="671.48" cy="19.77" r="17.57" fill="#ff357c"/>
      <text transform="translate(656.77 28.81)" font-size="25.37" fill="#fff" font-family="Lato-Bold, Lato" font-weight="700">32</text>
    </g>
    <g>
      <circle cx="616.52" cy="19.77" r="17.57" fill="#ff357c"/>
      <text transform="translate(601.81 28.81)" font-size="25.37" fill="#fff" font-family="Lato-Bold, Lato" font-weight="700">31</text>
    </g>
    <g>
      <circle cx="563.95" cy="19.29" r="17.57" fill="#ff357c"/>
      <text transform="translate(549.24 28.33)" font-size="25.37" fill="#fff" font-family="Lato-Bold, Lato" font-weight="700">30</text>
    </g>
    <g>
      <circle cx="526.19" cy="46.05" r="17.57" fill="#ff357c"/>
      <text transform="translate(511.48 55.1)" font-size="25.37" fill="#fff" font-family="Lato-Bold, Lato" font-weight="700">29</text>
    </g>
    <g>
      <circle cx="704.46" cy="68.51" r="17.57" fill="#ff357c"/>
      <text transform="translate(689.74 77.56)" font-size="25.37" fill="#fff" font-family="Lato-Bold, Lato" font-weight="700">36</text>
    </g>
    <g>
      <circle cx="704.93" cy="103.4" r="17.57" fill="#ff357c"/>
      <text transform="translate(690.22 112.44)" font-size="25.37" fill="#fff" font-family="Lato-Bold, Lato" font-weight="700">39</text>
    </g>
    <g>
      <circle cx="334.55" cy="81.42" r="17.57" fill="#ff357c"/>
      <text transform="translate(319.84 90.46)" font-size="25.37" fill="#fff" font-family="Lato-Bold, Lato" font-weight="700">25</text>
    </g>
    <g>
      <circle cx="383.3" cy="81.9" r="17.57" fill="#ff357c"/>
      <text transform="translate(368.59 90.94)" font-size="25.37" fill="#fff" font-family="Lato-Bold, Lato" font-weight="700">26</text>
    </g>
    <g>
      <circle cx="433" cy="82.37" r="17.57" fill="#ff357c"/>
      <text transform="translate(418.29 91.42)" font-size="25.37" fill="#fff" font-family="Lato-Bold, Lato" font-weight="700">27</text>
    </g>
    <g>
      <circle cx="771.84" cy="59.91" r="17.57" fill="#ff357c"/>
      <text transform="translate(757.13 68.95)" font-size="25.37" fill="#fff" font-family="Lato-Bold, Lato" font-weight="700">40</text>
    </g>
    <g>
      <circle cx="771.36" cy="110.09" r="17.57" fill="#ff357c"/>
      <text transform="translate(756.65 119.14)" font-size="25.37" fill="#fff" font-family="Lato-Bold, Lato" font-weight="700">41</text>
    </g>
    <g>
      <circle cx="695.85" cy="163.14" r="17.57" fill="#ff357c"/>
      <text transform="translate(681.14 172.18)" font-size="25.37" fill="#fff" font-family="Lato-Bold, Lato" font-weight="700">43</text>
    </g>
    <g>
      <circle cx="643.76" cy="163.62" r="17.57" fill="#ff357c"/>
      <text transform="translate(629.05 172.66)" font-size="25.37" fill="#fff" font-family="Lato-Bold, Lato" font-weight="700">41</text>
    </g>
    <g>
      <circle cx="438.74" cy="154.54" r="17.57" fill="#ff357c"/>
      <text transform="translate(424.02 163.58)" font-size="25.37" fill="#fff" font-family="Lato-Bold, Lato" font-weight="700">28</text>
    </g>
    <g>
      <circle cx="276.48" cy="192.05" r="17.57" fill="#ff357c"/>
      <text transform="translate(261.77 201.1)" font-size="25.37" fill="#fff" font-family="Lato-Bold, Lato" font-weight="700">12</text>
    </g>
    <g>
      <circle cx="319.5" cy="214.99" r="17.57" fill="#ff357c"/>
      <text transform="translate(304.78 224.04)" font-size="25.37" fill="#fff" font-family="Lato-Bold, Lato" font-weight="700">15</text>
    </g>
    <g>
      <circle cx="346.04" cy="267.47" r="17.57" fill="#ff357c"/>
      <text transform="translate(331.33 276.51)" font-size="25.37" fill="#fff" font-family="Lato-Bold, Lato" font-weight="700">17</text>
    </g>
    <g>
      <circle cx="309.9" cy="262.01" r="17.57" fill="#ff357c"/>
      <text transform="translate(295.19 271.05)" font-size="25.37" fill="#fff" font-family="Lato-Bold, Lato" font-weight="700">14</text>
    </g>
    <g>
      <circle cx="335.29" cy="315.5" r="17.57" fill="#ff357c"/>
      <text transform="translate(320.57 324.54)" font-size="25.37" fill="#fff" font-family="Lato-Bold, Lato" font-weight="700">16</text>
    </g>
    <g>
      <circle cx="299.15" cy="310.04" r="17.57" fill="#ff357c"/>
      <text transform="translate(284.43 319.08)" font-size="25.37" fill="#fff" font-family="Lato-Bold, Lato" font-weight="700">13</text>
    </g>
    <g>
      <circle cx="655.73" cy="67.74" r="17.57" fill="#ff357c"/>
      <text transform="translate(641.01 76.78)" font-size="25.37" fill="#fff" font-family="Lato-Bold, Lato" font-weight="700">35</text>
    </g>
    <g>
      <circle cx="656.21" cy="102.63" r="17.57" fill="#ff357c"/>
      <text transform="translate(641.49 111.67)" font-size="25.37" fill="#fff" font-family="Lato-Bold, Lato" font-weight="700">38</text>
    </g>
    <g>
      <circle cx="607.94" cy="68.22" r="17.57" fill="#ff357c"/>
      <text transform="translate(593.22 77.26)" font-size="25.37" fill="#fff" font-family="Lato-Bold, Lato" font-weight="700">34</text>
    </g>
    <g>
      <circle cx="608.41" cy="103.1" r="17.57" fill="#ff357c"/>
      <text transform="translate(593.7 112.15)" font-size="25.37" fill="#fff" font-family="Lato-Bold, Lato" font-weight="700">37</text>
    </g>
    <text x="-22.08" y="-11.12"/>  </g>
  <g id="b34749b2-a83b-48e8-9741-47cc31c1e259" data-name="Text">
    <text transform="translate(360.97 52.06)" font-size="30.81" fill="#ee2a7b" font-family="Lato-Light, Lato" font-weight="300"><tspan letter-spacing="-0.01em">B</tspan><tspan x="19.1" y="0">ist</tspan><tspan x="49.6" y="0" letter-spacing="-0.03em">r</tspan><tspan x="59.62" y="0">on</tspan></text>
    <text transform="translate(522.81 221.68)" font-size="23.56" font-family="Lato-Semibold, Lato" font-weight="600"><tspan letter-spacing="0em">G</tspan><tspan x="17.1" y="0">amla m</tspan><tspan x="91.48" y="0" letter-spacing="-0.01em">a</tspan><tspan x="103.15" y="0">tsalen</tspan></text>
    <text transform="matrix(0.95, 0.3, -0.3, 0.95, 247.55, 332.56)" font-size="23.56" font-family="Lato-Semibold, Lato" font-weight="600"><tspan letter-spacing="-0.01em">N</tspan><tspan x="17.82" y="0" letter-spacing="-0.01em">y</tspan><tspan x="29.87" y="0">a m</tspan><tspan x="67.14" y="0" letter-spacing="-0.01em">a</tspan><tspan x="78.81" y="0">tsalen</tspan></text>
    <text transform="translate(593.36 139.42)" font-size="23.56" font-family="Lato-Semibold, Lato" font-weight="600"><tspan letter-spacing="0em">K</tspan><tspan x="15.83" y="0">årbokhandeln</tspan></text>
    <text transform="translate(549.2 558.93)" font-size="23.56" font-family="Lato-Semibold, Lato" font-weight="600"><tspan letter-spacing="-0.01em">H</tspan><tspan x="17.82" y="0">yllan</tspan></text>
    <text transform="translate(200.47 478.2) rotate(18.24)" font-size="23.56" font-family="Lato-Semibold, Lato" font-weight="600"><tspan letter-spacing="0em">P</tspan><tspan x="14.31" y="0">uben</tspan></text>
    <text transform="translate(715.36 306.27)" font-size="30.81" fill="#ee2a7b" font-family="Lato-Light, Lato" font-weight="300"><tspan letter-spacing="0em">S</tspan><tspan x="16.33" y="0" letter-spacing="-0.01em">c</tspan><tspan x="30.56" y="0">enen</tspan></text>
    <text transform="translate(352.64 584.94) rotate(-78.58)" font-size="30.81" fill="#ee2a7b" font-family="Lato-Light, Lato" font-weight="300"><tspan letter-spacing="-0.01em">B</tspan><tspan x="19.21" y="0">a</tspan><tspan x="34.12" y="0" letter-spacing="-0.03em">r</tspan><tspan x="44.14" y="0">en</tspan></text>
    <text transform="translate(8.34 603.05) rotate(21.76)" font-size="30.81" fill="#ee2a7b" font-family="Lato-Light, Lato" font-weight="300"><tspan letter-spacing="-0.01em">H</tspan><tspan x="23" y="0">uvudingång</tspan></text>
  </g>
</svg>
