<?xml version="1.0" encoding="iso-8859-1"?>
<!-- Generator: Adobe Illustrator 19.0.0, SVG Export Plug-In . SVG Version: 6.00 Build 0)  -->
<svg version="1.1" id="Capa_1" xmlns="http://www.w3.org/2000/svg" xmlns:xlink="http://www.w3.org/1999/xlink" x="0px" y="0px"
	 viewBox="0 0 512 512" style="enable-background:new 0 0 512 512;" xml:space="preserve">
<path style="fill:#EAB883;" d="M370.095,133.572c-12.213-5.908-41.284-24.267-61.166-39.75c0,0-31.569-25.584-77.235-2.618l0,0
	c-27.352,13.755-46.334,37.828-70.043,63.376c-8.763,9.461-7.41,24.425,2.906,32.162c11.301,8.476,27.029,7.731,37.478-1.775
	l37.588-34.193c3.798-2.765,8.957-2.652,12.637,0.268c0,0,27.618,31.009,77.865,31.943c8.163,9.131,71.501,79.975,83.691,93.61
	c5.164,5.538,7.367,12.757,6.733,19.748h44.802V135.984C378.488,135.209,378.813,137.789,370.095,133.572z"/>
<path style="fill:#F7CF9C;" d="M413.816,276.594c-1.035-1.158,10.922,12.216-83.691-93.61
	c-50.247-0.935-77.865-31.943-77.865-31.943c-3.679-2.92-8.839-3.033-12.637-0.268l-37.588,34.193
	c-10.45,9.506-26.178,10.251-37.478,1.774c-10.317-7.737-11.669-22.701-2.906-32.162c20.648-20.605,39.158-47.845,70.043-63.377
	c-9.278-2.709-28.988-7.847-39.091-3.197c-23.975,11.032-50.989,40.079-62.329,45.566c-8.699,4.208-9.715,1.657-83.625,2.412
	v160.359h50.222c56.56,0,160.441,108.543,160.441,108.543l0,0l0,0l2.232,2.521c9.629,10.327,25.804,10.892,36.13,1.263
	c9.432-8.795,10.692-23.037,3.508-33.309l1.886,2.023c9.307,9.981,24.916,11.329,35.392,2.582c9.106-7.602,11.49-19.978,6.96-30.091
	c9.732,9.065,24.947,9.207,34.824-0.004c9.896-9.227,10.802-24.452,2.388-34.794c9.856,6.794,23.178,5.783,31.919-2.353
	C422.879,303.095,423.444,286.921,413.816,276.594z"/>
<g>
	<path style="fill:#EFEFEF;" d="M483.425,112.133c-11.64,0-21.074,9.435-21.074,21.074c0,0.325,0,10.693,0,10.408
		c0,0.379,0,3.888,0,3.777c0,0.303,0,6.599,0,6.223c0,0.103,0,6.103,0,6c0,0.141,0,2.117,0,2c0,0.806,0,3.509,0,3.407
		c0,0.128,0,2.738,0,2.593c0,0.189,0,5.723,0,5.407c0,0.102,0,6.104,0,6c0,0.313,0,9.476,0,9.184c0,69.492,0,40.896,0,110.382
		c0,11.64,9.436,21.074,21.074,21.074s21.074-9.435,21.074-21.074c0-0.325,0-10.693,0-10.408c0-3.178,0-158.15,0-154.975
		C504.5,121.567,495.064,112.133,483.425,112.133z"/>
	<path style="fill:#EFEFEF;" d="M28.575,112.133c-11.64,0-21.074,9.435-21.074,21.074c0,118.688,0,45.836,0,165.382
		c0,11.64,9.436,21.074,21.074,21.074s21.074-9.435,21.074-21.074c0-16.357,0-143.045,0-165.382
		C49.65,121.567,40.214,112.133,28.575,112.133z"/>
</g>
<g>
	<path style="fill:#DDDDDD;" d="M483.425,224.325c-11.64,0-21.074-9.435-21.074-21.074c0,0.151,0,7.272,0,6.958
		c0,12.658,0,79.566,0,88.381c0,11.64,9.435,21.074,21.074,21.074S504.5,310.23,504.5,298.59c0-0.325,0-10.693,0-10.408
		c0-20.483,0-63.312,0-84.932C504.5,214.89,495.064,224.325,483.425,224.325z"/>
	<path style="fill:#DDDDDD;" d="M28.575,224.325c-11.64,0-21.074-9.435-21.074-21.074c0,19.128,0,76.2,0,95.34
		c0,11.64,9.436,21.074,21.074,21.074s21.074-9.435,21.074-21.074c0-5.573,0-91.942,0-86.381c0-0.262,0-9.06,0-8.959
		C49.65,214.89,40.214,224.325,28.575,224.325z"/>
</g>
<g>
	<path style="fill:#EAB883;" d="M81.842,204.344c0-24.199,4.783-47.278,13.436-68.359H46.65v160.359h50.222
		c0.042-4.312,1.211-8.601,3.482-12.391C88.508,259.946,81.842,232.925,81.842,204.344z"/>
	<path style="fill:#EAB883;" d="M192.076,298.905c-9.049-10.066-24.543-10.891-34.61-1.841c-1.749,1.573-14.463,13.002-15.92,14.311
		l-3.811,3.426c-10.067,9.05-10.891,24.544-1.841,34.61c9.049,10.066,24.543,10.891,34.61,1.841
		c4.17-3.749,15.47-13.907,19.731-17.737C200.3,324.466,201.124,308.971,192.076,298.905z"/>
	<path style="fill:#EAB883;" d="M224.845,335.356c-9.049-10.066-24.543-10.891-34.61-1.841
		c-23.613,21.227-15.373,13.82-19.731,17.737c-10.067,9.05-10.891,24.543-1.841,34.61c9.049,10.066,24.544,10.891,34.61,1.841
		c4.595-4.13,15.211-13.674,19.731-17.737C233.069,360.917,233.893,345.422,224.845,335.356z"/>
	<path style="fill:#EAB883;" d="M257.613,371.808c-9.05-10.066-24.543-10.891-34.61-1.841c-4.544,4.085-15.901,14.295-19.731,17.737
		c-10.067,9.05-10.891,24.544-1.841,34.61c9.049,10.066,24.544,10.891,34.61,1.841c6.974-6.27,12.728-11.442,19.731-17.737
		C265.837,397.368,266.662,381.874,257.613,371.808z"/>
	<path style="fill:#EAB883;" d="M159.308,262.454c-9.05-10.066-24.543-10.891-34.61-1.841c-4.522,4.065-15.138,13.609-19.731,17.737
		c-10.067,9.05-10.891,24.544-1.841,34.61s24.543,10.891,34.61,1.841l3.811-3.426l6.919-6.219l9.001-8.091
		C167.532,288.015,168.356,272.52,159.308,262.454z"/>
</g>
<g>
	<path style="fill:#E0A773;" d="M124.627,293.583c-8.678-9.654-8.271-24.295,0.656-33.462c-0.843,0.707,2.16-1.977-20.316,18.228
		c-10.067,9.05-10.891,24.543-1.841,34.61s24.543,10.891,34.61,1.841l3.811-3.426l6.918-6.22c9.295-8.381,9.154-8.172,10.155-9.204
		C148.547,304.431,133.494,303.448,124.627,293.583z"/>
	<path style="fill:#E0A773;" d="M157.395,330.034c-8.678-9.654-8.271-24.295,0.656-33.462c-1.129,0.947,0.617-0.564-9.586,8.583
		c-0.913,0.821,3.622-3.256-10.73,9.647c-10.067,9.05-10.891,24.543-1.841,34.61s24.543,10.891,34.61,1.841
		c14.588-13.114,9.699-8.719,10.731-9.647c9.295-8.38,9.154-8.172,10.155-9.204C181.316,340.882,166.262,339.899,157.395,330.034z"
		/>
	<path style="fill:#E0A773;" d="M190.164,366.486c-8.678-9.654-8.271-24.295,0.656-33.462c-0.801,0.672-19.514,17.506-20.316,18.228
		c-10.067,9.05-10.891,24.543-1.841,34.61s24.544,10.891,34.61,1.841c1.944-1.747,20.125-18.067,20.885-18.85
		C214.084,377.333,199.031,376.35,190.164,366.486z"/>
	<path style="fill:#E0A773;" d="M222.932,402.938c-8.678-9.654-8.271-24.295,0.656-33.462c-0.801,0.672-19.514,17.506-20.316,18.228
		c-10.067,9.05-10.891,24.543-1.841,34.61s24.543,10.891,34.61,1.841c21.55-19.373,20.091-18.032,20.885-18.85
		C246.853,413.784,231.799,412.801,222.932,402.938z"/>
</g>
<path d="M504.5,245.09c4.143,0,7.5-3.357,7.5-7.5V133.208c0-15.756-12.819-28.575-28.575-28.575
	c-14.146,0-25.919,10.336-28.178,23.851c-77.736-0.562-75.828,1.268-81.884-1.663c-6.291-3.044-17.591-9.754-29.49-17.51
	c-3.472-2.263-8.118-1.282-10.38,2.188c-2.262,3.471-1.282,8.117,2.188,10.38c27.233,17.751,35.146,21.606,44.959,21.606h74.21
	v145.358h-27.089c-1.031-6.552-4.01-12.565-8.402-17.3c-91.937-103.563-85.069-95.981-89.096-96.057
	c-46.112-0.857-72.159-29.164-72.402-29.433c-4.979-5.588-16.856-6.663-23.284-0.827l-37.588,34.193
	c-4.373,3.978-10.004,5.894-15.589,5.687c-16.357-0.605-22.91-16.078-14.245-25.43c21.661-23.385,26.699-28.815,27.566-29.748
	c-0.231,0.248-0.566,0.606,0.138-0.161c21.732-23.604,39.493-31.383,40.21-31.867c22.827-11.476,49.838-13.025,71.227,3.361
	c3.291,2.521,7.998,1.896,10.516-1.392c2.52-3.288,1.897-7.996-1.392-10.516c-22.301-17.085-53.16-20.858-84.433-6.144
	c-19.259-5.333-32.868-5.999-41.518-2.019c-24.712,11.37-52.75,40.929-62.462,45.628c-6.099,2.952-5.809,1.118-70.254,1.663
	c-2.259-13.515-14.031-23.851-28.178-23.851C12.819,104.632,0,117.452,0,133.208v23.33c0,4.143,3.358,7.5,7.5,7.5
	c4.143,0,7.5-3.357,7.5-7.5v-23.33c0-7.484,6.089-13.574,13.574-13.574s13.574,6.089,13.574,13.574c0,7.282,0,143.772,0,165.382
	c0,7.484-6.089,13.574-13.574,13.574s-13.574-6.089-13.574-13.574V194.209c0-4.143-3.357-7.5-7.5-7.5c-4.142,0-7.5,3.357-7.5,7.5
	V298.59c0,15.756,12.819,28.575,28.575,28.575c13.961,0,25.609-10.068,28.083-23.321h33.531
	c3.396,14.672,16.729,25.229,32.257,24.702c-2.774,19.717,12.822,37.127,32.769,36.451c-2.774,19.719,12.821,37.127,32.769,36.45
	c-4.213,29.946,31.288,47.868,53.072,28.286l16.001-14.385c20.312,16.983,52.399,4.266,54.126-23.312
	c20.242,5.701,39.958-8.315,41.815-28.778c22.512,5.436,43.475-13.124,40.574-36.237c15.078,0.698,28.659-8.799,33.104-23.177
	h28.667c2.474,13.254,14.122,23.321,28.083,23.321c15.756,0,28.575-12.819,28.575-28.575v-25.054c0-4.143-3.357-7.5-7.5-7.5
	s-7.5,3.357-7.5,7.5v25.054c0,7.484-6.089,13.574-13.574,13.574s-13.574-6.089-13.574-13.574c0-11.916,0-137.881,0-165.382
	c0-7.484,6.089-13.574,13.574-13.574s13.574,6.089,13.574,13.574V237.59C496.999,241.732,500.356,245.09,504.5,245.09z
	 M105.114,291.593c0.924-3.031,2.669-5.689,4.866-7.665c19.619-17.631,21.25-20.063,26.614-21.49
	c16.722-4.542,29.296,16.15,15.848,29.058l-19.722,17.729C120.106,320.562,100.089,308.296,105.114,291.593z M141.472,344.397
	c-6.269-6.974-5.695-17.749,1.278-24.019c0.757-0.681-2.741,2.464,19.73-17.736c6.967-6.267,17.758-5.675,24.017,1.277h0.001
	c5.261,5.853,6.293,15.039-0.023,22.765c-1.093,1.209-0.176,0.239-20.986,18.99C158.515,351.944,147.738,351.369,141.472,344.397z
	 M174.24,380.849c-6.269-6.974-5.695-17.749,1.278-24.019c20.746-18.585,21.886-20.826,28.395-21.871
	c5.993-0.968,11.709,1.357,15.352,5.412h0.001c6.235,6.932,5.73,17.715-1.277,24.018l-19.731,17.737
	C191.285,388.394,180.508,387.822,174.24,380.849z M251.795,399.807c-1.144,1.222,0.096-0.032-20.769,18.77
	c-6.973,6.268-17.748,5.695-24.017-1.277c-6.27-6.974-5.695-17.749,1.278-24.019c20.152-18.031,21.603-20.641,27.975-21.813
	c0.18,0.04,8.96-2.225,15.772,5.354h0.001C257.766,383.196,257.923,393.238,251.795,399.807z M384.89,308.903
	c-7.103-4.898-15.52,4.214-10.076,10.908c5.967,7.335,5.227,18.13-1.685,24.574c-6.892,6.427-17.697,6.427-24.595,0.002
	c-5.957-5.556-15.288,1.122-11.958,8.554c3.293,7.353,1.269,16.099-4.922,21.268c-7.343,6.129-18.368,5.279-25.1-1.938l-1.886-2.023
	c-2.685-2.88-7.14-3.193-10.205-0.718c-3.061,2.478-3.685,6.901-1.429,10.131c5.12,7.32,4.056,17.434-2.476,23.524
	c-6.582,6.136-16.567,6.403-23.443,1.021c12.649-21.65-3.964-48.926-28.763-48.039c2.718-19.459-12.739-37.041-32.814-36.413
	c2.764-19.668-12.814-37.076-32.76-36.45c1.319-9.527-1.591-18.846-7.893-25.863l-0.001-0.001
	c-11.732-13.073-31.979-14.297-45.202-2.404c-20.491,18.465-19.934,17.806-21.604,19.578c-3.882,4.108-6.489,9.028-7.776,14.23
	H57.149V143.485c60.835-0.922,65.265,2.225,76.392-3.161c12.672-6.131,39.288-34.963,62.198-45.503
	c1.732-0.797,6.215-1.975,16.3-0.461c-23.776,16.838-37.945,37.418-55.891,55.123c-17.637,19.044-3.948,50.79,26.253,50.634
	c9.12-0.046,17.895-3.43,24.681-9.602l37.194-33.836c0.932-0.551,2.067-0.543,2.991,0.01c16.759,17.654,46.508,32.259,79.411,33.691
	c88.747,99.251,81.906,91.568,82.881,92.802c2.652,3.545,3.526,12.605,3.517,12.505C411.795,309.666,396.001,316.559,384.89,308.903
	z"/>
<path d="M194.72,129.929C194.871,129.768,194.975,129.655,194.72,129.929L194.72,129.929z"/>
<g>
</g>
<g>
</g>
<g>
</g>
<g>
</g>
<g>
</g>
<g>
</g>
<g>
</g>
<g>
</g>
<g>
</g>
<g>
</g>
<g>
</g>
<g>
</g>
<g>
</g>
<g>
</g>
<g>
</g>
</svg>
