<?xml version="1.0" encoding="UTF-8"?>
<!-- Generator: Adobe Illustrator 25.4.1, SVG Export Plug-In . SVG Version: 6.00 Build 0)  -->
<svg version="1.1" id="Layer_1" xmlns="http://www.w3.org/2000/svg" xmlns:xlink="http://www.w3.org/1999/xlink" x="0px" y="0px" viewBox="0 0 337 70" style="enable-background:new 0 0 337 70;" xml:space="preserve"><script xmlns=""/>
<style type="text/css">
	.st0{fill:#D5D300;}
	.st1{fill:#FFFFFF;}
</style>
<path class="st0" d="M54.5,32.7c0.3,0.4,0,0.8-0.5,0.8H40.2c-0.5,0-1.1-0.4-1.4-0.8l-7-11.8c-0.3-0.4,0-0.8,0.5-0.8h13.9  c0.5,0,1.1,0.4,1.4,0.8L54.5,32.7z"/>
<path class="st1" d="M47.3,52l9.9,17.5c-0.1,0-0.3,0-0.4,0c-0.1,0-0.2,0-0.2,0H21c-1.3,0-2.6-0.8-3.3-1.9L0.3,36.7  c0-0.1-0.1-0.2-0.1-0.2l19.9,0L28.4,51c0.3,0.6,1,1,1.6,1H47.3z M28.5,18.4c0.3-0.6,1-0.9,1.6-0.9l16.7,0l9.9-17c-0.1,0-0.1,0-0.2,0  l-35.3,0c-1.3,0-2.6,0.7-3.2,1.9L0.3,32.9c-0.1,0.2-0.2,0.3-0.2,0.5l19.7,0L28.5,18.4z M77.9,36.7c0.7-1.1,0.7-2.5,0.1-3.6  c0-0.1-0.1-0.1-0.1-0.2l-18-30.5c-0.1-0.2-0.2-0.3-0.3-0.5l-9.8,16.9l8.8,14.9c0,0,0,0.1,0.1,0.1c0.3,0.6,0.3,1.3,0,1.8l-8.6,14.8  l9.9,17.5c0.1-0.1,0.1-0.2,0.2-0.3L77.9,36.7z M132.1,19.3c0,4.3,0,8.9,0,10.3c0,2.2-1.9,6.2-6.7,6.2c-0.9,0-0.8,1-0.2,1  c2.1,0,6.8,1.6,6.8,6.6c0,5.5,0,7.9,0,9.8c0,5.9-4.4,10.1-10.3,10.1c-7,0-26.2,0-26.2,0c-0.5,0-1-0.4-1-1V10.4c0-0.5,0.4-1,1-1  c0,0,24,0,25.6,0C128.2,9.4,132.1,14,132.1,19.3z M121.8,42.5c0-0.5-0.4-1-1-1h-15.8v10.5c0,0.5,0.4,1,1,1h14.8c0.5,0,1-0.4,1-1  V42.5z M121.8,20.8c0-0.5-0.4-1-1-1H106c-0.5,0-1,0.4-1,1v10.3h15.8c0.5,0,1-0.4,1-1V20.8z M179.3,62.5c0.2,0.5-0.2,0.9-0.7,0.9  h-8.9c-0.5,0-1.1-0.4-1.2-0.9l-2-7.5c-0.1-0.5-0.7-0.9-1.2-0.9l-15.1,0c-1.2,4.3-2.2,7.7-2.7,9.3h-9.8c-0.5,0-0.8-0.4-0.7-0.9  l15.7-52.2c0.2-0.5,0.7-0.9,1.2-0.9h8.4c0.5,0,1.1,0.4,1.2,0.9L179.3,62.5z M163,42.9l-4.8-20.7c-1.2,6.2-3.2,14.2-5.2,21.6l9.2,0  C162.8,43.8,163.1,43.4,163,42.9z M267.6,62.5c0.2,0.5-0.2,0.9-0.7,0.9h-8.9c-0.5,0-1.1-0.4-1.2-0.9l-2-7.5  c-0.1-0.5-0.7-0.9-1.2-0.9l-15.1,0c-1.2,4.3-2.2,7.7-2.7,9.3H226c-0.5,0-0.8-0.4-0.7-0.9L241,10.3c0.2-0.5,0.7-0.9,1.2-0.9h8.4  c0.5,0,1.1,0.4,1.2,0.9L267.6,62.5z M251.3,42.9l-4.8-20.7c-1.2,6.2-3.2,14.2-5.2,21.6l9.2,0C251.1,43.8,251.5,43.4,251.3,42.9z   M209.3,9.4c0,0-10.6,0-14.3,0c-6.2,0-10.9,4.3-10.9,10c0,5.8,0,5.5,0,9.7c0,6,5.2,8.8,8.7,10c3.3,1.1,12.8,3.6,17.2,5.1v7.7  c0,0.5-0.4,1-1,1L195.6,53c-0.5,0-1-0.4-1-1v-4.4c0-0.5-0.4-1-1-1h-8.6c-0.5,0-1,0.4-1,0.8c0,0,0,0,0,5.9c0,5.9,5,10,10,10  c3,0,12.6,0,16.8,0c4.1,0,9.4-4.6,9.4-9.2s0-6.3,0-11.7c0-5.3-6.8-8.1-9.7-9c-2.9-0.9-12.7-3.5-16.1-4.7v-7.9c0-0.5,0.4-1,1-1H209  c0.5,0,1,0.4,1,1v4.3c0,0.5,0.4,1,1,1h8.6c0.5,0,1-0.4,1-1c0,0,0-0.7,0-5.6C220.5,14.8,217,9.4,209.3,9.4z M304.6,52.9h-19.8  c-0.5,0-1-0.4-1-1V10.4c0-0.5-0.4-1-1-1h-8.6c-0.5,0-1,0.4-1,1v52.1c0,0.5,0.4,1,1,1h30.3c0.5,0,1-0.4,1-1v-8.6  C305.5,53.3,305.1,52.9,304.6,52.9z M336,9.4h-33.5c-0.5,0-1,0.4-1,1v8.6c0,0.5,0.4,1,1,1H313c0.5,0,1,0.4,1,1v41.6c0,0.5,0.4,1,1,1  h8.6c0.5,0,1-0.4,1-1V20.9c0-0.5,0.4-1,1-1H336c0.5,0,1-0.4,1-1v-8.6C336.9,9.8,336.5,9.4,336,9.4z"/>
</svg>