<?xml version="1.0" encoding="utf-8"?>
<!-- Generator: Adobe Illustrator 26.5.0, SVG Export Plug-In . SVG Version: 6.00 Build 0)  -->
<svg version="1.1" id="Layer_1" xmlns="http://www.w3.org/2000/svg" xmlns:xlink="http://www.w3.org/1999/xlink" x="0px" y="0px"
	 viewBox="0 0 437 118" style="enable-background:new 0 0 437 118;" xml:space="preserve">
<style type="text/css">
	.st0{fill:#D5D300;}
	.st1{fill:#003C4E;}
</style>
<path class="st0" d="M93.3,55.1c0.4,0.8,0.1,1.4-0.8,1.4H68.7c-0.9,0-2-0.6-2.4-1.4L54.4,34.9c-0.4-0.8-0.1-1.4,0.8-1.4H79
	c0.9,0,2,0.6,2.4,1.4L93.3,55.1z"/>
<path class="st1" d="M155.8,102.9h7.9v2.3h-10.7V88.8h10.6v2.3h-7.8v4.5h6.7v2.2h-6.7V102.9z M176.8,100.5l-7.3-11.7h-2.8v16.4h2.8
	V93.6l7.3,11.6h2.8V88.8h-2.8V100.5z M201.9,92.5c0.6,1.2,0.9,2.5,0.9,4.1v0.8c0,1.5-0.3,2.9-0.9,4.1c-0.6,1.2-1.5,2.1-2.6,2.7
	c-1.1,0.6-2.5,1-3.9,1h-4.7V88.8h4.8c1.4,0,2.7,0.3,3.9,1C200.4,90.4,201.3,91.3,201.9,92.5z M200,96.6c0-1.8-0.4-3.1-1.2-4.1
	c-0.8-0.9-1.9-1.4-3.4-1.4c0,0-2,0-2,0v11.8h1.9c1.5,0,2.6-0.5,3.4-1.4s1.2-2.3,1.2-4V96.6z M209.2,97.9h6.7v-2.2h-6.7v-4.5h7.8
	v-2.3h-10.6v16.4H217v-2.3h-7.8V97.9z M222.9,88.8h-2.8v16.4h10.3v-2.3h-7.4V88.8z M244.3,88.8l6.2,16.4h-3l-1.4-3.8h-6.3l-1.3,3.8
	h-3l6.2-16.4H244.3z M245.4,99.1l-2.4-6.8l-2.4,6.8H245.4z M257.6,101.6l-4.1-12.8h-3.1l5.9,16.4h2.8l5.9-16.4h-3.1L257.6,101.6z
	 M284.8,92.3c0.6,1.2,0.8,2.6,0.8,4.2v0.9h0c0,1.6-0.3,3-0.8,4.2s-1.3,2.1-2.4,2.8c-1,0.7-2.2,1-3.5,1c-1.3,0-2.5-0.3-3.5-1
	c-1-0.6-1.8-1.6-2.4-2.8c-0.6-1.2-0.8-2.6-0.9-4.1v-0.9c0-1.6,0.3-3,0.9-4.2c0.6-1.2,1.4-2.1,2.4-2.8c1-0.7,2.2-1,3.5-1
	s2.5,0.3,3.5,1C283.5,90.2,284.3,91.1,284.8,92.3z M282.8,96.6c0-1.8-0.3-3.2-1-4.2c-0.7-1-1.7-1.5-2.9-1.5c-1.2,0-2.2,0.5-2.9,1.4
	c-0.7,1-1,2.3-1.1,4.1v0.9c0,1.8,0.4,3.2,1,4.2c0.7,1,1.7,1.5,2.9,1.5c1.3,0,2.2-0.5,2.9-1.4c0.7-1,1-2.4,1-4.2V96.6z M297.6,101.3
	l-4.7-12.5h-3.7v16.4h2.8v-5.4l-0.3-7.2l4.8,12.6h2l4.8-12.6l-0.3,7.2v5.4h2.8V88.8h-3.7L297.6,101.3z M313.2,97.9h6.7v-2.2h-6.7
	v-4.5h7.8v-2.3h-10.6v16.4h10.7v-2.3h-7.9V97.9z M336.4,96.7h-6.2v2.2h3.4v3.2c-0.6,0.7-1.7,1-3.1,1c-1.3,0-2.4-0.5-3.1-1.5
	c-0.8-1-1.1-2.3-1.1-4.1v-1.3c0-1.8,0.4-3.1,1-4c0.7-0.9,1.6-1.4,2.9-1.4c2,0,3.1,1,3.4,3h2.8c-0.2-1.7-0.9-3-1.9-3.9
	c-1.1-0.9-2.5-1.3-4.3-1.3c-2.1,0-3.8,0.7-5,2.1c-1.2,1.4-1.8,3.3-1.8,5.8v1.3c0,1.5,0.3,2.9,0.9,4c0.6,1.2,1.4,2,2.4,2.7
	c1.1,0.6,2.3,0.9,3.6,0.9c1.3,0,2.5-0.2,3.6-0.6c1-0.4,1.9-1,2.5-1.8h0V96.7z M346.7,88.8l6.2,16.4h-3l-1.4-3.8h-6.3l-1.3,3.8h-3
	l6.2-16.4H346.7z M347.7,99.1l-2.4-6.8l-2.4,6.8H347.7z M366,90.2c1.1,1,1.6,2.2,1.6,3.8c0,1.6-0.5,2.8-1.6,3.7s-2.5,1.3-4.4,1.3
	h-3.4v6.1h-2.8V88.8h6.2C363.5,88.8,364.9,89.3,366,90.2z M364.7,94c0-0.9-0.3-1.6-0.8-2.1c-0.5-0.5-1.3-0.8-2.2-0.8h-3.5v5.7h3.4
	c1,0,1.8-0.2,2.3-0.7C364.5,95.6,364.7,94.9,364.7,94z M382.4,92.3c0.6,1.2,0.9,2.6,0.9,4.2v0.9h0c0,1.6-0.3,3-0.8,4.2
	s-1.4,2.1-2.4,2.8c-1,0.7-2.2,1-3.5,1c-1.3,0-2.5-0.3-3.5-1c-1-0.6-1.8-1.6-2.4-2.8c-0.6-1.2-0.9-2.6-0.9-4.1v-0.9
	c0-1.6,0.3-3,0.8-4.2c0.6-1.2,1.4-2.1,2.4-2.8s2.2-1,3.5-1c1.3,0,2.5,0.3,3.5,1C381,90.2,381.8,91.1,382.4,92.3z M380.4,96.6
	c0-1.8-0.3-3.2-1-4.2c-0.7-1-1.7-1.5-2.9-1.5c-1.2,0-2.2,0.5-2.9,1.4c-0.7,1-1,2.3-1.1,4.1v0.9c0,1.8,0.4,3.2,1,4.2
	c0.7,1,1.7,1.5,2.9,1.5c1.3,0,2.2-0.5,2.9-1.4c0.7-1,1-2.4,1-4.2V96.6z M386.9,105.2h2.8V88.8h-2.8V105.2z M404.6,100.5l-7.3-11.7
	h-2.8v16.4h2.8V93.6l7.3,11.6h2.8V88.8h-2.8V100.5z M409.2,91.1h5v14.1h2.8V91.1h5.1v-2.3h-13V91.1z M51.3,88
	c-1.1,0-2.2-0.6-2.8-1.6l-14-25l-34,0c0.1,0.1,0.1,0.3,0.2,0.4l29.8,52.8c1.1,2,3.3,3.3,5.6,3.3h60.8c0.1,0,0.2,0,0.4,0
	c0.2,0,0.4,0,0.6-0.1L80.9,88H51.3z M48.8,30.7c0.6-1,1.6-1.6,2.8-1.6h28.6l16.9-29c-0.1,0-0.2,0-0.3,0H36.4c-2.3,0-4.4,1.2-5.5,3.2
	L0.7,55.5c-0.1,0.3-0.3,0.5-0.4,0.8l33.7,0L48.8,30.7z M132.9,55.3L102.1,3.2c-0.2-0.3-0.4-0.6-0.6-0.8L84.8,31.3l15,25.4
	c0,0.1,0.1,0.1,0.1,0.2c0.5,1,0.5,2.1,0,3.1L85.3,85.3l17,29.9c0.1-0.2,0.2-0.3,0.3-0.5L133,61.9c1.1-1.9,1.2-4.3,0.1-6.2
	C133.1,55.5,133,55.4,132.9,55.3z M184.7,76.1c-8.2,0-30.6,0-30.6,0c-0.6,0-1.1-0.5-1.1-1.1v-61c0-0.6,0.5-1.1,1.1-1.1
	c0,0,28.1,0,30,0c8.1,0,12.8,5.3,12.7,11.6c0,5.1,0,10.4,0,12.1c0,2.6-2.2,7.3-7.8,7.3c-1.1,0-0.9,1.2-0.2,1.2c2.4,0,8,1.9,8,7.7
	c0,6.4,0,9.3,0,11.4C196.8,71.1,191.6,76.1,184.7,76.1z M184.7,51.7c0-0.6-0.5-1.1-1.1-1.1h-18.5v12.3c0,0.6,0.5,1.1,1.1,1.1h17.4
	c0.6,0,1.1-0.5,1.1-1.1V51.7z M184.7,37.1L184.7,37.1l0-10.9c0-0.6-0.5-1.1-1.1-1.1h-17.4c-0.6,0-1.1,0.5-1.1,1.1v12h18.5
	C184.2,38.2,184.7,37.7,184.7,37.1z M235.6,65.2h-17.7c-1.4,5.1-2.6,9.1-3.2,10.9h-11.5c-0.6,0-1-0.5-0.8-1.1l18.4-61.1
	c0.2-0.6,0.8-1.1,1.5-1.1h9.8c0.6,0,1.3,0.5,1.4,1.1L252,75c0.2,0.6-0.2,1.1-0.8,1.1h-10.4c-0.6,0-1.3-0.5-1.4-1.1l-2.4-8.7
	C236.8,65.7,236.2,65.2,235.6,65.2z M232.9,52l-5.6-24.2c-1.4,7.3-3.8,16.7-6.1,25.3H232C232.7,53.1,233,52.6,232.9,52z M354.7,76.1
	h-10.4c-0.6,0-1.3-0.5-1.4-1.1l-2.4-8.7c-0.2-0.6-0.8-1.1-1.4-1.1h-17.7c-1.4,5.1-2.6,9.1-3.2,10.9h-11.5c-0.6,0-1-0.5-0.8-1.1
	l18.4-61.1c0.2-0.6,0.8-1.1,1.5-1.1h9.8c0.6,0,1.3,0.5,1.5,1.1L355.5,75C355.7,75.6,355.3,76.1,354.7,76.1z M336.4,52l-5.6-24.2
	c-1.4,7.3-3.8,16.7-6.1,25.3h10.8C336.2,53.1,336.6,52.6,336.4,52z M300.1,65.3c0-5.5,0-7.4,0-13.7c0-6.2-8-9.5-11.4-10.6
	c-3.4-1.1-14.9-4.1-18.8-5.5v-9.2c0-0.6,0.5-1.1,1.1-1.1h15.8c0.6,0,1.1,0.5,1.1,1.1v5.1c0,0.6,0.5,1.1,1.1,1.1h10.1
	c0.6,0,1.1-0.5,1.1-1.1c0,0,0-0.9,0-6.5c0-5.7-4-12-13.1-12c0,0-12.4,0-16.7,0c-7.2,0-12.8,5-12.8,11.7c0,6.7,0,6.4,0,11.4
	c0,7,6,10.4,10.2,11.7c3.8,1.2,15,4.2,20.2,6v9.1c0,0.6-0.5,1.1-1.1,1.1l-15.9,0.1c-0.6,0-1.1-0.5-1.1-1.1v-5.2
	c0-0.6-0.5-1.1-1.1-1.1h-10c-0.6,0-1.1,0.4-1.1,1c0,0,0,0,0,6.9c0,6.9,5.9,11.8,11.8,11.8c3.5,0,14.8,0,19.7,0
	C294,76.1,300.1,70.7,300.1,65.3z M363.3,76.1h35.5c0.6,0,1.1-0.5,1.1-1.1V64.9c0-0.6-0.5-1.1-1.1-1.1h-23.2c-0.6,0-1.1-0.5-1.1-1.1
	V14c0-0.6-0.5-1.1-1.1-1.1h-10c-0.6,0-1.1,0.5-1.1,1.1v61C362.2,75.6,362.7,76.1,363.3,76.1z M435.6,12.8h-39.3
	c-0.6,0-1.1,0.5-1.1,1.1v10c0,0.6,0.5,1.1,1.1,1.1h12.3c0.6,0,1.1,0.5,1.1,1.1V75c0,0.6,0.5,1.1,1.1,1.1h10c0.6,0,1.1-0.5,1.1-1.1
	V26.2c0-0.6,0.5-1.1,1.1-1.1h12.4c0.6,0,1.1-0.5,1.1-1.1V14C436.7,13.3,436.2,12.8,435.6,12.8z"/>
</svg>
