<svg id="svg2" xmlns="http://www.w3.org/2000/svg" xmlns:xlink="http://www.w3.org/1999/xlink" viewBox="0 0 4448.29 594.03"><defs><style>.cls-1{fill:none;}.cls-2{fill:#fff;}.cls-3{clip-path:url(#clip-path);}</style><clipPath id="clip-path" transform="translate(-135.4 -142.52)"><rect class="cls-1" x="2307.54" width="2422.76" height="712.58"/></clipPath></defs><title>Ddagen+Ericsson</title><g id="g10"><g id="g12"><g id="g918"><g id="g844"><path id="path31" class="cls-2" d="M406.38,329.77c-5.53,0-10.27,1.58-13,6.32-2,3.56-7.9,10.28-7.9,50.19s5.93,47,7.9,50.18c9.09,15.41,37.15-1.59,49-8.7,18.57-11.06,20.55-15.41,38.72-26.08,19.76-13,31.22-11.45,51,0,18.57,10.28,20.55,15,38.72,26.08,11.86,7.11,39.91,24.11,49,8.7,2-3.56,7.9-10.28,7.9-50.18s-5.53-46.63-7.51-50.19c-2.76-4.74-7.5-6.32-13-6.32-11.85.4-28.05,9.88-36,15-18.57,11.06-20.55,15.41-38.72,26.08-19.76,13-31.22,11.45-51,0-18.57-10.28-20.55-15-38.73-26.08C434.44,340.05,418.24,330.17,406.38,329.77Z" transform="translate(-135.4 -142.52)"/></g><circle id="path4997" class="cls-2" cx="371.27" cy="243.8" r="30.03"/></g><g id="g14"><g id="g20"><path id="path22" class="cls-2" d="M324.46,386.4c0-22.4-7.6-41.6-23.06-57.33s-33.87-23.73-55.6-23.73-40.4,7.86-55.74,23.73S167,364,167,386.4s7.73,41.6,23.06,57.47,33.87,23.6,55.74,23.6,40.4-7.87,55.73-23.73,22.93-34.8,22.93-57.34m0-194.93A15.91,15.91,0,0,1,329.13,180a14.93,14.93,0,0,1,11.2-4.8A14.65,14.65,0,0,1,351.4,180a16.16,16.16,0,0,1,4.66,11.47l-.13,194.93c0,31.47-10.8,58.14-32.27,80.27S276.2,500,245.66,500s-56.53-11.06-78-33.33S135.4,417.74,135.4,386.4s10.8-58.13,32.26-80.26,47.47-33.2,78-33.2,56.4,11.06,78,33.2l.8.8Z" transform="translate(-135.4 -142.52)"/></g><g id="g24"><path id="path26" class="cls-2" d="M846.68,386.4c0-22.4-7.6-41.6-23.06-57.33s-33.87-23.73-55.74-23.73-40.4,7.86-55.73,23.73S689.08,364,689.08,386.4s7.6,41.6,23.07,57.47,34,23.73,55.73,23.73,40.4-7.86,55.74-23.73,23.06-34.93,23.06-57.47m0-194.93A15.91,15.91,0,0,1,851.35,180a15.15,15.15,0,0,1,22.13,0,16.13,16.13,0,0,1,4.67,11.47V386.4c0,31.47-10.8,58.14-32.27,80.27S798.42,500,767.88,500s-56.4-11.06-78-33.33-32.26-48.93-32.26-80.27,10.8-58.13,32.26-80.26,47.6-33.2,78-33.2,56.4,11.06,78,33.2l.8.8Z" transform="translate(-135.4 -142.52)"/></g><g id="g28"><path id="path30" class="cls-2" d="M1020,305.35c-21.73,0-40.4,7.86-55.73,23.73S941.19,364,941.19,386.41s7.73,41.6,23.07,57.47,34,23.73,55.73,23.73,40.27-7.86,55.73-23.73,23.07-34.93,23.07-57.47-7.6-41.6-23.07-57.33-33.86-23.73-55.73-23.73m78.8,160.53c-22.13,22.8-48.27,34.13-78.8,34.13s-56.4-11.06-78-33.33-32.27-48.93-32.27-80.27,10.8-58.13,32.27-80.26,47.6-33.2,78-33.2,56.4,11.06,78,33.2,32.27,48.93,32.27,80.26v97.34a16,16,0,0,1-4.54,11.46,15.47,15.47,0,0,1-22.4,0,16.14,16.14,0,0,1-4.66-11.46Z" transform="translate(-135.4 -142.52)"/></g><g id="g32"><path id="path34" class="cls-2" d="M1272,305.35c-21.73,0-40.27,7.86-55.73,23.73s-22.94,34.93-22.94,57.33,7.6,41.6,22.94,57.47,34,23.73,55.73,23.73,40.4-7.86,55.73-23.73,23.07-34.93,23.07-57.47-7.73-41.6-23.07-57.33-33.86-23.73-55.73-23.73m78.8,160.53a5.91,5.91,0,0,1-.93.8q-32,33.4-77.87,33.33-45.6,0-78-33.33-32.2-33.19-32.27-80.27T1194,306.15q32.4-33.21,78-33.2,45.8,0,78,33.2c21.6,22.13,32.27,48.93,32.27,80.26V500c0,23.6-8.14,44.27-24.8,61.6-23.07,23.74-51.07,35.6-83.74,35.6s-60.4-11.86-83.46-35.73a116.14,116.14,0,0,1-20.8-28.13,15.94,15.94,0,0,1-2.27-8.54,15.58,15.58,0,0,1,4.67-11.46,14.92,14.92,0,0,1,11.2-4.8,15.78,15.78,0,0,1,11.2,4.66,21.41,21.41,0,0,1,3.33,4.94,88.37,88.37,0,0,0,15.2,20.4q25.4,26.19,61.2,26.13c23.87,0,44.4-8.67,61.2-26.13,10.53-12.94,15.87-26,15.87-38.67Z" transform="translate(-135.4 -142.52)"/></g><g id="g36"><path id="path38" class="cls-2" d="M1601.47,370.19c-2.8-15.47-10-29.2-21.6-41.07-15.34-15.86-34-23.73-55.74-23.73s-40.4,7.87-55.73,23.73c-11.6,11.87-18.8,25.6-21.6,41.07Zm-16.67,74.67a15.34,15.34,0,0,1,11.2,4.8,15.89,15.89,0,0,1,4.67,11.46,16.32,16.32,0,0,1-4.54,11.47q-30.6,27.41-72,27.47-45.6,0-78-33.34-32.19-33.2-32.26-80.26t32.26-80.27q32.2-33.4,78-33.33c30.54,0,56.4,11.06,78,33.2s32.4,48.93,32.4,80.26a15.18,15.18,0,0,1-4.66,11.47,14.93,14.93,0,0,1-11.2,4.8H1446.8q4.2,23.4,21.6,41.2c15.33,15.87,34,23.73,55.73,23.73,19.74,0,36.67-6.4,50.8-19.33a15.5,15.5,0,0,1,9.87-3.33" transform="translate(-135.4 -142.52)"/></g><g id="g40"><path id="path42" class="cls-2" d="M1851.44,465.88v17.87a15.57,15.57,0,0,0,4.66,11.46,15.47,15.47,0,0,0,22.4,0,16.11,16.11,0,0,0,4.67-11.46V385.61q0-47-32.27-80.26t-78-33.2c-30.53,0-56.4,11.06-78,33.2s-32.26,48.93-32.26,80.26V483a15.57,15.57,0,0,0,4.66,11.46,15.47,15.47,0,0,0,22.4,0,15.77,15.77,0,0,0,4.54-11.46v-96.4h0v-1.74c.4-21.73,8-40.4,23.06-55.73,15.34-15.87,34-23.73,55.74-23.73s40.26,7.86,55.73,23.73q22.39,23.6,22.67,56.93" transform="translate(-135.4 -142.52)"/></g></g></g></g><g class="cls-3"><polygon class="cls-2" points="2318.76 132.07 2491.43 132.07 2491.43 178.99 2379.73 178.99 2379.73 219.8 2486.84 219.8 2486.84 268.48 2379.73 268.48 2379.73 310.6 2493.24 310.6 2493.24 357.87 2318.76 357.87 2318.76 132.07"/><rect class="cls-2" x="2759.75" y="132.07" width="61.43" height="225.94"/><g class="cls-3"><path class="cls-2" d="M3180.69,281.84l-4.13,48.36c-49.63-28.72-125.7-19.57-127,55.76s78.33,86.24,128.89,60.68l3.17,49.34c-89.26,27.81-195.88-.47-195.41-110,.44-107.33,107.95-137,194.52-104.12" transform="translate(-135.4 -142.52)"/><path class="cls-2" d="M3361.53,278.35l-4.14,47c-30.95-17.06-89.73-17.51-89.73,9.27,0,39.64,104.78,11,104.78,95.92,0,83.51-99.74,84.44-164.44,65.07l4.58-49.8c40.53,18.89,97.93,23,97.93-9.73,0-36-105.23-15.7-105.23-96.42,0-66.21,82-84,156.25-61.36" transform="translate(-135.4 -142.52)"/><path class="cls-2" d="M3546.87,278.35l-4.07,47c-31-17.06-89.74-17.51-89.74,9.27,0,39.64,104.79,11,104.79,95.92,0,83.51-99.8,84.44-164.5,65.07l4.61-49.8c40.52,18.89,97.91,23,97.91-9.73,0-36-105.21-15.7-105.21-96.42,0-66.21,82-84,156.21-61.36" transform="translate(-135.4 -142.52)"/><polygon class="cls-2" points="3694.36 132.07 3772.2 132.07 3846.47 277.81 3846.47 132.07 3902.96 132.07 3902.96 358.01 3829.64 358.01 3751.3 209.53 3751.3 358.01 3694.36 358.01 3694.36 132.07"/><path class="cls-2" d="M3688.11,269.14c63.82.05,112.5,37.4,112.5,118.9,0,77.9-48.93,118-112.5,118S3576,466.87,3576,388c0-81.5,48.38-118.9,112.1-118.9M3638.9,388c0,34.43,14.77,73.41,49.21,73.35S3737,422.47,3737.29,388c.25-31.14-14.74-73.28-49.18-73.33S3638.9,353.62,3638.9,388" transform="translate(-135.4 -142.52)"/><path class="cls-2" d="M2730.21,369.78h33.7c15.16.26,28.85-8.85,28.7-25.51-.09-14.77-12.2-25.25-27.81-25h-34.59Zm-58.78-95.19h110.7c30.08,0,72,13.2,72,60.15,0,30-13.63,46.85-39.52,54.64,1.21-.09,14.78,5.82,20.39,22.8.22.55,31.66,88.14,32,88.34h-65.28l-23.22-67.88c-3.57-10.43-11.32-17.32-22.33-17.32-9.57,0-24.6-.62-24.6,0v85.2h-60.13Z" transform="translate(-135.4 -142.52)"/><path class="cls-2" d="M4581.51,170.91a42.06,42.06,0,0,0-21.15-24.39c-9.66-4.82-21.15-6-40.2.38l-216.05,72c-19.06,6.35-27.57,14.16-32.39,23.82a42.17,42.17,0,0,0,18.86,56.58c9.65,4.83,21.15,6,40.2-.38l216.05-72c19.05-6.35,27.56-14.16,32.39-23.81a42,42,0,0,0,2.29-32.2" transform="translate(-135.4 -142.52)"/><path class="cls-2" d="M4581.51,304.27a42.07,42.07,0,0,0-21.15-24.38c-9.66-4.83-21.15-6-40.2.38l-216.05,72c-19.06,6.35-27.57,14.16-32.39,23.81a42.18,42.18,0,0,0,18.86,56.59c9.65,4.82,21.15,6,40.2-.38l216.05-72c19.05-6.35,27.56-14.16,32.39-23.82a42,42,0,0,0,2.29-32.2" transform="translate(-135.4 -142.52)"/><path class="cls-2" d="M4581.51,437.64a42,42,0,0,0-21.15-24.38c-9.66-4.83-21.15-6-40.2.38l-216.05,72c-19.06,6.36-27.57,14.17-32.39,23.82a42.16,42.16,0,0,0,18.86,56.58c9.65,4.83,21.15,6,40.2-.37l216.05-72c19.05-6.35,27.56-14.17,32.39-23.82a42,42,0,0,0,2.29-32.2" transform="translate(-135.4 -142.52)"/></g></g><path id="path4616-9" class="cls-2" d="M2059.08,213.87c-31.71.23-58.6,15.24-81.46,48.32-23.64,34.19-25.34,75.4-1.48,113.92,41.36,66.76,140.59,101.3,189,182.52,48.42-81.22,147.65-115.76,189-182.52,23.86-38.52,22.15-79.73-1.48-113.92-22.87-33.08-49.76-48.09-81.47-48.32-30.56-.23-61.23,18.09-80.47,36.54a262.86,262.86,0,0,0-25.59,29,262.77,262.77,0,0,0-25.58-29C2120.31,232,2089.65,213.64,2059.08,213.87Z" transform="translate(-135.4 -142.52)"/><line class="cls-1" x1="61.91" y1="594.03" x2="1685.66" y2="594.03"/></svg>