<?xml version="1.0" encoding="UTF-8" standalone="no"?>
<svg
   id="Layer_1"
   data-name="Layer 1"
   viewBox="0 0 1500 393.7"
   version="1.1"
   sodipodi:docname="d-dagen-logo-24-sv.svg"
   inkscape:version="1.2 (dc2aeda, 2022-05-15)"
   xmlns:inkscape="http://www.inkscape.org/namespaces/inkscape"
   xmlns:sodipodi="http://sodipodi.sourceforge.net/DTD/sodipodi-0.dtd"
   xmlns="http://www.w3.org/2000/svg"
   xmlns:svg="http://www.w3.org/2000/svg">
  <sodipodi:namedview
     id="namedview47"
     pagecolor="#ffffff"
     bordercolor="#000000"
     borderopacity="0.25"
     inkscape:showpageshadow="2"
     inkscape:pageopacity="0.0"
     inkscape:pagecheckerboard="0"
     inkscape:deskcolor="#d1d1d1"
     showgrid="false"
     inkscape:zoom="0.49330262"
     inkscape:cx="548.34495"
     inkscape:cy="271.63853"
     inkscape:window-width="1310"
     inkscape:window-height="792"
     inkscape:window-x="0"
     inkscape:window-y="25"
     inkscape:window-maximized="0"
     inkscape:current-layer="Layer_1" />
  <defs
     id="defs4">
    <inkscape:path-effect
       effect="bspline"
       id="path-effect1442"
       is_visible="true"
       lpeversion="1"
       weight="33.333333"
       steps="2"
       helper_size="0"
       apply_no_weight="true"
       apply_with_weight="true"
       only_selected="false" />
    <style
       id="style2">
      .cls-1 {
        fill: #fff;
      }

      .cls-2 {
        isolation: isolate;
      }

      .cls-3 {
        fill: #e72e7b;
      }

      .cls-4 {
        fill: none;
      }
    </style>
  </defs>
  <g
     id="text">
    <path
       id="d"
       class="cls-3"
       d="m236.5,56.9c0-3.4,1.2-6.2,3.5-8.6,2.3-2.4,5.1-3.6,8.4-3.6s6,1.2,8.3,3.6c2.3,2.4,3.5,5.3,3.5,8.6v146.2c0,23.6-8.1,43.6-24.2,60.2-16.1,16.7-35.6,25-58.5,25s-42.4-8.3-58.5-25c-16.2-16.6-24.2-36.7-24.2-60.2s8.1-43.6,24.2-60.2c16.1-16.6,35.6-24.9,58.5-24.9s42.3,8.3,58.5,24.9l.6.6-.1-86.6h0Zm0,146.2c0-16.8-5.7-31.2-17.3-43-11.5-11.9-25.5-17.8-41.8-17.8s-30.3,5.9-41.8,17.8c-11.5,11.8-17.3,26.2-17.3,43s5.8,31.2,17.3,43.1c11.5,11.8,25.4,17.8,41.8,17.8s30.3-5.9,41.8-17.8c11.5-11.8,17.3-26.2,17.3-43.1Z" />
    <path
       id="d-2"
       data-name="d"
       class="cls-3"
       d="m628.1,56.9c0-3.4,1.2-6.2,3.5-8.6,2.3-2.4,5.1-3.6,8.3-3.6s6,1.2,8.3,3.6c2.3,2.4,3.5,5.3,3.5,8.6v146.2c0,23.6-8.1,43.6-24.2,60.2-16.1,16.7-35.6,25-58.5,25s-42.3-8.3-58.5-25c-16.2-16.6-24.2-36.7-24.2-60.2s8.1-43.6,24.2-60.2c16.2-16.6,35.7-24.9,58.5-24.9s42.3,8.3,58.5,24.9c.2.2.4.4.6.6V56.9h0Zm0,146.2c0-16.8-5.7-31.2-17.3-43-11.5-11.9-25.4-17.8-41.8-17.8s-30.3,5.9-41.8,17.8c-11.5,11.8-17.3,26.2-17.3,43s5.7,31.2,17.3,43.1c11.6,11.8,25.5,17.8,41.8,17.8s30.3-5.9,41.8-17.8c11.6-11.8,17.3-26.2,17.3-43.1Z" />
    <path
       id="a"
       class="cls-3"
       d="m817.2,262.8c-16.5,17.1-36.2,25.6-59.1,25.6s-42.3-8.3-58.5-25c-16.1-16.6-24.2-36.7-24.2-60.2s8.1-43.6,24.2-60.2c16.1-16.6,35.7-24.9,58.5-24.9s42.3,8.3,58.5,24.9c16.1,16.6,24.2,36.7,24.2,60.2v73c0,3.3-1.1,6.2-3.4,8.6-2.4,2.4-5.1,3.6-8.4,3.6s-6-1.2-8.4-3.6c-2.3-2.4-3.5-5.2-3.5-8.6v-13.4h.1Zm-59.1-120.4c-16.3,0-30.3,5.9-41.8,17.8-11.5,11.8-17.3,26.2-17.3,43s5.8,31.2,17.3,43.1c11.5,11.8,25.5,17.8,41.8,17.8s30.2-5.9,41.8-17.8c11.5-11.9,17.3-26.2,17.3-43.1s-5.7-31.2-17.3-43c-11.6-11.9-25.4-17.8-41.8-17.8Z" />
    <path
       id="g"
       class="cls-3"
       d="m1006.2,262.8c-.2.2-.4.4-.7.6-16.1,16.7-35.6,25-58.5,25s-42.3-8.3-58.5-25c-16.1-16.6-24.2-36.7-24.2-60.2s8.1-43.6,24.2-60.2c16.2-16.6,35.7-24.9,58.5-24.9s42.4,8.3,58.5,24.9c16.2,16.6,24.2,36.7,24.2,60.2v85.2c0,17.7-6.1,33.2-18.6,46.2-17.3,17.9-38.3,26.8-62.8,26.8s-45.3-8.9-62.6-26.8c-6.4-6.4-11.6-13.5-15.6-21.1-1.1-1.8-1.7-3.9-1.7-6.4,0-3.3,1.1-6.2,3.5-8.6,2.3-2.4,5.1-3.6,8.4-3.6s6,1.2,8.4,3.5c1,1.1,1.8,2.3,2.5,3.7,3,5.5,6.7,10.6,11.4,15.3,12.7,13.1,28,19.6,45.9,19.6s33.3-6.5,45.9-19.6c7.9-9.7,11.9-19.5,11.9-29v-25.6h-.1Zm-59.1-120.4c-16.3,0-30.2,5.9-41.8,17.8-11.5,11.8-17.2,26.2-17.2,43s5.7,31.2,17.2,43.1c11.6,11.8,25.5,17.8,41.8,17.8s30.3-5.9,41.8-17.8c11.6-11.9,17.3-26.2,17.3-43.1s-5.8-31.2-17.3-43c-11.5-11.9-25.4-17.8-41.8-17.8Z" />
    <path
       id="e"
       class="cls-3"
       d="m1181.7,247c3.2,0,6,1.2,8.4,3.6,2.3,2.4,3.5,5.2,3.5,8.6s-1.2,6.2-3.4,8.6c-15.3,13.7-33.3,20.6-54,20.6-22.8,0-42.3-8.3-58.5-25-16.1-16.6-24.2-36.7-24.2-60.2s8.1-43.6,24.2-60.2c16.1-16.6,35.6-24.9,58.5-24.9s42.3,8.3,58.5,24.9c16.1,16.6,24.3,36.7,24.3,60.2,0,3.4-1.1,6.3-3.5,8.6-2.3,2.4-5.1,3.6-8.4,3.6h-128.9c2.1,11.7,7.5,22,16.2,30.9,11.5,11.8,25.4,17.8,41.8,17.8,14.8,0,27.5-4.8,38.1-14.5,2.2-1.8,4.6-2.6,7.4-2.6Zm12.5-56c-2.1-11.6-7.5-21.9-16.2-30.8-11.5-11.9-25.4-17.8-41.8-17.8s-30.3,5.9-41.8,17.8c-8.7,8.9-14.1,19.2-16.2,30.8h116Z" />
    <path
       id="n"
       class="cls-3"
       d="m1381.7,262.8v13.4c0,3.3,1.1,6.2,3.5,8.6,2.4,2.4,5.1,3.6,8.4,3.6s6-1.2,8.4-3.6c2.3-2.4,3.5-5.2,3.5-8.6v-73.6c0-23.5-8.1-43.6-24.2-60.2-16.2-16.6-35.7-24.9-58.5-24.9s-42.3,8.3-58.5,24.9c-16.1,16.6-24.2,36.7-24.2,60.2v73c0,3.3,1.1,6.2,3.5,8.6s5.1,3.6,8.4,3.6,6-1.2,8.4-3.6c2.3-2.4,3.4-5.2,3.4-8.6v-72.3h0v-1.3c.3-16.3,6-30.3,17.3-41.8,11.5-11.9,25.5-17.8,41.8-17.8s30.2,5.9,41.8,17.8c11.5,11.8,17.2,26,17.3,42.8" />
  </g>
  <path
     id="fluga"
     class="cls-3"
     d="m459,165.4c-2.1-3.6-5.6-4.8-9.7-4.7-9,.4-20.9,7.5-27,11.2-13.9,8.4-15.3,11.7-29.1,19.5,0,0-.1,0-.1.1-3.9-6.4-11-10.7-19.1-10.7s-15.1,4.3-19.1,10.7c0,0-.1,0-.1-.1-13.8-7.8-15.3-11.1-29.1-19.5-6.1-3.6-18-10.8-27-11.2-4.1-.2-7.6,1.1-9.7,4.7-1.5,2.6-6.1,7.8-6.1,37.8s4.6,35.2,6.1,37.8c6.7,11.5,27.9-1.2,36.7-6.5,13.9-8.3,15.3-11.7,29.1-19.5,0,0,.1,0,.1-.1,3.9,6.4,11,10.7,19.1,10.7s15.1-4.3,19.1-10.7c0,0,.1,0,.1.1,13.8,7.8,15.3,11.1,29.1,19.5,8.8,5.3,30,18,36.7,6.5,1.5-2.6,6.1-7.8,6.1-37.8-.1-30-4.7-35.2-6.1-37.8Z" />
  <rect
     class="cls-4"
     x="157.6"
     y="302"
     width="627.8"
     height="72"
     id="rect14" />
  <text
     id="text44" />
</svg>
