<svg width="808" height="305" viewBox="0 0 808 305" fill="none" xmlns="http://www.w3.org/2000/svg">
<path d="M111.411 222.745C111.411 222.991 111.411 223.573 111.255 224.3C111.199 224.558 110.718 226.426 109.32 228.049C107.922 229.671 105.82 230.477 103.025 230.477H10.5047C8.2236 230.477 6.37856 229.671 4.98081 228.049C3.50478 226.426 2.76677 224.58 2.76677 222.521C2.76677 221.637 2.94568 220.72 3.31469 219.758C3.60542 218.874 4.16452 218.068 4.96963 217.33L82.4498 143.785C86.4306 139.88 89.5952 135.415 91.9546 130.403C94.2357 125.39 95.3763 120.008 95.3763 114.257C95.3763 108.875 94.3475 103.75 92.2788 98.8833C90.2102 94.0944 87.4147 89.8873 83.8811 86.2733C80.2694 82.7376 76.0761 79.8956 71.279 77.7585C66.4931 75.6998 61.3717 74.6592 55.9149 74.6592C50.4581 74.6592 45.3367 75.6886 40.5508 77.7585C35.6866 79.8956 31.4934 82.7376 27.9487 86.2733C24.3369 89.8873 21.4967 94.0944 19.4392 98.8833C17.3705 103.75 16.3417 108.875 16.3417 114.257C16.3417 117.054 15.5255 119.124 13.9152 120.456C12.2939 121.787 10.5271 122.447 8.61497 122.447C6.70284 122.447 4.96963 121.787 3.41533 120.456C1.79394 119.124 0.988831 117.065 0.988831 114.257C0.988831 106.738 2.43131 99.6553 5.29391 93.0202C8.16769 86.3852 12.1038 80.5669 17.1245 75.5431C22.1452 70.5193 27.8816 66.6926 34.5908 63.8171C41.2217 60.9415 48.3335 59.5093 55.9261 59.5093C63.5187 59.5093 70.5522 60.9527 77.2614 63.8171C83.8923 66.6926 89.707 70.5976 94.7277 75.5431C99.659 80.5558 103.573 86.3852 106.446 93.0202C109.32 99.6553 110.752 106.738 110.752 114.257C110.752 121.776 109.164 129.451 105.999 136.377C102.756 143.382 98.373 149.536 92.8491 154.85L29.5142 215.349H103.014C103.785 215.293 105.149 215.293 106.692 215.897C107.24 216.11 108.303 216.546 109.32 217.553C111.333 219.567 111.422 222.152 111.422 222.756L111.411 222.745Z" fill="#EE2D7B"/>
<path d="M235.643 175.628C235.643 183.416 233.989 189.301 233.306 191.528C233.083 192.266 232.434 194.291 231.338 196.865C228.465 203.578 224.562 209.397 219.62 214.342C214.61 219.355 208.784 223.304 202.153 226.18C195.444 229.056 188.344 230.488 180.818 230.488C173.293 230.488 166.114 229.044 159.483 226.18C152.774 223.383 146.914 219.467 141.905 214.454C136.895 209.363 132.993 203.545 130.186 196.977C127.312 190.42 125.881 183.304 125.881 175.628C125.881 172.898 126.686 170.839 128.307 169.43C129.85 168.031 131.584 167.326 133.507 167.326C135.43 167.326 137.186 167.986 138.807 169.318C140.429 170.716 141.234 172.82 141.234 175.617C141.234 181.144 142.262 186.269 144.331 190.991C146.322 195.78 149.117 199.953 152.729 203.489C156.408 207.181 160.646 210.057 165.443 212.115C170.162 214.253 175.283 215.327 180.807 215.327C186.331 215.327 191.374 214.264 196.171 212.115C200.957 210.057 205.161 207.215 208.773 203.601C212.307 200.065 215.113 195.858 217.171 190.991C219.228 186.202 220.268 181.077 220.268 175.617C220.268 170.157 219.239 165.111 217.171 160.243C215.102 155.455 212.307 151.248 208.773 147.634C205.161 144.098 200.968 141.256 196.171 139.119C191.385 137.06 186.264 136.019 180.807 136.019H141.457C140.574 136.019 139.691 135.796 138.807 135.359C137.846 134.912 137.04 134.33 136.381 133.591C135.643 132.853 135.05 132.003 134.614 131.051C134.167 130.168 133.954 129.25 133.954 128.288V66.9164C133.954 65.9542 134.178 65.0367 134.614 64.1527C135.061 63.2688 135.643 62.452 136.381 61.7247C137.04 61.0646 137.857 60.5052 138.807 60.0688C139.691 59.6995 140.574 59.5205 141.457 59.5205H217.495C220.291 59.5205 222.393 60.259 223.791 61.7359C225.188 63.28 225.893 65.0143 225.893 66.9388C225.893 68.8633 225.188 70.6312 223.791 72.2424C222.393 73.8648 220.291 74.6704 217.495 74.6704H149.083V120.679H180.807C188.321 120.679 195.433 122.112 202.142 124.987C208.773 127.863 214.588 131.768 219.608 136.713C220.022 137.116 221.89 139.007 223.914 141.636C228.442 147.488 230.981 153.396 231.316 154.19C232.68 157.424 235.621 165.267 235.621 175.639L235.643 175.628Z" fill="#EE2D7B"/>
<path d="M697.83 300.296C697.83 300.855 697.629 301.37 697.226 301.84C696.824 302.31 696.209 302.545 695.403 302.545H668.578C667.918 302.545 667.381 302.31 666.979 301.84C666.554 301.37 666.341 300.833 666.341 300.24C666.341 299.982 666.397 299.714 666.498 299.434C666.587 299.177 666.744 298.942 666.979 298.729L689.443 277.403C690.595 276.273 691.512 274.975 692.194 273.52C692.854 272.066 693.189 270.511 693.189 268.843C693.189 267.288 692.887 265.8 692.295 264.39C691.691 263.003 690.886 261.783 689.857 260.731C688.806 259.702 687.587 258.885 686.201 258.259C684.814 257.654 683.327 257.364 681.75 257.364C680.174 257.364 678.686 257.666 677.3 258.259C675.891 258.874 674.672 259.702 673.643 260.731C672.592 261.783 671.776 263.003 671.172 264.39C670.568 265.8 670.277 267.288 670.277 268.843C670.277 269.66 670.043 270.253 669.573 270.645C669.103 271.025 668.589 271.227 668.03 271.227C667.471 271.227 666.968 271.036 666.52 270.645C666.051 270.264 665.816 269.66 665.816 268.843C665.816 266.662 666.23 264.614 667.068 262.69C667.907 260.765 669.047 259.075 670.501 257.621C671.955 256.166 673.621 255.059 675.567 254.219C677.49 253.38 679.547 252.966 681.75 252.966C683.953 252.966 685.988 253.38 687.934 254.219C689.857 255.059 691.546 256.189 692.999 257.621C694.431 259.075 695.56 260.765 696.399 262.69C697.237 264.614 697.651 266.662 697.651 268.843C697.651 271.025 697.193 273.252 696.276 275.255C695.336 277.291 694.062 279.07 692.463 280.614L674.102 298.158H695.415C696.231 298.158 696.835 298.371 697.237 298.796L697.841 300.307L697.83 300.296Z" fill="#EE2F7B" stroke="#EE2F7B" stroke-width="2" stroke-miterlimit="10"/>
<path d="M732.673 287.238C732.673 289.33 732.282 291.311 731.488 293.168C730.672 295.026 729.576 296.659 728.189 298.047C726.803 299.434 725.181 300.531 723.314 301.314C721.458 302.131 719.478 302.533 717.387 302.533C715.296 302.533 713.284 302.131 711.427 301.314C709.571 300.519 707.939 299.434 706.552 298.047C705.143 296.659 704.036 295.037 703.253 293.168C702.437 291.311 702.034 289.33 702.034 287.238V268.832C702.034 266.74 702.437 264.759 703.253 262.902C704.047 261.045 705.143 259.411 706.552 257.99C707.961 256.569 709.56 255.495 711.427 254.689C713.284 253.873 715.274 253.47 717.387 253.47C719.501 253.47 721.458 253.873 723.314 254.689C725.17 255.506 726.803 256.603 728.189 257.99C729.576 259.4 730.683 261.034 731.488 262.902C732.282 264.759 732.673 266.74 732.673 268.832V287.238ZM728.223 268.832C728.223 267.333 727.943 265.923 727.384 264.603C726.803 263.294 726.031 262.141 725.047 261.134C724.063 260.15 722.922 259.366 721.614 258.796C720.283 258.214 718.875 257.934 717.387 257.934C715.9 257.934 714.48 258.225 713.161 258.796C711.83 259.378 710.678 260.15 709.694 261.134C708.71 262.141 707.927 263.294 707.357 264.603C706.776 265.934 706.496 267.344 706.496 268.832V287.238C706.496 288.737 706.787 290.136 707.357 291.434C707.916 292.765 708.677 293.918 709.661 294.903C710.645 295.91 711.796 296.704 713.127 297.275C714.446 297.856 715.878 298.136 717.387 298.136C718.897 298.136 720.261 297.845 721.581 297.275C722.889 296.693 724.029 295.91 725.013 294.903C725.997 293.918 726.78 292.765 727.351 291.434C727.932 290.114 728.212 288.704 728.212 287.238V268.832H728.223Z" fill="#EE2F7B" stroke="#EE2F7B" stroke-width="2" stroke-miterlimit="10"/>
<path d="M768.892 300.296C768.892 300.855 768.69 301.37 768.288 301.84C767.885 302.31 767.27 302.545 766.465 302.545H739.639C738.98 302.545 738.443 302.31 738.04 301.84C737.616 301.37 737.403 300.833 737.403 300.24C737.403 299.982 737.459 299.714 737.56 299.434C737.649 299.177 737.806 298.942 738.04 298.729L760.505 277.403C761.657 276.273 762.574 274.975 763.256 273.52C763.916 272.066 764.251 270.511 764.251 268.843C764.251 267.288 763.949 265.8 763.357 264.39C762.753 263.003 761.948 261.783 760.919 260.731C759.868 259.702 758.649 258.885 757.262 258.259C755.876 257.654 754.389 257.364 752.812 257.364C751.235 257.364 749.748 257.666 748.361 258.259C746.953 258.874 745.734 259.702 744.705 260.731C743.676 261.761 742.838 263.003 742.234 264.39C741.63 265.8 741.339 267.288 741.339 268.843C741.339 269.66 741.104 270.253 740.635 270.645C740.165 271.025 739.651 271.227 739.092 271.227C738.532 271.227 738.029 271.036 737.582 270.645C737.112 270.264 736.878 269.66 736.878 268.843C736.878 266.662 737.291 264.614 738.13 262.69C738.969 260.765 740.109 259.075 741.563 257.621C743.016 256.166 744.683 255.059 746.628 254.219C748.552 253.38 750.609 252.966 752.812 252.966C755.015 252.966 757.05 253.38 758.996 254.219C760.919 255.059 762.607 256.189 764.061 257.621C765.492 259.075 766.622 260.765 767.46 262.69C768.299 264.614 768.713 266.662 768.713 268.843C768.713 271.025 768.254 273.252 767.337 275.255C766.398 277.291 765.123 279.07 763.524 280.614L745.163 298.158H766.476C767.293 298.158 767.896 298.371 768.299 298.796L768.903 300.307L768.892 300.296Z" fill="#EE2F7B" stroke="#EE2F7B" stroke-width="2" stroke-miterlimit="10"/>
<path d="M804.92 286.634C804.92 288.816 804.506 290.863 803.668 292.788C802.829 294.735 801.7 296.424 800.269 297.856C798.815 299.311 797.126 300.452 795.203 301.291C793.257 302.131 791.2 302.545 789.019 302.545C786.839 302.545 784.759 302.131 782.836 301.291C780.89 300.475 779.19 299.345 777.737 297.89C776.283 296.413 775.154 294.723 774.337 292.821C773.499 290.919 773.085 288.86 773.085 286.634C773.085 285.839 773.32 285.246 773.789 284.844C774.237 284.441 774.74 284.239 775.299 284.239C775.858 284.239 776.373 284.43 776.842 284.821C777.312 285.224 777.547 285.839 777.547 286.645C777.547 288.245 777.849 289.733 778.441 291.098C779.023 292.486 779.828 293.694 780.879 294.723C781.952 295.798 783.171 296.626 784.569 297.23C785.933 297.845 787.42 298.158 789.019 298.158C790.618 298.158 792.083 297.845 793.47 297.23C794.856 296.626 796.075 295.809 797.126 294.757C798.177 293.705 798.96 292.508 799.564 291.098C800.157 289.711 800.459 288.223 800.459 286.645C800.459 285.067 800.157 283.602 799.564 282.192C798.96 280.804 798.155 279.585 797.126 278.533C796.075 277.504 794.856 276.687 793.47 276.06C792.083 275.467 790.596 275.165 789.019 275.165H777.614C777.357 275.165 777.099 275.098 776.842 274.975C776.563 274.852 776.328 274.673 776.138 274.46C775.925 274.248 775.757 274.002 775.623 273.722C775.489 273.464 775.433 273.196 775.433 272.916V255.115C775.433 254.835 775.5 254.566 775.623 254.309C775.746 254.052 775.925 253.817 776.138 253.604C776.328 253.414 776.563 253.246 776.842 253.123C777.099 253.022 777.357 252.966 777.614 252.966H799.665C800.481 252.966 801.085 253.179 801.487 253.604C801.89 254.052 802.091 254.555 802.091 255.115C802.091 255.674 801.89 256.189 801.487 256.659C801.085 257.129 800.47 257.364 799.665 257.364H779.828V270.701H789.031C791.211 270.701 793.269 271.115 795.214 271.954C797.138 272.793 798.826 273.923 800.28 275.355C801.711 276.81 802.84 278.5 803.679 280.424L804.931 286.645L804.92 286.634Z" fill="#EE2F7B" stroke="#EE2F7B" stroke-width="2" stroke-miterlimit="10"/>
<mask id="mask0_30_3" style="mask-type:luminance" maskUnits="userSpaceOnUse" x="333" y="176" width="78" height="37">
<path d="M410.474 176.635H333.699V212.462H410.474V176.635Z" fill="white"/>
</mask>
<g mask="url(#mask0_30_3)">
<mask id="mask1_30_3" style="mask-type:luminance" maskUnits="userSpaceOnUse" x="333" y="176" width="78" height="37">
<path d="M410.474 176.635H333.699V212.462H410.474V176.635Z" fill="white"/>
</mask>
<g mask="url(#mask1_30_3)">
<path d="M407.925 178.616C407.041 177.094 405.565 176.568 403.843 176.646C400.042 176.803 395.021 179.824 392.46 181.357C386.601 184.881 386.008 186.291 380.171 189.581C380.16 189.581 380.138 189.603 380.126 189.603C378.46 186.907 375.486 185.094 372.086 185.094C368.687 185.094 365.713 186.895 364.047 189.603C364.035 189.603 364.013 189.581 364.002 189.581C358.165 186.291 357.572 184.881 351.713 181.357C349.163 179.824 344.143 176.803 340.33 176.646C338.596 176.579 337.12 177.094 336.248 178.616C335.622 179.69 333.699 181.894 333.699 194.549C333.699 207.203 335.633 209.408 336.248 210.482C339.055 215.349 348 209.978 351.713 207.74C357.572 204.216 358.165 202.806 364.002 199.517C364.013 199.517 364.035 199.494 364.047 199.483C365.713 202.18 368.687 203.992 372.086 203.992C375.486 203.992 378.46 202.191 380.126 199.483C380.138 199.483 380.16 199.505 380.171 199.505C386.008 202.795 386.612 204.205 392.46 207.729C396.173 209.967 405.107 215.338 407.925 210.471C408.551 209.396 410.474 207.192 410.474 194.537C410.474 181.883 408.54 179.679 407.925 178.604" fill="#EE2D7B"/>
</g>
</g>
<path d="M314.085 132.819C314.085 131.41 314.577 130.19 315.55 129.183C316.534 128.176 317.697 127.672 319.073 127.672C320.448 127.672 321.611 128.176 322.584 129.183C323.557 130.19 324.049 131.398 324.049 132.819V194.526C324.049 204.462 320.638 212.932 313.828 219.937C307.018 226.974 298.8 230.477 289.172 230.477C279.544 230.477 271.303 226.974 264.493 219.937C257.683 212.932 254.273 204.473 254.273 194.526C254.273 184.579 257.683 176.143 264.493 169.116C271.292 162.112 279.522 158.61 289.172 158.61C298.822 158.61 307.007 162.112 313.828 169.116C313.906 169.217 313.996 169.295 314.074 169.385V132.808L314.085 132.819ZM314.085 194.538C314.085 187.433 311.659 181.391 306.806 176.389C301.942 171.388 296.06 168.881 289.183 168.881C282.306 168.881 276.413 171.388 271.549 176.389C266.685 181.391 264.247 187.433 264.247 194.538C264.247 201.643 266.685 207.707 271.549 212.708C276.402 217.699 282.284 220.205 289.183 220.205C296.082 220.205 301.942 217.699 306.806 212.708C311.659 207.707 314.085 201.654 314.085 194.538Z" fill="white"/>
<path d="M479.255 132.819C479.255 131.41 479.747 130.19 480.731 129.183C481.704 128.176 482.867 127.672 484.253 127.672C485.64 127.672 486.792 128.176 487.776 129.183C488.749 130.19 489.229 131.398 489.229 132.819V194.526C489.229 204.462 485.83 212.932 479.009 219.937C472.199 226.974 463.98 230.477 454.342 230.477C444.703 230.477 436.495 226.974 429.674 219.937C422.853 212.932 419.454 204.473 419.454 194.526C419.454 184.579 422.853 176.143 429.674 169.116C436.495 162.112 444.714 158.61 454.342 158.61C463.969 158.61 472.199 162.112 479.009 169.116C479.099 169.217 479.177 169.295 479.266 169.385V132.808L479.255 132.819ZM479.255 194.538C479.255 187.433 476.829 181.391 471.964 176.389C467.111 171.388 461.241 168.881 454.342 168.881C447.442 168.881 441.572 171.388 436.707 176.389C431.854 181.391 429.428 187.433 429.428 194.538C429.428 201.643 431.854 207.707 436.707 212.708C441.572 217.699 447.453 220.205 454.342 220.205C461.23 220.205 467.111 217.699 471.964 212.708C476.829 207.707 479.255 201.654 479.255 194.538Z" fill="white"/>
<path d="M558.972 219.69C551.994 226.896 543.697 230.488 534.058 230.488C524.419 230.488 516.2 226.986 509.391 219.948C502.581 212.943 499.17 204.485 499.17 194.538C499.17 184.591 502.592 176.154 509.391 169.127C516.2 162.123 524.43 158.621 534.058 158.621C543.686 158.621 551.905 162.123 558.726 169.127C565.524 176.154 568.935 184.624 568.935 194.538V225.352C568.935 226.751 568.465 227.97 567.481 228.966C566.475 229.973 565.323 230.477 563.948 230.477C562.572 230.477 561.409 229.973 560.414 228.966C559.43 227.97 558.96 226.751 558.96 225.352V219.69H558.972ZM534.069 168.881C527.181 168.881 521.288 171.388 516.435 176.389C511.593 181.391 509.145 187.433 509.145 194.538C509.145 201.643 511.593 207.707 516.435 212.708C521.288 217.699 527.181 220.205 534.069 220.205C540.957 220.205 546.817 217.699 551.692 212.708C556.556 207.707 558.972 201.654 558.972 194.538C558.972 187.421 556.545 181.391 551.692 176.389C546.817 171.388 540.957 168.881 534.069 168.881Z" fill="white"/>
<path d="M638.711 219.69C638.61 219.78 638.543 219.858 638.431 219.948C631.655 226.986 623.414 230.488 613.775 230.488C604.136 230.488 595.928 226.986 589.118 219.948C582.309 212.943 578.909 204.485 578.909 194.538C578.909 184.591 582.309 176.154 589.118 169.127C595.928 162.123 604.169 158.621 613.775 158.621C623.38 158.621 631.655 162.123 638.431 169.127C645.252 176.154 648.651 184.624 648.651 194.538V230.488C648.651 237.973 646.057 244.474 640.824 249.968C633.533 257.509 624.677 261.269 614.334 261.269C603.99 261.269 595.213 257.52 587.933 249.968C585.238 247.249 583.047 244.272 581.336 241.061C580.855 240.289 580.609 239.394 580.609 238.354C580.609 236.955 581.078 235.747 582.063 234.74C583.013 233.733 584.209 233.229 585.596 233.229C586.983 233.229 588.134 233.732 589.13 234.717C589.554 235.198 589.901 235.702 590.192 236.261C591.444 238.577 593.021 240.714 594.989 242.74C600.345 248.245 606.797 251.008 614.345 251.008C621.893 251.008 628.378 248.245 633.723 242.74C637.045 238.633 638.722 234.527 638.722 230.488V219.69H638.711ZM613.775 168.881C606.909 168.881 601.027 171.388 596.152 176.389C591.31 181.391 588.884 187.433 588.884 194.538C588.884 201.643 591.31 207.707 596.152 212.708C601.027 217.699 606.909 220.205 613.775 220.205C620.64 220.205 626.545 217.699 631.398 212.708C636.273 207.707 638.711 201.654 638.711 194.538C638.711 187.421 636.273 181.391 631.398 176.389C626.545 171.388 620.685 168.881 613.775 168.881Z" fill="white"/>
<path d="M712.702 213.022C714.066 213.022 715.252 213.525 716.236 214.532C717.186 215.539 717.7 216.748 717.7 218.157C717.7 219.567 717.197 220.776 716.269 221.805C709.817 227.59 702.247 230.488 693.514 230.488C683.875 230.488 675.656 226.986 668.857 219.948C662.047 212.943 658.637 204.485 658.637 194.538C658.637 184.591 662.059 176.154 668.857 169.127C675.656 162.123 683.875 158.621 693.514 158.621C703.153 158.621 711.36 162.123 718.17 169.127C724.98 176.154 728.402 184.624 728.402 194.538C728.402 195.97 727.921 197.178 726.948 198.163C725.964 199.17 724.79 199.673 723.414 199.673H669.059C669.953 204.596 672.234 208.938 675.891 212.708C680.755 217.699 686.626 220.205 693.514 220.205C699.731 220.205 705.121 218.169 709.593 214.107C710.499 213.391 711.528 213.022 712.702 213.022ZM717.969 189.402C717.074 184.49 714.804 180.149 711.137 176.389C706.272 171.388 700.402 168.881 693.514 168.881C686.626 168.881 680.755 171.388 675.891 176.389C672.234 180.149 669.953 184.49 669.059 189.402H717.98H717.969Z" fill="white"/>
<path d="M797.037 219.69V225.352C797.037 226.751 797.518 227.97 798.502 228.966C799.497 229.973 800.66 230.477 802.035 230.477C803.411 230.477 804.551 229.973 805.569 228.966C806.553 227.97 807.022 226.751 807.022 225.352V194.538C807.022 194.538 807.022 194.448 807.022 194.403C807.022 194.359 807.022 194.314 807.022 194.269C807.022 184.356 803.601 175.886 796.802 168.859C789.992 161.855 781.762 158.341 772.135 158.341C762.507 158.341 754.288 161.843 747.467 168.859C740.668 175.886 737.258 184.356 737.258 194.269V225.083C737.258 226.482 737.739 227.702 738.711 228.697C739.718 229.704 740.87 230.208 742.245 230.208C743.62 230.208 744.783 229.704 745.779 228.697C746.763 227.702 747.232 226.482 747.232 225.083V194.56H747.243C747.243 194.56 747.243 194.437 747.243 194.37C747.243 194.258 747.243 194.146 747.243 194.034C747.355 187.153 749.793 181.268 754.523 176.389C759.365 171.388 765.258 168.881 772.157 168.881C779.056 168.881 784.904 171.388 789.78 176.389C794.622 181.357 797.037 187.377 797.059 194.426" fill="white"/>
<path d="M322.707 92.4608C322.707 91.2748 320.783 90.5587 316.937 90.3013C313.739 98.4469 310.306 106.38 306.649 114.123C302.993 121.865 300.376 127.18 298.766 130.056C298.442 130.604 298.028 130.951 297.514 131.119C296.999 131.275 296.563 131.242 296.217 131.018C295.411 130.57 295.177 129.977 295.501 129.239C302.579 115.387 308.584 102.385 313.515 90.2006H313.28C312.252 90.2006 308.438 90.4132 301.841 90.8272C291.688 91.4314 285.213 91.7895 282.429 91.8902C276.436 102.117 269.894 114.313 262.782 128.478C262.201 129.664 261.608 130.425 261.004 130.761C260.401 131.096 259.674 131.264 258.846 131.264C257.247 131.264 255.95 130.559 254.955 129.149C254.217 128.03 254.038 127.023 254.429 126.117C255.939 122.268 258.365 117.11 261.709 110.632C265.052 104.153 268.776 97.4958 272.88 90.6258C272.209 90.3685 271.515 90.0216 270.811 89.5629C268.34 87.9964 267.11 86.2174 267.11 84.2257C267.11 82.7488 267.591 81.6299 268.552 80.8579C269.223 80.3096 269.894 80.4103 270.565 81.1488C271.113 81.753 271.191 82.29 270.8 82.7376C270.285 83.3194 270.028 83.8453 270.028 84.3264C270.028 84.9978 270.408 85.6915 271.18 86.4188C271.952 87.1461 273.003 87.7279 274.356 88.1754C276.212 85.132 277.8 82.6145 279.108 80.6229C282.53 75.3305 286.063 70.3179 289.675 65.5738C293.298 60.8296 296.977 56.4212 300.723 52.3484C304.469 48.2756 308.103 45.0308 311.625 42.614C315.148 40.1972 318.212 38.9888 320.806 38.9888C322.215 38.9888 323.389 39.3133 324.317 39.9734C325.245 40.6336 325.927 41.5511 326.363 42.7371C326.799 43.9231 327.09 45.098 327.247 46.2728C327.403 47.4476 327.481 48.7791 327.481 50.2896C327.515 58.4016 324.362 70.7878 318.021 87.4482C318.536 87.4817 319.017 87.5265 319.464 87.5936C320.906 87.851 322.069 88.1866 322.975 88.6006C324.798 89.4622 325.715 90.7825 325.715 92.5391C325.715 93.4007 325.334 94.1727 324.563 94.8441C324.272 95.0678 323.981 95.1797 323.702 95.1797C323.188 95.1797 322.751 95.0007 322.405 94.6538C321.991 94.2398 321.958 93.7923 322.304 93.3112C322.561 93.0538 322.684 92.7629 322.684 92.4496L322.707 92.4608ZM314.589 87.2691H314.689C321.029 71.1458 324.183 59.0842 324.149 51.0617C324.149 48.533 323.858 46.5861 323.288 45.2434C322.807 44.0574 322.148 43.4644 321.32 43.4644C318.592 43.4644 314.466 46.6644 308.919 53.0757C303.373 59.487 296.91 68.5276 289.507 80.1865C288.221 82.2005 286.477 85.0761 284.274 88.7908C288.635 88.6342 294.316 88.3433 301.327 87.9293C309.333 87.4817 313.75 87.2579 314.589 87.2579V87.2691Z" fill="#C1932D"/>
<path d="M388.535 95.3476C389.24 95.9294 389.318 96.6119 388.77 97.4175C387.708 98.928 385.348 101.155 381.681 104.097C378.013 107.051 373.988 109.792 369.615 112.344C365.243 114.895 361.956 116.17 359.742 116.17C358.008 116.17 356.398 115.454 354.889 114.033C353.379 112.612 352.63 110.453 352.63 107.566C352.63 105.037 353.882 100.864 356.376 95.0678C357.561 92.2818 358.254 90.4356 358.445 89.5405C357.449 89.6076 356.365 90.0104 355.179 90.7713C353.994 91.5209 352.909 92.3713 351.914 93.3224C350.919 94.2734 349.756 95.5937 348.403 97.2832C347.061 98.984 345.988 100.394 345.183 101.513C344.378 102.632 343.326 104.153 342.007 106.078C338.675 110.855 336.494 113.753 335.477 114.783L335.186 115.074C334.068 116.193 332.994 116.752 331.965 116.752C331.071 116.752 330.288 116.428 329.606 115.767C328.935 115.107 328.432 114.29 328.119 113.317C327.795 112.344 327.571 111.426 327.426 110.576C327.28 109.725 327.213 108.965 327.213 108.293C327.213 106.078 327.66 103.627 328.555 100.908C329.45 98.2007 330.545 95.728 331.842 93.5014C333.14 91.2748 334.336 89.3615 335.443 87.7614C336.55 86.1614 337.433 85.0202 338.104 84.3488C339.1 83.353 340.173 82.8607 341.325 82.8607C341.873 82.8607 342.387 82.9726 342.868 83.1964C343.449 83.4537 343.93 83.7782 344.31 84.1586C345.753 85.602 345.798 87.4705 344.456 89.7866C344.422 89.8538 344.221 90.2006 343.83 90.8496C338.485 99.5994 335.074 106.559 333.598 111.717C334.906 110.307 337.255 107.264 340.609 102.587C341.917 100.763 342.913 99.398 343.561 98.5028C344.221 97.6077 345.183 96.3434 346.446 94.7322C347.71 93.1098 348.783 91.879 349.667 91.0286C350.55 90.1783 351.568 89.2608 352.742 88.2873C353.905 87.3139 355.034 86.609 356.13 86.195C357.214 85.781 358.288 85.5684 359.35 85.5684C360.949 85.5684 362.19 86.1614 363.051 87.3475C363.913 88.5335 364.349 90.2006 364.349 92.3489C364.349 93.658 364.159 95.0902 363.767 96.6231C363.376 98.156 362.996 99.4091 362.615 100.349C362.235 101.3 361.687 102.564 360.983 104.176C359.507 107.409 358.769 109.658 358.769 110.911C358.769 111.359 358.948 111.717 359.317 111.974C359.686 112.232 360.122 112.355 360.636 112.355C362.783 112.355 365.758 111.18 369.571 108.841C373.384 106.503 376.783 104.086 379.757 101.602C382.732 99.1182 385.013 97.0483 386.578 95.3811C386.869 95.1238 387.182 95.0007 387.54 95.0231C387.887 95.0343 388.211 95.1573 388.502 95.3811L388.535 95.3476Z" fill="#C1932D"/>
<path d="M442.634 95.3476C443.338 95.9294 443.417 96.6119 442.869 97.4175C441.806 98.928 439.447 101.155 435.779 104.097C432.112 107.051 428.086 109.792 423.714 112.344C419.342 114.895 416.054 116.17 413.84 116.17C412.107 116.17 410.497 115.454 408.987 114.033C407.478 112.612 406.728 110.453 406.728 107.566C406.728 105.037 407.981 100.864 410.474 95.0678C411.66 92.2818 412.353 90.4356 412.543 89.5405C411.548 89.6076 410.463 90.0104 409.278 90.7713C408.093 91.5209 407.008 92.3713 406.013 93.3224C405.018 94.2734 403.855 95.5937 402.502 97.2832C401.16 98.984 400.086 100.394 399.281 101.513C398.476 102.632 397.425 104.153 396.105 106.078C392.773 110.855 390.593 113.753 389.575 114.783L389.284 115.074C388.166 116.193 387.093 116.752 386.064 116.752C385.169 116.752 384.387 116.428 383.705 115.767C383.034 115.107 382.542 114.29 382.217 113.317C381.893 112.344 381.669 111.426 381.524 110.576C381.379 109.725 381.312 108.965 381.312 108.293C381.312 106.078 381.759 103.627 382.654 100.908C383.548 98.2007 384.644 95.728 385.941 93.5014C387.238 91.2748 388.435 89.3615 389.542 87.7614C390.649 86.1614 391.532 85.0202 392.203 84.3488C393.198 83.353 394.272 82.8607 395.423 82.8607C395.971 82.8607 396.486 82.9726 396.966 83.1964C397.548 83.4537 398.029 83.7782 398.409 84.1586C399.851 85.602 399.896 87.4705 398.554 89.7866C398.521 89.8538 398.32 90.2006 397.928 90.8496C392.583 99.5994 389.173 106.559 387.697 111.717C389.005 110.307 391.353 107.264 394.708 102.587C396.016 100.763 397 99.398 397.66 98.5028C398.32 97.6077 399.281 96.3434 400.545 94.7322C401.808 93.1098 402.882 91.879 403.765 91.0286C404.649 90.1783 405.666 89.2608 406.84 88.2873C408.003 87.3139 409.133 86.609 410.228 86.195C411.313 85.781 412.387 85.5684 413.449 85.5684C415.048 85.5684 416.289 86.1614 417.15 87.3475C418.011 88.5335 418.447 90.2006 418.447 92.3489C418.447 93.658 418.257 95.0902 417.866 96.6231C417.474 98.156 417.094 99.4091 416.714 100.349C416.334 101.3 415.786 102.564 415.081 104.176C413.605 107.409 412.867 109.658 412.867 110.911C412.867 111.359 413.046 111.717 413.415 111.974C413.784 112.232 414.22 112.355 414.735 112.355C416.882 112.355 419.856 111.18 423.669 108.841C427.482 106.503 430.882 104.086 433.856 101.602C436.83 99.1182 439.112 97.0483 440.677 95.3811C440.968 95.1238 441.281 95.0007 441.639 95.0231C441.985 95.0343 442.31 95.1573 442.6 95.3811L442.634 95.3476Z" fill="#C1932D"/>
<path d="M473.821 95.2469C474.145 95.4706 474.335 95.7727 474.424 96.1644C474.503 96.5448 474.424 96.9476 474.212 97.3616C473.698 98.1 472.725 99.2077 471.282 100.673C469.84 102.15 467.995 103.84 465.736 105.742C463.477 107.644 461.129 109.446 458.669 111.124C456.209 112.802 453.626 114.235 450.886 115.398C448.147 116.573 445.687 117.155 443.506 117.155H443.461C440.901 117.155 438.966 116.181 437.647 114.223C436.528 112.523 435.969 110.218 435.969 107.297C435.969 104.377 436.83 100.875 438.541 96.7686C440.252 92.6622 442.03 89.6971 443.853 87.8733C445.362 86.3628 446.849 85.6132 448.326 85.6132H448.37C449.556 85.6132 450.551 86.016 451.345 86.8104C452.15 87.616 452.552 88.5111 452.575 89.5069C452.586 90.5027 452.194 91.465 451.401 92.3937C450.886 93.0314 450.484 93.5349 450.204 93.9042C449.913 94.2734 449.164 95.3252 447.945 97.0483C446.726 98.7826 445.754 100.315 445.016 101.658C444.278 103.001 443.562 104.601 442.88 106.447C442.187 108.293 441.851 109.882 441.851 111.236C441.851 112.388 442.064 113.16 442.477 113.541C442.857 113.832 443.618 113.977 444.736 113.977C448.001 113.977 452.642 111.795 458.646 107.443C464.651 103.079 469.012 99.1294 471.741 95.5713C472.412 94.7993 473.116 94.6874 473.854 95.2357L473.821 95.2469ZM456.186 83.3754C454.487 83.3754 453.078 82.8159 451.96 81.697C450.808 80.5446 450.226 79.1012 450.226 77.3669C450.226 75.7333 450.808 74.3235 451.982 73.1375C453.145 71.9515 454.554 71.3584 456.186 71.3584C457.819 71.3584 459.306 71.985 460.458 73.2382C461.543 74.3907 462.091 75.7669 462.091 77.3781C462.091 79.0788 461.531 80.4998 460.413 81.6523C459.295 82.8047 457.897 83.3866 456.231 83.3866H456.186V83.3754Z" fill="#C1932D"/>
<path d="M521.724 95.5825C522.049 96.4217 521.769 97.0371 520.908 97.4623C518.504 98.5252 515.843 99.0511 512.935 99.0511H512.835C509.983 99.0511 507.512 98.6707 505.432 97.8986C503.352 97.1266 501.876 96.2874 501.015 95.3699C500.154 94.4524 499.573 93.5237 499.282 92.5615C497.94 94.6091 496.509 96.6567 495.011 98.693C493.501 100.729 491.701 102.99 489.576 105.474C487.463 107.957 485.428 110.117 483.471 111.963C481.514 113.809 479.467 115.365 477.321 116.651C475.174 117.938 473.25 118.576 471.551 118.576C469.851 118.576 468.42 117.871 467.346 116.461C466.273 115.051 465.736 113.205 465.736 110.934C465.736 108.662 466.183 106.19 467.078 103.437C467.972 100.685 469.091 98.1224 470.421 95.7727C471.752 93.4119 473.06 91.3307 474.335 89.4957C475.621 87.6719 476.717 86.2957 477.645 85.3558C478.573 84.4159 479.568 84.0131 480.72 84.0131C481.872 84.0131 482.912 84.4271 483.75 85.2663C484.522 86.0383 484.936 86.9446 485.003 88.0076C485.07 89.0705 484.745 90.0552 484.041 90.9839C481.547 94.5084 478.908 98.6483 476.135 103.415C473.362 108.17 471.976 111.56 471.976 113.586C471.976 114.033 472.099 114.257 472.356 114.257C476.068 114.257 481.29 110.352 488.022 102.531C490.515 99.6105 492.864 96.6007 495.033 93.4902C497.213 90.3797 498.689 88.03 499.45 86.4188C499.83 85.6467 500.456 85.4789 501.328 85.8929C501.709 86.0831 501.977 86.374 502.122 86.7544C502.268 87.1349 502.223 87.6384 501.999 88.2426C501.932 88.3097 501.887 88.3656 501.854 88.4328C501.753 88.6901 501.709 89.2384 501.709 90.0664V90.2118C501.709 91.8118 502.625 93.1769 504.448 94.2958C506.461 95.5489 509.301 96.1755 512.958 96.1755C514.59 96.1755 516.704 95.7615 519.298 94.9224C519.365 94.9224 519.454 94.8888 519.589 94.8217C519.723 94.7545 519.812 94.721 519.879 94.721C520.293 94.5979 520.673 94.6203 521.009 94.7881C521.344 94.9671 521.579 95.2245 521.702 95.5825H521.724Z" fill="#C1932D"/>
<path d="M567.079 94.8217C567.716 95.493 567.66 96.2203 566.889 96.9811C565.826 98.0105 564.417 99.2301 562.662 100.64C560.895 102.05 558.591 103.728 555.74 105.664C552.889 107.599 550.004 109.356 547.096 110.934C544.178 112.5 541.013 113.854 537.603 114.973C534.192 116.092 531.061 116.651 528.21 116.651H528.165C525.694 116.651 523.514 116.304 521.601 115.588C519.689 114.883 518.213 113.955 517.162 112.802C516.111 111.65 515.317 110.408 514.803 109.076C514.288 107.745 514.031 106.357 514.031 104.914C514.031 101.714 515.194 98.5028 517.52 95.3028C519.846 92.1028 522.675 89.5069 526.029 87.5377C529.373 85.5684 532.537 84.5838 535.523 84.5838H535.568C538.095 84.5838 540.219 85.1992 541.93 86.43C543.641 87.6607 544.502 89.1936 544.502 91.0174C544.502 94.4524 542.713 97.5853 539.146 100.416C535.579 103.258 531.609 104.668 527.259 104.668C525.303 104.668 523.737 104.455 522.552 104.041C522.037 105.16 521.78 106.178 521.78 107.074C521.78 108.618 522.585 109.893 524.184 110.923C525.884 111.986 528.076 112.511 530.771 112.511C533.298 112.511 536.16 111.93 539.347 110.755C542.534 109.58 545.43 108.26 548.024 106.794C550.619 105.317 553.269 103.616 555.975 101.703C558.681 99.7784 560.649 98.3126 561.89 97.3056C563.12 96.2986 564.16 95.4259 564.988 94.6874C565.368 94.3965 565.759 94.2734 566.139 94.3294C566.52 94.3853 566.844 94.542 567.101 94.8329L567.079 94.8217ZM539.213 89.9657C537.48 89.9657 535.02 91.1517 531.811 93.5238C528.601 95.8958 526.041 98.4581 524.117 101.222C525.079 101.446 526.074 101.557 527.092 101.557C530.547 101.557 533.79 100.394 536.798 98.0665C539.806 95.7392 541.315 93.5685 541.315 91.5545C541.315 91.1405 541.08 90.7713 540.622 90.4468C540.152 90.1223 539.683 89.9657 539.202 89.9657H539.213Z" fill="#C1932D"/>
<path d="M611.002 95.3475C611.449 96.0525 611.348 96.6567 610.711 97.1713C604.181 101.815 598.523 104.142 593.748 104.142H593.703C591.332 104.142 589.376 103.504 587.844 102.218C586.144 100.808 585.294 98.8161 585.294 96.2538C585.294 94.6203 585.708 92.83 586.547 90.872C586.647 90.6818 586.725 90.4915 586.781 90.2901C585.719 90.5811 584.422 91.409 582.868 92.7853C581.313 94.1615 579.871 95.6161 578.54 97.1378C577.21 98.6595 575.644 100.606 573.855 102.978C572.066 105.35 570.735 107.13 569.897 108.316C569.047 109.502 567.996 111.012 566.754 112.836C565.692 114.346 565.155 115.107 565.122 115.141C564.004 116.26 563.087 116.819 562.382 116.819C561.454 116.819 560.671 116.271 560.023 115.186C559.285 114 558.916 112.523 558.916 110.766C558.916 106.917 560.079 102.542 562.405 97.6413C564.73 92.7405 567.313 88.8468 570.165 85.96C571.574 84.5502 572.949 83.8453 574.302 83.8453C575.331 83.8453 576.27 84.2817 577.142 85.1432C577.88 85.8817 578.261 86.7992 578.272 87.8845C578.283 88.9698 577.948 90.0216 577.243 91.0062L576.863 91.4874C571.35 98.8273 567.794 104.5 566.195 108.506C576.315 93.5349 583.841 86.0495 588.783 86.0495C589.935 86.0495 590.852 86.5307 591.523 87.4929C592.126 88.3545 592.439 89.4286 592.439 90.7153C592.439 91.1964 592.261 92.2035 591.914 93.7475C591.534 95.3475 591.332 96.6343 591.332 97.5965C591.332 98.9056 591.567 99.8567 592.048 100.439C592.428 100.92 593.133 101.155 594.162 101.155C597.203 101.155 602.022 99.1518 608.62 95.1461C608.687 95.079 608.776 95.0231 608.888 94.9783C609 94.9336 609.067 94.8888 609.101 94.8552C609.906 94.4412 610.543 94.5979 611.024 95.3364L611.002 95.3475Z" fill="#C1932D"/>
<path d="M654.958 94.5308C655.439 94.4972 655.819 94.6427 656.11 94.9671C656.401 95.2916 656.557 95.6385 656.591 96.0301C656.624 96.3881 656.524 96.7126 656.278 97.0147C656.043 97.3168 655.674 97.4847 655.193 97.5182C646.348 98.0665 636.195 100.562 624.733 105.015C625.986 107.062 626.612 108.976 626.612 110.732C626.612 114.615 625.158 117.96 622.24 120.78C619.131 123.734 615.228 125.2 610.521 125.2H610.476C607.211 125.2 604.628 124.573 602.738 123.32C600.949 122.134 600.043 120.567 600.043 118.609C600.043 116.651 601.385 114.649 604.058 112.411C606.73 110.173 610.554 107.89 615.519 105.585C615.419 105.485 615.251 105.362 615.016 105.205C614.781 105.048 614.625 104.948 614.558 104.914C613.529 104.209 612.735 103.627 612.176 103.157C611.617 102.688 610.968 102.061 610.23 101.255C609.492 100.45 608.944 99.577 608.597 98.6147C608.251 97.6525 608.072 96.6007 608.072 95.4371C608.072 92.237 609.637 89.3503 612.78 86.788C615.922 84.2257 619.992 82.9278 624.979 82.8943H625.024C628.356 82.8943 631.096 83.4873 633.243 84.6733C635.39 85.8593 636.463 87.381 636.463 89.2384C636.463 90.2342 636.105 91.2076 635.401 92.1699C634.696 93.1321 634.081 93.8147 633.556 94.2175C633.03 94.6203 632.639 94.8776 632.382 95.0119C631.543 95.3923 630.894 95.2245 630.414 94.486C630 93.8147 630.078 93.2552 630.648 92.8077C631.454 92.2258 632.046 91.7 632.426 91.2188C632.807 90.7377 633.008 90.1559 633.008 89.4845C633.008 89.1601 632.672 88.8468 632.001 88.5223C631.331 88.1978 630.458 88.0412 629.407 88.0412C626.914 88.0412 624.275 88.9922 621.502 90.9055C618.728 92.8077 617.04 94.3294 616.436 95.4483C616.66 95.8063 617.409 96.6231 618.695 97.8986C620.741 99.9462 622.172 101.468 622.966 102.464C628.569 100.315 634.294 98.5252 640.12 97.0818C645.945 95.6385 650.899 94.7881 654.969 94.5308H654.958ZM615.027 117.222C617.778 115.174 619.165 112.959 619.165 110.587C619.165 109.625 618.796 108.696 618.057 107.801C613.641 109.815 610.085 111.773 607.39 113.664C604.695 115.555 603.353 117.121 603.353 118.374C603.353 118.923 603.767 119.348 604.583 119.672C605.399 119.997 606.339 120.153 607.39 120.153H607.435C609.872 120.153 612.399 119.18 615.027 117.222Z" fill="#C1932D"/>
<path d="M707.379 94.9112C707.502 95.3923 707.413 95.8287 707.089 96.2091C705.579 97.7755 704.036 99.3308 702.448 100.853C700.86 102.374 698.836 104.176 696.365 106.257C693.894 108.338 691.523 110.139 689.253 111.661C686.983 113.183 684.546 114.492 681.951 115.577C679.357 116.662 677.02 117.211 674.94 117.211C672.346 117.211 670.456 116.181 669.271 114.134C668.242 112.366 667.728 110.016 667.728 107.062C667.728 107.029 667.728 106.95 667.75 106.827C667.761 106.704 667.773 106.615 667.773 106.592C667.102 107.331 666.341 108.26 665.514 109.378C664.485 110.688 663.658 111.706 663.02 112.433C662.383 113.149 661.5 114.022 660.381 115.029C659.263 116.036 658.111 116.786 656.926 117.267C655.741 117.748 654.477 117.983 653.135 117.983C650.899 117.983 649.121 117.088 647.802 115.286C646.583 113.619 645.979 111.549 645.979 109.088C645.979 106.626 646.683 104.03 648.092 101.322C649.501 98.6147 651.234 96.2315 653.303 94.1615C655.372 92.0916 657.642 90.3796 660.124 89.0146C662.607 87.6495 664.854 86.967 666.878 86.967C669.349 86.967 671.664 87.974 673.844 89.9992C674.426 89.2272 674.907 88.6342 675.287 88.2202C676.987 86.5195 678.552 85.6691 679.995 85.6691C680.576 85.6691 681.113 85.7698 681.627 85.96C682.142 86.1502 682.6 86.4523 683.025 86.8775C683.796 87.6495 684.199 88.5111 684.255 89.4733C684.311 90.4356 683.987 91.3195 683.316 92.1139C676.752 100.315 673.464 106.682 673.464 111.202C673.464 112.131 673.643 112.769 674.012 113.104C674.381 113.44 675.063 113.608 676.059 113.608H676.103C678.407 113.608 681.504 112.433 685.396 110.095C689.287 107.756 692.91 105.16 696.276 102.307C699.641 99.4539 702.426 96.8133 704.64 94.3741C705.054 93.9265 705.568 93.7475 706.183 93.8482C706.764 93.9489 707.156 94.2958 707.379 94.9112ZM668.466 102.173C669.237 99.0958 670.423 96.0301 672.022 92.9867C671.541 92.7629 670.948 92.651 670.244 92.651C667.996 92.651 665.547 93.8258 662.864 96.1867C660.191 98.5476 657.988 101.222 656.255 104.243C654.522 107.253 653.661 109.759 653.661 111.739C653.661 112.321 653.773 112.713 653.996 112.914C654.22 113.127 654.578 113.227 655.059 113.227C656.121 113.227 657.34 112.746 658.738 111.784C660.135 110.822 661.265 109.882 662.148 108.942C663.031 108.013 664.138 106.783 665.492 105.239C667.035 103.504 668.019 102.486 668.466 102.162V102.173Z" fill="#C1932D"/>
<path d="M750.956 95.3475C751.403 96.0525 751.302 96.6567 750.665 97.1713C744.135 101.815 738.477 104.142 733.702 104.142H733.657C731.287 104.142 729.33 103.504 727.798 102.218C726.098 100.808 725.248 98.8161 725.248 96.2538C725.248 94.6203 725.662 92.83 726.501 90.872C726.601 90.6818 726.68 90.4915 726.736 90.2901C725.673 90.5811 724.376 91.409 722.822 92.7853C721.268 94.1615 719.825 95.6161 718.494 97.1378C717.164 98.6595 715.598 100.606 713.809 102.978C712.02 105.35 710.689 107.13 709.851 108.316C709.001 109.502 707.95 111.012 706.708 112.836C705.646 114.346 705.109 115.107 705.076 115.141C703.958 116.26 703.041 116.819 702.336 116.819C701.408 116.819 700.626 116.271 699.977 115.186C699.239 114 698.87 112.523 698.87 110.766C698.87 106.917 700.033 102.542 702.359 97.6413C704.685 92.7405 707.268 88.8468 710.119 85.96C711.528 84.5502 712.903 83.8453 714.256 83.8453C715.285 83.8453 716.224 84.2817 717.097 85.1432C717.835 85.8817 718.215 86.7992 718.226 87.8845C718.237 88.9698 717.902 90.0216 717.197 91.0062L716.817 91.4874C711.304 98.8273 707.748 104.5 706.149 108.506C716.269 93.5349 723.795 86.0495 728.737 86.0495C729.889 86.0495 730.806 86.5307 731.477 87.4929C732.081 88.3545 732.394 89.4286 732.394 90.7153C732.394 91.1964 732.215 92.2035 731.868 93.7475C731.488 95.3475 731.287 96.6343 731.287 97.5965C731.287 98.9056 731.521 99.8567 732.002 100.439C732.382 100.92 733.087 101.155 734.116 101.155C737.157 101.155 741.977 99.1518 748.574 95.1461C748.641 95.079 748.731 95.0231 748.842 94.9783C748.954 94.9336 749.021 94.8888 749.055 94.8552C749.86 94.4412 750.497 94.5979 750.978 95.3364L750.956 95.3475Z" fill="#C1932D"/>
<path d="M803.858 94.5755C804.629 95.0566 804.786 95.6832 804.339 96.4553C803.478 97.8651 801.845 99.8119 799.463 102.296C797.082 104.78 794.264 107.42 791.032 110.229C787.801 113.037 784.144 115.667 780.074 118.139C776.003 120.612 772.224 122.302 768.735 123.23C768.512 123.644 767.483 125.479 765.66 128.713C763.837 131.947 762.115 134.833 760.494 137.362C758.873 139.891 756.994 142.576 754.847 145.418C752.7 148.26 750.643 150.621 748.675 152.512C746.707 154.403 744.56 155.969 742.234 157.222C739.908 158.476 737.66 159.102 735.48 159.102H735.435C730.47 159.102 727.988 157.178 727.988 153.329C727.988 150.543 729.084 147.275 731.275 143.55C733.467 139.812 736.509 136.042 740.378 132.226C744.001 128.668 747.601 125.804 751.191 123.644C754.78 121.485 757.754 120.388 760.125 120.355C763.301 114.425 766.286 108.562 769.082 102.755C771.889 96.9588 773.946 92.5615 775.254 89.5852C774.192 90.2566 771.81 93.0762 768.098 98.0441C767.997 98.1672 767.93 98.2791 767.885 98.3574C767.841 98.4357 767.762 98.5364 767.673 98.6483C767.572 98.7602 767.494 98.8609 767.438 98.9616C765.358 101.748 763.759 103.851 762.652 105.261C761.545 106.671 760.058 108.439 758.179 110.576C756.301 112.713 754.635 114.257 753.159 115.242C751.683 116.215 750.341 116.707 749.122 116.707H749.077C747.411 116.707 745.924 115.879 744.604 114.212C743.195 112.444 742.491 110.33 742.491 107.868C742.491 104.981 743.509 101.804 745.544 98.3238C747.579 94.844 749.961 91.7447 752.678 89.0258C754.087 87.616 755.496 86.9111 756.905 86.9111C758.157 86.9111 759.163 87.2915 759.935 88.0635C760.897 89.0258 761.377 90.0552 761.377 91.1405C761.377 92.3265 760.796 93.479 759.644 94.5979C757.05 97.0706 754.791 99.9798 752.868 103.348C750.945 106.716 749.972 109.725 749.938 112.388C751.604 112.288 753.561 111.09 755.798 108.785C758.034 106.481 760.494 103.527 763.144 99.935C763.401 99.5882 763.849 98.9616 764.486 98.0553C765.123 97.1602 765.627 96.4664 765.973 95.9853C767.192 94.251 768.12 92.9643 768.758 92.1139C769.395 91.2636 770.211 90.279 771.184 89.1601C772.157 88.0412 773.063 87.2467 773.879 86.7768C774.695 86.3069 775.523 86.0831 776.35 86.0831C777.435 86.0831 778.273 86.609 778.844 87.6719C779.414 88.7349 779.705 90.2566 779.705 92.237C779.705 98.6819 776.663 107.834 770.58 119.695C774.069 118.509 778.106 116.282 782.69 113.015C787.275 109.748 791.278 106.447 794.722 103.135C798.166 99.8231 800.593 97.1042 802.002 94.9895C802.415 94.2846 803.03 94.1615 803.824 94.6091L803.858 94.5755ZM733.523 155.925C738.365 155.925 746.707 145.06 758.56 123.331C756.826 123.454 754.4 124.618 751.258 126.789C748.116 128.97 745.04 131.555 742.033 134.554C739.025 137.552 736.408 140.808 734.205 144.31C732.002 147.813 730.895 150.789 730.895 153.228C730.895 154.034 731.186 154.683 731.756 155.197C732.304 155.678 732.897 155.913 733.534 155.913L733.523 155.925Z" fill="#C1932D"/>
<path d="M232.647 93.8595C232.647 94.1393 232.546 94.4078 232.356 94.6428C232.166 94.8777 231.864 95.0008 231.45 95.0008H225.882V102.855C225.882 103.594 226.027 104.299 226.307 104.959C226.575 105.619 226.966 106.19 227.458 106.682C227.961 107.174 228.543 107.566 229.191 107.857C229.84 108.148 230.556 108.304 231.316 108.304C231.719 108.304 232.021 108.416 232.222 108.651C232.423 108.886 232.513 109.144 232.513 109.401C232.513 109.681 232.412 109.949 232.222 110.184C232.032 110.419 231.73 110.542 231.316 110.542C230.231 110.542 229.225 110.341 228.297 109.938C227.369 109.535 226.564 108.987 225.87 108.304C225.177 107.622 224.607 106.772 224.204 105.843C223.802 104.914 223.6 103.918 223.6 102.855V86.307C223.6 85.9042 223.723 85.6021 223.958 85.4007C224.193 85.1993 224.439 85.1098 224.73 85.1098C225.021 85.1098 225.278 85.2105 225.513 85.4007C225.747 85.5909 225.87 85.893 225.87 86.307V92.763H231.439C231.842 92.763 232.144 92.8749 232.345 93.0875L232.636 93.8595H232.647Z" fill="#EE2D7B" stroke="#EE2F7B" stroke-miterlimit="10"/>
<path d="M252.003 109.39C252.003 109.815 251.88 110.117 251.645 110.307C251.41 110.509 251.142 110.598 250.862 110.598C250.583 110.598 250.325 110.497 250.079 110.307C249.845 110.117 249.722 109.815 249.722 109.39V100.506C249.722 99.756 249.576 99.0399 249.297 98.3574C249.017 97.686 248.626 97.1042 248.134 96.6007C247.631 96.1084 247.049 95.7168 246.401 95.4259C245.73 95.1461 245.025 95.0007 244.276 95.0007C243.527 95.0007 242.811 95.1461 242.151 95.4259C241.469 95.7168 240.888 96.1196 240.396 96.6007C239.904 97.0818 239.501 97.686 239.222 98.3574C238.931 99.0399 238.774 99.756 238.774 100.506V109.39C238.774 109.815 238.651 110.117 238.417 110.307C238.182 110.509 237.913 110.598 237.634 110.598C237.354 110.598 237.097 110.497 236.862 110.307C236.628 110.117 236.505 109.815 236.505 109.39V86.2957C236.505 85.8929 236.628 85.5908 236.862 85.3894C237.097 85.188 237.343 85.0985 237.634 85.0985C237.925 85.0985 238.182 85.1992 238.417 85.3894C238.651 85.5796 238.774 85.8817 238.774 86.2957V95.0343C239.49 94.2958 240.329 93.7251 241.279 93.3335C242.23 92.9531 243.225 92.7629 244.276 92.7629C245.327 92.7629 246.345 92.9643 247.295 93.3671C248.234 93.7811 249.051 94.3405 249.755 95.0343C250.449 95.728 250.996 96.556 251.41 97.4958C251.813 98.4469 252.014 99.4539 252.014 100.517V109.401L252.003 109.39Z" fill="#EE2D7B" stroke="#EE2F7B" stroke-miterlimit="10"/>
</svg>
