<?xml version="1.0" encoding="UTF-8"?>
<svg id="Layer_1" data-name="Layer 1" xmlns="http://www.w3.org/2000/svg" xmlns:xlink="http://www.w3.org/1999/xlink" viewBox="0 0 720.85 269.73">
  <defs>
    <style>
      .cls-1 {
        fill: #c1932d;
      }

      .cls-2 {
        fill: #ee2d7b;
      }

      .cls-3 {
        fill: #fff;
      }

      .cls-4 {
        fill: none;
      }

      .cls-5 {
        clip-path: url(#clippath-1);
      }

      .cls-6 {
        fill: #ee2f7b;
        stroke: #ee2f7b;
        stroke-miterlimit: 10;
        stroke-width: 2px;
      }

      .cls-7 {
        clip-path: url(#clippath);
      }
    </style>
    <clipPath id="clippath">
      <rect class="cls-4" x="297.53" y="156.21" width="68.66" height="32.02"/>
    </clipPath>
    <clipPath id="clippath-1">
      <rect class="cls-4" x="297.53" y="156.21" width="68.66" height="32.02"/>
    </clipPath>
  </defs>
  <g>
    <path class="cls-2" d="M98.74,197.42c0,.22,0,.74-.14,1.39-.05.23-.48,1.9-1.73,3.35-1.25,1.45-3.13,2.17-5.63,2.17H8.5c-2.04,0-3.69-.72-4.94-2.17-1.32-1.45-1.98-3.1-1.98-4.94,0-.79.16-1.61.49-2.47.26-.79.76-1.51,1.48-2.17l69.29-65.73c3.56-3.49,6.39-7.48,8.5-11.96,2.04-4.48,3.06-9.29,3.06-14.43,0-4.81-.92-9.39-2.77-13.74-1.85-4.28-4.35-8.04-7.51-11.27-3.23-3.16-6.98-5.7-11.27-7.61-4.28-1.84-8.86-2.77-13.74-2.77s-9.46.92-13.74,2.77c-4.35,1.91-8.1,4.45-11.27,7.61-3.23,3.23-5.77,6.99-7.61,11.27-1.85,4.35-2.77,8.93-2.77,13.74,0,2.5-.73,4.35-2.17,5.54-1.45,1.19-3.03,1.78-4.74,1.78s-3.26-.59-4.65-1.78c-1.45-1.19-2.17-3.03-2.17-5.54,0-6.72,1.29-13.05,3.85-18.98,2.57-5.93,6.09-11.13,10.58-15.62s9.62-7.91,15.62-10.48c5.93-2.57,12.29-3.85,19.08-3.85s13.08,1.29,19.08,3.85c5.93,2.57,11.13,6.06,15.62,10.48,4.41,4.48,7.91,9.69,10.48,15.62,2.57,5.93,3.85,12.26,3.85,18.98s-1.42,13.58-4.25,19.77c-2.9,6.26-6.82,11.76-11.76,16.51l-56.64,54.07h65.73c.69-.05,1.91-.05,3.29.49.49.19,1.44.58,2.35,1.48,1.8,1.8,1.88,4.11,1.88,4.65Z"/>
    <path class="cls-2" d="M209.84,155.31c0,6.96-1.48,12.22-2.09,14.21-.2.66-.78,2.47-1.76,4.77-2.57,6-6.06,11.2-10.48,15.62-4.48,4.48-9.69,8.01-15.62,10.58-6,2.57-12.35,3.85-19.08,3.85s-13.15-1.29-19.08-3.85c-6-2.5-11.24-6-15.72-10.48-4.48-4.55-7.97-9.75-10.48-15.62-2.57-5.86-3.85-12.22-3.85-19.08,0-2.44.72-4.28,2.17-5.54,1.38-1.25,2.93-1.88,4.65-1.88s3.29.59,4.74,1.78c1.45,1.25,2.17,3.13,2.17,5.63,0,4.94.92,9.52,2.77,13.74,1.78,4.28,4.28,8.01,7.51,11.17,3.29,3.3,7.08,5.87,11.37,7.71,4.22,1.91,8.8,2.87,13.74,2.87s9.45-.95,13.74-2.87c4.28-1.84,8.04-4.38,11.27-7.61,3.16-3.16,5.67-6.92,7.51-11.27,1.84-4.28,2.77-8.86,2.77-13.74s-.92-9.39-2.77-13.74c-1.85-4.28-4.35-8.04-7.51-11.27-3.23-3.16-6.98-5.7-11.27-7.61-4.28-1.84-8.86-2.77-13.74-2.77h-35.19c-.79,0-1.58-.2-2.37-.59-.86-.4-1.58-.92-2.17-1.58-.66-.66-1.19-1.42-1.58-2.27-.4-.79-.59-1.61-.59-2.47v-54.86c0-.86.2-1.68.59-2.47.4-.79.92-1.52,1.58-2.17.59-.59,1.32-1.09,2.17-1.48.79-.33,1.58-.49,2.37-.49h68c2.5,0,4.38.66,5.63,1.98,1.25,1.38,1.88,2.93,1.88,4.65s-.63,3.3-1.88,4.74c-1.25,1.45-3.13,2.17-5.63,2.17h-61.18v41.12h28.37c6.72,0,13.08,1.28,19.08,3.85,5.93,2.57,11.13,6.06,15.62,10.48.37.36,2.04,2.05,3.85,4.4,4.05,5.23,6.32,10.51,6.62,11.22,1.22,2.89,3.85,9.9,3.85,19.17Z"/>
  </g>
  <g>
    <path class="cls-6" d="M623.17,266.73c0,.5-.18.96-.54,1.38-.36.42-.91.63-1.63.63h-23.99c-.59,0-1.07-.21-1.43-.63-.38-.42-.57-.9-.57-1.43,0-.23.05-.47.14-.72.08-.23.22-.44.43-.63l20.09-19.06c1.03-1.01,1.85-2.17,2.46-3.47.59-1.3.89-2.69.89-4.18,0-1.39-.27-2.72-.8-3.98-.54-1.24-1.26-2.33-2.18-3.27-.94-.92-2.03-1.65-3.27-2.21-1.24-.54-2.57-.8-3.98-.8s-2.74.27-3.98.8c-1.26.55-2.35,1.29-3.27,2.21-.94.94-1.67,2.03-2.21,3.27-.54,1.26-.8,2.59-.8,3.98,0,.73-.21,1.26-.63,1.61-.42.34-.88.52-1.38.52s-.95-.17-1.35-.52c-.42-.34-.63-.88-.63-1.61,0-1.95.37-3.78,1.12-5.5s1.77-3.23,3.07-4.53,2.79-2.29,4.53-3.04c1.72-.75,3.56-1.12,5.53-1.12s3.79.37,5.53,1.12c1.72.75,3.23,1.76,4.53,3.04,1.28,1.3,2.29,2.81,3.04,4.53.75,1.72,1.12,3.55,1.12,5.5s-.41,3.94-1.23,5.73c-.84,1.82-1.98,3.41-3.41,4.79l-16.42,15.68h19.06c.73,0,1.27.19,1.63.57l.54,1.35Z"/>
    <path class="cls-6" d="M654.33,255.06c0,1.87-.35,3.64-1.06,5.3-.73,1.66-1.71,3.12-2.95,4.36s-2.69,2.22-4.36,2.92c-1.66.73-3.43,1.09-5.3,1.09s-3.67-.36-5.33-1.09c-1.66-.71-3.12-1.68-4.36-2.92-1.26-1.24-2.25-2.69-2.95-4.36-.73-1.66-1.09-3.43-1.09-5.3v-16.45c0-1.87.36-3.64,1.09-5.3.71-1.66,1.69-3.12,2.95-4.39s2.69-2.23,4.36-2.95c1.66-.73,3.44-1.09,5.33-1.09s3.64.36,5.3,1.09c1.66.73,3.12,1.71,4.36,2.95,1.24,1.26,2.23,2.72,2.95,4.39.71,1.66,1.06,3.43,1.06,5.3v16.45ZM650.35,238.61c0-1.34-.25-2.6-.75-3.78-.52-1.17-1.21-2.2-2.09-3.1-.88-.88-1.9-1.58-3.07-2.09-1.19-.52-2.45-.77-3.78-.77s-2.6.26-3.78.77c-1.19.52-2.22,1.21-3.1,2.09-.88.9-1.58,1.93-2.09,3.1-.52,1.19-.77,2.45-.77,3.78v16.45c0,1.34.26,2.59.77,3.75.5,1.19,1.18,2.22,2.06,3.1.88.9,1.91,1.61,3.1,2.12,1.18.52,2.46.77,3.81.77s2.57-.26,3.75-.77c1.17-.52,2.19-1.22,3.07-2.12.88-.88,1.58-1.91,2.09-3.1.52-1.18.77-2.44.77-3.75v-16.45Z"/>
    <path class="cls-6" d="M686.72,266.73c0,.5-.18.96-.54,1.38-.36.42-.91.63-1.63.63h-23.99c-.59,0-1.07-.21-1.43-.63-.38-.42-.57-.9-.57-1.43,0-.23.05-.47.14-.72.08-.23.22-.44.43-.63l20.09-19.06c1.03-1.01,1.85-2.17,2.46-3.47.59-1.3.89-2.69.89-4.18,0-1.39-.27-2.72-.8-3.98-.54-1.24-1.26-2.33-2.18-3.27-.94-.92-2.03-1.65-3.27-2.21-1.24-.54-2.57-.8-3.98-.8s-2.74.27-3.98.8c-1.26.55-2.35,1.29-3.27,2.21s-1.67,2.03-2.21,3.27c-.54,1.26-.8,2.59-.8,3.98,0,.73-.21,1.26-.63,1.61-.42.34-.88.52-1.38.52s-.95-.17-1.35-.52c-.42-.34-.63-.88-.63-1.61,0-1.95.37-3.78,1.12-5.5s1.77-3.23,3.07-4.53,2.79-2.29,4.53-3.04c1.72-.75,3.56-1.12,5.53-1.12s3.79.37,5.53,1.12c1.72.75,3.23,1.76,4.53,3.04,1.28,1.3,2.29,2.81,3.04,4.53s1.12,3.55,1.12,5.5-.41,3.94-1.23,5.73c-.84,1.82-1.98,3.41-3.41,4.79l-16.42,15.68h19.06c.73,0,1.27.19,1.63.57l.54,1.35Z"/>
    <path class="cls-6" d="M718.94,254.52c0,1.95-.37,3.78-1.12,5.5-.75,1.74-1.76,3.25-3.04,4.53-1.3,1.3-2.81,2.32-4.53,3.07-1.74.75-3.58,1.12-5.53,1.12s-3.81-.37-5.53-1.12c-1.74-.73-3.26-1.74-4.56-3.04-1.3-1.32-2.31-2.83-3.04-4.53-.75-1.7-1.12-3.54-1.12-5.53,0-.71.21-1.24.63-1.6.4-.36.85-.54,1.35-.54s.96.17,1.38.52c.42.36.63.91.63,1.63,0,1.43.27,2.76.8,3.98.52,1.24,1.24,2.32,2.18,3.24.96.96,2.05,1.7,3.3,2.24,1.22.55,2.55.83,3.98.83s2.74-.28,3.98-.83c1.24-.54,2.33-1.27,3.27-2.21s1.64-2.01,2.18-3.27c.53-1.24.8-2.57.8-3.98s-.27-2.72-.8-3.98c-.54-1.24-1.26-2.33-2.18-3.27-.94-.92-2.03-1.65-3.27-2.21-1.24-.53-2.57-.8-3.98-.8h-10.2c-.23,0-.46-.06-.69-.17-.25-.11-.46-.27-.63-.46-.19-.19-.34-.41-.46-.66-.12-.23-.17-.47-.17-.72v-15.91c0-.25.06-.49.17-.72.11-.23.27-.44.46-.63.17-.17.38-.32.63-.43.23-.09.46-.14.69-.14h19.72c.73,0,1.27.19,1.63.57.36.4.54.85.54,1.35s-.18.96-.54,1.38c-.36.42-.91.63-1.63.63h-17.74v11.92h8.23c1.95,0,3.79.37,5.53,1.12,1.72.75,3.23,1.76,4.53,3.04,1.28,1.3,2.29,2.81,3.04,4.53l1.12,5.56Z"/>
  </g>
  <g>
    <path class="cls-1" d="M292,7.22c.25.34.23.65-.08.93-.24.18-.63.43-1.17.74-.54.31-1.24.67-2.11,1.07-.87.4-1.89.75-3.05,1.04-1.17.29-2.3.43-3.4.43s-2.11-.14-3.16-.42c-.32.45-.6.82-.83,1.1-1.2,1.5-2.44,2.66-3.73,3.47-1.28.82-2.5,1.23-3.64,1.23-1.04,0-1.91-.42-2.6-1.27-.69-.85-1.04-1.91-1.04-3.2,0-2.4,1.12-4.72,3.37-6.97.65-.65,1.31-.97,1.99-.97.13,0,.28.01.44.04.13-1.21.67-2.25,1.63-3.09,1.02-.9,2.15-1.36,3.41-1.36,1.04,0,1.92.39,2.63,1.17.73.82,1.1,1.84,1.1,3.05,0,1.55-.64,3.39-1.91,5.51.78.16,1.55.23,2.31.23,1.28,0,2.59-.19,3.92-.58,1.33-.39,2.34-.77,3.04-1.13.7-.37,1.35-.75,1.96-1.14.34-.24.64-.2.91.13ZM277.32,10.87l.25-.32c-.47-.18-.98-.44-1.55-.78-1.02-.61-1.79-1.34-2.31-2.2-.75.66-1.47,1.6-2.16,2.82-.69,1.21-1.04,2.28-1.04,3.2,0,.34.11.61.32.83.21.21.44.32.7.32.82,0,1.74-.34,2.76-1.03,1.02-.68,2.03-1.63,3.02-2.83ZM278.44,9.34c1.31-1.98,1.97-3.67,1.97-5.08,0-.78-.22-1.43-.66-1.95-.45-.56-1.06-.85-1.82-.85-.89,0-1.72.37-2.5,1.1-.76.73-1.14,1.53-1.14,2.37,0,1.3.73,2.44,2.18,3.43.56.38,1.22.71,1.97.97Z"/>
    <g>
      <path class="cls-1" d="M272.57,75.03c0-1.04-1.69-1.68-5.08-1.91-2.82,7.17-5.85,14.17-9.07,20.99-3.22,6.82-5.54,11.5-6.95,14.04-.28.48-.65.79-1.1.93-.45.14-.83.11-1.14-.08-.71-.4-.92-.92-.64-1.57,6.24-12.2,11.54-23.67,15.89-34.4h-.21c-.9,0-4.26.18-10.08.55-8.95.54-14.66.85-17.11.93-5.28,9.01-11.06,19.75-17.33,32.24-.51,1.04-1.03,1.72-1.57,2.01-.54.3-1.17.44-1.91.44-1.41,0-2.56-.62-3.43-1.86-.65-.99-.8-1.88-.47-2.67,1.33-3.39,3.47-7.94,6.42-13.64,2.95-5.7,6.23-11.58,9.85-17.62-.59-.23-1.2-.54-1.82-.93-2.17-1.38-3.26-2.95-3.26-4.7,0-1.3.42-2.29,1.27-2.96.59-.48,1.19-.4,1.78.25.48.54.55,1,.21,1.4-.45.51-.68.97-.68,1.4,0,.59.34,1.21,1.02,1.84s1.61,1.15,2.8,1.55c1.64-2.68,3.04-4.9,4.19-6.65,3.02-4.66,6.13-9.08,9.32-13.26,3.19-4.18,6.44-8.06,9.74-11.65,3.3-3.59,6.51-6.45,9.62-8.58,3.11-2.13,5.8-3.2,8.09-3.2,1.24,0,2.27.29,3.09.87.82.58,1.42,1.39,1.8,2.44.38,1.04.64,2.08.78,3.11.14,1.03.21,2.21.21,3.54.03,7.15-2.75,18.06-8.35,32.75.45.03.88.07,1.27.13,1.27.23,2.3.52,3.09.89,1.61.76,2.41,1.92,2.41,3.47,0,.76-.34,1.44-1.02,2.03-.25.2-.51.3-.76.3-.45,0-.83-.15-1.14-.47-.37-.37-.4-.76-.08-1.19.23-.23.34-.48.34-.76ZM265.41,70.46h.08c5.59-14.2,8.37-24.84,8.35-31.9,0-2.23-.25-3.94-.76-5.12-.42-1.04-1-1.57-1.74-1.57-2.4,0-6.04,2.82-10.93,8.47-4.89,5.65-10.59,13.61-17.11,23.89-1.13,1.78-2.67,4.31-4.62,7.58,3.84-.14,8.85-.39,15.04-.76,7.06-.39,10.96-.59,11.69-.59Z"/>
      <path class="cls-1" d="M325.26,77.58c.4.62.31,1.16-.25,1.61-5.76,4.09-10.75,6.14-14.95,6.14h-.04c-2.09,0-3.81-.56-5.17-1.69-1.5-1.24-2.25-2.99-2.25-5.25,0-1.44.37-3.02,1.1-4.75.08-.17.15-.34.21-.51-.93.25-2.08.99-3.45,2.2-1.37,1.21-2.64,2.49-3.81,3.83-1.17,1.34-2.55,3.06-4.13,5.15-1.58,2.09-2.75,3.66-3.49,4.7-.75,1.04-1.67,2.37-2.77,3.98-.93,1.33-1.41,2-1.44,2.03-.99.99-1.79,1.48-2.41,1.48-.82,0-1.51-.48-2.08-1.44-.65-1.04-.97-2.34-.97-3.9,0-3.39,1.02-7.24,3.07-11.56,2.05-4.32,4.33-7.75,6.84-10.29,1.24-1.24,2.46-1.86,3.64-1.86.9,0,1.74.38,2.5,1.14.65.65.98,1.45,1,2.41.01.96-.29,1.88-.91,2.75l-.34.42c-4.86,6.47-7.99,11.47-9.4,15,8.92-13.19,15.56-19.78,19.91-19.78,1.02,0,1.82.42,2.41,1.27.54.76.8,1.71.8,2.84,0,.42-.16,1.31-.47,2.67-.34,1.41-.51,2.54-.51,3.39,0,1.16.21,1.99.64,2.5.34.42.96.64,1.86.64,2.68,0,6.93-1.76,12.75-5.29.06-.06.13-.11.23-.15.1-.04.16-.08.19-.11.71-.37,1.27-.23,1.69.42Z"/>
      <path class="cls-1" d="M367.49,76.86c.42-.03.76.1,1.02.38.25.28.39.59.42.93.03.31-.06.6-.28.87-.21.27-.53.42-.95.44-7.79.48-16.75,2.68-26.86,6.61,1.1,1.81,1.65,3.49,1.65,5.04,0,3.42-1.29,6.37-3.85,8.85-2.74,2.6-6.18,3.9-10.34,3.9h-.04c-2.88,0-5.15-.55-6.82-1.65-1.58-1.04-2.37-2.43-2.37-4.15s1.18-3.49,3.54-5.46c2.36-1.98,5.73-3.98,10.1-6.01-.08-.08-.23-.2-.44-.34s-.35-.23-.4-.25c-.9-.62-1.6-1.14-2.1-1.55-.49-.41-1.07-.97-1.72-1.67-.65-.71-1.13-1.48-1.44-2.33-.31-.85-.47-1.78-.47-2.8,0-2.82,1.38-5.37,4.15-7.62,2.77-2.26,6.35-3.4,10.76-3.43h.04c2.94,0,5.35.52,7.24,1.57,1.89,1.04,2.84,2.39,2.84,4.02,0,.88-.31,1.74-.93,2.58-.62.85-1.17,1.45-1.63,1.8-.47.35-.81.59-1.04.7-.73.34-1.31.18-1.74-.47-.37-.59-.3-1.09.21-1.48.71-.51,1.23-.97,1.57-1.4s.51-.93.51-1.53c0-.28-.3-.56-.89-.85-.59-.28-1.36-.42-2.29-.42-2.2,0-4.53.84-6.97,2.52-2.44,1.68-3.93,3.01-4.47,4,.2.31.86,1.03,1.99,2.16,1.81,1.81,3.06,3.15,3.77,4.02,4.94-1.89,9.98-3.47,15.12-4.74,5.14-1.27,9.5-2.02,13.09-2.25ZM332.29,96.85c2.43-1.81,3.64-3.76,3.64-5.85,0-.85-.32-1.67-.97-2.46-3.9,1.78-7.03,3.5-9.4,5.17-2.37,1.67-3.56,3.05-3.56,4.15,0,.48.36.86,1.08,1.14.72.28,1.55.42,2.48.42h.04c2.15,0,4.38-.86,6.69-2.58Z"/>
      <path class="cls-1" d="M399.81,77.15c.73.4.92.96.55,1.69-.42.9-1.33,2.1-2.71,3.58-1.38,1.48-3.17,3.12-5.36,4.91-2.19,1.79-4.55,3.52-7.1,5.17-2.54,1.65-5.34,3.14-8.41,4.47-3.06,1.33-6.01,2.22-8.83,2.67-2.17,4.35-4.4,8.33-6.67,11.95-2.27,3.61-4.72,7-7.33,10.17-2.61,3.16-5.32,5.65-8.13,7.46-2.81,1.81-5.56,2.71-8.24,2.71h-.04c-1.75,0-3.13-.46-4.13-1.38-1-.92-1.5-2.17-1.5-3.75s.36-3.31,1.08-5.1c.72-1.79,1.68-3.5,2.88-5.13,1.2-1.62,2.35-3.04,3.45-4.24,1.1-1.2,2.26-2.37,3.47-3.49,2.94-2.71,6.02-5.07,9.23-7.07,3.22-2,5.99-3.3,8.3-3.9,2.51-5.39,5.78-13.12,9.79-23.17.37-.99.89-2.29,1.57-3.9.37-.88.9-1.59,1.59-2.14.69-.55,1.43-.83,2.22-.83,1.04,0,1.93.37,2.67,1.1.57.56.94,1.21,1.12,1.93.18.72.13,1.41-.15,2.05-2.37,7.29-5.61,15.18-9.7,23.68,3.59-.85,7.44-2.45,11.56-4.81,4.12-2.36,7.7-4.83,10.74-7.41,3.04-2.58,5.2-4.89,6.5-6.93.37-.59.89-.69,1.57-.3ZM336.31,128.11c6.18,0,13.64-8.94,22.37-26.81-1.64.51-3.79,1.67-6.46,3.49-2.67,1.82-5.22,3.86-7.65,6.12-1.1,1.02-2.15,2.07-3.13,3.16-.99,1.09-2.02,2.34-3.09,3.77-1.07,1.43-1.93,2.89-2.58,4.41-.65,1.51-.97,2.92-.97,4.21,0,1.1.51,1.65,1.52,1.65ZM378.84,66.77c-1.53,0-2.78-.49-3.77-1.48-1.02-1.02-1.53-2.27-1.53-3.77s.52-2.68,1.57-3.73c1.04-1.04,2.29-1.57,3.73-1.57,1.52,0,2.78.54,3.77,1.61.96,1.02,1.44,2.23,1.44,3.64,0,1.55-.52,2.82-1.57,3.81-1.04.99-2.26,1.48-3.64,1.48Z"/>
      <path class="cls-1" d="M448.99,77.75c.28.2.46.47.53.8.07.34,0,.69-.19,1.06-.45.65-1.31,1.62-2.58,2.92-1.27,1.3-2.9,2.79-4.89,4.47-1.99,1.68-4.06,3.26-6.21,4.74-2.15,1.48-4.43,2.74-6.84,3.77-2.41,1.03-4.58,1.55-6.5,1.55h-.04c-2.09,0-3.71-.76-4.87-2.27s-1.74-3.65-1.74-6.42c0-1.16.14-2.36.42-3.6-.03.03-.06.06-.08.11-.03.04-.06.08-.08.11-.85,1.21-1.6,2.26-2.25,3.13-.65.88-1.57,1.98-2.75,3.33-1.19,1.34-2.39,2.39-3.6,3.13-1.21.75-2.37,1.12-3.47,1.12h-.04c-1.61,0-2.96-.76-4.07-2.29-1.04-1.47-1.57-3.28-1.57-5.42,0-3.16.73-6.27,2.18-9.32s2.8-5.21,4.04-6.48c.9-.9,1.93-1.36,3.09-1.36.96,0,1.81.37,2.54,1.1.56.54.9,1.19,1.02,1.95.11.76-.11,1.67-.68,2.71-.23.28-.52.71-.89,1.27-4.1,5.85-6.14,10.01-6.14,12.5,0,1.3.35,1.95,1.06,1.95.54,0,1.16-.21,1.86-.61s1.48-1.05,2.33-1.93c.85-.88,1.61-1.69,2.29-2.44s1.5-1.76,2.48-3.05c.97-1.29,1.69-2.23,2.14-2.84.45-.61,1.1-1.52,1.95-2.73,1.07-1.5,1.67-2.32,1.78-2.46l.04-.04c1.16-2.23,2.27-3.88,3.35-4.96,1.33-1.33,2.64-1.99,3.94-1.99h.04c1.04,0,1.92.35,2.63,1.06s1.07,1.5,1.08,2.37c.01.88-.33,1.72-1.04,2.54-.45.57-.8,1.01-1.06,1.33-.25.33-.92,1.25-1.99,2.77-1.07,1.53-1.93,2.88-2.58,4.07-.65,1.19-1.28,2.59-1.89,4.21-.61,1.62-.91,3.03-.91,4.21,0,.99.18,1.65.55,1.99.28.25.95.38,1.99.38,2.88,0,6.97-1.91,12.26-5.74,5.29-3.83,9.14-7.31,11.54-10.44.56-.68,1.17-.78,1.82-.3Z"/>
      <path class="cls-1" d="M499.99,76.43c.28.17.47.41.57.72.1.31.06.66-.11,1.06-.54.93-1.64,2.13-3.3,3.6-1.67,1.47-3.64,2.98-5.93,4.53-2.29,1.55-4.93,2.88-7.92,3.98-2.99,1.1-5.82,1.65-8.47,1.65-.03,0-.1,0-.21-.02-.11-.01-.18-.02-.21-.02-.54.99-1.2,2.01-1.99,3.05-1.92,2.54-4.02,4.52-6.29,5.93-2.27,1.41-4.55,2.12-6.84,2.12h-.04c-2.09,0-3.77-.64-5.04-1.91-1.07-1.07-1.61-2.36-1.61-3.85,0-1.02.2-2.06.59-3.13-.31.57-.65.85-1.02.85-1.21,0-2.24-.9-3.07-2.69-.83-1.79-1.25-3.76-1.25-5.91,0-3.87,1.36-8.86,4.07-14.97,2.71-6.11,6.34-12.38,10.89-18.79,1.92-2.71,3.91-5.28,5.97-7.71,2.06-2.43,4.19-4.69,6.4-6.78,2.2-2.09,4.38-3.76,6.54-5,2.16-1.24,4.09-1.86,5.78-1.86h.04c1.55,0,2.89.45,4,1.33,1.12.89,1.67,2.28,1.67,4.17,0,2.68-.99,5.71-2.96,9.09-1.98,3.38-4.8,6.86-8.47,10.44-3.25,3.16-6.78,6.07-10.61,8.71-3.83,2.64-7.43,4.65-10.82,6.04-3.11,6.3-5.2,11.64-6.27,16.01,1.21-2.46,2.72-4.93,4.51-7.41,1.79-2.48,3.87-4.71,6.23-6.67,2.36-1.96,4.5-2.94,6.42-2.94,1.78,0,3.35.9,4.72,2.69,1.37,1.79,2.05,4.21,2.05,7.26s-.75,6.01-2.25,9.32c2.06-.06,4.34-.57,6.84-1.55,2.5-.97,4.78-2.13,6.84-3.47,2.06-1.34,3.89-2.69,5.49-4.05,1.59-1.36,2.7-2.5,3.33-3.43.42-.68,1-.81,1.74-.38ZM467.67,88.04c2.34-3.78,3.52-7.6,3.52-11.44,0-.73-.11-1.36-.34-1.86-.17-.42-.41-.63-.72-.63-1.38,0-2.89.64-4.51,1.93-1.62,1.29-3.19,2.99-4.7,5.13-1.51,2.13-2.79,4.07-3.83,5.82-1.05,1.75-2.05,3.56-3.01,5.42.34-.54.66-.97.97-1.31,2.09-2.34,5-3.52,8.73-3.52,1.04,0,2.34.16,3.9.47ZM465.34,91.22c.34-.4.56-.68.68-.85-.68-.11-1.44-.17-2.29-.17h-.04c-2.34,0-4.33.69-5.97,2.08-1.44,1.21-2.16,2.53-2.16,3.94,0,.31.08.59.25.83.17.24.4.36.68.36.99,0,2.31-.55,3.96-1.65s3.28-2.61,4.89-4.53ZM469.74,54.57c-2.54,3.87-5.07,8.15-7.58,12.83,1.89-.82,4.09-2.08,6.61-3.77,2.51-1.69,5.04-3.66,7.58-5.89,2.54-2.23,4.9-4.53,7.07-6.88,2.17-2.36,3.94-4.76,5.29-7.2,1.36-2.44,2.03-4.58,2.03-6.42,0-.85-.27-1.51-.8-1.99-.45-.4-.99-.59-1.61-.59-1.67,0-4.21,1.83-7.65,5.49-3.43,3.66-7.08,8.47-10.95,14.42Z"/>
      <path class="cls-1" d="M531.12,77.49c.28.2.46.47.53.8s0,.69-.19,1.06c-.45.65-1.31,1.62-2.58,2.92-1.27,1.3-2.9,2.79-4.89,4.47-1.99,1.68-4.07,3.26-6.23,4.74-2.16,1.48-4.45,2.74-6.86,3.77-2.41,1.03-4.58,1.55-6.5,1.55h-.04c-2.26,0-3.97-.86-5.13-2.58-.99-1.5-1.48-3.53-1.48-6.1s.76-5.66,2.27-9.28c1.51-3.62,3.07-6.23,4.68-7.84,1.33-1.33,2.64-1.99,3.94-1.99h.04c1.04,0,1.92.35,2.63,1.06s1.07,1.5,1.08,2.37c.01.88-.33,1.72-1.04,2.54-.45.57-.8,1.01-1.06,1.33-.25.33-.92,1.25-1.99,2.77-1.07,1.53-1.93,2.88-2.58,4.07-.65,1.19-1.28,2.59-1.89,4.21-.61,1.62-.91,3.03-.91,4.21,0,1.02.18,1.69.55,2.03.34.25,1,.38,1.99.38,2.88,0,6.97-1.92,12.26-5.76,5.29-3.84,9.14-7.33,11.54-10.46.59-.68,1.21-.78,1.86-.3ZM515.57,67.03c-1.5,0-2.74-.49-3.73-1.48-1.02-1.02-1.52-2.29-1.52-3.81,0-1.44.51-2.68,1.55-3.73,1.03-1.04,2.27-1.57,3.71-1.57s2.75.55,3.77,1.65c.96,1.02,1.44,2.23,1.44,3.64,0,1.5-.49,2.75-1.48,3.77-.99,1.02-2.22,1.53-3.69,1.53h-.04Z"/>
      <path class="cls-1" d="M568.14,76.73c.79.28,1.02.88.68,1.78-.59,1.55-2.07,4.03-4.43,7.43-2.36,3.4-5.02,6.77-7.98,10.1-7.94,8.87-14.53,13.3-19.78,13.3h-.04c-2.51,0-4.62-1.06-6.31-3.18-1.92-2.46-2.88-5.78-2.88-9.96-.03-5.11,1.31-11.32,4-18.62,2.7-7.3,6.36-14.68,10.99-22.13,1.92-3.08,3.92-5.99,6.01-8.75,2.09-2.75,4.26-5.33,6.5-7.73s4.5-4.3,6.76-5.7c2.26-1.4,4.31-2.1,6.14-2.1h.04c3.73,0,5.59,1.89,5.59,5.68,0,3.13-1.02,6.68-3.07,10.63-2.05,3.95-5.01,8.03-8.87,12.24-3.28,3.59-6.86,6.9-10.74,9.95-3.88,3.05-7.43,5.32-10.65,6.82-3.73,9.07-5.59,16.73-5.59,23,0,2.06.35,3.57,1.06,4.53.73.99,1.84,1.48,3.3,1.48,2.2,0,5.32-1.79,9.34-5.36,4.02-3.57,7.76-7.55,11.2-11.95s5.79-7.99,7.03-10.78c.31-.76.88-1,1.69-.72ZM549.07,58.51c-2.77,4.66-5.25,9.47-7.46,14.44,2.43-1.19,5.29-3.15,8.58-5.89,3.29-2.74,6.46-5.75,9.51-9.04s5.63-6.75,7.73-10.38,3.16-6.74,3.16-9.34c0-1.1-.11-1.92-.34-2.46-.25-.59-.58-.89-.97-.89-1.81,0-4.65,2.25-8.51,6.76-3.87,4.5-7.77,10.1-11.69,16.8Z"/>
      <path class="cls-1" d="M612.1,77.11c.56.59.51,1.23-.17,1.91-.93.9-2.17,1.98-3.73,3.22-1.55,1.24-3.59,2.72-6.1,4.43-2.51,1.71-5.06,3.25-7.62,4.64-2.57,1.38-5.36,2.57-8.37,3.56-3.01.99-5.77,1.48-8.28,1.48h-.04c-2.17,0-4.1-.31-5.78-.93-1.68-.62-2.99-1.44-3.92-2.46s-1.62-2.11-2.08-3.28-.68-2.39-.68-3.67c0-2.82,1.02-5.65,3.07-8.47,2.05-2.82,4.55-5.1,7.5-6.84,2.95-1.74,5.74-2.61,8.37-2.61h.04c2.23,0,4.1.54,5.61,1.63,1.51,1.09,2.27,2.44,2.27,4.05,0,3.02-1.58,5.78-4.72,8.28-3.15,2.5-6.64,3.75-10.48,3.75-1.72,0-3.11-.18-4.15-.55-.45.99-.68,1.88-.68,2.67,0,1.36.71,2.49,2.12,3.39,1.5.93,3.43,1.4,5.8,1.4,2.23,0,4.75-.51,7.56-1.55,2.81-1.03,5.36-2.2,7.65-3.5,2.29-1.3,4.62-2.8,7.01-4.49,2.39-1.69,4.12-2.99,5.21-3.88s2-1.66,2.73-2.31c.34-.25.68-.36,1.02-.32.34.04.62.19.85.44ZM587.53,72.83c-1.52,0-3.7,1.04-6.52,3.13-2.82,2.09-5.08,4.35-6.78,6.78.85.2,1.72.3,2.63.3,3.05,0,5.9-1.02,8.56-3.07,2.65-2.05,3.98-3.96,3.98-5.74,0-.37-.21-.69-.61-.97-.41-.28-.83-.42-1.25-.42Z"/>
      <path class="cls-1" d="M660.94,77.75c.28.2.46.47.53.8s0,.69-.19,1.06c-.45.65-1.31,1.62-2.58,2.92s-2.9,2.79-4.89,4.47c-1.99,1.68-4.06,3.26-6.21,4.74-2.15,1.48-4.43,2.74-6.84,3.77-2.42,1.03-4.58,1.55-6.5,1.55h-.04c-2.09,0-3.71-.76-4.87-2.27-1.16-1.51-1.74-3.65-1.74-6.42,0-1.16.14-2.36.42-3.6-.03.03-.06.06-.08.11s-.06.08-.08.11c-.85,1.21-1.6,2.26-2.25,3.13-.65.88-1.57,1.98-2.75,3.33-1.19,1.34-2.39,2.39-3.6,3.13-1.21.75-2.37,1.12-3.47,1.12h-.04c-1.61,0-2.97-.76-4.07-2.29-1.04-1.47-1.57-3.28-1.57-5.42,0-3.16.73-6.27,2.18-9.32,1.46-3.05,2.8-5.21,4.05-6.48.9-.9,1.93-1.36,3.09-1.36.96,0,1.81.37,2.54,1.1.56.54.9,1.19,1.02,1.95.11.76-.11,1.67-.68,2.71-.23.28-.52.71-.89,1.27-4.09,5.85-6.14,10.01-6.14,12.5,0,1.3.35,1.95,1.06,1.95.54,0,1.16-.21,1.86-.61.71-.41,1.48-1.05,2.33-1.93.85-.88,1.61-1.69,2.29-2.44s1.5-1.76,2.48-3.05c.97-1.29,1.69-2.23,2.14-2.84.45-.61,1.1-1.52,1.95-2.73,1.07-1.5,1.67-2.32,1.78-2.46l.04-.04c1.16-2.23,2.27-3.88,3.35-4.96,1.33-1.33,2.64-1.99,3.94-1.99h.04c1.04,0,1.92.35,2.63,1.06.71.71,1.07,1.5,1.08,2.37.01.88-.33,1.72-1.04,2.54-.45.57-.8,1.01-1.06,1.33-.25.33-.92,1.25-1.99,2.77-1.07,1.53-1.93,2.88-2.58,4.07-.65,1.19-1.28,2.59-1.88,4.21-.61,1.62-.91,3.03-.91,4.21,0,.99.18,1.65.55,1.99.28.25.95.38,1.99.38,2.88,0,6.97-1.91,12.26-5.74,5.3-3.83,9.14-7.31,11.54-10.44.56-.68,1.17-.78,1.82-.3Z"/>
      <path class="cls-1" d="M720.2,77.19c.71.48.83,1.06.38,1.74-7.4,11.1-13.99,18.72-19.78,22.88-2.82,2.06-5.29,3.09-7.41,3.09h-.04c-1.78,0-3.3-.79-4.58-2.37-1.19-1.5-1.78-3.22-1.78-5.17,0-2.96,1.2-7.02,3.6-12.16.11-.25.27-.58.47-.97-1.36.51-3.5,2.49-6.44,5.93-.68.79-1.07,1.24-1.19,1.36-.93.93-1.81,1.4-2.63,1.4-.99,0-1.74-.54-2.25-1.61-.54-1.13-.8-2.65-.8-4.58,0-3.87,1.37-8.37,4.11-13.51-1.27.65-2.83,2.05-4.68,4.19-1.85,2.15-3.34,4.03-4.47,5.66s-2.61,3.83-4.45,6.63c-1.98,3.02-3.16,4.73-3.56,5.13-.57.57-1.16.85-1.78.85-1.04,0-1.96-.76-2.75-2.29-.82-1.55-1.23-3.4-1.23-5.55,0-3.13.98-6.84,2.94-11.12,1.96-4.28,3.8-7.28,5.53-9,.82-.82,1.75-1.23,2.8-1.23s1.91.38,2.67,1.14c1.47,1.47,1.54,3.19.21,5.17-.9,1.38-2.1,3.55-3.6,6.5-1.5,2.95-2.81,6.08-3.94,9.38.73-1.02,1.62-2.32,2.67-3.9,1.13-1.72,2.04-3.09,2.73-4.11.69-1.02,1.67-2.35,2.94-4s2.37-2.95,3.3-3.9c.93-.95,1.97-1.79,3.11-2.52,1.14-.73,2.18-1.1,3.11-1.1,1.33,0,2.43.44,3.3,1.31,1.02,1.02,1.53,2.4,1.53,4.15,0,1.89-1.05,5.29-3.13,10.21,0,.06-.03.11-.08.17-.06.06-.08.11-.08.17,2.49-2.91,4.8-4.36,6.95-4.36,1.27,0,2.38.49,3.33,1.46.95.97,1.42,2.48,1.42,4.51,0,1.81-.9,4.79-2.71,8.94-1.19,2.68-1.78,4.43-1.78,5.25,0,.37.13.66.38.89.28.23.59.34.93.34,1.04,0,2.22-.35,3.54-1.06,1.31-.71,2.58-1.56,3.81-2.56,1.23-1,2.59-2.31,4.09-3.92,1.5-1.61,2.77-3.04,3.83-4.3,1.06-1.26,2.27-2.8,3.64-4.62,1.37-1.82,2.36-3.15,2.96-3.98s1.36-1.9,2.27-3.2c.4-.56.66-.95.8-1.14.48-.65,1.07-.72,1.78-.21Z"/>
    </g>
  </g>
  <g id="d_dagen" data-name="d dagen">
    <g class="cls-7">
      <g class="cls-5">
        <path class="cls-2" d="M363.91,157.98c-.79-1.36-2.11-1.83-3.65-1.76-3.4.14-7.89,2.84-10.18,4.21-5.24,3.15-5.77,4.41-10.99,7.35-.01,0-.03.02-.04.02-1.49-2.41-4.15-4.03-7.19-4.03s-5.7,1.61-7.19,4.03c-.01,0-.03-.02-.04-.02-5.22-2.94-5.75-4.2-10.99-7.35-2.28-1.37-6.77-4.07-10.18-4.21-1.55-.06-2.87.4-3.65,1.76-.56.96-2.28,2.93-2.28,14.24s1.73,13.28,2.28,14.24c2.51,4.35,10.51-.45,13.83-2.45,5.24-3.15,5.77-4.41,10.99-7.35.01,0,.03-.02.04-.03,1.49,2.41,4.15,4.03,7.19,4.03s5.7-1.61,7.19-4.03c.01,0,.03.02.04.02,5.22,2.94,5.76,4.2,10.99,7.35,3.32,2,11.31,6.8,13.83,2.45.56-.96,2.28-2.93,2.28-14.24s-1.73-13.28-2.28-14.24"/>
      </g>
    </g>
    <g id="text">
      <path id="d" class="cls-3" d="M279.99,117.06c0-1.26.44-2.35,1.31-3.25.88-.9,1.92-1.35,3.15-1.35s2.27.45,3.14,1.35c.87.9,1.31,1.98,1.31,3.25v55.15c0,8.88-3.05,16.45-9.14,22.71-6.09,6.29-13.44,9.42-22.05,9.42s-15.98-3.13-22.07-9.42c-6.09-6.26-9.14-13.82-9.14-22.71s3.05-16.43,9.14-22.71c6.08-6.26,13.44-9.39,22.07-9.39s15.95,3.13,22.05,9.39c.07.09.15.16.22.24v-32.69ZM279.99,172.21c0-6.35-2.17-11.75-6.51-16.22-4.35-4.47-9.61-6.71-15.76-6.71s-11.42,2.24-15.77,6.71c-4.35,4.47-6.53,9.87-6.53,16.22s2.18,11.77,6.53,16.24c4.34,4.46,9.6,6.7,15.77,6.7s11.41-2.24,15.76-6.7c4.34-4.47,6.51-9.88,6.51-16.24Z"/>
      <path id="d-2" data-name="d" class="cls-3" d="M427.7,117.06c0-1.26.44-2.35,1.32-3.25.87-.9,1.91-1.35,3.15-1.35s2.27.45,3.15,1.35c.87.9,1.3,1.98,1.3,3.25v55.15c0,8.88-3.04,16.45-9.14,22.71-6.09,6.29-13.44,9.42-22.06,9.42s-15.96-3.13-22.06-9.42c-6.1-6.26-9.14-13.82-9.14-22.71s3.04-16.43,9.14-22.71c6.1-6.26,13.45-9.39,22.06-9.39s15.97,3.13,22.06,9.39c.08.09.15.16.23.24v-32.69ZM427.7,172.21c0-6.35-2.17-11.75-6.52-16.22-4.34-4.47-9.59-6.71-15.76-6.71s-11.42,2.24-15.77,6.71c-4.34,4.47-6.51,9.87-6.51,16.22s2.17,11.77,6.51,16.24c4.35,4.46,9.61,6.7,15.77,6.7s11.42-2.24,15.76-6.7c4.35-4.47,6.52-9.88,6.52-16.24Z"/>
      <path id="a" class="cls-3" d="M498.99,194.69c-6.24,6.44-13.66,9.65-22.28,9.65s-15.97-3.13-22.06-9.42c-6.09-6.26-9.14-13.82-9.14-22.71s3.06-16.43,9.14-22.71c6.09-6.26,13.45-9.39,22.06-9.39s15.96,3.13,22.06,9.39c6.08,6.28,9.13,13.85,9.13,22.71v27.54c0,1.25-.42,2.34-1.3,3.23-.9.9-1.93,1.35-3.16,1.35s-2.27-.45-3.16-1.35c-.88-.89-1.3-1.98-1.3-3.23v-5.06ZM476.72,149.28c-6.16,0-11.43,2.24-15.77,6.71-4.33,4.47-6.52,9.87-6.52,16.22s2.19,11.77,6.52,16.24c4.34,4.46,9.61,6.7,15.77,6.7s11.4-2.24,15.76-6.7c4.35-4.47,6.51-9.88,6.51-16.24s-2.17-11.75-6.51-16.22c-4.36-4.47-9.6-6.71-15.76-6.71Z"/>
      <path id="g" class="cls-3" d="M570.3,194.69c-.09.08-.15.15-.25.23-6.06,6.29-13.43,9.42-22.05,9.42s-15.96-3.13-22.05-9.42c-6.09-6.26-9.13-13.82-9.13-22.71s3.04-16.43,9.13-22.71c6.09-6.26,13.46-9.39,22.05-9.39s15.99,3.13,22.05,9.39c6.1,6.28,9.14,13.85,9.14,22.71v32.13c0,6.69-2.32,12.5-7,17.41-6.52,6.74-14.44,10.1-23.69,10.1s-17.1-3.35-23.61-10.1c-2.41-2.43-4.37-5.09-5.9-7.96-.43-.69-.65-1.49-.65-2.42,0-1.25.42-2.33,1.3-3.23.85-.9,1.92-1.35,3.16-1.35s2.27.45,3.16,1.33c.38.43.69.88.95,1.38,1.12,2.07,2.53,3.98,4.29,5.79,4.79,4.92,10.56,7.39,17.31,7.39s12.55-2.47,17.33-7.39c2.97-3.67,4.47-7.34,4.47-10.95v-9.65ZM548,149.28c-6.14,0-11.4,2.24-15.76,6.71-4.33,4.47-6.5,9.87-6.5,16.22s2.17,11.77,6.5,16.24c4.36,4.46,9.62,6.7,15.76,6.7s11.42-2.24,15.76-6.7c4.36-4.47,6.54-9.88,6.54-16.24s-2.18-11.75-6.54-16.22c-4.34-4.47-9.58-6.71-15.76-6.71Z"/>
      <path id="e" class="cls-3" d="M636.47,188.73c1.22,0,2.28.45,3.16,1.35.85.9,1.31,1.98,1.31,3.24s-.45,2.34-1.28,3.26c-5.77,5.17-12.54,7.76-20.35,7.76-8.62,0-15.97-3.13-22.05-9.42-6.09-6.26-9.14-13.82-9.14-22.71s3.06-16.43,9.14-22.71c6.08-6.26,13.43-9.39,22.05-9.39s15.96,3.13,22.05,9.39c6.09,6.28,9.15,13.85,9.15,22.71,0,1.28-.43,2.36-1.3,3.24-.88.9-1.93,1.35-3.16,1.35h-48.61c.8,4.4,2.84,8.28,6.11,11.65,4.35,4.46,9.6,6.7,15.76,6.7,5.56,0,10.38-1.82,14.38-5.45.81-.64,1.73-.97,2.78-.97ZM641.18,167.62c-.8-4.39-2.83-8.27-6.11-11.63-4.35-4.47-9.6-6.71-15.76-6.71s-11.41,2.24-15.76,6.71c-3.27,3.36-5.31,7.24-6.11,11.63h43.75Z"/>
      <path id="n" class="cls-3" d="M711.89,194.69v5.06c0,1.25.43,2.34,1.31,3.23.89.9,1.93,1.35,3.16,1.35s2.25-.45,3.16-1.35c.88-.89,1.3-1.98,1.3-3.23v-27.54s0-.08,0-.12,0-.08,0-.12c0-8.86-3.06-16.43-9.14-22.71-6.09-6.26-13.45-9.4-22.06-9.4s-15.96,3.13-22.06,9.4c-6.08,6.28-9.13,13.85-9.13,22.71v27.54c0,1.25.43,2.34,1.3,3.23.9.9,1.93,1.35,3.16,1.35s2.27-.45,3.16-1.35c.88-.89,1.3-1.98,1.3-3.23v-27.28h.01s0-.11,0-.17c0-.1,0-.2,0-.3.1-6.15,2.28-11.41,6.51-15.77,4.33-4.47,9.6-6.71,15.77-6.71s11.4,2.24,15.76,6.71c4.33,4.44,6.49,9.82,6.51,16.12"/>
    </g>
  </g>
</svg>