<?xml version="1.0" encoding="UTF-8"?>
<svg xmlns="http://www.w3.org/2000/svg" version="1.1" viewBox="0 0 1500 458.3">
  <defs>
    <style>
      .cls-1 {
        fill: #fff;
      }

      .cls-2 {
        fill: #e72e7b;
      }
    </style>
  </defs>
  <!-- Generator: Adobe Illustrator 28.7.1, SVG Export Plug-In . SVG Version: 1.2.0 Build 142)  -->
  <g>
    <g id="Layer_1">
      <g id="text">
        <path id="d" class="cls-2" d="M236.5,56.9c0-3.4,1.2-6.2,3.5-8.6,2.3-2.4,5.1-3.6,8.4-3.6s6,1.2,8.3,3.6c2.3,2.4,3.5,5.3,3.5,8.6v146.2c0,23.6-8.1,43.6-24.2,60.2-16.1,16.7-35.6,25-58.5,25s-42.4-8.3-58.5-25c-16.2-16.6-24.2-36.7-24.2-60.2s8.1-43.6,24.2-60.2c16.1-16.6,35.6-24.9,58.5-24.9s42.3,8.3,58.5,24.9l.6.6V56.9h-.1,0ZM236.5,203.1c0-16.8-5.7-31.2-17.3-43-11.5-11.9-25.5-17.8-41.8-17.8s-30.3,5.9-41.8,17.8c-11.5,11.8-17.3,26.2-17.3,43s5.8,31.2,17.3,43.1c11.5,11.8,25.4,17.8,41.8,17.8s30.3-5.9,41.8-17.8c11.5-11.8,17.3-26.2,17.3-43.1Z"/>
        <path id="d-2" class="cls-2" d="M628.1,56.9c0-3.4,1.2-6.2,3.5-8.6,2.3-2.4,5.1-3.6,8.3-3.6s6,1.2,8.3,3.6c2.3,2.4,3.5,5.3,3.5,8.6v146.2c0,23.6-8.1,43.6-24.2,60.2-16.1,16.7-35.6,25-58.5,25s-42.3-8.3-58.5-25c-16.2-16.6-24.2-36.7-24.2-60.2s8.1-43.6,24.2-60.2c16.2-16.6,35.7-24.9,58.5-24.9s42.3,8.3,58.5,24.9c.2.2.4.4.6.6V56.9h0ZM628.1,203.1c0-16.8-5.7-31.2-17.3-43-11.5-11.9-25.4-17.8-41.8-17.8s-30.3,5.9-41.8,17.8c-11.5,11.8-17.3,26.2-17.3,43s5.7,31.2,17.3,43.1c11.6,11.8,25.5,17.8,41.8,17.8s30.3-5.9,41.8-17.8c11.6-11.8,17.3-26.2,17.3-43.1Z"/>
        <path id="a" class="cls-2" d="M817.2,262.8c-16.5,17.1-36.2,25.6-59.1,25.6s-42.3-8.3-58.5-25c-16.1-16.6-24.2-36.7-24.2-60.2s8.1-43.6,24.2-60.2c16.1-16.6,35.7-24.9,58.5-24.9s42.3,8.3,58.5,24.9c16.1,16.6,24.2,36.7,24.2,60.2v73c0,3.3-1.1,6.2-3.4,8.6-2.4,2.4-5.1,3.6-8.4,3.6s-6-1.2-8.4-3.6c-2.3-2.4-3.5-5.2-3.5-8.6v-13.4h.1ZM758.1,142.4c-16.3,0-30.3,5.9-41.8,17.8-11.5,11.8-17.3,26.2-17.3,43s5.8,31.2,17.3,43.1c11.5,11.8,25.5,17.8,41.8,17.8s30.2-5.9,41.8-17.8c11.5-11.9,17.3-26.2,17.3-43.1s-5.7-31.2-17.3-43c-11.6-11.9-25.4-17.8-41.8-17.8h0Z"/>
        <path id="g" class="cls-2" d="M1006.2,262.8c-.2.2-.4.4-.7.6-16.1,16.7-35.6,25-58.5,25s-42.3-8.3-58.5-25c-16.1-16.6-24.2-36.7-24.2-60.2s8.1-43.6,24.2-60.2c16.2-16.6,35.7-24.9,58.5-24.9s42.4,8.3,58.5,24.9c16.2,16.6,24.2,36.7,24.2,60.2v85.2c0,17.7-6.1,33.2-18.6,46.2-17.3,17.9-38.3,26.8-62.8,26.8s-45.3-8.9-62.6-26.8c-6.4-6.4-11.6-13.5-15.6-21.1-1.1-1.8-1.7-3.9-1.7-6.4s1.1-6.2,3.5-8.6c2.3-2.4,5.1-3.6,8.4-3.6s6,1.2,8.4,3.5c1,1.1,1.8,2.3,2.5,3.7,3,5.5,6.7,10.6,11.4,15.3,12.7,13.1,28,19.6,45.9,19.6s33.3-6.5,45.9-19.6c7.9-9.7,11.9-19.5,11.9-29v-25.6h-.1ZM947.1,142.4c-16.3,0-30.2,5.9-41.8,17.8-11.5,11.8-17.2,26.2-17.2,43s5.7,31.2,17.2,43.1c11.6,11.8,25.5,17.8,41.8,17.8s30.3-5.9,41.8-17.8c11.6-11.9,17.3-26.2,17.3-43.1s-5.8-31.2-17.3-43c-11.5-11.9-25.4-17.8-41.8-17.8h0Z"/>
        <path id="e" class="cls-2" d="M1181.7,247c3.2,0,6,1.2,8.4,3.6,2.3,2.4,3.5,5.2,3.5,8.6s-1.2,6.2-3.4,8.6c-15.3,13.7-33.3,20.6-54,20.6s-42.3-8.3-58.5-25c-16.1-16.6-24.2-36.7-24.2-60.2s8.1-43.6,24.2-60.2c16.1-16.6,35.6-24.9,58.5-24.9s42.3,8.3,58.5,24.9c16.1,16.6,24.3,36.7,24.3,60.2s-1.1,6.3-3.5,8.6c-2.3,2.4-5.1,3.6-8.4,3.6h-128.9c2.1,11.7,7.5,22,16.2,30.9,11.5,11.8,25.4,17.8,41.8,17.8s27.5-4.8,38.1-14.5c2.2-1.8,4.6-2.6,7.4-2.6h0ZM1194.2,191c-2.1-11.6-7.5-21.9-16.2-30.8-11.5-11.9-25.4-17.8-41.8-17.8s-30.3,5.9-41.8,17.8c-8.7,8.9-14.1,19.2-16.2,30.8h116Z"/>
        <path id="n" class="cls-2" d="M1381.7,262.8v13.4c0,3.3,1.1,6.2,3.5,8.6s5.1,3.6,8.4,3.6,6-1.2,8.4-3.6c2.3-2.4,3.5-5.2,3.5-8.6v-73.6c0-23.5-8.1-43.6-24.2-60.2-16.2-16.6-35.7-24.9-58.5-24.9s-42.3,8.3-58.5,24.9c-16.1,16.6-24.2,36.7-24.2,60.2v73c0,3.3,1.1,6.2,3.5,8.6s5.1,3.6,8.4,3.6,6-1.2,8.4-3.6c2.3-2.4,3.4-5.2,3.4-8.6v-72.3h0v-1.3c.3-16.3,6-30.3,17.3-41.8,11.5-11.9,25.5-17.8,41.8-17.8s30.2,5.9,41.8,17.8c11.5,11.8,17.2,26,17.3,42.8"/>
      </g>
      <path id="fluga" class="cls-2" d="M459,165.4c-2.1-3.6-5.6-4.8-9.7-4.7-9,.4-20.9,7.5-27,11.2-13.9,8.4-15.3,11.7-29.1,19.5,0,0-.1,0-.1.1-3.9-6.4-11-10.7-19.1-10.7s-15.1,4.3-19.1,10.7c0,0-.1,0-.1-.1-13.8-7.8-15.3-11.1-29.1-19.5-6.1-3.6-18-10.8-27-11.2-4.1-.2-7.6,1.1-9.7,4.7-1.5,2.6-6.1,7.8-6.1,37.8s4.6,35.2,6.1,37.8c6.7,11.5,27.9-1.2,36.7-6.5,13.9-8.3,15.3-11.7,29.1-19.5,0,0,.1,0,.1-.1,3.9,6.4,11,10.7,19.1,10.7s15.1-4.3,19.1-10.7c0,0,.1,0,.1.1,13.8,7.8,15.3,11.1,29.1,19.5,8.8,5.3,30,18,36.7,6.5,1.5-2.6,6.1-7.8,6.1-37.8-.1-30-4.7-35.2-6.1-37.8Z"/>
      <g>
        <path class="cls-1" d="M188.9,357.7c-3.9,0-7.1-1.1-9.6-3.2-2.5-2.1-3.8-5-4-8.6h4.3c.2,2.5,1.1,4.5,2.8,6,1.6,1.5,3.8,2.2,6.4,2.2s5.9-1,7.7-2.9c3-3.1,4.5-8.8,4.6-17.2h-.1c-2.6,4.6-6.7,7-12.2,7s-7.5-1.4-10.1-4.1c-2.7-2.8-4-6.2-4-10.4,0-4.2,1.3-7.8,4.1-10.7,2.8-2.9,6.3-4.4,10.5-4.4s7.2,1.2,9.9,3.5c2.2,1.8,3.8,4.3,4.7,7.6.9,3.2,1.4,7.4,1.4,12.4,0,8.8-2,15.2-5.9,19-2.7,2.6-6.2,3.9-10.4,3.9ZM189.1,337.4c3.2,0,5.8-1,7.9-3.1,2-2.1,3.1-4.8,3.1-8.1s-1-6.1-3-8.2c-2-2.1-4.6-3.2-7.8-3.2s-5.7,1.1-7.6,3.2c-1.9,2.1-2.9,4.9-2.9,8.2s1,6,2.9,8c1.9,2.1,4.4,3.1,7.5,3.1Z"/>
        <path class="cls-1" d="M241.3,357.7c-6.5,0-11.7-2.3-15.6-6.8-4-4.5-5.9-10.3-5.9-17.4s2-12.8,5.9-17.4c4-4.5,9.2-6.8,15.6-6.8s11.7,2.3,15.7,6.8c4,4.5,6,10.3,6,17.4s-2,12.8-6,17.4c-4,4.5-9.2,6.8-15.7,6.8ZM241.3,353.8c5.4,0,9.6-1.9,12.6-5.8,3-3.8,4.5-8.7,4.5-14.5s-1.5-10.7-4.5-14.5c-3-3.8-7.2-5.8-12.6-5.8s-9.6,1.9-12.5,5.8-4.5,8.7-4.5,14.5,1.5,10.7,4.5,14.5,7.2,5.8,12.5,5.8Z"/>
        <path class="cls-1" d="M269.5,356.8v-46.5h4.4v24.8l25.1-24.8h5.7l-19.4,18.9,20.6,27.6h-5.2l-18.4-24.6-8.3,8.2v16.4h-4.4Z"/>
        <path class="cls-1" d="M322.9,356.8v-42.6h-15.7v-3.9h35.8v3.9h-15.7v42.6h-4.4Z"/>
        <path class="cls-1" d="M364.8,357.7c-6.5,0-11.7-2.3-15.6-6.8-4-4.5-5.9-10.3-5.9-17.4s2-12.8,5.9-17.4c4-4.5,9.2-6.8,15.6-6.8s11.7,2.3,15.7,6.8c4,4.5,6,10.3,6,17.4s-2,12.8-6,17.4c-4,4.5-9.2,6.8-15.7,6.8ZM364.8,353.8c5.4,0,9.6-1.9,12.6-5.8,3-3.8,4.5-8.7,4.5-14.5s-1.5-10.7-4.5-14.5c-3-3.8-7.2-5.8-12.6-5.8s-9.6,1.9-12.5,5.8-4.5,8.7-4.5,14.5,1.5,10.7,4.5,14.5,7.2,5.8,12.5,5.8Z"/>
        <path class="cls-1" d="M393,356.8v-46.5h19.3c4.2,0,7.5,1.1,9.9,3.4,2.3,2,3.4,4.8,3.4,8.3,0,5.1-2.4,8.4-7.1,10.1v.2c2.8.8,5,2.1,6.6,4.1,1.6,1.9,2.4,4.4,2.4,7.4s-1.1,6.8-3.4,9.1c-2.6,2.6-6.2,4-11,4h-20.1ZM397.4,330.8h14.9c2.8,0,5-.8,6.6-2.3,1.6-1.5,2.3-3.6,2.3-6.1s-.8-4.6-2.3-6-3.7-2.1-6.4-2.1h-15v16.6ZM397.4,352.9h15.5c3.4,0,6-.9,7.9-2.7,1.6-1.6,2.3-3.7,2.3-6.4s-.9-5.2-2.8-6.8c-1.8-1.6-4.3-2.5-7.4-2.5h-15.5v18.3Z"/>
        <path class="cls-1" d="M433.5,356.8v-46.5h31.6v3.8h-27.2v16.7h25v3.8h-25v18.1h27.9v4h-32.3Z"/>
        <path class="cls-1" d="M472.4,356.8v-46.5h20.7c4.2,0,7.4,1.1,9.7,3.3,2.3,2.2,3.5,5.3,3.5,9.2,0,5.8-2.6,9.5-7.8,11.2v.2c2.3.8,4,2.1,5,4,1,1.9,1.5,4.7,1.7,8.4.3,5.9.9,9.2,2,9.9v.3h-4.7c-.5-.3-.9-1.2-1.1-2.5s-.4-3.9-.6-7.9c-.2-3.9-1-6.7-2.5-8.1-1.5-1.5-4-2.2-7.4-2.2h-14.2v20.7h-4.4ZM476.7,332.4h14.9c3.3,0,5.9-.8,7.6-2.4,1.7-1.6,2.6-3.8,2.6-6.7s-.8-5.3-2.3-6.8c-1.5-1.5-4-2.3-7.3-2.3h-15.5v18.2Z"/>
        <path class="cls-1" d="M521.1,356.8c0-1.6.2-3.1.6-4.5.3-1.4.7-2.7,1.2-3.7.4-1,1.1-2.1,2.1-3.2,1-1.1,1.7-2,2.3-2.5.6-.6,1.5-1.4,2.9-2.3,1.4-1,2.3-1.6,2.9-1.9.5-.3,1.6-.9,3.1-1.9,3.8-2.3,6.2-3.9,7.3-5,1.9-1.9,2.9-4.4,2.9-7.3s-.9-5.3-2.6-7c-1.7-1.7-4.1-2.5-7-2.5s-5.6,1-7.4,2.9c-1.8,2-2.8,4.9-2.8,8.8h-4.3c0-4.8,1.3-8.5,4-11.2s6.3-4,10.8-4,7.4,1.2,9.9,3.7c2.5,2.4,3.7,5.5,3.7,9.3s-.3,3.7-.8,5.3c-.5,1.5-1.5,2.9-2.9,4.2-1.4,1.3-2.5,2.2-3.4,2.9-.9.7-2.4,1.6-4.5,2.8-.2.1-.4.2-.5.3,0,0-.2.1-.4.2-.2,0-.3.2-.5.3-1.7,1-3,1.8-4,2.5-1,.7-2.1,1.5-3.3,2.6-1.3,1.1-2.3,2.3-3,3.5-.7,1.3-1.2,2.6-1.4,4.1h24v3.9h-28.9Z"/>
        <path class="cls-1" d="M571.7,357.7c-5.2,0-9.2-2.1-12.1-6.2-2.9-4.2-4.3-9.8-4.3-17s1.5-12.9,4.5-17c3-4.1,7-6.2,12.1-6.2s9.1,2.1,12,6.2c2.9,4.1,4.4,9.8,4.4,17s-1.4,12.9-4.3,17c-2.9,4.1-6.9,6.2-12.2,6.2ZM571.8,354.1c4,0,7-1.7,9-5.1,2-3.4,3.1-8.2,3.1-14.4s-1.1-10.9-3.2-14.4c-2.1-3.5-5.1-5.3-8.9-5.3s-6.9,1.7-9,5.2c-2.1,3.4-3.2,8.3-3.2,14.5s1,10.8,3.2,14.3c2.1,3.5,5.1,5.2,9,5.2Z"/>
        <path class="cls-1" d="M592.4,356.8c0-1.6.2-3.1.6-4.5.3-1.4.7-2.7,1.2-3.7.4-1,1.1-2.1,2.1-3.2,1-1.1,1.7-2,2.3-2.5.6-.6,1.5-1.4,2.9-2.3,1.4-1,2.3-1.6,2.9-1.9.5-.3,1.6-.9,3.1-1.9,3.8-2.3,6.2-3.9,7.3-5,1.9-1.9,2.9-4.4,2.9-7.3s-.9-5.3-2.6-7c-1.7-1.7-4.1-2.5-7-2.5s-5.6,1-7.4,2.9c-1.8,2-2.8,4.9-2.8,8.8h-4.3c0-4.8,1.3-8.5,4-11.2s6.3-4,10.8-4,7.4,1.2,9.9,3.7c2.5,2.4,3.7,5.5,3.7,9.3s-.3,3.7-.8,5.3c-.5,1.5-1.5,2.9-2.9,4.2-1.4,1.3-2.5,2.2-3.4,2.9-.9.7-2.4,1.6-4.5,2.8-.2.1-.4.2-.5.3,0,0-.2.1-.4.2-.2,0-.3.2-.5.3-1.7,1-3,1.8-4,2.5-1,.7-2.1,1.5-3.3,2.6-1.3,1.1-2.3,2.3-3,3.5-.7,1.3-1.2,2.6-1.4,4.1h24v3.9h-28.9Z"/>
        <path class="cls-1" d="M640.5,357.7c-4.2,0-7.7-1.2-10.4-3.6-2.8-2.4-4.2-5.5-4.3-9.3h4.2c.8,6.1,4.3,9.1,10.5,9.1s5.8-1.1,7.7-3.2c1.9-2.1,2.8-4.9,2.8-8.3s-1-6.1-2.9-8.1c-1.9-2-4.4-3-7.4-3-4.4,0-7.7,1.5-9.8,4.5h-4l4-23.7h22.2v3.8h-19.1l-2.5,15.2h.1c2.6-2.4,5.9-3.6,9.8-3.6s7.1,1.3,9.8,4c2.7,2.6,4,6.3,4,10.9s-1.4,8.2-4.1,11c-2.7,2.8-6.3,4.2-10.7,4.2Z"/>
      </g>
      <g>
        <path class="cls-1" d="M182,419.7v-28.3h-7.9v-2.4c2.9-.1,5.1-.7,6.4-1.7,1.3-1,2.1-2.8,2.4-5.5h2.7v37.9h-3.6Z"/>
        <path class="cls-1" d="M206.3,420.5c-4.4,0-7.8-1.8-10.3-5.3-2.4-3.5-3.7-8.3-3.7-14.4s1.3-10.9,3.8-14.4c2.5-3.5,5.9-5.3,10.2-5.3s7.7,1.7,10.2,5.2c2.5,3.5,3.7,8.3,3.7,14.4s-1.2,10.9-3.7,14.4c-2.4,3.5-5.9,5.3-10.3,5.3ZM206.3,417.4c3.4,0,5.9-1.4,7.6-4.3,1.7-2.9,2.6-7,2.6-12.2s-.9-9.2-2.7-12.2c-1.8-3-4.3-4.5-7.6-4.5s-5.8,1.5-7.6,4.4c-1.8,2.9-2.7,7-2.7,12.2s.9,9.2,2.7,12.1c1.8,3,4.3,4.4,7.6,4.4Z"/>
        <path class="cls-1" d="M232.5,405.8v-3.1h14.1v3.1h-14.1Z"/>
        <path class="cls-1" d="M266.5,419.7v-28.3h-7.9v-2.4c2.9-.1,5.1-.7,6.4-1.7,1.3-1,2.1-2.8,2.4-5.5h2.7v37.9h-3.6Z"/>
        <path class="cls-1" d="M290.6,420.5c-3.5,0-6.4-1.1-8.7-3.2-3.4-3-5.1-8.6-5.1-16.7s1.2-10.5,3.7-14.1c2.4-3.6,5.9-5.4,10.4-5.4s5.7.9,7.5,2.8c1.9,1.8,3,4.2,3.3,7h-3.6c-.2-2-.9-3.6-2.2-4.8-1.3-1.2-3-1.9-5-1.9-3.6,0-6.2,1.5-8,4.6-1.8,3.1-2.6,7.3-2.6,12.7h.1c2.3-4.1,5.8-6.1,10.3-6.1s6.3,1.2,8.6,3.5c2.3,2.3,3.4,5.3,3.4,8.8,0,3.6-1.1,6.6-3.4,9.1-2.3,2.5-5.2,3.7-8.7,3.7ZM290.5,417.5c2.6,0,4.7-.9,6.3-2.7,1.6-1.8,2.4-4.1,2.4-7s-.8-5.1-2.4-6.8c-1.6-1.7-3.7-2.6-6.3-2.6s-4.9.9-6.6,2.7c-1.7,1.8-2.6,4.1-2.6,6.8s.9,5.2,2.6,6.9,3.9,2.6,6.7,2.6Z"/>
      </g>
    </g>
  </g>
</svg>