<?xml version="1.0" encoding="UTF-8"?>
<svg id="Layer_1" data-name="Layer 1" xmlns="http://www.w3.org/2000/svg" viewBox="0 0 1500 393.7">
  <defs>
    <style>
      .cls-1 {
        fill: #fff;
      }

      .cls-2 {
        isolation: isolate;
      }

      .cls-3 {
        fill: #e72e7b;
      }

      .cls-4 {
        fill: none;
      }
    </style>
  </defs>
  <g id="text">
    <path id="d" class="cls-3" d="m236.5,56.9c0-3.4,1.2-6.2,3.5-8.6,2.3-2.4,5.1-3.6,8.4-3.6s6,1.2,8.3,3.6c2.3,2.4,3.5,5.3,3.5,8.6v146.2c0,23.6-8.1,43.6-24.2,60.2-16.1,16.7-35.6,25-58.5,25s-42.4-8.3-58.5-25c-16.2-16.6-24.2-36.7-24.2-60.2s8.1-43.6,24.2-60.2c16.1-16.6,35.6-24.9,58.5-24.9s42.3,8.3,58.5,24.9l.6.6-.1-86.6h0Zm0,146.2c0-16.8-5.7-31.2-17.3-43-11.5-11.9-25.5-17.8-41.8-17.8s-30.3,5.9-41.8,17.8c-11.5,11.8-17.3,26.2-17.3,43s5.8,31.2,17.3,43.1c11.5,11.8,25.4,17.8,41.8,17.8s30.3-5.9,41.8-17.8c11.5-11.8,17.3-26.2,17.3-43.1Z"/>
    <path id="d-2" data-name="d" class="cls-3" d="m628.1,56.9c0-3.4,1.2-6.2,3.5-8.6,2.3-2.4,5.1-3.6,8.3-3.6s6,1.2,8.3,3.6c2.3,2.4,3.5,5.3,3.5,8.6v146.2c0,23.6-8.1,43.6-24.2,60.2-16.1,16.7-35.6,25-58.5,25s-42.3-8.3-58.5-25c-16.2-16.6-24.2-36.7-24.2-60.2s8.1-43.6,24.2-60.2c16.2-16.6,35.7-24.9,58.5-24.9s42.3,8.3,58.5,24.9c.2.2.4.4.6.6V56.9h0Zm0,146.2c0-16.8-5.7-31.2-17.3-43-11.5-11.9-25.4-17.8-41.8-17.8s-30.3,5.9-41.8,17.8c-11.5,11.8-17.3,26.2-17.3,43s5.7,31.2,17.3,43.1c11.6,11.8,25.5,17.8,41.8,17.8s30.3-5.9,41.8-17.8c11.6-11.8,17.3-26.2,17.3-43.1Z"/>
    <path id="a" class="cls-3" d="m817.2,262.8c-16.5,17.1-36.2,25.6-59.1,25.6s-42.3-8.3-58.5-25c-16.1-16.6-24.2-36.7-24.2-60.2s8.1-43.6,24.2-60.2c16.1-16.6,35.7-24.9,58.5-24.9s42.3,8.3,58.5,24.9c16.1,16.6,24.2,36.7,24.2,60.2v73c0,3.3-1.1,6.2-3.4,8.6-2.4,2.4-5.1,3.6-8.4,3.6s-6-1.2-8.4-3.6c-2.3-2.4-3.5-5.2-3.5-8.6v-13.4h.1Zm-59.1-120.4c-16.3,0-30.3,5.9-41.8,17.8-11.5,11.8-17.3,26.2-17.3,43s5.8,31.2,17.3,43.1c11.5,11.8,25.5,17.8,41.8,17.8s30.2-5.9,41.8-17.8c11.5-11.9,17.3-26.2,17.3-43.1s-5.7-31.2-17.3-43c-11.6-11.9-25.4-17.8-41.8-17.8Z"/>
    <path id="g" class="cls-3" d="m1006.2,262.8c-.2.2-.4.4-.7.6-16.1,16.7-35.6,25-58.5,25s-42.3-8.3-58.5-25c-16.1-16.6-24.2-36.7-24.2-60.2s8.1-43.6,24.2-60.2c16.2-16.6,35.7-24.9,58.5-24.9s42.4,8.3,58.5,24.9c16.2,16.6,24.2,36.7,24.2,60.2v85.2c0,17.7-6.1,33.2-18.6,46.2-17.3,17.9-38.3,26.8-62.8,26.8s-45.3-8.9-62.6-26.8c-6.4-6.4-11.6-13.5-15.6-21.1-1.1-1.8-1.7-3.9-1.7-6.4,0-3.3,1.1-6.2,3.5-8.6,2.3-2.4,5.1-3.6,8.4-3.6s6,1.2,8.4,3.5c1,1.1,1.8,2.3,2.5,3.7,3,5.5,6.7,10.6,11.4,15.3,12.7,13.1,28,19.6,45.9,19.6s33.3-6.5,45.9-19.6c7.9-9.7,11.9-19.5,11.9-29v-25.6h-.1Zm-59.1-120.4c-16.3,0-30.2,5.9-41.8,17.8-11.5,11.8-17.2,26.2-17.2,43s5.7,31.2,17.2,43.1c11.6,11.8,25.5,17.8,41.8,17.8s30.3-5.9,41.8-17.8c11.6-11.9,17.3-26.2,17.3-43.1s-5.8-31.2-17.3-43c-11.5-11.9-25.4-17.8-41.8-17.8Z"/>
    <path id="e" class="cls-3" d="m1181.7,247c3.2,0,6,1.2,8.4,3.6,2.3,2.4,3.5,5.2,3.5,8.6s-1.2,6.2-3.4,8.6c-15.3,13.7-33.3,20.6-54,20.6-22.8,0-42.3-8.3-58.5-25-16.1-16.6-24.2-36.7-24.2-60.2s8.1-43.6,24.2-60.2,35.6-24.9,58.5-24.9,42.3,8.3,58.5,24.9c16.1,16.6,24.3,36.7,24.3,60.2,0,3.4-1.1,6.3-3.5,8.6-2.3,2.4-5.1,3.6-8.4,3.6h-128.9c2.1,11.7,7.5,22,16.2,30.9,11.5,11.8,25.4,17.8,41.8,17.8,14.8,0,27.5-4.8,38.1-14.5,2.2-1.8,4.6-2.6,7.4-2.6Zm12.5-56c-2.1-11.6-7.5-21.9-16.2-30.8-11.5-11.9-25.4-17.8-41.8-17.8s-30.3,5.9-41.8,17.8c-8.7,8.9-14.1,19.2-16.2,30.8h116Z"/>
    <path id="n" class="cls-3" d="m1381.7,262.8v13.4c0,3.3,1.1,6.2,3.5,8.6s5.1,3.6,8.4,3.6,6-1.2,8.4-3.6c2.3-2.4,3.5-5.2,3.5-8.6v-73.6c0-23.5-8.1-43.6-24.2-60.2-16.2-16.6-35.7-24.9-58.5-24.9s-42.3,8.3-58.5,24.9c-16.1,16.6-24.2,36.7-24.2,60.2v73c0,3.3,1.1,6.2,3.5,8.6s5.1,3.6,8.4,3.6,6-1.2,8.4-3.6c2.3-2.4,3.4-5.2,3.4-8.6v-72.3h0v-1.3c.3-16.3,6-30.3,17.3-41.8,11.5-11.9,25.5-17.8,41.8-17.8s30.2,5.9,41.8,17.8c11.5,11.8,17.2,26,17.3,42.8"/>
  </g>
  <path id="fluga" class="cls-3" d="m459,165.4c-2.1-3.6-5.6-4.8-9.7-4.7-9,.4-20.9,7.5-27,11.2-13.9,8.4-15.3,11.7-29.1,19.5,0,0-.1,0-.1.1-3.9-6.4-11-10.7-19.1-10.7s-15.1,4.3-19.1,10.7c0,0-.1,0-.1-.1-13.8-7.8-15.3-11.1-29.1-19.5-6.1-3.6-18-10.8-27-11.2-4.1-.2-7.6,1.1-9.7,4.7-1.5,2.6-6.1,7.8-6.1,37.8s4.6,35.2,6.1,37.8c6.7,11.5,27.9-1.2,36.7-6.5,13.9-8.3,15.3-11.7,29.1-19.5,0,0,.1,0,.1-.1,3.9,6.4,11,10.7,19.1,10.7s15.1-4.3,19.1-10.7c0,0,.1,0,.1.1,13.8,7.8,15.3,11.1,29.1,19.5,8.8,5.3,30,18,36.7,6.5,1.5-2.6,6.1-7.8,6.1-37.8-.1-30-4.7-35.2-6.1-37.8Z"/>
  <rect class="cls-4" x="157.6" y="302" width="627.8" height="72"/>
  <g class="cls-2">
    <path class="cls-1" d="m160.57,328.76c0-16.05,10.05-27.97,26.25-27.97s26.25,11.92,26.25,27.97-10.05,27.97-26.25,27.97-26.25-11.92-26.25-27.97Zm45.6,0c0-12.6-6.75-22.12-19.35-22.12s-19.35,9.52-19.35,22.12,6.75,22.05,19.35,22.05,19.35-9.45,19.35-22.05Z"/>
    <path class="cls-1" d="m219.07,328.76c0-15.75,9.45-27.97,25.42-27.97,12.52,0,20.1,7.2,21.52,17.1h-6.6c-1.27-6.67-6.6-11.25-15.07-11.25-11.77,0-18.37,9.52-18.37,22.12s7.27,21.97,18.45,21.97c10.12,0,14.92-6.9,15.6-14.77h6.67c-.08,5.33-2.62,11.33-6.45,15.07-3.75,3.67-9.22,5.62-16.05,5.62-15.22,0-25.12-11.62-25.12-27.9Z"/>
    <path class="cls-1" d="m269.02,301.99h42.45v5.92h-17.85v47.7h-6.75v-47.7h-17.85v-5.92Z"/>
    <path class="cls-1" d="m312.75,328.76c0-16.05,10.05-27.97,26.25-27.97s26.25,11.92,26.25,27.97-10.05,27.97-26.25,27.97-26.25-11.92-26.25-27.97Zm45.6,0c0-12.6-6.75-22.12-19.35-22.12s-19.35,9.52-19.35,22.12,6.75,22.05,19.35,22.05,19.35-9.45,19.35-22.05Z"/>
    <path class="cls-1" d="m373.27,301.99h22.72c5.62,0,9.9,1.5,12.9,4.65,2.17,2.25,3.45,5.32,3.45,9.15,0,5.92-3.3,9.6-8.62,11.25v.23c6.07,1.42,10.8,5.77,10.8,12.97,0,4.12-1.42,7.65-3.9,10.27-3,3.22-7.65,5.1-13.42,5.1h-23.92v-53.62Zm21.9,22.95c6.52,0,10.42-3.22,10.42-8.77,0-5.17-3.52-8.33-9.52-8.33h-16.05v17.1h15.15Zm1.73,24.6c3.82,0,6.6-.97,8.4-2.7,1.5-1.58,2.4-3.67,2.4-6.22,0-6.67-4.72-9.97-11.25-9.97h-16.42v18.9h16.87Z"/>
    <path class="cls-1" d="m421.57,301.99h37.87v5.92h-31.12v16.95h28.27v5.7h-28.27v18.82h32.02v6.22h-38.77v-53.62Z"/>
    <path class="cls-1" d="m468.22,301.99h25.05c9.45,0,15.82,5.92,15.82,14.7,0,6.53-2.85,11.17-9.3,13.27v.23c5.47,1.95,7.2,5.7,7.72,13.65.6,8.62,1.5,10.8,2.48,11.47v.3h-7.27c-1.12-.97-1.35-3-1.95-12-.52-7.87-3.67-10.65-10.87-10.65h-14.92v22.65h-6.75v-53.62Zm6.75,25.5h15.9c7.5,0,11.25-3.75,11.25-9.82,0-6.53-3-9.83-10.87-9.83h-16.27v19.65Z"/>
    <path class="cls-1" d="m537.97,318.19h-11.25v-4.2c6.3-.15,11.7-2.48,12.67-10.05h4.87v51.67h-6.3v-37.42Z"/>
    <path class="cls-1" d="m553.74,329.89c0-16.65,7.87-26.85,20.02-26.85s19.87,10.05,19.87,26.85-7.12,26.85-19.95,26.85-19.95-10.5-19.95-26.85Zm33.37,0c0-13.05-4.42-21.45-13.35-21.45s-13.5,8.17-13.5,21.45,4.42,21.37,13.5,21.37,13.35-8.1,13.35-21.37Z"/>
    <path class="cls-1" d="m625.34,331.69c6.75-3.9,10.87-6.53,10.87-12.75s-4.35-10.57-11.17-10.57c-3.6,0-6.3,1.2-8.17,3.22-2.02,2.17-2.92,5.03-2.92,10.27h-6.6c0-6.6,1.73-10.8,4.88-13.95,3.3-3.22,8.1-4.8,13.35-4.8,10.42,0,17.17,6.6,17.17,15.75,0,9.9-6.75,13.2-15,17.77-5.55,3.08-12.67,7.28-14.1,12.97h28.05v6h-35.62c.6-13.72,10.27-18.75,19.27-23.92Z"/>
    <path class="cls-1" d="m648.74,329.89c0-16.65,7.87-26.85,20.02-26.85s19.87,10.05,19.87,26.85-7.12,26.85-19.95,26.85-19.95-10.5-19.95-26.85Zm33.37,0c0-13.05-4.42-21.45-13.35-21.45s-13.5,8.17-13.5,21.45,4.42,21.37,13.5,21.37,13.35-8.1,13.35-21.37Z"/>
    <path class="cls-1" d="m713.17,331.69c6.75-3.9,10.87-6.53,10.87-12.75s-4.35-10.57-11.17-10.57c-3.6,0-6.3,1.2-8.17,3.22-2.02,2.17-2.92,5.03-2.92,10.27h-6.6c0-6.6,1.73-10.8,4.88-13.95,3.3-3.22,8.1-4.8,13.35-4.8,10.42,0,17.17,6.6,17.17,15.75,0,9.9-6.75,13.2-15,17.77-5.55,3.08-12.67,7.28-14.1,12.97h28.05v6h-35.62c.6-13.72,10.27-18.75,19.27-23.92Z"/>
    <path class="cls-1" d="m734.62,338.66h6.22c.23,8.25,5.55,12.82,14.02,12.82,7.12,0,12.15-3.52,12.15-10.8,0-6.52-4.88-9.97-13.5-9.97h-3.22v-4.87h3.15c8.02,0,12.07-3.38,12.07-8.85s-5.02-9-11.17-9c-7.42,0-11.85,4.8-11.85,11.92h-6.15c.08-10.12,6.9-16.88,18.23-16.88,9.52,0,17.1,5.17,17.1,14.1,0,5.78-3.52,9.15-8.47,10.8v.22c7.2,1.88,10.35,6.45,10.35,13.12,0,9.82-8.02,15.45-18.45,15.45-11.32,0-20.25-6.38-20.47-18.07Z"/>
    <path class="cls-1" d="M0.799,0.639 L1,0.639 L1,0.71 Q1,0.722,0.991,0.729 Q0.982,0.737,0.964,0.737 L0.799,0.737 L0.799,1 L0.654,1 L0.654,0.737 L0.066,0.737 Q0.047,0.737,0.034,0.729 Q0.02,0.721,0.017,0.709 L0,0.645 L0.645,0 L0.799,0 M0.654,0.227 Q0.654,0.209,0.655,0.188 Q0.656,0.167,0.661,0.144 L0.179,0.639 L0.654,0.639"/>
  </g>
</svg>