<?xml version="1.0" encoding="utf-8"?>
<!-- Generator: Adobe Illustrator 27.2.0, SVG Export Plug-In . SVG Version: 6.00 Build 0)  -->
<svg version="1.1" id="Layer_1" xmlns="http://www.w3.org/2000/svg" xmlns:xlink="http://www.w3.org/1999/xlink" x="0px" y="0px"
	 viewBox="0 0 1500 388" style="enable-background:new 0 0 1500 388;" xml:space="preserve">
<style type="text/css">
	.st0{fill:#E72E7B;}
</style>
<g id="text">
	<path id="d_1_" class="st0" d="M236.5,56.9c0-3.4,1.2-6.2,3.5-8.6c2.3-2.4,5.1-3.6,8.4-3.6c3.3,0,6,1.2,8.3,3.6
		c2.3,2.4,3.5,5.3,3.5,8.6v146.2c0,23.6-8.1,43.6-24.2,60.2c-16.1,16.7-35.6,25-58.5,25c-22.9,0-42.4-8.3-58.5-25
		c-16.2-16.6-24.2-36.7-24.2-60.2c0-23.5,8.1-43.6,24.2-60.2c16.1-16.6,35.6-24.9,58.5-24.9c22.8,0,42.3,8.3,58.5,24.9
		c0.2,0.2,0.4,0.4,0.6,0.6V56.9z M236.5,203.1c0-16.8-5.7-31.2-17.3-43c-11.5-11.9-25.5-17.8-41.8-17.8c-16.4,0-30.3,5.9-41.8,17.8
		c-11.5,11.8-17.3,26.2-17.3,43c0,16.9,5.8,31.2,17.3,43.1c11.5,11.8,25.4,17.8,41.8,17.8c16.3,0,30.3-5.9,41.8-17.8
		C230.7,234.4,236.5,220,236.5,203.1z"/>
	<path id="d" class="st0" d="M628.1,56.9c0-3.4,1.2-6.2,3.5-8.6c2.3-2.4,5.1-3.6,8.3-3.6c3.2,0,6,1.2,8.3,3.6
		c2.3,2.4,3.5,5.3,3.5,8.6v146.2c0,23.6-8.1,43.6-24.2,60.2c-16.1,16.7-35.6,25-58.5,25c-22.8,0-42.3-8.3-58.5-25
		c-16.2-16.6-24.2-36.7-24.2-60.2c0-23.5,8.1-43.6,24.2-60.2c16.2-16.6,35.7-24.9,58.5-24.9c22.9,0,42.3,8.3,58.5,24.9
		c0.2,0.2,0.4,0.4,0.6,0.6V56.9z M628.1,203.1c0-16.8-5.7-31.2-17.3-43c-11.5-11.9-25.4-17.8-41.8-17.8c-16.3,0-30.3,5.9-41.8,17.8
		c-11.5,11.8-17.3,26.2-17.3,43c0,16.9,5.7,31.2,17.3,43.1C538.8,258,552.7,264,569,264c16.4,0,30.3-5.9,41.8-17.8
		C622.4,234.4,628.1,220,628.1,203.1z"/>
	<path id="a" class="st0" d="M817.2,262.8c-16.5,17.1-36.2,25.6-59.1,25.6c-22.8,0-42.3-8.3-58.5-25c-16.1-16.6-24.2-36.7-24.2-60.2
		c0-23.5,8.1-43.6,24.2-60.2c16.1-16.6,35.7-24.9,58.5-24.9c22.9,0,42.3,8.3,58.5,24.9c16.1,16.6,24.2,36.7,24.2,60.2v73
		c0,3.3-1.1,6.2-3.4,8.6c-2.4,2.4-5.1,3.6-8.4,3.6c-3.3,0-6-1.2-8.4-3.6c-2.3-2.4-3.5-5.2-3.5-8.6V262.8z M758.1,142.4
		c-16.3,0-30.3,5.9-41.8,17.8c-11.5,11.8-17.3,26.2-17.3,43c0,16.9,5.8,31.2,17.3,43.1c11.5,11.8,25.5,17.8,41.8,17.8
		c16.4,0,30.2-5.9,41.8-17.8c11.5-11.9,17.3-26.2,17.3-43.1c0-16.8-5.7-31.2-17.3-43C788.3,148.3,774.5,142.4,758.1,142.4z"/>
	<path id="g" class="st0" d="M1006.2,262.8c-0.2,0.2-0.4,0.4-0.7,0.6c-16.1,16.7-35.6,25-58.5,25c-22.8,0-42.3-8.3-58.5-25
		c-16.1-16.6-24.2-36.7-24.2-60.2c0-23.5,8.1-43.6,24.2-60.2c16.2-16.6,35.7-24.9,58.5-24.9c22.9,0,42.4,8.3,58.5,24.9
		c16.2,16.6,24.2,36.7,24.2,60.2v85.2c0,17.7-6.1,33.2-18.6,46.2c-17.3,17.9-38.3,26.8-62.8,26.8c-24.5,0-45.3-8.9-62.6-26.8
		c-6.4-6.4-11.6-13.5-15.6-21.1c-1.1-1.8-1.7-3.9-1.7-6.4c0-3.3,1.1-6.2,3.5-8.6c2.3-2.4,5.1-3.6,8.4-3.6c3.2,0,6,1.2,8.4,3.5
		c1,1.1,1.8,2.3,2.5,3.7c3,5.5,6.7,10.6,11.4,15.3c12.7,13.1,28,19.6,45.9,19.6c17.9,0,33.3-6.5,45.9-19.6
		c7.9-9.7,11.9-19.5,11.9-29V262.8z M947.1,142.4c-16.3,0-30.2,5.9-41.8,17.8c-11.5,11.8-17.2,26.2-17.2,43
		c0,16.9,5.7,31.2,17.2,43.1c11.6,11.8,25.5,17.8,41.8,17.8c16.4,0,30.3-5.9,41.8-17.8c11.6-11.9,17.3-26.2,17.3-43.1
		c0-16.8-5.8-31.2-17.3-43C977.4,148.3,963.5,142.4,947.1,142.4z"/>
	<path id="e" class="st0" d="M1181.7,247c3.2,0,6,1.2,8.4,3.6c2.3,2.4,3.5,5.2,3.5,8.6c0,3.4-1.2,6.2-3.4,8.6
		c-15.3,13.7-33.3,20.6-54,20.6c-22.8,0-42.3-8.3-58.5-25c-16.1-16.6-24.2-36.7-24.2-60.2c0-23.5,8.1-43.6,24.2-60.2
		c16.1-16.6,35.6-24.9,58.5-24.9c22.9,0,42.3,8.3,58.5,24.9c16.1,16.6,24.3,36.7,24.3,60.2c0,3.4-1.1,6.3-3.5,8.6
		c-2.3,2.4-5.1,3.6-8.4,3.6h-128.9c2.1,11.7,7.5,22,16.2,30.9c11.5,11.8,25.4,17.8,41.8,17.8c14.8,0,27.5-4.8,38.1-14.5
		C1176.5,247.8,1178.9,247,1181.7,247z M1194.2,191c-2.1-11.6-7.5-21.9-16.2-30.8c-11.5-11.9-25.4-17.8-41.8-17.8
		c-16.3,0-30.3,5.9-41.8,17.8c-8.7,8.9-14.1,19.2-16.2,30.8H1194.2z"/>
	<path id="n" class="st0" d="M1381.7,262.8v13.4c0,3.3,1.1,6.2,3.5,8.6c2.4,2.4,5.1,3.6,8.4,3.6s6-1.2,8.4-3.6
		c2.3-2.4,3.5-5.2,3.5-8.6v-73c0-0.1,0-0.2,0-0.3c0-0.1,0-0.2,0-0.3c0-23.5-8.1-43.6-24.2-60.2c-16.2-16.6-35.7-24.9-58.5-24.9
		c-22.9,0-42.3,8.3-58.5,24.9c-16.1,16.6-24.2,36.7-24.2,60.2v73c0,3.3,1.1,6.2,3.5,8.6c2.4,2.4,5.1,3.6,8.4,3.6
		c3.3,0,6-1.2,8.4-3.6c2.3-2.4,3.4-5.2,3.4-8.6v-8.2v-0.7v-3.9v-59.5l0,0c0-0.2,0-0.3,0-0.5c0-0.3,0-0.5,0-0.8
		c0.3-16.3,6-30.3,17.3-41.8c11.5-11.9,25.5-17.8,41.8-17.8c16.4,0,30.2,5.9,41.8,17.8c11.5,11.8,17.2,26,17.3,42.8"/>
</g>
<path id="fluga" class="st0" d="M459,165.4c-2.1-3.6-5.6-4.8-9.7-4.7c-9,0.4-20.9,7.5-27,11.2c-13.9,8.4-15.3,11.7-29.1,19.5
	c0,0-0.1,0-0.1,0.1c-3.9-6.4-11-10.7-19.1-10.7c-8.1,0-15.1,4.3-19.1,10.7c0,0-0.1,0-0.1-0.1c-13.8-7.8-15.3-11.1-29.1-19.5
	c-6.1-3.6-18-10.8-27-11.2c-4.1-0.2-7.6,1.1-9.7,4.7c-1.5,2.6-6.1,7.8-6.1,37.8c0,30,4.6,35.2,6.1,37.8c6.7,11.5,27.9-1.2,36.7-6.5
	c13.9-8.3,15.3-11.7,29.1-19.5c0,0,0.1,0,0.1-0.1c3.9,6.4,11,10.7,19.1,10.7c8.1,0,15.1-4.3,19.1-10.7c0,0,0.1,0,0.1,0.1
	c13.8,7.8,15.3,11.1,29.1,19.5c8.8,5.3,30,18,36.7,6.5c1.5-2.6,6.1-7.8,6.1-37.8C465,173.2,460.4,168,459,165.4z"/>
</svg>
