<?xml version="1.0" encoding="UTF-8"?>
<svg id="Layer_1" data-name="Layer 1" xmlns="http://www.w3.org/2000/svg" viewBox="0 0 1500 393.7">
  <defs>
    <style>
      .cls-1 {
        fill: #fff;
      }

      .cls-2 {
        isolation: isolate;
      }

      .cls-3 {
        fill: #e72e7b;
      }

      .cls-4 {
        fill: none;
      }
    </style>
  </defs>
  <g id="text">
    <path id="d" class="cls-3" d="m236.5,56.9c0-3.4,1.2-6.2,3.5-8.6,2.3-2.4,5.1-3.6,8.4-3.6s6,1.2,8.3,3.6c2.3,2.4,3.5,5.3,3.5,8.6v146.2c0,23.6-8.1,43.6-24.2,60.2-16.1,16.7-35.6,25-58.5,25s-42.4-8.3-58.5-25c-16.2-16.6-24.2-36.7-24.2-60.2s8.1-43.6,24.2-60.2c16.1-16.6,35.6-24.9,58.5-24.9s42.3,8.3,58.5,24.9l.6.6-.1-86.6h0Zm0,146.2c0-16.8-5.7-31.2-17.3-43-11.5-11.9-25.5-17.8-41.8-17.8s-30.3,5.9-41.8,17.8c-11.5,11.8-17.3,26.2-17.3,43s5.8,31.2,17.3,43.1c11.5,11.8,25.4,17.8,41.8,17.8s30.3-5.9,41.8-17.8c11.5-11.8,17.3-26.2,17.3-43.1Z"/>
    <path id="d-2" data-name="d" class="cls-3" d="m628.1,56.9c0-3.4,1.2-6.2,3.5-8.6,2.3-2.4,5.1-3.6,8.3-3.6s6,1.2,8.3,3.6c2.3,2.4,3.5,5.3,3.5,8.6v146.2c0,23.6-8.1,43.6-24.2,60.2-16.1,16.7-35.6,25-58.5,25s-42.3-8.3-58.5-25c-16.2-16.6-24.2-36.7-24.2-60.2s8.1-43.6,24.2-60.2c16.2-16.6,35.7-24.9,58.5-24.9s42.3,8.3,58.5,24.9c.2.2.4.4.6.6V56.9h0Zm0,146.2c0-16.8-5.7-31.2-17.3-43-11.5-11.9-25.4-17.8-41.8-17.8s-30.3,5.9-41.8,17.8c-11.5,11.8-17.3,26.2-17.3,43s5.7,31.2,17.3,43.1c11.6,11.8,25.5,17.8,41.8,17.8s30.3-5.9,41.8-17.8c11.6-11.8,17.3-26.2,17.3-43.1Z"/>
    <path id="a" class="cls-3" d="m817.2,262.8c-16.5,17.1-36.2,25.6-59.1,25.6s-42.3-8.3-58.5-25c-16.1-16.6-24.2-36.7-24.2-60.2s8.1-43.6,24.2-60.2c16.1-16.6,35.7-24.9,58.5-24.9s42.3,8.3,58.5,24.9c16.1,16.6,24.2,36.7,24.2,60.2v73c0,3.3-1.1,6.2-3.4,8.6-2.4,2.4-5.1,3.6-8.4,3.6s-6-1.2-8.4-3.6c-2.3-2.4-3.5-5.2-3.5-8.6v-13.4h.1Zm-59.1-120.4c-16.3,0-30.3,5.9-41.8,17.8-11.5,11.8-17.3,26.2-17.3,43s5.8,31.2,17.3,43.1c11.5,11.8,25.5,17.8,41.8,17.8s30.2-5.9,41.8-17.8c11.5-11.9,17.3-26.2,17.3-43.1s-5.7-31.2-17.3-43c-11.6-11.9-25.4-17.8-41.8-17.8Z"/>
    <path id="g" class="cls-3" d="m1006.2,262.8c-.2.2-.4.4-.7.6-16.1,16.7-35.6,25-58.5,25s-42.3-8.3-58.5-25c-16.1-16.6-24.2-36.7-24.2-60.2s8.1-43.6,24.2-60.2c16.2-16.6,35.7-24.9,58.5-24.9s42.4,8.3,58.5,24.9c16.2,16.6,24.2,36.7,24.2,60.2v85.2c0,17.7-6.1,33.2-18.6,46.2-17.3,17.9-38.3,26.8-62.8,26.8s-45.3-8.9-62.6-26.8c-6.4-6.4-11.6-13.5-15.6-21.1-1.1-1.8-1.7-3.9-1.7-6.4,0-3.3,1.1-6.2,3.5-8.6,2.3-2.4,5.1-3.6,8.4-3.6s6,1.2,8.4,3.5c1,1.1,1.8,2.3,2.5,3.7,3,5.5,6.7,10.6,11.4,15.3,12.7,13.1,28,19.6,45.9,19.6s33.3-6.5,45.9-19.6c7.9-9.7,11.9-19.5,11.9-29v-25.6h-.1Zm-59.1-120.4c-16.3,0-30.2,5.9-41.8,17.8-11.5,11.8-17.2,26.2-17.2,43s5.7,31.2,17.2,43.1c11.6,11.8,25.5,17.8,41.8,17.8s30.3-5.9,41.8-17.8c11.6-11.9,17.3-26.2,17.3-43.1s-5.8-31.2-17.3-43c-11.5-11.9-25.4-17.8-41.8-17.8Z"/>
    <path id="e" class="cls-3" d="m1181.7,247c3.2,0,6,1.2,8.4,3.6,2.3,2.4,3.5,5.2,3.5,8.6s-1.2,6.2-3.4,8.6c-15.3,13.7-33.3,20.6-54,20.6-22.8,0-42.3-8.3-58.5-25-16.1-16.6-24.2-36.7-24.2-60.2s8.1-43.6,24.2-60.2c16.1-16.6,35.6-24.9,58.5-24.9s42.3,8.3,58.5,24.9c16.1,16.6,24.3,36.7,24.3,60.2,0,3.4-1.1,6.3-3.5,8.6-2.3,2.4-5.1,3.6-8.4,3.6h-128.9c2.1,11.7,7.5,22,16.2,30.9,11.5,11.8,25.4,17.8,41.8,17.8,14.8,0,27.5-4.8,38.1-14.5,2.2-1.8,4.6-2.6,7.4-2.6Zm12.5-56c-2.1-11.6-7.5-21.9-16.2-30.8-11.5-11.9-25.4-17.8-41.8-17.8s-30.3,5.9-41.8,17.8c-8.7,8.9-14.1,19.2-16.2,30.8h116Z"/>
    <path id="n" class="cls-3" d="m1381.7,262.8v13.4c0,3.3,1.1,6.2,3.5,8.6,2.4,2.4,5.1,3.6,8.4,3.6s6-1.2,8.4-3.6c2.3-2.4,3.5-5.2,3.5-8.6v-73.6c0-23.5-8.1-43.6-24.2-60.2-16.2-16.6-35.7-24.9-58.5-24.9s-42.3,8.3-58.5,24.9c-16.1,16.6-24.2,36.7-24.2,60.2v73c0,3.3,1.1,6.2,3.5,8.6s5.1,3.6,8.4,3.6,6-1.2,8.4-3.6c2.3-2.4,3.4-5.2,3.4-8.6v-72.3h0v-1.3c.3-16.3,6-30.3,17.3-41.8,11.5-11.9,25.5-17.8,41.8-17.8s30.2,5.9,41.8,17.8c11.5,11.8,17.2,26,17.3,42.8"/>
  </g>
  <path id="fluga" class="cls-3" d="m459,165.4c-2.1-3.6-5.6-4.8-9.7-4.7-9,.4-20.9,7.5-27,11.2-13.9,8.4-15.3,11.7-29.1,19.5,0,0-.1,0-.1.1-3.9-6.4-11-10.7-19.1-10.7s-15.1,4.3-19.1,10.7c0,0-.1,0-.1-.1-13.8-7.8-15.3-11.1-29.1-19.5-6.1-3.6-18-10.8-27-11.2-4.1-.2-7.6,1.1-9.7,4.7-1.5,2.6-6.1,7.8-6.1,37.8s4.6,35.2,6.1,37.8c6.7,11.5,27.9-1.2,36.7-6.5,13.9-8.3,15.3-11.7,29.1-19.5,0,0,.1,0,.1-.1,3.9,6.4,11,10.7,19.1,10.7s15.1-4.3,19.1-10.7c0,0,.1,0,.1.1,13.8,7.8,15.3,11.1,29.1,19.5,8.8,5.3,30,18,36.7,6.5,1.5-2.6,6.1-7.8,6.1-37.8-.1-30-4.7-35.2-6.1-37.8Z"/>
  <rect class="cls-4" x="157.6" y="302" width="627.8" height="72"/>
  <g class="cls-2">
    <path class="cls-1" d="M202.489,361.302v-37.08h-10.368v-3.168c3.84-0.191,6.612-0.923,8.316-2.195 c1.703-1.271,2.772-3.66,3.204-7.164h3.528v49.607H202.489z"/>
    <path class="cls-1" d="M234.241,362.31c-5.76,0-10.236-2.304-13.428-6.911c-3.193-4.608-4.788-10.872-4.788-18.792  c0-7.968,1.644-14.244,4.932-18.828c3.287-4.584,7.74-6.876,13.356-6.876c5.616,0,10.055,2.28,13.32,6.84 c3.263,4.561,4.896,10.849,4.896,18.864c0,7.968-1.597,14.244-4.788,18.827C244.548,360.019,240.048,362.31,234.241,362.31z  M234.312,358.278c4.416,0,7.751-1.896,10.008-5.688c2.255-3.791,3.384-9.119,3.384-15.983c0-6.72-1.165-12.024-3.492-15.912 c-2.329-3.889-5.628-5.832-9.9-5.832c-4.32,0-7.645,1.907-9.972,5.724c-2.329,3.816-3.492,9.156-3.492,16.021 c0,6.721,1.163,12.013,3.492,15.876C226.668,356.347,229.993,358.278,234.312,358.278z"/>
    <path class="cls-1" d="M292.56,362.31c-7.153,0-12.924-2.52-17.316-7.56c-4.392-5.04-6.588-11.448-6.588-19.224  c0-7.776,2.196-14.185,6.588-19.225c4.392-5.04,10.163-7.56,17.316-7.56c7.2,0,13.007,2.52,17.424,7.56  c4.416,5.04,6.624,11.448,6.624,19.225c0,7.775-2.208,14.184-6.624,19.224C305.567,359.79,299.759,362.31,292.56,362.31z   M292.56,357.99c6,0,10.667-2.124,14.004-6.372c3.335-4.248,5.004-9.612,5.004-16.092c0-6.48-1.668-11.845-5.004-16.093  c-3.337-4.248-8.004-6.372-14.004-6.372c-5.953,0-10.584,2.124-13.896,6.372s-4.968,9.612-4.968,16.093  c0,6.479,1.656,11.844,4.968,16.092S286.607,357.99,292.56,357.99z"/>
    <path class="cls-1" d="M323.807,361.302v-51.479h4.824v27.432l27.792-27.432h6.264l-21.528,20.952l22.824,30.527h-5.76   l-20.376-27.216l-9.216,9.072v18.144H323.807z"/>
    <path class="cls-1" d="M382.991,361.302v-47.16h-17.424v-4.319h39.6v4.319h-17.352v47.16H382.991z"/>
    <path class="cls-1" d="M429.432,362.31c-7.153,0-12.924-2.52-17.316-7.56c-4.392-5.04-6.588-11.448-6.588-19.224  c0-7.776,2.196-14.185,6.588-19.225c4.392-5.04,10.163-7.56,17.316-7.56c7.2,0,13.007,2.52,17.424,7.56  c4.416,5.04,6.624,11.448,6.624,19.225c0,7.775-2.208,14.184-6.624,19.224C442.439,359.79,436.631,362.31,429.432,362.31z   M429.432,357.99c6,0,10.667-2.124,14.004-6.372c3.335-4.248,5.004-9.612,5.004-16.092c0-6.48-1.668-11.845-5.004-16.093  c-3.337-4.248-8.004-6.372-14.004-6.372c-5.953,0-10.584,2.124-13.896,6.372s-4.968,9.612-4.968,16.093  c0,6.479,1.656,11.844,4.968,16.092S423.479,357.99,429.432,357.99z"/>
    <path class="cls-1" d="M460.679,361.302v-51.479h21.384c4.655,0,8.303,1.248,10.944,3.744  c2.495,2.256,3.744,5.327,3.744,9.216c0,5.616-2.617,9.336-7.848,11.16v0.216c3.071,0.864,5.508,2.364,7.308,4.5  c1.8,2.136,2.7,4.859,2.7,8.172c0,4.129-1.249,7.488-3.744,10.08c-2.833,2.928-6.889,4.392-12.168,4.392H460.679z M465.503,332.43  h16.488c3.12,0,5.544-0.839,7.272-2.52c1.728-1.68,2.592-3.936,2.592-6.769c0-2.88-0.864-5.111-2.592-6.695  s-4.104-2.376-7.128-2.376h-16.632V332.43z M465.503,356.91h17.208c3.744,0,6.647-0.983,8.712-2.952  c1.728-1.728,2.592-4.079,2.592-7.056c0-3.216-1.02-5.735-3.06-7.561c-2.041-1.823-4.788-2.735-8.244-2.735h-17.208V356.91z"/>
    <path class="cls-1" d="M505.534,361.302v-51.479h34.992v4.248h-30.168v18.504h27.648v4.176h-27.648v20.088h30.96v4.464  H505.534z"/>
    <path class="cls-1" d="M548.589,361.302v-51.479h22.968c4.608,0,8.195,1.236,10.764,3.708  c2.567,2.473,3.852,5.868,3.852,10.188c0,6.433-2.88,10.561-8.64,12.384v0.217c2.592,0.863,4.428,2.34,5.508,4.428  s1.715,5.173,1.908,9.252c0.288,6.528,1.032,10.2,2.232,11.016v0.288h-5.184c-0.576-0.384-0.972-1.296-1.188-2.735  c-0.216-1.44-0.444-4.367-0.684-8.784c-0.192-4.367-1.116-7.368-2.772-9c-1.656-1.632-4.404-2.448-8.244-2.448h-15.696v22.968  H548.589z M553.413,334.23h16.488c3.696,0,6.504-0.876,8.424-2.629c1.919-1.751,2.88-4.235,2.88-7.451  c0-3.312-0.84-5.82-2.52-7.524c-1.681-1.703-4.392-2.556-8.136-2.556h-17.136V334.23z"/>
    <path class="cls-1" d="M602.517,361.302c0.047-1.775,0.263-3.456,0.648-5.04c0.383-1.584,0.815-2.939,1.296-4.067  c0.479-1.128,1.248-2.305,2.304-3.528c1.056-1.224,1.896-2.16,2.52-2.808c0.624-0.648,1.692-1.5,3.204-2.557  c1.512-1.055,2.567-1.764,3.168-2.124c0.6-0.359,1.739-1.044,3.42-2.052c4.176-2.495,6.864-4.344,8.064-5.544  c2.16-2.16,3.24-4.871,3.24-8.136c0-3.264-0.961-5.832-2.88-7.704c-1.92-1.872-4.513-2.809-7.776-2.809  c-3.504,0-6.241,1.057-8.208,3.168c-2.016,2.209-3.049,5.449-3.096,9.721h-4.752c0-5.328,1.463-9.456,4.392-12.384  c2.976-2.977,6.959-4.465,11.952-4.465c4.56,0,8.219,1.357,10.98,4.068c2.76,2.712,4.14,6.133,4.14,10.26  c0,2.209-0.3,4.152-0.9,5.832c-0.601,1.681-1.656,3.229-3.168,4.645c-1.512,1.416-2.785,2.483-3.816,3.204  c-1.033,0.72-2.7,1.752-5.004,3.096c-0.241,0.144-0.409,0.252-0.504,0.324c-0.097,0.071-0.241,0.156-0.432,0.252  c-0.192,0.097-0.36,0.192-0.504,0.288c-1.872,1.104-3.336,2.016-4.392,2.735c-1.057,0.721-2.293,1.681-3.708,2.88  c-1.417,1.201-2.52,2.497-3.312,3.889c-0.792,1.393-1.309,2.904-1.548,4.536h26.64v4.319H602.517z"/>
    <path class="cls-1" d="M658.604,362.31c-5.76,0-10.236-2.304-13.428-6.911c-3.193-4.608-4.788-10.872-4.788-18.792  c0-7.968,1.644-14.244,4.932-18.828c3.287-4.584,7.74-6.876,13.356-6.876c5.616,0,10.055,2.28,13.32,6.84  c3.263,4.561,4.896,10.849,4.896,18.864c0,7.968-1.597,14.244-4.788,18.827C668.911,360.019,664.411,362.31,658.604,362.31z   M658.676,358.278c4.416,0,7.751-1.896,10.008-5.688c2.255-3.791,3.384-9.119,3.384-15.983c0-6.72-1.165-12.024-3.492-15.912  c-2.329-3.889-5.628-5.832-9.9-5.832c-4.32,0-7.645,1.907-9.972,5.724c-2.329,3.816-3.492,9.156-3.492,16.021  c0,6.721,1.163,12.013,3.492,15.876C651.031,356.347,654.356,358.278,658.676,358.278z"/>
    <path class="cls-1" d="M681.572,361.302c0.047-1.775,0.263-3.456,0.648-5.04c0.383-1.584,0.815-2.939,1.296-4.067  c0.479-1.128,1.248-2.305,2.304-3.528c1.056-1.224,1.896-2.16,2.52-2.808c0.624-0.648,1.692-1.5,3.204-2.557  c1.512-1.055,2.567-1.764,3.168-2.124c0.6-0.359,1.739-1.044,3.42-2.052c4.176-2.495,6.864-4.344,8.064-5.544  c2.16-2.16,3.24-4.871,3.24-8.136c0-3.264-0.961-5.832-2.88-7.704c-1.92-1.872-4.513-2.809-7.776-2.809  c-3.504,0-6.241,1.057-8.208,3.168c-2.016,2.209-3.049,5.449-3.096,9.721h-4.752c0-5.328,1.463-9.456,4.392-12.384  c2.976-2.977,6.959-4.465,11.952-4.465c4.56,0,8.219,1.357,10.98,4.068c2.76,2.712,4.14,6.133,4.14,10.26  c0,2.209-0.3,4.152-0.9,5.832c-0.601,1.681-1.656,3.229-3.168,4.645c-1.512,1.416-2.785,2.483-3.816,3.204  c-1.033,0.72-2.7,1.752-5.004,3.096c-0.241,0.144-0.409,0.252-0.504,0.324c-0.097,0.071-0.241,0.156-0.432,0.252  c-0.192,0.097-0.36,0.192-0.504,0.288c-1.872,1.104-3.336,2.016-4.392,2.735c-1.057,0.721-2.293,1.681-3.708,2.88  c-1.417,1.201-2.52,2.497-3.312,3.889c-0.792,1.393-1.309,2.904-1.548,4.536h26.64v4.319H681.572z"/>
    <path class="cls-1" d="M739.315,361.302v-12.6h-23.04v-4.32l23.688-32.904h3.888v33.337h7.632v3.888h-7.632v12.6H739.315z M720.956,344.814h18.36v-25.488h-0.144l-18.216,25.271V344.814z"/>
  </g>
  
  <text/>
</svg>