<?xml version="1.0" encoding="UTF-8"?>
<svg id="Layer_1" data-name="Layer 1" xmlns="http://www.w3.org/2000/svg" viewBox="0 0 1500 393.7">
  <defs>
    <style>
      .cls-1 {
        fill: #fff;
      }

      .cls-2 {
        isolation: isolate;
      }

      .cls-3 {
        fill: #e72e7b;
      }

      .cls-4 {
        fill: none;
      }
    </style>
  </defs>
  <g id="text">
    <path id="d" class="cls-3" d="m236.5,56.9c0-3.4,1.2-6.2,3.5-8.6,2.3-2.4,5.1-3.6,8.4-3.6s6,1.2,8.3,3.6c2.3,2.4,3.5,5.3,3.5,8.6v146.2c0,23.6-8.1,43.6-24.2,60.2-16.1,16.7-35.6,25-58.5,25s-42.4-8.3-58.5-25c-16.2-16.6-24.2-36.7-24.2-60.2s8.1-43.6,24.2-60.2c16.1-16.6,35.6-24.9,58.5-24.9s42.3,8.3,58.5,24.9l.6.6-.1-86.6h0Zm0,146.2c0-16.8-5.7-31.2-17.3-43-11.5-11.9-25.5-17.8-41.8-17.8s-30.3,5.9-41.8,17.8c-11.5,11.8-17.3,26.2-17.3,43s5.8,31.2,17.3,43.1c11.5,11.8,25.4,17.8,41.8,17.8s30.3-5.9,41.8-17.8c11.5-11.8,17.3-26.2,17.3-43.1Z"/>
    <path id="d-2" data-name="d" class="cls-3" d="m628.1,56.9c0-3.4,1.2-6.2,3.5-8.6,2.3-2.4,5.1-3.6,8.3-3.6s6,1.2,8.3,3.6c2.3,2.4,3.5,5.3,3.5,8.6v146.2c0,23.6-8.1,43.6-24.2,60.2-16.1,16.7-35.6,25-58.5,25s-42.3-8.3-58.5-25c-16.2-16.6-24.2-36.7-24.2-60.2s8.1-43.6,24.2-60.2c16.2-16.6,35.7-24.9,58.5-24.9s42.3,8.3,58.5,24.9c.2.2.4.4.6.6V56.9h0Zm0,146.2c0-16.8-5.7-31.2-17.3-43-11.5-11.9-25.4-17.8-41.8-17.8s-30.3,5.9-41.8,17.8c-11.5,11.8-17.3,26.2-17.3,43s5.7,31.2,17.3,43.1c11.6,11.8,25.5,17.8,41.8,17.8s30.3-5.9,41.8-17.8c11.6-11.8,17.3-26.2,17.3-43.1Z"/>
    <path id="a" class="cls-3" d="m817.2,262.8c-16.5,17.1-36.2,25.6-59.1,25.6s-42.3-8.3-58.5-25c-16.1-16.6-24.2-36.7-24.2-60.2s8.1-43.6,24.2-60.2c16.1-16.6,35.7-24.9,58.5-24.9s42.3,8.3,58.5,24.9c16.1,16.6,24.2,36.7,24.2,60.2v73c0,3.3-1.1,6.2-3.4,8.6-2.4,2.4-5.1,3.6-8.4,3.6s-6-1.2-8.4-3.6c-2.3-2.4-3.5-5.2-3.5-8.6v-13.4h.1Zm-59.1-120.4c-16.3,0-30.3,5.9-41.8,17.8-11.5,11.8-17.3,26.2-17.3,43s5.8,31.2,17.3,43.1c11.5,11.8,25.5,17.8,41.8,17.8s30.2-5.9,41.8-17.8c11.5-11.9,17.3-26.2,17.3-43.1s-5.7-31.2-17.3-43c-11.6-11.9-25.4-17.8-41.8-17.8Z"/>
    <path id="g" class="cls-3" d="m1006.2,262.8c-.2.2-.4.4-.7.6-16.1,16.7-35.6,25-58.5,25s-42.3-8.3-58.5-25c-16.1-16.6-24.2-36.7-24.2-60.2s8.1-43.6,24.2-60.2c16.2-16.6,35.7-24.9,58.5-24.9s42.4,8.3,58.5,24.9c16.2,16.6,24.2,36.7,24.2,60.2v85.2c0,17.7-6.1,33.2-18.6,46.2-17.3,17.9-38.3,26.8-62.8,26.8s-45.3-8.9-62.6-26.8c-6.4-6.4-11.6-13.5-15.6-21.1-1.1-1.8-1.7-3.9-1.7-6.4,0-3.3,1.1-6.2,3.5-8.6,2.3-2.4,5.1-3.6,8.4-3.6s6,1.2,8.4,3.5c1,1.1,1.8,2.3,2.5,3.7,3,5.5,6.7,10.6,11.4,15.3,12.7,13.1,28,19.6,45.9,19.6s33.3-6.5,45.9-19.6c7.9-9.7,11.9-19.5,11.9-29v-25.6h-.1Zm-59.1-120.4c-16.3,0-30.2,5.9-41.8,17.8-11.5,11.8-17.2,26.2-17.2,43s5.7,31.2,17.2,43.1c11.6,11.8,25.5,17.8,41.8,17.8s30.3-5.9,41.8-17.8c11.6-11.9,17.3-26.2,17.3-43.1s-5.8-31.2-17.3-43c-11.5-11.9-25.4-17.8-41.8-17.8Z"/>
    <path id="e" class="cls-3" d="m1181.7,247c3.2,0,6,1.2,8.4,3.6,2.3,2.4,3.5,5.2,3.5,8.6s-1.2,6.2-3.4,8.6c-15.3,13.7-33.3,20.6-54,20.6-22.8,0-42.3-8.3-58.5-25-16.1-16.6-24.2-36.7-24.2-60.2s8.1-43.6,24.2-60.2,35.6-24.9,58.5-24.9,42.3,8.3,58.5,24.9c16.1,16.6,24.3,36.7,24.3,60.2,0,3.4-1.1,6.3-3.5,8.6-2.3,2.4-5.1,3.6-8.4,3.6h-128.9c2.1,11.7,7.5,22,16.2,30.9,11.5,11.8,25.4,17.8,41.8,17.8,14.8,0,27.5-4.8,38.1-14.5,2.2-1.8,4.6-2.6,7.4-2.6Zm12.5-56c-2.1-11.6-7.5-21.9-16.2-30.8-11.5-11.9-25.4-17.8-41.8-17.8s-30.3,5.9-41.8,17.8c-8.7,8.9-14.1,19.2-16.2,30.8h116Z"/>
    <path id="n" class="cls-3" d="m1381.7,262.8v13.4c0,3.3,1.1,6.2,3.5,8.6s5.1,3.6,8.4,3.6,6-1.2,8.4-3.6c2.3-2.4,3.5-5.2,3.5-8.6v-73.6c0-23.5-8.1-43.6-24.2-60.2-16.2-16.6-35.7-24.9-58.5-24.9s-42.3,8.3-58.5,24.9c-16.1,16.6-24.2,36.7-24.2,60.2v73c0,3.3,1.1,6.2,3.5,8.6s5.1,3.6,8.4,3.6,6-1.2,8.4-3.6c2.3-2.4,3.4-5.2,3.4-8.6v-72.3h0v-1.3c.3-16.3,6-30.3,17.3-41.8,11.5-11.9,25.5-17.8,41.8-17.8s30.2,5.9,41.8,17.8c11.5,11.8,17.2,26,17.3,42.8"/>
  </g>
  <path id="fluga" class="cls-3" d="m459,165.4c-2.1-3.6-5.6-4.8-9.7-4.7-9,.4-20.9,7.5-27,11.2-13.9,8.4-15.3,11.7-29.1,19.5,0,0-.1,0-.1.1-3.9-6.4-11-10.7-19.1-10.7s-15.1,4.3-19.1,10.7c0,0-.1,0-.1-.1-13.8-7.8-15.3-11.1-29.1-19.5-6.1-3.6-18-10.8-27-11.2-4.1-.2-7.6,1.1-9.7,4.7-1.5,2.6-6.1,7.8-6.1,37.8s4.6,35.2,6.1,37.8c6.7,11.5,27.9-1.2,36.7-6.5,13.9-8.3,15.3-11.7,29.1-19.5,0,0,.1,0,.1-.1,3.9,6.4,11,10.7,19.1,10.7s15.1-4.3,19.1-10.7c0,0,.1,0,.1.1,13.8,7.8,15.3,11.1,29.1,19.5,8.8,5.3,30,18,36.7,6.5,1.5-2.6,6.1-7.8,6.1-37.8-.1-30-4.7-35.2-6.1-37.8Z"/>
  <rect class="cls-4" x="157.6" y="302" width="627.8" height="72"/>
  <g class="cls-2">

    
  <path class="cls-1" d="M214.722,362.408c-7.153,0-12.924-2.52-17.316-7.56c-4.392-5.04-6.588-11.448-6.588-19.225c0-7.775,2.196-14.184,6.588-19.224c4.392-5.04,10.163-7.561,17.316-7.561c7.2,0,13.007,2.521,17.424,7.561c4.416,5.04,6.624,11.448,6.624,19.224c0,7.776-2.208,14.185-6.624,19.225C227.729,359.889,221.922,362.408,214.722,362.408z M214.722,358.089c6,0,10.667-2.124,14.004-6.372c3.335-4.248,5.004-9.612,5.004-16.093c0-6.479-1.668-11.844-5.004-16.092c-3.337-4.248-8.004-6.372-14.004-6.372c-5.953,0-10.584,2.124-13.896,6.372s-4.968,9.612-4.968,16.092c0,6.48,1.656,11.845,4.968,16.093S208.77,358.089,214.722,358.089z"/>
	<path class="cls-1" d="M267.137,362.336c-7.104,0-12.744-2.447-16.92-7.344c-4.176-4.896-6.264-11.327-6.264-19.296c0-7.92,2.112-14.375,6.336-19.368c4.223-4.991,9.911-7.488,17.064-7.488c5.375,0,9.803,1.393,13.284,4.177c3.48,2.784,5.652,6.601,6.516,11.448h-4.752c-0.72-3.456-2.401-6.229-5.04-8.316c-2.64-2.088-6.001-3.132-10.08-3.132c-5.808,0-10.308,2.124-13.5,6.372c-3.193,4.248-4.788,9.684-4.788,16.308s1.595,12.013,4.788,16.164c3.192,4.152,7.668,6.229,13.428,6.229c4.752,0,8.52-1.44,11.304-4.32c2.783-2.88,4.392-6.576,4.824-11.088h4.68c-0.288,5.425-2.064,9.912-5.328,13.464C278.993,360.273,273.809,362.336,267.137,362.336z"/>
	<path class="cls-1" d="M306.736,361.4v-47.16h-17.424v-4.32h39.6v4.32h-17.352v47.16H306.736z"/>
	<path class="cls-1" d="M353.177,362.408c-7.153,0-12.924-2.52-17.316-7.56c-4.392-5.04-6.588-11.448-6.588-19.225c0-7.775,2.196-14.184,6.588-19.224c4.392-5.04,10.163-7.561,17.316-7.561c7.2,0,13.007,2.521,17.424,7.561c4.416,5.04,6.624,11.448,6.624,19.224c0,7.776-2.208,14.185-6.624,19.225C366.185,359.889,360.377,362.408,353.177,362.408z M353.177,358.089c6,0,10.667-2.124,14.004-6.372c3.335-4.248,5.004-9.612,5.004-16.093c0-6.479-1.668-11.844-5.004-16.092c-3.337-4.248-8.004-6.372-14.004-6.372c-5.953,0-10.584,2.124-13.896,6.372s-4.968,9.612-4.968,16.092c0,6.48,1.656,11.845,4.968,16.093S347.225,358.089,353.177,358.089z"/>
	<path class="cls-1" d="M384.424,361.4v-51.48h21.384c4.655,0,8.304,1.249,10.943,3.744c2.496,2.257,3.744,5.328,3.744,9.217c0,5.615-2.616,9.336-7.848,11.159v0.217c3.071,0.863,5.508,2.364,7.308,4.5c1.801,2.136,2.7,4.859,2.7,8.172c0,4.129-1.249,7.487-3.744,10.08c-2.832,2.928-6.888,4.392-12.167,4.392H384.424z M389.249,332.528h16.488c3.12,0,5.544-0.839,7.272-2.52c1.728-1.68,2.592-3.936,2.592-6.769c0-2.88-0.864-5.112-2.592-6.696c-1.729-1.584-4.104-2.376-7.128-2.376h-16.632V332.528z M389.249,357.009h17.208c3.744,0,6.648-0.983,8.711-2.952c1.729-1.729,2.593-4.079,2.593-7.057c0-3.215-1.021-5.734-3.061-7.56c-2.041-1.823-4.788-2.736-8.244-2.736h-17.208V357.009z"/>
	<path class="cls-1" d="M429.28,361.4v-51.48h34.991v4.248h-30.168v18.505h27.648v4.176h-27.648v20.088h30.96v4.464H429.28z"/>
	<path class="cls-1" d="M472.336,361.4v-51.48h22.968c4.607,0,8.195,1.236,10.764,3.708c2.567,2.474,3.853,5.868,3.853,10.188c0,6.433-2.881,10.561-8.641,12.384v0.216c2.592,0.864,4.429,2.341,5.508,4.429c1.08,2.088,1.716,5.173,1.908,9.252c0.288,6.528,1.032,10.2,2.232,11.016v0.288h-5.185c-0.575-0.384-0.972-1.296-1.188-2.736c-0.216-1.439-0.444-4.367-0.685-8.783c-0.192-4.368-1.115-7.368-2.771-9s-4.404-2.448-8.244-2.448h-15.696V361.4H472.336z M477.159,334.328h16.488c3.695,0,6.504-0.875,8.424-2.628c1.92-1.751,2.88-4.235,2.88-7.452c0-3.312-0.84-5.819-2.52-7.523c-1.681-1.704-4.393-2.557-8.136-2.557h-17.137V334.328z"/>
	<path class="cls-1" d="M536.702,361.4v-37.08h-10.368v-3.168c3.84-0.191,6.611-0.924,8.316-2.196c1.703-1.271,2.771-3.659,3.204-7.164h3.527V361.4H536.702z"/>
	<path class="cls-1" d="M568.454,362.408c-5.76,0-10.236-2.304-13.428-6.912c-3.193-4.607-4.788-10.872-4.788-18.792c0-7.967,1.644-14.243,4.932-18.828c3.287-4.583,7.74-6.876,13.356-6.876c5.615,0,10.055,2.28,13.319,6.841c3.264,4.561,4.896,10.848,4.896,18.863c0,7.969-1.597,14.245-4.788,18.828C578.761,360.117,574.261,362.408,568.454,362.408z M568.526,358.376c4.415,0,7.751-1.896,10.008-5.688c2.256-3.791,3.384-9.119,3.384-15.984c0-6.72-1.164-12.023-3.492-15.912c-2.328-3.888-5.628-5.832-9.899-5.832c-4.32,0-7.645,1.908-9.973,5.725c-2.328,3.815-3.492,9.156-3.492,16.02c0,6.721,1.164,12.013,3.492,15.876C560.882,356.444,564.206,358.376,568.526,358.376z"/>
	<path class="cls-1" d="M602.581,361.4c0.048-1.775,0.264-3.456,0.648-5.04c0.384-1.584,0.815-2.939,1.296-4.068c0.479-1.127,1.248-2.304,2.304-3.527c1.056-1.225,1.896-2.16,2.521-2.809c0.623-0.647,1.691-1.499,3.204-2.556c1.512-1.056,2.566-1.764,3.168-2.124c0.6-0.36,1.739-1.044,3.42-2.052c4.176-2.495,6.863-4.344,8.063-5.544c2.16-2.16,3.24-4.871,3.24-8.137c0-3.263-0.961-5.832-2.88-7.703c-1.921-1.872-4.513-2.809-7.776-2.809c-3.504,0-6.24,1.057-8.208,3.168c-2.016,2.209-3.049,5.448-3.096,9.72h-4.752c0-5.327,1.464-9.455,4.392-12.384c2.976-2.976,6.96-4.464,11.952-4.464c4.56,0,8.22,1.356,10.98,4.068c2.76,2.712,4.14,6.132,4.14,10.26c0,2.208-0.301,4.152-0.9,5.832c-0.601,1.681-1.655,3.229-3.168,4.644c-1.512,1.417-2.784,2.484-3.815,3.204c-1.033,0.721-2.7,1.753-5.004,3.097c-0.241,0.144-0.408,0.252-0.504,0.323c-0.097,0.072-0.241,0.157-0.433,0.252c-0.192,0.098-0.359,0.192-0.504,0.288c-1.872,1.105-3.337,2.017-4.392,2.736c-1.057,0.72-2.293,1.681-3.708,2.88c-1.417,1.2-2.521,2.496-3.312,3.888c-0.792,1.394-1.308,2.905-1.548,4.536h26.641v4.32H602.581z"/>
	<path class="cls-1" d="M658.668,362.408c-5.76,0-10.236-2.304-13.428-6.912c-3.193-4.607-4.788-10.872-4.788-18.792c0-7.967,1.644-14.243,4.932-18.828c3.287-4.583,7.74-6.876,13.356-6.876c5.615,0,10.055,2.28,13.319,6.841c3.264,4.561,4.896,10.848,4.896,18.863c0,7.969-1.597,14.245-4.788,18.828C668.975,360.117,664.475,362.408,658.668,362.408z M658.74,358.376c4.415,0,7.751-1.896,10.008-5.688c2.256-3.791,3.384-9.119,3.384-15.984c0-6.72-1.164-12.023-3.492-15.912c-2.328-3.888-5.628-5.832-9.899-5.832c-4.32,0-7.645,1.908-9.973,5.725c-2.328,3.815-3.492,9.156-3.492,16.02c0,6.721,1.164,12.013,3.492,15.876C651.096,356.444,654.42,358.376,658.74,358.376z"/>
	<path class="cls-1" d="M681.637,361.4c0.048-1.775,0.264-3.456,0.648-5.04c0.384-1.584,0.815-2.939,1.296-4.068c0.479-1.127,1.248-2.304,2.304-3.527c1.056-1.225,1.896-2.16,2.521-2.809c0.623-0.647,1.691-1.499,3.204-2.556c1.512-1.056,2.566-1.764,3.168-2.124c0.6-0.36,1.739-1.044,3.42-2.052c4.176-2.495,6.863-4.344,8.063-5.544c2.16-2.16,3.24-4.871,3.24-8.137c0-3.263-0.961-5.832-2.88-7.703c-1.921-1.872-4.513-2.809-7.776-2.809c-3.504,0-6.24,1.057-8.208,3.168c-2.016,2.209-3.049,5.448-3.096,9.72h-4.752c0-5.327,1.464-9.455,4.392-12.384c2.976-2.976,6.96-4.464,11.952-4.464c4.56,0,8.22,1.356,10.98,4.068c2.76,2.712,4.14,6.132,4.14,10.26c0,2.208-0.301,4.152-0.9,5.832c-0.601,1.681-1.655,3.229-3.168,4.644c-1.512,1.417-2.784,2.484-3.815,3.204c-1.033,0.721-2.7,1.753-5.004,3.097c-0.241,0.144-0.408,0.252-0.504,0.323c-0.097,0.072-0.241,0.157-0.433,0.252c-0.192,0.098-0.359,0.192-0.504,0.288c-1.872,1.105-3.337,2.017-4.392,2.736c-1.057,0.72-2.293,1.681-3.708,2.88c-1.417,1.2-2.521,2.496-3.312,3.888c-0.792,1.394-1.308,2.905-1.548,4.536h26.641v4.32H681.637z"/>
	<path class="cls-1" d="M739.38,361.4v-12.6h-23.04v-4.32l23.688-32.904h3.888v33.336h7.632v3.889h-7.632v12.6H739.38zM721.021,344.912h18.359v-25.487h-0.144l-18.216,25.271V344.912z"/>
  </g>
</svg>