<?xml version="1.0" encoding="utf-8"?>
<!-- Generator: Adobe Illustrator 27.2.0, SVG Export Plug-In . SVG Version: 6.00 Build 0)  -->
<svg version="1.1" xmlns="http://www.w3.org/2000/svg" xmlns:xlink="http://www.w3.org/1999/xlink" x="0px" y="0px"
	 viewBox="0 0 6408 2267.7" style="enable-background:new 0 0 6408 2267.7;" xml:space="preserve">
<style type="text/css">
	.st0{fill:#EE2A7B;}
	.st1{fill:#FFFFFF;}
</style>
<g id="Fluga">
	<path class="st0" d="M4519.6,178.2c-52.7-91.3-141.4-122.5-245.1-118.3c-228.2,9.3-529.6,190.4-682.9,282.6
		c-351.4,211.3-387.5,295.9-737.6,493.1c-0.9,0.6-1.7,1.1-2.6,1.7c-99.8-162-278.3-270.3-482.5-270.3
		c-204.2,0-382.6,108.3-482.4,270.2c-0.9-0.5-1.8-1-2.7-1.5c-350.1-197.2-386.2-281.8-737.6-493.1C993,250.3,691.6,69.2,463.4,59.9
		c-103.7-4.2-192.4,27-245.1,118.3c-37.3,64.7-153.1,196.4-153.1,955.6c0,759.2,115.8,891,153.1,955.6
		c168.7,292.2,705-30.2,927.9-164.3c351.4-211.3,387.5-295.9,737.6-493.1c0.9-0.6,1.8-1.1,2.7-1.7c99.8,162,278.2,270.3,482.5,270.3
		c204.2,0,382.6-108.3,482.4-270.2c0.9,0.5,1.8,1,2.8,1.5c350.1,197.2,386.2,281.8,737.6,493.1c222.9,134.1,759.3,456.5,927.9,164.3
		c37.3-64.7,153.1-196.4,153.1-955.6C4672.8,374.6,4557,242.9,4519.6,178.2z"/>
</g>
<g id="Logga">
	<g id="text_00000164510775651349708370000017884958692339416975_">
		<path id="d_00000174577583732265229220000001352427318252595853_" class="st1" d="M782.5,436.1c0-16,5.6-29.7,16.6-41
			c11.1-11.3,24.3-17,39.8-17c15.5,0,28.8,5.7,39.8,17c11,11.3,16.6,25.1,16.6,41v697.6c0,112.3-38.6,208.1-115.6,287.2
			c-77,79.5-170,119.2-278.8,119.2c-109.1,0-202.2-39.6-279.1-119.2c-77.1-79.2-115.6-174.9-115.6-287.2
			c0-112,38.5-207.8,115.6-287.2c76.9-79.2,170-118.8,279.1-118.8c108.8,0,201.8,39.6,278.8,118.8c0.9,1.1,1.9,2.1,2.8,3.1V436.1z
			 M782.5,1133.7c0-80.3-27.4-148.6-82.3-205.1c-55-56.6-121.5-84.9-199.3-84.9c-78,0-144.5,28.3-199.4,84.9
			c-55,56.5-82.6,124.9-82.6,205.1c0,80.5,27.6,148.9,82.6,205.4c54.9,56.4,121.4,84.8,199.4,84.8c77.8,0,144.4-28.4,199.3-84.8
			C755.1,1282.6,782.5,1214.2,782.5,1133.7z"/>
		<path id="d_00000080173164786030712360000007504597941593823401_" class="st1" d="M2650.8,436.1c0-16,5.6-29.7,16.6-41
			c11-11.3,24.1-17,39.8-17c15.5,0,28.7,5.7,39.8,17c10.9,11.3,16.5,25.1,16.5,41v697.6c0,112.3-38.5,208.1-115.6,287.2
			c-77,79.5-170,119.2-279,119.2c-108.9,0-201.9-39.6-279-119.2c-77.2-79.2-115.6-174.9-115.6-287.2c0-112,38.4-207.8,115.6-287.2
			c77.1-79.2,170.1-118.8,279-118.8c109,0,201.9,39.6,279,118.8c1,1.1,1.9,2.1,2.9,3.1V436.1z M2650.8,1133.7
			c0-80.3-27.4-148.6-82.5-205.1c-54.9-56.6-121.3-84.9-199.4-84.9c-77.9,0-144.5,28.3-199.4,84.9c-54.9,56.5-82.3,124.9-82.3,205.1
			c0,80.5,27.4,148.9,82.3,205.4c55,56.4,121.6,84.8,199.4,84.8c78.1,0,144.4-28.4,199.4-84.8
			C2623.4,1282.6,2650.8,1214.2,2650.8,1133.7z"/>
		<path id="a_00000165231215191755122840000009972941396300449427_" class="st1" d="M3552.6,1418c-78.9,81.5-172.7,122-281.8,122
			c-108.9,0-201.9-39.6-279-119.2c-77-79.2-115.6-174.9-115.6-287.2c0-112,38.7-207.8,115.6-287.2c77-79.2,170.1-118.8,279-118.8
			c109,0,201.9,39.6,279.1,118.8c76.9,79.4,115.5,175.2,115.5,287.2v348.4c0,15.8-5.4,29.6-16.4,40.9
			c-11.4,11.4-24.4,17.1-39.9,17.1c-15.6,0-28.7-5.7-39.9-17.1c-11.1-11.2-16.5-25-16.5-40.9V1418z M3270.8,843.7
			c-78,0-144.6,28.3-199.4,84.9c-54.8,56.5-82.4,124.9-82.4,205.1c0,80.5,27.6,148.9,82.4,205.4c54.8,56.4,121.5,84.8,199.4,84.8
			c78,0,144.2-28.4,199.4-84.8c55-56.5,82.4-124.9,82.4-205.4c0-80.3-27.4-148.6-82.4-205.1C3415,872,3348.8,843.7,3270.8,843.7z"/>
		<path id="g_00000021115343335054563950000007088229546568957604_" class="st1" d="M4454.5,1418c-1.1,1-1.9,1.9-3.2,2.9
			c-76.7,79.5-169.9,119.2-278.9,119.2c-108.7,0-201.9-39.6-278.9-119.2c-77-79.2-115.5-174.9-115.5-287.2
			c0-112,38.5-207.8,115.5-287.2c77-79.2,170.2-118.8,278.9-118.8c109,0,202.2,39.6,278.9,118.8c77.2,79.4,115.7,175.2,115.7,287.2
			v406.4c0,84.6-29.3,158.1-88.6,220.3c-82.5,85.3-182.7,127.7-299.7,127.7c-116.8,0-216.3-42.4-298.7-127.7
			c-30.4-30.7-55.3-64.3-74.6-100.6c-5.4-8.7-8.3-18.8-8.3-30.6c0-15.8,5.4-29.5,16.5-40.9c10.8-11.4,24.3-17.1,39.9-17.1
			c15.3,0,28.7,5.7,39.9,16.8c4.8,5.4,8.7,11.1,12,17.4c14.1,26.1,32.1,50.4,54.2,73.2c60.6,62.3,133.5,93.5,219,93.5
			c85.6,0,158.8-31.2,219.2-93.5c37.5-46.4,56.6-92.9,56.6-138.5V1418z M4172.5,843.7c-77.7,0-144.2,28.3-199.3,84.9
			c-54.8,56.5-82.2,124.9-82.2,205.1c0,80.5,27.4,148.9,82.2,205.4c55.1,56.4,121.7,84.8,199.3,84.8c78.1,0,144.5-28.4,199.3-84.8
			c55.1-56.5,82.7-124.9,82.7-205.4c0-80.3-27.6-148.6-82.7-205.1C4317,872,4250.6,843.7,4172.5,843.7z"/>
		<path id="e_00000124859353538192317620000014649999472605419420_" class="st1" d="M5291.5,1342.7c15.5,0,28.8,5.7,39.9,17.1
			c10.8,11.4,16.5,25,16.5,41c0,16-5.7,29.6-16.2,41.2c-72.9,65.5-158.7,98.1-257.4,98.1c-109,0-202-39.6-278.9-119.2
			c-77-79.2-115.7-174.9-115.7-287.2c0-112,38.7-207.8,115.7-287.2c76.9-79.2,169.9-118.8,278.9-118.8c109,0,201.9,39.6,278.9,118.8
			c77,79.4,115.7,175.2,115.7,287.2c0,16.2-5.4,29.9-16.5,41c-11.1,11.4-24.4,17-40,17h-614.8c10.1,55.7,36,104.7,77.3,147.3
			c55,56.4,121.4,84.8,199.3,84.8c70.4,0,131.3-23,181.9-68.9C5266.6,1346.8,5278.2,1342.7,5291.5,1342.7z M5351.1,1075.7
			c-10.2-55.5-35.8-104.6-77.3-147.1c-55-56.6-121.4-84.9-199.4-84.9c-77.9,0-144.3,28.3-199.3,84.9
			c-41.4,42.5-67.2,91.6-77.3,147.1H5351.1z"/>
		<path id="n_00000161601738084401001500000004965568470426900909_" class="st1" d="M6245.4,1418v64c0,15.8,5.4,29.6,16.5,40.9
			c11.2,11.4,24.4,17.1,39.9,17.1s28.5-5.7,39.9-17.1c11.1-11.2,16.5-25,16.5-40.9v-348.4c0-0.5-0.1-1-0.1-1.6c0-0.5,0.1-1,0.1-1.6
			c0-112-38.7-207.8-115.6-287.2c-77.1-79.2-170.1-118.8-279-118.8c-109,0-201.9,39.6-279,118.8c-76.9,79.4-115.5,175.2-115.5,287.2
			v348.4c0,15.8,5.4,29.6,16.5,40.9c11.4,11.4,24.4,17.1,39.9,17.1c15.5,0,28.7-5.7,40-17.1c11.1-11.2,16.4-25,16.4-40.9v-39v-3.5
			v-18.8v-283.8l0.2,0.2c0-0.8-0.1-1.5-0.1-2.3c0-1.3,0-2.5,0.1-3.7c1.2-77.8,28.8-144.3,82.3-199.4
			c54.8-56.6,121.5-84.9,199.4-84.9c78,0,144.2,28.3,199.4,84.9c54.7,56.2,82.1,124.2,82.4,203.9"/>
	</g>
	<path id="fluga_00000099627675191360964920000001017501657063993245_" class="st1" d="M1843.9,953.7c-9.9-17.2-26.6-23.1-46.2-22.3
		c-43,1.7-99.8,35.9-128.7,53.3c-66.2,39.8-73,55.8-139,92.9c-0.2,0.1-0.3,0.2-0.5,0.3c-18.8-30.5-52.4-51-90.9-51
		c-38.5,0-72.1,20.4-90.9,50.9c-0.2-0.1-0.3-0.2-0.5-0.3c-66-37.2-72.8-53.1-139-92.9c-28.9-17.4-85.7-51.5-128.7-53.3
		c-19.6-0.8-36.3,5.1-46.2,22.3c-7,12.2-28.9,37-28.9,180.1c0,143.1,21.8,167.9,28.9,180.1c31.8,55.1,132.9-5.7,174.9-31
		c66.2-39.8,73-55.8,139-92.9c0.2-0.1,0.3-0.2,0.5-0.3c18.8,30.5,52.4,50.9,90.9,50.9c38.5,0,72.1-20.4,90.9-50.9
		c0.2,0.1,0.3,0.2,0.5,0.3c66,37.2,72.8,53.1,139,92.9c42,25.3,143.1,86,174.9,31c7-12.2,28.9-37,28.9-180.1
		C1872.8,990.7,1851,965.9,1843.9,953.7z"/>
</g>
</svg>
