<?xml version="1.0" encoding="UTF-8" standalone="no"?>
<!-- Created with Inkscape (http://www.inkscape.org/) -->

<svg
   width="48"
   height="48"
   viewBox="0 0 48 48"
   version="1.1"
   id="svg1"
   xmlns="http://www.w3.org/2000/svg"
   xmlns:svg="http://www.w3.org/2000/svg">
  <defs
     id="defs1" />
  <g
     id="layer1">
    <circle
       style="fill:#e72e7b;fill-opacity:1;stroke-width:0.412776"
       id="path1"
       cx="24"
       cy="24"
       r="24" />
    <path
       id="fluga"
       class="cls-3"
       d="m 41.435539,16.251339 c -0.430761,-0.738446 -1.148695,-0.984595 -1.989704,-0.964082 -1.846116,0.08205 -4.287091,1.53843 -5.538348,2.297389 -2.851223,1.723041 -3.138397,2.39995 -5.969107,3.999918 0,0 -0.02052,0 -0.02052,0.02052 -0.799982,-1.312793 -2.256363,-2.194826 -3.917868,-2.194826 -1.661503,0 -3.097372,0.882033 -3.917868,2.194826 0,0 -0.02051,0 -0.02051,-0.02052 -2.830705,-1.599968 -3.13839,-2.276877 -5.969102,-3.999918 -1.251256,-0.738448 -3.692232,-2.21534 -5.5383476,-2.297389 -0.8410084,-0.04102 -1.5589423,0.225636 -1.9897027,0.964082 -0.3076861,0.533323 -1.2512564,1.599968 -1.2512564,7.753687 0,6.15372 0.9435703,7.220364 1.2512564,7.753687 1.3743307,2.358927 5.7229593,-0.246149 7.5280503,-1.333306 2.851223,-1.702529 3.138397,-2.39995 5.969109,-3.999917 0,0 0.02051,0 0.02051,-0.02052 0.799983,1.312793 2.256363,2.194826 3.917868,2.194826 1.661504,0 3.097373,-0.882033 3.917868,-2.194826 0,0 0.02052,0 0.02052,0.02052 2.83071,1.599967 3.138397,2.276875 5.969107,3.999917 1.805092,1.087157 6.15372,3.692233 7.528052,1.333306 0.307685,-0.533323 1.251256,-1.599967 1.251256,-7.753687 -0.02052,-6.153719 -0.964084,-7.220364 -1.251258,-7.753687 z"
       style="fill:#ffffff;fill-opacity:1;stroke-width:0.205125" />
  </g>
</svg>
