<?xml version="1.0" encoding="UTF-8"?>
<svg xmlns="http://www.w3.org/2000/svg" version="1.1" viewBox="0 0 8192 2267.7">
  <defs>
    <style>
      .cls-1 {
        fill: #e72d7b;
      }

      .cls-2 {
        fill: #fff;
      }
    </style>
  </defs>
  <!-- Generator: Adobe Illustrator 28.7.1, SVG Export Plug-In . SVG Version: 1.2.0 Build 142)  -->
  <g>
    <g id="Lager_1">
      <g>
        <path class="cls-2" d="M3661.7,1178.1h-9.4v-2.9c6.6-.3,9.6-1.8,10.4-8.5h3.2v44.8h-4.2v-33.5Z"/>
        <path class="cls-2" d="M3673.9,1189.3c0-14.4,6.4-23.2,16.5-23.2s16.4,8.6,16.4,23.2-5.9,23.2-16.5,23.2-16.4-9-16.4-23.2ZM3702.5,1189.3c0-12-4.2-19.6-12.1-19.6s-12.2,7.4-12.2,19.6,4.2,19.6,12.2,19.6,12.1-7.3,12.1-19.6Z"/>
        <path class="cls-2" d="M3727.4,1165.1h4.9l17.7,46.5h-4.7l-5.4-14.6h-20.2l-5.5,14.6h-4.4l17.6-46.5ZM3738.7,1193.4l-6.4-17.4c-1-2.6-2.3-6.8-2.3-6.8h-.1s-1.2,4-2.3,6.8l-6.5,17.4h17.6Z"/>
        <path class="cls-2" d="M3754.7,1165.1h5.9l16.1,40.6h.1l15.7-40.6h6.1v46.5h-4.2v-40.5h-.1s-1.2,3.7-2.2,6.3l-13.5,34.2h-3.8l-13.6-34.2c-1-2.4-2.3-6.3-2.3-6.3h-.1v40.5h-4v-46.5Z"/>
        <path class="cls-2" d="M3814.8,1191.6h16.6v3.6h-16.6v-3.6Z"/>
        <path class="cls-2" d="M3865.8,1200.2h-20.8v-3.9l21.4-29.7h3.5v30.1h6.9v3.5h-6.9v11.4h-4.1v-11.4ZM3865.8,1196.7v-23h-.1l-16.4,22.8v.2h16.6Z"/>
        <path class="cls-2" d="M3882.5,1165.1h18.3c5.1,0,8.5,1.4,10.9,4,2.1,2.2,3.2,5.1,3.2,9,0,8.6-5,13.3-14.8,13.3h-13.3v20.2h-4.4v-46.5ZM3899.9,1187.7c7.5,0,10.7-3.6,10.7-9.4s-3.6-9.3-10.3-9.3h-13.4v18.7h13Z"/>
        <path class="cls-2" d="M3920.6,1165.1h5.9l16.1,40.6h.1l15.7-40.6h6.1v46.5h-4.2v-40.5h-.1s-1.2,3.7-2.2,6.3l-13.5,34.2h-3.8l-13.6-34.2c-1-2.4-2.3-6.3-2.3-6.3h-.1v40.5h-4v-46.5Z"/>
      </g>
      <g>
        <path class="cls-2" d="M3650.2,1108.1c0-20.2,12.4-35.3,31.5-35.3s31.7,15.1,31.7,35.3-12.4,35.3-31.7,35.3-31.5-15.1-31.5-35.3ZM3706.8,1108.1c0-16.4-8.7-29.6-25.1-29.6s-24.9,13.2-24.9,29.6,8.6,29.6,24.9,29.6,25.1-13.2,25.1-29.6Z"/>
        <path class="cls-2" d="M3720.3,1108.2c0-20.5,11.7-35.4,30.9-35.4s23.8,8,26.1,20.6h-6.3c-1.8-8.8-8.8-15.1-20-15.1-16,0-24.1,13.2-24.1,29.9s8.5,29.5,24,29.5,20.2-9.1,21.3-20.3h6.2c-.4,6.7-2.9,13.3-7,17.8-4.8,5.3-11.9,8.2-20.5,8.2-18.9,0-30.6-14.3-30.6-35.2Z"/>
        <path class="cls-2" d="M3803.1,1079.9h-23v-5.7h52.3v5.7h-22.9v62.2h-6.4v-62.2Z"/>
        <path class="cls-2" d="M3832.9,1108.1c0-20.2,12.4-35.3,31.5-35.3s31.7,15.1,31.7,35.3-12.4,35.3-31.7,35.3-31.5-15.1-31.5-35.3ZM3889.5,1108.1c0-16.4-8.7-29.6-25.1-29.6s-24.9,13.2-24.9,29.6,8.6,29.6,24.9,29.6,25.1-13.2,25.1-29.6Z"/>
        <path class="cls-2" d="M3905.7,1074.2h28.2c6.1,0,11,1.7,14.4,4.9,3.1,2.8,4.9,7,4.9,12.2,0,7.7-3.5,12.3-10.4,14.7v.3c7.8,2.2,13.2,7.7,13.2,16.7s-1.7,10-4.9,13.3c-3.5,3.6-9,5.8-16.1,5.8h-29.5v-67.9ZM3933.8,1104c8.3,0,13-4.8,13-12.3s-4.9-12-12.8-12h-21.9v24.2h21.8ZM3934.7,1136.3c5.2,0,9-1.5,11.5-3.9,2.2-2.2,3.4-5.3,3.4-9.3,0-8.6-6-13.6-14.9-13.6h-22.7v26.8h22.7Z"/>
        <path class="cls-2" d="M3964.8,1074.2h46.2v5.6h-39.8v24.4h36.5v5.5h-36.5v26.5h40.9v5.9h-47.2v-67.9Z"/>
        <path class="cls-2" d="M4021.6,1074.2h30.3c12.3,0,19.3,7,19.3,18.3s-3.6,13.9-11.4,16.3v.3c7,2.4,9.3,7.5,9.8,18.1.5,10.9,1.7,13.7,2.9,14.5v.4h-6.8c-1.5-1-1.9-3.6-2.5-15.2-.6-11.8-4.7-15.1-14.5-15.1h-20.7v30.3h-6.4v-67.9ZM4049.8,1106.4c9.9,0,14.9-4.8,14.9-13.3s-3.8-13.3-14.1-13.3h-22.6v26.6h21.8Z"/>
        <path class="cls-2" d="M4094.2,1126.1h6.3c.6,7.2,5.6,12,13.4,12s8.5-1.4,11.2-4.3c4.8-4.8,6.7-13.3,6.7-25.2h-.2c-3.7,6.5-10,10.2-17.8,10.2-12,0-20.7-9-20.7-21.2,0-12.3,8.8-22,21.3-22s10.8,2,14.5,5.1c6.7,5.5,8.8,15.2,8.8,29.2s-2.5,21.8-8.6,27.8c-3.8,3.7-9,5.7-15.2,5.7-11.4,0-19.2-6.8-19.9-17.3ZM4130.3,1097.3c0-10-6.6-16.6-15.8-16.6s-15.4,7-15.4,16.7,6.2,16.2,15.2,16.2,16-6.7,16-16.3Z"/>
        <path class="cls-2" d="M4180.5,1112.8c8.8-5.3,14.9-8.5,14.9-18s-5.5-13.9-14.1-13.9-8.3,1.4-10.8,4.2c-2.6,2.9-4,6.8-4.1,12.8h-6.3c0-7.3,2.1-12.6,5.8-16.3s9.6-5.9,15.8-5.9c12.3,0,20,8.2,20,18.9s-9.3,17.6-18.9,23.3c-7.5,4.5-15.8,9.5-17.1,18.5h35.2v5.7h-42.2c.3-16.7,11.6-23.1,21.8-29.3Z"/>
        <path class="cls-2" d="M4208.6,1109.5c0-21.1,9.4-33.9,24.1-33.9s24,12.6,24,33.9-8.6,33.9-24.1,33.9-24-13.2-24-33.9ZM4250.4,1109.5c0-17.5-6.2-28.7-17.7-28.7s-17.8,10.8-17.8,28.7,6.2,28.6,17.8,28.6,17.7-10.7,17.7-28.6Z"/>
        <path class="cls-2" d="M4284.8,1112.8c8.8-5.3,14.9-8.5,14.9-18s-5.5-13.9-14.1-13.9-8.3,1.4-10.8,4.2c-2.6,2.9-4,6.8-4.1,12.8h-6.3c0-7.3,2.1-12.6,5.8-16.3,3.9-3.9,9.6-5.9,15.8-5.9,12.3,0,20,8.2,20,18.9s-9.3,17.6-18.9,23.3c-7.5,4.5-15.8,9.5-17.1,18.5h35.2v5.7h-42.2c.3-16.7,11.6-23.1,21.9-29.3Z"/>
        <path class="cls-2" d="M4311.8,1124.5h6.1c1,8.2,5.9,13.3,15.3,13.3s15.4-6.8,15.4-16.7-6.3-16.2-15-16.2-11.7,2.9-14.2,6.7h-5.9l5.8-34.6h32.4v5.5h-27.9l-3.6,22.2h.2c3.6-3.3,7.8-5.2,14.3-5.2,10.5,0,20.2,7.5,20.2,21.8s-8.6,22.1-21.6,22.1-21.2-7.8-21.5-18.9Z"/>
      </g>
      <g id="Lager_1-2" data-name="Lager_1">
        <g id="Logga">
          <g id="text">
            <path id="d" class="cls-1" d="M3713.6,750.2c0-4.3,1.5-8,4.5-11.1s6.6-4.6,10.8-4.6,7.8,1.5,10.7,4.6c3,3.1,4.5,6.8,4.5,11.1v188.4c0,30.3-10.4,56.2-31.2,77.6-20.8,21.5-45.9,32.2-75.3,32.2s-54.6-10.7-75.4-32.2c-20.8-21.4-31.2-47.2-31.2-77.6s10.4-56.1,31.2-77.6c20.8-21.4,45.9-32.1,75.4-32.1s54.5,10.7,75.3,32.1c.2.3.5.6.8.8v-111.6h-.1ZM3713.6,938.5c0-21.7-7.4-40.1-22.2-55.4-14.8-15.3-32.8-22.9-53.8-22.9s-39,7.6-53.8,22.9c-14.8,15.3-22.3,33.7-22.3,55.4s7.4,40.2,22.3,55.5c14.8,15.2,32.8,22.9,53.8,22.9s39-7.7,53.8-22.9c14.8-15.3,22.2-33.7,22.2-55.5Z"/>
            <path id="d-2" class="cls-1" d="M4218,750.2c0-4.3,1.5-8,4.5-11.1s6.5-4.6,10.7-4.6,7.7,1.5,10.8,4.6c3,3.1,4.5,6.8,4.5,11.1v188.4c0,30.3-10.4,56.2-31.2,77.6-20.8,21.5-45.9,32.2-75.3,32.2s-54.5-10.7-75.3-32.2c-20.8-21.4-31.2-47.2-31.2-77.6s10.4-56.1,31.2-77.6c20.8-21.4,45.9-32.1,75.3-32.1s54.5,10.7,75.3,32.1c.3.3.5.6.8.8v-111.6h0ZM4218,938.5c0-21.7-7.4-40.1-22.3-55.4-14.8-15.3-32.8-22.9-53.8-22.9s-39,7.6-53.8,22.9c-14.8,15.3-22.2,33.7-22.2,55.4s7.4,40.2,22.2,55.5c14.8,15.2,32.8,22.9,53.8,22.9s39-7.7,53.8-22.9c14.9-15.3,22.3-33.7,22.3-55.5Z"/>
            <path id="a" class="cls-1" d="M4461.5,1015.3c-21.3,22-46.6,33-76.1,33s-54.5-10.7-75.3-32.2c-20.8-21.4-31.2-47.2-31.2-77.6s10.4-56.1,31.2-77.6c20.8-21.4,45.9-32.1,75.3-32.1s54.5,10.7,75.3,32.1c20.8,21.4,31.2,47.3,31.2,77.6v94.1c0,4.3-1.4,8-4.4,11-3.1,3.1-6.6,4.6-10.8,4.6s-7.7-1.5-10.8-4.6c-3-3-4.4-6.8-4.4-11v-17.3h0ZM4385.4,860.2c-21,0-39,7.6-53.9,22.9-14.8,15.3-22.3,33.7-22.3,55.4s7.5,40.2,22.3,55.5c14.8,15.2,32.8,22.9,53.9,22.9s38.9-7.7,53.8-22.9c14.8-15.3,22.2-33.7,22.2-55.5s-7.4-40.1-22.2-55.4c-14.9-15.3-32.8-22.9-53.8-22.9h0Z"/>
            <path id="g" class="cls-1" d="M4705,1015.3c-.3.3-.5.5-.9.8-20.7,21.5-45.9,32.2-75.3,32.2s-54.5-10.7-75.3-32.2c-20.8-21.4-31.2-47.2-31.2-77.6s10.4-56.1,31.2-77.6c20.8-21.4,46-32.1,75.3-32.1s54.6,10.7,75.3,32.1c20.8,21.4,31.2,47.3,31.2,77.6v109.7c0,22.9-7.9,42.7-23.9,59.5-22.3,23-49.3,34.5-80.9,34.5s-58.4-11.5-80.6-34.5c-8.2-8.3-14.9-17.4-20.2-27.2-1.5-2.3-2.2-5.1-2.2-8.3s1.4-8,4.5-11c2.9-3.1,6.6-4.6,10.8-4.6s7.7,1.5,10.8,4.5c1.3,1.5,2.4,3,3.3,4.7,3.8,7.1,8.7,13.6,14.6,19.8,16.3,16.8,36.1,25.2,59.1,25.2s42.9-8.4,59.2-25.2c10.1-12.5,15.3-25.1,15.3-37.4v-33h0ZM4628.9,860.2c-21,0-38.9,7.6-53.8,22.9-14.8,15.3-22.2,33.7-22.2,55.4s7.4,40.2,22.2,55.5c14.9,15.2,32.9,22.9,53.8,22.9s39-7.7,53.8-22.9c14.9-15.3,22.3-33.7,22.3-55.5s-7.4-40.1-22.3-55.4c-14.8-15.3-32.7-22.9-53.8-22.9h0Z"/>
            <path id="e" class="cls-1" d="M4931,995c4.2,0,7.8,1.5,10.8,4.6,2.9,3.1,4.5,6.8,4.5,11.1s-1.5,8-4.4,11.1c-19.7,17.7-42.8,26.5-69.5,26.5s-54.5-10.7-75.3-32.2c-20.8-21.4-31.2-47.2-31.2-77.6s10.4-56.1,31.2-77.6c20.8-21.4,45.9-32.1,75.3-32.1s54.5,10.7,75.3,32.1c20.8,21.4,31.2,47.3,31.2,77.6s-1.5,8.1-4.4,11.1c-3,3.1-6.6,4.6-10.8,4.6h-166c2.7,15,9.7,28.3,20.9,39.8,14.8,15.2,32.8,22.9,53.8,22.9s35.4-6.2,49.1-18.6c2.8-2.2,5.9-3.3,9.5-3.3h0ZM4947.1,922.9c-2.7-15-9.7-28.2-20.9-39.7-14.9-15.3-32.8-22.9-53.8-22.9s-39,7.6-53.8,22.9c-11.2,11.5-18.1,24.7-20.9,39.7h149.4,0Z"/>
            <path id="n" class="cls-1" d="M5188.6,1015.3v17.3c0,4.3,1.5,8,4.5,11,3,3.1,6.6,4.6,10.8,4.6s7.7-1.5,10.8-4.6c3-3,4.5-6.8,4.5-11v-94.9c0-30.3-10.4-56.1-31.2-77.6-20.8-21.4-45.9-32.1-75.3-32.1s-54.5,10.7-75.3,32.1c-20.8,21.4-31.2,47.3-31.2,77.6v94.1c0,4.3,1.5,8,4.5,11,3.1,3.1,6.6,4.6,10.8,4.6s7.7-1.5,10.8-4.6c3-3,4.4-6.8,4.4-11v-93.2h0v-1.6c.3-21,7.8-39,22.2-53.9,14.8-15.3,32.8-22.9,53.8-22.9s38.9,7.6,53.8,22.9c14.8,15.2,22.2,33.5,22.2,55.1"/>
          </g>
          <path id="fluga" class="cls-1" d="M4000.1,889.9c-2.7-4.6-7.2-6.2-12.5-6-11.6.5-26.9,9.7-34.8,14.4-17.9,10.8-19.7,15.1-37.5,25.1h-.1c-5.1-8.2-14.2-13.8-24.6-13.8s-19.5,5.5-24.6,13.7h-.1c-17.8-10-19.7-14.3-37.5-25.1-7.8-4.7-23.1-13.9-34.8-14.4-5.3-.2-9.8,1.4-12.5,6-1.9,3.3-7.8,10-7.8,48.6s5.9,45.3,7.8,48.6c8.6,14.9,35.9-1.5,47.2-8.4,17.9-10.8,19.7-15.1,37.5-25.1h.1c5.1,8.2,14.2,13.8,24.6,13.8s19.5-5.5,24.6-13.7h.1c17.8,10,19.7,14.3,37.5,25.1,11.3,6.8,38.6,23.2,47.2,8.4,1.9-3.3,7.8-10,7.8-48.6s-5.9-45.3-7.8-48.6h.2Z"/>
        </g>
      </g>
    </g>
  </g>
</svg>