<?xml version="1.0" encoding="UTF-8"?>
<svg xmlns="http://www.w3.org/2000/svg" version="1.1" viewBox="0 0 8192 2267.7">
  <defs>
    <style>
      .cls-1 {
        fill: #e72d7b;
      }

      .cls-2 {
        isolation: isolate;
      }

      .cls-3 {
        fill: #fff;
      }
    </style>
  </defs>
  <!-- Generator: Adobe Illustrator 28.7.1, SVG Export Plug-In . SVG Version: 1.2.0 Build 142)  -->
  <g>
    <g id="Lager_1">
      <g id="Logga">
        <g id="text">
          <path id="d" class="cls-1" d="M3713.6,750.2c0-4.3,1.5-8,4.5-11.1,3-3.1,6.6-4.6,10.8-4.6s7.8,1.5,10.7,4.6c3,3.1,4.5,6.8,4.5,11.1v188.4c0,30.3-10.4,56.2-31.2,77.6-20.8,21.5-45.9,32.2-75.3,32.2s-54.6-10.7-75.4-32.2c-20.8-21.4-31.2-47.2-31.2-77.6s10.4-56.1,31.2-77.6c20.8-21.4,45.9-32.1,75.4-32.1s54.5,10.7,75.3,32.1c.2.3.5.6.8.8v-111.6h0ZM3713.6,938.5c0-21.7-7.4-40.1-22.2-55.4-14.8-15.3-32.8-22.9-53.8-22.9s-39,7.6-53.8,22.9c-14.8,15.3-22.3,33.7-22.3,55.4s7.4,40.2,22.3,55.5c14.8,15.2,32.8,22.9,53.8,22.9s39-7.7,53.8-22.9c14.8-15.3,22.2-33.7,22.2-55.5Z"/>
          <path id="d-2" class="cls-1" d="M4218,750.2c0-4.3,1.5-8,4.5-11.1,3-3.1,6.5-4.6,10.7-4.6s7.7,1.5,10.8,4.6c3,3.1,4.5,6.8,4.5,11.1v188.4c0,30.3-10.4,56.2-31.2,77.6-20.8,21.5-45.9,32.2-75.3,32.2s-54.5-10.7-75.3-32.2c-20.8-21.4-31.2-47.2-31.2-77.6s10.4-56.1,31.2-77.6c20.8-21.4,45.9-32.1,75.3-32.1s54.5,10.7,75.3,32.1c.3.3.5.6.8.8v-111.6h0ZM4218,938.5c0-21.7-7.4-40.1-22.3-55.4-14.8-15.3-32.8-22.9-53.8-22.9s-39,7.6-53.8,22.9c-14.8,15.3-22.2,33.7-22.2,55.4s7.4,40.2,22.2,55.5c14.8,15.2,32.8,22.9,53.8,22.9s39-7.7,53.8-22.9c14.9-15.3,22.3-33.7,22.3-55.5Z"/>
          <path id="a" class="cls-1" d="M4461.5,1015.3c-21.3,22-46.6,33-76.1,33s-54.5-10.7-75.3-32.2c-20.8-21.4-31.2-47.2-31.2-77.6s10.4-56.1,31.2-77.6c20.8-21.4,45.9-32.1,75.3-32.1s54.5,10.7,75.3,32.1c20.8,21.4,31.2,47.3,31.2,77.6v94.1c0,4.3-1.4,8-4.4,11-3.1,3.1-6.6,4.6-10.8,4.6s-7.7-1.5-10.8-4.6c-3-3-4.4-6.8-4.4-11v-17.3ZM4385.4,860.2c-21,0-39,7.6-53.9,22.9-14.8,15.3-22.3,33.7-22.3,55.4s7.5,40.2,22.3,55.5c14.8,15.2,32.8,22.9,53.9,22.9s38.9-7.7,53.8-22.9c14.8-15.3,22.2-33.7,22.2-55.5s-7.4-40.1-22.2-55.4c-14.9-15.3-32.8-22.9-53.8-22.9h0Z"/>
          <path id="g" class="cls-1" d="M4705,1015.3c-.3.3-.5.5-.9.8-20.7,21.5-45.9,32.2-75.3,32.2s-54.5-10.7-75.3-32.2c-20.8-21.4-31.2-47.2-31.2-77.6s10.4-56.1,31.2-77.6c20.8-21.4,46-32.1,75.3-32.1s54.6,10.7,75.3,32.1c20.8,21.4,31.2,47.3,31.2,77.6v109.7c0,22.9-7.9,42.7-23.9,59.5-22.3,23-49.3,34.5-80.9,34.5s-58.4-11.5-80.6-34.5c-8.2-8.3-14.9-17.4-20.2-27.2-1.5-2.3-2.2-5.1-2.2-8.3s1.4-8,4.5-11c2.9-3.1,6.6-4.6,10.8-4.6s7.7,1.5,10.8,4.5c1.3,1.5,2.4,3,3.3,4.7,3.8,7.1,8.7,13.6,14.6,19.8,16.3,16.8,36.1,25.2,59.1,25.2s42.9-8.4,59.2-25.2c10.1-12.5,15.3-25.1,15.3-37.4v-33h0ZM4628.9,860.2c-21,0-38.9,7.6-53.8,22.9-14.8,15.3-22.2,33.7-22.2,55.4s7.4,40.2,22.2,55.5c14.9,15.2,32.9,22.9,53.8,22.9s39-7.7,53.8-22.9c14.9-15.3,22.3-33.7,22.3-55.5s-7.4-40.1-22.3-55.4c-14.8-15.3-32.7-22.9-53.8-22.9h0Z"/>
          <path id="e" class="cls-1" d="M4931,995c4.2,0,7.8,1.5,10.8,4.6,2.9,3.1,4.5,6.8,4.5,11.1s-1.5,8-4.4,11.1c-19.7,17.7-42.8,26.5-69.5,26.5s-54.5-10.7-75.3-32.2c-20.8-21.4-31.2-47.2-31.2-77.6s10.4-56.1,31.2-77.6c20.8-21.4,45.9-32.1,75.3-32.1s54.5,10.7,75.3,32.1c20.8,21.4,31.2,47.3,31.2,77.6s-1.5,8.1-4.4,11.1c-3,3.1-6.6,4.6-10.8,4.6h-166c2.7,15,9.7,28.3,20.9,39.8,14.8,15.2,32.8,22.9,53.8,22.9s35.4-6.2,49.1-18.6c2.8-2.2,5.9-3.3,9.5-3.3h0ZM4947.1,922.9c-2.7-15-9.7-28.2-20.9-39.7-14.9-15.3-32.8-22.9-53.8-22.9s-39,7.6-53.8,22.9c-11.2,11.5-18.1,24.7-20.9,39.7h149.4Z"/>
          <path id="n" class="cls-1" d="M5188.6,1015.3v17.3c0,4.3,1.5,8,4.5,11,3,3.1,6.6,4.6,10.8,4.6s7.7-1.5,10.8-4.6c3-3,4.5-6.8,4.5-11v-94.1c0-.1,0-.3,0-.4s0-.3,0-.4c0-30.3-10.4-56.1-31.2-77.6-20.8-21.4-45.9-32.1-75.3-32.1s-54.5,10.7-75.3,32.1c-20.8,21.4-31.2,47.3-31.2,77.6v94.1c0,4.3,1.5,8,4.5,11,3.1,3.1,6.6,4.6,10.8,4.6s7.7-1.5,10.8-4.6c3-3,4.4-6.8,4.4-11v-93.2h0c0-.2,0-.4,0-.6,0-.3,0-.7,0-1,.3-21,7.8-39,22.2-53.9,14.8-15.3,32.8-22.9,53.8-22.9s38.9,7.6,53.8,22.9c14.8,15.2,22.2,33.5,22.2,55.1"/>
        </g>
        <path id="fluga" class="cls-1" d="M4000.1,889.9c-2.7-4.6-7.2-6.2-12.5-6-11.6.5-26.9,9.7-34.8,14.4-17.9,10.8-19.7,15.1-37.5,25.1,0,0,0,0-.1,0-5.1-8.2-14.2-13.8-24.6-13.8s-19.5,5.5-24.6,13.7c0,0,0,0-.1,0-17.8-10-19.7-14.3-37.5-25.1-7.8-4.7-23.1-13.9-34.8-14.4-5.3-.2-9.8,1.4-12.5,6-1.9,3.3-7.8,10-7.8,48.6s5.9,45.3,7.8,48.6c8.6,14.9,35.9-1.5,47.2-8.4,17.9-10.8,19.7-15.1,37.5-25.1,0,0,0,0,.1,0,5.1,8.2,14.2,13.8,24.6,13.8s19.5-5.5,24.6-13.7c0,0,0,0,.1,0,17.8,10,19.7,14.3,37.5,25.1,11.3,6.8,38.6,23.2,47.2,8.4,1.9-3.3,7.8-10,7.8-48.6s-5.9-45.3-7.8-48.6h0Z"/>
        <g class="cls-2">
          <g class="cls-2">
            <path class="cls-3" d="M3721.8,1113.6c0,20.1-12.2,30.8-27.1,30.8s-26.3-12-26.3-29.7,11.5-30.7,27.1-30.7,26.3,12.2,26.3,29.6ZM3676.4,1114.6c0,12.5,6.8,23.7,18.6,23.7s18.7-11,18.7-24.3-6.1-23.8-18.6-23.8-18.7,11.5-18.7,24.4Z"/>
            <path class="cls-3" d="M3772.4,1141.5c-2.8,1.4-8.3,2.8-15.4,2.8-16.5,0-28.9-10.4-28.9-29.6s12.4-30.7,30.5-30.7,11.9,1.6,13.9,2.6l-1.8,6.2c-2.9-1.4-6.9-2.4-11.8-2.4-13.7,0-22.8,8.8-22.8,24.1s8.2,23.5,22.5,23.5,9.3-1,12.3-2.4l1.6,6Z"/>
            <path class="cls-3" d="M3795.4,1091.4h-17.8v-6.4h43.3v6.4h-17.9v52h-7.6v-52Z"/>
            <path class="cls-3" d="M3874.9,1113.6c0,20.1-12.2,30.8-27.1,30.8s-26.3-12-26.3-29.7,11.5-30.7,27.1-30.7,26.3,12.2,26.3,29.6ZM3829.6,1114.6c0,12.5,6.8,23.7,18.6,23.7s18.7-11,18.7-24.3-6.1-23.8-18.6-23.8-18.7,11.5-18.7,24.4Z"/>
            <path class="cls-3" d="M3884.7,1085.8c3.3-.7,8.5-1.2,13.8-1.2,7.5,0,12.4,1.3,16,4.2,3,2.3,4.9,5.7,4.9,10.3s-3.7,10.6-9.9,12.8v.2c5.5,1.4,12.1,6,12.1,14.7s-2,8.8-4.9,11.7c-4.1,3.7-10.7,5.5-20.2,5.5s-9.2-.3-11.7-.7v-57.5ZM3892.3,1109.7h6.8c8,0,12.7-4.2,12.7-9.8s-5.2-9.5-12.8-9.5-5.5.3-6.7.5v18.8ZM3892.3,1137.7c1.5.3,3.6.3,6.3.3,7.8,0,15-2.9,15-11.4s-6.8-11.3-15.1-11.3h-6.2v22.3Z"/>
            <path class="cls-3" d="M3962,1116h-22.7v21.1h25.3v6.3h-32.9v-58.4h31.6v6.3h-24v18.5h22.7v6.2Z"/>
            <path class="cls-3" d="M3974.4,1085.8c3.8-.8,9.3-1.2,14.5-1.2,8.1,0,13.3,1.5,16.9,4.8,2.9,2.6,4.6,6.6,4.6,11.1,0,7.7-4.9,12.8-11,14.9v.3c4.5,1.6,7.2,5.7,8.6,11.8,1.9,8.2,3.3,13.8,4.5,16h-7.8c-1-1.6-2.3-6.7-3.9-14-1.7-8.1-4.9-11.1-11.7-11.4h-7.1v25.3h-7.5v-57.7ZM3981.9,1112.4h7.7c8.1,0,13.2-4.4,13.2-11.1s-5.5-10.8-13.4-10.9c-3.6,0-6.2.3-7.5.7v21.3Z"/>
            <path class="cls-3" d="M4048.7,1134.8c1.3,3.2,3.7,4.8,7.3,4.8,6.9,0,10.6-5.8,11.2-17.3-2.8,3.6-6.6,5.4-11.4,5.4s-7.4-1.3-9.9-3.9c-2.6-2.6-3.9-6.1-3.9-10.5s1.4-8.6,4.2-11.5c2.8-2.9,6.3-4.4,10.6-4.4s8.7,1.9,11.5,5.5c2.7,3.7,4.1,9.3,4.1,16.9s-1.4,14.2-4.3,18.4c-2.9,4.2-6.9,6.3-12.2,6.3s-10.6-3-12.5-8.9l5.3-.8ZM4047.5,1112.9c0,2.9.8,5.3,2.4,7.2,1.6,1.8,3.8,2.7,6.5,2.7s5.2-.8,7.1-2.4c1.8-1.6,2.7-3.8,2.7-6.7s-.9-6.1-2.7-8.2c-1.8-2.1-4.1-3.2-6.9-3.2s-4.8,1-6.5,3.1c-1.7,2.1-2.6,4.6-2.6,7.6Z"/>
            <path class="cls-3" d="M4105,1109.6c.7-3.9,2.4-6.9,5-9.1,2.6-2.2,5.9-3.3,9.9-3.3s7.7,1.2,10.3,3.6c2.6,2.4,3.9,5.5,3.9,9.4s-.3,3.9-1,5.6c-.7,1.6-1.7,3.3-3.3,4.9-1.5,1.6-4.9,4.5-10.2,8.6-3,2.3-5.1,4-6.3,5.3-1.2,1.3-2.1,2.6-2.8,3.9h23.7v4.9h-30.6c.3-3,1.3-5.8,2.9-8.2,1.7-2.5,5.1-5.7,10.1-9.7,5-3.8,8.3-6.7,9.7-8.6,1.4-1.9,2.2-4.1,2.2-6.5s-.8-4.5-2.3-6c-1.5-1.4-3.6-2.2-6.4-2.2-5.1,0-8.4,2.7-9.6,8.2l-5.2-.9Z"/>
            <path class="cls-3" d="M4141.7,1120.9c0-15.8,5.3-23.7,15.9-23.7s15.9,7.8,15.9,23.5-1.4,13.9-4.1,17.9c-2.7,4-6.6,6.1-11.8,6.1s-9.1-2-11.8-6.1c-2.7-4-4.1-10-4.1-17.8ZM4167.9,1121c0-12.5-3.5-18.8-10.4-18.8s-10.2,6.2-10.2,18.6,3.4,19,10.3,19,10.3-6.3,10.3-18.8Z"/>
            <path class="cls-3" d="M4180.9,1109.6c.7-3.9,2.4-6.9,5-9.1,2.6-2.2,5.9-3.3,9.9-3.3s7.7,1.2,10.3,3.6c2.6,2.4,3.9,5.5,3.9,9.4s-.3,3.9-1,5.6c-.7,1.6-1.7,3.3-3.3,4.9-1.5,1.6-4.9,4.5-10.2,8.6-3,2.3-5.1,4-6.3,5.3-1.2,1.3-2.1,2.6-2.8,3.9h23.7v4.9h-30.6c.3-3,1.3-5.8,2.9-8.2,1.7-2.5,5.1-5.7,10.1-9.7,5-3.8,8.3-6.7,9.7-8.6,1.4-1.9,2.2-4.1,2.2-6.5s-.8-4.5-2.3-6c-1.5-1.4-3.6-2.2-6.4-2.2-5.1,0-8.4,2.7-9.6,8.2l-5.2-.9Z"/>
            <path class="cls-3" d="M4247,1098.5v4.9h-19.2l-2.3,12.9c2.8-1.8,6-2.8,9.4-2.8s7.8,1.4,10.4,4.1c2.6,2.7,3.9,6.3,3.9,10.8s-1.4,8.9-4.3,11.7c-2.9,2.8-6.8,4.2-11.8,4.2s-7.6-1-10.2-3.1c-2.6-2.1-4.3-5.1-5.2-8.9l5.6-.8c1.2,5.3,4.4,7.9,9.6,7.9s6-1,7.8-2.9c1.9-2,2.8-4.5,2.8-7.7s-.9-5.6-2.6-7.5c-1.8-1.9-4.1-2.8-7.2-2.8s-4.4.5-6,1.4c-1.6.9-3,1.9-4.1,2.9l-4.3-.4,4.4-23.8h23.4Z"/>
          </g>
        </g>
      </g>
    </g>
  </g>
</svg>