<?xml version="1.0" encoding="UTF-8"?>
<svg xmlns="http://www.w3.org/2000/svg" version="1.1" viewBox="0 0 8192 2267.72">
  <defs>
    <style>
      .cls-1 {
        fill: #e72d7b;
      }

      .cls-2, .cls-3 {
        isolation: isolate;
      }

      .cls-3 {
        fill: #fff;
        font-family: NHaasGroteskDSPro-25Th, 'Neue Haas Grotesk Display Pro';
        font-size: 86.7px;
      }
    </style>
  </defs>
  <!-- Generator: Adobe Illustrator 28.7.1, SVG Export Plug-In . SVG Version: 1.2.0 Build 142)  -->
  <g>
    <g id="Lager_1">
      <g id="Logga">
        <g id="text">
          <path id="d" class="cls-1" d="M3713.55,750.17c0-4.32,1.52-8.03,4.47-11.08,3-3.06,6.57-4.6,10.76-4.6s7.77,1.54,10.74,4.6c2.96,3.06,4.47,6.76,4.47,11.08v188.36c0,30.34-10.42,56.18-31.21,77.55-20.8,21.47-45.91,32.17-75.29,32.17s-54.59-10.7-75.36-32.17c-20.81-21.37-31.21-47.21-31.21-77.55s10.4-56.12,31.21-77.55c20.77-21.39,45.91-32.09,75.36-32.09s54.49,10.69,75.29,32.09c.25.3.51.56.77.84v-111.65h0ZM3713.55,938.54c0-21.67-7.41-40.13-22.23-55.39-14.85-15.27-32.81-22.91-53.83-22.91s-39.01,7.64-53.84,22.91c-14.85,15.25-22.29,33.71-22.29,55.39s7.45,40.2,22.29,55.47c14.83,15.24,32.77,22.9,53.84,22.9s38.98-7.67,53.83-22.9c14.83-15.27,22.23-33.73,22.23-55.47Z"/>
          <path id="d-2" class="cls-1" d="M4218,750.17c0-4.32,1.51-8.03,4.49-11.08,2.98-3.06,6.52-4.6,10.74-4.6s7.74,1.54,10.75,4.6c2.95,3.06,4.45,6.76,4.45,11.08v188.36c0,30.34-10.4,56.18-31.2,77.55-20.8,21.47-45.89,32.17-75.33,32.17s-54.5-10.7-75.33-32.17c-20.84-21.37-31.2-47.21-31.2-77.55s10.37-56.12,31.2-77.55c20.81-21.39,45.92-32.09,75.33-32.09s54.53,10.69,75.33,32.09c.27.3.51.56.77.84v-111.65h0ZM4218,938.54c0-21.67-7.41-40.13-22.27-55.39-14.83-15.27-32.76-22.91-53.83-22.91s-39.01,7.64-53.85,22.91c-14.83,15.25-22.23,33.71-22.23,55.39s7.41,40.2,22.23,55.47c14.84,15.24,32.82,22.9,53.85,22.9s39-7.67,53.83-22.9c14.86-15.27,22.27-33.73,22.27-55.47Z"/>
          <path id="a" class="cls-1" d="M4461.49,1015.31c-21.31,22-46.64,32.95-76.08,32.95s-54.53-10.7-75.33-32.17c-20.79-21.37-31.23-47.21-31.23-77.55s10.44-56.12,31.23-77.55c20.8-21.39,45.92-32.09,75.33-32.09s54.5,10.69,75.35,32.09c20.76,21.43,31.18,47.3,31.18,77.55v94.06c0,4.28-1.44,8.01-4.44,11.04-3.09,3.09-6.59,4.62-10.78,4.62s-7.75-1.54-10.79-4.62c-2.99-3.03-4.44-6.76-4.44-11.04v-17.29ZM4385.41,860.24c-21.05,0-39.04,7.64-53.85,22.91-14.79,15.25-22.25,33.71-22.25,55.39s7.46,40.2,22.25,55.47c14.81,15.24,32.8,22.9,53.85,22.9s38.94-7.67,53.83-22.9c14.85-15.27,22.25-33.73,22.25-55.47s-7.41-40.13-22.25-55.39c-14.9-15.27-32.77-22.91-53.83-22.91h0Z"/>
          <path id="g" class="cls-1" d="M4705.01,1015.31c-.3.26-.51.52-.85.78-20.71,21.47-45.86,32.17-75.3,32.17s-54.5-10.7-75.31-32.17c-20.79-21.37-31.18-47.21-31.18-77.55s10.4-56.12,31.18-77.55c20.8-21.39,45.96-32.09,75.31-32.09s54.59,10.69,75.3,32.09c20.84,21.43,31.23,47.3,31.23,77.55v109.72c0,22.85-7.91,42.7-23.91,59.47-22.28,23.03-49.32,34.48-80.91,34.48s-58.39-11.46-80.64-34.48c-8.22-8.29-14.93-17.37-20.15-27.17-1.45-2.35-2.23-5.09-2.23-8.25,0-4.28,1.44-7.96,4.45-11.04,2.91-3.09,6.55-4.62,10.78-4.62s7.74,1.54,10.79,4.54c1.29,1.45,2.36,2.99,3.25,4.71,3.81,7.05,8.66,13.6,14.64,19.77,16.35,16.81,36.06,25.24,59.12,25.24s42.88-8.43,59.18-25.24c10.14-12.54,15.27-25.07,15.27-37.4v-32.95h0ZM4628.86,860.24c-20.97,0-38.94,7.64-53.83,22.91-14.8,15.25-22.2,33.71-22.2,55.39s7.41,40.2,22.2,55.47c14.89,15.24,32.86,22.9,53.83,22.9s39.01-7.67,53.83-22.9c14.88-15.27,22.32-33.73,22.32-55.47s-7.44-40.13-22.32-55.39c-14.8-15.27-32.73-22.91-53.83-22.91h0Z"/>
          <path id="e" class="cls-1" d="M4931.02,994.97c4.18,0,7.78,1.55,10.78,4.6,2.91,3.08,4.46,6.76,4.46,11.08s-1.55,8-4.37,11.12c-19.69,17.67-42.84,26.49-69.49,26.49-29.43,0-54.54-10.7-75.3-32.17-20.79-21.37-31.23-47.21-31.23-77.55s10.44-56.12,31.23-77.55c20.76-21.39,45.87-32.09,75.3-32.09s54.52,10.69,75.31,32.09c20.8,21.43,31.24,47.3,31.24,77.55,0,4.36-1.47,8.06-4.44,11.08-3,3.09-6.6,4.6-10.79,4.6h-166c2.74,15.03,9.71,28.28,20.88,39.78,14.84,15.24,32.77,22.9,53.82,22.9,19,0,35.44-6.21,49.13-18.62,2.77-2.2,5.9-3.32,9.5-3.32h-.01ZM4947.11,922.87c-2.75-14.99-9.67-28.25-20.88-39.72-14.85-15.27-32.77-22.91-53.83-22.91s-38.97,7.64-53.82,22.91c-11.17,11.47-18.14,24.73-20.88,39.72h149.41Z"/>
          <path id="n" class="cls-1" d="M5188.57,1015.31v17.29c0,4.28,1.45,8.01,4.46,11.04,3.03,3.09,6.59,4.62,10.77,4.62s7.69-1.54,10.78-4.62c3-3.03,4.45-6.76,4.45-11.04v-94.06c0-.14-.01-.28-.01-.42s.01-.28.01-.42c0-30.25-10.44-56.12-31.22-77.55-20.81-21.39-45.92-32.09-75.33-32.09s-54.5,10.69-75.34,32.09c-20.75,21.43-31.18,47.3-31.18,77.55v94.06c0,4.28,1.46,8,4.45,11.04,3.08,3.09,6.59,4.62,10.77,4.62s7.74-1.53,10.79-4.62c2.99-3.03,4.44-6.76,4.44-11.04v-93.17l.04.04c0-.21-.03-.4-.03-.61,0-.34,0-.67.01-1.01.34-21.02,7.78-38.96,22.22-53.85,14.8-15.27,32.8-22.91,53.84-22.91s38.94,7.64,53.83,22.91c14.78,15.17,22.16,33.53,22.24,55.07"/>
        </g>
        <path id="fluga" class="cls-1" d="M4000.14,889.93c-2.68-4.65-7.2-6.24-12.47-6.02-11.62.47-26.95,9.69-34.75,14.38-17.88,10.76-19.72,15.06-37.54,25.09-.04.03-.09.06-.14.09-5.08-8.24-14.16-13.76-24.56-13.76s-19.47,5.51-24.55,13.75c-.05-.03-.09-.05-.14-.08-17.82-10.04-19.65-14.34-37.54-25.09-7.8-4.69-23.13-13.91-34.75-14.38-5.28-.22-9.79,1.37-12.47,6.02-1.9,3.29-7.8,9.99-7.8,48.63s5.9,45.34,7.8,48.63c8.58,14.87,35.88-1.54,47.22-8.36,17.88-10.76,19.72-15.06,37.54-25.09.04-.03.09-.06.14-.09,5.08,8.24,14.16,13.76,24.55,13.76s19.47-5.51,24.55-13.75c.05.03.09.05.14.08,17.82,10.04,19.65,14.34,37.54,25.09,11.34,6.82,38.64,23.23,47.22,8.36,1.9-3.29,7.8-9.99,7.8-48.63s-5.9-45.34-7.8-48.63h0Z"/>
        <g class="cls-2">
          <text class="cls-3" transform="translate(3665.22 1143.43)"><tspan x="0" y="0">9 OKTOBER 2025</tspan></text>
        </g>
      </g>
    </g>
  </g>
</svg>