<?xml version="1.0" encoding="UTF-8"?>
<svg xmlns="http://www.w3.org/2000/svg" version="1.1" viewBox="0 0 11338.58 2267.72">
  <defs>
    <style>
      .cls-1 {
        fill: #e72d7b;
      }

      .cls-2 {
        fill: #fff;
        font-family: NeueHaasDisplay-Light, 'Neue Haas Grotesk Display Pro';
        font-size: 120px;
        font-weight: 300;
      }
    </style>
  </defs>
  <!-- Generator: Adobe Illustrator 28.7.1, SVG Export Plug-In . SVG Version: 1.2.0 Build 142)  -->
  <g>
    <g id="Logga">
      <g id="text">
        <path id="d" class="cls-1" d="M5139.94,602.8c0-5.98,2.1-11.11,6.19-15.34,4.15-4.23,9.09-6.37,14.89-6.37s10.75,2.13,14.87,6.37c4.1,4.23,6.19,9.36,6.19,15.34v260.71c0,41.99-14.42,77.76-43.2,107.34-28.79,29.72-63.55,44.53-104.21,44.53s-75.56-14.81-104.31-44.53c-28.8-29.58-43.2-65.35-43.2-107.34s14.4-77.67,43.2-107.34c28.75-29.61,63.54-44.41,104.31-44.41s75.42,14.8,104.21,44.41c.34.42.7.77,1.06,1.16v-154.53ZM5139.94,863.51c0-30-10.25-55.55-30.77-76.66-20.55-21.14-45.41-31.71-74.5-31.71s-54,10.57-74.52,31.71c-20.55,21.11-30.85,46.66-30.85,76.66s10.31,55.64,30.85,76.77c20.52,21.09,45.36,31.69,74.52,31.69s53.95-10.61,74.5-31.69c20.52-21.13,30.77-46.69,30.77-76.77Z"/>
        <path id="d-2" data-name="d" class="cls-1" d="M5838.15,602.8c0-5.98,2.09-11.11,6.22-15.34,4.12-4.23,9.02-6.37,14.87-6.37s10.71,2.13,14.88,6.37c4.09,4.23,6.16,9.36,6.16,15.34v260.71c0,41.99-14.39,77.76-43.19,107.34-28.79,29.72-63.51,44.53-104.26,44.53s-75.44-14.81-104.26-44.53c-28.84-29.58-43.19-65.35-43.19-107.34s14.35-77.67,43.19-107.34c28.81-29.61,63.56-44.41,104.26-44.41s75.47,14.8,104.26,44.41c.38.42.7.77,1.07,1.16v-154.53ZM5838.15,863.51c0-30-10.25-55.55-30.82-76.66-20.53-21.14-45.34-31.71-74.51-31.71s-53.99,10.57-74.53,31.71c-20.52,21.11-30.77,46.66-30.77,76.66s10.25,55.64,30.77,76.77c20.54,21.09,45.43,31.69,74.53,31.69s53.98-10.61,74.51-31.69c20.57-21.13,30.82-46.69,30.82-76.77Z"/>
        <path id="a" class="cls-1" d="M6175.17,969.77c-29.49,30.45-64.56,45.61-105.3,45.61s-75.47-14.81-104.26-44.53c-28.77-29.58-43.22-65.35-43.22-107.34s14.45-77.67,43.22-107.34c28.79-29.61,63.56-44.41,104.26-44.41s75.44,14.8,104.29,44.41c28.73,29.66,43.15,65.47,43.15,107.34v130.19c0,5.92-2,11.08-6.14,15.28-4.28,4.27-9.12,6.39-14.92,6.39s-10.72-2.13-14.93-6.39c-4.14-4.2-6.15-9.36-6.15-15.28v-23.93ZM6069.87,755.14c-29.13,0-54.04,10.57-74.54,31.71-20.47,21.11-30.8,46.66-30.8,76.66s10.33,55.64,30.8,76.77c20.5,21.09,45.4,31.69,74.54,31.69s53.89-10.61,74.51-31.69c20.55-21.13,30.79-46.69,30.79-76.77s-10.25-55.55-30.79-76.66c-20.62-21.14-45.36-31.71-74.51-31.71Z"/>
        <path id="g" class="cls-1" d="M6512.23,969.77c-.41.36-.71.72-1.18,1.08-28.66,29.72-63.48,44.53-104.22,44.53s-75.44-14.81-104.23-44.53c-28.78-29.58-43.16-65.35-43.16-107.34s14.39-77.67,43.16-107.34c28.79-29.61,63.61-44.41,104.23-44.41s75.56,14.8,104.22,44.41c28.85,29.66,43.23,65.47,43.23,107.34v151.87c0,31.63-10.95,59.1-33.1,82.31-30.84,31.87-68.27,47.73-111.99,47.73s-80.82-15.86-111.62-47.73c-11.38-11.48-20.66-24.04-27.89-37.61-2.01-3.25-3.09-7.04-3.09-11.42,0-5.92,2-11.02,6.16-15.28,4.03-4.27,9.07-6.4,14.92-6.4s10.71,2.13,14.93,6.28c1.78,2.01,3.27,4.14,4.5,6.52,5.27,9.76,11.98,18.82,20.27,27.36,22.63,23.27,49.91,34.93,81.83,34.93s59.35-11.67,81.91-34.93c14.03-17.36,21.13-34.7,21.13-51.76v-45.61ZM6406.83,755.14c-29.02,0-53.89,10.57-74.5,31.71-20.48,21.11-30.73,46.66-30.73,76.66s10.25,55.64,30.73,76.77c20.61,21.09,45.48,31.69,74.5,31.69s54-10.61,74.5-31.69c20.6-21.13,30.9-46.69,30.9-76.77s-10.3-55.55-30.9-76.66c-20.49-21.14-45.3-31.71-74.5-31.71Z"/>
        <path id="e" class="cls-1" d="M6825.04,941.62c5.79,0,10.77,2.14,14.92,6.37,4.03,4.26,6.17,9.35,6.17,15.34s-2.14,11.07-6.05,15.39c-27.25,24.46-59.3,36.66-96.18,36.66-40.73,0-75.49-14.81-104.22-44.53-28.78-29.58-43.22-65.35-43.22-107.34s14.45-77.67,43.22-107.34c28.73-29.61,63.49-44.41,104.22-44.41s75.46,14.8,104.23,44.41c28.79,29.66,43.24,65.47,43.24,107.34,0,6.04-2.03,11.16-6.15,15.33-4.15,4.27-9.13,6.37-14.94,6.37h-229.76c3.79,20.81,13.44,39.14,28.9,55.06,20.54,21.09,45.36,31.69,74.49,31.69,26.3,0,49.05-8.59,68-25.77,3.84-3.05,8.16-4.59,13.15-4.59ZM6847.31,841.83c-3.8-20.75-13.38-39.1-28.9-54.98-20.56-21.14-45.36-31.71-74.51-31.71s-53.94,10.57-74.49,31.71c-15.46,15.88-25.11,34.23-28.9,54.98h206.8Z"/>
        <path id="n" class="cls-1" d="M7181.52,969.77v23.93c0,5.92,2.01,11.08,6.17,15.28,4.2,4.27,9.12,6.39,14.91,6.39s10.65-2.13,14.92-6.39c4.15-4.2,6.16-9.36,6.16-15.28v-130.19c0-.2-.02-.39-.02-.58s.02-.39.02-.58c0-41.87-14.45-77.67-43.21-107.34-28.8-29.61-63.56-44.41-104.27-44.41s-75.44,14.8-104.28,44.41c-28.72,29.66-43.16,65.47-43.16,107.34v130.19c0,5.92,2.02,11.07,6.16,15.28,4.26,4.27,9.12,6.39,14.91,6.39s10.71-2.12,14.93-6.39c4.14-4.2,6.14-9.36,6.14-15.28v-128.96l.06.06c0-.29-.04-.56-.04-.85,0-.47.01-.93.02-1.4.47-29.09,10.77-53.93,30.75-74.54,20.48-21.14,45.4-31.71,74.52-31.71s53.9,10.57,74.51,31.71c20.45,21,30.67,46.41,30.78,76.22"/>
      </g>
      <path id="fluga" class="cls-1" d="M5536.61,796.24c-3.71-6.43-9.96-8.63-17.26-8.33-16.08.65-37.3,13.41-48.1,19.9-24.75,14.89-27.29,20.84-51.96,34.73-.06.04-.12.08-.19.12-7.03-11.41-19.6-19.04-33.99-19.04s-26.95,7.63-33.98,19.03c-.07-.04-.13-.07-.19-.11-24.66-13.89-27.2-19.85-51.96-34.73-10.8-6.49-32.02-19.25-48.1-19.9-7.31-.3-13.55,1.9-17.26,8.33-2.63,4.55-10.79,13.83-10.79,67.31s8.16,62.76,10.79,67.31c11.88,20.58,49.66-2.13,65.36-11.57,24.75-14.89,27.29-20.84,51.96-34.73.06-.04.12-.08.19-.12,7.03,11.41,19.6,19.04,33.98,19.04s26.95-7.63,33.98-19.03c.07.04.13.07.19.11,24.66,13.89,27.2,19.85,51.96,34.73,15.7,9.44,53.48,32.15,65.36,11.57,2.63-4.55,10.79-13.83,10.79-67.31s-8.16-62.76-10.79-67.31Z"/>
      <text class="cls-2" transform="translate(5073.05 1147.1)"><tspan x="0" y="0">OCTOBER 9 2025</tspan></text>
      <text/>
    </g>
  </g>
</svg>