<svg width="385" height="4568" viewBox="0 0 385 4568" fill="none" xmlns="http://www.w3.org/2000/svg">
<path d="M4.35352 2281.1C4.35352 2281.1 21.5135 2005.53 255.744 2026.91C397.574 2039.86 324.454 1507.23 182.624 1494.28C-35.0865 1474.41 10.2335 1199.59 51.0035 1101.75C91.7735 1003.91 344.554 673.114 275.234 522.854C205.914 372.594 47.5135 387.734 32.3735 173.414" stroke="#AD3460" stroke-width="2" stroke-miterlimit="10"/>
<path d="M32.3127 169.584C47.1227 379.144 212.543 364.294 276.993 513.034C341.443 661.774 91.2227 993.564 50.7227 1092.18C10.2227 1190.8 -27.0673 1466.85 185.683 1488.35C324.243 1503.08 395.693 2025.83 251.893 2019.03C20.5927 2002 10.8327 2276.77 12.7127 2281.23" stroke="#AB335F" stroke-width="2" stroke-miterlimit="10"/>
<path d="M32.2632 165.754C46.7332 370.554 219.173 355.994 278.763 503.224C338.353 650.454 90.6932 983.224 50.4532 1082.61C10.2132 1182.01 -19.0468 1459.29 188.743 1482.42C324.033 1498.93 393.823 2011.81 248.043 2011.14C19.6732 1998.46 17.3132 2272.43 21.0732 2281.36" stroke="#A8335E" stroke-width="2" stroke-miterlimit="10"/>
<path d="M32.2136 161.924C46.3436 361.954 225.804 347.694 280.524 493.404C335.244 639.114 90.1536 972.864 50.1836 1073.04C10.2136 1173.22 -11.0264 1451.73 191.814 1476.48C323.824 1494.77 391.954 1997.78 244.204 2003.25C18.7736 1994.92 23.8036 2268.1 29.4436 2281.49" stroke="#A6325D" stroke-width="2" stroke-miterlimit="10"/>
<path d="M32.1637 158.094C45.9637 353.364 232.434 339.394 282.284 483.584C332.144 627.774 89.6037 962.514 49.9037 1063.47C10.1937 1164.43 -3.01634 1444.16 194.864 1470.55C323.604 1490.63 390.074 1983.75 240.344 1995.37C17.8537 1991.39 30.2837 2263.77 37.7937 2281.62" stroke="#A3325C" stroke-width="2" stroke-miterlimit="10"/>
<path d="M32.114 154.254C45.574 344.764 239.054 331.084 284.054 473.764C329.044 616.444 89.074 952.164 49.634 1053.89C10.194 1155.62 5.00404 1436.59 197.934 1464.61C323.404 1486.47 388.214 1969.72 236.504 1987.48C16.944 1987.85 36.774 2259.43 46.174 2281.75" stroke="#A1315C" stroke-width="2" stroke-miterlimit="10"/>
<path d="M32.0635 150.424C45.1835 336.174 245.684 322.784 285.814 463.944C325.944 605.104 88.5335 941.814 49.3535 1044.33C10.1835 1146.84 13.0135 1429.04 200.984 1458.68C323.184 1482.32 386.334 1955.7 232.644 1979.59C16.0235 1984.31 43.2435 2255.1 54.5235 2281.88" stroke="#9E315B" stroke-width="2" stroke-miterlimit="10"/>
<path d="M32.004 146.594C44.794 327.574 252.304 314.484 287.564 454.134C322.834 593.774 87.984 931.474 49.074 1034.76C10.164 1138.05 21.024 1421.48 204.044 1452.75C322.974 1478.17 384.454 1941.67 228.794 1971.71C15.114 1980.78 49.734 2250.77 62.884 2282.01" stroke="#9C305A" stroke-width="2" stroke-miterlimit="10"/>
<path d="M31.9531 142.764C44.4031 318.984 258.933 306.184 289.333 444.314C319.733 582.444 87.4431 921.114 48.8031 1025.18C10.1631 1129.25 29.0431 1413.91 207.103 1446.81C322.763 1474.01 382.583 1927.64 224.943 1963.82C14.1931 1977.24 56.2131 2246.43 71.2431 2282.14" stroke="#9A3059" stroke-width="2" stroke-miterlimit="10"/>
<path d="M31.9043 138.934C44.0143 310.394 265.564 297.884 291.094 434.504C316.634 571.114 86.9043 910.774 48.5243 1015.62C10.1443 1120.47 37.0643 1406.36 210.164 1440.88C322.554 1469.87 380.714 1913.62 221.094 1955.94C13.2843 1973.71 62.6943 2242.11 79.6043 2282.27" stroke="#972F58" stroke-width="2" stroke-miterlimit="10"/>
<path d="M31.8535 135.104C43.6335 301.794 272.184 289.584 292.864 424.684C313.534 559.784 86.3735 900.424 48.2635 1006.05C10.1535 1111.68 45.0935 1398.8 213.234 1434.95C322.354 1465.72 378.844 1899.6 217.254 1948.05C12.3735 1970.17 69.1935 2237.77 87.9835 2282.4" stroke="#952E57" stroke-width="2" stroke-miterlimit="10"/>
<path d="M31.8027 131.274C43.2427 293.204 278.813 281.284 294.623 414.864C310.433 548.444 85.8227 890.074 47.9827 996.474C10.1327 1102.87 53.1027 1391.22 216.293 1429.01C322.143 1461.56 376.973 1885.56 213.403 1940.16C11.4627 1966.63 75.6727 2233.44 96.3427 2282.53" stroke="#922E56" stroke-width="2" stroke-miterlimit="10"/>
<path d="M31.7539 127.444C42.8539 284.614 285.444 272.984 296.384 405.054C307.324 537.114 85.2839 879.734 47.7039 986.914C10.1239 1094.09 61.1139 1383.67 219.344 1423.08C321.924 1457.41 375.094 1871.54 209.544 1932.28C10.5439 1963.09 82.1439 2229.11 104.694 2282.66" stroke="#902D55" stroke-width="2" stroke-miterlimit="10"/>
<path d="M31.7031 123.604C42.4731 276.014 292.073 264.684 298.153 395.224C304.233 525.774 84.7531 869.364 47.4331 977.334C10.1231 1085.29 69.1331 1376.1 222.413 1417.14C321.723 1453.25 373.223 1857.51 205.703 1924.38C9.63312 1959.54 88.6431 2224.76 113.063 2282.78" stroke="#8E2D54" stroke-width="2" stroke-miterlimit="10"/>
<path d="M31.6426 119.774C42.0726 267.414 298.683 256.384 299.903 385.414C301.123 514.444 84.2026 859.024 47.1526 967.764C10.1026 1076.5 77.1426 1368.54 225.463 1411.21C321.503 1449.11 371.343 1843.48 201.843 1916.5C8.71259 1956.01 95.1126 2220.44 121.423 2282.92" stroke="#8B2C54" stroke-width="2" stroke-miterlimit="10"/>
<path d="M31.5938 115.944C41.6838 258.824 305.314 248.084 301.664 375.594C298.014 503.104 83.6537 848.674 46.8738 958.194C10.0938 1067.71 85.1537 1360.98 228.524 1405.27C321.294 1444.95 369.474 1829.45 197.994 1908.61C7.80374 1952.47 101.594 2216.1 129.784 2283.04" stroke="#892C53" stroke-width="2" stroke-miterlimit="10"/>
<path d="M31.543 112.114C41.303 250.234 311.943 239.784 303.433 365.774C294.923 491.774 83.123 838.324 46.603 948.624C10.083 1058.92 93.173 1353.42 231.583 1399.34C321.083 1440.8 367.593 1815.43 194.143 1900.73C6.88297 1948.94 108.073 2211.77 138.143 2283.18" stroke="#862B52" stroke-width="2" stroke-miterlimit="10"/>
<path d="M31.4941 108.284C40.9141 241.644 318.574 231.484 305.194 355.964C291.814 480.444 82.5841 827.984 46.3341 939.054C10.0841 1050.12 101.204 1345.85 234.654 1393.41C320.884 1436.65 365.734 1801.4 190.304 1892.84C5.98413 1945.4 114.574 2207.44 146.514 2283.3" stroke="#842B51" stroke-width="2" stroke-miterlimit="10"/>
<path d="M31.4434 104.454C40.5334 233.044 325.203 223.184 306.953 346.144C288.713 469.114 82.0334 817.634 46.0534 929.484C10.0634 1041.33 109.213 1338.29 237.703 1387.47C320.663 1432.5 363.853 1787.37 186.443 1884.95C5.06335 1941.86 121.043 2203.1 154.863 2283.43" stroke="#812A50" stroke-width="2" stroke-miterlimit="10"/>
<path d="M31.3926 100.624C40.1426 224.454 331.823 214.884 308.723 336.334C285.613 457.784 81.5026 807.284 45.7826 919.914C10.0626 1032.54 117.233 1330.73 240.763 1381.54C320.453 1428.35 361.973 1773.35 182.593 1877.07C4.14259 1938.33 127.523 2198.77 163.233 2283.57" stroke="#7F294F" stroke-width="2" stroke-miterlimit="10"/>
<path d="M31.334 96.794C39.744 215.864 338.444 206.584 310.474 326.514C282.504 446.444 80.954 796.934 45.494 910.344C10.034 1023.75 125.234 1323.17 243.814 1375.61C320.234 1424.2 360.094 1759.33 178.734 1869.19C3.224 1934.8 134.004 2194.45 171.584 2283.7" stroke="#7D294E" stroke-width="2" stroke-miterlimit="10"/>
<path d="M31.2832 92.954C39.3632 207.254 345.073 198.274 312.243 316.694C279.413 435.114 80.4232 786.584 45.2332 900.774C10.0432 1014.96 133.263 1315.61 246.883 1369.67C320.033 1420.04 358.233 1745.29 174.893 1861.29C2.32318 1931.25 140.493 2190.1 179.953 2283.82" stroke="#7A284D" stroke-width="2" stroke-miterlimit="10"/>
<path d="M31.2344 89.124C38.9744 198.664 351.704 189.974 314.004 306.874C276.304 423.774 79.8744 776.234 44.9544 891.204C10.0344 1006.17 141.274 1308.05 249.944 1363.74C319.824 1415.89 356.364 1731.27 171.044 1853.41C1.40437 1927.72 146.974 2185.77 188.314 2283.96" stroke="#78284C" stroke-width="2" stroke-miterlimit="10"/>
<path d="M31.1836 85.294C38.5836 190.074 358.334 181.674 315.764 297.054C273.204 412.434 79.3336 765.884 44.6736 881.624C10.0136 997.364 149.284 1300.47 252.994 1357.8C319.604 1411.74 354.474 1717.24 167.184 1845.52C0.483597 1924.18 153.454 2181.44 196.674 2284.08" stroke="#75274C" stroke-width="2" stroke-miterlimit="10"/>
<path d="M31.1328 81.464C38.2028 181.484 364.953 173.374 317.533 287.244C270.103 401.114 78.8028 755.534 44.4028 872.064C10.0128 988.584 157.303 1292.92 256.063 1351.87C319.403 1407.59 352.613 1703.21 163.343 1837.63C-0.427185 1920.64 159.943 2177.1 205.043 2284.21" stroke="#73274B" stroke-width="2" stroke-miterlimit="10"/>
<path d="M31.084 77.634C37.814 172.884 371.584 165.074 319.294 277.424C267.004 389.774 78.264 745.184 44.134 862.484C10.004 979.784 165.334 1285.35 259.124 1345.93C319.194 1403.43 350.744 1689.18 159.494 1829.74C-1.33601 1917.1 166.424 2172.76 213.404 2284.33" stroke="#70264A" stroke-width="2" stroke-miterlimit="10"/>
<path d="M31.0234 73.804C37.4134 164.294 378.203 156.774 321.043 267.614C263.883 378.454 77.7134 734.834 43.8534 852.914C9.99344 970.994 173.343 1277.79 262.183 1340C318.983 1399.28 348.863 1675.16 155.643 1821.86C-2.24657 1913.57 172.903 2168.44 221.763 2284.47" stroke="#6E2649" stroke-width="2" stroke-miterlimit="10"/>
<path d="M30.9727 69.974C37.0327 155.704 384.833 148.474 322.813 257.794C260.793 367.114 77.1727 724.494 43.5727 843.354C9.97266 962.214 181.353 1270.24 265.233 1334.07C318.763 1395.14 346.983 1661.13 151.783 1813.98C-3.17736 1910.04 179.383 2164.11 230.113 2284.61" stroke="#6C2548" stroke-width="2" stroke-miterlimit="10"/>
<path d="M30.9238 66.144C36.6438 147.114 391.464 140.174 324.574 247.974C257.694 355.774 76.6338 714.144 43.3038 833.774C9.97383 953.414 189.374 1262.67 268.304 1328.13C318.564 1390.98 345.124 1647.1 147.944 1806.08C-4.07618 1906.49 185.874 2159.76 238.494 2284.72" stroke="#692447" stroke-width="2" stroke-miterlimit="10"/>
<path d="M30.873 62.304C36.253 138.504 398.083 131.864 326.343 238.154C254.603 344.444 76.093 703.794 43.023 824.204C9.95304 944.614 197.383 1255.1 271.353 1322.2C318.343 1386.83 343.233 1633.08 144.083 1798.2C-4.99696 1902.96 192.343 2155.44 246.843 2284.86" stroke="#672446" stroke-width="2" stroke-miterlimit="10"/>
<path d="M30.8242 58.474C35.8742 129.914 404.714 123.564 328.104 228.334C251.494 333.104 75.5542 693.434 42.7542 814.634C9.95422 935.824 205.404 1247.54 274.424 1316.26C318.144 1382.67 341.374 1619.05 140.244 1790.31C-5.90578 1899.42 198.844 2151.1 255.214 2284.99" stroke="#642345" stroke-width="2" stroke-miterlimit="10"/>
<path d="M30.7734 54.644C35.4834 121.324 411.343 115.264 329.863 218.524C248.383 321.774 75.0134 683.094 42.4734 805.064C9.93344 927.034 213.413 1239.98 277.473 1310.33C317.923 1378.52 339.493 1605.02 136.383 1782.43C-6.82657 1895.89 205.313 2146.77 263.563 2285.12" stroke="#622344" stroke-width="2" stroke-miterlimit="10"/>
<path d="M30.7227 50.814C35.0927 112.734 417.973 106.964 331.633 208.704C245.283 310.444 74.4727 672.744 42.2027 795.494C9.93265 918.244 221.433 1232.42 280.543 1304.4C317.723 1374.38 337.623 1591 132.543 1774.54C-7.72735 1892.35 211.803 2142.44 271.933 2285.25" stroke="#5F2244" stroke-width="2" stroke-miterlimit="10"/>
<path d="M30.6641 46.984C34.7041 104.134 424.584 98.664 333.384 198.894C242.184 299.124 73.9341 662.394 41.9241 785.924C9.92406 909.454 229.454 1224.86 283.594 1298.46C317.504 1370.22 335.744 1576.97 128.684 1766.65C-8.65593 1888.81 218.284 2138.1 280.294 2285.38" stroke="#5D2243" stroke-width="2" stroke-miterlimit="10"/>
<path d="M30.6133 43.154C34.3133 95.544 431.213 90.364 335.143 189.074C239.083 287.774 73.3933 652.044 41.6533 776.354C9.91328 900.664 237.473 1217.3 286.663 1292.53C317.303 1366.07 333.883 1562.94 124.843 1758.77C-9.55672 1885.28 224.773 2133.77 288.663 2285.51" stroke="#5B2142" stroke-width="2" stroke-miterlimit="10"/>
<path d="M30.5645 39.324C33.9245 86.954 437.844 82.064 336.914 179.254C235.974 276.444 72.8545 641.694 41.3745 766.784C9.89445 891.874 245.484 1209.73 289.714 1286.6C317.084 1361.92 331.994 1548.92 120.984 1750.89C-10.4855 1881.75 231.244 2129.45 297.014 2285.65" stroke="#582141" stroke-width="2" stroke-miterlimit="10"/>
<path d="M30.5137 35.494C33.5437 78.354 444.474 73.774 338.674 169.444C232.874 265.104 72.3037 631.354 41.1037 757.214C9.89367 883.074 253.504 1202.17 292.784 1280.66C316.884 1357.76 330.134 1534.89 117.144 1742.99C-11.3863 1878.2 237.744 2125.1 305.384 2285.76" stroke="#562040" stroke-width="2" stroke-miterlimit="10"/>
<path d="M30.4629 31.654C33.1529 69.754 451.103 65.464 340.433 159.614C229.773 253.774 71.7629 621.004 40.8229 747.644C9.88289 874.284 261.513 1194.61 295.833 1274.73C316.663 1353.62 328.253 1520.86 113.283 1735.11C-12.3071 1874.67 244.213 2120.77 313.743 2285.9" stroke="#531F3F" stroke-width="2" stroke-miterlimit="10"/>
<path d="M30.4141 27.824C32.7741 61.164 457.724 57.164 342.204 149.804C226.674 242.444 71.2241 610.654 40.5541 738.074C9.87406 865.494 269.534 1187.05 298.904 1268.8C316.464 1349.47 326.394 1506.84 109.444 1727.23C-13.2159 1871.14 250.704 2116.45 322.114 2286.04" stroke="#511F3E" stroke-width="2" stroke-miterlimit="10"/>
<path d="M30.3535 23.994C32.3735 52.574 464.344 48.864 343.954 139.984C223.564 231.104 70.6835 600.304 40.2735 728.504C9.86351 856.704 277.544 1179.49 301.954 1262.86C316.244 1345.31 324.504 1492.81 105.594 1719.33C-14.1265 1867.59 257.184 2112.1 330.474 2286.15" stroke="#4F1E3D" stroke-width="2" stroke-miterlimit="10"/>
<path d="M30.3027 20.164C31.9827 43.974 470.973 40.564 345.723 130.164C220.463 219.774 70.1427 589.954 40.0027 718.934C9.86274 847.914 285.563 1171.93 305.023 1256.93C316.043 1341.16 322.643 1478.79 101.753 1711.45C-15.0273 1864.06 263.683 2107.77 338.843 2286.29" stroke="#4C1E3C" stroke-width="2" stroke-miterlimit="10"/>
<path d="M30.2539 16.334C31.6039 35.384 477.604 32.264 347.484 120.354C217.364 208.444 69.6039 579.604 39.7239 709.364C9.84391 839.114 293.574 1164.36 308.074 1251C315.824 1337.02 320.764 1464.76 97.8939 1703.57C-15.9561 1860.53 270.154 2103.45 347.194 2286.43" stroke="#4A1D3C" stroke-width="2" stroke-miterlimit="10"/>
<path d="M30.2031 12.504C31.2131 26.794 484.233 23.964 349.243 110.534C214.263 197.104 69.0631 569.254 39.4531 699.784C9.84312 830.314 301.603 1156.79 311.143 1245.05C315.623 1332.85 318.893 1450.72 94.0531 1695.67C-16.8569 1856.98 276.643 2099.1 355.573 2286.54" stroke="#471D3B" stroke-width="2" stroke-miterlimit="10"/>
<path d="M30.1543 8.67402C30.8243 18.204 490.854 15.664 351.014 100.724C211.164 185.774 68.5243 558.904 39.1743 690.214C9.8243 821.524 309.614 1149.23 314.194 1239.12C315.404 1328.7 317.014 1436.7 90.1943 1687.78C-17.7757 1853.44 283.124 2094.76 363.924 2286.67" stroke="#451C3A" stroke-width="2" stroke-miterlimit="10"/>
<path d="M30.1035 4.84402C30.4435 9.60402 497.484 7.36401 352.774 90.904C208.054 174.444 67.9835 548.554 38.9035 680.644C9.82351 812.734 317.634 1141.67 317.264 1233.19C315.204 1324.55 315.154 1422.67 86.3535 1679.9C-18.6865 1849.91 289.614 2090.44 372.294 2286.8" stroke="#421C39" stroke-width="2" stroke-miterlimit="10"/>
<path d="M30.0527 1.00402C30.0527 1.00402 504.103 -0.945984 354.533 81.084C204.963 163.114 67.4427 538.204 38.6227 671.074C9.80273 803.944 325.643 1134.11 320.313 1227.25C314.983 1320.39 313.263 1408.64 82.4927 1672.01C-19.6073 1846.37 296.083 2086.1 380.643 2286.93" stroke="#401B38" stroke-width="2" stroke-miterlimit="10"/>
<path d="M380.362 2286.32C380.362 2286.32 363.202 2561.89 128.972 2540.51C-12.8579 2527.56 60.2621 3060.19 202.092 3073.14C419.802 3093.01 374.482 3367.83 333.712 3465.67C292.942 3563.51 40.1621 3894.31 109.482 4044.57C178.802 4194.83 337.202 4179.69 352.342 4394.01" stroke="#401B38" stroke-width="2" stroke-miterlimit="10"/>
<path d="M352.403 4397.84C337.593 4188.28 172.173 4203.13 107.723 4054.39C43.2726 3905.65 293.493 3573.86 333.993 3475.24C374.493 3376.62 411.783 3100.57 199.033 3079.07C60.4726 3064.34 -10.9774 2541.59 132.823 2548.39C364.123 2565.42 373.883 2290.65 372.003 2286.19" stroke="#421C39" stroke-width="2" stroke-miterlimit="10"/>
<path d="M352.451 4401.67C337.981 4196.87 165.541 4211.43 105.951 4064.2C46.3614 3916.97 294.021 3584.2 334.261 3484.81C374.501 3385.41 403.761 3108.13 195.971 3085C60.6814 3068.49 -9.10857 2555.61 136.671 2556.28C365.041 2568.96 367.401 2294.99 363.641 2286.06" stroke="#451C3A" stroke-width="2" stroke-miterlimit="10"/>
<path d="M352.501 4405.5C338.371 4205.47 158.911 4219.73 104.191 4074.02C49.471 3928.31 294.561 3594.56 334.531 3494.38C374.501 3394.2 395.741 3115.69 192.901 3090.94C60.891 3072.65 -7.23898 2569.64 140.511 2564.17C365.941 2572.5 360.911 2299.32 355.271 2285.93" stroke="#471D3B" stroke-width="2" stroke-miterlimit="10"/>
<path d="M352.551 4409.33C338.751 4214.06 152.281 4228.03 102.431 4083.84C52.5703 3939.65 295.111 3604.91 334.811 3503.95C374.521 3402.99 387.731 3123.26 189.851 3096.87C61.1103 3076.79 -5.35963 2583.67 144.371 2572.05C366.861 2576.03 354.431 2303.65 346.921 2285.8" stroke="#4A1D3C" stroke-width="2" stroke-miterlimit="10"/>
<path d="M352.601 4413.17C339.141 4222.66 145.661 4236.34 100.661 4093.66C55.6717 3950.98 295.641 3615.26 335.081 3513.53C374.521 3411.8 379.711 3130.83 186.781 3102.81C61.3117 3080.95 -3.49831 2597.7 148.211 2579.94C367.771 2579.57 347.941 2307.99 338.541 2285.67" stroke="#4C1E3C" stroke-width="2" stroke-miterlimit="10"/>
<path d="M352.652 4417C339.532 4231.25 139.032 4244.64 98.9024 4103.48C58.7724 3962.32 296.182 3625.61 335.362 3523.09C374.532 3420.58 371.702 3138.38 183.732 3108.74C61.5324 3085.1 -1.61765 2611.72 152.072 2587.83C368.692 2583.11 341.472 2312.32 330.192 2285.54" stroke="#4F1E3D" stroke-width="2" stroke-miterlimit="10"/>
<path d="M352.712 4420.83C339.922 4239.85 132.412 4252.94 97.1517 4113.29C61.8817 3973.65 296.732 3635.95 335.642 3532.66C374.552 3429.37 363.692 3145.94 180.672 3114.67C61.7417 3089.25 0.261742 2625.75 155.922 2595.71C369.602 2586.64 334.982 2316.65 321.832 2285.41" stroke="#511F3E" stroke-width="2" stroke-miterlimit="10"/>
<path d="M352.761 4424.66C340.311 4248.44 125.781 4261.24 95.3813 4123.11C64.9813 3984.98 297.271 3646.31 335.911 3542.24C374.551 3438.17 355.671 3153.51 177.611 3120.61C61.9513 3093.41 2.13132 2639.78 159.771 2603.6C370.521 2590.18 328.501 2320.99 313.471 2285.28" stroke="#531F3F" stroke-width="2" stroke-miterlimit="10"/>
<path d="M352.811 4428.49C340.701 4257.03 119.151 4269.54 93.6209 4132.92C68.0809 3996.31 297.811 3656.65 336.191 3551.8C374.571 3446.95 347.651 3161.06 174.551 3126.54C62.1609 3097.55 4.00092 2653.8 163.621 2611.48C371.431 2593.71 322.021 2325.31 305.111 2285.15" stroke="#562040" stroke-width="2" stroke-miterlimit="10"/>
<path d="M352.862 4432.32C341.082 4265.63 112.532 4277.84 91.8516 4142.74C71.1816 4007.64 298.342 3667 336.452 3561.37C374.562 3455.74 339.622 3168.62 171.482 3132.47C62.3616 3101.7 5.87162 2667.82 167.462 2619.37C372.342 2597.25 315.522 2329.65 296.732 2285.02" stroke="#582141" stroke-width="2" stroke-miterlimit="10"/>
<path d="M352.913 4436.15C341.473 4274.22 105.903 4286.14 90.0923 4152.56C74.2823 4018.98 298.893 3677.35 336.733 3570.95C374.583 3464.55 331.613 3176.2 168.423 3138.41C62.5723 3105.86 7.74227 2681.86 171.313 2627.26C373.253 2600.79 309.043 2333.98 288.373 2284.89" stroke="#5B2142" stroke-width="2" stroke-miterlimit="10"/>
<path d="M352.962 4439.98C341.862 4282.81 99.2717 4294.44 88.3317 4162.37C77.3917 4030.31 299.432 3687.69 337.012 3580.51C374.592 3473.33 323.602 3183.75 165.372 3144.34C62.7917 3110.01 9.62169 2695.88 175.172 2635.14C374.172 2604.33 302.572 2338.31 280.022 2284.76" stroke="#5D2243" stroke-width="2" stroke-miterlimit="10"/>
<path d="M353.011 4443.82C342.241 4291.41 92.6416 4302.74 86.5616 4172.2C80.4816 4041.65 299.961 3698.06 337.281 3590.09C374.591 3482.13 315.581 3191.32 162.301 3150.28C62.9916 3114.17 11.4916 2709.91 179.011 2643.04C375.081 2607.88 296.071 2342.66 271.651 2284.64" stroke="#5F2244" stroke-width="2" stroke-miterlimit="10"/>
<path d="M353.072 4447.65C342.642 4300.01 86.0318 4311.04 84.8118 4182.01C83.5918 4052.98 300.512 3708.4 337.562 3599.66C374.612 3490.92 307.572 3198.88 159.252 3156.21C63.2118 3118.31 13.3718 2723.94 182.872 2650.92C376.002 2611.41 289.602 2346.98 263.292 2284.5" stroke="#622344" stroke-width="2" stroke-miterlimit="10"/>
<path d="M353.121 4451.48C343.031 4308.6 79.4003 4319.34 83.0503 4191.83C86.7003 4064.32 301.061 3718.75 337.841 3609.23C374.621 3499.71 299.561 3206.44 156.191 3162.15C63.4204 3122.47 15.2404 2737.97 186.721 2658.81C376.911 2614.95 283.121 2351.32 254.931 2284.38" stroke="#642345" stroke-width="2" stroke-miterlimit="10"/>
<path d="M353.173 4455.31C343.413 4317.19 72.7721 4327.64 81.2821 4201.65C89.7921 4075.65 301.593 3729.1 338.113 3618.8C374.633 3508.5 291.543 3214 153.133 3168.08C63.6321 3126.62 17.1221 2751.99 190.573 2666.69C377.833 2618.48 276.643 2355.65 246.573 2284.24" stroke="#672446" stroke-width="2" stroke-miterlimit="10"/>
<path d="M353.221 4459.14C343.801 4325.78 66.1409 4335.94 79.5209 4211.46C92.9009 4086.98 302.131 3739.44 338.381 3628.37C374.631 3517.3 283.511 3221.57 150.061 3174.01C63.831 3130.77 18.981 2766.02 194.411 2674.58C378.731 2622.02 270.141 2359.98 238.201 2284.12" stroke="#692447" stroke-width="2" stroke-miterlimit="10"/>
<path d="M353.271 4462.97C344.181 4334.38 59.5108 4344.24 77.7608 4221.28C96.0008 4098.31 302.681 3749.79 338.661 3637.94C374.651 3526.09 275.501 3229.13 147.011 3179.95C64.0508 3134.92 20.8608 2780.05 198.271 2682.47C379.651 2625.56 263.671 2364.32 229.851 2283.99" stroke="#6C2548" stroke-width="2" stroke-miterlimit="10"/>
<path d="M353.322 4466.8C344.572 4342.97 52.892 4352.54 75.992 4231.09C99.102 4109.64 303.212 3760.14 338.932 3647.51C374.652 3534.88 267.482 3236.69 143.952 3185.88C64.262 3139.07 22.742 2794.07 202.122 2690.35C380.572 2629.09 257.192 2368.65 221.482 2283.85" stroke="#6E2649" stroke-width="2" stroke-miterlimit="10"/>
<path d="M353.381 4470.63C344.971 4351.56 46.2703 4360.84 74.2403 4240.91C102.211 4120.98 303.761 3770.49 339.221 3657.08C374.681 3543.67 259.481 3244.25 140.901 3191.81C64.4803 3143.22 24.6203 2808.09 205.981 2698.23C381.491 2632.62 250.711 2372.97 213.131 2283.72" stroke="#70264A" stroke-width="2" stroke-miterlimit="10"/>
<path d="M353.431 4474.47C345.351 4360.17 39.6416 4369.15 72.4716 4250.73C105.301 4132.31 304.291 3780.84 339.481 3666.65C374.671 3552.46 251.451 3251.81 137.831 3197.75C64.6816 3147.38 26.4816 2822.13 209.821 2706.13C382.391 2636.17 244.221 2377.32 204.761 2283.6" stroke="#73274B" stroke-width="2" stroke-miterlimit="10"/>
<path d="M353.481 4478.3C345.741 4368.76 33.0111 4377.45 70.7111 4260.55C108.411 4143.65 304.841 3791.19 339.761 3676.22C374.681 3561.25 243.441 3259.37 134.771 3203.68C64.8911 3151.53 28.3511 2836.15 213.671 2714.01C383.311 2639.7 237.741 2381.65 196.401 2283.46" stroke="#75274C" stroke-width="2" stroke-miterlimit="10"/>
<path d="M353.532 4482.13C346.132 4377.35 26.3814 4385.75 68.9514 4270.37C111.512 4154.99 305.382 3801.54 340.042 3685.8C374.702 3570.06 235.432 3266.95 131.722 3209.62C65.1115 3155.68 30.2415 2850.18 217.532 2721.9C384.232 2643.24 231.262 2385.98 188.042 2283.34" stroke="#78284C" stroke-width="2" stroke-miterlimit="10"/>
<path d="M353.582 4485.96C346.512 4385.94 19.762 4394.05 67.182 4280.18C114.612 4166.31 305.912 3811.89 340.312 3695.36C374.702 3578.84 227.412 3274.5 128.652 3215.55C65.312 3159.83 32.102 2864.21 221.372 2729.79C385.142 2646.78 224.772 2390.32 179.672 2283.21" stroke="#7A284D" stroke-width="2" stroke-miterlimit="10"/>
<path d="M353.631 4489.79C346.901 4394.54 13.1304 4402.35 65.4204 4290C117.711 4177.65 306.451 3822.24 340.581 3704.94C374.711 3587.64 219.381 3282.07 125.591 3221.49C65.5204 3163.99 33.9704 2878.24 225.221 2737.68C386.051 2650.32 218.291 2394.66 171.311 2283.09" stroke="#7D294E" stroke-width="2" stroke-miterlimit="10"/>
<path d="M353.691 4493.62C347.301 4403.13 6.51098 4410.65 63.671 4299.81C120.831 4188.97 307.001 3832.59 340.861 3714.51C374.721 3596.43 211.371 3289.63 122.531 3227.42C65.731 3168.14 35.851 2892.26 229.071 2745.56C386.961 2653.85 211.811 2398.98 162.951 2282.95" stroke="#7F294F" stroke-width="2" stroke-miterlimit="10"/>
<path d="M353.743 4497.45C347.683 4411.72 -0.11746 4418.95 61.9025 4309.63C123.923 4200.31 307.543 3842.93 341.143 3724.07C374.743 3605.21 203.363 3297.18 119.483 3233.35C65.9525 3172.28 37.7326 2906.29 232.933 2753.44C387.893 2657.38 205.333 2403.31 154.603 2282.81" stroke="#812A50" stroke-width="2" stroke-miterlimit="10"/>
<path d="M353.791 4501.28C348.071 4420.31 -6.74902 4427.25 60.141 4319.45C127.021 4211.65 308.081 3853.28 341.411 3733.65C374.741 3614.01 195.341 3304.75 116.411 3239.29C66.151 3176.44 39.591 2920.32 236.771 2761.34C388.791 2660.93 198.841 2407.66 146.221 2282.7" stroke="#842B51" stroke-width="2" stroke-miterlimit="10"/>
<path d="M353.842 4505.12C348.462 4428.92 -13.3671 4435.56 58.3729 4329.27C130.112 4222.98 308.622 3863.63 341.692 3743.22C374.762 3622.81 187.332 3312.32 113.362 3245.22C66.3729 3180.59 41.4829 2934.34 240.632 2769.22C389.712 2664.46 192.372 2411.98 137.872 2282.56" stroke="#862B52" stroke-width="2" stroke-miterlimit="10"/>
<path d="M353.89 4508.95C348.84 4437.51 -19.9992 4443.86 56.6108 4339.09C133.22 4234.32 309.16 3873.99 341.96 3752.79C374.76 3631.6 179.31 3319.88 110.29 3251.16C66.5708 3184.75 43.3408 2948.37 244.47 2777.11C390.62 2668 185.87 2416.32 129.5 2282.43" stroke="#892C53" stroke-width="2" stroke-miterlimit="10"/>
<path d="M353.941 4512.78C349.231 4446.1 -26.6289 4452.16 54.8511 4348.9C136.331 4245.65 309.701 3884.33 342.241 3762.36C374.781 3640.39 171.301 3327.44 107.241 3257.09C66.7911 3188.9 45.2211 2962.4 248.331 2784.99C391.541 2671.53 179.401 2420.65 121.151 2282.3" stroke="#8B2C54" stroke-width="2" stroke-miterlimit="10"/>
<path d="M353.993 4516.61C349.623 4454.69 -33.2568 4460.46 53.0832 4358.72C139.433 4256.98 310.243 3894.68 342.513 3771.93C374.783 3649.18 163.283 3335 104.173 3263.02C66.9932 3193.04 47.0932 2976.42 252.173 2792.88C392.443 2675.07 172.913 2424.98 112.783 2282.17" stroke="#8E2D54" stroke-width="2" stroke-miterlimit="10"/>
<path d="M354.051 4520.44C350.011 4463.29 -39.8683 4468.76 51.3317 4368.53C142.531 4268.3 310.781 3905.03 342.791 3781.5C374.791 3657.97 155.261 3342.56 101.121 3268.96C67.2117 3197.2 48.9717 2990.45 256.031 2800.77C393.371 2678.61 166.431 2429.32 104.421 2282.04" stroke="#902D55" stroke-width="2" stroke-miterlimit="10"/>
<path d="M354.101 4524.27C350.401 4471.88 -46.4989 4477.06 49.5711 4378.35C145.631 4279.65 311.321 3915.38 343.061 3791.07C374.801 3666.76 147.241 3350.12 98.0511 3274.89C67.4111 3201.35 50.8311 3004.48 259.871 2808.65C394.271 2682.14 159.941 2433.65 96.0511 2281.91" stroke="#922E56" stroke-width="2" stroke-miterlimit="10"/>
<path d="M354.15 4528.1C350.79 4480.47 -53.1295 4485.36 47.8005 4388.17C148.74 4290.98 311.86 3925.73 343.34 3800.64C374.82 3675.55 139.23 3357.69 95.0006 3280.82C67.6306 3205.5 52.7206 3018.5 263.73 2816.53C395.2 2685.67 153.47 2437.97 87.7005 2281.77" stroke="#952E57" stroke-width="2" stroke-miterlimit="10"/>
<path d="M354.202 4531.93C351.172 4489.07 -59.758 4493.65 46.042 4397.98C151.842 4302.32 312.412 3936.07 343.612 3810.21C374.822 3684.35 131.212 3365.25 91.932 3286.76C67.832 3209.66 54.582 3032.53 267.572 2824.43C396.102 2689.22 146.972 2442.32 79.332 2281.66" stroke="#972F58" stroke-width="2" stroke-miterlimit="10"/>
<path d="M354.253 4535.77C351.563 4497.67 -66.3872 4501.96 44.2828 4407.81C154.943 4313.65 312.953 3946.42 343.893 3819.78C374.833 3693.14 123.203 3372.81 88.8828 3292.69C68.0528 3213.8 56.4628 3046.56 271.433 2832.31C397.023 2692.75 140.503 2446.65 70.9728 2281.52" stroke="#9A3059" stroke-width="2" stroke-miterlimit="10"/>
<path d="M354.3 4539.6C351.94 4506.26 -73.0093 4510.26 42.5107 4417.62C158.04 4324.98 313.49 3956.77 344.16 3829.35C374.84 3701.93 115.18 3380.37 85.8107 3298.62C68.2507 3217.95 58.3207 3060.58 275.27 2840.19C397.93 2696.28 134.01 2450.97 62.6007 2281.38" stroke="#9C305A" stroke-width="2" stroke-miterlimit="10"/>
<path d="M354.361 4543.43C352.341 4514.85 -79.6293 4518.56 40.7607 4427.44C161.151 4336.32 314.031 3967.12 344.441 3838.92C374.851 3710.72 107.171 3387.93 82.7607 3304.56C68.4707 3222.11 60.2107 3074.61 279.121 2848.09C398.841 2699.83 127.531 2455.32 54.2407 2281.27" stroke="#9E315B" stroke-width="2" stroke-miterlimit="10"/>
<path d="M354.412 4547.26C352.732 4523.45 -86.2582 4526.86 38.9918 4437.26C164.252 4347.65 314.572 3977.47 344.712 3848.49C374.852 3719.51 99.1518 3395.49 79.6918 3310.49C68.6718 3226.26 62.0718 3088.63 282.962 2855.97C399.742 2703.36 121.032 2459.65 45.8718 2281.13" stroke="#A1315C" stroke-width="2" stroke-miterlimit="10"/>
<path d="M354.462 4551.09C353.112 4532.04 -92.8886 4535.16 37.2314 4447.07C167.352 4358.98 315.112 3987.82 344.992 3858.06C374.872 3728.31 91.1414 3403.06 76.6414 3316.42C68.8914 3230.4 63.9514 3102.66 286.822 2863.85C400.672 2706.89 114.562 2463.97 37.5214 2280.99" stroke="#A3325C" stroke-width="2" stroke-miterlimit="10"/>
<path d="M354.512 4554.92C353.502 4540.63 -99.5174 4543.46 35.4726 4456.89C170.452 4370.32 315.652 3998.17 345.262 3867.64C374.872 3737.11 83.1126 3410.63 73.5726 3322.37C69.0926 3234.57 65.8226 3116.7 290.662 2871.75C401.572 2710.44 108.072 2468.32 29.1426 2280.88" stroke="#A6325D" stroke-width="2" stroke-miterlimit="10"/>
<path d="M354.56 4558.75C353.89 4549.22 -106.14 4551.76 33.7006 4466.7C173.55 4381.65 316.19 4008.52 345.54 3877.21C374.89 3745.9 75.1006 3418.19 70.5206 3328.3C69.3106 3238.72 67.7007 3130.72 294.52 2879.64C402.49 2713.98 101.59 2472.66 20.7906 2280.75" stroke="#A8335E" stroke-width="2" stroke-miterlimit="10"/>
<path d="M354.612 4562.58C354.272 4557.82 -112.768 4560.06 31.9415 4476.52C176.662 4392.98 316.732 4018.87 345.812 3886.78C374.892 3754.69 67.0815 3425.75 67.4515 3334.23C69.5115 3242.87 69.5615 3144.75 298.362 2887.52C403.402 2717.51 95.1015 2476.98 12.4215 2280.62" stroke="#AB335F" stroke-width="2" stroke-miterlimit="10"/>
<path d="M354.663 4566.42C354.663 4566.42 -119.387 4568.37 30.1823 4486.34C179.753 4404.31 317.272 4029.22 346.092 3896.35C374.912 3763.48 59.0723 3433.31 64.4023 3340.17C69.7323 3247.03 71.4523 3158.78 302.223 2895.41C404.323 2721.05 88.6323 2481.32 4.07227 2280.49" stroke="#AD3460" stroke-width="2" stroke-miterlimit="10"/>
</svg>
