<svg width="389" height="8972" viewBox="0 0 389 8972" fill="none" xmlns="http://www.w3.org/2000/svg">
<path d="M4.35352 2281.1C4.35352 2281.1 21.5135 2005.53 255.744 2026.91C397.574 2039.86 324.454 1507.23 182.624 1494.28C-35.0865 1474.41 10.2335 1199.59 51.0035 1101.75C91.7735 1003.91 344.554 673.114 275.234 522.854C205.914 372.594 47.5135 387.734 32.3735 173.414" stroke="#AD3460" stroke-width="2" stroke-miterlimit="10"/>
<path d="M32.3127 169.584C47.1227 379.144 212.543 364.294 276.993 513.034C341.443 661.774 91.2227 993.564 50.7227 1092.18C10.2227 1190.8 -27.0673 1466.85 185.683 1488.35C324.243 1503.08 395.693 2025.83 251.893 2019.03C20.5927 2002 10.8327 2276.77 12.7127 2281.23" stroke="#AB335F" stroke-width="2" stroke-miterlimit="10"/>
<path d="M32.2632 165.754C46.7332 370.554 219.173 355.994 278.763 503.224C338.353 650.454 90.6932 983.224 50.4532 1082.61C10.2132 1182.01 -19.0468 1459.29 188.743 1482.42C324.033 1498.93 393.823 2011.81 248.043 2011.14C19.6732 1998.46 17.3132 2272.43 21.0732 2281.36" stroke="#A8335E" stroke-width="2" stroke-miterlimit="10"/>
<path d="M32.2136 161.924C46.3436 361.954 225.804 347.694 280.524 493.404C335.244 639.114 90.1536 972.864 50.1836 1073.04C10.2136 1173.22 -11.0264 1451.73 191.814 1476.48C323.824 1494.77 391.954 1997.78 244.204 2003.25C18.7736 1994.92 23.8036 2268.1 29.4436 2281.49" stroke="#A6325D" stroke-width="2" stroke-miterlimit="10"/>
<path d="M32.1637 158.094C45.9637 353.364 232.434 339.394 282.284 483.584C332.144 627.774 89.6037 962.514 49.9037 1063.47C10.1937 1164.43 -3.01634 1444.16 194.864 1470.55C323.604 1490.63 390.074 1983.75 240.344 1995.37C17.8537 1991.39 30.2837 2263.77 37.7937 2281.62" stroke="#A3325C" stroke-width="2" stroke-miterlimit="10"/>
<path d="M32.114 154.254C45.574 344.764 239.054 331.084 284.054 473.764C329.044 616.444 89.074 952.164 49.634 1053.89C10.194 1155.62 5.00404 1436.59 197.934 1464.61C323.404 1486.47 388.214 1969.72 236.504 1987.48C16.944 1987.85 36.774 2259.43 46.174 2281.75" stroke="#A1315C" stroke-width="2" stroke-miterlimit="10"/>
<path d="M32.0635 150.424C45.1835 336.174 245.684 322.784 285.814 463.944C325.944 605.104 88.5335 941.814 49.3535 1044.33C10.1835 1146.84 13.0135 1429.04 200.984 1458.68C323.184 1482.32 386.334 1955.7 232.644 1979.59C16.0235 1984.31 43.2435 2255.1 54.5235 2281.88" stroke="#9E315B" stroke-width="2" stroke-miterlimit="10"/>
<path d="M32.004 146.594C44.794 327.574 252.304 314.484 287.564 454.134C322.834 593.774 87.984 931.474 49.074 1034.76C10.164 1138.05 21.024 1421.48 204.044 1452.75C322.974 1478.17 384.454 1941.67 228.794 1971.71C15.114 1980.78 49.734 2250.77 62.884 2282.01" stroke="#9C305A" stroke-width="2" stroke-miterlimit="10"/>
<path d="M31.9531 142.764C44.4031 318.984 258.933 306.184 289.333 444.314C319.733 582.444 87.4431 921.114 48.8031 1025.18C10.1631 1129.25 29.0431 1413.91 207.103 1446.81C322.763 1474.01 382.583 1927.64 224.943 1963.82C14.1931 1977.24 56.2131 2246.43 71.2431 2282.14" stroke="#9A3059" stroke-width="2" stroke-miterlimit="10"/>
<path d="M31.9043 138.934C44.0143 310.394 265.564 297.884 291.094 434.504C316.634 571.114 86.9043 910.774 48.5243 1015.62C10.1443 1120.47 37.0643 1406.36 210.164 1440.88C322.554 1469.87 380.714 1913.62 221.094 1955.94C13.2843 1973.71 62.6943 2242.11 79.6043 2282.27" stroke="#972F58" stroke-width="2" stroke-miterlimit="10"/>
<path d="M31.8535 135.104C43.6335 301.794 272.184 289.584 292.864 424.684C313.534 559.784 86.3735 900.424 48.2635 1006.05C10.1535 1111.68 45.0935 1398.8 213.234 1434.95C322.354 1465.72 378.844 1899.6 217.254 1948.05C12.3735 1970.17 69.1935 2237.77 87.9835 2282.4" stroke="#952E57" stroke-width="2" stroke-miterlimit="10"/>
<path d="M31.8027 131.274C43.2427 293.204 278.813 281.284 294.623 414.864C310.433 548.444 85.8227 890.074 47.9827 996.474C10.1327 1102.87 53.1027 1391.22 216.293 1429.01C322.143 1461.56 376.973 1885.56 213.403 1940.16C11.4627 1966.63 75.6727 2233.44 96.3427 2282.53" stroke="#922E56" stroke-width="2" stroke-miterlimit="10"/>
<path d="M31.7539 127.444C42.8539 284.614 285.444 272.984 296.384 405.054C307.324 537.114 85.2839 879.734 47.7039 986.914C10.1239 1094.09 61.1139 1383.67 219.344 1423.08C321.924 1457.41 375.094 1871.54 209.544 1932.28C10.5439 1963.09 82.1439 2229.11 104.694 2282.66" stroke="#902D55" stroke-width="2" stroke-miterlimit="10"/>
<path d="M31.7031 123.604C42.4731 276.014 292.073 264.684 298.153 395.224C304.233 525.774 84.7531 869.364 47.4331 977.334C10.1231 1085.29 69.1331 1376.1 222.413 1417.14C321.723 1453.25 373.223 1857.51 205.703 1924.38C9.63312 1959.54 88.6431 2224.76 113.063 2282.78" stroke="#8E2D54" stroke-width="2" stroke-miterlimit="10"/>
<path d="M31.6426 119.774C42.0726 267.414 298.683 256.384 299.903 385.414C301.123 514.444 84.2026 859.024 47.1526 967.764C10.1026 1076.5 77.1426 1368.54 225.463 1411.21C321.503 1449.11 371.343 1843.48 201.843 1916.5C8.71259 1956.01 95.1126 2220.44 121.423 2282.92" stroke="#8B2C54" stroke-width="2" stroke-miterlimit="10"/>
<path d="M31.5938 115.944C41.6838 258.824 305.314 248.084 301.664 375.594C298.014 503.104 83.6537 848.674 46.8738 958.194C10.0938 1067.71 85.1537 1360.98 228.524 1405.27C321.294 1444.95 369.474 1829.45 197.994 1908.61C7.80374 1952.47 101.594 2216.1 129.784 2283.04" stroke="#892C53" stroke-width="2" stroke-miterlimit="10"/>
<path d="M31.543 112.114C41.303 250.234 311.943 239.784 303.433 365.774C294.923 491.774 83.123 838.324 46.603 948.624C10.083 1058.92 93.173 1353.42 231.583 1399.34C321.083 1440.8 367.593 1815.43 194.143 1900.73C6.88297 1948.94 108.073 2211.77 138.143 2283.18" stroke="#862B52" stroke-width="2" stroke-miterlimit="10"/>
<path d="M31.4941 108.284C40.9141 241.644 318.574 231.484 305.194 355.964C291.814 480.444 82.5841 827.984 46.3341 939.054C10.0841 1050.12 101.204 1345.85 234.654 1393.41C320.884 1436.65 365.734 1801.4 190.304 1892.84C5.98413 1945.4 114.574 2207.44 146.514 2283.3" stroke="#842B51" stroke-width="2" stroke-miterlimit="10"/>
<path d="M31.4434 104.454C40.5334 233.044 325.203 223.184 306.953 346.144C288.713 469.114 82.0334 817.634 46.0534 929.484C10.0634 1041.33 109.213 1338.29 237.703 1387.47C320.663 1432.5 363.853 1787.37 186.443 1884.95C5.06335 1941.86 121.043 2203.1 154.863 2283.43" stroke="#812A50" stroke-width="2" stroke-miterlimit="10"/>
<path d="M31.3926 100.624C40.1426 224.454 331.823 214.884 308.723 336.334C285.613 457.784 81.5026 807.284 45.7826 919.914C10.0626 1032.54 117.233 1330.73 240.763 1381.54C320.453 1428.35 361.973 1773.35 182.593 1877.07C4.14259 1938.33 127.523 2198.77 163.233 2283.57" stroke="#7F294F" stroke-width="2" stroke-miterlimit="10"/>
<path d="M31.334 96.794C39.744 215.864 338.444 206.584 310.474 326.514C282.504 446.444 80.954 796.934 45.494 910.344C10.034 1023.75 125.234 1323.17 243.814 1375.61C320.234 1424.2 360.094 1759.33 178.734 1869.19C3.224 1934.8 134.004 2194.45 171.584 2283.7" stroke="#7D294E" stroke-width="2" stroke-miterlimit="10"/>
<path d="M31.2832 92.954C39.3632 207.254 345.073 198.274 312.243 316.694C279.413 435.114 80.4232 786.584 45.2332 900.774C10.0432 1014.96 133.263 1315.61 246.883 1369.67C320.033 1420.04 358.233 1745.29 174.893 1861.29C2.32318 1931.25 140.493 2190.1 179.953 2283.82" stroke="#7A284D" stroke-width="2" stroke-miterlimit="10"/>
<path d="M31.2344 89.124C38.9744 198.664 351.704 189.974 314.004 306.874C276.304 423.774 79.8744 776.234 44.9544 891.204C10.0344 1006.17 141.274 1308.05 249.944 1363.74C319.824 1415.89 356.364 1731.27 171.044 1853.41C1.40437 1927.72 146.974 2185.77 188.314 2283.96" stroke="#78284C" stroke-width="2" stroke-miterlimit="10"/>
<path d="M31.1836 85.294C38.5836 190.074 358.334 181.674 315.764 297.054C273.204 412.434 79.3336 765.884 44.6736 881.624C10.0136 997.364 149.284 1300.47 252.994 1357.8C319.604 1411.74 354.474 1717.24 167.184 1845.52C0.483597 1924.18 153.454 2181.44 196.674 2284.08" stroke="#75274C" stroke-width="2" stroke-miterlimit="10"/>
<path d="M31.1328 81.464C38.2028 181.484 364.953 173.374 317.533 287.244C270.103 401.114 78.8028 755.534 44.4028 872.064C10.0128 988.584 157.303 1292.92 256.063 1351.87C319.403 1407.59 352.613 1703.21 163.343 1837.63C-0.427185 1920.64 159.943 2177.1 205.043 2284.21" stroke="#73274B" stroke-width="2" stroke-miterlimit="10"/>
<path d="M31.084 77.634C37.814 172.884 371.584 165.074 319.294 277.424C267.004 389.774 78.264 745.184 44.134 862.484C10.004 979.784 165.334 1285.35 259.124 1345.93C319.194 1403.43 350.744 1689.18 159.494 1829.74C-1.33601 1917.1 166.424 2172.76 213.404 2284.33" stroke="#70264A" stroke-width="2" stroke-miterlimit="10"/>
<path d="M31.0234 73.804C37.4134 164.294 378.203 156.774 321.043 267.614C263.883 378.454 77.7134 734.834 43.8534 852.914C9.99344 970.994 173.343 1277.79 262.183 1340C318.983 1399.28 348.863 1675.16 155.643 1821.86C-2.24657 1913.57 172.903 2168.44 221.763 2284.47" stroke="#6E2649" stroke-width="2" stroke-miterlimit="10"/>
<path d="M30.9727 69.974C37.0327 155.704 384.833 148.474 322.813 257.794C260.793 367.114 77.1727 724.494 43.5727 843.354C9.97266 962.214 181.353 1270.24 265.233 1334.07C318.763 1395.14 346.983 1661.13 151.783 1813.98C-3.17736 1910.04 179.383 2164.11 230.113 2284.61" stroke="#6C2548" stroke-width="2" stroke-miterlimit="10"/>
<path d="M30.9238 66.144C36.6438 147.114 391.464 140.174 324.574 247.974C257.694 355.774 76.6338 714.144 43.3038 833.774C9.97383 953.414 189.374 1262.67 268.304 1328.13C318.564 1390.98 345.124 1647.1 147.944 1806.08C-4.07618 1906.49 185.874 2159.76 238.494 2284.72" stroke="#692447" stroke-width="2" stroke-miterlimit="10"/>
<path d="M30.873 62.304C36.253 138.504 398.083 131.864 326.343 238.154C254.603 344.444 76.093 703.794 43.023 824.204C9.95304 944.614 197.383 1255.1 271.353 1322.2C318.343 1386.83 343.233 1633.08 144.083 1798.2C-4.99696 1902.96 192.343 2155.44 246.843 2284.86" stroke="#672446" stroke-width="2" stroke-miterlimit="10"/>
<path d="M30.8242 58.474C35.8742 129.914 404.714 123.564 328.104 228.334C251.494 333.104 75.5542 693.434 42.7542 814.634C9.95422 935.824 205.404 1247.54 274.424 1316.26C318.144 1382.67 341.374 1619.05 140.244 1790.31C-5.90578 1899.42 198.844 2151.1 255.214 2284.99" stroke="#642345" stroke-width="2" stroke-miterlimit="10"/>
<path d="M30.7734 54.644C35.4834 121.324 411.343 115.264 329.863 218.524C248.383 321.774 75.0134 683.094 42.4734 805.064C9.93344 927.034 213.413 1239.98 277.473 1310.33C317.923 1378.52 339.493 1605.02 136.383 1782.43C-6.82657 1895.89 205.313 2146.77 263.563 2285.12" stroke="#622344" stroke-width="2" stroke-miterlimit="10"/>
<path d="M30.7227 50.814C35.0927 112.734 417.973 106.964 331.633 208.704C245.283 310.444 74.4727 672.744 42.2027 795.494C9.93265 918.244 221.433 1232.42 280.543 1304.4C317.723 1374.38 337.623 1591 132.543 1774.54C-7.72735 1892.35 211.803 2142.44 271.933 2285.25" stroke="#5F2244" stroke-width="2" stroke-miterlimit="10"/>
<path d="M30.6641 46.984C34.7041 104.134 424.584 98.664 333.384 198.894C242.184 299.124 73.9341 662.394 41.9241 785.924C9.92406 909.454 229.454 1224.86 283.594 1298.46C317.504 1370.22 335.744 1576.97 128.684 1766.65C-8.65593 1888.81 218.284 2138.1 280.294 2285.38" stroke="#5D2243" stroke-width="2" stroke-miterlimit="10"/>
<path d="M30.6133 43.154C34.3133 95.544 431.213 90.364 335.143 189.074C239.083 287.774 73.3933 652.044 41.6533 776.354C9.91328 900.664 237.473 1217.3 286.663 1292.53C317.303 1366.07 333.883 1562.94 124.843 1758.77C-9.55672 1885.28 224.773 2133.77 288.663 2285.51" stroke="#5B2142" stroke-width="2" stroke-miterlimit="10"/>
<path d="M30.5645 39.324C33.9245 86.954 437.844 82.064 336.914 179.254C235.974 276.444 72.8545 641.694 41.3745 766.784C9.89445 891.874 245.484 1209.73 289.714 1286.6C317.084 1361.92 331.994 1548.92 120.984 1750.89C-10.4855 1881.75 231.244 2129.45 297.014 2285.65" stroke="#582141" stroke-width="2" stroke-miterlimit="10"/>
<path d="M30.5137 35.494C33.5437 78.354 444.474 73.774 338.674 169.444C232.874 265.104 72.3037 631.354 41.1037 757.214C9.89367 883.074 253.504 1202.17 292.784 1280.66C316.884 1357.76 330.134 1534.89 117.144 1742.99C-11.3863 1878.2 237.744 2125.1 305.384 2285.76" stroke="#562040" stroke-width="2" stroke-miterlimit="10"/>
<path d="M30.4629 31.654C33.1529 69.754 451.103 65.464 340.433 159.614C229.773 253.774 71.7629 621.004 40.8229 747.644C9.88289 874.284 261.513 1194.61 295.833 1274.73C316.663 1353.62 328.253 1520.86 113.283 1735.11C-12.3071 1874.67 244.213 2120.77 313.743 2285.9" stroke="#531F3F" stroke-width="2" stroke-miterlimit="10"/>
<path d="M30.4141 27.824C32.7741 61.164 457.724 57.164 342.204 149.804C226.674 242.444 71.2241 610.654 40.5541 738.074C9.87406 865.494 269.534 1187.05 298.904 1268.8C316.464 1349.47 326.394 1506.84 109.444 1727.23C-13.2159 1871.14 250.704 2116.45 322.114 2286.04" stroke="#511F3E" stroke-width="2" stroke-miterlimit="10"/>
<path d="M30.3535 23.994C32.3735 52.574 464.344 48.864 343.954 139.984C223.564 231.104 70.6835 600.304 40.2735 728.504C9.86351 856.704 277.544 1179.49 301.954 1262.86C316.244 1345.31 324.504 1492.81 105.594 1719.33C-14.1265 1867.59 257.184 2112.1 330.474 2286.15" stroke="#4F1E3D" stroke-width="2" stroke-miterlimit="10"/>
<path d="M30.3027 20.164C31.9827 43.974 470.973 40.564 345.723 130.164C220.463 219.774 70.1427 589.954 40.0027 718.934C9.86274 847.914 285.563 1171.93 305.023 1256.93C316.043 1341.16 322.643 1478.79 101.753 1711.45C-15.0273 1864.06 263.683 2107.77 338.843 2286.29" stroke="#4C1E3C" stroke-width="2" stroke-miterlimit="10"/>
<path d="M30.2539 16.334C31.6039 35.384 477.604 32.264 347.484 120.354C217.364 208.444 69.6039 579.604 39.7239 709.364C9.84391 839.114 293.574 1164.36 308.074 1251C315.824 1337.02 320.764 1464.76 97.8939 1703.57C-15.9561 1860.53 270.154 2103.45 347.194 2286.43" stroke="#4A1D3C" stroke-width="2" stroke-miterlimit="10"/>
<path d="M30.2031 12.504C31.2131 26.794 484.233 23.964 349.243 110.534C214.263 197.104 69.0631 569.254 39.4531 699.784C9.84312 830.314 301.603 1156.79 311.143 1245.05C315.623 1332.85 318.893 1450.72 94.0531 1695.67C-16.8569 1856.98 276.643 2099.1 355.573 2286.54" stroke="#471D3B" stroke-width="2" stroke-miterlimit="10"/>
<path d="M30.1543 8.67402C30.8243 18.204 490.854 15.664 351.014 100.724C211.164 185.774 68.5243 558.904 39.1743 690.214C9.8243 821.524 309.614 1149.23 314.194 1239.12C315.404 1328.7 317.014 1436.7 90.1943 1687.78C-17.7757 1853.44 283.124 2094.76 363.924 2286.67" stroke="#451C3A" stroke-width="2" stroke-miterlimit="10"/>
<path d="M30.1035 4.84402C30.4435 9.60402 497.484 7.36401 352.774 90.904C208.054 174.444 67.9835 548.554 38.9035 680.644C9.82351 812.734 317.634 1141.67 317.264 1233.19C315.204 1324.55 315.154 1422.67 86.3535 1679.9C-18.6865 1849.91 289.614 2090.44 372.294 2286.8" stroke="#421C39" stroke-width="2" stroke-miterlimit="10"/>
<path d="M30.0527 1.00402C30.0527 1.00402 504.103 -0.945984 354.533 81.084C204.963 163.114 67.4427 538.204 38.6227 671.074C9.80273 803.944 325.643 1134.11 320.313 1227.25C314.983 1320.39 313.263 1408.64 82.4927 1672.01C-19.6073 1846.37 296.083 2086.1 380.643 2286.93" stroke="#401B38" stroke-width="2" stroke-miterlimit="10"/>
<path d="M380.362 2286.32C380.362 2286.32 363.202 2561.89 128.972 2540.51C-12.8579 2527.56 60.2621 3060.19 202.092 3073.14C419.802 3093.01 374.482 3367.83 333.712 3465.67C292.942 3563.51 40.1621 3894.31 109.482 4044.57C178.802 4194.83 337.202 4179.69 352.342 4394.01" stroke="#401B38" stroke-width="2" stroke-miterlimit="10"/>
<path d="M352.403 4397.84C337.593 4188.28 172.173 4203.13 107.723 4054.39C43.2726 3905.65 293.493 3573.86 333.993 3475.24C374.493 3376.62 411.783 3100.57 199.033 3079.07C60.4726 3064.34 -10.9774 2541.59 132.823 2548.39C364.123 2565.42 373.883 2290.65 372.003 2286.19" stroke="#421C39" stroke-width="2" stroke-miterlimit="10"/>
<path d="M352.451 4401.67C337.981 4196.87 165.541 4211.43 105.951 4064.2C46.3614 3916.97 294.021 3584.2 334.261 3484.81C374.501 3385.41 403.761 3108.13 195.971 3085C60.6814 3068.49 -9.10857 2555.61 136.671 2556.28C365.041 2568.96 367.401 2294.99 363.641 2286.06" stroke="#451C3A" stroke-width="2" stroke-miterlimit="10"/>
<path d="M352.501 4405.5C338.371 4205.47 158.911 4219.73 104.191 4074.02C49.471 3928.31 294.561 3594.56 334.531 3494.38C374.501 3394.2 395.741 3115.69 192.901 3090.94C60.891 3072.65 -7.23898 2569.64 140.511 2564.17C365.941 2572.5 360.911 2299.32 355.271 2285.93" stroke="#471D3B" stroke-width="2" stroke-miterlimit="10"/>
<path d="M352.551 4409.33C338.751 4214.06 152.281 4228.03 102.431 4083.84C52.5703 3939.65 295.111 3604.91 334.811 3503.95C374.521 3402.99 387.731 3123.26 189.851 3096.87C61.1103 3076.79 -5.35963 2583.67 144.371 2572.05C366.861 2576.03 354.431 2303.65 346.921 2285.8" stroke="#4A1D3C" stroke-width="2" stroke-miterlimit="10"/>
<path d="M352.601 4413.17C339.141 4222.66 145.661 4236.34 100.661 4093.66C55.6717 3950.98 295.641 3615.26 335.081 3513.53C374.521 3411.8 379.711 3130.83 186.781 3102.81C61.3117 3080.95 -3.49831 2597.7 148.211 2579.94C367.771 2579.57 347.941 2307.99 338.541 2285.67" stroke="#4C1E3C" stroke-width="2" stroke-miterlimit="10"/>
<path d="M352.652 4417C339.532 4231.25 139.032 4244.64 98.9024 4103.48C58.7724 3962.32 296.182 3625.61 335.362 3523.09C374.532 3420.58 371.702 3138.38 183.732 3108.74C61.5324 3085.1 -1.61765 2611.72 152.072 2587.83C368.692 2583.11 341.472 2312.32 330.192 2285.54" stroke="#4F1E3D" stroke-width="2" stroke-miterlimit="10"/>
<path d="M352.712 4420.83C339.922 4239.85 132.412 4252.94 97.1517 4113.29C61.8817 3973.65 296.732 3635.95 335.642 3532.66C374.552 3429.37 363.692 3145.94 180.672 3114.67C61.7417 3089.25 0.261742 2625.75 155.922 2595.71C369.602 2586.64 334.982 2316.65 321.832 2285.41" stroke="#511F3E" stroke-width="2" stroke-miterlimit="10"/>
<path d="M352.761 4424.66C340.311 4248.44 125.781 4261.24 95.3813 4123.11C64.9813 3984.98 297.271 3646.31 335.911 3542.24C374.551 3438.17 355.671 3153.51 177.611 3120.61C61.9513 3093.41 2.13132 2639.78 159.771 2603.6C370.521 2590.18 328.501 2320.99 313.471 2285.28" stroke="#531F3F" stroke-width="2" stroke-miterlimit="10"/>
<path d="M352.811 4428.49C340.701 4257.03 119.151 4269.54 93.6209 4132.92C68.0809 3996.31 297.811 3656.65 336.191 3551.8C374.571 3446.95 347.651 3161.06 174.551 3126.54C62.1609 3097.55 4.00092 2653.8 163.621 2611.48C371.431 2593.71 322.021 2325.31 305.111 2285.15" stroke="#562040" stroke-width="2" stroke-miterlimit="10"/>
<path d="M352.862 4432.32C341.082 4265.63 112.532 4277.84 91.8516 4142.74C71.1816 4007.64 298.342 3667 336.452 3561.37C374.562 3455.74 339.622 3168.62 171.482 3132.47C62.3616 3101.7 5.87162 2667.82 167.462 2619.37C372.342 2597.25 315.522 2329.65 296.732 2285.02" stroke="#582141" stroke-width="2" stroke-miterlimit="10"/>
<path d="M352.913 4436.15C341.473 4274.22 105.903 4286.14 90.0923 4152.56C74.2823 4018.98 298.893 3677.35 336.733 3570.95C374.583 3464.55 331.613 3176.2 168.423 3138.41C62.5723 3105.86 7.74227 2681.86 171.313 2627.26C373.253 2600.79 309.043 2333.98 288.373 2284.89" stroke="#5B2142" stroke-width="2" stroke-miterlimit="10"/>
<path d="M352.962 4439.98C341.862 4282.81 99.2717 4294.44 88.3317 4162.37C77.3917 4030.31 299.432 3687.69 337.012 3580.51C374.592 3473.33 323.602 3183.75 165.372 3144.34C62.7917 3110.01 9.62169 2695.88 175.172 2635.14C374.172 2604.33 302.572 2338.31 280.022 2284.76" stroke="#5D2243" stroke-width="2" stroke-miterlimit="10"/>
<path d="M353.011 4443.82C342.241 4291.41 92.6416 4302.74 86.5616 4172.2C80.4816 4041.65 299.961 3698.06 337.281 3590.09C374.591 3482.13 315.581 3191.32 162.301 3150.28C62.9916 3114.17 11.4916 2709.91 179.011 2643.04C375.081 2607.88 296.071 2342.66 271.651 2284.64" stroke="#5F2244" stroke-width="2" stroke-miterlimit="10"/>
<path d="M353.072 4447.65C342.642 4300.01 86.0318 4311.04 84.8118 4182.01C83.5918 4052.98 300.512 3708.4 337.562 3599.66C374.612 3490.92 307.572 3198.88 159.252 3156.21C63.2118 3118.31 13.3718 2723.94 182.872 2650.92C376.002 2611.41 289.602 2346.98 263.292 2284.5" stroke="#622344" stroke-width="2" stroke-miterlimit="10"/>
<path d="M353.121 4451.48C343.031 4308.6 79.4003 4319.34 83.0503 4191.83C86.7003 4064.32 301.061 3718.75 337.841 3609.23C374.621 3499.71 299.561 3206.44 156.191 3162.15C63.4204 3122.47 15.2404 2737.97 186.721 2658.81C376.911 2614.95 283.121 2351.32 254.931 2284.38" stroke="#642345" stroke-width="2" stroke-miterlimit="10"/>
<path d="M353.173 4455.31C343.413 4317.19 72.7721 4327.64 81.2821 4201.65C89.7921 4075.65 301.593 3729.1 338.113 3618.8C374.633 3508.5 291.543 3214 153.133 3168.08C63.6321 3126.62 17.1221 2751.99 190.573 2666.69C377.833 2618.48 276.643 2355.65 246.573 2284.24" stroke="#672446" stroke-width="2" stroke-miterlimit="10"/>
<path d="M353.221 4459.14C343.801 4325.78 66.1409 4335.94 79.5209 4211.46C92.9009 4086.98 302.131 3739.44 338.381 3628.37C374.631 3517.3 283.511 3221.57 150.061 3174.01C63.831 3130.77 18.981 2766.02 194.411 2674.58C378.731 2622.02 270.141 2359.98 238.201 2284.12" stroke="#692447" stroke-width="2" stroke-miterlimit="10"/>
<path d="M353.271 4462.97C344.181 4334.38 59.5108 4344.24 77.7608 4221.28C96.0008 4098.31 302.681 3749.79 338.661 3637.94C374.651 3526.09 275.501 3229.13 147.011 3179.95C64.0508 3134.92 20.8608 2780.05 198.271 2682.47C379.651 2625.56 263.671 2364.32 229.851 2283.99" stroke="#6C2548" stroke-width="2" stroke-miterlimit="10"/>
<path d="M353.322 4466.8C344.572 4342.97 52.892 4352.54 75.992 4231.09C99.102 4109.64 303.212 3760.14 338.932 3647.51C374.652 3534.88 267.482 3236.69 143.952 3185.88C64.262 3139.07 22.742 2794.07 202.122 2690.35C380.572 2629.09 257.192 2368.65 221.482 2283.85" stroke="#6E2649" stroke-width="2" stroke-miterlimit="10"/>
<path d="M353.381 4470.63C344.971 4351.56 46.2703 4360.84 74.2403 4240.91C102.211 4120.98 303.761 3770.49 339.221 3657.08C374.681 3543.67 259.481 3244.25 140.901 3191.81C64.4803 3143.22 24.6203 2808.09 205.981 2698.23C381.491 2632.62 250.711 2372.97 213.131 2283.72" stroke="#70264A" stroke-width="2" stroke-miterlimit="10"/>
<path d="M353.431 4474.47C345.351 4360.17 39.6416 4369.15 72.4716 4250.73C105.301 4132.31 304.291 3780.84 339.481 3666.65C374.671 3552.46 251.451 3251.81 137.831 3197.75C64.6816 3147.38 26.4816 2822.13 209.821 2706.13C382.391 2636.17 244.221 2377.32 204.761 2283.6" stroke="#73274B" stroke-width="2" stroke-miterlimit="10"/>
<path d="M353.481 4478.3C345.741 4368.76 33.0111 4377.45 70.7111 4260.55C108.411 4143.65 304.841 3791.19 339.761 3676.22C374.681 3561.25 243.441 3259.37 134.771 3203.68C64.8911 3151.53 28.3511 2836.15 213.671 2714.01C383.311 2639.7 237.741 2381.65 196.401 2283.46" stroke="#75274C" stroke-width="2" stroke-miterlimit="10"/>
<path d="M353.532 4482.13C346.132 4377.35 26.3814 4385.75 68.9514 4270.37C111.512 4154.99 305.382 3801.54 340.042 3685.8C374.702 3570.06 235.432 3266.95 131.722 3209.62C65.1115 3155.68 30.2415 2850.18 217.532 2721.9C384.232 2643.24 231.262 2385.98 188.042 2283.34" stroke="#78284C" stroke-width="2" stroke-miterlimit="10"/>
<path d="M353.582 4485.96C346.512 4385.94 19.762 4394.05 67.182 4280.18C114.612 4166.31 305.912 3811.89 340.312 3695.36C374.702 3578.84 227.412 3274.5 128.652 3215.55C65.312 3159.83 32.102 2864.21 221.372 2729.79C385.142 2646.78 224.772 2390.32 179.672 2283.21" stroke="#7A284D" stroke-width="2" stroke-miterlimit="10"/>
<path d="M353.631 4489.79C346.901 4394.54 13.1304 4402.35 65.4204 4290C117.711 4177.65 306.451 3822.24 340.581 3704.94C374.711 3587.64 219.381 3282.07 125.591 3221.49C65.5204 3163.99 33.9704 2878.24 225.221 2737.68C386.051 2650.32 218.291 2394.66 171.311 2283.09" stroke="#7D294E" stroke-width="2" stroke-miterlimit="10"/>
<path d="M353.691 4493.62C347.301 4403.13 6.51098 4410.65 63.671 4299.81C120.831 4188.97 307.001 3832.59 340.861 3714.51C374.721 3596.43 211.371 3289.63 122.531 3227.42C65.731 3168.14 35.851 2892.26 229.071 2745.56C386.961 2653.85 211.811 2398.98 162.951 2282.95" stroke="#7F294F" stroke-width="2" stroke-miterlimit="10"/>
<path d="M353.743 4497.45C347.683 4411.72 -0.11746 4418.95 61.9025 4309.63C123.923 4200.31 307.543 3842.93 341.143 3724.07C374.743 3605.21 203.363 3297.18 119.483 3233.35C65.9525 3172.28 37.7326 2906.29 232.933 2753.44C387.893 2657.38 205.333 2403.31 154.603 2282.81" stroke="#812A50" stroke-width="2" stroke-miterlimit="10"/>
<path d="M353.791 4501.28C348.071 4420.31 -6.74902 4427.25 60.141 4319.45C127.021 4211.65 308.081 3853.28 341.411 3733.65C374.741 3614.01 195.341 3304.75 116.411 3239.29C66.151 3176.44 39.591 2920.32 236.771 2761.34C388.791 2660.93 198.841 2407.66 146.221 2282.7" stroke="#842B51" stroke-width="2" stroke-miterlimit="10"/>
<path d="M353.842 4505.12C348.462 4428.92 -13.3671 4435.56 58.3729 4329.27C130.112 4222.98 308.622 3863.63 341.692 3743.22C374.762 3622.81 187.332 3312.32 113.362 3245.22C66.3729 3180.59 41.4829 2934.34 240.632 2769.22C389.712 2664.46 192.372 2411.98 137.872 2282.56" stroke="#862B52" stroke-width="2" stroke-miterlimit="10"/>
<path d="M353.89 4508.95C348.84 4437.51 -19.9992 4443.86 56.6108 4339.09C133.22 4234.32 309.16 3873.99 341.96 3752.79C374.76 3631.6 179.31 3319.88 110.29 3251.16C66.5708 3184.75 43.3408 2948.37 244.47 2777.11C390.62 2668 185.87 2416.32 129.5 2282.43" stroke="#892C53" stroke-width="2" stroke-miterlimit="10"/>
<path d="M353.941 4512.78C349.231 4446.1 -26.6289 4452.16 54.8511 4348.9C136.331 4245.65 309.701 3884.33 342.241 3762.36C374.781 3640.39 171.301 3327.44 107.241 3257.09C66.7911 3188.9 45.2211 2962.4 248.331 2784.99C391.541 2671.53 179.401 2420.65 121.151 2282.3" stroke="#8B2C54" stroke-width="2" stroke-miterlimit="10"/>
<path d="M353.993 4516.61C349.623 4454.69 -33.2568 4460.46 53.0832 4358.72C139.433 4256.98 310.243 3894.68 342.513 3771.93C374.783 3649.18 163.283 3335 104.173 3263.02C66.9932 3193.04 47.0932 2976.42 252.173 2792.88C392.443 2675.07 172.913 2424.98 112.783 2282.17" stroke="#8E2D54" stroke-width="2" stroke-miterlimit="10"/>
<path d="M354.051 4520.44C350.011 4463.29 -39.8683 4468.76 51.3317 4368.53C142.531 4268.3 310.781 3905.03 342.791 3781.5C374.791 3657.97 155.261 3342.56 101.121 3268.96C67.2117 3197.2 48.9717 2990.45 256.031 2800.77C393.371 2678.61 166.431 2429.32 104.421 2282.04" stroke="#902D55" stroke-width="2" stroke-miterlimit="10"/>
<path d="M354.101 4524.27C350.401 4471.88 -46.4989 4477.06 49.5711 4378.35C145.631 4279.65 311.321 3915.38 343.061 3791.07C374.801 3666.76 147.241 3350.12 98.0511 3274.89C67.4111 3201.35 50.8311 3004.48 259.871 2808.65C394.271 2682.14 159.941 2433.65 96.0511 2281.91" stroke="#922E56" stroke-width="2" stroke-miterlimit="10"/>
<path d="M354.15 4528.1C350.79 4480.47 -53.1295 4485.36 47.8005 4388.17C148.74 4290.98 311.86 3925.73 343.34 3800.64C374.82 3675.55 139.23 3357.69 95.0006 3280.82C67.6306 3205.5 52.7206 3018.5 263.73 2816.53C395.2 2685.67 153.47 2437.97 87.7005 2281.77" stroke="#952E57" stroke-width="2" stroke-miterlimit="10"/>
<path d="M354.202 4531.93C351.172 4489.07 -59.758 4493.65 46.042 4397.98C151.842 4302.32 312.412 3936.07 343.612 3810.21C374.822 3684.35 131.212 3365.25 91.932 3286.76C67.832 3209.66 54.582 3032.53 267.572 2824.43C396.102 2689.22 146.972 2442.32 79.332 2281.66" stroke="#972F58" stroke-width="2" stroke-miterlimit="10"/>
<path d="M354.253 4535.77C351.563 4497.67 -66.3872 4501.96 44.2828 4407.81C154.943 4313.65 312.953 3946.42 343.893 3819.78C374.833 3693.14 123.203 3372.81 88.8828 3292.69C68.0528 3213.8 56.4628 3046.56 271.433 2832.31C397.023 2692.75 140.503 2446.65 70.9728 2281.52" stroke="#9A3059" stroke-width="2" stroke-miterlimit="10"/>
<path d="M354.3 4539.6C351.94 4506.26 -73.0093 4510.26 42.5107 4417.62C158.04 4324.98 313.49 3956.77 344.16 3829.35C374.84 3701.93 115.18 3380.37 85.8107 3298.62C68.2507 3217.95 58.3207 3060.58 275.27 2840.19C397.93 2696.28 134.01 2450.97 62.6007 2281.38" stroke="#9C305A" stroke-width="2" stroke-miterlimit="10"/>
<path d="M354.361 4543.43C352.341 4514.85 -79.6293 4518.56 40.7607 4427.44C161.151 4336.32 314.031 3967.12 344.441 3838.92C374.851 3710.72 107.171 3387.93 82.7607 3304.56C68.4707 3222.11 60.2107 3074.61 279.121 2848.09C398.841 2699.83 127.531 2455.32 54.2407 2281.27" stroke="#9E315B" stroke-width="2" stroke-miterlimit="10"/>
<path d="M354.412 4547.26C352.732 4523.45 -86.2582 4526.86 38.9918 4437.26C164.252 4347.65 314.572 3977.47 344.712 3848.49C374.852 3719.51 99.1518 3395.49 79.6918 3310.49C68.6718 3226.26 62.0718 3088.63 282.962 2855.97C399.742 2703.36 121.032 2459.65 45.8718 2281.13" stroke="#A1315C" stroke-width="2" stroke-miterlimit="10"/>
<path d="M354.462 4551.09C353.112 4532.04 -92.8886 4535.16 37.2314 4447.07C167.352 4358.98 315.112 3987.82 344.992 3858.06C374.872 3728.31 91.1414 3403.06 76.6414 3316.42C68.8914 3230.4 63.9514 3102.66 286.822 2863.85C400.672 2706.89 114.562 2463.97 37.5214 2280.99" stroke="#A3325C" stroke-width="2" stroke-miterlimit="10"/>
<path d="M354.512 4554.92C353.502 4540.63 -99.5174 4543.46 35.4726 4456.89C170.452 4370.32 315.652 3998.17 345.262 3867.64C374.872 3737.11 83.1126 3410.63 73.5726 3322.37C69.0926 3234.57 65.8226 3116.7 290.662 2871.75C401.572 2710.44 108.072 2468.32 29.1426 2280.88" stroke="#A6325D" stroke-width="2" stroke-miterlimit="10"/>
<path d="M354.56 4558.75C353.89 4549.22 -106.14 4551.76 33.7006 4466.7C173.55 4381.65 316.19 4008.52 345.54 3877.21C374.89 3745.9 75.1006 3418.19 70.5206 3328.3C69.3106 3238.72 67.7007 3130.72 294.52 2879.64C402.49 2713.98 101.59 2472.66 20.7906 2280.75" stroke="#A8335E" stroke-width="2" stroke-miterlimit="10"/>
<path d="M354.612 4562.58C354.272 4557.82 -112.768 4560.06 31.9415 4476.52C176.662 4392.98 316.732 4018.87 345.812 3886.78C374.892 3754.69 67.0815 3425.75 67.4515 3334.23C69.5115 3242.87 69.5615 3144.75 298.362 2887.52C403.402 2717.51 95.1015 2476.98 12.4215 2280.62" stroke="#AB335F" stroke-width="2" stroke-miterlimit="10"/>
<path d="M354.663 4566.42C354.663 4566.42 -119.387 4568.37 30.1823 4486.34C179.753 4404.31 317.272 4029.22 346.092 3896.35C374.912 3763.48 59.0723 3433.31 64.4023 3340.17C69.7323 3247.03 71.4523 3158.78 302.223 2895.41C404.323 2721.05 88.6323 2481.32 4.07227 2280.49" stroke="#AD3460" stroke-width="2" stroke-miterlimit="10"/>
<path d="M383.713 6848.68C383.713 6848.68 366.553 6573.11 132.323 6594.49C-9.50711 6607.44 63.6129 6074.81 205.443 6061.86C423.153 6041.99 377.833 5767.17 337.063 5669.33C296.293 5571.49 43.5129 5240.69 112.833 5090.43C182.153 4940.17 340.553 4955.31 355.693 4740.99" stroke="#AD3460" stroke-width="2" stroke-miterlimit="10"/>
<path d="M355.754 4737.16C340.944 4946.72 175.524 4931.87 111.074 5080.61C46.6237 5229.35 296.844 5561.14 337.344 5659.76C377.844 5758.38 415.134 6034.43 202.384 6055.93C63.8237 6070.66 -7.62625 6593.41 136.174 6586.61C367.474 6569.58 377.234 6844.35 375.354 6848.81" stroke="#AB335F" stroke-width="2" stroke-miterlimit="10"/>
<path d="M355.803 4733.33C341.333 4938.13 168.893 4923.57 109.303 5070.8C49.7132 5218.03 297.373 5550.8 337.613 5650.19C377.853 5749.59 407.113 6026.87 199.323 6050C64.0332 6066.51 -5.75679 6579.39 140.023 6578.72C368.393 6566.04 370.753 6840.01 366.993 6848.94" stroke="#A8335E" stroke-width="2" stroke-miterlimit="10"/>
<path d="M355.853 4729.5C341.723 4929.53 162.263 4915.27 107.543 5060.98C52.8228 5206.69 297.913 5540.44 337.883 5640.62C377.853 5740.8 399.093 6019.31 196.253 6044.06C64.2428 6062.35 -3.88721 6565.36 143.863 6570.83C369.293 6562.5 364.263 6835.68 358.623 6849.07" stroke="#A6325D" stroke-width="2" stroke-miterlimit="10"/>
<path d="M355.903 4725.67C342.103 4920.94 155.633 4906.97 105.783 5051.16C55.9227 5195.35 298.463 5530.09 338.163 5631.05C377.873 5732.01 391.083 6011.74 193.203 6038.13C64.4627 6058.21 -2.00726 6551.33 147.723 6562.95C370.213 6558.97 357.783 6831.35 350.273 6849.2" stroke="#A3325C" stroke-width="2" stroke-miterlimit="10"/>
<path d="M355.952 4721.83C342.492 4912.34 149.012 4898.66 104.012 5041.34C59.0224 5184.02 298.992 5519.74 338.432 5621.47C377.872 5723.2 383.062 6004.17 190.132 6032.19C64.6624 6054.05 -0.147629 6537.3 151.562 6555.06C371.122 6555.43 351.292 6827.01 341.892 6849.33" stroke="#A1315C" stroke-width="2" stroke-miterlimit="10"/>
<path d="M356.003 4718C342.883 4903.75 142.383 4890.36 102.253 5031.52C62.1229 5172.68 299.533 5509.39 338.713 5611.91C377.883 5714.42 375.053 5996.62 187.083 6026.26C64.8829 6049.9 1.73286 6523.28 155.423 6547.17C372.043 6551.89 344.823 6822.68 333.543 6849.46" stroke="#9E315B" stroke-width="2" stroke-miterlimit="10"/>
<path d="M356.062 4714.17C343.272 4895.15 135.762 4882.06 100.502 5021.71C65.2324 5161.35 300.082 5499.05 338.992 5602.34C377.902 5705.63 367.042 5989.06 184.022 6020.33C65.0924 6045.75 3.61243 6509.25 159.272 6539.29C372.952 6548.36 338.332 6818.35 325.182 6849.59" stroke="#9C305A" stroke-width="2" stroke-miterlimit="10"/>
<path d="M356.113 4710.34C343.663 4886.56 129.133 4873.76 98.7333 5011.89C68.3333 5150.02 300.623 5488.69 339.263 5592.76C377.903 5696.83 359.023 5981.49 180.963 6014.39C65.3033 6041.59 5.48329 6495.22 163.123 6531.4C373.873 6544.82 331.853 6814.01 316.823 6849.72" stroke="#9A3059" stroke-width="2" stroke-miterlimit="10"/>
<path d="M356.162 4706.51C344.052 4877.97 122.502 4865.46 96.9721 5002.08C71.4321 5138.69 301.162 5478.35 339.542 5583.2C377.922 5688.05 351.002 5973.94 177.902 6008.46C65.5121 6037.45 7.35211 6481.2 166.972 6523.52C374.782 6541.29 325.372 6809.69 308.462 6849.85" stroke="#972F58" stroke-width="2" stroke-miterlimit="10"/>
<path d="M356.213 4702.68C344.433 4869.37 115.883 4857.16 95.2029 4992.26C74.5329 5127.36 301.693 5468 339.803 5573.63C377.913 5679.26 342.973 5966.38 174.833 6002.53C65.7129 6033.3 9.2229 6467.18 170.813 6515.63C375.693 6537.75 318.873 6805.35 300.083 6849.98" stroke="#952E57" stroke-width="2" stroke-miterlimit="10"/>
<path d="M356.264 4698.85C344.824 4860.78 109.254 4848.86 93.4437 4982.44C77.6337 5116.02 302.244 5457.65 340.084 5564.05C377.934 5670.45 334.964 5958.8 171.774 5996.59C65.9237 6029.14 11.0937 6453.14 174.664 6507.74C376.604 6534.21 312.394 6801.02 291.724 6850.11" stroke="#922E56" stroke-width="2" stroke-miterlimit="10"/>
<path d="M356.312 4695.02C345.212 4852.19 102.622 4840.56 91.6825 4972.63C80.7425 5104.69 302.782 5447.31 340.363 5554.49C377.943 5661.67 326.952 5951.25 168.722 5990.66C66.1425 6024.99 12.9725 6439.12 178.522 6499.86C377.522 6530.67 305.923 6796.69 283.373 6850.24" stroke="#902D55" stroke-width="2" stroke-miterlimit="10"/>
<path d="M356.363 4691.18C345.593 4843.59 95.9933 4832.26 89.9133 4962.8C83.8333 5093.35 303.313 5436.94 340.633 5544.91C377.943 5652.87 318.933 5943.68 165.653 5984.72C66.3433 6020.83 14.8433 6425.09 182.363 6491.96C378.433 6527.12 299.423 6792.34 275.003 6850.36" stroke="#8E2D54" stroke-width="2" stroke-miterlimit="10"/>
<path d="M356.424 4687.35C345.994 4834.99 89.3838 4823.96 88.1638 4952.99C86.9438 5082.02 303.864 5426.6 340.914 5535.34C377.964 5644.08 310.924 5936.12 162.604 5978.79C66.5638 6016.69 16.7238 6411.06 186.224 6484.08C379.354 6523.59 292.954 6788.02 266.644 6850.5" stroke="#8B2C54" stroke-width="2" stroke-miterlimit="10"/>
<path d="M356.473 4683.52C346.383 4826.4 82.7526 4815.66 86.4026 4943.17C90.0526 5070.68 304.413 5416.25 341.193 5525.77C377.973 5635.29 302.913 5928.56 159.543 5972.85C66.7727 6012.53 18.5927 6397.03 190.073 6476.19C380.263 6520.05 286.473 6783.68 258.283 6850.62" stroke="#892C53" stroke-width="2" stroke-miterlimit="10"/>
<path d="M356.523 4679.69C346.763 4817.81 76.1235 4807.36 84.6335 4933.35C93.1435 5059.35 304.943 5405.9 341.463 5516.2C377.983 5626.5 294.893 5921 156.483 5966.92C66.9834 6008.38 20.4734 6383.01 193.923 6468.31C381.183 6516.52 279.993 6779.35 249.923 6850.76" stroke="#862B52" stroke-width="2" stroke-miterlimit="10"/>
<path d="M356.572 4675.86C347.152 4809.22 69.4923 4799.06 82.8723 4923.54C96.2523 5048.02 305.482 5395.56 341.732 5506.63C377.982 5617.7 286.862 5913.43 153.412 5960.99C67.1823 6004.23 22.3323 6368.98 197.762 6460.42C382.082 6512.98 273.492 6775.02 241.552 6850.88" stroke="#842B51" stroke-width="2" stroke-miterlimit="10"/>
<path d="M356.623 4672.03C347.533 4800.62 62.863 4790.76 81.113 4913.72C99.353 5036.69 306.033 5385.21 342.013 5497.06C378.003 5608.91 278.853 5905.87 150.363 5955.05C67.403 6000.08 24.213 6354.95 201.623 6452.53C383.003 6509.44 267.023 6770.68 233.203 6851.01" stroke="#812A50" stroke-width="2" stroke-miterlimit="10"/>
<path d="M356.674 4668.2C347.924 4792.03 56.2438 4782.46 79.3438 4903.91C102.454 5025.36 306.564 5374.86 342.284 5487.49C378.004 5600.12 270.834 5898.31 147.304 5949.12C67.6138 5995.93 26.0938 6340.93 205.474 6444.65C383.924 6505.91 260.544 6766.35 224.834 6851.15" stroke="#7F294F" stroke-width="2" stroke-miterlimit="10"/>
<path d="M356.732 4664.37C348.322 4783.44 49.6224 4774.16 77.5924 4894.09C105.562 5014.02 307.112 5364.51 342.572 5477.92C378.032 5591.33 262.832 5890.75 144.252 5943.19C67.8324 5991.78 27.9724 6326.91 209.332 6436.77C384.842 6502.38 254.062 6762.03 216.482 6851.28" stroke="#7D294E" stroke-width="2" stroke-miterlimit="10"/>
<path d="M356.783 4660.53C348.703 4774.83 42.9932 4765.85 75.8232 4884.27C108.653 5002.69 307.643 5354.16 342.833 5468.35C378.023 5582.54 254.803 5883.19 141.183 5937.25C68.0332 5987.62 29.8332 6312.87 213.173 6428.87C385.743 6498.83 247.573 6757.68 208.113 6851.4" stroke="#7A284D" stroke-width="2" stroke-miterlimit="10"/>
<path d="M356.832 4656.7C349.092 4766.24 36.362 4757.55 74.062 4874.45C111.762 4991.35 308.192 5343.81 343.112 5458.78C378.032 5573.75 246.792 5875.63 138.122 5931.32C68.242 5983.47 31.702 6298.85 217.022 6420.99C386.662 6495.3 241.092 6753.35 199.752 6851.54" stroke="#78284C" stroke-width="2" stroke-miterlimit="10"/>
<path d="M356.883 4652.87C349.483 4757.65 29.7328 4749.25 72.3028 4864.63C114.863 4980.01 308.733 5333.46 343.393 5449.2C378.053 5564.94 238.783 5868.05 135.073 5925.38C68.4628 5979.32 33.5928 6284.82 220.883 6413.1C387.583 6491.76 234.613 6749.02 191.393 6851.66" stroke="#75274C" stroke-width="2" stroke-miterlimit="10"/>
<path d="M356.934 4649.04C349.864 4749.06 23.1136 4740.95 70.5336 4854.82C117.964 4968.69 309.264 5323.11 343.664 5439.64C378.054 5556.16 230.764 5860.5 132.004 5919.45C68.6636 5975.17 35.4536 6270.79 224.724 6405.21C388.494 6488.22 228.124 6744.68 183.024 6851.79" stroke="#73274B" stroke-width="2" stroke-miterlimit="10"/>
<path d="M356.982 4645.21C350.252 4740.46 16.4824 4732.65 68.7724 4845C121.062 4957.35 309.802 5312.76 343.932 5430.06C378.062 5547.36 222.732 5852.93 128.942 5913.51C68.8724 5971.01 37.3224 6256.76 228.572 6397.32C389.402 6484.68 221.642 6740.34 174.662 6851.91" stroke="#70264A" stroke-width="2" stroke-miterlimit="10"/>
<path d="M357.043 4641.38C350.653 4731.87 9.86298 4724.35 67.023 4835.19C124.183 4946.03 310.353 5302.41 344.213 5420.49C378.073 5538.57 214.723 5845.37 125.883 5907.58C69.083 5966.86 39.203 6242.74 232.423 6389.44C390.313 6481.15 215.163 6736.02 166.303 6852.05" stroke="#6E2649" stroke-width="2" stroke-miterlimit="10"/>
<path d="M357.094 4637.55C351.034 4723.28 3.23375 4716.05 65.2538 4825.37C127.274 4934.69 310.894 5292.07 344.494 5410.93C378.094 5529.79 206.714 5837.82 122.834 5901.65C69.3037 5962.72 41.0838 6228.71 236.284 6381.56C391.244 6477.62 208.684 6731.69 157.954 6852.19" stroke="#6C2548" stroke-width="2" stroke-miterlimit="10"/>
<path d="M357.143 4633.72C351.423 4714.69 -3.39742 4707.75 63.4926 4815.55C130.373 4923.35 311.433 5281.72 344.763 5401.35C378.093 5520.99 198.693 5830.25 119.763 5895.71C69.5026 5958.56 42.9426 6214.68 240.123 6373.66C392.143 6474.07 202.193 6727.34 149.573 6852.3" stroke="#692447" stroke-width="2" stroke-miterlimit="10"/>
<path d="M357.193 4629.88C351.813 4706.08 -10.0166 4699.44 61.7234 4805.73C133.463 4912.02 311.973 5271.37 345.043 5391.78C378.113 5512.19 190.683 5822.68 116.713 5889.78C69.7234 5954.41 44.8334 6200.66 243.983 6365.78C393.063 6470.54 195.723 6723.02 141.223 6852.44" stroke="#672446" stroke-width="2" stroke-miterlimit="10"/>
<path d="M357.242 4626.05C352.192 4697.49 -16.6478 4691.14 59.9622 4795.91C136.572 4900.68 312.512 5261.01 345.312 5382.21C378.112 5503.4 182.662 5815.12 113.642 5883.84C69.9222 5950.25 46.6922 6186.63 247.822 6357.89C393.972 6467 189.222 6718.68 132.852 6852.57" stroke="#642345" stroke-width="2" stroke-miterlimit="10"/>
<path d="M357.293 4622.22C352.583 4688.9 -23.277 4682.84 58.203 4786.1C139.683 4889.35 313.053 5250.67 345.593 5372.64C378.133 5494.61 174.653 5807.56 110.593 5877.91C70.143 5946.1 48.573 6172.6 251.683 6350.01C394.893 6463.47 182.753 6714.35 124.503 6852.7" stroke="#622344" stroke-width="2" stroke-miterlimit="10"/>
<path d="M357.344 4618.39C352.974 4680.31 -29.9062 4674.54 56.4337 4776.28C142.784 4878.02 313.594 5240.32 345.864 5363.07C378.134 5485.82 166.634 5800 107.524 5871.98C70.3437 5941.96 50.4437 6158.58 255.524 6342.12C395.794 6459.93 176.264 6710.02 116.134 6852.83" stroke="#5F2244" stroke-width="2" stroke-miterlimit="10"/>
<path d="M357.402 4614.56C353.362 4671.71 -36.5177 4666.24 54.6823 4766.47C145.882 4866.7 314.132 5229.97 346.142 5353.5C378.142 5477.03 158.612 5792.44 104.472 5866.04C70.5624 5937.8 52.3223 6144.55 259.382 6334.23C396.722 6456.39 169.782 6705.68 107.772 6852.96" stroke="#5D2243" stroke-width="2" stroke-miterlimit="10"/>
<path d="M357.453 4610.73C353.753 4663.12 -43.1469 4657.94 52.9231 4756.65C148.983 4855.35 314.673 5219.62 346.413 5343.93C378.153 5468.24 150.593 5784.88 101.403 5860.11C70.7631 5933.65 54.1831 6130.52 263.223 6326.35C397.623 6452.86 163.293 6701.35 99.4031 6853.09" stroke="#5B2142" stroke-width="2" stroke-miterlimit="10"/>
<path d="M357.502 4606.9C354.142 4654.53 -49.7781 4649.64 51.1519 4746.83C152.092 4844.02 315.212 5209.27 346.692 5334.36C378.172 5459.45 142.582 5777.31 98.352 5854.18C70.982 5929.5 56.072 6116.5 267.082 6318.47C398.552 6449.33 156.822 6697.03 91.0519 6853.23" stroke="#582141" stroke-width="2" stroke-miterlimit="10"/>
<path d="M357.553 4603.07C354.523 4645.93 -56.4073 4641.35 49.3927 4737.02C155.193 4832.68 315.763 5198.93 346.963 5324.79C378.173 5450.65 134.563 5769.75 95.2827 5848.24C71.1827 5925.34 57.9327 6102.47 270.923 6310.57C399.453 6445.78 150.323 6692.68 82.6827 6853.34" stroke="#562040" stroke-width="2" stroke-miterlimit="10"/>
<path d="M357.604 4599.23C354.914 4637.33 -63.0365 4633.04 47.6335 4727.19C158.294 4821.35 316.304 5188.58 347.244 5315.22C378.184 5441.86 126.554 5762.19 92.2335 5842.31C71.4035 5921.2 59.8135 6088.44 274.784 6302.69C400.374 6442.25 143.853 6688.35 74.3235 6853.48" stroke="#531F3F" stroke-width="2" stroke-miterlimit="10"/>
<path d="M357.652 4595.4C355.292 4628.74 -69.6577 4624.74 45.8623 4717.38C161.392 4810.02 316.842 5178.23 347.512 5305.65C378.192 5433.07 118.532 5754.63 89.1624 5836.38C71.6024 5917.05 61.6723 6074.42 278.622 6294.81C401.282 6438.72 137.362 6684.03 65.9523 6853.62" stroke="#511F3E" stroke-width="2" stroke-miterlimit="10"/>
<path d="M357.713 4591.57C355.693 4620.15 -76.2771 4616.44 44.1129 4707.56C164.503 4798.68 317.383 5167.88 347.793 5296.08C378.203 5424.28 110.523 5747.07 86.1129 5830.44C71.8229 5912.89 63.5629 6060.39 282.473 6286.91C402.193 6435.17 130.883 6679.68 57.5929 6853.73" stroke="#4F1E3D" stroke-width="2" stroke-miterlimit="10"/>
<path d="M357.764 4587.74C356.084 4611.55 -82.9063 4608.14 42.3437 4697.74C167.604 4787.35 317.924 5157.53 348.064 5286.51C378.204 5415.49 102.504 5739.51 83.0437 5824.51C72.0237 5908.74 65.4237 6046.37 286.314 6279.03C403.094 6431.64 124.384 6675.35 49.2237 6853.87" stroke="#4C1E3C" stroke-width="2" stroke-miterlimit="10"/>
<path d="M357.812 4583.91C356.462 4602.96 -89.5375 4599.84 40.5825 4687.93C170.702 4776.02 318.463 5147.18 348.343 5276.94C378.222 5406.69 94.4925 5731.94 79.9925 5818.58C72.2425 5904.6 67.3025 6032.34 290.173 6271.15C404.022 6428.11 117.912 6671.03 40.8725 6854.01" stroke="#4A1D3C" stroke-width="2" stroke-miterlimit="10"/>
<path d="M357.863 4580.08C356.853 4594.37 -96.1667 4591.54 38.8233 4678.11C173.803 4764.68 319.003 5136.83 348.613 5267.36C378.223 5397.89 86.4633 5724.37 76.9233 5812.63C72.4433 5900.43 69.1733 6018.3 294.013 6263.25C404.923 6424.56 111.423 6666.68 32.4933 6854.12" stroke="#471D3B" stroke-width="2" stroke-miterlimit="10"/>
<path d="M357.912 4576.25C357.242 4585.78 -102.788 4583.24 37.0521 4668.3C176.902 4753.35 319.542 5126.48 348.892 5257.79C378.242 5389.1 78.4521 5716.81 73.8721 5806.7C72.6621 5896.28 71.0521 6004.28 297.872 6255.36C405.842 6421.02 104.942 6662.34 24.1421 6854.25" stroke="#451C3A" stroke-width="2" stroke-miterlimit="10"/>
<path d="M357.963 4572.42C357.623 4577.18 -109.417 4574.94 35.2929 4658.48C180.013 4742.02 320.083 5116.13 349.163 5248.22C378.243 5380.31 70.4329 5709.25 70.8029 5800.77C72.8629 5892.13 72.9129 5990.25 301.713 6247.48C406.753 6417.49 98.4529 6658.02 15.7729 6854.38" stroke="#421C39" stroke-width="2" stroke-miterlimit="10"/>
<path d="M358.014 4568.58C358.014 4568.58 -116.036 4566.63 33.5337 4648.66C183.104 4730.69 320.624 5105.78 349.444 5238.65C378.264 5371.52 62.4237 5701.69 67.7537 5794.83C73.0837 5887.97 74.8037 5976.22 305.574 6239.59C407.674 6413.95 91.9837 6653.68 7.42368 6854.51" stroke="#401B38" stroke-width="2" stroke-miterlimit="10"/>
<path d="M7.70432 6853.9C7.70432 6853.9 24.8643 7129.47 259.094 7108.09C400.924 7095.14 327.804 7627.77 185.974 7640.72C-31.7357 7660.59 13.5843 7935.41 54.3543 8033.25C95.1243 8131.09 347.904 8461.89 278.584 8612.15C209.264 8762.41 50.8643 8747.27 35.7243 8961.59" stroke="#401B38" stroke-width="2" stroke-miterlimit="10"/>
<path d="M35.6636 8965.42C50.4736 8755.86 215.894 8770.71 280.344 8621.97C344.794 8473.23 94.5736 8141.44 54.0736 8042.82C13.5736 7944.2 -23.7164 7668.15 189.034 7646.65C327.594 7631.92 399.044 7109.17 255.244 7115.97C23.9436 7133 14.1836 6858.23 16.0636 6853.77" stroke="#421C39" stroke-width="2" stroke-miterlimit="10"/>
<path d="M35.6153 8969.25C50.0853 8764.45 222.525 8779.01 282.115 8631.78C341.705 8484.55 94.0453 8151.78 53.8053 8052.39C13.5653 7952.99 -15.6947 7675.71 192.095 7652.58C327.385 7636.07 397.175 7123.19 251.395 7123.86C23.0253 7136.54 20.6653 6862.57 24.4253 6853.64" stroke="#451C3A" stroke-width="2" stroke-miterlimit="10"/>
<path d="M35.5653 8973.08C49.6953 8773.05 229.155 8787.31 283.875 8641.6C338.595 8495.89 93.5053 8162.14 53.5353 8061.96C13.5653 7961.78 -7.67473 7683.27 195.165 7658.52C327.175 7640.23 395.305 7137.22 247.555 7131.75C22.1253 7140.08 27.1553 6866.9 32.7953 6853.51" stroke="#471D3B" stroke-width="2" stroke-miterlimit="10"/>
<path d="M35.5159 8976.91C49.3159 8781.64 235.786 8795.61 285.636 8651.42C335.496 8507.23 92.9559 8172.49 53.2559 8071.53C13.5459 7970.57 0.335861 7690.84 198.216 7664.45C326.956 7644.37 393.426 7151.25 243.696 7139.63C21.2059 7143.61 33.6359 6871.23 41.1459 6853.38" stroke="#4A1D3C" stroke-width="2" stroke-miterlimit="10"/>
<path d="M35.4652 8980.75C48.9252 8790.24 242.405 8803.92 287.405 8661.24C332.395 8518.56 92.4252 8182.84 52.9852 8081.11C13.5452 7979.38 8.35518 7698.41 201.285 7670.39C326.755 7648.53 391.565 7165.28 239.855 7147.52C20.2952 7147.15 40.1252 6875.57 49.5252 6853.25" stroke="#4C1E3C" stroke-width="2" stroke-miterlimit="10"/>
<path d="M35.414 8984.58C48.534 8798.83 249.034 8812.22 289.164 8671.06C329.294 8529.9 91.884 8193.19 52.704 8090.67C13.534 7988.16 16.364 7705.96 204.334 7676.32C326.534 7652.68 389.684 7179.3 235.994 7155.41C19.374 7150.69 46.594 6879.9 57.874 6853.12" stroke="#4F1E3D" stroke-width="2" stroke-miterlimit="10"/>
<path d="M35.3542 8988.41C48.1442 8807.43 255.654 8820.52 290.915 8680.87C326.185 8541.23 91.3342 8203.53 52.4242 8100.24C13.5142 7996.95 24.3742 7713.52 207.394 7682.25C326.325 7656.83 387.805 7193.33 232.144 7163.29C18.4642 7154.22 53.0842 6884.23 66.2342 6852.99" stroke="#511F3E" stroke-width="2" stroke-miterlimit="10"/>
<path d="M35.3055 8992.24C47.7555 8816.02 262.285 8828.82 292.685 8690.69C323.085 8552.56 90.7955 8213.89 52.1555 8109.82C13.5155 8005.75 32.3955 7721.09 210.455 7688.19C326.115 7660.99 385.935 7207.36 228.295 7171.18C17.5455 7157.76 59.5655 6888.57 74.5955 6852.86" stroke="#531F3F" stroke-width="2" stroke-miterlimit="10"/>
<path d="M35.2557 8996.07C47.3657 8824.61 268.916 8837.12 294.445 8700.5C319.985 8563.89 90.2557 8224.23 51.8757 8119.38C13.4957 8014.53 40.4157 7728.64 213.516 7694.12C325.906 7665.13 384.065 7221.38 224.446 7179.06C16.6357 7161.29 66.0457 6892.89 82.9557 6852.73" stroke="#562040" stroke-width="2" stroke-miterlimit="10"/>
<path d="M35.2048 8999.9C46.9848 8833.21 275.535 8845.42 296.215 8710.32C316.885 8575.22 89.7248 8234.58 51.6148 8128.95C13.5048 8023.32 48.4448 7736.2 216.585 7700.05C325.705 7669.28 382.195 7235.4 220.605 7186.95C15.7248 7164.83 72.5448 6897.23 91.3348 6852.6" stroke="#582141" stroke-width="2" stroke-miterlimit="10"/>
<path d="M35.1539 9003.73C46.5939 8841.8 282.164 8853.72 297.974 8720.14C313.784 8586.56 89.1739 8244.93 51.3339 8138.53C13.4839 8032.13 56.4539 7743.78 219.644 7705.99C325.494 7673.44 380.324 7249.44 216.754 7194.84C14.8139 7168.37 79.0239 6901.56 99.6939 6852.47" stroke="#5B2142" stroke-width="2" stroke-miterlimit="10"/>
<path d="M35.1043 9007.56C46.2043 8850.39 288.795 8862.02 299.735 8729.95C310.675 8597.89 88.6343 8255.27 51.0543 8148.09C13.4743 8040.91 64.4643 7751.33 222.694 7711.92C325.275 7677.59 378.445 7263.46 212.894 7202.72C13.8943 7171.91 85.4943 6905.89 108.044 6852.34" stroke="#5D2243" stroke-width="2" stroke-miterlimit="10"/>
<path d="M35.0551 9011.4C45.8251 8858.99 295.425 8870.32 301.505 8739.78C307.585 8609.23 88.1052 8265.64 50.7852 8157.67C13.4752 8049.71 72.4852 7758.9 225.765 7717.86C325.075 7681.75 376.575 7277.49 209.055 7210.62C12.9852 7175.46 91.9952 6910.24 116.415 6852.22" stroke="#5F2244" stroke-width="2" stroke-miterlimit="10"/>
<path d="M34.9945 9015.23C45.4245 8867.59 302.035 8878.62 303.255 8749.59C304.475 8620.56 87.5545 8275.98 50.5045 8167.24C13.4545 8058.5 80.4945 7766.46 228.815 7723.79C324.855 7685.89 374.695 7291.52 205.195 7218.5C12.0645 7178.99 98.4645 6914.56 124.775 6852.08" stroke="#622344" stroke-width="2" stroke-miterlimit="10"/>
<path d="M34.9458 9019.06C45.0358 8876.18 308.666 8886.92 305.016 8759.41C301.366 8631.9 87.0058 8286.33 50.2258 8176.81C13.4458 8067.29 88.5058 7774.02 231.876 7729.73C324.646 7690.05 372.826 7305.55 201.346 7226.39C11.1558 7182.53 104.946 6918.9 133.136 6851.96" stroke="#642345" stroke-width="2" stroke-miterlimit="10"/>
<path d="M34.8938 9022.89C44.6538 8884.77 315.294 8895.22 306.784 8769.23C298.274 8643.23 86.4738 8296.68 49.9538 8186.38C13.4338 8076.08 96.5238 7781.58 234.934 7735.66C324.434 7694.2 370.944 7319.57 197.494 7234.27C10.2338 7186.06 111.424 6923.23 141.494 6851.82" stroke="#672446" stroke-width="2" stroke-miterlimit="10"/>
<path d="M34.8459 9026.72C44.2659 8893.36 321.926 8903.52 308.546 8779.04C295.166 8654.56 85.9359 8307.02 49.6859 8195.95C13.4359 8084.88 104.556 7789.15 238.006 7741.59C324.235 7698.35 369.085 7333.6 193.656 7242.16C9.33584 7189.6 117.926 6927.56 149.866 6851.7" stroke="#692447" stroke-width="2" stroke-miterlimit="10"/>
<path d="M34.7957 9030.55C43.8857 8901.96 328.556 8911.82 310.306 8788.86C292.066 8665.89 85.3857 8317.37 49.4057 8205.52C13.4157 8093.67 112.566 7796.71 241.056 7747.53C324.016 7702.5 367.206 7347.63 189.796 7250.05C8.41567 7193.14 124.396 6931.9 158.216 6851.57" stroke="#6C2548" stroke-width="2" stroke-miterlimit="10"/>
<path d="M34.7443 9034.38C43.4943 8910.55 335.174 8920.12 312.074 8798.67C288.964 8677.22 84.8543 8327.72 49.1343 8215.09C13.4143 8102.46 120.584 7804.27 244.114 7753.46C323.804 7706.65 365.324 7361.65 185.944 7257.93C7.49428 7196.67 130.874 6936.23 166.584 6851.43" stroke="#6E2649" stroke-width="2" stroke-miterlimit="10"/>
<path d="M34.6856 9038.21C43.0956 8919.14 341.796 8928.42 313.826 8808.49C285.856 8688.56 84.3056 8338.07 48.8456 8224.66C13.3856 8111.25 128.586 7811.83 247.166 7759.39C323.586 7710.8 363.446 7375.67 182.086 7265.81C6.57561 7200.2 137.356 6940.55 174.936 6851.3" stroke="#70264A" stroke-width="2" stroke-miterlimit="10"/>
<path d="M34.6351 9042.05C42.7151 8927.75 348.425 8936.73 315.595 8818.31C282.765 8699.89 83.7751 8348.42 48.5851 8234.23C13.3951 8120.04 136.615 7819.39 250.235 7765.33C323.385 7714.96 361.585 7389.71 178.245 7273.71C5.67508 7203.75 143.845 6944.9 183.305 6851.18" stroke="#73274B" stroke-width="2" stroke-miterlimit="10"/>
<path d="M34.5854 9045.88C42.3254 8936.34 355.055 8945.03 317.355 8828.13C279.655 8711.23 83.2254 8358.77 48.3055 8243.8C13.3855 8128.83 144.625 7826.95 253.295 7771.26C323.175 7719.11 359.715 7403.73 174.395 7281.59C4.75543 7207.28 150.325 6949.23 191.665 6851.04" stroke="#75274C" stroke-width="2" stroke-miterlimit="10"/>
<path d="M34.5349 9049.71C41.9349 8944.93 361.685 8953.33 319.115 8837.95C276.555 8722.57 82.6848 8369.12 48.0248 8253.38C13.3648 8137.64 152.635 7834.53 256.345 7777.2C322.955 7723.26 357.825 7417.76 170.535 7289.48C3.83485 7210.82 156.805 6953.56 200.025 6850.92" stroke="#78284C" stroke-width="2" stroke-miterlimit="10"/>
<path d="M34.4841 9053.54C41.5541 8953.52 368.304 8961.63 320.884 8847.76C273.454 8733.89 82.1541 8379.47 47.7541 8262.94C13.3641 8146.42 160.654 7842.08 259.414 7783.13C322.754 7727.41 355.964 7431.79 166.694 7297.37C2.92412 7214.36 163.294 6957.9 208.394 6850.79" stroke="#7A284D" stroke-width="2" stroke-miterlimit="10"/>
<path d="M34.4355 9057.37C41.1655 8962.12 374.936 8969.93 322.646 8857.58C270.355 8745.23 81.6155 8389.82 47.4855 8272.52C13.3555 8155.22 168.685 7849.65 262.475 7789.07C322.546 7731.57 354.096 7445.82 162.845 7305.26C2.01549 7217.9 169.775 6962.24 216.755 6850.67" stroke="#7D294E" stroke-width="2" stroke-miterlimit="10"/>
<path d="M34.3755 9061.2C40.7655 8970.71 381.555 8978.23 324.395 8867.39C267.235 8756.55 81.0655 8400.17 47.2055 8282.09C13.3455 8164.01 176.695 7857.21 265.535 7795C322.335 7735.72 352.215 7459.84 158.995 7313.14C1.10548 7221.43 176.255 6966.56 225.115 6850.53" stroke="#7F294F" stroke-width="2" stroke-miterlimit="10"/>
<path d="M34.3237 9065.03C40.3837 8979.3 388.184 8986.53 326.164 8877.21C264.144 8767.89 80.5237 8410.51 46.9237 8291.65C13.3237 8172.79 184.704 7864.76 268.584 7800.93C322.114 7739.86 350.334 7473.87 155.134 7321.02C0.173706 7224.96 182.734 6970.89 233.464 6850.39" stroke="#812A50" stroke-width="2" stroke-miterlimit="10"/>
<path d="M34.2751 9068.86C39.9951 8987.89 394.815 8994.83 327.925 8887.03C261.045 8779.23 79.9851 8420.86 46.6551 8301.23C13.3251 8181.59 192.725 7872.33 271.655 7806.87C321.915 7744.02 348.475 7487.9 151.295 7328.92C-0.724899 7228.51 189.225 6975.24 241.845 6850.28" stroke="#842B51" stroke-width="2" stroke-miterlimit="10"/>
<path d="M34.224 9072.7C39.604 8996.5 401.434 9003.14 329.694 8896.85C257.954 8790.56 79.444 8431.21 46.374 8310.8C13.304 8190.39 200.734 7879.9 274.704 7812.8C321.694 7748.17 346.584 7501.92 147.434 7336.8C-1.646 7232.04 195.694 6979.56 250.194 6850.14" stroke="#862B52" stroke-width="2" stroke-miterlimit="10"/>
<path d="M34.1759 9076.53C39.2259 9005.09 408.066 9011.44 331.456 8906.67C254.846 8801.9 78.9059 8441.57 46.1059 8320.37C13.3059 8199.18 208.756 7887.46 277.776 7818.74C321.496 7752.33 344.726 7515.95 143.596 7344.69C-2.55405 7235.58 202.196 6983.9 258.566 6850.01" stroke="#892C53" stroke-width="2" stroke-miterlimit="10"/>
<path d="M34.1255 9080.36C38.8355 9013.68 414.695 9019.74 333.215 8916.48C251.735 8813.23 78.3655 8451.91 45.8255 8329.94C13.2855 8207.97 216.765 7895.02 280.825 7824.67C321.275 7756.48 342.845 7529.98 139.735 7352.57C-3.47456 7239.11 208.665 6988.23 266.915 6849.88" stroke="#8B2C54" stroke-width="2" stroke-miterlimit="10"/>
<path d="M34.073 9084.19C38.443 9022.27 421.323 9028.04 334.983 8926.3C248.633 8824.56 77.823 8462.26 45.553 8339.51C13.283 8216.76 224.783 7902.58 283.893 7830.6C321.073 7760.62 340.973 7544 135.893 7360.46C-4.37698 7242.65 215.153 6992.56 275.283 6849.75" stroke="#8E2D54" stroke-width="2" stroke-miterlimit="10"/>
<path d="M34.0151 9088.02C38.0551 9030.87 427.935 9036.34 336.735 8936.11C245.535 8835.88 77.2851 8472.61 45.2751 8349.08C13.2751 8225.55 232.805 7910.14 286.945 7836.54C320.855 7764.78 339.095 7558.03 132.035 7368.35C-5.3049 7246.19 221.635 6996.9 283.645 6849.62" stroke="#902D55" stroke-width="2" stroke-miterlimit="10"/>
<path d="M33.9655 9091.85C37.6655 9039.46 434.565 9044.64 338.495 8945.93C242.435 8847.23 76.7455 8482.96 45.0055 8358.65C13.2655 8234.34 240.825 7917.7 290.015 7842.47C320.655 7768.93 337.235 7572.06 128.195 7376.23C-6.20451 7249.72 228.125 7001.23 292.015 6849.49" stroke="#922E56" stroke-width="2" stroke-miterlimit="10"/>
<path d="M33.916 9095.68C37.276 9048.05 441.196 9052.94 340.266 8955.75C239.326 8858.56 76.206 8493.31 44.726 8368.22C13.246 8243.13 248.836 7925.27 293.066 7848.4C320.436 7773.08 335.346 7586.08 124.336 7384.11C-7.13406 7253.25 234.596 7005.55 300.366 6849.35" stroke="#952E57" stroke-width="2" stroke-miterlimit="10"/>
<path d="M33.8642 9099.51C36.8942 9056.65 447.824 9061.23 342.024 8965.56C236.224 8869.9 75.6543 8503.65 44.4543 8377.79C13.2443 8251.93 256.854 7932.83 296.134 7854.34C320.234 7777.24 333.484 7600.11 120.494 7392.01C-8.03577 7256.8 241.094 7009.9 308.734 6849.24" stroke="#972F58" stroke-width="2" stroke-miterlimit="10"/>
<path d="M33.8132 9103.35C36.5032 9065.25 454.454 9069.54 343.784 8975.39C233.123 8881.23 75.1132 8514 44.1732 8387.36C13.2332 8260.72 264.863 7940.39 299.184 7860.27C320.014 7781.38 331.604 7614.14 116.633 7399.89C-8.95682 7260.33 247.563 7014.23 317.094 6849.1" stroke="#9A3059" stroke-width="2" stroke-miterlimit="10"/>
<path d="M33.7661 9107.18C36.1261 9073.84 461.076 9077.84 345.556 8985.2C230.026 8892.56 74.5761 8524.35 43.9061 8396.93C13.2261 8269.51 272.886 7947.95 302.256 7866.2C319.816 7785.53 329.746 7628.16 112.796 7407.77C-9.86389 7263.86 254.056 7018.55 325.466 6848.96" stroke="#9C305A" stroke-width="2" stroke-miterlimit="10"/>
<path d="M33.7057 9111.01C35.7257 9082.43 467.696 9086.14 347.306 8995.02C226.916 8903.9 74.0357 8534.7 43.6257 8406.5C13.2157 8278.3 280.896 7955.51 305.306 7872.14C319.596 7789.69 327.856 7642.19 108.946 7415.67C-10.7743 7267.41 260.536 7022.9 333.826 6848.85" stroke="#9E315B" stroke-width="2" stroke-miterlimit="10"/>
<path d="M33.6544 9114.84C35.3344 9091.03 474.325 9094.44 349.075 9004.84C223.814 8915.23 73.4944 8545.05 43.3544 8416.07C13.2144 8287.09 288.915 7963.07 308.375 7878.07C319.395 7793.84 325.995 7656.21 105.104 7423.55C-11.6756 7270.94 267.034 7027.23 342.195 6848.71" stroke="#A1315C" stroke-width="2" stroke-miterlimit="10"/>
<path d="M33.6046 9118.67C34.9546 9099.62 480.955 9102.74 350.835 9014.65C220.715 8926.56 72.9546 8555.4 43.0746 8425.64C13.1946 8295.89 296.925 7970.64 311.425 7884C319.175 7797.98 324.115 7670.24 101.245 7431.43C-12.6054 7274.47 273.505 7031.55 350.545 6848.57" stroke="#A3325C" stroke-width="2" stroke-miterlimit="10"/>
<path d="M33.5542 9122.5C34.5642 9108.21 487.584 9111.04 352.594 9024.47C217.614 8937.9 72.4142 8565.75 42.8042 8435.22C13.1942 8304.69 304.954 7978.21 314.494 7889.95C318.974 7802.15 322.244 7684.28 97.4042 7439.33C-13.5058 7278.02 279.994 7035.9 358.924 6848.46" stroke="#A6325D" stroke-width="2" stroke-miterlimit="10"/>
<path d="M33.506 9126.33C34.176 9116.8 494.206 9119.34 354.366 9034.28C214.516 8949.23 71.876 8576.1 42.526 8444.79C13.176 8313.48 312.966 7985.77 317.546 7895.88C318.756 7806.3 320.366 7698.3 93.546 7447.22C-14.424 7281.56 286.476 7040.24 367.276 6848.33" stroke="#A8335E" stroke-width="2" stroke-miterlimit="10"/>
<path d="M33.4549 9130.16C33.7949 9125.4 500.835 9127.64 356.125 9044.1C211.405 8960.56 71.3349 8586.45 42.2549 8454.36C13.1749 8322.27 320.985 7993.33 320.615 7901.81C318.555 7810.45 318.505 7712.33 89.7049 7455.1C-15.3351 7285.09 292.965 7044.56 375.645 6848.2" stroke="#AB335F" stroke-width="2" stroke-miterlimit="10"/>
<path d="M33.4039 9134C33.4039 9134 507.454 9135.95 357.884 9053.92C208.314 8971.89 70.7939 8596.8 41.9739 8463.93C13.1539 8331.06 328.994 8000.89 323.664 7907.75C318.334 7814.61 316.614 7726.36 85.8439 7462.99C-16.2561 7288.63 299.434 7048.9 383.994 6848.07" stroke="#AD3460" stroke-width="2" stroke-miterlimit="10"/>
</svg>
