<?xml version="1.0" encoding="UTF-8"?>
<svg id="Layer_3" data-name="Layer 3" xmlns="http://www.w3.org/2000/svg" viewBox="0 0 381.36 2287.32">
  <defs>
    <style>
      .cls-1 {
        stroke: #582141;
      }

      .cls-1, .cls-2, .cls-3, .cls-4, .cls-5, .cls-6, .cls-7, .cls-8, .cls-9, .cls-10, .cls-11, .cls-12, .cls-13, .cls-14, .cls-15, .cls-16, .cls-17, .cls-18, .cls-19, .cls-20, .cls-21, .cls-22, .cls-23, .cls-24, .cls-25, .cls-26, .cls-27, .cls-28, .cls-29, .cls-30, .cls-31, .cls-32, .cls-33, .cls-34, .cls-35, .cls-36, .cls-37, .cls-38, .cls-39, .cls-40, .cls-41, .cls-42, .cls-43, .cls-44, .cls-45, .cls-46 {
        fill: none;
        stroke-width: 2px;
      }

      .cls-1, .cls-2, .cls-3, .cls-4, .cls-5, .cls-6, .cls-7, .cls-8, .cls-10, .cls-11, .cls-12, .cls-13, .cls-14, .cls-15, .cls-16, .cls-17, .cls-18, .cls-19, .cls-21, .cls-22, .cls-23, .cls-24, .cls-25, .cls-26, .cls-27, .cls-28, .cls-29, .cls-30, .cls-31, .cls-33, .cls-34, .cls-35, .cls-36, .cls-37, .cls-38, .cls-39, .cls-40, .cls-41, .cls-42, .cls-43, .cls-44, .cls-45, .cls-46 {
        stroke-miterlimit: 10;
      }

      .cls-2 {
        stroke: #75274c;
      }

      .cls-3 {
        stroke: #511f3e;
      }

      .cls-4 {
        stroke: #7d294e;
      }

      .cls-5 {
        stroke: #4c1e3c;
      }

      .cls-6 {
        stroke: #73274b;
      }

      .cls-7 {
        stroke: #531f3f;
      }

      .cls-8 {
        stroke: #78284c;
      }

      .cls-9 {
        stroke: #952e57;
      }

      .cls-9, .cls-32 {
        stroke-miterlimit: 10;
      }

      .cls-10 {
        stroke: #a6325d;
      }

      .cls-11 {
        stroke: #562040;
      }

      .cls-12 {
        stroke: #401b38;
      }

      .cls-13 {
        stroke: #4a1d3c;
      }

      .cls-14 {
        stroke: #471d3b;
      }

      .cls-15 {
        stroke: #972f58;
      }

      .cls-16 {
        stroke: #ab335f;
      }

      .cls-17 {
        stroke: #692447;
      }

      .cls-18 {
        stroke: #451c3a;
      }

      .cls-19 {
        stroke: #642345;
      }

      .cls-20 {
        stroke: #902d55;
        stroke-miterlimit: 10;
      }

      .cls-21 {
        stroke: #8b2c54;
      }

      .cls-22 {
        stroke: #672446;
      }

      .cls-23 {
        stroke: #a8335e;
      }

      .cls-24 {
        stroke: #7f294f;
      }

      .cls-25 {
        stroke: #7a284d;
      }

      .cls-26 {
        stroke: #5d2243;
      }

      .cls-27 {
        stroke: #9c305a;
      }

      .cls-28 {
        stroke: #5b2142;
      }

      .cls-29 {
        stroke: #812a50;
      }

      .cls-30 {
        stroke: #9a3059;
      }

      .cls-31 {
        stroke: #421c39;
      }

      .cls-32 {
        stroke: #9e315b;
      }

      .cls-33 {
        stroke: #8e2d54;
      }

      .cls-34 {
        stroke: #4f1e3d;
      }

      .cls-35 {
        stroke: #922e56;
      }

      .cls-36 {
        stroke: #a3325c;
      }

      .cls-37 {
        stroke: #5f2244;
      }

      .cls-38 {
        stroke: #6c2548;
      }

      .cls-39 {
        stroke: #862b52;
      }

      .cls-40 {
        stroke: #a1315c;
      }

      .cls-41 {
        stroke: #ad3460;
      }

      .cls-42 {
        stroke: #622344;
      }

      .cls-43 {
        stroke: #70264a;
      }

      .cls-44 {
        stroke: #842b51;
      }

      .cls-45 {
        stroke: #892c53;
      }

      .cls-46 {
        stroke: #6e2649;
      }
    </style>
  </defs>
  <path class="cls-41" d="M1,2281.1s17.16-275.57,251.39-254.19c141.83,12.95,68.71-519.68-73.12-532.63-217.71-19.87-172.39-294.69-131.62-392.53,40.77-97.84,293.55-428.64,224.23-578.9S44.16,387.73,29.02,173.41"/>
  <path class="cls-16" d="M28.96,169.58c14.81,209.56,180.23,194.71,244.68,343.45,64.45,148.74-185.77,480.53-226.27,579.15-40.5,98.62-77.79,374.67,134.96,396.17,138.56,14.73,210.01,537.48,66.21,530.68-231.3-17.03-241.06,257.74-239.18,262.2"/>
  <path class="cls-23" d="M28.91,165.75c14.47,204.8,186.91,190.24,246.5,337.47,59.59,147.23-188.07,480-228.31,579.39-40.24,99.4-69.5,376.68,138.29,399.81,135.29,16.51,205.08,529.39,59.3,528.72-228.37-12.68-230.73,261.29-226.97,270.22"/>
  <path class="cls-10" d="M28.86,161.92c14.13,200.03,193.59,185.77,248.31,331.48,54.72,145.71-190.37,479.46-230.34,579.64-39.97,100.18-61.21,378.69,141.63,403.44,132.01,18.29,200.14,521.3,52.39,526.77-225.43-8.33-220.4,264.85-214.76,278.24"/>
  <path class="cls-36" d="M28.81,158.09c13.8,195.27,200.27,181.3,250.12,325.49,49.86,144.19-192.68,478.93-232.38,579.89-39.71,100.96-52.92,380.69,144.96,407.08,128.74,20.08,195.21,513.2,45.48,524.82-222.49-3.98-210.06,268.4-202.55,286.25"/>
  <path class="cls-40" d="M28.76,154.25c13.46,190.51,206.94,176.83,251.94,319.51,44.99,142.68-194.98,478.4-234.42,580.13-39.44,101.73-44.63,382.7,148.3,410.72,125.47,21.86,190.28,505.11,38.57,522.87-219.56.37-199.73,271.95-190.33,294.27"/>
  <path class="cls-32" d="M28.71,150.42c13.12,185.75,213.62,172.36,253.75,313.52S85.18,941.81,46,1044.33c-39.17,102.51-36.34,384.71,151.63,414.35,122.2,23.64,185.35,497.02,31.66,520.91-216.62,4.72-189.4,275.51-178.12,302.29"/>
  <path class="cls-27" d="M28.65,146.59c12.79,180.98,220.3,167.89,255.56,307.54,35.27,139.64-199.58,477.34-238.49,580.63-38.91,103.29-28.05,386.72,154.97,417.99,118.93,25.42,180.41,488.92,24.75,518.96-213.68,9.07-179.06,279.06-165.91,310.3"/>
  <path class="cls-30" d="M28.6,142.76c12.45,176.22,226.98,163.42,257.38,301.55,30.4,138.13-201.89,476.8-240.53,580.87-38.64,104.07-19.76,388.73,158.3,421.63,115.66,27.2,175.48,480.83,17.84,517.01-210.75,13.42-168.73,282.61-153.7,318.32"/>
  <path class="cls-15" d="M28.55,138.93c12.11,171.46,233.66,158.95,259.19,295.57,25.54,136.61-204.19,476.27-242.57,581.12-38.38,104.85-11.46,390.74,161.64,425.26,112.39,28.99,170.55,472.74,10.93,515.06-207.81,17.77-158.4,286.17-141.49,326.33"/>
  <path class="cls-9" d="M28.5,135.1c11.78,166.69,240.33,154.48,261.01,289.58,20.67,135.1-206.49,475.74-244.6,581.37-38.11,105.63-3.17,392.75,164.97,428.9,109.12,30.77,165.61,464.65,4.02,513.1-204.88,22.12-148.06,289.72-129.27,334.35"/>
  <path class="cls-35" d="M28.45,131.27c11.44,161.93,247.01,150.01,262.82,283.59,15.81,133.58-208.8,475.21-246.64,581.61-37.85,106.4,5.12,394.75,168.31,432.54,105.85,32.55,160.68,456.55-2.89,511.15-201.94,26.47-137.73,293.28-117.06,342.37"/>
  <path class="cls-20" d="M28.4,127.44c11.1,157.17,253.69,145.54,264.63,277.61,10.94,132.06-211.1,474.68-248.68,581.86-37.58,107.18,13.41,396.76,171.64,436.17,102.58,34.33,155.75,448.46-9.8,509.2-199,30.81-127.4,296.83-104.85,350.38"/>
  <path class="cls-33" d="M28.35,123.6c10.77,152.41,260.37,141.08,266.45,271.62,6.08,130.55-213.4,474.14-250.72,582.11-37.31,107.96,21.7,398.77,174.98,439.81,99.31,36.11,150.81,440.37-16.71,507.24-196.07,35.16-117.06,300.38-92.64,358.4"/>
  <path class="cls-21" d="M28.29,119.77c10.43,147.64,267.04,136.61,268.26,265.64S80.85,859.02,43.8,967.76c-37.05,108.74,29.99,400.78,178.31,443.45,96.04,37.9,145.88,432.27-23.62,505.29-193.13,39.51-106.73,303.94-80.42,366.42"/>
  <path class="cls-45" d="M28.24,115.94c10.09,142.88,273.72,132.14,270.07,259.65-3.65,127.51-218.01,473.08-254.79,582.6-36.78,109.52,38.28,402.79,181.65,447.08,92.77,39.68,140.95,424.18-30.53,503.34-190.19,43.86-96.4,307.49-68.21,374.43"/>
  <path class="cls-39" d="M28.19,112.11c9.76,138.12,280.4,127.67,271.89,253.66-8.51,126-220.31,472.55-256.83,582.85-36.52,110.3,46.57,404.8,184.98,450.72,89.5,41.46,136.01,416.09-37.44,501.39-187.26,48.21-86.07,311.04-56,382.45"/>
  <path class="cls-44" d="M28.14,108.28c9.42,133.36,287.08,123.2,273.7,247.68-13.38,124.48-222.61,472.02-258.86,583.09-36.25,111.07,54.87,406.8,188.32,454.36,86.23,43.24,131.08,407.99-44.35,499.43-184.32,52.56-75.73,314.6-43.79,390.46"/>
  <path class="cls-29" d="M28.09,104.45c9.09,128.59,293.76,118.73,275.51,241.69-18.24,122.97-224.92,471.49-260.9,583.34-35.99,111.85,63.16,408.81,191.65,457.99,82.96,45.03,126.15,399.9-51.26,497.48-181.38,56.91-65.4,318.15-31.58,398.48"/>
  <path class="cls-24" d="M28.04,100.62c8.75,123.83,300.43,114.26,277.33,235.71-23.11,121.45-227.22,470.95-262.94,583.58-35.72,112.63,71.45,410.82,194.98,461.63,79.69,46.81,121.21,391.81-58.17,495.53-178.45,61.26-55.07,321.7-19.36,406.5"/>
  <path class="cls-4" d="M27.98,96.79c8.41,119.07,307.11,109.79,279.14,229.72-27.97,119.93-229.52,470.42-264.98,583.83-35.46,113.41,79.74,412.83,198.32,465.27,76.42,48.59,116.28,383.72-65.08,493.58-175.51,65.61-44.73,325.26-7.15,414.51"/>
  <path class="cls-25" d="M27.93,92.95c8.08,114.3,313.79,105.32,280.96,223.74-32.83,118.42-231.82,469.89-267.01,584.08-35.19,114.19,88.03,414.84,201.65,468.9,73.15,50.37,111.35,375.62-71.99,491.62-172.57,69.96-34.4,328.81,5.06,422.53"/>
  <path class="cls-8" d="M27.88,89.12c7.74,109.54,320.47,100.85,282.77,217.75S76.52,776.23,41.6,891.2c-34.92,114.97,96.32,416.85,204.99,472.54,69.88,52.15,106.42,367.53-78.9,489.67-169.64,74.31-24.07,332.36,17.27,430.55"/>
  <path class="cls-2" d="M27.83,85.29c7.4,104.78,327.15,96.38,284.58,211.76-42.56,115.38-236.43,468.83-271.09,584.57-34.66,115.74,104.61,418.85,208.32,476.18,66.61,53.94,101.48,359.44-85.81,487.72-166.7,78.66-13.73,335.92,29.49,438.56"/>
  <path class="cls-6" d="M27.78,81.46c7.07,100.02,333.82,91.91,286.4,205.78-47.43,113.87-238.73,468.29-273.13,584.82-34.39,116.52,112.9,420.86,211.66,479.81,63.34,55.72,96.55,351.34-92.72,485.76-163.77,83.01-3.4,339.47,41.7,446.58"/>
  <path class="cls-43" d="M27.73,77.63c6.73,95.25,340.5,87.44,288.21,199.79-52.29,112.35-241.03,467.76-275.16,585.06s121.2,422.87,214.99,483.45c60.07,57.5,91.62,343.25-99.63,483.81-160.83,87.36,6.93,343.02,53.91,454.59"/>
  <path class="cls-46" d="M27.67,73.8c6.39,90.49,347.18,82.97,290.02,193.81S74.36,734.83,40.5,852.91c-33.86,118.08,129.49,424.88,218.33,487.09,56.8,59.28,86.68,335.16-106.54,481.86-157.89,91.71,17.26,346.58,66.12,462.61"/>
  <path class="cls-38" d="M27.62,69.97c6.06,85.73,353.86,78.5,291.84,187.82-62.02,109.32-245.64,466.7-279.24,585.56-33.6,118.86,137.78,426.89,221.66,490.72,53.53,61.07,81.75,327.06-113.45,479.91-154.96,96.06,27.6,350.13,78.33,470.63"/>
  <path class="cls-17" d="M27.57,66.14c5.72,80.97,360.54,74.03,293.65,181.83-66.88,107.8-247.94,466.17-281.27,585.8-33.33,119.64,146.07,428.9,225,494.36,50.26,62.85,76.82,318.97-120.36,477.95-152.02,100.41,37.93,353.68,90.55,478.64"/>
  <path class="cls-22" d="M27.52,62.3c5.38,76.2,367.21,69.56,295.47,175.85S72.74,703.79,39.67,824.2c-33.07,120.41,154.36,430.9,228.33,498,46.99,64.63,71.88,310.88-127.27,476-149.08,104.76,48.26,357.24,102.76,486.66"/>
  <path class="cls-19" d="M27.47,58.47c5.05,71.44,373.89,65.09,297.28,169.86-76.61,104.77-252.55,465.1-285.35,586.3-32.8,121.19,162.65,432.91,231.67,501.63,43.72,66.41,66.95,302.79-134.18,474.05-146.15,109.11,58.6,360.79,114.97,494.68"/>
  <path class="cls-42" d="M27.42,54.64c4.71,66.68,380.57,60.62,299.09,163.88-81.48,103.25-254.85,464.57-287.39,586.54s170.94,434.92,235,505.27c40.45,68.19,62.02,294.69-141.09,472.1-143.21,113.46,68.93,364.34,127.18,502.69"/>
  <path class="cls-37" d="M27.37,50.81c4.37,61.92,387.25,56.15,300.91,157.89C241.93,310.44,71.12,672.74,38.85,795.49c-32.27,122.75,179.23,436.93,238.34,508.91,37.18,69.98,57.08,286.6-148,470.14-140.27,117.81,79.26,367.9,139.39,510.71"/>
  <path class="cls-26" d="M27.31,46.98c4.04,57.15,393.92,51.68,302.72,151.91S70.58,662.39,38.57,785.92c-32,123.53,187.53,438.94,241.67,512.54,33.91,71.76,52.15,278.51-154.91,468.19-137.34,122.16,89.6,371.45,151.61,518.73"/>
  <path class="cls-28" d="M27.26,43.15c3.7,52.39,400.6,47.21,304.53,145.92C235.73,287.77,70.04,652.04,38.3,776.35c-31.74,124.31,195.82,440.95,245.01,516.18,30.64,73.54,47.22,270.41-161.82,466.24-134.4,126.51,99.93,375,163.82,526.74"/>
  <path class="cls-1" d="M27.21,39.32c3.36,47.63,407.28,42.74,306.35,139.93C232.62,276.44,69.5,641.69,38.02,766.78s204.11,442.95,248.34,519.82c27.37,75.32,42.28,262.32-168.73,464.29-131.47,130.86,110.26,378.56,176.03,534.76"/>
  <path class="cls-11" d="M27.16,35.49c3.03,42.86,413.96,38.28,308.16,133.95C229.52,265.1,68.95,631.35,37.75,757.21c-31.21,125.86,212.4,444.96,251.68,523.45,24.1,77.1,37.35,254.23-175.64,462.33-128.53,135.21,120.6,382.11,188.24,542.77"/>
  <path class="cls-7" d="M27.11,31.65c2.69,38.1,420.64,33.81,309.97,127.96C226.42,253.77,68.41,621,37.47,747.64c-30.94,126.64,220.69,446.97,255.01,527.09,20.83,78.89,32.42,246.13-182.55,460.38-125.59,139.56,130.93,385.66,200.46,550.79"/>
  <path class="cls-3" d="M27.06,27.82c2.36,33.34,427.31,29.34,311.79,121.98C223.32,242.44,67.87,610.65,37.2,738.07c-30.68,127.42,228.98,448.98,258.35,530.73,17.56,80.67,27.49,238.04-189.46,458.43-122.66,143.91,141.26,389.22,212.67,558.81"/>
  <path class="cls-34" d="M27,23.99c2.02,28.58,433.99,24.87,313.6,115.99S67.33,600.3,36.92,728.5c-30.41,128.2,237.27,450.99,261.68,534.36,14.29,82.45,22.55,229.95-196.36,456.47-119.72,148.26,151.59,392.77,224.88,566.82"/>
  <path class="cls-5" d="M26.95,20.16c1.68,23.81,440.67,20.4,315.42,110C217.11,219.77,66.79,589.95,36.65,718.93c-30.14,128.98,245.56,453,265.02,538,11.02,84.23,17.62,221.86-203.27,454.52-116.78,152.61,161.93,396.32,237.09,574.84"/>
  <path class="cls-13" d="M26.9,16.33c1.35,19.05,447.35,15.93,317.23,104.02C214.01,208.44,66.25,579.6,36.37,709.36c-29.88,129.75,253.85,455,268.35,541.64,7.75,86.02,12.69,213.76-210.18,452.57-113.85,156.96,172.26,399.88,249.3,582.86"/>
  <path class="cls-14" d="M26.85,12.5c1.01,14.29,454.03,11.46,319.04,98.03C210.91,197.1,65.71,569.25,36.1,699.78c-29.61,130.53,262.15,457.01,271.69,545.27,4.48,87.8,7.75,205.67-217.09,450.62-110.91,161.31,182.59,403.43,261.52,590.87"/>
  <path class="cls-18" d="M26.8,8.67c.67,9.53,460.7,6.99,320.86,92.05C207.81,185.77,65.17,558.9,35.82,690.21c-29.35,131.31,270.44,459.02,275.02,548.91,1.21,89.58,2.82,197.58-224,448.66-107.97,165.66,192.93,406.98,273.73,598.89"/>
  <path class="cls-31" d="M26.75,4.84c.34,4.76,467.38,2.52,322.67,86.06C204.7,174.44,64.63,548.55,35.55,680.64c-29.08,132.09,278.73,461.03,278.36,552.55-2.06,91.36-2.11,189.48-230.91,446.71-105.04,170.01,203.26,410.54,285.94,606.9"/>
  <path class="cls-12" d="M26.7,1S500.75-.95,351.18,81.08,64.09,538.2,35.27,671.07s287.02,463.04,281.69,556.18-7.05,181.39-237.82,444.76c-102.1,174.36,213.59,414.09,298.15,614.92"/>
</svg>