<svg id="Com" xmlns="http://www.w3.org/2000/svg" viewBox="0 0 300 105"><defs><style>.cls-1{fill:#0e4f98;}</style></defs><title>Celab-Com-RGB-Original-blue</title><path class="cls-1" d="M23.79,87.44a16.85,16.85,0,0,0-1.8-.32A17.85,17.85,0,0,0,19.81,87a12.54,12.54,0,0,0-4,.63,8.68,8.68,0,0,0-3.1,1.78,7.94,7.94,0,0,0-2,2.88A9.8,9.8,0,0,0,10,96a9.92,9.92,0,0,0,.72,3.9,7.57,7.57,0,0,0,2,2.82,8.67,8.67,0,0,0,3.11,1.7,13.21,13.21,0,0,0,3.95.57,15.66,15.66,0,0,0,2.27-.13c0.55-.09,1.14-0.21,1.77-0.37a12.9,12.9,0,0,0,1.38-.44l1.38-.55V99.37H26.07q-0.35.28-.89,0.66a10.63,10.63,0,0,1-1.17.72,7.13,7.13,0,0,1-1.63.66,6.71,6.71,0,0,1-1.78.24,6.93,6.93,0,0,1-1.9-.27,4.81,4.81,0,0,1-1.75-.92,4.76,4.76,0,0,1-1.28-1.72A6.46,6.46,0,0,1,15.16,96a6.73,6.73,0,0,1,.47-2.65,4.84,4.84,0,0,1,1.23-1.76,4.94,4.94,0,0,1,1.74-1,6.53,6.53,0,0,1,2-.3,5.91,5.91,0,0,1,1.76.26,9,9,0,0,1,1.53.62,12.21,12.21,0,0,1,1.24.75c0.36,0.25.67,0.47,0.91,0.66h0.57V88.44l-1.23-.51a14.26,14.26,0,0,0-1.57-.49h0Z" transform="translate(0 0)"/><path class="cls-1" d="M40.12,87a10.31,10.31,0,0,0-7.26,2.42,9.54,9.54,0,0,0,0,13.15A10.29,10.29,0,0,0,40.12,105a10.31,10.31,0,0,0,7.27-2.43,9.52,9.52,0,0,0,0-13.15A10.34,10.34,0,0,0,40.12,87h0Zm4.39,11.52a5,5,0,0,1-1.07,1.87,3.94,3.94,0,0,1-1.5,1,5,5,0,0,1-1.81.33,5.05,5.05,0,0,1-1.81-.33,4,4,0,0,1-1.5-1,5.05,5.05,0,0,1-1-1.77A7.8,7.8,0,0,1,35.4,96a8,8,0,0,1,.4-2.66,4.82,4.82,0,0,1,1-1.8,4.12,4.12,0,0,1,1.52-1,5.23,5.23,0,0,1,3.54,0,3.9,3.9,0,0,1,1.51,1,5.06,5.06,0,0,1,1,1.77,7.77,7.77,0,0,1,.4,2.65,8.31,8.31,0,0,1-.35,2.53h0Z" transform="translate(0 0)"/><polygon class="cls-1" points="63.9 96.03 59.6 87.37 53.8 87.37 53.8 104.63 58.52 104.63 58.52 93.08 62.06 100.58 65.47 100.58 69.02 93.08 69.02 104.63 73.97 104.63 73.97 87.37 68.19 87.37 63.9 96.03 63.9 96.03"/><polygon class="cls-1" points="88.95 96.03 84.64 87.37 78.85 87.37 78.85 104.63 83.57 104.63 83.57 93.08 87.11 100.58 90.52 100.58 94.06 93.08 94.06 104.63 99.02 104.63 99.02 87.37 93.24 87.37 88.95 96.03 88.95 96.03"/><path class="cls-1" d="M115.8,98.18a3.69,3.69,0,0,1-.87,2.72,3.83,3.83,0,0,1-2.75.85,3.7,3.7,0,0,1-2.76-.89,3.75,3.75,0,0,1-.85-2.69V87.37h-5v11a5.86,5.86,0,0,0,2.17,4.89Q108,105,112.18,105t6.4-1.71a5.86,5.86,0,0,0,2.17-4.9v-11h-5V98.18h0Z" transform="translate(0 0)"/><polygon class="cls-1" points="138.29 97.26 131.28 87.37 125.36 87.37 125.36 104.63 129.9 104.63 129.9 92.78 138.06 104.63 142.84 104.63 142.84 87.37 138.29 87.37 138.29 97.26 138.29 97.26"/><path class="cls-1" d="M171.73,87.44a16.84,16.84,0,0,0-1.8-.32,17.81,17.81,0,0,0-2.18-.12,12.55,12.55,0,0,0-4,.63,8.66,8.66,0,0,0-3.1,1.78,7.94,7.94,0,0,0-2,2.88,9.78,9.78,0,0,0-.68,3.73,9.92,9.92,0,0,0,.71,3.9,7.56,7.56,0,0,0,2,2.82,8.67,8.67,0,0,0,3.11,1.7,13.21,13.21,0,0,0,3.95.57,15.64,15.64,0,0,0,2.27-.13c0.55-.09,1.14-0.21,1.77-0.37a12.75,12.75,0,0,0,1.38-.44l1.38-.55V99.37H174q-0.35.28-.89,0.66a10.33,10.33,0,0,1-1.17.72,7.16,7.16,0,0,1-1.63.66,6.7,6.7,0,0,1-1.78.24,6.94,6.94,0,0,1-1.9-.27,4.82,4.82,0,0,1-1.75-.92,4.75,4.75,0,0,1-1.28-1.72A6.44,6.44,0,0,1,163.1,96a6.73,6.73,0,0,1,.47-2.65,4.8,4.8,0,0,1,1.23-1.76,4.93,4.93,0,0,1,1.74-1,6.53,6.53,0,0,1,2-.3,5.89,5.89,0,0,1,1.76.26,8.94,8.94,0,0,1,1.53.62,12,12,0,0,1,1.24.75c0.36,0.25.67,0.47,0.91,0.66h0.57V88.44l-1.23-.51a14.19,14.19,0,0,0-1.57-.49h0Z" transform="translate(0 0)"/><path class="cls-1" d="M184.86,87.37l-7.09,17.26h5l1.35-3.53h7l1.35,3.53h5.17l-7.1-17.26h-5.7ZM185.32,98l2.32-6.07L190,98h-4.64Z" transform="translate(0 0)"/><polygon class="cls-1" points="197.91 90.71 203.89 90.71 203.89 104.63 208.85 104.63 208.85 90.71 214.84 90.71 214.84 87.37 197.91 87.37 197.91 90.71 197.91 90.71"/><path class="cls-1" d="M238.53,87a10.31,10.31,0,0,0-7.26,2.42,9.54,9.54,0,0,0,0,13.15,12.07,12.07,0,0,0,14.53,0,9.52,9.52,0,0,0,0-13.15A10.34,10.34,0,0,0,238.53,87h0Zm4.39,11.52a5,5,0,0,1-1.07,1.87,3.9,3.9,0,0,1-1.5,1,5,5,0,0,1-1.81.33,5.06,5.06,0,0,1-1.81-.33,4,4,0,0,1-1.5-1,5.07,5.07,0,0,1-1-1.77A7.81,7.81,0,0,1,233.8,96a8,8,0,0,1,.41-2.66,4.82,4.82,0,0,1,1-1.8,4.1,4.1,0,0,1,1.52-1,5.22,5.22,0,0,1,3.54,0,3.87,3.87,0,0,1,1.51,1,5,5,0,0,1,1,1.77,7.75,7.75,0,0,1,.4,2.65,8.29,8.29,0,0,1-.35,2.53h0Z" transform="translate(0 0)"/><polygon class="cls-1" points="265.14 97.26 258.13 87.37 252.21 87.37 252.21 104.63 256.75 104.63 256.75 92.78 264.92 104.63 269.69 104.63 269.69 87.37 265.14 87.37 265.14 97.26 265.14 97.26"/><path class="cls-1" d="M285.67,94.52c-0.75-.22-1.45-0.39-2.1-0.51l-2-.38a7,7,0,0,1-2.2-.67,1.17,1.17,0,0,1-.58-1.05,1.09,1.09,0,0,1,.36-0.8,2.36,2.36,0,0,1,.87-0.53,5.5,5.5,0,0,1,1.19-.28,10.57,10.57,0,0,1,1.24-.07,10.92,10.92,0,0,1,3.45.56,10.79,10.79,0,0,1,2.86,1.39h0.53v-4a19.1,19.1,0,0,0-3.21-.83,21.46,21.46,0,0,0-3.76-.33,11.43,11.43,0,0,0-6.2,1.53,4.53,4.53,0,0,0-2.41,3.94,4.38,4.38,0,0,0,1.07,3,7.26,7.26,0,0,0,3.5,1.92,18.92,18.92,0,0,0,2.27.52q1.21,0.2,2.3.44a4,4,0,0,1,1.57.63,1.22,1.22,0,0,1,.54,1,1.15,1.15,0,0,1-.37.93,3.09,3.09,0,0,1-.94.53,5.26,5.26,0,0,1-1.2.23c-0.49,0-.89.07-1.19,0.07a12.37,12.37,0,0,1-3.66-.6,11.85,11.85,0,0,1-3.45-1.7h-0.54v4.14a23.49,23.49,0,0,0,3.32,1,20.37,20.37,0,0,0,4.17.38,11.73,11.73,0,0,0,6.55-1.6A4.79,4.79,0,0,0,290,99.19a4.07,4.07,0,0,0-1.06-2.91,7.16,7.16,0,0,0-3.27-1.77h0Z" transform="translate(0 0)"/><polygon class="cls-1" points="148.63 104.6 153.59 104.6 153.59 87.37 148.63 87.37 148.63 104.6 148.63 104.6"/><polygon class="cls-1" points="219.09 104.63 224.04 104.63 224.04 87.4 219.09 87.4 219.09 104.63 219.09 104.63"/><path class="cls-1" d="M298.6,36.22c-0.79-9.4-7.2-15.32-18.16-14.88A28.9,28.9,0,0,0,264.77,28l0-26.57H239.27V78.63h26.4V72.94c4.46,5.91,9.92,7.07,17.9,7.28,8.93,0,14.16-2,15.8-14.11,1.44-10.69.09-22.5-.77-29.88h0ZM273.92,54c-0.36,3.55-1.65,6.28-4.58,6.06-2.3,0-4.14-1.95-4.14-5.78v-9.1c0-4.07,1.51-6.31,4.25-6.35,2.24,0.11,3.7,1.69,4.26,4.65a46.43,46.43,0,0,1,.2,10.52h0Z" transform="translate(0 0)"/><path class="cls-1" d="M39.37,48.85v5.26c0,4-2,6.63-4.93,6.61-4.23,0-5.59-3.85-5.59-6.71V24.16c0-2.8,1.47-5.78,5.17-5.85,3.22,0,5.41,2.49,5.41,6v5.43l25.6,0C65.22,1.26,41.89.12,32.92,0c-18.4-.37-28.62,10.43-30.55,18-2.95,11-2.95,31.67-1.07,41.47,3,12.36,14.61,20,30.92,20.45C53.59,80.22,66,70.72,65.29,48.85H39.37Z" transform="translate(0 0)"/><polygon class="cls-1" points="164.66 1.51 137.43 1.51 137.43 78.67 164.64 78.67 164.66 1.51 164.66 1.51"/><path class="cls-1" d="M102,21.48c-20.55-.22-26.91,8.59-29.62,18.29-2.14,7.9-1.12,19.34.88,25.49,2.8,7.55,10.45,14.87,29.75,14.63,18.5,0.44,27.7-5.61,28.47-21.22H108L108,61c0,3.32-2,5.25-5.17,5.19S97.25,64.31,97.25,61V52h34.34c0.49-23.9-9.08-30.08-29.56-30.52h0ZM97.34,43.12c-0.08-4.63,1.54-7.36,5.28-7.43C106,35.77,108,38.49,108,43.12H97.34Z" transform="translate(0 0)"/><path class="cls-1" d="M207.78,78.65l25.74,0A11.89,11.89,0,0,1,230,70.87v-28c0.17-15.12-8.9-20.36-17.38-21.62-5.87-.61-14.43-1.2-23.05.22-13,2.89-14,10.69-15,18.62h21.55a4.83,4.83,0,0,1,5.15-4.84,3.9,3.9,0,0,1,4.24,4c0.32,5-7.89,4.86-13.94,4.86-15.38.4-20.64,6.16-20.64,18.13,0.28,9.8,7.69,17.93,23.05,17.3,6.81-.84,8.9-2.85,12.75-5.54l1,4.66h0Zm-9.66-15.59c-2.2-.33-3.4-2.47-2.8-5.38,0.84-2.72,4-3.51,10.18-5.15v3.18c-0.6,5.92-4.54,7.92-7.39,7.35h0Z" transform="translate(0 0)"/></svg>