<?xml version="1.0" encoding="utf-8"?>
<!-- Generator: Adobe Illustrator 16.0.0, SVG Export Plug-In . SVG Version: 6.00 Build 0)  -->
<!DOCTYPE svg PUBLIC "-//W3C//DTD SVG 1.1//EN" "http://www.w3.org/Graphics/SVG/1.1/DTD/svg11.dtd">
<svg version="1.1" xmlns="http://www.w3.org/2000/svg" xmlns:xlink="http://www.w3.org/1999/xlink" x="0px" y="0px"
	 width="67.333px" height="38.667px" viewBox="0 0 67.333 38.667" enable-background="new 0 0 67.333 38.667" xml:space="preserve">
<g id="Layer_1" display="none">
	<g display="inline">
		<path fill-rule="evenodd" clip-rule="evenodd" fill="#FFFFFF" d="M-191.236-24.007c0-41.64,0-83.279,0-124.919
			c150.48,0,300.959,0,451.44,0c0,41.64,0,83.28,0,124.919C109.723-24.007-40.756-24.007-191.236-24.007z M120.285-62.872
			c0.046,0.466,0.093,0.722,0.094,0.978c0.013,2.16,0.038,4.319,0.019,6.479c-0.021,2.437-0.556,4.775-1.777,6.882
			c-4.048,6.976-10.249,10.18-18.202,9.992c-6.734-0.158-12.144-3.107-16.309-8.352c-1.098-1.381-2.009-2.91-3.101-4.296
			c-0.946-1.202-2.271-1.698-3.771-1.295c-1.546,0.415-2.625,1.376-2.985,3.027c-0.295,1.354,0.086,2.587,0.768,3.688
			c6.526,10.537,15.599,16.41,28.398,15.434c4.143-0.316,8.115-1.264,11.725-3.352c8.508-4.923,13.319-12.071,13.249-22.172
			c-0.063-9.029,0.046-18.059-0.05-27.086c-0.028-2.647-0.259-5.341-0.814-7.923c-1.479-6.866-5.543-12.047-11.161-16.087
			c-6.617-4.758-13.915-6.488-21.864-4.436c-7.633,1.971-13.897,6.044-17.896,13.021c-3.777,6.592-4.599,13.73-3.189,21.115
			c2.44,12.782,13.266,21.953,25.622,22.442c6.674,0.264,12.753-1.359,18.054-5.542C118.1-61.147,119.107-61.942,120.285-62.872z
			 M-6.629-104.628c-0.087,0.076-0.174,0.152-0.261,0.229c-0.469-0.258-1.003-0.441-1.396-0.786
			c-7.284-6.366-15.625-8.254-24.949-5.873c-6.75,1.724-12.331,5.205-16.177,11.148c-2.722,4.207-4.098,8.878-4.625,13.83
			c-0.468,4.405-0.177,8.735,1.355,12.922c2.535,6.927,7.417,11.798,13.711,15.359c4.832,2.733,10.038,3.842,15.569,3.115
			c4.786-0.629,9.094-2.516,13.037-5.249c7.249-5.024,11.19-11.978,11.626-20.763c0.271-5.475,0.206-10.969,0.206-16.454
			c-0.001-10.945-0.062-21.889-0.097-32.834c-0.002-0.63,0.007-1.26-0.003-1.889c-0.008-0.45-0.014-0.902-0.065-1.347
			c-0.2-1.713-1.432-3.031-3.007-3.24c-2.34-0.312-3.87,0.417-4.512,2.305c-0.263,0.772-0.33,1.643-0.332,2.469
			c-0.022,8.607-0.013,17.215-0.017,25.823C-6.566-105.451-6.607-105.04-6.629-104.628z M-138.08-104.177
			c-0.083,0.041-0.165,0.082-0.248,0.123c-0.763-0.612-1.532-1.216-2.289-1.835c-6.57-5.369-14.165-7.069-22.349-5.629
			c-12.701,2.236-22.666,13.807-22.772,27.854c-0.024,3.235,0.556,6.423,1.585,9.521c4.564,13.736,17.365,21.533,31.518,18.892
			c13.195-2.462,21.929-13.716,22.526-26.898c0.115-2.545,0.076-5.098,0.074-7.646c-0.008-14.156-0.016-28.312-0.071-42.468
			c-0.003-0.828-0.297-1.717-0.674-2.467c-0.819-1.627-2.315-1.938-3.985-1.739c-1.49,0.178-2.522,0.98-2.938,2.404
			c-0.248,0.848-0.36,1.765-0.362,2.651c-0.026,8.698-0.016,17.396-0.016,26.093C-138.08-104.941-138.08-104.559-138.08-104.177z
			 M176.398-79.259c0-0.018,0-0.035,0-0.054c3.926,0,7.854,0.055,11.779-0.022c2.026-0.039,3.56-1.455,3.538-3.247
			c-0.026-2.211-0.074-4.449-0.43-6.624c-0.986-6.032-3.881-11.082-8.323-15.258c-8.644-8.125-21.541-9.852-31.936-4.278
			c-10.908,5.85-16.834,18.305-14.444,30.5c1.236,6.312,3.986,11.921,8.76,16.267c8.515,7.75,18.341,9.115,29.007,5.261
			c2.748-0.993,5.252-2.503,7.371-4.556c1.07-1.036,1.702-2.28,1.589-3.854c-0.157-2.211-2.4-4.056-4.515-3.44
			c-1.172,0.34-2.286,1.022-3.302,1.73c-4.37,3.043-9.172,4.485-14.444,3.578c-7.753-1.335-12.924-5.899-15.647-13.247
			c-0.729-1.967-0.142-2.755,1.951-2.788c0.12-0.002,0.239,0.019,0.359,0.021c2.277,0.04,4.555,0.114,6.832,0.109
			c4.348-0.009,8.694-0.071,13.042-0.096C170.523-79.271,173.46-79.259,176.398-79.259z M56.86-63.006
			c0,1.358-0.062,2.436,0.021,3.503c0.061,0.792,0.203,1.611,0.49,2.349c0.749,1.919,2.769,2.804,4.731,2.169
			c1.673-0.541,2.738-2.199,2.742-4.317c0.012-7.168,0.026-14.336,0.015-21.504c-0.006-3.834-0.062-7.664-1.179-11.39
			c-3.84-12.817-16.603-21.21-29.897-19.619c-7.545,0.903-13.717,4.357-18.348,10.353c-5.803,7.513-7.392,16.052-5.364,25.221
			c3.033,13.712,16.359,23.262,31.273,21.172c5.152-0.722,9.622-2.999,13.587-6.318C55.499-61.862,56.065-62.339,56.86-63.006z
			 M254.386-72.46c0.017,0,0.034,0,0.051,0c0-2.758-0.072-5.52,0.015-8.275c0.193-6.095-0.703-11.915-3.761-17.314
			c-5.702-10.071-16.551-15.544-27.993-13.882c-6.341,0.921-11.77,3.767-16.179,8.443c-4.52,4.793-7.061,10.532-7.588,17.067
			c-0.293,3.637-0.207,7.308-0.212,10.964c-0.006,5.156,0.023,10.313,0.131,15.468c0.022,1.039,0.302,2.146,0.748,3.087
			c0.7,1.48,2.077,2.007,3.676,1.866c1.487-0.131,2.547-0.941,3.004-2.338c0.292-0.894,0.444-1.871,0.452-2.813
			c0.07-7.885,0.087-15.771,0.129-23.655c0.033-6.107,2.303-11.211,7.016-15.121c4.906-4.07,10.496-5.808,16.827-4.34
			c9.49,2.2,15.653,10.001,15.678,19.737c0.02,7.979-0.001,15.956,0.044,23.934c0.005,0.873,0.189,1.803,0.531,2.604
			c0.683,1.598,1.992,2.3,3.749,2.207c1.635-0.086,2.698-0.947,3.249-2.408c0.268-0.712,0.408-1.513,0.415-2.274
			C254.406-63.822,254.386-68.141,254.386-72.46z M-62.217-83.279c0.016,0,0.031,0,0.046,0c0-2.608,0.079-5.221-0.034-7.824
			c-0.055-1.257-0.273-2.583-0.764-3.73c-1.18-2.76-2.636-3.181-5.273-1.784c-0.132,0.07-0.262,0.144-0.394,0.216
			c-5.483,3.021-10.975,6.025-16.442,9.074c-1.401,0.782-2.662,0.905-4.126,0.065c-2.05-1.175-4.228-1.126-6.22,0.17
			c-1.141,0.742-2.087,0.709-3.231,0.064c-4.671-2.631-9.37-5.213-14.068-7.795c-1.416-0.778-2.828-1.579-4.307-2.218
			c-1.663-0.718-2.86-0.269-3.843,1.245c-0.887,1.365-1.343,2.889-1.354,4.5c-0.033,5.157-0.078,10.316,0.032,15.472
			c0.031,1.43,0.429,2.905,0.933,4.258c0.705,1.894,2.222,2.494,4.146,1.861c0.649-0.213,1.276-0.52,1.876-0.851
			c5.457-3.005,10.914-6.011,16.351-9.051c1.243-0.694,2.347-0.748,3.61,0.02c2.094,1.272,4.295,1.23,6.388-0.031
			c1.165-0.702,2.207-0.695,3.367-0.048c3.816,2.134,7.657,4.226,11.482,6.345c2.069,1.146,4.116,2.335,6.191,3.471
			c1.577,0.864,2.869,0.71,3.888-0.473c1.021-1.184,1.713-2.551,1.734-4.143C-62.189-77.402-62.217-80.341-62.217-83.279z"/>
		<path fill-rule="evenodd" clip-rule="evenodd" d="M120.285-62.872c-1.178,0.93-2.185,1.725-3.192,2.52
			c-5.301,4.183-11.38,5.806-18.054,5.542c-12.356-0.489-23.182-9.66-25.622-22.442c-1.409-7.385-0.588-14.523,3.189-21.115
			c3.998-6.977,10.263-11.05,17.896-13.021c7.949-2.052,15.247-0.322,21.864,4.436c5.618,4.04,9.682,9.221,11.161,16.087
			c0.556,2.582,0.786,5.276,0.814,7.923c0.096,9.027-0.013,18.057,0.05,27.086c0.07,10.101-4.741,17.249-13.249,22.172
			c-3.609,2.088-7.582,3.035-11.725,3.352c-12.8,0.977-21.872-4.896-28.398-15.434c-0.682-1.102-1.063-2.334-0.768-3.688
			c0.36-1.651,1.439-2.612,2.985-3.027c1.501-0.403,2.825,0.093,3.771,1.295c1.092,1.386,2.003,2.915,3.101,4.296
			c4.165,5.244,9.574,8.193,16.309,8.352c7.953,0.188,14.154-3.017,18.202-9.992c1.222-2.106,1.756-4.445,1.777-6.882
			c0.02-2.16-0.006-4.319-0.019-6.479C120.377-62.15,120.331-62.406,120.285-62.872z M101.177-62.953
			c0.639-0.063,1.787-0.082,2.896-0.299c9.573-1.867,16.018-10.469,16.318-19.665c0.159-4.865-1.448-9.184-4.374-13.013
			c-4.978-6.516-12.635-9.239-20.123-7.222c-10.235,2.758-16.356,12.155-14.863,22.819C82.437-70.291,90.577-63.095,101.177-62.953z
			"/>
		<path fill-rule="evenodd" clip-rule="evenodd" d="M-6.629-104.628c0.022-0.412,0.063-0.823,0.063-1.235
			c0.004-8.607-0.006-17.215,0.017-25.823c0.002-0.826,0.069-1.696,0.332-2.469c0.643-1.888,2.172-2.616,4.512-2.305
			c1.575,0.209,2.807,1.527,3.007,3.24c0.052,0.445,0.058,0.897,0.065,1.347c0.01,0.629,0.001,1.259,0.003,1.889
			c0.036,10.945,0.096,21.889,0.097,32.834c0,5.485,0.066,10.979-0.206,16.454c-0.436,8.785-4.378,15.738-11.626,20.763
			c-3.943,2.733-8.251,4.62-13.037,5.249c-5.531,0.727-10.737-0.382-15.569-3.115c-6.294-3.562-11.176-8.433-13.711-15.359
			c-1.532-4.187-1.823-8.517-1.355-12.922c0.526-4.952,1.903-9.623,4.625-13.83c3.846-5.944,9.427-9.425,16.177-11.148
			c9.324-2.381,17.665-0.493,24.949,5.873c0.393,0.344,0.927,0.527,1.396,0.786C-6.803-104.476-6.716-104.552-6.629-104.628z
			 M-27.345-62.974c5.963-0.003,10.282-1.696,13.949-4.983c8.194-7.345,9.133-20.058,2.156-28.585
			c-6.765-8.268-18.426-9.81-26.785-3.334c-6.557,5.079-9.124,11.922-7.82,20.101C-44.249-69.761-35.484-62.754-27.345-62.974z"/>
		<path fill-rule="evenodd" clip-rule="evenodd" d="M-138.08-104.177c0-0.382,0-0.764,0-1.146c0-8.698-0.01-17.396,0.016-26.093
			c0.002-0.886,0.115-1.803,0.362-2.651c0.415-1.424,1.448-2.226,2.938-2.404c1.67-0.199,3.166,0.111,3.985,1.739
			c0.377,0.75,0.671,1.639,0.674,2.467c0.056,14.156,0.063,28.312,0.071,42.468c0.001,2.549,0.041,5.102-0.074,7.646
			c-0.597,13.183-9.331,24.437-22.526,26.898c-14.153,2.642-26.954-5.155-31.518-18.892c-1.029-3.098-1.61-6.285-1.585-9.521
			c0.107-14.048,10.072-25.619,22.772-27.854c8.184-1.44,15.778,0.261,22.349,5.629c0.757,0.619,1.526,1.224,2.289,1.835
			C-138.245-104.096-138.162-104.136-138.08-104.177z M-157.792-63.002c2.626,0.106,5.181-0.476,7.62-1.554
			c11.892-5.257,15.879-20.473,8.147-31.047c-6.45-8.821-18.219-10.988-26.905-4.687c-7.088,5.142-9.786,12.314-8.303,20.908
			C-175.547-69.61-166.923-62.805-157.792-63.002z"/>
		<path fill-rule="evenodd" clip-rule="evenodd" d="M176.398-79.259c-2.938,0-5.875-0.013-8.813,0.003
			c-4.348,0.024-8.694,0.087-13.042,0.096c-2.277,0.005-4.555-0.069-6.832-0.109c-0.12-0.002-0.239-0.022-0.359-0.021
			c-2.093,0.033-2.681,0.821-1.951,2.788c2.724,7.348,7.895,11.912,15.647,13.247c5.272,0.907,10.074-0.535,14.444-3.578
			c1.016-0.708,2.13-1.391,3.302-1.73c2.114-0.615,4.357,1.229,4.515,3.44c0.113,1.573-0.519,2.817-1.589,3.854
			c-2.119,2.053-4.623,3.563-7.371,4.556c-10.666,3.854-20.492,2.489-29.007-5.261c-4.773-4.346-7.523-9.955-8.76-16.267
			c-2.39-12.196,3.536-24.651,14.444-30.5c10.395-5.574,23.292-3.847,31.936,4.278c4.442,4.176,7.337,9.226,8.323,15.258
			c0.355,2.175,0.403,4.413,0.43,6.624c0.021,1.792-1.512,3.208-3.538,3.247c-3.925,0.077-7.854,0.022-11.779,0.022
			C176.398-79.294,176.398-79.276,176.398-79.259z M163.883-87.481c0-0.001,0-0.002,0-0.003c5.758,0,11.516,0.008,17.272-0.005
			c1.908-0.004,2.317-0.579,1.74-2.36c-1.214-3.749-3.353-6.887-6.388-9.378c-4.681-3.842-10.038-5.478-16.013-4.241
			c-7.608,1.575-12.611,6.266-15.264,13.516c-0.734,2.008-0.399,2.467,1.738,2.47C152.608-87.478,158.246-87.481,163.883-87.481z"/>
		<path fill-rule="evenodd" clip-rule="evenodd" d="M56.86-63.006c-0.795,0.667-1.361,1.144-1.929,1.618
			c-3.965,3.319-8.435,5.597-13.587,6.318c-14.914,2.09-28.24-7.46-31.273-21.172c-2.028-9.169-0.439-17.708,5.364-25.221
			c4.631-5.996,10.802-9.45,18.348-10.353c13.295-1.591,26.058,6.802,29.897,19.619c1.117,3.726,1.173,7.556,1.179,11.39
			c0.012,7.168-0.003,14.336-0.015,21.504c-0.004,2.118-1.069,3.776-2.742,4.317c-1.963,0.635-3.982-0.25-4.731-2.169
			c-0.287-0.737-0.43-1.557-0.49-2.349C56.798-60.57,56.86-61.647,56.86-63.006z M37.185-63.004c2.23,0.112,4.472-0.37,6.65-1.18
			c9.667-3.589,15.036-14.404,12.29-24.737c-3.492-13.134-18.58-19.001-29.797-11.588c-6.897,4.558-10.282,13.121-8.437,21.656
			C20.042-68.904,28.658-62.77,37.185-63.004z"/>
		<path fill-rule="evenodd" clip-rule="evenodd" d="M254.386-72.46c0,4.319,0.02,8.638-0.019,12.957
			c-0.007,0.762-0.147,1.563-0.415,2.274c-0.551,1.461-1.614,2.322-3.249,2.408c-1.757,0.093-3.066-0.609-3.749-2.207
			c-0.342-0.802-0.526-1.731-0.531-2.604c-0.045-7.978-0.024-15.955-0.044-23.934c-0.024-9.736-6.188-17.537-15.678-19.737
			c-6.331-1.468-11.921,0.271-16.827,4.34c-4.713,3.909-6.982,9.014-7.016,15.121c-0.042,7.885-0.059,15.771-0.129,23.655
			c-0.008,0.941-0.16,1.919-0.452,2.813c-0.457,1.396-1.517,2.207-3.004,2.338c-1.599,0.141-2.976-0.386-3.676-1.866
			c-0.446-0.941-0.726-2.048-0.748-3.087c-0.107-5.154-0.137-10.312-0.131-15.468c0.005-3.656-0.081-7.327,0.212-10.964
			c0.527-6.536,3.068-12.274,7.588-17.067c4.409-4.676,9.838-7.522,16.179-8.443c11.442-1.663,22.291,3.811,27.993,13.882
			c3.058,5.4,3.954,11.22,3.761,17.314c-0.087,2.756-0.015,5.518-0.015,8.275C254.42-72.46,254.403-72.46,254.386-72.46z"/>
		<path fill-rule="evenodd" clip-rule="evenodd" d="M-62.217-83.279c0,2.938,0.028,5.877-0.011,8.814
			c-0.021,1.592-0.714,2.959-1.734,4.143c-1.02,1.183-2.312,1.337-3.888,0.473c-2.075-1.136-4.122-2.324-6.191-3.471
			c-3.825-2.119-7.666-4.211-11.482-6.345c-1.16-0.647-2.203-0.654-3.367,0.048c-2.092,1.262-4.293,1.304-6.388,0.031
			c-1.263-0.768-2.367-0.714-3.61-0.02c-5.438,3.04-10.894,6.046-16.351,9.051c-0.6,0.331-1.228,0.638-1.876,0.851
			c-1.924,0.633-3.44,0.032-4.146-1.861c-0.504-1.353-0.902-2.828-0.933-4.258c-0.11-5.155-0.065-10.314-0.032-15.472
			c0.011-1.611,0.466-3.135,1.354-4.5c0.983-1.513,2.181-1.962,3.843-1.245c1.479,0.639,2.892,1.44,4.307,2.218
			c4.699,2.582,9.397,5.164,14.068,7.795c1.144,0.645,2.09,0.678,3.231-0.064c1.992-1.297,4.169-1.346,6.22-0.17
			c1.464,0.839,2.726,0.716,4.126-0.065c5.467-3.049,10.959-6.053,16.442-9.074c0.131-0.072,0.262-0.146,0.394-0.216
			c2.637-1.397,4.093-0.976,5.273,1.784c0.49,1.146,0.709,2.473,0.764,3.73c0.113,2.604,0.034,5.216,0.034,7.824
			C-62.186-83.279-62.201-83.279-62.217-83.279z"/>
		<path fill-rule="evenodd" clip-rule="evenodd" fill="#FFFFFF" d="M101.177-62.953c-10.601-0.142-18.74-7.338-20.146-17.38
			c-1.493-10.664,4.628-20.061,14.863-22.819c7.488-2.018,15.146,0.706,20.123,7.222c2.926,3.83,4.533,8.148,4.374,13.013
			c-0.301,9.196-6.745,17.798-16.318,19.665C102.964-63.035,101.816-63.016,101.177-62.953z"/>
		<path fill-rule="evenodd" clip-rule="evenodd" fill="#FFFFFF" d="M-27.345-62.974c-8.14,0.22-16.904-6.787-18.5-16.803
			c-1.304-8.179,1.263-15.021,7.82-20.101c8.359-6.475,20.02-4.934,26.785,3.334c6.978,8.528,6.039,21.241-2.156,28.585
			C-17.063-64.67-21.381-62.977-27.345-62.974z"/>
		<path fill-rule="evenodd" clip-rule="evenodd" fill="#FFFFFF" d="M-157.792-63.002c-9.131,0.197-17.755-6.608-19.441-16.379
			c-1.483-8.594,1.215-15.767,8.303-20.908c8.686-6.302,20.455-4.135,26.905,4.687c7.731,10.574,3.745,25.79-8.147,31.047
			C-152.611-63.478-155.166-62.896-157.792-63.002z"/>
		<path fill-rule="evenodd" clip-rule="evenodd" fill="#FFFFFF" d="M163.883-87.481c-5.638,0-11.275,0.004-16.913-0.002
			c-2.138-0.002-2.473-0.461-1.738-2.47c2.652-7.25,7.655-11.941,15.264-13.516c5.975-1.236,11.332,0.399,16.013,4.241
			c3.035,2.492,5.174,5.63,6.388,9.378c0.577,1.781,0.168,2.356-1.74,2.36c-5.757,0.013-11.515,0.005-17.272,0.005
			C163.883-87.483,163.883-87.482,163.883-87.481z"/>
		<path fill-rule="evenodd" clip-rule="evenodd" fill="#FFFFFF" d="M37.185-63.004c-8.527,0.234-17.143-5.9-19.293-15.849
			c-1.845-8.535,1.539-17.098,8.437-21.656c11.217-7.414,26.305-1.546,29.797,11.588c2.746,10.333-2.623,21.148-12.29,24.737
			C41.657-63.374,39.416-62.892,37.185-63.004z"/>
	</g>
</g>
<g id="Layer_2">
	<path fill="#FFFFFF" d="M63.319,18.721c0,2.938,0.028,5.877-0.011,8.814c-0.021,1.592-0.714,2.959-1.734,4.143
		c-1.02,1.183-2.312,1.337-3.888,0.473c-2.075-1.136-4.122-2.324-6.191-3.471c-3.825-2.119-7.666-4.211-11.482-6.345
		c-1.16-0.647-2.202-0.654-3.367,0.048c-2.092,1.262-4.293,1.304-6.387,0.031c-1.264-0.768-2.367-0.714-3.61-0.02
		c-5.438,3.04-10.894,6.046-16.351,9.051c-0.601,0.331-1.229,0.638-1.877,0.851c-1.924,0.633-3.44,0.032-4.146-1.861
		c-0.504-1.353-0.901-2.828-0.933-4.258C3.233,21.021,3.277,15.862,3.31,10.705c0.011-1.611,0.466-3.135,1.354-4.5
		C5.647,4.692,6.844,4.243,8.506,4.96c1.479,0.64,2.893,1.44,4.308,2.219c4.698,2.582,9.397,5.164,14.068,7.795
		c1.144,0.645,2.09,0.678,3.231-0.064c1.992-1.297,4.169-1.346,6.219-0.17c1.465,0.839,2.727,0.716,4.127-0.066
		c5.467-3.049,10.959-6.053,16.441-9.074c0.132-0.072,0.262-0.146,0.395-0.216c2.637-1.397,4.092-0.976,5.272,1.784
		c0.49,1.146,0.709,2.473,0.764,3.729c0.113,2.604,0.034,5.216,0.034,7.824C63.35,18.721,63.334,18.721,63.319,18.721z"/>
</g>
</svg>
