<?xml version="1.0" encoding="UTF-8" standalone="no"?>
<!-- Generator: Adobe Illustrator 16.0.0, SVG Export Plug-In . SVG Version: 6.00 Build 0)  -->

<svg
   xmlns:dc="http://purl.org/dc/elements/1.1/"
   xmlns:cc="http://creativecommons.org/ns#"
   xmlns:rdf="http://www.w3.org/1999/02/22-rdf-syntax-ns#"
   xmlns:svg="http://www.w3.org/2000/svg"
   xmlns="http://www.w3.org/2000/svg"
   xmlns:sodipodi="http://sodipodi.sourceforge.net/DTD/sodipodi-0.dtd"
   xmlns:inkscape="http://www.inkscape.org/namespaces/inkscape"
   version="1.1"
   x="0px"
   y="0px"
   width="61.466846"
   height="28.663548"
   viewBox="0 0 61.466846 28.663548"
   enable-background="new 0 0 67.333 38.667"
   xml:space="preserve"
   id="svg34"
   sodipodi:docname="fluga_ny.svg"
   inkscape:version="0.92.4 (5da689c313, 2019-01-14)"
   inkscape:export-filename="C:\Users\Fredrik\Desktop\d-dagen\ny.png"
   inkscape:export-xdpi="951.17328"
   inkscape:export-ydpi="951.17328"><metadata
   id="metadata40"><rdf:RDF><cc:Work
       rdf:about=""><dc:format>image/svg+xml</dc:format><dc:type
         rdf:resource="http://purl.org/dc/dcmitype/StillImage" /><dc:title /></cc:Work></rdf:RDF></metadata><defs
   id="defs38" /><sodipodi:namedview
   pagecolor="#ffffff"
   bordercolor="#666666"
   borderopacity="1"
   objecttolerance="10"
   gridtolerance="10"
   guidetolerance="10"
   inkscape:pageopacity="0"
   inkscape:pageshadow="2"
   inkscape:window-width="2160"
   inkscape:window-height="1350"
   id="namedview36"
   showgrid="false"
   inkscape:snap-bbox="false"
   inkscape:object-paths="false"
   showguides="true"
   inkscape:guide-bbox="true"
   inkscape:snap-object-midpoints="true"
   inkscape:snap-midpoints="true"
   inkscape:zoom="11.313708"
   inkscape:cx="20.114455"
   inkscape:cy="16.284932"
   inkscape:window-x="-11"
   inkscape:window-y="-11"
   inkscape:window-maximized="1"
   inkscape:current-layer="svg34"><sodipodi:guide
     position="-2.5472314,14.33182"
     orientation="0,1"
     id="guide4149"
     inkscape:locked="false" /><sodipodi:guide
     position="30.733422,16.175056"
     orientation="1,0"
     id="guide4151"
     inkscape:locked="false" /></sodipodi:namedview>
<g
   id="Layer_1"
   display="none"
   style="display:none"
   transform="translate(-1.9532997,-4.9198499)">
	<g
   display="inline"
   id="g28"
   style="display:inline">
		<path
   d="m -191.236,-24.007 c 0,-41.64 0,-83.279 0,-124.919 150.48,0 300.959,0 451.44,0 0,41.64 0,83.28 0,124.919 -150.481,0 -300.96,0 -451.44,0 z m 311.521,-38.865 c 0.046,0.466 0.093,0.722 0.094,0.978 0.013,2.16 0.038,4.319 0.019,6.479 -0.021,2.437 -0.556,4.775 -1.777,6.882 -4.048,6.976 -10.249,10.18 -18.202,9.992 -6.734,-0.158 -12.144,-3.107 -16.309,-8.352 -1.098,-1.381 -2.009,-2.91 -3.101,-4.296 -0.946,-1.202 -2.271,-1.698 -3.771,-1.295 -1.546,0.415 -2.625,1.376 -2.985,3.027 -0.295,1.354 0.086,2.587 0.768,3.688 6.526,10.537 15.599,16.41 28.398,15.434 4.143,-0.316 8.115,-1.264 11.725,-3.352 8.508,-4.923 13.319,-12.071 13.249,-22.172 -0.063,-9.029 0.046,-18.059 -0.05,-27.086 -0.028,-2.647 -0.259,-5.341 -0.814,-7.923 -1.479,-6.866 -5.543,-12.047 -11.161,-16.087 -6.617,-4.758 -13.915,-6.488 -21.864,-4.436 -7.633,1.971 -13.897,6.044 -17.896,13.021 -3.777,6.592 -4.599,13.73 -3.189,21.115 2.44,12.782 13.266,21.953 25.622,22.442 6.674,0.264 12.753,-1.359 18.054,-5.542 1.005,-0.792 2.012,-1.587 3.19,-2.517 z M -6.629,-104.628 c -0.087,0.076 -0.174,0.152 -0.261,0.229 -0.469,-0.258 -1.003,-0.441 -1.396,-0.786 -7.284,-6.366 -15.625,-8.254 -24.949,-5.873 -6.75,1.724 -12.331,5.205 -16.177,11.148 -2.722,4.207 -4.098,8.878 -4.625,13.83 -0.468,4.405 -0.177,8.735 1.355,12.922 2.535,6.927 7.417,11.798 13.711,15.359 4.832,2.733 10.038,3.842 15.569,3.115 4.786,-0.629 9.094,-2.516 13.037,-5.249 7.249,-5.024 11.19,-11.978 11.626,-20.763 0.271,-5.475 0.206,-10.969 0.206,-16.454 -0.001,-10.945 -0.062,-21.889 -0.097,-32.834 -0.002,-0.63 0.007,-1.26 -0.003,-1.889 -0.008,-0.45 -0.014,-0.902 -0.065,-1.347 -0.2,-1.713 -1.432,-3.031 -3.007,-3.24 -2.34,-0.312 -3.87,0.417 -4.512,2.305 -0.263,0.772 -0.33,1.643 -0.332,2.469 -0.022,8.607 -0.013,17.215 -0.017,25.823 0,0.412 -0.041,0.823 -0.063,1.235 z m -131.451,0.451 c -0.083,0.041 -0.165,0.082 -0.248,0.123 -0.763,-0.612 -1.532,-1.216 -2.289,-1.835 -6.57,-5.369 -14.165,-7.069 -22.349,-5.629 -12.701,2.236 -22.666,13.807 -22.772,27.854 -0.024,3.235 0.556,6.423 1.585,9.521 4.564,13.736 17.365,21.533 31.518,18.892 13.195,-2.462 21.929,-13.716 22.526,-26.898 0.115,-2.545 0.076,-5.098 0.074,-7.646 -0.008,-14.156 -0.016,-28.312 -0.071,-42.468 -0.003,-0.828 -0.297,-1.717 -0.674,-2.467 -0.819,-1.627 -2.315,-1.938 -3.985,-1.739 -1.49,0.178 -2.522,0.98 -2.938,2.404 -0.248,0.848 -0.36,1.765 -0.362,2.651 -0.026,8.698 -0.016,17.396 -0.016,26.093 10e-4,0.38 10e-4,0.762 10e-4,1.144 z m 314.478,24.918 c 0,-0.018 0,-0.035 0,-0.054 3.926,0 7.854,0.055 11.779,-0.022 2.026,-0.039 3.56,-1.455 3.538,-3.247 -0.026,-2.211 -0.074,-4.449 -0.43,-6.624 -0.986,-6.032 -3.881,-11.082 -8.323,-15.258 -8.644,-8.125 -21.541,-9.852 -31.936,-4.278 -10.908,5.85 -16.834,18.305 -14.444,30.5 1.236,6.312 3.986,11.921 8.76,16.267 8.515,7.75 18.341,9.115 29.007,5.261 2.748,-0.993 5.252,-2.503 7.371,-4.556 1.07,-1.036 1.702,-2.28 1.589,-3.854 -0.157,-2.211 -2.4,-4.056 -4.515,-3.44 -1.172,0.34 -2.286,1.022 -3.302,1.73 -4.37,3.043 -9.172,4.485 -14.444,3.578 -7.753,-1.335 -12.924,-5.899 -15.647,-13.247 -0.729,-1.967 -0.142,-2.755 1.951,-2.788 0.12,-0.002 0.239,0.019 0.359,0.021 2.277,0.04 4.555,0.114 6.832,0.109 4.348,-0.009 8.694,-0.071 13.042,-0.096 2.938,-0.014 5.875,-0.002 8.813,-0.002 z M 56.86,-63.006 c 0,1.358 -0.062,2.436 0.021,3.503 0.061,0.792 0.203,1.611 0.49,2.349 0.749,1.919 2.769,2.804 4.731,2.169 1.673,-0.541 2.738,-2.199 2.742,-4.317 0.012,-7.168 0.026,-14.336 0.015,-21.504 -0.006,-3.834 -0.062,-7.664 -1.179,-11.39 -3.84,-12.817 -16.603,-21.21 -29.897,-19.619 -7.545,0.903 -13.717,4.357 -18.348,10.353 -5.803,7.513 -7.392,16.052 -5.364,25.221 3.033,13.712 16.359,23.262 31.273,21.172 5.152,-0.722 9.622,-2.999 13.587,-6.318 0.568,-0.475 1.134,-0.952 1.929,-1.619 z m 197.526,-9.454 c 0.017,0 0.034,0 0.051,0 0,-2.758 -0.072,-5.52 0.015,-8.275 0.193,-6.095 -0.703,-11.915 -3.761,-17.314 -5.702,-10.071 -16.551,-15.544 -27.993,-13.882 -6.341,0.921 -11.77,3.767 -16.179,8.443 -4.52,4.793 -7.061,10.532 -7.588,17.067 -0.293,3.637 -0.207,7.308 -0.212,10.964 -0.006,5.156 0.023,10.313 0.131,15.468 0.022,1.039 0.302,2.146 0.748,3.087 0.7,1.48 2.077,2.007 3.676,1.866 1.487,-0.131 2.547,-0.941 3.004,-2.338 0.292,-0.894 0.444,-1.871 0.452,-2.813 0.07,-7.885 0.087,-15.771 0.129,-23.655 0.033,-6.107 2.303,-11.211 7.016,-15.121 4.906,-4.07 10.496,-5.808 16.827,-4.34 9.49,2.2 15.653,10.001 15.678,19.737 0.02,7.979 -0.001,15.956 0.044,23.934 0.005,0.873 0.189,1.803 0.531,2.604 0.683,1.598 1.992,2.3 3.749,2.207 1.635,-0.086 2.698,-0.947 3.249,-2.408 0.268,-0.712 0.408,-1.513 0.415,-2.274 0.038,-4.319 0.018,-8.638 0.018,-12.957 z M -62.217,-83.279 c 0.016,0 0.031,0 0.046,0 0,-2.608 0.079,-5.221 -0.034,-7.824 -0.055,-1.257 -0.273,-2.583 -0.764,-3.73 -1.18,-2.76 -2.636,-3.181 -5.273,-1.784 -0.132,0.07 -0.262,0.144 -0.394,0.216 -5.483,3.021 -10.975,6.025 -16.442,9.074 -1.401,0.782 -2.662,0.905 -4.126,0.065 -2.05,-1.175 -4.228,-1.126 -6.22,0.17 -1.141,0.742 -2.087,0.709 -3.231,0.064 -4.671,-2.631 -9.37,-5.213 -14.068,-7.795 -1.416,-0.778 -2.828,-1.579 -4.307,-2.218 -1.663,-0.718 -2.86,-0.269 -3.843,1.245 -0.887,1.365 -1.343,2.889 -1.354,4.5 -0.033,5.157 -0.078,10.316 0.032,15.472 0.031,1.43 0.429,2.905 0.933,4.258 0.705,1.894 2.222,2.494 4.146,1.861 0.649,-0.213 1.276,-0.52 1.876,-0.851 5.457,-3.005 10.914,-6.011 16.351,-9.051 1.243,-0.694 2.347,-0.748 3.61,0.02 2.094,1.272 4.295,1.23 6.388,-0.031 1.165,-0.702 2.207,-0.695 3.367,-0.048 3.816,2.134 7.657,4.226 11.482,6.345 2.069,1.146 4.116,2.335 6.191,3.471 1.577,0.864 2.869,0.71 3.888,-0.473 1.021,-1.184 1.713,-2.551 1.734,-4.143 0.04,-2.936 0.012,-5.875 0.012,-8.813 z"
   id="path2"
   inkscape:connector-curvature="0"
   style="clip-rule:evenodd;fill:#ffffff;fill-rule:evenodd" />
		<path
   d="m 120.285,-62.872 c -1.178,0.93 -2.185,1.725 -3.192,2.52 -5.301,4.183 -11.38,5.806 -18.054,5.542 -12.356,-0.489 -23.182,-9.66 -25.622,-22.442 -1.409,-7.385 -0.588,-14.523 3.189,-21.115 3.998,-6.977 10.263,-11.05 17.896,-13.021 7.949,-2.052 15.247,-0.322 21.864,4.436 5.618,4.04 9.682,9.221 11.161,16.087 0.556,2.582 0.786,5.276 0.814,7.923 0.096,9.027 -0.013,18.057 0.05,27.086 0.07,10.101 -4.741,17.249 -13.249,22.172 -3.609,2.088 -7.582,3.035 -11.725,3.352 -12.8,0.977 -21.872,-4.896 -28.398,-15.434 -0.682,-1.102 -1.063,-2.334 -0.768,-3.688 0.36,-1.651 1.439,-2.612 2.985,-3.027 1.501,-0.403 2.825,0.093 3.771,1.295 1.092,1.386 2.003,2.915 3.101,4.296 4.165,5.244 9.574,8.193 16.309,8.352 7.953,0.188 14.154,-3.017 18.202,-9.992 1.222,-2.106 1.756,-4.445 1.777,-6.882 0.02,-2.16 -0.006,-4.319 -0.019,-6.479 0,-0.259 -0.046,-0.515 -0.092,-0.981 z m -19.108,-0.081 c 0.639,-0.063 1.787,-0.082 2.896,-0.299 9.573,-1.867 16.018,-10.469 16.318,-19.665 0.159,-4.865 -1.448,-9.184 -4.374,-13.013 -4.978,-6.516 -12.635,-9.239 -20.123,-7.222 -10.235,2.758 -16.356,12.155 -14.863,22.819 1.406,10.042 9.546,17.238 20.146,17.38 z"
   id="path4"
   inkscape:connector-curvature="0"
   style="clip-rule:evenodd;fill-rule:evenodd" />
		<path
   d="m -6.629,-104.628 c 0.022,-0.412 0.063,-0.823 0.063,-1.235 0.004,-8.607 -0.006,-17.215 0.017,-25.823 0.002,-0.826 0.069,-1.696 0.332,-2.469 0.643,-1.888 2.172,-2.616 4.512,-2.305 1.575,0.209 2.807,1.527 3.007,3.24 0.052,0.445 0.058,0.897 0.065,1.347 0.01,0.629 0.001,1.259 0.003,1.889 0.036,10.945 0.096,21.889 0.097,32.834 0,5.485 0.066,10.979 -0.206,16.454 -0.436,8.785 -4.378,15.738 -11.626,20.763 -3.943,2.733 -8.251,4.62 -13.037,5.249 -5.531,0.727 -10.737,-0.382 -15.569,-3.115 -6.294,-3.562 -11.176,-8.433 -13.711,-15.359 -1.532,-4.187 -1.823,-8.517 -1.355,-12.922 0.526,-4.952 1.903,-9.623 4.625,-13.83 3.846,-5.944 9.427,-9.425 16.177,-11.148 9.324,-2.381 17.665,-0.493 24.949,5.873 0.393,0.344 0.927,0.527 1.396,0.786 0.087,-0.077 0.174,-0.153 0.261,-0.229 z m -20.716,41.654 c 5.963,-0.003 10.282,-1.696 13.949,-4.983 8.194,-7.345 9.133,-20.058 2.156,-28.585 -6.765,-8.268 -18.426,-9.81 -26.785,-3.334 -6.557,5.079 -9.124,11.922 -7.82,20.101 1.596,10.014 10.361,17.021 18.5,16.801 z"
   id="path6"
   inkscape:connector-curvature="0"
   style="clip-rule:evenodd;fill-rule:evenodd" />
		<path
   d="m -138.08,-104.177 c 0,-0.382 0,-0.764 0,-1.146 0,-8.698 -0.01,-17.396 0.016,-26.093 0.002,-0.886 0.115,-1.803 0.362,-2.651 0.415,-1.424 1.448,-2.226 2.938,-2.404 1.67,-0.199 3.166,0.111 3.985,1.739 0.377,0.75 0.671,1.639 0.674,2.467 0.056,14.156 0.063,28.312 0.071,42.468 0.001,2.549 0.041,5.102 -0.074,7.646 -0.597,13.183 -9.331,24.437 -22.526,26.898 -14.153,2.642 -26.954,-5.155 -31.518,-18.892 -1.029,-3.098 -1.61,-6.285 -1.585,-9.521 0.107,-14.048 10.072,-25.619 22.772,-27.854 8.184,-1.44 15.778,0.261 22.349,5.629 0.757,0.619 1.526,1.224 2.289,1.835 0.082,-0.04 0.165,-0.08 0.247,-0.121 z m -19.712,41.175 c 2.626,0.106 5.181,-0.476 7.62,-1.554 11.892,-5.257 15.879,-20.473 8.147,-31.047 -6.45,-8.821 -18.219,-10.988 -26.905,-4.687 -7.088,5.142 -9.786,12.314 -8.303,20.908 1.686,9.772 10.31,16.577 19.441,16.38 z"
   id="path8"
   inkscape:connector-curvature="0"
   style="clip-rule:evenodd;fill-rule:evenodd" />
		<path
   d="m 176.398,-79.259 c -2.938,0 -5.875,-0.013 -8.813,0.003 -4.348,0.024 -8.694,0.087 -13.042,0.096 -2.277,0.005 -4.555,-0.069 -6.832,-0.109 -0.12,-0.002 -0.239,-0.022 -0.359,-0.021 -2.093,0.033 -2.681,0.821 -1.951,2.788 2.724,7.348 7.895,11.912 15.647,13.247 5.272,0.907 10.074,-0.535 14.444,-3.578 1.016,-0.708 2.13,-1.391 3.302,-1.73 2.114,-0.615 4.357,1.229 4.515,3.44 0.113,1.573 -0.519,2.817 -1.589,3.854 -2.119,2.053 -4.623,3.563 -7.371,4.556 -10.666,3.854 -20.492,2.489 -29.007,-5.261 -4.773,-4.346 -7.523,-9.955 -8.76,-16.267 -2.39,-12.196 3.536,-24.651 14.444,-30.5 10.395,-5.574 23.292,-3.847 31.936,4.278 4.442,4.176 7.337,9.226 8.323,15.258 0.355,2.175 0.403,4.413 0.43,6.624 0.021,1.792 -1.512,3.208 -3.538,3.247 -3.925,0.077 -7.854,0.022 -11.779,0.022 0,0.018 0,0.036 0,0.053 z m -12.515,-8.222 c 0,-0.001 0,-0.002 0,-0.003 5.758,0 11.516,0.008 17.272,-0.005 1.908,-0.004 2.317,-0.579 1.74,-2.36 -1.214,-3.749 -3.353,-6.887 -6.388,-9.378 -4.681,-3.842 -10.038,-5.478 -16.013,-4.241 -7.608,1.575 -12.611,6.266 -15.264,13.516 -0.734,2.008 -0.399,2.467 1.738,2.47 5.64,0.004 11.278,0.001 16.915,0.001 z"
   id="path10"
   inkscape:connector-curvature="0"
   style="clip-rule:evenodd;fill-rule:evenodd" />
		<path
   d="m 56.86,-63.006 c -0.795,0.667 -1.361,1.144 -1.929,1.618 -3.965,3.319 -8.435,5.597 -13.587,6.318 -14.914,2.09 -28.24,-7.46 -31.273,-21.172 -2.028,-9.169 -0.439,-17.708 5.364,-25.221 4.631,-5.996 10.802,-9.45 18.348,-10.353 13.295,-1.591 26.058,6.802 29.897,19.619 1.117,3.726 1.173,7.556 1.179,11.39 0.012,7.168 -0.003,14.336 -0.015,21.504 -0.004,2.118 -1.069,3.776 -2.742,4.317 -1.963,0.635 -3.982,-0.25 -4.731,-2.169 -0.287,-0.737 -0.43,-1.557 -0.49,-2.349 -0.083,-1.066 -0.021,-2.143 -0.021,-3.502 z m -19.675,0.002 c 2.23,0.112 4.472,-0.37 6.65,-1.18 9.667,-3.589 15.036,-14.404 12.29,-24.737 -3.492,-13.134 -18.58,-19.001 -29.797,-11.588 -6.897,4.558 -10.282,13.121 -8.437,21.656 2.151,9.949 10.767,16.083 19.294,15.849 z"
   id="path12"
   inkscape:connector-curvature="0"
   style="clip-rule:evenodd;fill-rule:evenodd" />
		<path
   d="m 254.386,-72.46 c 0,4.319 0.02,8.638 -0.019,12.957 -0.007,0.762 -0.147,1.563 -0.415,2.274 -0.551,1.461 -1.614,2.322 -3.249,2.408 -1.757,0.093 -3.066,-0.609 -3.749,-2.207 -0.342,-0.802 -0.526,-1.731 -0.531,-2.604 -0.045,-7.978 -0.024,-15.955 -0.044,-23.934 -0.024,-9.736 -6.188,-17.537 -15.678,-19.737 -6.331,-1.468 -11.921,0.271 -16.827,4.34 -4.713,3.909 -6.982,9.014 -7.016,15.121 -0.042,7.885 -0.059,15.771 -0.129,23.655 -0.008,0.941 -0.16,1.919 -0.452,2.813 -0.457,1.396 -1.517,2.207 -3.004,2.338 -1.599,0.141 -2.976,-0.386 -3.676,-1.866 -0.446,-0.941 -0.726,-2.048 -0.748,-3.087 -0.107,-5.154 -0.137,-10.312 -0.131,-15.468 0.005,-3.656 -0.081,-7.327 0.212,-10.964 0.527,-6.536 3.068,-12.274 7.588,-17.067 4.409,-4.676 9.838,-7.522 16.179,-8.443 11.442,-1.663 22.291,3.811 27.993,13.882 3.058,5.4 3.954,11.22 3.761,17.314 -0.087,2.756 -0.015,5.518 -0.015,8.275 -0.016,0 -0.033,0 -0.05,0 z"
   id="path14"
   inkscape:connector-curvature="0"
   style="clip-rule:evenodd;fill-rule:evenodd" />
		<path
   d="m -62.217,-83.279 c 0,2.938 0.028,5.877 -0.011,8.814 -0.021,1.592 -0.714,2.959 -1.734,4.143 -1.02,1.183 -2.312,1.337 -3.888,0.473 -2.075,-1.136 -4.122,-2.324 -6.191,-3.471 -3.825,-2.119 -7.666,-4.211 -11.482,-6.345 -1.16,-0.647 -2.203,-0.654 -3.367,0.048 -2.092,1.262 -4.293,1.304 -6.388,0.031 -1.263,-0.768 -2.367,-0.714 -3.61,-0.02 -5.438,3.04 -10.894,6.046 -16.351,9.051 -0.6,0.331 -1.228,0.638 -1.876,0.851 -1.924,0.633 -3.44,0.032 -4.146,-1.861 -0.504,-1.353 -0.902,-2.828 -0.933,-4.258 -0.11,-5.155 -0.065,-10.314 -0.032,-15.472 0.011,-1.611 0.466,-3.135 1.354,-4.5 0.983,-1.513 2.181,-1.962 3.843,-1.245 1.479,0.639 2.892,1.44 4.307,2.218 4.699,2.582 9.397,5.164 14.068,7.795 1.144,0.645 2.09,0.678 3.231,-0.064 1.992,-1.297 4.169,-1.346 6.22,-0.17 1.464,0.839 2.726,0.716 4.126,-0.065 5.467,-3.049 10.959,-6.053 16.442,-9.074 0.131,-0.072 0.262,-0.146 0.394,-0.216 2.637,-1.397 4.093,-0.976 5.273,1.784 0.49,1.146 0.709,2.473 0.764,3.73 0.113,2.604 0.034,5.216 0.034,7.824 -0.016,-10e-4 -0.031,-10e-4 -0.047,-10e-4 z"
   id="path16"
   inkscape:connector-curvature="0"
   style="clip-rule:evenodd;fill-rule:evenodd" />
		<path
   d="m 101.177,-62.953 c -10.601,-0.142 -18.74,-7.338 -20.146,-17.38 -1.493,-10.664 4.628,-20.061 14.863,-22.819 7.488,-2.018 15.146,0.706 20.123,7.222 2.926,3.83 4.533,8.148 4.374,13.013 -0.301,9.196 -6.745,17.798 -16.318,19.665 -1.109,0.217 -2.257,0.236 -2.896,0.299 z"
   id="path18"
   inkscape:connector-curvature="0"
   style="clip-rule:evenodd;fill:#ffffff;fill-rule:evenodd" />
		<path
   d="m -27.345,-62.974 c -8.14,0.22 -16.904,-6.787 -18.5,-16.803 -1.304,-8.179 1.263,-15.021 7.82,-20.101 8.359,-6.475 20.02,-4.934 26.785,3.334 6.978,8.528 6.039,21.241 -2.156,28.585 -3.667,3.289 -7.985,4.982 -13.949,4.985 z"
   id="path20"
   inkscape:connector-curvature="0"
   style="clip-rule:evenodd;fill:#ffffff;fill-rule:evenodd" />
		<path
   d="m -157.792,-63.002 c -9.131,0.197 -17.755,-6.608 -19.441,-16.379 -1.483,-8.594 1.215,-15.767 8.303,-20.908 8.686,-6.302 20.455,-4.135 26.905,4.687 7.731,10.574 3.745,25.79 -8.147,31.047 -2.439,1.077 -4.994,1.659 -7.62,1.553 z"
   id="path22"
   inkscape:connector-curvature="0"
   style="clip-rule:evenodd;fill:#ffffff;fill-rule:evenodd" />
		<path
   d="m 163.883,-87.481 c -5.638,0 -11.275,0.004 -16.913,-0.002 -2.138,-0.002 -2.473,-0.461 -1.738,-2.47 2.652,-7.25 7.655,-11.941 15.264,-13.516 5.975,-1.236 11.332,0.399 16.013,4.241 3.035,2.492 5.174,5.63 6.388,9.378 0.577,1.781 0.168,2.356 -1.74,2.36 -5.757,0.013 -11.515,0.005 -17.272,0.005 -0.002,0.002 -0.002,0.003 -0.002,0.004 z"
   id="path24"
   inkscape:connector-curvature="0"
   style="clip-rule:evenodd;fill:#ffffff;fill-rule:evenodd" />
		<path
   d="m 37.185,-63.004 c -8.527,0.234 -17.143,-5.9 -19.293,-15.849 -1.845,-8.535 1.539,-17.098 8.437,-21.656 11.217,-7.414 26.305,-1.546 29.797,11.588 2.746,10.333 -2.623,21.148 -12.29,24.737 -2.179,0.81 -4.42,1.292 -6.651,1.18 z"
   id="path26"
   inkscape:connector-curvature="0"
   style="clip-rule:evenodd;fill:#ffffff;fill-rule:evenodd" />
	</g>
</g>
<g
   id="Layer_2"
   transform="translate(-3.2798434,-4.4107864)"
   style="fill:#000000">
	<g
   id="g844"><path
     sodipodi:nodetypes="sssssccssssssccss"
     inkscape:connector-curvature="0"
     id="path31"
     transform="translate(3.2798434,4.4107864)"
     d="M 5.3125,0.00585938 C 3.9286755,-0.05037336 2.7461972,0.36595692 2.0429688,1.5839844 1.5449702,2.4465431 0,4.2038198 0,14.332031 c 0,10.128212 1.5449703,11.885488 2.0429688,12.748047 2.2503311,3.897688 9.4050122,-0.403033 12.3789062,-2.191406 4.687853,-2.819075 5.168844,-3.947125 9.839844,-6.578125 4.973919,-3.266717 7.897044,-2.861189 12.943359,0 4.671,2.631 5.151991,3.75905 9.839844,6.578125 2.973894,1.788373 10.128575,6.089094 12.378906,2.191406 0.497999,-0.862559 2.042969,-2.619835 2.042969,-12.748047 0,-10.1282102 -1.544971,-11.8854879 -2.042969,-12.7480466 C 58.7206,0.36595688 57.538121,-0.05037336 56.154297,0.00585938 53.109883,0.1295714 49.089474,2.5458842 47.044922,3.7753906 c -4.687853,2.8190746 -5.168844,3.9471252 -9.839844,6.5781254 -4.973247,3.267059 -7.896968,2.861071 -12.943359,0 C 19.590719,7.7225152 19.109728,6.594465 14.421875,3.7753906 12.377323,2.5458842 8.3569139,0.1295714 5.3125,0.00585938 Z"
     style="fill:#ee2a7b;fill-opacity:1" /></g>
</g><g
   style="fill:#000000"
   transform="matrix(1,0,0,-1,-3.2798434,33.074333)"
   id="g4989"
   inkscape:label="(NULL) copy">
	
</g><g
   inkscape:label="(NULL) copy copy"
   id="g4993"
   transform="rotate(-180,32.373344,16.537167)"
   style="fill:#000000">
	
</g><g
   style="fill:#000000"
   transform="matrix(1,0,0,-1,-3.2798434,33.074333)"
   id="g4979"
   inkscape:label="(NULL) copy">
	
</g><g
   style="fill:#000000"
   transform="translate(-3.2798434,-4.4107864)"
   id="g4975"
   inkscape:label="(NULL) copy">
	
</g><g
   inkscape:label="(NULL) copy copy"
   id="g4983"
   transform="matrix(1,0,0,-1,-3.2798434,33.074333)"
   style="fill:#000000">
	
</g>
<circle
   style="fill:#ee2a7b;fill-opacity:1;stroke-width:0.84615386"
   id="path4997"
   cx="30.733421"
   cy="14.331727"
   r="7.5625" /></svg>