<?xml version="1.0" encoding="utf-8"?>
<!-- Generator: Adobe Illustrator 16.0.0, SVG Export Plug-In . SVG Version: 6.00 Build 0)  -->
<!DOCTYPE svg PUBLIC "-//W3C//DTD SVG 1.1//EN" "http://www.w3.org/Graphics/SVG/1.1/DTD/svg11.dtd">
<svg version="1.1" xmlns="http://www.w3.org/2000/svg" xmlns:xlink="http://www.w3.org/1999/xlink" x="0px" y="0px"
	 width="451.44px" height="124.919px" viewBox="0 0 451.44 124.919" enable-background="new 0 0 451.44 124.919"
	 xml:space="preserve">
<g id="Layer_1">
	<g>
		<path fill="#FFFFFF" d="M311.521,86.054c-1.178,0.93-2.185,1.725-3.192,2.52c-5.301,4.183-11.38,5.806-18.054,5.542
			c-12.356-0.489-23.182-9.66-25.622-22.442c-1.409-7.385-0.588-14.523,3.189-21.115c3.998-6.977,10.263-11.05,17.896-13.021
			c7.949-2.052,15.247-0.322,21.864,4.436c5.618,4.04,9.682,9.221,11.161,16.087c0.556,2.582,0.786,5.276,0.814,7.923
			c0.096,9.027-0.013,18.057,0.05,27.086c0.07,10.101-4.741,17.249-13.249,22.172c-3.609,2.088-7.582,3.035-11.725,3.352
			c-12.8,0.977-21.872-4.896-28.398-15.434c-0.682-1.102-1.063-2.334-0.768-3.688c0.36-1.651,1.439-2.612,2.985-3.027
			c1.501-0.403,2.825,0.093,3.771,1.295c1.092,1.386,2.003,2.915,3.101,4.296c4.165,5.244,9.574,8.193,16.309,8.352
			c7.953,0.188,14.154-3.017,18.202-9.992c1.222-2.106,1.756-4.445,1.777-6.882c0.02-2.16-0.006-4.319-0.019-6.479
			C311.614,86.776,311.567,86.52,311.521,86.054z M292.414,85.973c0.639-0.063,1.787-0.082,2.896-0.299
			c9.573-1.867,16.018-10.469,16.318-19.665c0.159-4.865-1.448-9.184-4.374-13.013c-4.978-6.516-12.635-9.239-20.123-7.222
			c-10.235,2.758-16.356,12.155-14.863,22.819C273.673,78.635,281.813,85.832,292.414,85.973z"/>
		<path fill="#FFFFFF" d="M184.607,44.298c0.022-0.412,0.063-0.823,0.063-1.235c0.004-8.607-0.006-17.215,0.017-25.823
			c0.002-0.826,0.069-1.696,0.332-2.469c0.643-1.888,2.172-2.616,4.512-2.305c1.575,0.209,2.807,1.527,3.007,3.24
			c0.052,0.445,0.058,0.897,0.065,1.347c0.01,0.629,0.001,1.259,0.003,1.889c0.036,10.945,0.096,21.889,0.097,32.834
			c0,5.485,0.066,10.979-0.206,16.454c-0.436,8.785-4.378,15.738-11.626,20.763c-3.943,2.733-8.251,4.62-13.037,5.249
			c-5.531,0.727-10.737-0.382-15.569-3.115c-6.294-3.562-11.176-8.433-13.711-15.359c-1.532-4.187-1.823-8.517-1.355-12.922
			c0.526-4.952,1.903-9.623,4.625-13.83c3.846-5.944,9.427-9.425,16.177-11.148c9.324-2.381,17.665-0.493,24.949,5.873
			c0.393,0.344,0.927,0.527,1.396,0.786C184.433,44.451,184.52,44.375,184.607,44.298z M163.892,85.953
			c5.963-0.003,10.282-1.696,13.949-4.983c8.194-7.345,9.133-20.058,2.156-28.585c-6.765-8.268-18.426-9.81-26.785-3.334
			c-6.557,5.079-9.124,11.922-7.82,20.101C146.987,79.166,155.752,86.172,163.892,85.953z"/>
		<path fill="#FFFFFF" d="M53.157,44.749c0-0.382,0-0.764,0-1.146c0-8.698-0.01-17.396,0.016-26.093
			c0.002-0.886,0.115-1.803,0.362-2.651c0.415-1.424,1.448-2.226,2.938-2.404c1.67-0.199,3.166,0.111,3.985,1.739
			c0.377,0.75,0.671,1.639,0.674,2.467c0.056,14.156,0.063,28.312,0.071,42.468c0.001,2.549,0.041,5.102-0.074,7.646
			c-0.597,13.183-9.331,24.437-22.526,26.898C24.45,96.315,11.649,88.518,7.084,74.782c-1.029-3.098-1.61-6.285-1.585-9.521
			c0.107-14.048,10.072-25.619,22.772-27.854c8.184-1.44,15.778,0.261,22.349,5.629c0.757,0.619,1.526,1.224,2.289,1.835
			C52.992,44.831,53.074,44.79,53.157,44.749z M33.444,85.924c2.626,0.106,5.181-0.476,7.62-1.554
			c11.892-5.257,15.879-20.473,8.147-31.047c-6.45-8.821-18.219-10.988-26.905-4.687c-7.088,5.142-9.786,12.314-8.303,20.908
			C15.689,79.316,24.313,86.122,33.444,85.924z"/>
		<path fill="#FFFFFF" d="M367.634,69.667c-2.938,0-5.875-0.013-8.813,0.003c-4.348,0.024-8.694,0.087-13.042,0.096
			c-2.277,0.005-4.555-0.069-6.832-0.109c-0.12-0.002-0.239-0.022-0.359-0.021c-2.093,0.033-2.681,0.821-1.951,2.788
			c2.724,7.348,7.895,11.912,15.647,13.247c5.272,0.907,10.074-0.535,14.444-3.578c1.016-0.708,2.13-1.391,3.302-1.73
			c2.114-0.615,4.357,1.229,4.515,3.44c0.113,1.573-0.519,2.817-1.589,3.854c-2.119,2.053-4.623,3.563-7.371,4.556
			c-10.666,3.854-20.492,2.489-29.007-5.261c-4.773-4.346-7.523-9.955-8.76-16.267c-2.39-12.196,3.536-24.651,14.444-30.5
			c10.395-5.574,23.292-3.847,31.936,4.278c4.442,4.176,7.337,9.226,8.323,15.258c0.355,2.175,0.403,4.413,0.43,6.624
			c0.021,1.792-1.512,3.208-3.538,3.247c-3.925,0.077-7.854,0.022-11.779,0.022C367.634,69.632,367.634,69.65,367.634,69.667z
			 M355.12,61.445c0-0.001,0-0.002,0-0.003c5.758,0,11.516,0.008,17.272-0.005c1.908-0.004,2.317-0.579,1.74-2.36
			c-1.214-3.749-3.353-6.887-6.388-9.378c-4.681-3.842-10.038-5.478-16.013-4.241c-7.608,1.575-12.611,6.266-15.264,13.516
			c-0.734,2.008-0.399,2.467,1.738,2.47C343.844,61.449,349.482,61.445,355.12,61.445z"/>
		<path fill="#FFFFFF" d="M248.096,85.92c-0.795,0.667-1.361,1.144-1.929,1.618c-3.965,3.319-8.435,5.597-13.587,6.318
			c-14.914,2.09-28.24-7.46-31.273-21.172c-2.028-9.169-0.439-17.708,5.364-25.221c4.631-5.996,10.802-9.45,18.348-10.353
			c13.295-1.591,26.058,6.802,29.897,19.619c1.117,3.726,1.173,7.556,1.179,11.39c0.012,7.168-0.003,14.336-0.015,21.504
			c-0.004,2.118-1.069,3.776-2.742,4.317c-1.963,0.635-3.982-0.25-4.731-2.169c-0.287-0.737-0.43-1.557-0.49-2.349
			C248.035,88.356,248.096,87.279,248.096,85.92z M228.421,85.922c2.23,0.112,4.472-0.37,6.65-1.18
			c9.667-3.589,15.036-14.404,12.29-24.737c-3.492-13.134-18.58-19.001-29.797-11.588c-6.897,4.558-10.282,13.121-8.437,21.656
			C211.279,80.022,219.895,86.157,228.421,85.922z"/>
		<path fill="#FFFFFF" d="M445.623,76.466c0,4.319,0.02,8.638-0.019,12.957c-0.007,0.762-0.147,1.563-0.415,2.274
			c-0.551,1.461-1.614,2.322-3.249,2.408c-1.757,0.093-3.066-0.609-3.749-2.207c-0.342-0.802-0.526-1.731-0.531-2.604
			c-0.045-7.978-0.024-15.955-0.044-23.934c-0.024-9.736-6.188-17.537-15.678-19.737c-6.331-1.468-11.921,0.271-16.827,4.34
			c-4.713,3.909-6.982,9.014-7.016,15.121c-0.042,7.885-0.059,15.771-0.129,23.655c-0.008,0.941-0.16,1.919-0.452,2.813
			c-0.457,1.396-1.517,2.207-3.004,2.338c-1.599,0.141-2.976-0.386-3.676-1.866c-0.446-0.941-0.726-2.048-0.748-3.087
			c-0.107-5.154-0.137-10.312-0.131-15.468c0.005-3.656-0.081-7.327,0.212-10.964c0.527-6.536,3.068-12.274,7.588-17.067
			c4.409-4.676,9.838-7.522,16.179-8.443c11.442-1.663,22.291,3.811,27.993,13.882c3.058,5.4,3.954,11.22,3.761,17.314
			c-0.087,2.756-0.015,5.518-0.015,8.275C445.657,76.466,445.639,76.466,445.623,76.466z"/>
		<path fill="#FFFFFF" d="M129.02,65.647c0,2.938,0.028,5.877-0.011,8.814c-0.021,1.592-0.714,2.959-1.734,4.143
			c-1.02,1.183-2.312,1.337-3.888,0.473c-2.075-1.136-4.122-2.324-6.191-3.471c-3.825-2.119-7.666-4.211-11.482-6.345
			c-1.16-0.647-2.203-0.654-3.367,0.048c-2.092,1.262-4.293,1.304-6.388,0.031c-1.263-0.768-2.367-0.714-3.61-0.02
			c-5.438,3.04-10.894,6.046-16.351,9.051c-0.6,0.331-1.228,0.638-1.876,0.851c-1.924,0.633-3.44,0.032-4.146-1.861
			c-0.504-1.353-0.902-2.828-0.933-4.258c-0.11-5.155-0.065-10.314-0.032-15.472c0.011-1.611,0.466-3.135,1.354-4.5
			c0.983-1.513,2.181-1.962,3.843-1.245c1.479,0.639,2.892,1.44,4.307,2.218c4.699,2.582,9.397,5.164,14.068,7.795
			c1.144,0.645,2.09,0.678,3.231-0.064c1.992-1.297,4.169-1.346,6.22-0.17c1.464,0.839,2.726,0.716,4.126-0.065
			c5.467-3.049,10.959-6.053,16.442-9.074c0.131-0.072,0.262-0.146,0.394-0.216c2.637-1.397,4.093-0.976,5.273,1.784
			c0.49,1.146,0.709,2.473,0.764,3.73c0.113,2.604,0.034,5.216,0.034,7.824C129.05,65.647,129.035,65.647,129.02,65.647z"/>
	</g>
	<g>
		<path fill="#FFFFFF" d="M338.637,111.762v-1.08l1.38-1.341c3.321-3.16,4.821-4.841,4.841-6.801c0-1.32-0.64-2.541-2.58-2.541
			c-1.181,0-2.16,0.601-2.761,1.101l-0.56-1.24c0.899-0.761,2.18-1.32,3.681-1.32c2.8,0,3.98,1.92,3.98,3.78
			c0,2.4-1.74,4.341-4.48,6.981l-1.041,0.961v0.04h5.842v1.46H338.637z"/>
		<path fill="#FFFFFF" d="M357.539,105.121c0,4.421-1.641,6.861-4.521,6.861c-2.541,0-4.262-2.38-4.302-6.681
			c0-4.361,1.881-6.762,4.521-6.762C355.978,98.54,357.539,100.98,357.539,105.121z M350.477,105.321
			c0,3.381,1.04,5.301,2.641,5.301c1.801,0,2.66-2.1,2.66-5.421c0-3.2-0.819-5.301-2.641-5.301
			C351.597,99.9,350.477,101.78,350.477,105.321z"/>
		<path fill="#FFFFFF" d="M362.977,100.4h-0.04l-2.26,1.22l-0.341-1.34l2.841-1.521h1.5v13.003h-1.7V100.4z"/>
		<path fill="#FFFFFF" d="M377.858,98.759v1.16l-5.661,11.843h-1.82l5.642-11.503v-0.039h-6.361v-1.461H377.858z"/>
	</g>
</g>
<g id="Layer_2" display="none">
	<path display="inline" fill="#FFFFFF" d="M254.555,167.647c0,2.938,0.028,5.877-0.011,8.814c-0.021,1.592-0.714,2.959-1.734,4.143
		c-1.02,1.183-2.312,1.337-3.888,0.473c-2.075-1.136-4.122-2.324-6.191-3.471c-3.825-2.119-7.666-4.211-11.482-6.345
		c-1.16-0.647-2.202-0.654-3.367,0.048c-2.092,1.262-4.293,1.304-6.387,0.031c-1.264-0.768-2.367-0.714-3.61-0.02
		c-5.438,3.04-10.894,6.046-16.351,9.051c-0.601,0.331-1.229,0.638-1.877,0.851c-1.924,0.633-3.44,0.032-4.146-1.861
		c-0.504-1.353-0.901-2.828-0.933-4.258c-0.109-5.155-0.065-10.314-0.032-15.472c0.011-1.611,0.466-3.135,1.354-4.5
		c0.983-1.513,2.181-1.962,3.843-1.245c1.479,0.64,2.893,1.44,4.308,2.219c4.698,2.582,9.397,5.164,14.068,7.795
		c1.144,0.645,2.09,0.678,3.231-0.064c1.992-1.297,4.169-1.346,6.219-0.17c1.465,0.839,2.727,0.716,4.127-0.066
		c5.467-3.049,10.959-6.053,16.441-9.074c0.132-0.072,0.262-0.146,0.395-0.216c2.637-1.397,4.092-0.976,5.272,1.784
		c0.49,1.146,0.709,2.473,0.764,3.729c0.113,2.604,0.034,5.216,0.034,7.824C254.586,167.647,254.571,167.647,254.555,167.647z"/>
</g>
</svg>
