<?xml version="1.0" standalone="no"?>
<!DOCTYPE svg PUBLIC "-//W3C//DTD SVG 20010904//EN"
        "http://www.w3.org/TR/2001/REC-SVG-20010904/DTD/svg10.dtd">
<svg version="1.0" xmlns="http://www.w3.org/2000/svg"
     width="902.000000pt" height="250.000000pt" viewBox="0 0 902.000000 250.000000"
     preserveAspectRatio="xMidYMid meet">

    <g transform="translate(0.000000,250.000000) scale(0.100000,-0.100000)"
       fill="#000000" stroke="none">
        <path display="inline" d="M0 1250 l0 -1250 4510 0 4510 0 0 1250 0 1250 -4510 0 -4510 0 0
-1250z m1186 992 c32 -21 34 -51 34 -584 0 -593 -1 -601 -66 -730 -121 -241
-412 -355 -672 -265 -175 61 -302 206 -353 405 -47 184 3 379 134 519 114 121
237 176 402 176 139 1 240 -34 345 -117 l45 -36 5 299 c5 276 6 301 24 320 19
21 79 29 102 13z m2644 -19 c21 -27 21 -29 18 -588 -3 -547 -4 -562 -26 -626
-45 -134 -141 -245 -272 -313 -95 -50 -160 -66 -264 -66 -112 0 -193 26 -295
94 -209 140 -295 370 -231 622 28 110 63 175 131 249 92 98 217 155 379 170
118 12 247 -28 353 -109 26 -20 52 -36 57 -36 6 0 10 104 10 286 0 335 2 344
82 344 28 0 42 -6 58 -27z m883 -480 c192 -57 346 -216 389 -404 9 -37 13
-150 13 -357 l0 -304 -28 -24 c-33 -29 -67 -31 -97 -6 -17 14 -24 33 -29 80
l-6 63 -55 -42 c-141 -106 -286 -140 -453 -104 -205 43 -375 207 -422 407 -90
383 194 739 568 712 37 -3 91 -12 120 -21z m1290 -1 c132 -48 271 -170 326
-285 50 -107 55 -150 55 -542 1 -351 0 -362 -22 -423 -40 -112 -100 -188 -205
-257 -178 -118 -447 -120 -629 -3 -62 39 -180 166 -208 222 -32 66 -12 115 53
131 25 7 33 2 70 -41 172 -198 225 -228 402 -229 105 0 114 2 177 33 75 37
143 105 179 179 18 37 24 69 27 157 5 110 5 110 -16 96 -146 -105 -215 -135
-338 -146 -264 -24 -518 159 -579 417 -19 82 -19 229 0 302 33 129 122 253
230 322 44 28 155 73 220 89 48 11 202 -1 258 -22z m1247 1 c88 -24 170 -73
240 -143 105 -105 160 -234 160 -376 0 -107 38 -98 -471 -104 -513 -6 -482 1
-434 -100 88 -184 303 -272 490 -200 16 6 56 27 89 47 69 42 111 47 138 14 64
-80 -38 -183 -230 -232 -173 -44 -326 -13 -470 96 -171 129 -257 372 -207 584
26 109 71 188 155 271 100 100 180 138 340 164 40 6 140 -4 200 -21z m1228 12
c98 -23 179 -70 258 -149 78 -78 133 -177 153 -274 7 -32 11 -174 11 -353 l0
-300 -25 -24 c-31 -32 -69 -32 -100 0 -21 21 -25 34 -26 92 -1 37 -4 181 -8
318 l-6 250 -33 67 c-38 78 -106 144 -190 185 -51 25 -67 28 -162 28 -92 0
-112 -3 -160 -26 -67 -32 -152 -107 -186 -164 -44 -76 -54 -155 -54 -443 0
-306 -4 -321 -76 -322 -42 0 -64 19 -74 65 -13 56 -12 487 1 582 45 327 358
543 677 468z m-6838 -370 c85 -46 174 -94 197 -106 40 -23 42 -23 77 -6 45 21
83 22 129 2 43 -18 40 -19 205 72 270 149 276 151 310 90 14 -27 17 -65 20
-232 3 -181 1 -203 -16 -235 -37 -67 -48 -65 -266 55 -174 95 -201 106 -229
100 -41 -9 -133 -9 -174 0 -29 6 -54 -4 -215 -93 -101 -55 -193 -103 -206
-107 -33 -10 -69 18 -81 62 -6 21 -11 120 -11 221 0 162 2 187 20 221 33 67
34 66 240 -44z m5038 -871 c16 -11 22 -25 22 -54 0 -32 -8 -47 -51 -94 l-51
-56 56 0 c43 0 56 -3 56 -15 0 -12 -16 -15 -85 -15 -107 0 -110 11 -25 95 47
46 60 66 58 85 -3 24 -6 25 -60 24 -55 -1 -58 0 -58 22 0 22 4 24 58 24 36 0
66 -6 80 -16z m221 -10 c17 -21 21 -41 21 -99 0 -95 -21 -125 -85 -125 -64 0
-85 30 -85 125 0 95 21 125 85 125 35 0 48 -5 64 -26z m181 -84 l0 -110 25 0
c16 0 25 -6 25 -15 0 -12 -14 -15 -65 -15 -51 0 -65 3 -65 15 0 9 9 15 25 15
25 0 25 1 25 90 l0 90 -30 0 c-23 0 -30 4 -30 20 0 17 7 20 45 20 l45 0 0
-110z m251 100 c21 -12 27 -78 9 -96 -8 -8 -6 -15 5 -24 20 -17 19 -79 -2
-102 -22 -24 -109 -25 -135 -1 -23 20 -24 85 -3 103 11 9 13 16 5 24 -17 17
-12 84 8 95 22 14 88 14 113 1z"/>
        <path d="M569 1597 c-110 -31 -212 -119 -262 -225 -30 -62 -32 -75 -32 -173 0
-101 1 -108 37 -181 45 -91 103 -147 196 -191 60 -28 77 -32 157 -32 117 1
183 26 265 102 213 197 165 541 -94 668 -84 42 -188 54 -267 32z"/>
        <path d="M3207 1599 c-107 -25 -227 -124 -275 -226 -24 -53 -27 -69 -27 -173
0 -110 2 -119 32 -181 150 -303 561 -304 710 -1 37 73 38 80 38 181 0 98 -2
111 -32 173 -82 173 -269 269 -446 227z"/>
        <path d="M4480 1597 c-118 -27 -226 -114 -278 -225 -24 -51 -27 -68 -27 -172
0 -110 2 -118 33 -182 41 -84 128 -167 209 -199 45 -18 78 -23 148 -24 80 0
97 4 155 31 82 40 136 87 177 155 88 147 80 330 -21 468 -86 116 -255 180
-396 148z"/>
        <path d="M5741 1594 c-160 -43 -273 -166 -301 -328 -46 -260 174 -499 434
-472 130 13 256 108 317 239 31 66 34 80 34 167 0 86 -3 101 -32 163 -58 122
-172 214 -295 237 -66 13 -91 12 -157 -6z"/>
        <path d="M7000 1594 c-71 -19 -133 -56 -186 -111 -45 -46 -92 -130 -96 -173
l-3 -25 380 0 380 0 3 22 c4 30 -42 116 -89 168 -106 114 -246 157 -389 119z"/>
        <path d="M6801 476 c-7 -8 -12 -40 -12 -71 0 -62 12 -85 46 -85 34 0 46 23 46
85 0 62 -12 85 -46 85 -12 0 -28 -6 -34 -14z"/>
        <path d="M7240 465 c0 -22 4 -25 35 -25 31 0 35 3 35 25 0 22 -4 25 -35 25
-31 0 -35 -3 -35 -25z"/>
        <path d="M7234 376 c-13 -35 0 -51 41 -51 38 0 40 2 40 30 0 27 -3 30 -38 33
-26 2 -39 -1 -43 -12z"/>
    </g>
</svg>



