<?xml version="1.0" encoding="utf-8"?>
<!-- Generator: Adobe Illustrator 22.0.1, SVG Export Plug-In . SVG Version: 6.00 Build 0)  -->
<svg version="1.1" id="Layer_2" xmlns="http://www.w3.org/2000/svg" xmlns:xlink="http://www.w3.org/1999/xlink" x="0px" y="0px"
	 width="170.2px" height="168.4px" viewBox="0 0 170.2 168.4" enable-background="new 0 0 170.2 168.4" xml:space="preserve">
<g>
	<g>
		<path fill="#0054F0" d="M141.8,84.2c0,30.8-25.4,55.8-56.7,55.8c-31.3,0-56.7-25-56.7-55.8c0-30.8,25.4-55.8,56.7-55.8
			C116.4,28.4,141.8,53.4,141.8,84.2z"/>
	</g>
	<g>
		<path fill="#FFFFFF" d="M77.8,69.1c-0.1,0.3,0.1,0.6,0.4,0.6l4.8-0.1c0,0-6.5,26-7.8,31.3c-1.6,6.6-4.3,13.3-6.2,15.7
			c-1.7,2.1-2.8,2.8-4,2.8c-1.6,0-2.4-1.2-2.9-3.1c-0.3-1.4-1.2-3.3-3.2-3.3c-2.1,0-4.9,2.3-4.9,5.2c0,3.8,6.4,4.7,8.5,4.7
			c4.2,0,9.7-2.7,13.3-6.9c4.7-5.3,7.3-11.9,9.7-21.2l5.9-25.3l6.2,0.1c0.5,0,0.7-0.4,0.8-0.6l0.8-2.3c0.1-0.3-0.1-0.6-0.4-0.6
			l-6.4,0c1.5-5.4,3.8-13.3,8.2-17.6c0.4-0.4,1.5-1.3,2.5-1.3c1.7,0,2.2,1,3,2.6c0.7,1.6,0.6,4.3,3,4.3c2.8,0,4.9-3.1,4.9-5.2
			c0-2.9-5-4.8-9.1-4.8c-4.7,0-9.3,2-12.6,5.3c-4.7,4.8-6.9,11.9-8.4,16.8l-4.8-0.1c-0.3,0-0.6,0.3-0.7,0.5L77.8,69.1z"/>
		<path fill="#FFFFFF" d="M102.7,95.5c-0.1,1.3-0.8,4.8-4.7,4.8c-2.3,0-4-1.5-3.8-4.2c0.1-2.7,2-4.9,4.7-5
			C100.7,91.2,102.9,92.4,102.7,95.5z"/>
		<path fill="#FFFFFF" d="M116.6,95.5c-0.1,1.3-0.8,4.8-4.7,4.8c-2.3,0-4-1.5-3.8-4.2c0.1-2.7,2-4.9,4.7-5
			C114.5,91.2,116.7,92.4,116.6,95.5z"/>
		<path fill="#FFFFFF" d="M130.4,95.5c-0.1,1.3-0.8,4.8-4.7,4.8c-2.3,0-4-1.5-3.8-4.2c0.1-2.7,2-4.9,4.7-5
			C128.4,91.2,130.5,92.4,130.4,95.5z"/>
		<path fill="#FFFFFF" d="M70.9,48.7C68,48.8,66,51.1,65.8,54c-0.2,2.8,1.5,4.4,4,4.4c4.2,0,5.1-3.8,5.1-5.2
			C75.1,50,72.9,48.7,70.9,48.7z"/>
		<path fill="#FFFFFF" d="M64,85.8l4.4-10.7c0.9-2.1,2-4.9,2-6.8c0-2.4-1.8-3-3.1-3c-6,0-12.4,7-14.8,9.8c-0.2,0.2-0.3,0.6,0.1,0.9
			l1.1,1.1c0.2,0.2,0.6,0.2,0.8-0.1c0,0,2.9-3.2,4-4c0.3-0.2,0.7-0.5,1-0.5c0.4,0,0.6,0.6,0.6,0.9c0,1-1,3.4-1.5,4.6L54,89.7
			c-1.6,3.9-2.4,6-2.4,7.7c0,2,1.1,3.6,3.9,3.6c6.4,0,14.4-9.6,14.4-9.6c0.3-0.4,0.2-0.7,0-0.9l-1.2-1.1c-0.2-0.2-0.6-0.3-0.9,0
			c0,0-4.3,4.8-5.8,4.8c-0.7,0-0.6-0.8-0.6-0.9c0-0.7,0.4-2,0.7-2.6L64,85.8z"/>
	</g>
</g>
</svg>
