<svg xmlns="http://www.w3.org/2000/svg" viewBox="0 0 102.5 24"><defs><style>.cls-1{fill:#2e86ab;}</style></defs><title>savelend_logo</title><g id="Layer_2" data-name="Layer 2"><g id="Layer_1-2" data-name="Layer 1"><path class="cls-1" d="M31.61,14.6a3,3,0,0,1-1.14,2.49,4.91,4.91,0,0,1-3.16.91A7.42,7.42,0,0,1,24,17.3V15a13.21,13.21,0,0,0,2,.74,6.11,6.11,0,0,0,1.5.22,2.2,2.2,0,0,0,1.25-.31,1.07,1.07,0,0,0,.43-.93,1,1,0,0,0-.19-.61,2.37,2.37,0,0,0-.56-.52c-.25-.16-.76-.42-1.52-.79a7,7,0,0,1-1.6-1,3.73,3.73,0,0,1-.86-1.08,3.12,3.12,0,0,1-.31-1.44,3,3,0,0,1,1.05-2.43A4.33,4.33,0,0,1,28.09,6a6.56,6.56,0,0,1,1.73.22,11.53,11.53,0,0,1,1.73.6l-.8,1.93a10.76,10.76,0,0,0-1.54-.54A5.06,5.06,0,0,0,28,8.06a1.59,1.59,0,0,0-1.08.33,1.08,1.08,0,0,0-.38.85,1.06,1.06,0,0,0,.16.57,1.54,1.54,0,0,0,.48.47,12.33,12.33,0,0,0,1.57.82A6.22,6.22,0,0,1,31,12.67a3,3,0,0,1,.61,1.93"/><path class="cls-1" d="M40.58,17.84l-.84-2.78H35.48l-.84,2.78H32L36.09,6.12h3l4.13,11.72ZM39.15,13c-.78-2.52-1.23-3.94-1.32-4.27s-.17-.6-.22-.79q-.26,1-1.5,5.06Z"/><path class="cls-1" d="M50.31,6.17h2.5l-4,11.67h-2.7l-4-11.67h2.5l2.19,6.94c.12.41.25.89.38,1.44s.21.92.24,1.13a21.15,21.15,0,0,1,.6-2.57Z"/><polygon class="cls-1" points="60.71 17.84 53.99 17.84 53.99 6.17 60.71 6.17 60.71 8.2 56.46 8.2 56.46 10.76 60.42 10.76 60.42 12.79 56.46 12.79 56.46 15.8 60.71 15.8 60.71 17.84"/><polygon class="cls-1" points="62.7 17.84 62.7 6.17 65.17 6.17 65.17 15.8 69.91 15.8 69.91 17.84 62.7 17.84"/><polygon class="cls-1" points="78.08 17.84 71.36 17.84 71.36 6.17 78.08 6.17 78.08 8.2 73.84 8.2 73.84 10.76 77.79 10.76 77.79 12.79 73.84 12.79 73.84 15.8 78.08 15.8 78.08 17.84"/><path class="cls-1" d="M90.43,17.84H87.28L82.2,9h-.07c.1,1.56.15,2.67.15,3.34v5.49H80.07V6.17h3.12l5.07,8.74h.06c-.08-1.52-.12-2.59-.12-3.22V6.17h2.23Z"/><path class="cls-1" d="M102.5,11.89a5.77,5.77,0,0,1-1.64,4.42,6.72,6.72,0,0,1-4.74,1.53H92.81V6.17h3.67a6.18,6.18,0,0,1,4.44,1.51,5.55,5.55,0,0,1,1.58,4.21M99.93,12q0-3.77-3.32-3.76H95.29v7.6h1.06c2.38,0,3.58-1.28,3.58-3.84"/><path class="cls-1" d="M13.17,12.11,8.8,14a6.16,6.16,0,0,1-3,.63,3,3,0,0,1-2.1-1.23Q1.23,10.13,6,6.51A14.29,14.29,0,0,1,9.2,4.65a13.55,13.55,0,0,1,3-.91l.56,1.53L15.7,1.38,11,0l.43,1.39a11.28,11.28,0,0,0-3.36.94A17.59,17.59,0,0,0,4.5,4.46,11.27,11.27,0,0,0,.26,9.82a5.88,5.88,0,0,0,1.23,5.56q2.76,3.61,8,1.36l4.6-2s1-.34.5-1.58-1.45-1.08-1.45-1.08"/><path class="cls-1" d="M7.33,11.89,11.7,10a6.16,6.16,0,0,1,3-.63,3,3,0,0,1,2.1,1.23q2.51,3.3-2.25,6.92a14.29,14.29,0,0,1-3.22,1.86,13.55,13.55,0,0,1-3,.91l-.56-1.53L4.8,22.63,9.49,24l-.43-1.39a11.28,11.28,0,0,0,3.36-.94A17.14,17.14,0,0,0,16,19.54a11.27,11.27,0,0,0,4.24-5.36A5.88,5.88,0,0,0,19,8.62Q16.25,5,11,7.26l-4.6,2s-1,.34-.5,1.58,1.45,1.08,1.45,1.08"/></g></g></svg>