<svg xmlns="http://www.w3.org/2000/svg" viewBox="0 0 880.342 221.181">
  <title>Subset_logo_liggande_Payoff_CMYK</title>
  <g>
    <g>
      <path d="M595.625,427.719V284.311s41.67.163,60.7-.2c7.316-.14,11.155.525,17.234,2.888,11.643,4.525,18.769,13.022,19.373,25.806.245,5.169.1,10.356.225,15.533.287,11.615-1.407,22.139-14.558,26.69,11.488,4.116,15.841,9.934,16.325,21.657.26,6.3.333,12.621.106,18.918-.678,18.814-9.936,29.6-28.4,31-16.409,1.243-32.94.849-49.418,1.1C610.109,427.808,603,427.719,595.625,427.719Zm28.58-25.265c11.348,0,22.254.316,33.13-.135,5.287-.22,8.581-4.251,8.879-9.656a152.162,152.162,0,0,0,.013-15.983c-.244-4.84-4.524-10.008-9.845-10.008-10.706,0-21.411-.029-32.177-.029Zm.126-59.282c10.614,0,21.034.357,31.414-.152,5.093-.25,8.25-4.563,8.547-10.029a126.558,126.558,0,0,0,.01-13.565c-.305-5.762-3.428-9.838-8.941-10.107-10.217-.5-20.475-.143-31.03-.143Z" transform="translate(-148.618 -284.093)" fill="#3a3633"/>
      <path d="M808,331.152H778.042c0-4.531.189-8.888-.046-13.222-.328-6.042-2.391-8.852-8.39-9.374a114.6,114.6,0,0,0-20.625.194c-5.3.5-7.533,3.589-7.873,8.925-.189,2.968-.095,5.958-.059,8.938.079,6.671,1.877,9.531,8.3,11.347,10.828,3.062,21.784,5.67,32.665,8.553,3.472.919,6.925,1.963,10.3,3.194,9.815,3.58,16.358,10.233,17.014,20.919.623,10.14,1.258,20.467.048,30.491-1.969,16.318-9.36,23.162-26,25.218-15.3,1.891-30.716,2.1-46-.663-14.035-2.538-21.492-10.632-22.733-24.757-.574-6.535-.717-13.107-1.075-20.054h29.8c0,3.78-.2,7.639.041,11.469.522,8.2,2.615,10.7,10.78,11.266a101.643,101.643,0,0,0,18.755-.568c5.284-.618,7.449-3.683,7.694-9.042.136-2.975.1-5.959.084-8.939-.046-9.349-1.384-11.382-10.543-13.923-12.2-3.386-24.575-6.163-36.73-9.7-8.776-2.551-17.2-6.524-19.626-16.369a82.687,82.687,0,0,1,.249-42.288c3.213-11.591,12.805-15.805,23.556-17.143,15.616-1.944,31.346-2.352,46.911.619,13.545,2.586,19.894,8.922,22.094,22.64C807.786,316.075,807.575,323.481,808,331.152Z" transform="translate(-148.618 -284.093)" fill="#3a3633"/>
      <path d="M446.779,331.152H416.821c0-4.531.189-8.888-.046-13.222-.328-6.042-2.391-8.852-8.391-9.374a114.591,114.591,0,0,0-20.624.194c-5.3.5-7.533,3.589-7.873,8.925-.19,2.968-.1,5.958-.059,8.938.079,6.671,1.877,9.531,8.3,11.347,10.829,3.062,21.785,5.67,32.665,8.553,3.472.919,6.925,1.963,10.3,3.194,9.815,3.58,16.358,10.233,17.014,20.919.622,10.14,1.258,20.467.048,30.491-1.97,16.318-9.36,23.162-26,25.218-15.305,1.891-30.717,2.1-46-.663-14.035-2.538-21.493-10.632-22.733-24.757-.574-6.535-.717-13.107-1.075-20.054h29.8c0,3.78-.2,7.639.042,11.469.522,8.2,2.615,10.7,10.779,11.266a101.654,101.654,0,0,0,18.756-.568c5.283-.618,7.448-3.683,7.693-9.042.136-2.975.1-5.959.085-8.939-.047-9.349-1.384-11.382-10.544-13.923-12.2-3.386-24.574-6.163-36.73-9.7-8.775-2.551-17.2-6.524-19.625-16.369a82.676,82.676,0,0,1,.249-42.288c3.213-11.591,12.8-15.805,23.556-17.143,15.616-1.944,31.345-2.352,46.91.619,13.546,2.586,19.9,8.922,22.094,22.64C446.565,316.075,446.354,323.481,446.779,331.152Z" transform="translate(-148.618 -284.093)" fill="#3a3633"/>
      <path d="M543.713,284.093H572.87c.081,1.574.28,66.584.169,96.488a111.9,111.9,0,0,1-1.164,17.781c-2.92,17.662-10.123,25.194-28.075,27.682a160.027,160.027,0,0,1-50.206-.551c-15.426-2.752-23.191-11.216-25.154-26.718a126.619,126.619,0,0,1-1.057-15.427c-.107-31.157.02-97.811.091-99.113h29.2c0,1.717,0,66.366.009,95.644,0,2.817-.036,5.646.191,8.449.759,9.345,4.485,13.3,13.844,13.831a169.637,169.637,0,0,0,20.218-.143c7.3-.458,11.063-4.232,11.974-11.453a99.376,99.376,0,0,0,.773-12.167C543.743,349.745,543.713,286.278,543.713,284.093Z" transform="translate(-148.618 -284.093)" fill="#3a3633"/>
      <path d="M826.5,427.754V284.093H913v24.88H856.209v35.466h49.215v25.488h-49.2v32.715h57.762v25.112Z" transform="translate(-148.618 -284.093)" fill="#3a3633"/>
      <path d="M1027.96,284.093v24.665h-35.2v119h-29.5V309.089H928.028v-25Z" transform="translate(-148.618 -284.093)" fill="#3a3633"/>
    </g>
    <rect y="0.002" width="165.576" height="143.661" fill="#3a3633"/>
    <g>
      <rect x="22.561" y="100.722" width="120.455" height="20.259" fill="#fcc646"/>
      <polygon points="143.015 42.943 143.015 22.684 22.561 22.684 22.561 85.553 143.015 85.553 143.015 65.293 42.819 65.293 42.819 42.943 143.015 42.943" fill="#fcc646"/>
    </g>
    <g>
      <path d="M173.177,466.7a12.3,12.3,0,0,0-7.409-2.1,17.722,17.722,0,0,0-3.6.366,9.586,9.586,0,0,0-3.141,1.22,6.409,6.409,0,0,0-2.194,2.287,7.073,7.073,0,0,0-.824,3.568,4.535,4.535,0,0,0,1.19,3.263,8.81,8.81,0,0,0,3.171,2.042,26.433,26.433,0,0,0,4.482,1.311q2.5.519,5.092,1.129t5.092,1.433a16.8,16.8,0,0,1,4.482,2.226,10.593,10.593,0,0,1,3.171,3.536,12.4,12.4,0,0,1-.365,11.314,12.811,12.811,0,0,1-3.995,4.024,17.336,17.336,0,0,1-5.457,2.256,26.467,26.467,0,0,1-6.008.7,25.562,25.562,0,0,1-6.922-.914,17.109,17.109,0,0,1-5.732-2.775,13.143,13.143,0,0,1-3.9-4.758,15.293,15.293,0,0,1-1.433-6.86h5.489a9.828,9.828,0,0,0,1.067,4.726,9.691,9.691,0,0,0,2.8,3.263,11.821,11.821,0,0,0,4.055,1.89,18.591,18.591,0,0,0,4.757.61,21.615,21.615,0,0,0,3.933-.366,11.6,11.6,0,0,0,3.569-1.25,6.691,6.691,0,0,0,3.536-6.311,5.468,5.468,0,0,0-1.189-3.66,8.762,8.762,0,0,0-3.171-2.287,23.2,23.2,0,0,0-4.482-1.432q-2.5-.551-5.093-1.129t-5.091-1.341a18.367,18.367,0,0,1-4.483-2.014,9.013,9.013,0,0,1-4.361-8.2,11.518,11.518,0,0,1,1.343-5.7,11.707,11.707,0,0,1,3.567-3.965,16.038,16.038,0,0,1,5.061-2.317,22.35,22.35,0,0,1,5.825-.762,23.3,23.3,0,0,1,6.22.792,14.114,14.114,0,0,1,5.031,2.5,12.064,12.064,0,0,1,3.415,4.3,15.368,15.368,0,0,1,1.373,6.19h-5.489Q176.073,468.805,173.177,466.7Z" transform="translate(-148.618 -284.093)" fill="#3a3633"/>
      <path d="M217.549,460.754,234.563,504.3h-6.4L223.4,491.185H204.985L200.107,504.3h-5.916l16.954-43.543Zm-6.22-9.7V457.4H205.84v-6.342Zm10.245,35.248L214.316,466h-.122l-7.379,20.307Zm1.219-35.248V457.4h-5.488v-6.342Z" transform="translate(-148.618 -284.093)" fill="#3a3633"/>
      <path d="M253.474,460.754v21.711l22.076-21.711h7.5L264.7,478.318,283.784,504.3h-7.319l-15.734-22.015-7.257,6.769V504.3h-5.793V460.754Z" transform="translate(-148.618 -284.093)" fill="#3a3633"/>
      <path d="M317.532,460.754q6.22,0,9.727,3.049a10.5,10.5,0,0,1,3.507,8.356,13.218,13.218,0,0,1-1.8,6.952A9.263,9.263,0,0,1,323.2,483.2v.122a7.739,7.739,0,0,1,3.08,1.219,6.707,6.707,0,0,1,1.891,2.043,9.282,9.282,0,0,1,1.036,2.653,28.192,28.192,0,0,1,.519,3.049q.122,1.587.182,3.232a27.852,27.852,0,0,0,.306,3.233,19.7,19.7,0,0,0,.7,3.018,7.446,7.446,0,0,0,1.372,2.531h-6.464a3.6,3.6,0,0,1-.823-1.83,18.533,18.533,0,0,1-.275-2.591q-.061-1.433-.122-3.08a21.357,21.357,0,0,0-.366-3.232q-.245-1.586-.61-3.018a7.1,7.1,0,0,0-1.158-2.5,5.716,5.716,0,0,0-2.074-1.707,7.675,7.675,0,0,0-3.415-.641H302.834v18.6h-5.793V460.754Zm1.219,19.759a8.37,8.37,0,0,0,3.2-1.189,6.5,6.5,0,0,0,2.194-2.378,7.973,7.973,0,0,0,.824-3.872,7.814,7.814,0,0,0-1.829-5.367q-1.83-2.073-5.916-2.074H302.834v15.186h12.075A23.263,23.263,0,0,0,318.751,480.513Z" transform="translate(-148.618 -284.093)" fill="#3a3633"/>
      <path d="M367.454,460.754,384.468,504.3h-6.4l-4.757-13.112H354.89L350.012,504.3H344.1l16.954-43.543Zm4.025,25.552L364.221,466H364.1l-7.379,20.307Z" transform="translate(-148.618 -284.093)" fill="#3a3633"/>
      <path d="M418.076,460.754q6.222,0,9.727,3.049a10.5,10.5,0,0,1,3.507,8.356,13.217,13.217,0,0,1-1.8,6.952,9.263,9.263,0,0,1-5.763,4.086v.122a7.751,7.751,0,0,1,3.08,1.219,6.691,6.691,0,0,1,1.89,2.043,9.283,9.283,0,0,1,1.037,2.653,28.194,28.194,0,0,1,.518,3.049q.121,1.587.183,3.232a27.852,27.852,0,0,0,.306,3.233,19.7,19.7,0,0,0,.7,3.018,7.427,7.427,0,0,0,1.371,2.531H426.37a3.62,3.62,0,0,1-.823-1.83,18.694,18.694,0,0,1-.274-2.591q-.062-1.433-.122-3.08a21.357,21.357,0,0,0-.366-3.232q-.245-1.586-.611-3.018a7.1,7.1,0,0,0-1.157-2.5,5.733,5.733,0,0,0-2.074-1.707,7.678,7.678,0,0,0-3.415-.641H403.379v18.6h-5.793V460.754Zm1.22,19.759a8.371,8.371,0,0,0,3.2-1.189,6.507,6.507,0,0,0,2.195-2.378,7.973,7.973,0,0,0,.824-3.872,7.81,7.81,0,0,0-1.83-5.367q-1.828-2.073-5.915-2.074H403.379v15.186h12.075A23.281,23.281,0,0,0,419.3,480.513Z" transform="translate(-148.618 -284.093)" fill="#3a3633"/>
      <path d="M478.14,460.754v4.879H453.868v13.843h22.625v4.88H453.868v15.062h24.455V504.3H448.075V460.754Z" transform="translate(-148.618 -284.093)" fill="#3a3633"/>
      <path d="M527.475,460.754V504.3h-5.793V460.754Z" transform="translate(-148.618 -284.093)" fill="#3a3633"/>
      <path d="M540.982,465.633v-4.879H575.8v4.879H561.29V504.3H555.5V465.633Z" transform="translate(-148.618 -284.093)" fill="#3a3633"/>
      <path d="M600.143,484.905v4.878H582.519v-4.878Z" transform="translate(-148.618 -284.093)" fill="#3a3633"/>
      <path d="M622.877,460.754v38.664H645.93V504.3H617.084V460.754Z" transform="translate(-148.618 -284.093)" fill="#3a3633"/>
      <path d="M656.865,473.957a21.61,21.61,0,0,1,3.933-7.287,19.206,19.206,0,0,1,6.525-5.062,22.787,22.787,0,0,1,18.173,0,19.219,19.219,0,0,1,6.526,5.062,21.627,21.627,0,0,1,3.933,7.287,28.636,28.636,0,0,1,0,17.137,21.6,21.6,0,0,1-3.933,7.288,18.871,18.871,0,0,1-6.526,5.031,23.125,23.125,0,0,1-18.173,0,18.858,18.858,0,0,1-6.525-5.031,21.586,21.586,0,0,1-3.933-7.288,28.657,28.657,0,0,1,0-17.137Zm5.335,15.064a17.658,17.658,0,0,0,2.684,5.763,13.724,13.724,0,0,0,4.695,4.116,15.779,15.779,0,0,0,13.661,0,13.719,13.719,0,0,0,4.7-4.116,17.656,17.656,0,0,0,2.683-5.763,25.125,25.125,0,0,0,0-12.99,17.647,17.647,0,0,0-2.683-5.763,13.711,13.711,0,0,0-4.7-4.117,15.779,15.779,0,0,0-13.661,0,13.717,13.717,0,0,0-4.695,4.117,17.649,17.649,0,0,0-2.684,5.763,25.154,25.154,0,0,0,0,12.99Zm11.222-37.963V457.4h-5.489v-6.342Zm11.465,0V457.4H679.4v-6.342Z" transform="translate(-148.618 -284.093)" fill="#3a3633"/>
      <path d="M734.491,466.7a12.3,12.3,0,0,0-7.41-2.1,17.7,17.7,0,0,0-3.6.366,9.577,9.577,0,0,0-3.141,1.22,6.411,6.411,0,0,0-2.195,2.287,7.073,7.073,0,0,0-.824,3.568,4.535,4.535,0,0,0,1.19,3.263,8.81,8.81,0,0,0,3.171,2.042,26.433,26.433,0,0,0,4.482,1.311q2.5.519,5.092,1.129t5.092,1.433a16.8,16.8,0,0,1,4.483,2.226A10.6,10.6,0,0,1,744,486.977a12.4,12.4,0,0,1-.365,11.314,12.815,12.815,0,0,1-4,4.024,17.336,17.336,0,0,1-5.457,2.256,26.458,26.458,0,0,1-6.007.7,25.562,25.562,0,0,1-6.922-.914,17.1,17.1,0,0,1-5.732-2.775,13.146,13.146,0,0,1-3.9-4.758,15.307,15.307,0,0,1-1.433-6.86h5.489a9.828,9.828,0,0,0,1.067,4.726,9.7,9.7,0,0,0,2.8,3.263,11.817,11.817,0,0,0,4.056,1.89,18.583,18.583,0,0,0,4.756.61,21.618,21.618,0,0,0,3.934-.366,11.592,11.592,0,0,0,3.568-1.25,6.691,6.691,0,0,0,3.536-6.311,5.468,5.468,0,0,0-1.189-3.66,8.762,8.762,0,0,0-3.171-2.287,23.177,23.177,0,0,0-4.482-1.432q-2.5-.551-5.092-1.129t-5.092-1.341a18.36,18.36,0,0,1-4.482-2.014,9.616,9.616,0,0,1-3.172-3.231,9.519,9.519,0,0,1-1.189-4.971,11.528,11.528,0,0,1,1.342-5.7,11.707,11.707,0,0,1,3.567-3.965,16.043,16.043,0,0,1,5.062-2.317,22.348,22.348,0,0,1,5.824-.762,23.292,23.292,0,0,1,6.22.792,14.114,14.114,0,0,1,5.031,2.5,12.067,12.067,0,0,1,3.416,4.3,15.385,15.385,0,0,1,1.372,6.19h-5.489Q737.386,468.805,734.491,466.7Z" transform="translate(-148.618 -284.093)" fill="#3a3633"/>
      <path d="M766.916,460.754l22.929,35.311h.123V460.754h5.488V504.3h-6.343l-22.747-34.944h-.122V504.3h-5.488V460.754Z" transform="translate(-148.618 -284.093)" fill="#3a3633"/>
      <path d="M819.215,460.754V504.3h-5.794V460.754Z" transform="translate(-148.618 -284.093)" fill="#3a3633"/>
      <path d="M843.37,460.754l22.93,35.311h.122V460.754h5.488V504.3h-6.343L842.82,469.353H842.7V504.3H837.21V460.754Z" transform="translate(-148.618 -284.093)" fill="#3a3633"/>
      <path d="M915.97,503.779a20.619,20.619,0,0,1-7.623,1.494,20.337,20.337,0,0,1-8.721-1.8,19.7,19.7,0,0,1-6.525-4.848,21.208,21.208,0,0,1-4.086-7.013,24.483,24.483,0,0,1-1.4-8.233,30.853,30.853,0,0,1,1.312-9.057,22.264,22.264,0,0,1,3.9-7.531,18.941,18.941,0,0,1,6.464-5.153,20.136,20.136,0,0,1,9.056-1.921,26.254,26.254,0,0,1,6.678.823,16.892,16.892,0,0,1,5.61,2.592,15.408,15.408,0,0,1,4.148,4.482,17.62,17.62,0,0,1,2.286,6.556h-5.793a11.415,11.415,0,0,0-1.586-4.3,10.223,10.223,0,0,0-2.866-2.957,12.716,12.716,0,0,0-3.872-1.738,17.767,17.767,0,0,0-4.605-.58,13.246,13.246,0,0,0-11.434,5.763,18.2,18.2,0,0,0-2.653,5.916,27.183,27.183,0,0,0-.854,6.8,21.985,21.985,0,0,0,.975,6.556,17.1,17.1,0,0,0,2.867,5.549,14.027,14.027,0,0,0,4.665,3.842,13.824,13.824,0,0,0,6.434,1.433,15.551,15.551,0,0,0,6.038-1.1,12.438,12.438,0,0,0,7.135-7.532,14.806,14.806,0,0,0,.793-5.58h-13.9v-4.879H927.5V504.3h-3.658l-1.525-5.427A14.482,14.482,0,0,1,915.97,503.779Z" transform="translate(-148.618 -284.093)" fill="#3a3633"/>
      <path d="M963.579,460.754,980.594,504.3h-6.4l-4.758-13.112H951.016L946.138,504.3h-5.916l16.954-43.543Zm4.026,25.552L960.347,466h-.122l-7.379,20.307Z" transform="translate(-148.618 -284.093)" fill="#3a3633"/>
      <path d="M1014.2,460.754q6.222,0,9.727,3.049a10.5,10.5,0,0,1,3.507,8.356,13.217,13.217,0,0,1-1.8,6.952,9.265,9.265,0,0,1-5.763,4.086v.122a7.751,7.751,0,0,1,3.08,1.219,6.7,6.7,0,0,1,1.89,2.043,9.283,9.283,0,0,1,1.037,2.653,28.442,28.442,0,0,1,.518,3.049q.122,1.587.183,3.232a27.852,27.852,0,0,0,.3,3.233,19.824,19.824,0,0,0,.7,3.018,7.446,7.446,0,0,0,1.372,2.531H1022.5a3.612,3.612,0,0,1-.823-1.83,18.542,18.542,0,0,1-.274-2.591q-.062-1.433-.123-3.08a21.357,21.357,0,0,0-.366-3.232q-.245-1.586-.61-3.018a7.1,7.1,0,0,0-1.158-2.5,5.721,5.721,0,0,0-2.073-1.707,7.682,7.682,0,0,0-3.416-.641H999.505v18.6h-5.794V460.754Zm1.22,19.759a8.371,8.371,0,0,0,3.2-1.189,6.507,6.507,0,0,0,2.195-2.378,7.985,7.985,0,0,0,.824-3.872,7.815,7.815,0,0,0-1.83-5.367q-1.828-2.073-5.915-2.074H999.505v15.186h12.075A23.281,23.281,0,0,0,1015.422,480.513Z" transform="translate(-148.618 -284.093)" fill="#3a3633"/>
    </g>
  </g>
</svg>
