<svg xmlns="http://www.w3.org/2000/svg" viewBox="0 0 891.82 213.2"><script xmlns=""/>
  <title>Astando</title>
  <g id="Layer_2" data-name="Layer 2">
    <g id="Layer_2-2" data-name="Layer 2">
      <path d="M91.65,142.89H79.47L13.34,61.17v81.72H0V36.73H11.32l67,82.19V36.73H91.65Z" fill="#231f20"/>
      <path d="M142,84.05c12.9,0,22.18,9.81,22.18,23.35,0,15.1-8.55,24.44-22.18,24.44-12.47,0-21-9.81-21-24.6C120.94,93.86,129.79,84.05,142,84.05Zm.15-12.45c-19.44,0-34.38,15.56-34.38,35.64,0,21.48,14.36,37.05,34.38,37.05,20.87,0,35.23-14.94,35.23-37C177.35,86.54,162.56,71.6,142.12,71.6Z" fill="#231f20"/>
      <path d="M205.48,73V89h.29c6.53-12.3,12.76-17.43,18.85-17.43,5.22,0,10.16,2.64,15.52,8.09l-6.82,12c-3.91-4-9-6.84-12-6.84-8.85,0-15.81,9.49-15.81,21.48v36.58H192.57V73Z" fill="#231f20"/>
      <path d="M293.37,91.21c-7.39-5.29-12.33-6.85-18-6.85-11.75,0-19.87,9.5-19.87,23.66,0,14.48,8.7,23.2,22,23.2,5.51,0,10.73-1.56,17.25-4.67v13.69c-4.35,2.18-12.62,4-19.43,4-19.43,0-33.06-14.48-33.06-35,0-23,12.47-37.67,32.19-37.67,7.54,0,12.62,1.87,18.85,4.82Z" fill="#231f20"/>
      <path d="M339.34,84.05c12.91,0,22.19,9.81,22.19,23.35,0,15.1-8.56,24.44-22.19,24.44-12.47,0-21-9.81-21-24.6C318.31,93.86,327.16,84.05,339.34,84.05Zm.14-12.45c-19.43,0-34.36,15.56-34.36,35.64,0,21.48,14.35,37.05,34.36,37.05,20.89,0,35.24-14.94,35.24-37C374.72,86.54,359.93,71.6,339.48,71.6Z" fill="#231f20"/>
      <path d="M401.7,82.18H402c4.93-6.69,12.18-10.58,19.43-10.58,12.33,0,22.19,9,22.19,28.18v43.11H430.69V99.62c0-10.28-4.92-17-12.75-17-5.66,0-10.15,2.8-16.24,10.12v50.12H388.79V73H401.7Z" fill="#231f20"/>
      <path d="M499.44,91.05c-7.25-5.13-14.08-7.31-18.86-7.31-5.22,0-8.55,2.64-8.55,6.38,0,3.11,4.35,6.85,15.8,14,10.74,7.63,14.65,12.45,14.65,19.62,0,12.29-9.13,20.54-21.46,20.54-8,0-14.22-1.71-22.63-6.38V123c8.41,6.22,16.11,9.18,21.32,9.18,5.22-.31,9.57-3,9.57-7.94,0-9.65-30.45-14.79-30.45-33.62,0-11.83,8.41-19,21.46-19,6.09,0,12.33,1.87,19.15,5.76Z" fill="#231f20"/>
      <path d="M558.74,142.89V134c-5.36,6.22-12.9,10.27-19.28,10.27-13.2,0-22.48-10.11-22.48-27.86V73h12.91v44.36c0,9.81,4.49,15.41,13.34,15.41,5.8,0,11.31-3.42,15.51-9.8V73h12.91v69.89Z" fill="#231f20"/>
      <path d="M603.12,142.89H590.21V36.73h12.91Z" fill="#231f20"/>
      <path d="M636.76,73h20.59V85.45H636.76v35.8c0,8.26,5.5,10.59,9.28,10.59,4.65,0,9.43-1.71,14.65-5.14v12.92c-4.5,2.65-11.46,4.67-15.67,4.67-14.06,0-21.17-9.34-21.17-21.94V85.45h-11.3V83.89l24.21-25.37Z" fill="#231f20"/>
      <path d="M794.24,0,750.51,43.75l43.73,43.73L838,43.75ZM696.61,97.64l43.74,43.73,43.73-43.73L740.35,53.9ZM848.09,53.86,804.35,97.6l43.74,43.74L891.82,97.6Z" fill="#231f20"/>
      <path d="M828.21,151.46a34,34,0,1,1-34-34A34,34,0,0,1,828.21,151.46Z" fill="#231f20"/>
      <path d="M418.11,194.1H395.78L389,212.3h-3.46l19.71-52.63h3.45l19.71,52.63H425Zm-11.2-30.68s-1.13,4.07-2,6.32l-8,21.36H417l-8-21.36c-.83-2.25-2-6.32-2-6.32Z" fill="#231f20"/>
      <path d="M435.19,205.38a16.36,16.36,0,0,0,11.65,4.74c4.59,0,8.65-2.41,8.65-7.07,0-9.55-20.68-6.84-20.68-19.1,0-6.69,5.64-10.15,12-10.15,7.67,0,11.13,4.06,11.13,4.06l-1.88,2.56s-3.08-3.54-9.47-3.54c-4.29,0-8.5,2-8.5,6.85,0,9.77,20.68,6.84,20.68,19.32,0,6-5.12,10.15-12,10.15-9.1,0-13.61-5.41-13.61-5.41Z" fill="#231f20"/>
      <path d="M470.38,177.79h-5v-2.86h5V164.25h3.16v10.68h9.85v2.86h-9.85v20.68c0,9.92,5.94,11.2,8.95,11.2a8.67,8.67,0,0,0,1.72-.15v2.93a10.52,10.52,0,0,1-1.87.15c-3.92,0-12-1.43-12-13.91Z" fill="#231f20"/>
      <path d="M513,189.37h2.49v-1.28c0-8.35-4.29-11.21-10.31-11.21a17.67,17.67,0,0,0-10.75,3.61l-1.8-2.55s4.51-4.14,12.7-4.14c8.65,0,13.32,4.81,13.32,14.21V212.3H515.5v-5a17.16,17.16,0,0,1,.3-3.38h-.15c.07,0-3.39,9.24-13.16,9.24-6.09,0-12.79-3.38-12.79-10.9C489.7,189.52,506.32,189.37,513,189.37Zm-10.37,20.9c8.2,0,12.86-8.5,12.86-15.94v-2h-2.41c-6.39,0-20.08,0-20.08,9.78C493,206.06,496.25,210.27,502.64,210.27Z" fill="#231f20"/>
      <path d="M531.36,174.7h3.16v6.62a15.76,15.76,0,0,1-.3,3.08h.15a17.33,17.33,0,0,1,15.94-10.6c9.78,0,12.41,5.79,12.41,14.66V212.3h-3.16V189.59c0-6.54-.82-12.71-9.25-12.71a16,16,0,0,0-15.19,12,18.75,18.75,0,0,0-.6,5.11V212.3h-3.16Z" fill="#231f20"/>
      <path d="M589.79,173.8c9.48,0,13,8.5,13,8.5H603a15.76,15.76,0,0,1-.3-3.08V159.67h3.16V212.3h-3.16v-4.74a12.1,12.1,0,0,1,.3-2.85h-.15a14.38,14.38,0,0,1-13.61,8.49c-10.07,0-16.24-8-16.24-19.7C573,181.55,579.94,173.8,589.79,173.8Zm-.45,36.32c6.92,0,13.39-4.89,13.39-16.69,0-8.35-4.29-16.55-13.09-16.55-7.37,0-13.38,6.1-13.38,16.62C576.26,203.65,581.67,210.12,589.34,210.12Z" fill="#231f20"/>
      <path d="M635.74,173.8a19.35,19.35,0,0,1,19.48,19.48,19.48,19.48,0,1,1-39,0A19.35,19.35,0,0,1,635.74,173.8Zm0,36.32c9,0,16.17-7.29,16.17-16.84a16.17,16.17,0,1,0-32.34,0C619.57,202.83,626.79,210.12,635.74,210.12Z" fill="#231f20"/>
    </g>
  </g>
</svg>