<?xml version="1.0" encoding="UTF-8" standalone="no"?>
<!-- Created with Inkscape (http://www.inkscape.org/) -->

<svg
   version="1.1"
   id="svg2"
   xml:space="preserve"
   width="533.33331"
   height="350.71332"
   viewBox="0 0 533.33331 350.71332"
   sodipodi:docname="Atlas_Copco_Logo_Blue_on_White_CMYK.ai"
   xmlns:inkscape="http://www.inkscape.org/namespaces/inkscape"
   xmlns:sodipodi="http://sodipodi.sourceforge.net/DTD/sodipodi-0.dtd"
   xmlns="http://www.w3.org/2000/svg"
   xmlns:svg="http://www.w3.org/2000/svg"><defs
     id="defs6"><clipPath
       clipPathUnits="userSpaceOnUse"
       id="clipPath26"><path
         d="M 0,263.035 H 400 V 0 H 0 Z"
         id="path24" /></clipPath></defs><sodipodi:namedview
     id="namedview4"
     pagecolor="#ffffff"
     bordercolor="#666666"
     borderopacity="1.0"
     inkscape:pageshadow="2"
     inkscape:pageopacity="0.0"
     inkscape:pagecheckerboard="0" /><g
     id="g8"
     inkscape:groupmode="layer"
     inkscape:label="Atlas_Copco_Logo_Blue_on_White_CMYK"
     transform="matrix(1.3333333,0,0,-1.3333333,0,350.71333)"><path
       d="M 0,0 H 400 V 263.035 H 0 Z"
       style="fill:#ffffff;fill-opacity:1;fill-rule:nonzero;stroke:none"
       id="path10" /><g
       id="g12"
       transform="translate(70.0233,166.1361)"><path
         d="m 0,0 v 27.658 0.313 h 0.312 259.107 0.312 V 27.658 0 -0.312 H 259.419 0.312 0 Z"
         style="fill:#00a3c9;fill-opacity:1;fill-rule:nonzero;stroke:none"
         id="path14" /></g><g
       id="g16"
       transform="translate(70.0292,69.2406)"><path
         d="m 0,0 v 27.544 0.312 h 0.312 259.108 0.312 V 27.544 0 -0.312 H 259.42 0.312 0 Z"
         style="fill:#00a3c9;fill-opacity:1;fill-rule:nonzero;stroke:none"
         id="path18" /></g><g
       id="g20"><g
         id="g22"
         clip-path="url(#clipPath26)"><g
           id="g28"
           transform="translate(329.2538,138.0506)"><path
             d="m 0,0 c -1.465,1.949 -3.692,3.021 -6.27,3.021 -4.825,0 -8.863,-2.772 -13.509,-9.267 -3.951,-5.527 -8.87,-12.408 -12.472,-12.408 -0.867,0 -1.509,0.286 -1.966,0.871 -1.111,1.424 -1.101,4.573 0.03,9.102 1.278,5.13 3.737,8.715 5.974,8.715 1.616,0 2.208,-0.908 2.423,-1.465 -0.665,0.047 -1.395,-0.161 -1.979,-0.591 -0.769,-0.568 -1.193,-1.452 -1.193,-2.493 0,-0.928 0.323,-1.764 0.911,-2.352 0.571,-0.571 1.34,-0.871 2.224,-0.871 2.248,0 3.816,1.872 3.816,4.553 0,1.704 -0.635,3.32 -1.747,4.432 -1.222,1.223 -2.949,1.841 -5.137,1.841 -5.355,0 -10.072,-4.583 -12.404,-7.318 -2.624,-3.071 -5.621,-6.132 -7.096,-7.606 1.428,4.747 1.116,9.185 -0.897,12.051 -1.283,1.828 -3.188,2.832 -5.362,2.832 -3.31,0 -5.51,-1.488 -6.632,-2.506 l 0.551,2.06 h -11.289 l -0.675,-2.762 h 3.147 c -1.465,-4.788 -5.469,-9.199 -7.381,-11.101 0.239,0.76 0.484,1.828 0.598,3.225 0.289,3.555 -0.632,6.767 -2.523,8.82 -1.368,1.482 -3.131,2.264 -5.104,2.264 -5.643,0 -10.546,-3.423 -14.564,-10.176 l -1.216,-2.093 c -2.601,-4.546 -5.295,-9.243 -9.659,-9.243 -1.201,0 -2.168,0.473 -2.873,1.404 -1.801,2.376 -1.895,7.728 -0.239,13.634 2.086,7.449 6.558,14.988 11.071,14.988 0.758,0 1.387,-0.292 1.921,-0.894 1.731,-1.955 1.822,-6.645 1.596,-8.486 l -0.044,-0.35 h 3.289 l 3.445,12.502 h -3.142 l -0.094,-0.127 -1.283,-1.761 c -0.732,0.873 -3.024,3.01 -7.936,3.01 -5.604,0 -15.445,-6.011 -18.771,-18.915 -1.609,-6.249 -0.907,-11.747 1.979,-15.472 2.062,-2.661 5.1,-4.183 8.338,-4.183 5.48,0 10.373,4.169 12.449,7.448 0.322,-2.244 1.763,-7.452 8.177,-7.452 5.755,0 12.482,4.362 19.511,12.619 l -5.436,-21.297 h 8.133 l 2.678,10.976 c 0.669,-0.866 2.238,-2.298 5.306,-2.298 4.347,0 11.56,4.983 17.813,12.227 -0.86,-3.615 -0.37,-6.871 1.411,-9.233 1.431,-1.898 3.551,-2.984 5.823,-2.984 7.546,0 12.824,6.311 14.608,8.79 -0.037,-2.302 0.709,-4.469 2.123,-6.082 1.532,-1.747 3.743,-2.708 6.233,-2.708 6.612,0 12.387,4.61 14.367,11.474 C 2.429,-6.864 2.056,-2.731 0,0 m -82.789,-10.64 c -1.099,-4.267 -3.574,-9.25 -6.944,-9.25 -0.77,0 -1.334,0.252 -1.721,0.766 -1.065,1.408 -0.84,4.801 0.666,10.086 1.696,5.951 3.723,8.843 6.191,8.843 0.625,0 1.129,-0.252 1.533,-0.772 1.219,-1.573 1.334,-5.551 0.275,-9.673 m 26.381,-0.142 c -1.303,-5.547 -3.518,-8.728 -6.084,-8.728 -2.006,0 -2.917,1.888 -3.091,2.304 0.185,0.8 1.495,6.438 2.153,9.039 1.025,4.055 3.373,7.116 5.463,7.116 0.635,0 1.146,-0.242 1.529,-0.723 0.752,-0.951 1.371,-3.286 0.03,-9.008 m 51.926,0.142 c -1.095,-4.267 -3.572,-9.25 -6.942,-9.25 -0.769,0 -1.334,0.252 -1.72,0.766 -1.065,1.405 -0.839,4.801 0.665,10.086 1.697,5.951 3.723,8.843 6.193,8.843 0.625,0 1.129,-0.252 1.532,-0.772 1.219,-1.573 1.333,-5.551 0.272,-9.673"
             style="fill:#00a3c9;fill-opacity:1;fill-rule:nonzero;stroke:none"
             id="path30" /></g><g
           id="g32"
           transform="translate(194.2089,132.5711)"><path
             d="m 0,0 c 0.561,-0.561 1.307,-0.857 2.164,-0.857 1.542,0 3.191,0.971 3.191,3.692 0,1.351 -0.507,2.571 -1.461,3.528 -1.398,1.398 -3.659,2.164 -6.373,2.164 -5.437,0 -9.2,-2.217 -10.601,-6.246 -1.038,-2.99 0.558,-6.182 4.499,-8.99 l 0.534,-0.38 c 2.288,-1.619 3.672,-2.594 3.323,-4.67 -0.279,-1.65 -2.063,-2.832 -4.243,-2.813 -3.337,0.028 -3.887,1.761 -3.978,2.356 0.591,0.265 2.09,1.125 2.09,2.993 0,0.888 -0.273,1.609 -0.811,2.15 -0.826,0.823 -1.975,0.914 -2.432,0.914 -1.075,0 -2.916,-0.383 -3.215,-2.926 -0.044,-0.363 -0.003,-0.769 0.02,-0.971 -0.249,-0.362 -1.3,-1.75 -3.017,-2.295 -0.39,-0.124 -0.968,-0.077 -1.371,0.316 -0.544,0.524 -0.642,1.533 -0.276,2.835 0.37,1.322 4.328,17.334 4.328,17.334 h -8.037 L -26.28,5.943 c -0.618,1.001 -2.154,2.584 -5.678,2.584 -5.403,0 -9.966,-5.288 -12.23,-9.818 -1.902,-3.802 -5.443,-10.885 -8.191,-10.885 -0.292,0 -0.515,0.1 -0.672,0.309 -0.296,0.386 -0.659,1.522 0.221,4.811 0.723,2.698 6.472,26.294 6.472,26.294 h -13.719 l -0.739,-3.232 h 5.154 L -59.216,1.774 c -2.621,-10.295 -7.197,-13.95 -10.322,-13.95 -0.655,0 -1.115,0.181 -1.411,0.554 -0.84,1.045 -0.282,3.528 0.124,5.339 0.568,2.533 2.376,9.824 2.712,11.181 h 5.685 l 0.826,3.29 h -5.648 l 1.959,7.999 -3.087,0.004 -0.095,-0.141 C -72.528,9.955 -74.349,7.986 -80.417,7.986 h -0.245 l -0.756,-3.084 h 4.858 c -0.211,-1.011 -0.776,-3.723 -0.773,-3.71 -2.681,-10.109 -7.808,-14.309 -9.958,-14.309 -1.058,0 -1.646,0.178 -1.965,0.595 -0.531,0.689 -0.461,2.207 0.215,4.771 1.226,4.64 6.423,23.206 7.048,25.443 h 5.178 l 0.947,3.115 -11.033,0.024 c -3.972,0 -8.641,-0.333 -13.211,-2.819 -5.718,-3.115 -9.851,-8.944 -12.29,-17.337 -0.017,-0.06 -1.522,-6.008 -2.869,-10.432 -1.418,-4.666 -5.164,-5.17 -6.71,-5.17 -0.961,0 -1.989,0.467 -2.815,1.279 l -0.535,0.524 v -4.199 l 0.243,-0.057 c 1.434,-0.343 3.144,-0.514 5.079,-0.514 5.309,0 10.023,3.837 12.445,7.122 1.976,2.678 2.627,5.064 3.612,8.679 l 0.222,0.8 h 7.979 c -0.339,-1.143 -1.34,-4.546 -2.217,-7.772 -0.753,-2.765 -0.558,-4.915 0.574,-6.393 1.116,-1.459 3.115,-2.198 5.947,-2.198 2.869,0 8.05,0.702 11.571,5.204 0.087,-1.098 0.423,-2.526 1.482,-3.618 1.004,-1.042 2.466,-1.569 4.341,-1.569 4.361,0 9.289,2.855 11.682,5.768 0.057,-1.108 0.342,-2.932 1.545,-4.243 0.924,-1.011 2.221,-1.525 3.847,-1.525 4.865,0 9.324,3.894 11.35,7.058 0.349,-2.106 1.79,-7.058 7.647,-7.058 3.749,0 6.521,2.369 8.043,4.086 0.319,-1.308 1.397,-4.086 4.797,-4.086 3.585,0 7.177,2.405 8.827,4.284 1.525,-2.957 3.249,-4.284 9.095,-4.284 5.543,0 10.126,3.78 10.929,7.31 0.87,3.821 -1.236,5.373 -4.724,7.944 l -0.423,0.308 -0.719,0.525 c -1.724,1.24 -3.212,2.311 -3.212,4.149 0,1.999 1.619,2.893 3.225,2.893 1.328,0 2.06,-0.524 2.373,-0.827 C -0.171,4.287 -0.88,3.444 -0.88,2.221 -0.88,1.357 -0.568,0.568 0,0 m -94.833,2.066 h -8.078 c 3.139,10.641 6.871,15.341 12.378,15.566 z m 65.992,-5.819 c -1.589,-6.095 -3.477,-8.816 -6.121,-8.816 -0.592,0 -1.055,0.236 -1.421,0.712 -1.153,1.512 -1.109,5.222 0.114,9.677 1.713,6.245 3.887,7.085 5.782,7.085 0.581,0 1.072,-0.252 1.458,-0.756 1.069,-1.38 1.136,-4.26 0.188,-7.902"
             style="fill:#00a3c9;fill-opacity:1;fill-rule:nonzero;stroke:none"
             id="path34" /></g></g></g></g></svg>
