<?xml version="1.0" encoding="UTF-8"?><svg id="Lager_1" xmlns="http://www.w3.org/2000/svg" viewBox="0 0 295 116"><path d="M10.54,10.63H30.04c4.8,0,8.58,1.32,10.98,3.72,1.92,1.92,2.88,4.26,2.88,7.14v.12c0,4.74-2.52,7.38-5.52,9.06,4.86,1.86,7.86,4.68,7.86,10.32v.12c0,7.68-6.24,11.52-15.72,11.52H10.54V10.63ZM28.06,27.61c4.08,0,6.66-1.32,6.66-4.44v-.12c0-2.76-2.16-4.32-6.06-4.32h-9.12v8.88h8.52Zm2.46,16.92c4.08,0,6.54-1.44,6.54-4.56v-.12c0-2.82-2.1-4.56-6.84-4.56h-10.68v9.24h10.98Zm18.96-12.78v-.12c0-11.94,9.42-21.72,22.38-21.72s22.26,9.66,22.26,21.6v.12c0,11.94-9.42,21.72-22.38,21.72s-22.26-9.66-22.26-21.6Zm22.38,13.08c7.44,0,12.6-5.88,12.6-13.08v-.12c0-7.2-5.28-13.2-12.72-13.2s-12.6,5.88-12.6,13.08v.12c0,7.2,5.28,13.2,12.72,13.2ZM107.67,10.63l19.68,25.86V10.63h9.12V52.63h-8.28l-19.92-26.1v26.1h-9.12V16.21l-4.26-5.58h12.78Zm46.26,0l19.68,25.86V10.63h9.12V52.63h-8.28l-19.92-26.1v26.1h-9.12V16.21l-4.26-5.58h12.78Zm37.56,0h9.24V52.63h-9.24V10.63Zm18.18,0h31.68v8.22h-22.5v8.52h19.8v8.22h-19.8v8.82h22.8v8.22h-31.98V10.63Zm37.62,0h19.2c5.34,0,9.48,1.5,12.24,4.26,2.34,2.34,3.6,5.64,3.6,9.6v.12c0,6.96-3.84,11.4-9.48,13.38l11.16,14.64h-11.04l-16.44-21.6h9.36c4.5,0,7.08-2.4,7.08-5.94v-.12c0-3.96-2.76-6-7.26-6h-9.18V52.63h-9.24V10.63Z"/><path d="M10.54,63.13h8.52l19.68,25.86v-25.86h9.12v42h-8.28l-19.92-26.1v26.1H10.54V63.13Z"/><path d="M55.27,63.13h31.68v8.22h-22.5v8.52h19.8v8.22h-19.8v8.82h22.8v8.22h-31.98V63.13Z"/><path d="M89.38,63.13h10.08l8.58,29.58,6.18-20.46-2.94-9.12h9.9l8.52,28.56,8.34-28.56h9.36l-13.02,42h-9.6l-6.42-19.98-6.36,19.98h-9.6l-13.02-42Z"/><path d="M148.13,102.01v-9.84c4.68,3.54,10.5,5.7,15.24,5.7,5.28,0,8.1-1.98,8.1-4.74,0-2.34-1.68-3.48-4.8-4.38l-7.74-2.28c-5.34-1.56-10.26-4.32-10.26-11.52,0-7.8,7.62-12.66,15.9-12.66,4.98,0,8.94,.66,12.36,2.04v9.84c-2.82-1.74-6-3.9-12.24-3.9-3.72,0-6.84,1.68-6.84,4.32,0,2.16,1.8,3.24,4.44,4.02l7.68,2.22c4.92,1.44,10.62,4.38,10.62,11.88,0,8.88-7.86,13.14-17.1,13.14-4.8,0-11.94-1.26-15.36-3.84Z"/></svg>