<?xml version="1.0" encoding="UTF-8"?>
<svg width="300px" height="73px" viewBox="0 0 300 73" version="1.1" xmlns="http://www.w3.org/2000/svg" xmlns:xlink="http://www.w3.org/1999/xlink"><script xmlns=""/>
    <title>Group 16 Copy</title>
    <g id="Page-1" stroke="none" stroke-width="1" fill="none" fill-rule="evenodd">
        <g id="bn_corp_dt_start" transform="translate(-190.000000, -20.000000)" fill="#2E2A25">
            <g id="Group-19" transform="translate(0.000000, 16.000000)">
                <g id="Group-16-Copy" transform="translate(190.000000, 4.000000)">
                    <polygon id="Fill-6" points="199.253731 45.8955224 209.328358 45.8955224 209.328358 -5.09045542e-13 199.253731 -5.09045542e-13"/>
                    <polygon id="Fill-8" points="228.246973 27.2751256 249.73199 27.2751256 249.73199 18.2925302 228.246973 18.2925302 228.246973 8.98154115 252.661598 8.98154115 252.661598 -5.09045542e-13 218.283582 -5.09045542e-13 218.283582 45.8955224 252.985075 45.8955224 252.985075 36.9139812 228.246973 36.9139812"/>
                    <polygon id="Fill-9" points="128.739173 28.2587253 107.019616 -5.09045542e-13 92.9104478 0.00105423336 97.616698 6.12298738 97.616698 45.8955224 107.681898 45.8955224 107.681898 17.3489914 129.646351 45.8955224 138.80597 45.8955224 138.80597 -5.09045542e-13 128.739173 -5.09045542e-13"/>
                    <polygon id="Fill-10" points="179.114801 28.2587253 157.391602 -5.09045542e-13 143.283582 0.00105423336 147.988563 6.12298738 147.988563 45.8955224 158.052866 45.8955224 158.052866 17.3489914 180.022042 45.8955224 189.179104 45.8955224 189.179104 -5.09045542e-13 179.114801 -5.09045542e-13"/>
                    <path d="M287.76937,29.8933142 C293.936563,27.719485 298.154077,22.8478726 298.154077,15.2758414 L298.154077,15.1445894 C298.154077,10.8180157 296.772943,7.21201044 294.203367,4.6544403 C291.174296,1.63827865 286.632806,-5.09045542e-13 280.770002,-5.09045542e-13 L259.701493,-5.09045542e-13 L259.701493,45.8955224 L269.838982,45.8955224 L269.838982,22.2912374 L269.838982,9.1127932 L279.915594,9.1127932 C284.854114,9.1127932 287.884244,11.3419696 287.884244,15.6695976 L287.884244,15.8008497 C287.884244,19.669359 285.05104,22.2912374 280.112521,22.2912374 L269.838982,22.2912374 L287.899596,45.8955224 L300,45.8955224 L287.76937,29.8933142 Z" id="Fill-11"/>
                    <path d="M11.8534308,55.7384013 C12.1266433,55.7552212 12.5267432,55.8387779 13.0537303,55.988529 C13.5801775,56.1382801 13.9592195,56.2923718 14.1919361,56.4502616 C14.4403112,56.6336524 14.6309121,57.0026044 14.7637388,57.5565749 C14.8965654,58.1105454 14.9629788,58.9037922 14.9629788,59.9368577 L14.9629788,68.3717508 L5.04255408,54.8507463 L0,54.8507463 L0,55.7384013 C0.314788417,55.7552212 0.727846976,55.8615661 1.23755584,56.0568937 C1.74780464,56.2527637 2.15168412,56.4882419 2.45027417,56.7633282 C2.67435168,56.9711349 2.85253381,57.2673817 2.98536048,57.6504406 C3.11764721,58.0334996 3.18406055,58.4171011 3.18406055,58.8007026 L3.18406055,67.5367256 C3.18406055,68.6951263 3.13006596,69.5138741 3.02261674,69.9924265 C2.91462758,70.4720641 2.71538757,70.8285368 2.42543666,71.0613021 C2.29260998,71.1784986 1.96108325,71.3092595 1.4303165,71.4552126 C0.899549749,71.6011656 0.522667561,71.6825521 0.298590043,71.6988294 L0.298590043,72.5864844 L7.53710381,72.5864844 L7.53710381,71.6988294 C7.34650293,71.6906907 6.95288242,71.607134 6.35570234,71.4487017 C5.75852225,71.2908119 5.36490174,71.1199003 5.17430087,70.9365095 C4.90864752,70.7032017 4.71156729,70.3114615 4.58360013,69.7618316 C4.45455308,69.2116591 4.39083947,68.4243807 4.39083947,67.3994538 L4.39083947,58.2505301 L15.0871663,72.761194 L16.1692178,72.761194 L16.1692178,59.7751699 C16.1692178,58.8674395 16.2210526,58.1175989 16.3247222,57.525648 C16.4283917,56.9342397 16.6292516,56.5343609 16.9278416,56.3260116 C17.1351808,56.1925378 17.4791263,56.0634046 17.9602181,55.9380694 C18.4413098,55.8138194 18.797674,55.7470825 19.0298507,55.7384013 L19.0298507,54.8507463 L11.8534308,54.8507463 L11.8534308,55.7384013 Z" id="Fill-12"/>
                    <path d="M22.5376241,61.2614392 C23.1295574,60.5727052 23.8729413,60.2283382 24.7677758,60.2283382 C25.3042326,60.2283382 25.743051,60.3429559 26.0836762,60.5706493 C26.4243013,60.7993706 26.6928072,61.0943955 26.8886389,61.4562378 C27.0678277,61.794437 27.1976425,62.2153871 27.278638,62.7196021 C27.3596336,63.2227891 27.4001314,63.6946233 27.4001314,64.1356186 L21.5728893,64.1356186 C21.6239276,62.908233 21.9451361,61.9501732 22.5376241,61.2614392 M27.7385375,69.8577644 C27.189321,70.186712 26.5352541,70.3516998 25.7768916,70.3516998 C25.0357268,70.3516998 24.3971933,70.2190928 23.8601817,69.9538788 C23.3237248,69.6886648 22.8887898,69.3268225 22.5564861,68.8683518 C22.2158609,68.3934338 21.9667718,67.8439885 21.8092188,67.2189881 C21.6511111,66.5939877 21.5728893,65.898058 21.5728893,65.130171 L29.9176508,65.130171 L29.9176508,64.3489205 C29.9176508,63.6463091 29.8216766,62.9950957 29.630283,62.3952803 C29.4383346,61.795465 29.1465287,61.2742887 28.7548653,60.8322654 C28.3454494,60.367113 27.8128759,59.9996169 27.1571447,59.730805 C26.5014135,59.4630211 25.7130938,59.3283582 24.7927401,59.3283582 C23.8984604,59.3283582 23.0912787,59.5005417 22.3711949,59.8438807 C21.6511111,60.1872198 21.0486373,60.6390087 20.5632187,61.1992475 C20.0606024,61.7836435 19.6794795,62.4410246 19.4192951,63.1708771 C19.1596655,63.9012435 19.0298507,64.6449734 19.0298507,65.4025807 C19.0298507,66.2470508 19.1513441,67.0483466 19.393776,67.805954 C19.6367627,68.5635613 20.005126,69.2265963 20.4994208,69.7955728 C20.9931609,70.3635213 21.6217086,70.8132543 22.3845092,71.1447718 C23.1467551,71.4762893 24.0349324,71.641791 25.0484864,71.641791 C26.1990671,71.641791 27.2170592,71.3657835 28.1030175,70.8132543 C28.9889757,70.2612392 29.6957452,69.5185373 30.2238806,68.5877184 L29.3296009,68.0783637 C28.8186632,68.9351693 28.2883087,69.5283029 27.7385375,69.8577644" id="Fill-13"/>
                    <path d="M48.1343284,59.3283582 L43.519671,59.3283582 L43.519671,60.1223738 C43.6099764,60.1223738 43.7515795,60.1385233 43.9444803,60.1713606 C44.1373811,60.2047361 44.3158544,60.2542612 44.4799002,60.320474 C44.6685262,60.3947616 44.8282972,60.4900434 44.9597476,60.6057813 C45.091198,60.7215192 45.1569232,60.8534065 45.1569232,61.0019817 C45.1569232,61.1763959 45.1296713,61.3518868 45.0767706,61.529531 C45.0233354,61.7071752 44.9677629,61.9031221 44.9105873,62.1179101 C44.6476865,63.0255103 44.3415032,63.9971701 43.9925719,65.0328895 C43.6431062,66.0680705 43.2920374,67.1387804 42.9388312,68.2439425 L39.7765406,59.5765217 L38.5838686,59.5765217 L35.4889062,68.3666785 C34.9641733,66.6591411 34.5356236,65.270825 34.2032572,64.2022684 C33.871425,63.1337117 33.5737914,62.1663585 33.3114249,61.2996702 C33.2702799,61.1763959 33.2355471,61.0606581 33.2066921,60.9529949 C33.1783715,60.8453318 33.163944,60.7753508 33.163944,60.7419752 C33.163944,60.5514114 33.3215776,60.4157559 33.6379135,60.3328553 C33.9537151,60.250493 34.247074,60.2047361 34.51799,60.1961231 L34.51799,59.3283582 L29.1044776,59.3283582 L29.1044776,60.1471364 C29.4491342,60.1885867 29.8060808,60.320474 30.1753175,60.543875 C30.5450886,60.7667377 30.7951649,61.072501 30.926081,61.4611649 C31.3776078,62.8004943 31.8964628,64.3734528 32.4831805,66.1795019 C33.0698982,67.9860893 33.6715777,69.8066729 34.2866159,71.641791 L35.2986772,71.641791 L38.5790595,62.6298483 L41.8530295,71.641791 L42.9030297,71.641791 C43.0259305,71.1869143 43.1632588,70.7115816 43.3150145,70.2157928 C43.4673046,69.7200041 43.616923,69.2565143 43.7644039,68.8274767 C44.2159307,67.4714595 44.6241751,66.2494829 44.989137,65.1626235 C45.3546332,64.0757642 45.7420379,62.9248453 46.152954,61.7093285 C46.3330303,61.1968519 46.6221143,60.8124945 47.0207404,60.555718 C47.4182977,60.300018 47.7896718,60.1552111 48.1343284,60.1223738 L48.1343284,59.3283582 Z" id="Fill-14"/>
                    <path d="M56.0539177,65.6211488 C55.7450257,65.3531083 55.3530925,65.1086882 54.8781181,64.8873751 C54.4026148,64.6670889 53.8969628,64.4740175 53.3611621,64.308161 C52.8168986,64.1346022 52.3599077,63.9790155 51.9901893,63.8408873 C51.6209999,63.7032726 51.3142236,63.5553882 51.0703893,63.397234 C50.8186211,63.231891 50.629795,63.0306039 50.503911,62.7938861 C50.3780269,62.5571683 50.3150848,62.2619129 50.3150848,61.907093 C50.3150848,61.4464946 50.5060267,61.0531631 50.8879103,60.7276119 C51.2697939,60.4020608 51.7934293,60.2392852 52.4598745,60.2392852 C53.2717738,60.2392852 53.9604338,60.5021909 54.5247964,61.0290292 C55.0891591,61.5558675 55.4567617,62.238806 55.6270755,63.0778447 L56.4680657,63.0778447 L56.2850578,59.3283582 L55.4081007,59.3283582 L55.1277706,59.9430029 C54.8194075,59.7776599 54.4190115,59.6359373 53.9276405,59.5173216 C53.4362694,59.3992195 52.954948,59.3401684 52.4836761,59.3401684 C51.2576286,59.3401684 50.278589,59.6713679 49.5476151,60.3337669 C48.8166412,60.996166 48.4506253,61.8043955 48.4506253,62.7584554 C48.4506253,63.3027523 48.5648731,63.7756744 48.7923107,64.1777352 C49.0197483,64.5803095 49.3117147,64.9192113 49.6692678,65.1954676 C50.0024904,65.4558058 50.4023574,65.6822539 50.8693979,65.8753252 C51.3364384,66.06891 51.760636,66.2203889 52.1425196,66.3307887 C52.6217254,66.4725113 53.0565015,66.6162878 53.446319,66.7626318 C53.8366654,66.9084623 54.1651276,67.0717513 54.4332925,67.2535259 C54.6929945,67.4347871 54.8902834,67.6458305 55.0241013,67.8861427 C55.1584482,68.1269684 55.2256216,68.412981 55.2256216,68.743667 C55.2256216,69.3865535 55.0140518,69.8800151 54.5914409,70.2255922 C54.169359,70.5706559 53.5685006,70.7431877 52.7883367,70.7431877 C52.2361393,70.7431877 51.7384212,70.6240586 51.2957112,70.3868273 C50.8530013,70.1490826 50.4737623,69.8563946 50.1569364,69.50825 C49.8559782,69.1760236 49.6005076,68.8042585 49.3889377,68.3924415 C49.1778968,67.9816514 49.0398474,67.6211831 48.9747897,67.312577 L48.1343284,67.312577 L48.255981,71.3696426 L49.1699629,71.3696426 L49.4132683,70.6009517 C49.6650364,70.8063467 50.0855315,71.0307408 50.6747536,71.2751609 C51.2634468,71.5190675 51.9071482,71.641791 52.6058577,71.641791 C53.9297562,71.641791 55.0077047,71.2987813 55.8407611,70.6127619 C56.6732885,69.9267424 57.0895522,69.0435437 57.0895522,67.9631658 C57.0895522,67.4270848 57.000164,66.9736752 56.8213874,66.6029371 C56.6426109,66.2321991 56.3866113,65.9051075 56.0539177,65.6211488" id="Fill-15"/>
                    <path d="M82.2527501,23.6379843 C82.2527501,31.430646 76.559597,37.7943573 68.3490451,37.7943573 C60.1422188,37.7943573 54.3149463,31.3006465 54.3149463,23.5079848 L54.3149463,23.3779853 C54.3149463,15.5853235 60.0096961,9.22109017 68.2181191,9.22109017 C76.4270743,9.22109017 82.2527501,15.715323 82.2527501,23.5079848 L82.2527501,23.6379843 Z M68.3490451,-5.09045542e-13 C54.0514976,-5.09045542e-13 43.6567164,10.585302 43.6567164,23.5079848 L43.6567164,23.6379843 C43.6567164,36.5611892 53.9173782,47.0149254 68.2181191,47.0149254 C82.5177955,47.0149254 92.9104478,36.4327559 92.9104478,23.5079848 L92.9104478,23.3779853 C92.9104478,10.4553024 82.6503182,-5.09045542e-13 68.3490451,-5.09045542e-13 L68.3490451,-5.09045542e-13 Z" id="Fill-3"/>
                    <path d="M10.9962301,26.9480038 L22.7178822,26.9480038 C27.9199178,26.9480038 30.2236991,28.8482376 30.2236991,31.9302534 L30.2236991,32.061504 C30.2236991,35.4713826 27.5244847,37.0448078 23.0466157,37.0448078 L10.9962301,37.0448078 L10.9962301,26.9480038 Z M10.9962301,8.85071456 L21.0064564,8.85071456 C25.287403,8.85071456 27.6562958,10.5553903 27.6562958,13.5720445 L27.6562958,13.7027679 C27.6562958,17.1115923 24.8252704,18.5553483 20.3474013,18.5553483 L10.9962301,18.5553483 L10.9962301,8.85071456 Z M40.2985075,33.3070664 L40.2985075,33.1758158 C40.2985075,27.0128384 37.0069376,23.9313496 31.6736203,21.8982839 C34.9651902,20.0623576 37.7311041,17.1780083 37.7311041,11.9986192 L37.7311041,11.8673687 C37.7311041,8.7189369 36.676616,6.16245035 34.5697571,4.06455005 C31.9372423,1.44217468 27.7881068,-5.09045542e-13 22.5209597,-5.09045542e-13 L1.11940299,-5.09045542e-13 L1.11940299,45.8955224 L23.0466157,45.8955224 C33.4501575,45.8955224 40.2985075,41.6991947 40.2985075,33.3070664 L40.2985075,33.3070664 Z" id="Fill-1"/>
                </g>
            </g>
        </g>
    </g>
</svg>