<?xml version="1.0" encoding="UTF-8" standalone="no"?>
<!-- Created with Inkscape (http://www.inkscape.org/) -->

<svg
   version="1.1"
   id="svg2"
   xml:space="preserve"
   width="264.44"
   height="77.746666"
   viewBox="0 0 264.44 77.746666"
   xmlns="http://www.w3.org/2000/svg"
   xmlns:svg="http://www.w3.org/2000/svg"><defs
     id="defs6"><clipPath
       clipPathUnits="userSpaceOnUse"
       id="clipPath104"><path
         d="m 88.9961,513.605 c 0,7.106 5.7578,12.856 12.8519,12.856 7.117,0 12.867,-5.75 12.867,-12.856 0,-7.105 -5.75,-12.855 -12.867,-12.855 -7.0941,0 -12.8519,5.75 -12.8519,12.855 z"
         id="path102" /></clipPath></defs><g
     id="g8"
     transform="matrix(1.3333333,0,0,-1.3333333,0,77.746667)"><g
       id="g10"
       transform="scale(0.1)"><path
         d="m 275.473,341.809 v 5.449 c 8.621,-0.344 15.941,-0.512 21.957,-0.512 4.258,0 11.886,0.117 22.894,0.34 11.012,0.227 18.438,0.344 22.301,0.344 4.141,0 7.93,-0.051 11.359,-0.129 3.438,-0.086 6.547,-0.242 9.325,-0.469 -1.422,-4.824 -2.329,-13.418 -2.723,-25.789 h -5.363 c -0.512,6.863 -1.227,12.145 -2.129,15.828 -2.949,1.024 -6.602,1.774 -10.934,2.262 -4.344,0.48 -9.379,0.719 -15.109,0.719 -5.735,0 -11.66,-0.336 -17.789,-1.02 -0.34,-3.062 -0.567,-5.93 -0.684,-8.594 -0.055,-1.535 -0.199,-8.035 -0.426,-19.492 v -18.898 c 6.352,-0.172 11.973,-0.254 16.856,-0.254 7.203,0 12.965,0.371 17.277,1.109 1.645,0.281 2.707,0.746 3.188,1.402 0.488,0.653 1.011,3.051 1.578,7.192 l 0.683,5.277 h 5.36 l -0.594,-19.41 0.594,-20.848 h -5.36 l -0.597,5.446 c -0.625,6.183 -1.078,9.504 -1.364,9.961 -0.453,0.793 -1.531,1.39 -3.234,1.785 -3.234,0.738 -10.555,1.109 -21.961,1.109 -4.027,0 -8.168,-0.117 -12.426,-0.344 v -17.191 c 0,-7.715 0.118,-15.234 0.344,-22.559 0.117,-5.39 0.496,-8.593 1.152,-9.613 0.649,-1.019 1.707,-1.773 3.188,-2.262 1.473,-0.476 5.562,-0.777 12.254,-0.886 v -5.449 c -7.199,0.457 -14.383,0.683 -21.531,0.683 -6.411,0 -15.778,-0.226 -28.086,-0.683 v 5.449 c 6.695,0.109 10.777,0.41 12.254,0.886 1.476,0.489 2.496,1.153 3.062,2.004 0.684,1.137 1.109,3.887 1.281,8.254 0.051,1.192 0.168,9.25 0.34,24.176 v 39.406 c 0,7.715 -0.086,15.266 -0.258,22.641 -0.172,5.391 -0.582,8.578 -1.23,9.574 -0.656,0.996 -1.703,1.731 -3.156,2.211 -1.438,0.484 -5.539,0.781 -12.293,0.895"
         style="fill:#231f20;fill-opacity:1;fill-rule:nonzero;stroke:none"
         id="path12" /><path
         d="m 460.945,376.535 c 2.555,0 4.739,-0.894 6.555,-2.676 1.82,-1.793 2.723,-3.992 2.723,-6.601 0,-2.555 -0.903,-4.735 -2.723,-6.551 -1.816,-1.816 -4,-2.727 -6.555,-2.727 -2.554,0 -4.734,0.911 -6.55,2.727 -1.817,1.816 -2.727,3.996 -2.727,6.551 0,2.609 0.895,4.808 2.687,6.601 1.782,1.782 3.985,2.676 6.59,2.676 z m -35.148,0 c 2.605,0 4.801,-0.894 6.598,-2.676 1.785,-1.793 2.675,-3.992 2.675,-6.601 0,-2.555 -0.902,-4.735 -2.722,-6.551 -1.817,-1.816 -4,-2.727 -6.551,-2.727 -2.555,0 -4.738,0.911 -6.555,2.727 -1.816,1.816 -2.726,3.996 -2.726,6.551 0,2.609 0.91,4.808 2.726,6.601 1.817,1.782 4,2.676 6.555,2.676 z m -30.895,-83.496 c 0,-5.391 0.536,-10.863 1.614,-16.426 1.074,-5.562 2.437,-10.351 4.089,-14.383 2.719,-6.808 6.278,-12.527 10.684,-17.156 4.395,-4.617 9.301,-8.019 14.715,-10.207 5.426,-2.187 11.422,-3.277 18.004,-3.277 9.14,0 17.078,2.226 23.832,6.68 6.754,4.453 11.789,10.722 15.113,18.812 3.309,8.082 4.977,17.402 4.977,27.957 0,9.02 -1.192,17.336 -3.575,24.938 -1.48,4.656 -3.437,8.867 -5.875,12.644 -2.437,3.77 -5.347,7.059 -8.726,9.871 -3.375,2.805 -7.754,5.176 -13.149,7.106 -5.39,1.929 -11.207,2.894 -17.445,2.894 -9.023,0 -16.941,-2.012 -23.746,-6.043 -6.812,-4.031 -11.934,-9.859 -15.363,-17.496 -3.438,-7.629 -5.149,-16.265 -5.149,-25.914 z m -17.707,-7.066 c 0,8.972 1.348,17.254 4.039,24.855 2.7,7.606 7.168,14.438 13.407,20.512 6.246,6.074 13.312,10.656 21.199,13.75 7.883,3.09 16.902,4.633 27.062,4.633 9.364,0 17.871,-1.317 25.536,-3.953 7.66,-2.641 13.945,-6.129 18.851,-10.473 4.91,-4.336 8.777,-9.094 11.617,-14.254 2.157,-3.859 3.871,-8.395 5.157,-13.617 1.269,-5.223 1.906,-10.813 1.906,-16.77 0,-19.121 -6.422,-35.035 -19.27,-47.75 -12.859,-12.707 -29.074,-19.062 -48.648,-19.062 -8.906,0 -17.223,1.445 -24.938,4.344 -7.715,2.89 -14.242,7.187 -19.574,12.894 -5.332,5.699 -9.394,12.621 -12.172,20.766 -2.781,8.14 -4.172,16.183 -4.172,24.125"
         style="fill:#231f20;fill-opacity:1;fill-rule:nonzero;stroke:none"
         id="path14" /><path
         d="m 518.246,341.809 v 5.449 c 2.215,-0.055 5.59,-0.141 10.133,-0.254 l 16.34,-0.43 c 3.234,0 8.254,0.117 15.066,0.34 8.852,0.344 13.988,0.516 15.403,0.516 10.839,0 18.742,-0.969 23.703,-2.895 4.964,-1.93 8.812,-5.066 11.531,-9.41 2.726,-4.336 4.09,-9.059 4.09,-14.164 0,-4.773 -1.278,-9.504 -3.828,-14.215 -2.555,-4.711 -6.258,-8.629 -11.114,-11.75 -4.843,-3.117 -11.16,-5.531 -18.937,-7.23 1.422,-1.993 4.769,-6.414 10.043,-13.282 l 21.453,-28.257 c 6.125,-7.883 9.699,-12.286 10.723,-13.192 0.511,-0.394 1.019,-0.68 1.531,-0.851 0.851,-0.282 2.726,-0.422 5.621,-0.422 v -5.449 c -4.313,0.339 -8.086,0.511 -11.324,0.511 -3.348,0 -7.461,-0.172 -12.34,-0.511 -3.692,4.257 -9.871,12.566 -18.555,24.941 -4.824,6.859 -9.074,12.59 -12.765,17.191 -5.957,7.602 -11.633,14.496 -17.024,20.68 l 0.852,2.551 c 2.949,-0.168 5.187,-0.254 6.722,-0.254 10.328,0 18.16,2.437 23.493,7.32 5.332,4.883 8,11.321 8,19.321 0,6.976 -2.297,12.527 -6.891,16.64 -4.602,4.113 -11.551,6.172 -20.856,6.172 -5.839,0 -11.578,-0.883 -17.195,-2.641 -0.223,-3.062 -0.394,-5.925 -0.512,-8.593 -0.054,-0.797 -0.254,-9.051 -0.593,-24.77 v -37.789 c 0,-7.715 0.117,-15.234 0.339,-22.559 0.118,-5.39 0.5,-8.593 1.153,-9.613 0.648,-1.019 1.715,-1.773 3.187,-2.262 1.481,-0.476 5.563,-0.777 12.258,-0.886 v -5.449 c -8.058,0.457 -15.461,0.683 -22.211,0.683 -5.449,0 -14.609,-0.226 -27.496,-0.683 v 5.449 c 6.695,0.109 10.781,0.41 12.262,0.886 1.472,0.489 2.496,1.153 3.058,2.004 0.688,1.137 1.11,3.887 1.282,8.254 0.054,1.192 0.164,9.25 0.336,24.176 v 39.406 c 0,7.715 -0.082,15.266 -0.254,22.641 -0.172,5.391 -0.582,8.578 -1.235,9.574 -0.652,0.996 -1.703,1.731 -3.144,2.211 -1.457,0.484 -5.547,0.781 -12.305,0.895"
         style="fill:#231f20;fill-opacity:1;fill-rule:nonzero;stroke:none"
         id="path16" /><path
         d="m 645.102,230.48 c 0.906,5.45 1.445,14.274 1.617,26.469 h 5.789 c 0.285,-8.285 0.746,-13.172 1.402,-14.676 0.653,-1.507 2.227,-3.109 4.727,-4.808 2.496,-1.707 5.84,-3.223 10.039,-4.551 4.203,-1.34 8.258,-2.004 12.172,-2.004 5.734,0 11.011,1.32 15.832,3.957 4.824,2.641 8.343,6.098 10.554,10.379 2.211,4.289 3.321,8.867 3.321,13.75 0,3.746 -0.551,6.977 -1.664,9.703 -1.098,2.723 -2.793,4.922 -5.063,6.598 -2.265,1.672 -5.074,2.851 -8.426,3.527 -2.097,0.344 -6.297,0.91 -12.597,1.707 -6.297,0.793 -11.66,1.668 -16.082,2.633 -5.903,1.82 -10.246,3.949 -13.024,6.391 -2.781,2.433 -5.039,5.644 -6.773,9.613 -1.723,3.969 -2.59,8.258 -2.59,12.852 0,6.695 1.742,13.007 5.238,18.941 3.481,5.926 8.649,10.539 15.489,13.828 6.835,3.289 14.253,4.934 22.253,4.934 4.821,0 10.09,-0.645 15.789,-1.938 5.708,-1.293 11.024,-3.172 15.961,-5.633 -0.796,-3.574 -1.363,-6.91 -1.703,-10 -0.343,-3.093 -0.597,-7.648 -0.769,-13.664 h -5.785 c -0.172,8.735 -0.426,13.508 -0.766,14.301 -1.414,2.043 -3.352,3.883 -5.785,5.535 -5.848,3.285 -11.949,4.934 -18.301,4.934 -8.23,0 -14.797,-2.508 -19.703,-7.528 -4.914,-5.019 -7.363,-11.523 -7.363,-19.515 0,-4.824 0.879,-8.555 2.636,-11.188 1.758,-2.636 4.907,-4.746 9.45,-6.339 3.117,-1.079 8.226,-2.083 15.32,-3.016 7.094,-0.938 13.476,-1.945 19.152,-3.024 5.332,-1.585 9.278,-3.472 11.828,-5.652 2.555,-2.183 4.649,-5.051 6.297,-8.59 1.649,-3.547 2.469,-7.699 2.469,-12.461 0,-11.285 -4.684,-21.125 -14.043,-29.515 -9.363,-8.391 -21.48,-12.586 -36.344,-12.586 -11.234,0 -21.418,2.215 -30.554,6.636"
         style="fill:#231f20;fill-opacity:1;fill-rule:nonzero;stroke:none"
         id="path18" /><path
         d="m 789.625,225.461 c -1.707,4.937 -5.25,14.469 -10.641,28.598 l -28.937,71.578 c -3.067,7.609 -4.969,12.004 -5.703,13.195 -0.512,0.734 -1.227,1.277 -2.129,1.613 -1.246,0.567 -4.371,1.028 -9.363,1.364 v 5.449 c 10.265,-0.453 17.843,-0.684 22.726,-0.684 4.598,0 12.395,0.231 23.406,0.684 v -6.043 c -6.925,-0.113 -10.937,-0.254 -12.043,-0.426 -1.105,-0.172 -1.871,-0.492 -2.304,-0.976 -0.418,-0.485 -0.633,-1.036 -0.633,-1.661 0,-0.625 0.394,-2.101 1.191,-4.429 2.442,-7.543 4.563,-13.618 6.387,-18.211 l 26.641,-67.242 22.211,55.75 c 3.234,8 6.328,16.71 9.277,26.128 1.246,4.036 1.875,6.524 1.875,7.493 0,1.359 -0.738,2.269 -2.219,2.722 -1.133,0.395 -5.496,0.879 -13.105,1.446 v 5.449 c 8.566,-0.344 15.011,-0.512 19.324,-0.512 4.422,0 10.519,0.168 18.301,0.512 v -5.449 c -4.313,-0.172 -6.895,-0.454 -7.75,-0.848 -0.852,-0.398 -1.645,-1.191 -2.383,-2.383 -0.508,-0.851 -2.609,-5.449 -6.301,-13.789 l -26.551,-65.367 -6.554,-16.77 c -1.36,-3.347 -2.469,-6.242 -3.321,-8.679 -0.851,-2.438 -1.785,-5.278 -2.804,-8.512 h -8.598"
         style="fill:#231f20;fill-opacity:1;fill-rule:nonzero;stroke:none"
         id="path20" /><path
         d="m 875.969,274.059 h 42.984 l -21.277,51.324 z m -39.578,-47.746 v 5.789 c 4.484,0.054 7.277,0.238 8.386,0.546 1.102,0.317 2.125,0.915 3.063,1.793 0.933,0.879 2.285,3.161 4.043,6.852 1.019,2.098 4.711,10.07 11.066,23.914 l 21.278,48.004 c 2.324,5.277 7.289,17.027 14.894,35.238 h 5.531 l 36.344,-85.371 c 5.902,-13.844 9.817,-22.523 11.746,-26.039 1.074,-1.992 2.25,-3.293 3.535,-3.918 1.27,-0.625 4.157,-0.965 8.633,-1.019 v -5.789 c -8.851,0.566 -15.031,0.851 -18.555,0.851 l -27.402,-0.851 v 5.789 c 6.352,0.113 10.211,0.308 11.574,0.597 1.36,0.281 2.286,0.692 2.77,1.235 0.48,0.535 0.719,1.199 0.719,1.996 0,1.246 -0.395,2.863 -1.192,4.855 l -10.469,26.039 h -49.281 l -9.277,-21.871 c -1.645,-3.914 -2.465,-6.781 -2.465,-8.598 0,-0.796 0.223,-1.445 0.68,-1.957 0.625,-0.738 1.586,-1.246 2.894,-1.535 2.094,-0.453 5.785,-0.707 11.063,-0.761 v -5.789 c -9.59,0.511 -16.766,0.765 -21.531,0.765 -5.504,0 -11.524,-0.254 -18.047,-0.765"
         style="fill:#231f20;fill-opacity:1;fill-rule:nonzero;stroke:none"
         id="path22" /><path
         d="m 972.824,341.809 v 5.449 c 2.219,-0.055 5.594,-0.141 10.133,-0.254 l 16.344,-0.43 c 3.229,0 8.249,0.117 15.059,0.34 8.86,0.344 13.99,0.516 15.41,0.516 10.84,0 18.74,-0.969 23.71,-2.895 4.96,-1.93 8.81,-5.066 11.53,-9.41 2.72,-4.336 4.09,-9.059 4.09,-14.164 0,-4.773 -1.28,-9.504 -3.84,-14.215 -2.55,-4.711 -6.25,-8.629 -11.11,-11.75 -4.84,-3.117 -11.16,-5.531 -18.93,-7.23 1.41,-1.993 4.77,-6.414 10.04,-13.282 l 21.45,-28.257 c 6.13,-7.883 9.7,-12.286 10.73,-13.192 0.51,-0.394 1.02,-0.68 1.53,-0.851 0.85,-0.282 2.72,-0.422 5.62,-0.422 v -5.449 c -4.32,0.339 -8.09,0.511 -11.33,0.511 -3.34,0 -7.46,-0.172 -12.33,-0.511 -3.7,4.257 -9.88,12.566 -18.56,24.941 -4.83,6.859 -9.08,12.59 -12.77,17.191 -5.95,7.602 -11.63,14.496 -17.02,20.68 l 0.85,2.551 c 2.95,-0.168 5.19,-0.254 6.72,-0.254 10.33,0 18.16,2.437 23.49,7.32 5.34,4.883 8,11.321 8,19.321 0,6.976 -2.29,12.527 -6.89,16.64 -4.6,4.113 -11.54,6.172 -20.85,6.172 -5.84,0 -11.58,-0.883 -17.2,-2.641 -0.22,-3.062 -0.39,-5.925 -0.51,-8.593 -0.05,-0.797 -0.25,-9.051 -0.6,-24.77 v -37.789 c 0,-7.715 0.12,-15.234 0.35,-22.559 0.11,-5.39 0.49,-8.593 1.15,-9.613 0.65,-1.019 1.71,-1.773 3.19,-2.262 1.48,-0.476 5.56,-0.777 12.25,-0.886 v -5.449 c -8.05,0.457 -15.46,0.683 -22.21,0.683 -5.449,0 -14.609,-0.226 -27.496,-0.683 v 5.449 c 6.696,0.109 10.781,0.41 12.262,0.886 1.477,0.489 2.496,1.153 3.062,2.004 0.68,1.137 1.11,3.887 1.274,8.254 0.058,1.192 0.172,9.25 0.344,24.176 v 39.406 c 0,7.715 -0.086,15.266 -0.254,22.641 -0.172,5.391 -0.582,8.578 -1.239,9.574 -0.652,0.996 -1.703,1.731 -3.144,2.211 -1.453,0.484 -5.543,0.781 -12.305,0.895"
         style="fill:#231f20;fill-opacity:1;fill-rule:nonzero;stroke:none"
         id="path24" /><path
         d="m 1099.69,230.48 c 0.9,5.45 1.44,14.274 1.61,26.469 h 5.78 c 0.3,-8.285 0.76,-13.172 1.41,-14.676 0.66,-1.507 2.23,-3.109 4.73,-4.808 2.5,-1.707 5.84,-3.223 10.04,-4.551 4.2,-1.34 8.26,-2.004 12.17,-2.004 5.73,0 11.01,1.32 15.83,3.957 4.82,2.641 8.35,6.098 10.56,10.379 2.21,4.289 3.32,8.867 3.32,13.75 0,3.746 -0.56,6.977 -1.67,9.703 -1.1,2.723 -2.79,4.922 -5.06,6.598 -2.27,1.672 -5.07,2.851 -8.43,3.527 -2.09,0.344 -6.29,0.91 -12.59,1.707 -6.3,0.793 -11.66,1.668 -16.09,2.633 -5.9,1.82 -10.24,3.949 -13.02,6.391 -2.78,2.433 -5.04,5.644 -6.77,9.613 -1.72,3.969 -2.6,8.258 -2.6,12.852 0,6.695 1.75,13.007 5.24,18.941 3.49,5.926 8.65,10.539 15.49,13.828 6.84,3.289 14.26,4.934 22.26,4.934 4.82,0 10.09,-0.645 15.78,-1.938 5.71,-1.293 11.03,-3.172 15.97,-5.633 -0.79,-3.574 -1.37,-6.91 -1.71,-10 -0.34,-3.093 -0.59,-7.648 -0.76,-13.664 h -5.79 c -0.17,8.735 -0.43,13.508 -0.77,14.301 -1.41,2.043 -3.34,3.883 -5.78,5.535 -5.84,3.285 -11.95,4.934 -18.3,4.934 -8.23,0 -14.8,-2.508 -19.71,-7.528 -4.9,-5.019 -7.35,-11.523 -7.35,-19.515 0,-4.824 0.87,-8.555 2.63,-11.188 1.76,-2.636 4.9,-4.746 9.45,-6.339 3.12,-1.079 8.22,-2.083 15.32,-3.016 7.09,-0.938 13.48,-1.945 19.15,-3.024 5.33,-1.585 9.28,-3.472 11.83,-5.652 2.56,-2.183 4.65,-5.051 6.3,-8.59 1.64,-3.547 2.46,-7.699 2.46,-12.461 0,-11.285 -4.67,-21.125 -14.03,-29.515 -9.37,-8.391 -21.48,-12.586 -36.35,-12.586 -11.24,0 -21.42,2.215 -30.55,6.636"
         style="fill:#231f20;fill-opacity:1;fill-rule:nonzero;stroke:none"
         id="path26" /><path
         d="m 1197.6,341.809 v 5.449 c 5.95,-0.223 11.66,-0.344 17.11,-0.344 5.49,0 10.77,0.121 15.83,0.344 4.99,-11.352 9.56,-21.309 13.7,-29.871 l 32.26,-66.395 29.11,60.86 c 7.94,16.562 13.25,28.371 15.91,35.406 6.02,-0.223 11.1,-0.344 15.24,-0.344 3.8,0 9.95,0.121 18.46,0.344 v -5.449 c -6.74,-0.114 -10.85,-0.411 -12.29,-0.895 -1.45,-0.48 -2.45,-1.144 -3.02,-1.996 -0.74,-1.137 -1.17,-3.887 -1.28,-8.258 -0.06,-1.137 -0.2,-9.191 -0.43,-24.172 v -39.406 c 0,-7.715 0.12,-15.234 0.34,-22.559 0.17,-5.39 0.58,-8.593 1.23,-9.613 0.66,-1.019 1.71,-1.773 3.16,-2.262 1.44,-0.476 5.55,-0.777 12.29,-0.886 v -5.449 c -11.45,0.511 -19.54,0.765 -24.24,0.765 -3.81,0 -12.21,-0.254 -25.2,-0.765 v 5.449 c 6.75,0.109 10.86,0.41 12.33,0.886 1.49,0.489 2.48,1.153 2.99,2.004 0.73,1.137 1.16,3.887 1.27,8.254 0.06,1.192 0.2,9.25 0.43,24.176 v 62.473 l -29.37,-61.453 c -4.59,-9.59 -8.2,-17.309 -10.8,-23.149 -1.87,-4.258 -4.72,-11.012 -8.51,-20.258 h -3.33 c -0.73,2.157 -1.41,3.887 -2.04,5.192 l -5.79,12.343 -40.68,84.516 v -59.664 c 0,-7.715 0.12,-15.234 0.34,-22.559 0.17,-5.39 0.58,-8.593 1.23,-9.613 0.66,-1.019 1.71,-1.773 3.16,-2.262 1.44,-0.476 5.54,-0.777 12.29,-0.886 v -5.449 l -20.51,0.683 -21.19,-0.683 v 5.449 c 6.7,0.109 10.78,0.41 12.25,0.886 1.49,0.489 2.51,1.153 3.07,2.004 0.68,1.137 1.11,3.887 1.28,8.254 0.05,1.192 0.17,9.25 0.34,24.176 v 39.406 c 0,7.715 -0.09,15.266 -0.26,22.641 -0.17,5.391 -0.59,8.578 -1.23,9.574 -0.65,0.996 -1.7,1.731 -3.16,2.211 -1.44,0.484 -5.54,0.781 -12.29,0.895"
         style="fill:#231f20;fill-opacity:1;fill-rule:nonzero;stroke:none"
         id="path28" /><path
         d="m 1401.44,274.059 h 42.98 l -21.28,51.324 z m -39.58,-47.746 v 5.789 c 4.49,0.054 7.28,0.238 8.4,0.546 1.1,0.317 2.12,0.915 3.06,1.793 0.93,0.879 2.28,3.161 4.03,6.852 1.03,2.098 4.72,10.07 11.07,23.914 l 21.28,48.004 c 2.33,5.277 7.29,17.027 14.9,35.238 h 5.53 l 36.34,-85.371 c 5.9,-13.844 9.82,-22.523 11.75,-26.039 1.07,-1.992 2.25,-3.293 3.53,-3.918 1.28,-0.625 4.16,-0.965 8.63,-1.019 v -5.789 c -8.85,0.566 -15.02,0.851 -18.55,0.851 l -27.41,-0.851 v 5.789 c 6.36,0.113 10.22,0.308 11.58,0.597 1.36,0.281 2.28,0.692 2.77,1.235 0.48,0.535 0.73,1.199 0.73,1.996 0,1.246 -0.41,2.863 -1.2,4.855 l -10.47,26.039 h -49.28 l -9.28,-21.871 c -1.64,-3.914 -2.46,-6.781 -2.46,-8.598 0,-0.796 0.21,-1.445 0.68,-1.957 0.62,-0.738 1.58,-1.246 2.89,-1.535 2.09,-0.453 5.79,-0.707 11.06,-0.761 v -5.789 c -9.59,0.511 -16.76,0.765 -21.53,0.765 -5.5,0 -11.52,-0.254 -18.05,-0.765"
         style="fill:#231f20;fill-opacity:1;fill-rule:nonzero;stroke:none"
         id="path30" /><path
         d="m 1546.81,231.762 v -5.449 l -25.7,0.683 c -1.76,0 -9.79,-0.226 -24.09,-0.683 v 5.449 c 6.69,0.109 10.78,0.41 12.26,0.886 1.47,0.489 2.49,1.153 3.06,2.004 0.69,1.137 1.11,3.887 1.28,8.254 0.06,1.192 0.17,9.25 0.33,24.176 v 39.406 c 0,7.715 -0.07,15.266 -0.25,22.641 -0.17,5.391 -0.58,8.578 -1.24,9.574 -0.64,0.996 -1.7,1.731 -3.14,2.211 -1.45,0.484 -5.55,0.781 -12.3,0.895 v 5.449 c 11.01,-0.344 19.44,-0.512 25.28,-0.512 5.78,0 13.95,0.168 24.51,0.512 v -5.449 c -6.69,-0.114 -10.78,-0.411 -12.26,-0.895 -1.47,-0.48 -2.46,-1.144 -2.97,-1.996 -0.74,-1.137 -1.19,-3.887 -1.36,-8.258 0,-1.137 -0.12,-9.191 -0.34,-24.172 v -17.531 c 3.06,1.645 6.69,4.508 10.89,8.594 l 10.73,10.387 18.97,18.976 c 7.32,7.32 11.84,12.035 13.54,14.129 v 6.215 c 6.75,-0.223 12.05,-0.344 15.91,-0.344 4.15,0 8.6,0.121 13.37,0.344 v -5.531 c -5.4,0 -9.02,-0.227 -10.9,-0.684 -1.87,-0.453 -3.71,-1.305 -5.54,-2.555 -3.62,-2.664 -9.19,-7.429 -16.68,-14.297 l -33.95,-31.062 51.06,-47.84 c 8.23,-7.715 12.91,-11.914 14.05,-12.59 1.13,-0.683 3.32,-1.054 6.55,-1.109 v -5.277 c -5.56,0.222 -9.28,0.339 -11.15,0.339 -2.09,0 -6.52,-0.117 -13.28,-0.339 -1.3,1.308 -6.04,5.871 -14.21,13.703 l -8.77,8.425 -38.64,36.258 -1.95,-1.109 v -16.508 c 0,-7.715 0.11,-15.234 0.34,-22.559 0.11,-5.39 0.49,-8.593 1.14,-9.613 0.66,-1.019 1.72,-1.773 3.19,-2.262 1.48,-0.476 5.57,-0.777 12.26,-0.886"
         style="fill:#231f20;fill-opacity:1;fill-rule:nonzero;stroke:none"
         id="path32" /><path
         d="m 1632.07,319.086 h -5.28 c -0.06,13.562 -0.34,22.949 -0.85,28.172 6.18,-0.223 15.88,-0.512 29.11,-0.848 10.72,-0.23 17.87,-0.344 21.45,-0.344 3.85,0 12.8,0.172 26.8,0.508 10.17,0.231 17.57,0.461 22.22,0.684 -0.68,-6.352 -1.14,-15.746 -1.36,-28.172 h -5.45 l -0.68,8.172 c -0.46,4.937 -0.77,7.746 -0.94,8.422 -0.17,0.683 -0.41,1.164 -0.72,1.453 -0.31,0.281 -0.78,0.508 -1.4,0.676 -0.8,0.171 -3.64,0.398 -8.51,0.679 -4.89,0.289 -8.75,0.43 -11.58,0.43 h -10.38 c -0.57,-5.449 -0.85,-12.797 -0.85,-22.047 v -49.789 c 0,-7.715 0.08,-15.234 0.25,-22.559 0.17,-5.39 0.58,-8.593 1.23,-9.613 0.66,-1.019 1.7,-1.773 3.15,-2.262 1.45,-0.476 5.55,-0.777 12.3,-0.886 v -5.449 c -10.16,0.457 -17.78,0.683 -22.89,0.683 -2.21,0 -11.07,-0.226 -26.56,-0.683 v 5.449 c 6.75,0.109 10.87,0.41 12.34,0.886 1.48,0.489 2.47,1.153 2.98,2.004 0.74,1.137 1.2,3.887 1.37,8.254 0,1.192 0.11,9.25 0.34,24.176 v 49.621 c 0,2.383 -0.07,4.988 -0.17,7.832 l -0.52,14.383 h -12.68 c -7.32,0 -13.14,-0.289 -17.44,-0.855 -1.37,-0.168 -2.25,-0.536 -2.65,-1.102 -0.62,-0.969 -1.19,-4.059 -1.7,-9.277 l -0.93,-8.598"
         style="fill:#231f20;fill-opacity:1;fill-rule:nonzero;stroke:none"
         id="path34" /><path
         d="m 1739.5,226.313 v 5.359 c 5.96,0.058 9.87,0.512 11.75,1.363 0.79,0.34 1.36,0.883 1.7,1.617 0.56,1.137 0.96,4.114 1.19,8.938 0.34,7.492 0.51,13.957 0.51,19.406 v 43.492 c 0,7.715 -0.09,15.266 -0.26,22.641 -0.17,5.391 -0.58,8.578 -1.23,9.574 -0.65,0.996 -1.7,1.731 -3.16,2.211 -1.44,0.484 -5.53,0.781 -12.29,0.895 v 5.449 l 24.26,-0.512 25.7,0.426 c 12.31,0.168 21.25,0.258 26.81,0.258 5.62,0 10.92,-0.313 15.92,-0.938 -0.91,-3.234 -1.53,-6.047 -1.87,-8.429 -0.12,-0.508 -0.63,-6.411 -1.53,-17.7 h -5.37 c 0.06,5.785 -0.31,11.067 -1.1,15.832 -3.12,1.301 -6.56,2.18 -10.31,2.637 -6.34,0.793 -12.7,1.191 -19.06,1.191 -1.36,0 -4.4,-0.113 -9.1,-0.343 -4.72,-0.223 -8.09,-0.426 -10.14,-0.594 -0.22,-6.297 -0.39,-12.199 -0.51,-17.703 l -0.34,-28.77 c 6.64,-0.34 12.74,-0.511 18.31,-0.511 6.75,0 12.5,0.312 17.27,0.937 1.82,0.227 2.98,0.684 3.5,1.363 0.5,0.684 0.96,3.008 1.36,6.977 l 0.51,5.961 h 5.1 v -1.621 l -0.43,-17.699 0.43,-19.832 h -5.95 l -0.26,5.789 c -0.12,4.199 -0.5,6.808 -1.16,7.828 -0.64,1.019 -1.88,1.734 -3.69,2.129 -3.23,0.683 -9.5,1.019 -18.82,1.019 -3.79,0 -9.19,-0.137 -16.17,-0.426 -0.28,-5.672 -0.42,-14.093 -0.42,-25.277 0,-10.496 0.14,-18.465 0.42,-23.914 8.17,-0.625 17.34,-0.938 27.5,-0.938 7.2,0 12.34,0.223 15.4,0.684 3.06,0.453 5.91,1.219 8.51,2.293 0.68,1.758 1.36,4.141 2.04,7.148 1.25,5.055 2.08,8.852 2.48,11.407 h 5.62 c -1.49,-11.461 -2.22,-20.965 -2.22,-28.512 -4.88,-0.734 -10.81,-1.105 -17.79,-1.105 l -50.81,0.683 c -0.74,0 -8.17,-0.226 -22.3,-0.683"
         style="fill:#231f20;fill-opacity:1;fill-rule:nonzero;stroke:none"
         id="path36" /><path
         d="m 1849.13,226.313 v 5.359 c 5.97,0.058 9.88,0.512 11.75,1.363 0.8,0.34 1.36,0.883 1.71,1.617 0.56,1.137 0.96,4.114 1.19,8.938 0.33,7.492 0.51,13.957 0.51,19.406 v 69.363 c 0,1.875 -0.11,3.098 -0.35,3.664 -0.45,1.02 -1.47,2.243 -3.06,3.657 -1.02,0.91 -2.19,1.496 -3.52,1.742 -1.35,0.266 -4.31,0.418 -8.9,0.476 v 5.36 c 9.48,-0.223 15.44,-0.344 17.87,-0.344 4.14,0 8.26,0.121 12.35,0.344 4.81,-6.297 8.36,-10.953 10.63,-13.961 l 17.62,-21.703 25.71,-30.981 c 8.22,-9.875 14.84,-17.648 19.82,-23.32 3.19,-3.746 5.85,-6.695 8,-8.852 v 62.215 c 0,5.567 -0.2,12.09 -0.59,19.582 -0.23,4.707 -0.6,7.625 -1.11,8.762 -0.39,0.738 -0.99,1.281 -1.78,1.617 -1.87,0.797 -5.76,1.223 -11.66,1.281 v 5.36 c 6.69,-0.223 13.47,-0.344 20.34,-0.344 6.47,0 12.34,0.121 17.61,0.344 v -5.36 c -5.89,-0.058 -9.78,-0.484 -11.65,-1.281 -0.8,-0.336 -1.36,-0.902 -1.7,-1.699 -0.58,-1.078 -0.98,-4.059 -1.2,-8.941 -0.34,-7.489 -0.5,-13.926 -0.5,-19.321 v -40.937 c 0,-8.285 0.13,-23.746 0.42,-46.387 l -8.77,2.555 -2.04,0.426 c -0.34,0.117 -0.65,0.285 -0.94,0.511 -0.39,0.281 -1.47,1.414 -3.23,3.403 -4.71,5.332 -8.18,9.359 -10.39,12.086 l -10.97,13.875 -60.35,72.089 v -65.281 c 0,-5.562 0.2,-12.113 0.6,-19.664 0.22,-4.707 0.59,-7.602 1.1,-8.68 0.4,-0.797 0.99,-1.359 1.79,-1.699 1.87,-0.797 5.76,-1.223 11.66,-1.281 v -5.359 c -4.99,0.394 -10.49,0.593 -16.52,0.593 -6.57,0 -13.73,-0.199 -21.45,-0.593"
         style="fill:#231f20;fill-opacity:1;fill-rule:nonzero;stroke:none"
         id="path38" /><path
         d="M 101.707,28.1094 H 87.1953 l -4.75,89.6796 v 436.656 l 19.2617,27.403 19.258,-27.403 V 117.789 l -4.746,-89.6796 h -14.512"
         style="fill:#ffffff;fill-opacity:1;fill-rule:evenodd;stroke:none"
         id="path40" /><path
         d="m 87.9023,28.8555 h 27.6057 l 4.711,88.9725 V 554.207 L 101.707,580.551 83.1914,554.207 V 117.789 Z M 116.922,27.3594 H 86.4883 l -0.0391,0.7109 -4.75,89.6797 v 436.926 l 20.0078,28.472 20.004,-28.472 V 117.789 l -4.789,-90.4296"
         style="fill:#231f20;fill-opacity:1;fill-rule:nonzero;stroke:none"
         id="path42" /><path
         d="M 87.2852,28 83.2539,20.8281 87.6953,0.75 H 115.898 L 120.324,20.8281 116.297,28 H 87.2852"
         style="fill:#ffffff;fill-opacity:1;fill-rule:evenodd;stroke:none"
         id="path44" /><path
         d="m 88.2891,1.49219 h 27.0039 l 4.242,19.21481 -3.676,6.5469 H 87.7227 L 84.0469,20.707 Z M 115.891,-0.00390625 H 87.6875 c -0.3516,0 -0.6523,0.24609425 -0.7266,0.58593725 L 82.5273,20.6602 c -0.039,0.1836 -0.0156,0.3671 0.0782,0.5273 l 4.0273,7.1797 c 0.1328,0.2344 0.3828,0.3789 0.6524,0.3789 h 29.0118 c 0.269,0 0.519,-0.1445 0.648,-0.3789 l 4.032,-7.1797 c 0.089,-0.1602 0.117,-0.3437 0.078,-0.5273 L 116.621,0.582031 c -0.074,-0.339843 -0.379,-0.58593725 -0.73,-0.58593725"
         style="fill:#231f20;fill-opacity:1;fill-rule:nonzero;stroke:none"
         id="path46" /><path
         d="m 82.332,143.703 -64.8828,8.215 v -22.84 L 82.332,117.789 h 38.527 l 64.871,11.289 v 22.84 l -64.871,-8.215 H 82.332"
         style="fill:#ffffff;fill-opacity:1;fill-rule:evenodd;stroke:none"
         id="path48" /><path
         d="m 18.1953,129.711 64.2656,-11.184 38.3911,0.012 64.132,11.172 v 21.359 l -64.039,-8.109 -38.613,-0.004 c -0.0273,0 -0.0625,0 -0.0937,0.004 l -64.043,8.109 z M 82.332,117.043 17.3242,128.344 c -0.3594,0.062 -0.6211,0.375 -0.6211,0.734 v 22.84 c 0,0.215 0.0938,0.418 0.2539,0.559 0.1563,0.136 0.3907,0.195 0.586,0.183 l 64.8398,-8.211 h 38.4692 l 64.785,8.211 c 0.207,0.012 0.426,-0.047 0.586,-0.183 0.164,-0.141 0.254,-0.344 0.254,-0.559 v -22.84 c 0,-0.359 -0.262,-0.672 -0.618,-0.734 L 120.98,117.055 82.332,117.043"
         style="fill:#231f20;fill-opacity:1;fill-rule:nonzero;stroke:none"
         id="path50" /><path
         d="m 82.8516,108.195 16.0195,9.606"
         style="fill:#ffffff;fill-opacity:1;fill-rule:evenodd;stroke:none"
         id="path52" /><path
         d="m 82.8516,107.449 c -0.2539,0 -0.5,0.133 -0.6407,0.36 -0.2148,0.359 -0.0976,0.816 0.2539,1.027 l 16.0196,9.605 c 0.3554,0.223 0.8047,0.102 1.0273,-0.253 0.2149,-0.36 0.0977,-0.817 -0.2539,-1.028 l -16.0234,-9.605 c -0.1211,-0.071 -0.2539,-0.106 -0.3828,-0.106"
         style="fill:#231f20;fill-opacity:1;fill-rule:nonzero;stroke:none"
         id="path54" /><path
         d="M 83.8203,90.4922 120.434,112.125"
         style="fill:#ffffff;fill-opacity:1;fill-rule:evenodd;stroke:none"
         id="path56" /><path
         d="m 83.8203,89.7422 c -0.2539,0 -0.5,0.1328 -0.6445,0.3672 -0.207,0.3554 -0.086,0.8164 0.2656,1.0273 L 120.051,112.77 c 0.347,0.207 0.801,0.097 1.027,-0.262 0.211,-0.356 0.086,-0.817 -0.265,-1.028 L 84.2031,89.8477 c -0.1211,-0.0704 -0.25,-0.1055 -0.3828,-0.1055"
         style="fill:#231f20;fill-opacity:1;fill-rule:nonzero;stroke:none"
         id="path58" /><path
         d="M 84.5938,72.6719 119.648,93.6445"
         style="fill:#ffffff;fill-opacity:1;fill-rule:evenodd;stroke:none"
         id="path60" /><path
         d="m 84.5938,71.9219 c -0.254,0 -0.504,0.1328 -0.6407,0.3594 -0.2148,0.3593 -0.0976,0.8164 0.2539,1.0273 l 35.055,20.9766 c 0.351,0.2187 0.816,0.0976 1.023,-0.2539 0.219,-0.3555 0.098,-0.8165 -0.254,-1.0274 L 84.9805,72.0273 c -0.125,-0.0703 -0.2539,-0.1054 -0.3867,-0.1054"
         style="fill:#231f20;fill-opacity:1;fill-rule:nonzero;stroke:none"
         id="path62" /><path
         d="M 85.9766,55.1055 118.41,74.3477"
         style="fill:#ffffff;fill-opacity:1;fill-rule:evenodd;stroke:none"
         id="path64" /><path
         d="m 85.9688,54.3516 c -0.254,0 -0.5,0.1328 -0.6446,0.3672 -0.207,0.3554 -0.0898,0.8125 0.2656,1.0273 l 32.4372,19.2383 c 0.332,0.2187 0.809,0.1015 1.02,-0.2617 0.215,-0.3555 0.098,-0.8086 -0.258,-1.0196 L 86.3516,54.4609 c -0.1172,-0.0742 -0.25,-0.1093 -0.3828,-0.1093"
         style="fill:#231f20;fill-opacity:1;fill-rule:nonzero;stroke:none"
         id="path66" /><path
         d="M 86.7813,37.6719 117.461,55.2813"
         style="fill:#ffffff;fill-opacity:1;fill-rule:evenodd;stroke:none"
         id="path68" /><path
         d="m 86.7813,36.9258 c -0.2579,0 -0.5079,0.1367 -0.6485,0.375 -0.207,0.3594 -0.0781,0.8164 0.2774,1.0234 l 30.6758,17.6055 c 0.344,0.1953 0.797,0.082 1.019,-0.2774 0.204,-0.3554 0.079,-0.8164 -0.281,-1.0195 L 87.1523,37.0234 c -0.1171,-0.0625 -0.246,-0.0976 -0.371,-0.0976"
         style="fill:#231f20;fill-opacity:1;fill-rule:nonzero;stroke:none"
         id="path70" /><path
         d="m 101.438,28.0039 15.203,8.8164"
         style="fill:#ffffff;fill-opacity:1;fill-rule:evenodd;stroke:none"
         id="path72" /><path
         d="m 101.438,27.2578 c -0.258,0 -0.508,0.1328 -0.641,0.3711 -0.211,0.3555 -0.09,0.8164 0.266,1.0195 l 15.195,8.8164 c 0.351,0.2188 0.812,0.0899 1.019,-0.2695 0.211,-0.3555 0.09,-0.8164 -0.265,-1.0195 l -15.196,-8.8164 c -0.117,-0.0664 -0.25,-0.1016 -0.378,-0.1016"
         style="fill:#231f20;fill-opacity:1;fill-rule:nonzero;stroke:none"
         id="path74" /><path
         d="M 101.723,161.91 V 581.5"
         style="fill:#ffffff;fill-opacity:1;fill-rule:evenodd;stroke:none"
         id="path76" /><path
         d="m 102.469,161.906 h -1.492 v 419.59 h 1.492 v -419.59"
         style="fill:#231f20;fill-opacity:1;fill-rule:nonzero;stroke:none"
         id="path78" /><path
         d="m 82.4922,143.703 19.2968,18.207 19.199,-18.207"
         style="fill:#ffffff;fill-opacity:1;fill-rule:evenodd;stroke:none"
         id="path80" /><path
         d="m 82.4922,142.957 c -0.1992,0 -0.3945,0.078 -0.5391,0.234 -0.2851,0.301 -0.2695,0.77 0.0274,1.055 l 19.2965,18.203 c 0.293,0.274 0.743,0.274 1.028,0 l 19.191,-18.203 c 0.301,-0.285 0.313,-0.758 0.031,-1.055 -0.277,-0.308 -0.757,-0.316 -1.054,-0.031 L 101.789,160.883 83.0078,143.16 c -0.1484,-0.137 -0.3281,-0.203 -0.5156,-0.203"
         style="fill:#231f20;fill-opacity:1;fill-rule:nonzero;stroke:none"
         id="path82" /><path
         d="m 120.965,117.789 -0.106,25.914 H 82.332 l 0.1133,-25.914 h 38.5197"
         style="fill:#ffffff;fill-opacity:1;fill-rule:evenodd;stroke:none"
         id="path84" /><path
         d="m 83.1875,118.539 h 37.0275 l -0.106,24.418 H 83.0859 Z m 38.5315,-1.496 H 81.7031 l -0.1211,27.406 h 40.012 l 0.125,-27.406"
         style="fill:#231f20;fill-opacity:1;fill-rule:nonzero;stroke:none"
         id="path86" /><path
         d="M 195.918,380.734 V 214.465 c 0,-29.024 -20.77,-34.922 -51.496,-40.332 -23.672,-4.168 -40.828,-4.918 -42.828,-10.57 -2.0002,5.652 -18.5393,6.402 -42.2073,10.57 -30.7304,5.41 -51.49607,11.308 -51.49607,40.332 0,0 -0.03516,166.269 0,166.269 H 195.918"
         style="fill:#231f20;fill-opacity:1;fill-rule:evenodd;stroke:none"
         id="path88" /><path
         d="m 8.26172,380.363 c -0.03125,-8.515 0,-164.293 0,-165.902 0,-28.801 20.26558,-34.523 51.19138,-39.965 5.8516,-1.031 11.3164,-1.855 16.1367,-2.59 14.0665,-2.129 23.6329,-3.578 26.0002,-7.484 2.375,3.867 11.996,5.308 26.144,7.426 4.977,0.746 10.614,1.593 16.621,2.648 30.922,5.442 51.192,11.164 51.192,39.965 l -0.008,165.902 z M 101.59,162.445 l -0.352,0.996 c -1.4294,4.043 -11.1091,5.508 -25.7614,7.727 -4.8243,0.734 -10.293,1.562 -16.1524,2.594 -30.3359,5.336 -51.80467,11.383 -51.80467,40.699 l -0.01562,83.133 c -0.00391,20.789 -0.00391,41.574 0,57.16 l 0.0039,18.836 c 0,7.515 0,7.515 0.38282,7.515 H 196.281 l 0.008,-166.644 c 0,-29.316 -21.473,-35.363 -51.809,-40.699 -6.015,-1.059 -11.66,-1.903 -16.64,-2.653 -14.207,-2.129 -24.477,-3.664 -25.899,-7.675 l -0.351,-0.989"
         style="fill:#231f20;fill-opacity:1;fill-rule:nonzero;stroke:none"
         id="path90" /><path
         d="m 98.6719,545.57 h 6.3011 v -7.027 h 6.812 v -6.305 h -6.812 v -6.504 h -6.3011 v 6.504 h -6.7188 v 6.305 h 6.7188 v 7.027"
         style="fill:#ffffff;fill-opacity:1;fill-rule:nonzero;stroke:none"
         id="path92" /><path
         d="m 99.418,526.48 h 4.805 v 6.504 h 6.812 v 4.813 h -6.812 v 7.023 h -4.805 v -7.023 h -6.7188 v -4.813 h 6.7188 z m 6.297,-1.492 h -7.7931 v 6.504 h -6.7188 v 7.797 h 6.7188 v 7.027 h 7.7931 v -7.027 h 6.812 v -7.797 h -6.812 v -6.504"
         style="fill:#231f20;fill-opacity:1;fill-rule:nonzero;stroke:none"
         id="path94" /><path
         d="m 88.9961,513.605 c 0,7.106 5.7578,12.856 12.8519,12.856 7.117,0 12.867,-5.75 12.867,-12.856 0,-7.105 -5.75,-12.855 -12.867,-12.855 -7.0941,0 -12.8519,5.75 -12.8519,12.855"
         style="fill:#231f20;fill-opacity:1;fill-rule:nonzero;stroke:none"
         id="path96" /><g
         id="g98"><g
           id="g100"
           clip-path="url(#clipPath104)"><path
             d="m 98.8359,527.691 h 6.2931 v -11.457 h 10.363 v -6.285 H 88.0313 v 6.285 h 10.8046 v 11.457"
             style="fill:#ffffff;fill-opacity:1;fill-rule:nonzero;stroke:none"
             id="path106" /><path
             d="m 88.4023,510.32 h 26.7187 v 5.535 h -10.363 v 11.461 H 99.207 V 515.855 H 88.4023 Z m 27.4607,-0.742 H 87.6602 v 7.02 h 10.8046 v 11.461 h 7.0392 v -11.461 h 10.359 v -7.02"
             style="fill:#231f20;fill-opacity:1;fill-rule:nonzero;stroke:none"
             id="path108" /></g></g><path
         d="m 101.848,525.715 c -6.6722,0 -12.1019,-5.434 -12.1019,-12.113 0,-6.68 5.4297,-12.11 12.1019,-12.11 6.687,0 12.121,5.43 12.121,12.11 0,6.679 -5.434,12.113 -12.121,12.113 z m 0,-25.719 c -7.5003,0 -13.598,6.106 -13.598,13.606 0,7.503 6.0977,13.609 13.598,13.609 7.507,0 13.613,-6.106 13.613,-13.609 0,-7.5 -6.106,-13.606 -13.613,-13.606"
         style="fill:#231f20;fill-opacity:1;fill-rule:nonzero;stroke:none"
         id="path110" /><path
         d="m 191.105,401.609 8.645,47.887 -5.266,7.891 c 0,0 -33.062,40.593 -92.394,40.199 0,0 -51.8244,4.117 -91.8244,-38.137 l -2.24997,-4.695 v -25.352 l 6.94917,-33.613 176.1402,5.82"
         style="fill:#231f20;fill-opacity:1;fill-rule:nonzero;stroke:none"
         id="path112" /><path
         d="m 102.465,455.867 c -5.7033,0 -10.3283,-4.621 -10.3283,-10.324 0,-2.488 0.8789,-4.766 2.3399,-6.551 -1.2891,0.496 -2.4414,0.731 -3.8203,0.731 -5.711,0 -10.3399,-4.618 -10.3399,-10.321 0,-5.714 4.6289,-10.328 10.3399,-10.328 3.6796,0 6.9296,1.891 8.7695,4.797 -0.1016,-0.867 -0.1016,-1.476 -0.1016,-2.266 0,-5.703 -4.6445,-12.492 -10.3476,-12.492 -4.5899,0 -8.8594,3.024 -10.1875,7.172 -1.336,-4.148 -5.7032,-7.172 -10.3203,-7.172 -5.6954,0 -10.3516,6.789 -10.3516,12.492 0,0.79 0,1.399 -0.0781,2.266 1.8359,-2.906 5.0937,-4.797 8.7812,-4.797 5.6992,0 10.3203,4.614 10.3203,10.328 0,5.703 -4.6211,10.321 -10.3203,10.321 -1.3906,0 -2.543,-0.235 -3.832,-0.731 1.4648,1.785 2.3476,4.063 2.3476,6.551 0,5.703 -4.6289,10.324 -10.332,10.324 -5.7148,0 -10.332,-4.621 -10.332,-10.324 0,-2.488 0.8828,-4.766 2.3398,-6.551 -1.2969,0.496 -2.4336,0.731 -3.8242,0.731 -5.707,0 -10.3281,-4.618 -10.3281,-10.321 0,-5.714 4.6211,-10.328 10.3281,-10.328 3.6797,0 6.9375,1.891 8.7695,4.797 -0.039,-0.957 -0.039,-1.476 -0.039,-2.266 0,-5.703 -4.6914,-12.492 -10.4024,-12.492 -4.5976,0 -8.8164,3.024 -10.1601,7.172 -1.3242,-4.148 -4.8867,-7.172 -9.4961,-7.172 -5.7031,0 -8.3203,6.098 -9.7227,11.543 -0.1992,0.774 -0.5664,2.348 -0.7109,3.203 1.8281,-2.894 5.082,-4.8 8.7812,-4.8 5.6993,0 9.6172,4.629 9.6172,10.343 0,5.703 -4.6211,10.321 -10.332,10.321 -1.3867,0 -2.5313,-0.235 -3.8203,-0.731 1.4609,1.785 2.3437,4.063 2.3437,6.551 0,5.703 -5.4453,10.402 -11.13669,10.402 H 0.886719 L 13.9297,381.09 H 190.988 l 12.989,74.777 h -6.731 c -5.703,0 -10.328,-4.621 -10.328,-10.324 0,-2.488 0.879,-4.766 2.34,-6.551 -1.297,0.496 -2.43,0.731 -3.84,0.731 -5.691,0 -10.328,-4.618 -10.328,-10.321 0,-5.714 3.816,-10.875 9.523,-10.875 3.684,0 6.938,1.895 8.77,4.805 -0.207,-0.992 -0.336,-1.621 -0.488,-2.387 -1.118,-5.82 -4.243,-11.8 -9.946,-11.8 -4.609,0 -8.054,2.992 -9.386,7.14 -1.336,-4.148 -5.555,-7.172 -10.161,-7.172 -5.707,0 -10.39,6.789 -10.39,12.492 0,0.79 -0.102,1.399 -0.055,2.266 1.84,-2.906 5.102,-4.797 8.781,-4.797 5.703,0 10.332,4.614 10.332,10.328 0,5.703 -4.629,10.321 -10.332,10.321 -1.383,0 -2.539,-0.235 -3.828,-0.731 1.465,1.785 2.344,4.063 2.344,6.551 0,5.703 -4.625,10.324 -10.324,10.324 -5.703,0 -10.336,-4.621 -10.336,-10.324 0,-2.488 0.879,-4.766 2.347,-6.551 -1.293,0.496 -2.445,0.731 -3.828,0.731 -5.703,0 -10.32,-4.618 -10.32,-10.321 0,-5.714 4.617,-10.328 10.32,-10.328 3.688,0 6.938,1.891 8.77,4.797 -0.078,-0.957 -0.078,-1.672 -0.078,-2.457 0,-5.703 -4.653,-12.301 -10.36,-12.301 -4.609,0 -8.972,3.024 -10.304,7.172 -1.328,-4.148 -5.602,-7.172 -10.196,-7.172 -5.711,0 -10.34,6.789 -10.34,12.492 0,0.79 0,1.211 -0.097,2.266 1.824,-2.906 5.086,-4.797 8.777,-4.797 5.695,0 10.317,4.614 10.317,10.328 0,5.703 -4.622,10.321 -10.317,10.321 -1.394,0 -2.555,-0.235 -3.832,-0.731 1.449,1.785 2.332,4.063 2.332,6.551 0,5.703 -4.621,10.324 -10.32,10.324"
         style="fill:#ffffff;fill-opacity:1;fill-rule:evenodd;stroke:none"
         id="path114" /><path
         d="M 14.5586,381.832 H 190.355 l 12.735,73.289 h -5.844 c -5.285,0 -9.582,-4.297 -9.582,-9.578 0,-2.246 0.754,-4.344 2.168,-6.078 l -0.844,-1.172 c -1.25,0.484 -2.285,0.68 -3.57,0.68 -5.281,0 -9.578,-4.297 -9.578,-9.575 0,-4.976 3.281,-10.125 8.769,-10.125 3.34,0 6.379,1.668 8.137,4.45 l 1.363,-0.543 -0.195,-0.942 c -0.101,-0.508 -0.195,-0.941 -0.285,-1.433 -1.496,-7.77 -5.492,-12.41 -10.688,-12.41 -4.109,0 -7.582,2.238 -9.402,5.953 -1.926,-3.551 -5.922,-5.981 -10.141,-5.981 -6.168,0 -11.132,7.242 -11.132,13.238 0,0.301 -0.016,0.575 -0.032,0.848 -0.027,0.453 -0.054,0.91 -0.023,1.461 l 0.133,2.32 1.242,-1.964 c 1.769,-2.79 4.816,-4.454 8.152,-4.454 5.282,0 9.582,4.297 9.582,9.582 0,5.278 -4.3,9.575 -9.582,9.575 -1.265,0 -2.332,-0.2 -3.562,-0.68 l -0.844,1.172 c 1.422,1.738 2.172,3.84 2.172,6.078 0,5.281 -4.293,9.578 -9.574,9.578 -5.289,0 -9.59,-4.297 -9.59,-9.578 0,-2.246 0.754,-4.348 2.18,-6.078 l -0.848,-1.172 c -1.238,0.48 -2.305,0.68 -3.559,0.68 -5.281,0 -9.578,-4.297 -9.578,-9.575 0,-5.285 4.297,-9.582 9.578,-9.582 3.34,0 6.383,1.664 8.137,4.45 l 1.371,-0.453 c -0.07,-0.938 -0.07,-1.637 -0.07,-2.399 0,-6.035 -4.852,-13.047 -11.106,-13.047 -4.308,0 -8.375,2.449 -10.304,6.02 -1.911,-3.571 -5.938,-6.02 -10.196,-6.02 -6.14,0 -11.09,7.242 -11.09,13.238 0,0.762 0,1.172 -0.097,2.192 l 1.375,0.473 c 1.758,-2.79 4.805,-4.454 8.152,-4.454 5.278,0 9.57,4.297 9.57,9.582 0,5.278 -4.292,9.575 -9.57,9.575 -1.277,0 -2.344,-0.2 -3.562,-0.676 l -0.852,1.164 c 1.422,1.742 2.168,3.848 2.168,6.082 0,5.281 -4.297,9.578 -9.574,9.578 -5.2853,0 -9.5822,-4.297 -9.5822,-9.578 0,-2.25 0.7539,-4.348 2.168,-6.078 l -0.8438,-1.172 c -1.2304,0.48 -2.289,0.68 -3.5547,0.68 -5.289,0 -9.5898,-4.297 -9.5898,-9.575 0,-5.285 4.3008,-9.582 9.5898,-9.582 3.336,0 6.379,1.664 8.1446,4.454 l 1.3751,-0.489 c -0.102,-0.824 -0.102,-1.39 -0.102,-2.176 0,-5.996 -4.9489,-13.238 -11.0934,-13.238 -4.2578,0 -8.2813,2.449 -10.1875,6.02 -1.9297,-3.571 -6.0039,-6.02 -10.3203,-6.02 -6.1446,0 -11.0977,7.242 -11.0977,13.238 0,0.762 0,1.352 -0.0781,2.192 l 1.3711,0.473 c 1.7695,-2.79 4.8164,-4.454 8.1523,-4.454 5.2813,0 9.5781,4.297 9.5781,9.582 0,5.278 -4.2968,9.575 -9.5781,9.575 -1.2695,0 -2.3359,-0.2 -3.5625,-0.68 l -0.8437,1.172 c 1.4257,1.734 2.1796,3.84 2.1796,6.078 0,5.281 -4.3046,9.578 -9.5898,9.578 -5.2852,0 -9.5859,-4.297 -9.5859,-9.578 0,-2.238 0.75,-4.34 2.1718,-6.078 l -0.8437,-1.172 c -1.2344,0.48 -2.2969,0.68 -3.5547,0.68 -5.2852,0 -9.582,-4.297 -9.582,-9.575 0,-5.285 4.2968,-9.582 9.582,-9.582 3.3398,0 6.3828,1.664 8.1406,4.454 l 1.375,-0.434 c -0.0429,-0.949 -0.0429,-1.457 -0.0429,-2.231 0,-5.996 -4.9727,-13.238 -11.1446,-13.238 -4.2187,0 -8.2148,2.43 -10.1406,5.985 -1.8359,-3.688 -5.4102,-5.985 -9.5195,-5.985 -4.9297,0 -8.3399,3.961 -10.4453,12.098 -0.1954,0.762 -0.5664,2.363 -0.7227,3.262 l 1.3672,0.527 c 1.7617,-2.785 4.8125,-4.445 8.1523,-4.445 5.0547,0 8.8672,4.121 8.8672,9.589 0,5.278 -4.3008,9.575 -9.582,9.575 -1.2617,0 -2.3203,-0.2 -3.5508,-0.68 l -0.8437,1.172 c 1.414,1.734 2.1679,3.832 2.1679,6.078 0,5.145 -4.8554,9.656 -10.3906,9.656 H 1.77734 Z M 191.613,380.34 H 13.3008 L 0,456.691 h 6.875 c 6.332,0 11.8828,-5.211 11.8828,-11.148 0,-1.867 -0.4531,-3.656 -1.3242,-5.262 0.6641,0.125 1.3359,0.184 2.0586,0.184 6.1055,0 11.0781,-4.965 11.0781,-11.067 0,-6.32 -4.4531,-11.085 -10.3633,-11.085 -2.7968,0 -5.414,1.011 -7.4218,2.792 0.0273,-0.097 0.0507,-0.183 0.0703,-0.269 1.9101,-7.387 4.8515,-10.977 9,-10.977 4.0468,0 7.5,2.614 8.789,6.657 l 0.7071,2.218 0.7187,-2.218 c 1.2383,-3.856 5.2149,-6.657 9.4453,-6.657 5.1953,0 9.6485,6.457 9.6485,11.746 0,0.02 0,0.04 0,0.059 -2.0586,-2.121 -4.9102,-3.34 -7.9766,-3.34 -6.1094,0 -11.0742,4.965 -11.0742,11.074 0,6.102 4.9648,11.067 11.0742,11.067 0.7266,0 1.4023,-0.059 2.0664,-0.184 -0.8711,1.61 -1.3359,3.422 -1.3359,5.262 0,6.105 4.9726,11.07 11.082,11.07 6.1133,0 11.082,-4.965 11.082,-11.07 0,-1.844 -0.4648,-3.656 -1.3359,-5.262 0.6719,0.125 1.3477,0.184 2.0703,0.184 6.1055,0 11.0742,-4.965 11.0742,-11.067 0,-6.109 -4.9687,-11.074 -11.0742,-11.074 -3.0469,0 -5.8867,1.203 -7.9492,3.305 0,-0.012 0,-0.016 0,-0.024 0,-5.32 4.2812,-11.746 9.6016,-11.746 4.332,0 8.371,2.801 9.6054,6.657 l 0.7149,2.218 0.7109,-2.218 c 1.2305,-3.856 5.2148,-6.657 9.4766,-6.657 5.3203,0 9.6015,6.426 9.6015,11.746 v 0.004 c -2.0625,-2.089 -4.8867,-3.285 -7.9258,-3.285 -6.1132,0 -11.082,4.965 -11.082,11.074 0,6.102 4.9688,11.067 11.082,11.067 0.7188,0 1.3907,-0.059 2.0625,-0.184 -0.871,1.602 -1.3242,3.387 -1.3242,5.262 0,6.105 4.9649,11.07 11.0744,11.07 6.101,0 11.07,-4.965 11.07,-11.07 0,-1.84 -0.465,-3.652 -1.336,-5.266 0.676,0.129 1.36,0.188 2.086,0.188 6.098,0 11.067,-4.965 11.067,-11.067 0,-6.109 -4.969,-11.074 -11.067,-11.074 -3.047,0 -5.879,1.196 -7.933,3.281 0,-5.32 4.277,-11.746 9.593,-11.746 4.266,0 8.254,2.801 9.485,6.657 l 0.711,2.218 0.714,-2.218 c 1.235,-3.856 5.266,-6.657 9.59,-6.657 5.325,0 9.614,6.321 9.614,11.555 0,0.074 0,0.145 0,0.215 -2.055,-2.102 -4.895,-3.305 -7.946,-3.305 -6.109,0 -11.074,4.965 -11.074,11.074 0,6.102 4.965,11.067 11.074,11.067 0.723,0 1.391,-0.059 2.059,-0.184 -0.871,1.602 -1.324,3.387 -1.324,5.262 0,6.105 4.968,11.07 11.082,11.07 6.105,0 11.07,-4.965 11.07,-11.07 0,-1.844 -0.465,-3.656 -1.332,-5.266 0.668,0.129 1.348,0.188 2.07,0.188 6.106,0 11.078,-4.965 11.078,-11.067 0,-6.109 -4.972,-11.074 -11.078,-11.074 -3.062,0 -5.914,1.215 -7.98,3.332 0,-0.019 0,-0.031 0,-0.051 0,-5.289 4.449,-11.746 9.64,-11.746 4.239,0 8.211,2.801 9.446,6.657 l 0.715,2.218 0.711,-2.218 c 1.308,-4.086 4.636,-6.625 8.671,-6.625 6.207,0 8.473,7.679 9.122,10.726 -2.004,-1.812 -4.637,-2.836 -7.454,-2.836 -5.757,0 -10.265,5.102 -10.265,11.617 0,6.102 4.965,11.067 11.074,11.067 0.734,0 1.406,-0.059 2.074,-0.184 -0.867,1.602 -1.32,3.387 -1.32,5.262 0,6.105 4.965,11.07 11.074,11.07 h 7.621 L 191.613,380.34"
         style="fill:#231f20;fill-opacity:1;fill-rule:nonzero;stroke:none"
         id="path116" /><path
         d="m 102.094,456 11.316,5.746 c 0,0 -2.844,28.067 -3.176,32.891 23.926,-14.391 26.34,-32.891 26.34,-32.891 0,0 12.696,-5.269 12.848,-5.269 0.152,0 8.48,5.269 8.48,5.269 0,0 -7.519,19.793 -29.679,31.602 32.84,-7.172 51.707,-31.602 51.707,-31.602 l 15.371,-5.914 2.633,7.223 c 0,0 -36.383,39.55 -95.895,39.55 -59.4999,0 -95.80072,-39.55 -95.80072,-39.55 l 2.37891,-7.063 15.62501,5.754 c 0,0 19.457,24.43 52.3008,31.602 -22.168,-11.809 -30.2852,-31.602 -30.2852,-31.602 0,0 8.1367,-5.582 8.2774,-5.582 0.1445,0 13.0664,5.582 13.0664,5.582 0,0 2.4062,18.5 26.3437,32.891 -0.332,-4.824 -3.1914,-32.891 -3.1914,-32.891 L 102.094,456"
         style="fill:#ffffff;fill-opacity:1;fill-rule:evenodd;stroke:none"
         id="path118" /><path
         d="m 180.391,462.367 14.472,-5.562 2.211,6.07 c -3.676,3.781 -39.418,38.977 -95.035,38.977 -55.6523,0 -91.332,-35.254 -94.94916,-38.989 l 1.98438,-5.906 14.71488,5.414 c 1.8007,2.172 21.289,24.867 52.5898,31.703 l 0.5156,-1.386 C 57.2578,482.23 48.6953,465.262 47.1914,462.004 c 2.6406,-1.813 6.3711,-4.352 7.4102,-5.02 1.4648,0.602 7.8203,3.332 12.3242,5.278 0.5195,2.941 4.3828,19.629 26.6328,33.015 l 1.2305,0.735 -0.0977,-1.426 c -0.3086,-4.426 -2.7539,-28.582 -3.1406,-32.41 l 10.5432,-5.348 10.523,5.348 c -0.387,3.828 -2.828,27.984 -3.133,32.41 l -0.089,1.426 1.222,-0.735 c 22.227,-13.375 26.106,-30.05 26.633,-33.004 4.441,-1.847 10.703,-4.429 12.113,-4.98 1.032,0.609 4.883,3.023 7.61,4.742 -1.426,3.285 -9.532,20.223 -29.102,30.653 l 0.512,1.386 c 31.297,-6.836 50.246,-29.527 52.008,-31.707 z m 15.351,-7.508 -16.277,6.262 -0.125,0.164 c -0.176,0.227 -17.125,21.793 -46.215,30.059 18.676,-11.914 25.402,-29.153 25.477,-29.34 l 0.214,-0.57 -0.511,-0.325 c -8.52,-5.379 -8.594,-5.379 -8.883,-5.379 -0.199,0 -0.297,0 -13.133,5.321 l -0.398,0.164 -0.055,0.43 c -0.023,0.179 -2.59,17.683 -24.742,31.585 0.617,-7.359 3.035,-31.152 3.058,-31.417 l 0.055,-0.508 -12.113,-6.145 -12.1331,6.145 0.0508,0.508 c 0.0274,0.265 2.4492,24.058 3.0742,31.417 -22.164,-13.902 -24.7226,-31.406 -24.7421,-31.585 l -0.0586,-0.422 -0.3868,-0.164 c -13.0625,-5.645 -13.1601,-5.645 -13.3632,-5.645 -0.3086,0 -0.3711,0 -8.7032,5.711 l -0.4922,0.344 0.2305,0.554 c 0.0742,0.188 7.3086,17.407 26.0547,29.321 C 42.4531,483.07 25.0039,461.508 24.8242,461.277 l -0.1328,-0.168 -0.1953,-0.066 -16.34766,-6.02 -2.75781,8.211 0.29687,0.325 c 0.36719,0.398 37.207,39.789 96.3515,39.789 59.156,0 96.078,-39.391 96.445,-39.785 l 0.309,-0.336 -3.051,-8.368"
         style="fill:#231f20;fill-opacity:1;fill-rule:nonzero;stroke:none"
         id="path120" /><path
         d="m 101.406,277.121 c -4.1872,0 -7.5466,-3.363 -7.5466,-7.516 0,-2.507 1.2383,-4.734 3.125,-6.093 -1.1914,0.722 -2.5469,1.113 -4.0117,1.113 -4.1524,0 -7.5157,-3.359 -7.5157,-7.504 0,-4.156 3.3633,-7.508 7.5157,-7.508 2.4687,0 4.6562,1.184 6.0234,3.02 L 98.957,246 c -0.0195,-4.137 -3.3789,-7.473 -7.5078,-7.473 -4.1133,0 -7.4531,3.313 -7.5117,7.407 -0.0508,-4.094 -3.3906,-7.407 -7.5078,-7.407 -4.125,0 -6.6953,3.422 -7.5117,7.473 l -0.9883,4.953 c 1.2109,-0.828 2.5976,-1.465 4.1719,-1.465 4.1484,0 7.5117,3.371 7.5117,7.512 0,4.148 -3.3633,7.52 -7.5117,7.52 -1.6016,0 -3.3594,-0.082 -4.5782,-0.934 1.4727,1.379 1.9297,3.805 1.9297,5.961 0,4.152 -3.3593,7.516 -7.5117,7.516 -0.6133,0 -0.9414,0.136 -1.5117,0 0,0 7.0937,-66.446 7.0937,-66.473 0,-0.039 67.6876,-0.039 67.6876,0 0,0.027 7.098,66.473 7.098,66.473 -0.579,0.136 -0.903,0 -1.512,0 -4.152,0 -7.516,-3.364 -7.516,-7.516 0,-2.156 0.461,-4.582 1.93,-5.961 -1.215,0.852 -2.977,0.934 -4.578,0.934 -4.145,0 -7.508,-3.372 -7.508,-7.52 0,-4.141 3.363,-7.512 7.508,-7.512 1.574,0 2.969,0.637 4.172,1.465 L 133.816,246 c -0.812,-4.051 -3.382,-7.473 -7.515,-7.473 -4.106,0 -7.446,3.313 -7.508,7.407 -0.059,-4.094 -3.398,-7.407 -7.512,-7.407 -4.129,0 -7.484,3.336 -7.508,7.473 l -0.039,6.633 c 1.368,-1.836 3.559,-3.02 6.032,-3.02 4.144,0 7.507,3.352 7.507,7.508 0,4.145 -3.363,7.504 -7.507,7.504 -1.465,0 -2.825,-0.391 -4.02,-1.113 1.895,1.359 3.133,3.586 3.133,6.093 0,4.153 -3.289,7.516 -7.473,7.516"
         style="fill:#ffffff;fill-opacity:1;fill-rule:evenodd;stroke:none"
         id="path122" /><path
         d="M 139.926,225.086 H 62.832 v 5.144 h 77.094 v -5.144"
         style="fill:#231f20;fill-opacity:1;fill-rule:nonzero;stroke:none"
         id="path124" /><path
         d="m 58.543,347.855 c -3.6602,0 -6.5899,-2.929 -6.5899,-6.558 0,-2.192 1.0742,-4.137 2.7266,-5.317 -1.0391,0.625 -2.2266,0.969 -3.5039,0.969 -3.6172,0 -6.5547,-2.933 -6.5547,-6.554 0,-3.625 2.9375,-6.555 6.5547,-6.555 2.1484,0 4.0664,1.035 5.2617,2.637 l -0.0391,-5.797 c -0.0195,-3.602 -2.9414,-6.512 -6.5546,-6.512 -3.586,0 -6.5,2.887 -6.543,6.461 -0.0586,-3.574 -2.9805,-6.461 -6.5703,-6.461 -3.6016,0 -5.8438,2.984 -6.5508,6.512 l -0.8633,4.328 c 1.0547,-0.727 2.2656,-1.27 3.6406,-1.27 3.625,0 6.5586,2.934 6.5586,6.551 0,3.625 -2.9336,6.559 -6.5586,6.559 -1.3945,0 -2.9297,-0.067 -3.9922,-0.805 1.2774,1.195 1.6836,3.316 1.6836,5.203 0,3.621 -2.9414,6.559 -6.5625,6.559 -0.5312,0 -0.8203,0.121 -1.3242,0 0,0 6.2031,-58.008 6.2031,-58.032 0,-0.031 59.086,-0.031 59.086,0 0,0.024 6.1953,58.032 6.1953,58.032 -0.5039,0.121 -0.7852,0 -1.3281,0 -3.6172,0 -6.5586,-2.938 -6.5586,-6.559 0,-1.887 0.4062,-4.008 1.6914,-5.203 -1.0664,0.738 -2.6016,0.805 -3.9961,0.805 -3.6211,0 -6.5625,-2.934 -6.5625,-6.559 0,-3.617 2.9414,-6.551 6.5625,-6.551 1.375,0 2.5898,0.543 3.6445,1.27 l -0.8633,-4.328 c -0.7148,-3.528 -2.957,-6.512 -6.5625,-6.512 -3.5898,0 -6.5117,2.887 -6.5546,6.461 -0.0469,-3.574 -2.9688,-6.461 -6.5586,-6.461 -3.6055,0 -6.5313,2.91 -6.5508,6.512 l -0.0391,5.797 c 1.1992,-1.602 3.1094,-2.637 5.2617,-2.637 3.6211,0 6.5586,2.93 6.5586,6.555 0,3.621 -2.9375,6.554 -6.5586,6.554 -1.2773,0 -2.4648,-0.344 -3.5,-0.969 1.6524,1.18 2.7266,3.125 2.7266,5.317 0,3.629 -2.8711,6.558 -6.5156,6.558"
         style="fill:#ffffff;fill-opacity:1;fill-rule:evenodd;stroke:none"
         id="path126" /><path
         d="M 91.0586,301.883 H 25.9492 v 5.144 h 65.1094 v -5.144"
         style="fill:#231f20;fill-opacity:1;fill-rule:nonzero;stroke:none"
         id="path128" /><path
         d="m 144.348,347.887 c 3.656,0 6.59,-2.93 6.59,-6.551 0,-2.199 -1.083,-4.137 -2.735,-5.328 1.043,0.637 2.227,0.976 3.508,0.976 3.625,0 6.559,-2.933 6.559,-6.558 0,-3.613 -2.934,-6.551 -6.559,-6.551 -2.156,0 -4.066,1.043 -5.262,2.641 l 0.035,-5.797 c 0.02,-3.602 2.95,-6.516 6.555,-6.516 3.59,0 6.512,2.883 6.555,6.461 0.054,-3.578 2.969,-6.461 6.558,-6.461 3.602,0 5.844,2.988 6.559,6.516 l 0.863,4.32 c -1.054,-0.715 -2.273,-1.266 -3.648,-1.266 -3.625,0 -6.555,2.938 -6.555,6.555 0,3.621 2.93,6.559 6.555,6.559 1.394,0 2.937,-0.063 4,-0.809 -1.285,1.195 -1.688,3.313 -1.688,5.203 0,3.625 2.942,6.559 6.559,6.559 0.543,0 0.824,0.125 1.328,0 0,0 -6.199,-58.004 -6.199,-58.031 0,-0.032 -59.082,-0.032 -59.082,0 0,0.027 -6.203,58.031 -6.203,58.031 0.5,0.125 0.785,0 1.324,0 3.621,0 6.562,-2.934 6.562,-6.559 0,-1.89 -0.406,-4.008 -1.683,-5.203 1.062,0.746 2.597,0.809 3.988,0.809 3.629,0 6.551,-2.938 6.551,-6.559 0,-3.617 -2.922,-6.555 -6.551,-6.555 -1.371,0 -2.582,0.551 -3.637,1.266 l 0.868,-4.32 c 0.703,-3.528 2.945,-6.516 6.554,-6.516 3.586,0 6.496,2.883 6.547,6.461 0.055,-3.578 2.969,-6.461 6.566,-6.461 3.606,0 6.528,2.914 6.555,6.516 l 0.031,5.797 c -1.195,-1.598 -3.109,-2.641 -5.265,-2.641 -3.625,0 -6.555,2.938 -6.555,6.551 0,3.625 2.93,6.558 6.555,6.558 1.285,0 2.469,-0.339 3.508,-0.976 -1.653,1.191 -2.735,3.129 -2.735,5.328 0,3.621 2.871,6.551 6.524,6.551"
         style="fill:#ffffff;fill-opacity:1;fill-rule:evenodd;stroke:none"
         id="path130" /><path
         d="M 178.168,301.977 H 110.73 v 5.144 h 67.438 v -5.144"
         style="fill:#231f20;fill-opacity:1;fill-rule:nonzero;stroke:none"
         id="path132" /></g></g></svg>
