<svg id="Lager_1" xmlns="http://www.w3.org/2000/svg" viewBox="0 0 807.5 200.6"><script xmlns=""/><style>.st0{fill:#013a14}.st1{fill:#0bb70b}</style><path class="st0" d="M317.5 84.1h-46v-44h-22.1v111h22.1v-45h46v45h23v-111h-23zM393.6 71.2a37 37 0 0 0-26.4 11.1 41.2 41.2 0 0 0-11.6 29.5c0 12.3 4.1 22.8 12 30.3a40 40 0 0 0 27.9 10.9c20.6 0 31.7-12.7 35.2-24.5l.2-.6-18.2-5.4-.2.5c-2.7 7.4-8.4 11.2-16.8 11.2-9.9 0-17.8-6.9-18.5-16.2h54.4v-.6-.6c.1-1.1.3-3.5.3-5.7-.1-25-14.4-39.9-38.3-39.9zm-16.1 31.9a16 16 0 0 1 16.4-13.8c11.3 0 15.9 7 16.4 13.8h-32.8zM535.9 71.7A26.6 26.6 0 0 0 512 83.8c-4-7.7-12.2-12.1-22.5-12.1a28 28 0 0 0-21.6 10V74h-21v77h22v-45c0-8.6 5.6-14.4 13.9-14.4s13.1 5 13.1 13.8v45.7h21V106c0-8.5 5.5-14.4 13.3-14.4 11 0 12.7 8.6 12.7 13.8v45.7h21v-49.9c0-9.6-3-17.3-8.6-22.5-5-4.5-11.8-7-19.4-7zM626.5 71.9c-7 0-15.9 2.7-21.2 10.1v-7.9h-22v77h22v-44.3c0-9.1 5.5-15.2 13.6-15.2 8.5 0 13.4 5.3 13.4 14.6v44.9h22v-48.5c0-19-10.6-30.7-27.8-30.7zM707 71.2a37 37 0 0 0-26.4 11.1 41.2 41.2 0 0 0-11.5 29.5c0 12.3 4.1 22.8 12 30.3a40 40 0 0 0 27.8 10.9c20.6 0 31.7-12.7 35.2-24.5l.2-.6-18.2-5.4-.2.5c-2.7 7.4-8.4 11.2-16.8 11.2-9.9 0-17.8-6.9-18.5-16.2H745v-.6-.6c.1-1.1.3-3.5.3-5.7-.1-25-14.4-39.9-38.3-39.9zm-16.5 31.9a16 16 0 0 1 16.4-13.8c11.3 0 15.9 7 16.4 13.8h-32.8zM805.8 93.1v-19h-15v-23h-20v11.8c0 7-4.3 11.3-11.5 11.3h-4.5v19h14V128c0 14.8 9.5 24.1 24.8 24.1 6.4 0 10.2-1.2 11.9-1.9l.4-.1V131l-.7.2c-2 .4-4 .6-6 .6-5.9 0-8.2-2.3-8.2-8.1V93.1h14.8z"/><path class="st1" d="M143.4 133V79.1c0-1-.5-2-1.3-2.6l-40.4-27.3a3.2 3.2 0 0 0-3.5 0L57.8 76.5c-.8.6-1.3 1.5-1.3 2.6V133c0 1.7 1.4 3.1 3.1 3.1h24.8c1.7 0 3.1-1.4 3.1-3.1v-25.8c0-1.7 1.4-3.1 3.1-3.1h18.8c1.7 0 3.1 1.4 3.1 3.1V133a3 3 0 0 0 3 3h24.9c1.7.1 3-1.2 3.1-2.9l-.1-.1z"/><path class="st1" d="M100.8 1.1a99.1 99.1 0 0 0-99.2 99.1v.1a97.5 97.5 0 0 0 18.2 57.1 3 3 0 0 1-.4 4L5.7 175A14.4 14.4 0 0 0 26 195.3l13.7-13.7a3 3 0 0 1 4-.3 99 99 0 0 0 60 18.1 100.5 100.5 0 0 0 96.2-101.5 99.2 99.2 0 0 0-99.1-96.8m0 173.2c-38.2 0-74-33.2-74-74a74 74 0 1 1 74 74"/></svg>