<?xml version="1.0" encoding="UTF-8" standalone="no"?>
<svg
   width="200"
   height="95"
   viewBox="0 0 200 95"
   fill="none"
   version="1.1"
   id="svg6"
   sodipodi:docname="hiq.svg"
   inkscape:version="1.1.2 (0a00cf5339, 2022-02-04)"
   xmlns:inkscape="http://www.inkscape.org/namespaces/inkscape"
   xmlns:sodipodi="http://sodipodi.sourceforge.net/DTD/sodipodi-0.dtd"
   xmlns="http://www.w3.org/2000/svg"
   xmlns:svg="http://www.w3.org/2000/svg">
  <defs
     id="defs10" />
  <sodipodi:namedview
     id="namedview8"
     pagecolor="#ffffff"
     bordercolor="#666666"
     borderopacity="1.0"
     inkscape:pageshadow="2"
     inkscape:pageopacity="0.0"
     inkscape:pagecheckerboard="0"
     showgrid="false"
     inkscape:zoom="5.39"
     inkscape:cx="98.794063"
     inkscape:cy="47.588126"
     inkscape:window-width="1920"
     inkscape:window-height="1051"
     inkscape:window-x="0"
     inkscape:window-y="0"
     inkscape:window-maximized="1"
     inkscape:current-layer="svg6" />
  <path
     d="M78.0867 20.9796C78.9283 19.3406 81.0699 17.1153 85.1745 16.6656C89.2792 16.2159 90.0863 18.6632 89.8218 19.7121C89.5572 20.7611 82.8095 35.9756 81.9209 38.2163C81.0253 40.4749 77.8509 40.0665 76.9052 38.9081C76.1326 37.9619 74.4589 35.9932 73.8319 35.0165C73.2049 34.0397 73.1433 33.297 73.6639 31.9337C73.6639 31.9337 77.245 22.6186 78.0867 20.9796Z"
     fill="#ffffff"
     id="path2"
     style="fill:#000000" />
  <path
     fill-rule="evenodd"
     clip-rule="evenodd"
     d="M196.671 49.5459C177.744 50.3857 158.898 52.4863 140.268 55.8327C129.789 73.8182 113.527 85.4656 102.482 85.0535C92.4109 84.6778 88.8035 77.3524 88.474 68.3332C75.736 72.2671 68.1081 75.3454 67.1952 75.7269C64.8945 76.6884 63.7692 76.0398 62.8288 75.0249C62.6581 74.8407 59.4699 70.745 59.3463 70.5629C58.9108 69.9212 58.4282 69.2473 59.052 67.5787C60.0699 64.856 64.4858 54.1932 64.4858 54.1932C60.2646 54.5692 56.1041 55.1561 52.0414 55.9048C45.9769 70.8463 37.5094 91.7232 36.9719 93.0638C36.009 95.4649 32.8294 95.5666 31.5083 93.7353C31.0782 93.1391 27.8584 89.0043 27.4106 88.3836C26.8236 87.5703 26.6466 86.8177 27.0299 85.4942C27.3966 84.228 32.6414 71.3008 37.4671 59.3509C31.9722 60.9312 26.7896 62.7348 22.0412 64.6187C18.6374 73.0278 14.5302 82.658 14.0166 83.8316C13.1181 85.8848 10.3465 86.345 8.77421 84.4239C8.52186 84.1155 6.45753 81.5014 6.24473 81.2261C5.25385 79.9441 5.13278 79.2382 5.58976 78.0517C5.82213 77.4483 7.04767 74.47 8.60313 70.6717C8.17807 70.8887 7.76041 71.1046 7.35015 71.3194C4.42804 72.4793 1.28139 68.5007 0.464634 67.4888C0.109511 67.0107 -0.050924 66.422 0.0141942 65.836C0.0793124 65.25 0.365384 64.7081 0.817373 64.3145C1.2355 63.9463 6.05892 60.5865 14.2696 56.6792C14.8158 55.3006 15.3003 54.0598 15.6859 53.044C20.3985 40.6309 26.5565 26.0493 27.4348 24.1623C28.3132 22.2752 29.9878 20.2322 34.3666 19.747C38.7453 19.2617 38.9226 21.6706 38.5531 22.8915C38.2343 23.9449 31.0033 41.4348 27.164 51.3504C32.1707 49.5741 37.2825 48.0902 42.4718 46.9065C43.0098 45.5579 43.4982 44.3272 43.9212 43.2522C49.7761 28.3711 56.7885 11.1306 57.7575 9.35118C58.7263 7.57173 60.9026 5.67869 65.5367 5.17004C70.171 4.66138 71.261 6.87875 71.0227 8.00485C70.7844 9.13092 63.8065 27.0429 58.0639 41.0804C57.8712 41.5515 57.3846 42.7476 56.6829 44.4742C59.9867 44.095 63.3967 43.8318 66.9041 43.7137C67.5287 43.6709 68.1561 43.7363 68.7571 43.907C70.3673 44.4755 74.4181 45.9387 76.068 46.5065C77.3835 46.9593 78.2034 48.3929 77.5988 49.9597C76.9942 51.5265 72.6625 62.139 72.6625 62.139C72.6625 62.139 78.6545 59.9216 89.4596 56.9703C90.6832 50.4701 92.8365 44.1642 94.9118 39.7184C111.794 3.55095 129.081 0.0510074 135.339 0.000485726C149.814 -0.116417 155.488 20.884 145.123 45.9922C160.065 44.0589 175.102 42.8854 190.17 42.4765C190.707 42.5835 190.75 42.8542 190.804 43.0219C190.877 43.2524 190.781 44.2036 189.978 44.2326C174.024 44.8103 167.713 46.0785 166.923 46.2624C165.777 46.5288 165.953 47.8093 167.774 47.5961C177.14 46.5276 186.562 45.9855 195.993 45.9724C196.258 45.9729 197.891 45.8859 199.1 47.0763C199.618 47.5859 201.459 49.233 197.645 49.5054C197.355 49.5172 197.065 49.5291 196.775 49.5413C196.739 49.5419 196.707 49.5432 196.67 49.5436L196.671 49.5459ZM123.765 59.0998C114.758 61.0595 106.608 63.1238 99.478 65.107C99.4655 70.334 101.396 73.3497 105.436 73.3978C110.52 73.4582 117.216 68.5467 123.765 59.0998ZM131.466 12.287C121.99 12.6066 110.842 29.2714 104.323 45.6373C103.149 48.5854 102.183 51.3565 101.43 53.923C109.557 51.9965 119.223 49.9821 130.187 48.1824C131.399 45.7767 132.58 43.2075 133.729 40.4747C140.4 24.5506 139.504 12.0159 131.466 12.287Z"
     fill="#ffffff"
     id="path4"
     style="opacity:1;fill:#000000" />
</svg>
