<?xml version="1.0" encoding="UTF-8"?>
<!-- Generator: Adobe Illustrator 20.1.0, SVG Export Plug-In . SVG Version: 6.00 Build 0)  -->
<svg version="1.1" id="Layer_1" xmlns="http://www.w3.org/2000/svg" xmlns:xlink="http://www.w3.org/1999/xlink" x="0px" y="0px" viewBox="0 0 380 78.8" style="enable-background:new 0 0 380 78.8;" xml:space="preserve"><script xmlns=""/>
<style type="text/css">
	.st0{fill:#FF0000;}
	.st1{fill:#FFFFFF;}
	.st2{fill:#1D1D1B;}
</style>
<rect x="364.2" y="43.6" class="st0" width="15.8" height="15.8"/>
<g>
	<path class="st1" d="M370.4,48.2h2.1c0.9,0,1.4,0.4,1.4,1.2c0,0.9-0.5,1.3-1.4,1.3h-2.1V48.2z M368.4,55.6h2v-3.5h2   c1,0,1.4,0.4,1.5,1.4c0.1,0.7,0.1,1.6,0.3,2.1h2c-0.3-0.5-0.3-1.5-0.4-2.1c-0.1-0.9-0.3-1.8-1.3-2.1l0,0c1-0.4,1.4-1.2,1.4-2.2   c0-1.3-1-2.5-2.6-2.5h-4.8L368.4,55.6L368.4,55.6z"/>
	<polygon class="st0" points="15.8,59.4 0,59.4 0,0 26.6,0 38.6,37.3 39.1,37.3 50.5,0 77.8,0 77.8,59.4 62,59.4 62,13.8 46.2,59.4    31.7,59.4 15.8,13.8  "/>
	<path class="st2" d="M102.4,41.2c0.9,6.3,5.7,8.8,13.4,8.8c4.3,0,9.2-1,13.9-3.5v11.1c-5.1,2-10.9,2.9-16.7,2.9   c-15.1,0-26.5-8.8-26.5-23.9s10.2-23.8,24.4-23.8c16.9,0,23,12,23,25.6v2.9h-31.5C102.4,41.3,102.4,41.2,102.4,41.2z M119.7,32.3   c0-5.3-2.4-9.5-8.8-9.5c-5.7,0-8.4,4.3-8.8,9.5H119.7z"/>
	<path class="st2" d="M191.5,54.1c0,18.7-9.1,24.8-27.5,24.8c-7.5,0-13.7-1.6-17.4-2.9l0.8-12.4c4.8,2.4,8.8,3.8,15.4,3.8   c9.1,0,14-4.3,14-13.2v-2.5h-0.2c-3.8,5.3-9,7.8-15.3,7.8c-12.5,0-20.3-9.5-20.3-22.9c0-13.6,6.4-23.7,20.6-23.7   c6.7,0,12.2,3.7,15.5,9.3h0.2V14h14.3v40.1H191.5z M166.2,47.3c5.6,0,10.1-4.7,10.1-11.7c0-5.1-3-10.8-10.1-10.8   c-5.9,0-8.9,5.2-8.9,11.4C157.3,43.3,161.5,47.3,166.2,47.3"/>
	<path class="st2" d="M251,54.1c0,18.7-9.1,24.8-27.5,24.8c-7.5,0-13.7-1.6-17.4-2.9l0.8-12.4c4.8,2.4,8.8,3.8,15.4,3.8   c9.1,0,14-4.3,14-13.2v-2.5h-0.2c-3.8,5.3-9,7.8-15.3,7.8c-12.5,0-20.3-9.5-20.3-22.9c0-13.6,6.4-23.7,20.6-23.7   c6.7,0,12.2,3.7,15.5,9.3h0.2V14H251V54.1L251,54.1z M225.7,47.3c5.6,0,10.1-4.7,10.1-11.7c0-5.1-3-10.8-10.1-10.8   c-5.9,0-8.9,5.2-8.9,11.4C216.8,43.3,221,47.3,225.7,47.3"/>
	<path class="st2" d="M276,41.2c0.9,6.3,5.7,8.8,13.4,8.8c4.3,0,9.2-1,13.9-3.5v11.1c-5.1,2-10.9,2.9-16.7,2.9   c-15.1,0-26.5-8.8-26.5-23.9s10.2-23.8,24.4-23.8c16.9,0,23,12,23,25.6v2.9H276V41.2z M293.3,32.3c0-5.3-2.5-9.5-8.8-9.5   c-5.7,0-8.4,4.3-8.8,9.5H293.3z"/>
	<path class="st2" d="M347.5,32.2h14.7h1.8c0-6-1.8-10.4-1.9-10.7c-2.5-6-7.8-8.8-14.3-8.8c-7.2,0-13.5,2.9-16.6,9.5H331v-8.4h-14.4   v45.6h15.8V40.1c0-9.8,3.3-14.3,8.9-14.3C345.1,25.9,347,28.4,347.5,32.2"/>
</g>
</svg>