<svg xmlns="http://www.w3.org/2000/svg" viewBox="0 0 691.5 263.6"><script xmlns=""/>
    <defs/>
    <path fill="none" d="M0 0h691.5v263.6H0z"/>
    <g>
        <path fill="#fdcc12" d="M222.4 377a8.9 8.9 0 0 1-3.4 4.5c-1 .8-.7 1.4-.2 2.8 2 5-7.3 3.5-9.8 3.8 1.8 3.5-1.8 4.8-4.4 4.7h-4v.2c-1.6 5.4-21.8 1.5-27.9-6a3.4 3.4 0 0 1-2.8 2c-1 0-2-.8-2.8-2-6.1 7.6-26.3 11.4-27.8 6v-.3l-4 .1c-2.7.1-6.3-1.1-4.5-4.6-2.5-.4-11.7 1-9.8-3.9.5-1.4.8-2-.2-2.8a9 9 0 0 1-3.5-4.5l-3.6 2-4-7.3-4.3 2.4h-.1a10 10 0 0 1-3.8-3.7 8.7 8.7 0 0 1-1.1-5l.1-.2 4.3-2.4.1.2-4.1-7.5 5.2-3c-4.1-1.5-9.7-.5-10.2-3.6-.3-1-.1-1.2-1.7-2s-5-1.2-3.5-2.8c-2.4-.8-9.7-4.2-4.5-8.3a27.8 27.8 0 0 1-11.8-21.7c1.2.6 15.2 7.2 24-6l-15-8.1 4-7.3-4.3-2.4h-.1A10 10 0 0 1 84 285a8.7 8.7 0 0 1 3.7-3.7h.2l1.8 1c-1.2-2-11.3-17-4.8-19.1-1-5-1-9.3 2.7-8.6 1.2-4 7-11.2 11-.7a5.8 5.8 0 0 1 1.3.2c1.1.1 2 1 4.8-1.8 2-1.4 9.1-4.3 7.5 3.4-.6 3.2-1.5 5.2 2.4 3l.7 8.3c-3 1.4-4 5.2.4 3.1v.2l.5 5.9v.3c-1 2.8-3.8 6.2-5.3 8l-.1-.1 6.6 3.6 4 43.4c.6 15.4 13 28.7 30.5 34.3h.2a34.4 34.4 0 0 0 3.6 3.8c1.3 1.1.3-.8-.4-2.8h.2a58.4 58.4 0 0 0 7 1.3h.5a21.2 21.2 0 0 0 4.6 5v-.1a2.6 2.6 0 0 1 4.5 0 21.4 21.4 0 0 0 4.6-4.9h.3a59.1 59.1 0 0 0 7.4-1.4c-.7 2-1.7 4-.4 2.9a34.4 34.4 0 0 0 3.6-3.7h-.3c17.7-5.4 30.3-18.7 31-34.5l4.2-43.2v-.2l6.2-3.4h.2a31 31 0 0 1-5.4-8l.1-.2.6-6.2h-.1c4.4 2.1 3.3-1.7.3-3.2h.1l.8-8.2-.1-.1c3.8 2.2 3 .2 2.4-3-1.7-7.7 5.4-4.8 7.4-3.3 3 2.7 3.7 1.8 4.9 1.7a5.7 5.7 0 0 1 1.4-.1h-.2c4.1-10.6 9.9-3.3 11 .6 3.7-.7 3.7 3.6 2.8 8.6 6.5 2.2-3.6 17-4.9 19.2l1.8-1h.2a8.7 8.7 0 0 1 3.7 3.6 10.1 10.1 0 0 1 1.1 5.2l-4.4 2.4v.1l4 7.3-14.9 8.2c8.8 13.2 22.9 6.6 24 6a27.9 27.9 0 0 1-11.9 21.7h.1c5.2 4-2 7.4-4.5 8.2 1.5 1.6-1.8 2-3.5 2.9s-1.3.8-1.7 2c-.4 3-6 2-10.2 3.6h.1l5.1 2.9-4 7.3 4.4 2.4h.1a8.7 8.7 0 0 1-1 5.2 10 10 0 0 1-3.9 3.7h-.1l-4.3-2.5v.2l-4 7.2-3.6-2z" transform="translate(-69.2 -136.8)"/>
        <path fill="#fdcc12" d="M160.3 301.8l3.8-37.5c-5.4-1.1-6.4 7.3-4.8 9.1-6.7.9-4.2 7.8-.4 7.8-1.8 6.6-12.2 5-13-.4 7.7 3.6 9-8.7.9-6.8 2.3-6.3-.4-9.6-3.2-9.6s-5.6 3.3-3.3 9.6c-8-2-6.8 10.4.9 6.8-.8 5.4-11.1 7-13 .4 3.8 0 6.3-7-.4-7.8 1.7-1.8.6-10.2-4.8-9.1l3.8 37.5zM213 301.8l3.8-37.5c-5.4-1.1-6.4 7.3-4.8 9.1-6.7.9-4.2 7.8-.4 7.8-1.8 6.6-12.2 5-13-.4 7.7 3.6 9-8.7.9-6.8 2.3-6.3-.4-9.6-3.2-9.6s-5.6 3.3-3.3 9.6c-8-2-6.8 10.4.9 6.8-.8 5.4-11.1 7-13 .4 3.8 0 6.3-7-.4-7.8 1.7-1.8.6-10.2-4.8-9.1l3.8 37.5zM188.3 352.5l4.2-41.4c-6-1.2-7.2 8.1-5.3 10.1-7.4 1-4.7 8.5-.4 8.5-2.1 7.4-13.5 5.6-14.4-.4 8.5 4 9.9-9.6 1-7.5 2.6-7-.5-10.5-3.6-10.6s-6.2 3.6-3.6 10.6c-8.9-2.1-7.5 11.5 1 7.5-.9 6-12.3 7.8-14.4.4 4.3 0 7-7.6-.4-8.5 1.9-2 .7-11.3-5.3-10l4.2 41.3zM164.2 171.9l-4 31.8 5.2 3.1a12 12 0 0 0 .9 2.8c-13-2.2-13 10.6-.2 7.3-1.7 2.7-4.6 6.5-10 4.5-2.7 3.1-11.7 1.8-12.7-2.5C157 221 157 207 143 212a18 18 0 0 0 .4-2.2v-.1l6.4-5.4c-.2-8.6-.2-22.2 14.3-32.5zm11.6 0c14.5 10.2 14.5 23.8 14.3 32.4l6.3 5.4a17.2 17.2 0 0 0 .5 2.3c-14-5-14 9-.3 7-1 4.2-10 5.6-12.7 2.4-5.5 2-8.4-1.8-10-4.4 12.8 3.2 12.8-9.5-.2-7.3a11.8 11.8 0 0 0 .8-2.8l5.2-3.2-3.9-31.8zm-38.1 11.6a85.7 85.7 0 0 0-7.9 20.5l4.5 4.2a18.5 18.5 0 0 0 1.7 4.8c-13.2-.8-11.7 12.7 1.5 7-.8 4-5 5.7-10 4.3-1.6 4.2-7.6 6.2-13.1.8 12 1.5 14-12 1.6-7.8 1-8.9 7.3-23.3 21.8-33.9zm3.9-5.8a55 55 0 0 0-28.4 38c-2.2-3.9-7.3-9.7-12.3-5.8 3.7 4.6 5.4 8.5 6 11.7a1.9 1.9 0 1 0 .5 3.7c.6 3.6 1.8 8 5 9a2.6 2.6 0 0 0 1.4 3.6 7.9 7.9 0 0 0 3 7 4.3 4.3 0 0 0 .3 4.5h.3c13-3.4 31.6-5.6 52.3-5.6 20.8 0 39.7 2.2 52.8 5.8l.2-.1a4.3 4.3 0 0 0 .4-4.6 7.9 7.9 0 0 0 3-7 2.6 2.6 0 0 0 1.4-3.6c3.2-1 4.4-5.4 5-9a1.9 1.9 0 1 0 .5-3.7v.1c.6-3.2 2.3-7.1 6-11.8-5-3.9-10.1 2-12.3 5.8a55 55 0 0 0-28.4-38 39.1 39.1 0 0 0-6-6.2l-.1-.1a3.5 3.5 0 0 0-3.3-2.5h-.2l-2.9-1.7h.1a2.8 2.8 0 0 0-2.5-1.6 2.8 2.8 0 0 0-.7 0l-2.5-.8-.1-.1a2.3 2.3 0 0 0-2.8-.8l-1.1-.4h-.1a7.1 7.1 0 0 1-4.2 3.3h-.1a2 2 0 0 0 .2-.8 2.1 2.1 0 1 0-4.2 0 2.3 2.3 0 0 0 0 .8h.2a7.1 7.1 0 0 1-4.3-3.3h-.2l-1 .4a2.3 2.3 0 0 0-2.8.7l-.1.1-2.5 1h.1a2.8 2.8 0 0 0-3.3 1.4l-2.9 1.7h-.1a3.5 3.5 0 0 0-3.3 2.5l-.1.1a39 39 0 0 0-6 6.2zm60.5 5.7a52.5 52.5 0 0 1 21.9 33.9c-12.6-4.3-10.5 9.3 1.5 7.8-5.6 5.4-11.5 3.4-13.2-.8-5 1.3-9.2-.3-9.9-4.4 13.2 5.7 14.6-7.8 1.5-7a18.4 18.4 0 0 0 1.7-4.6v-.1l4.5-4.2a85.6 85.6 0 0 0-7.8-20.5zm-39-21.5h13.7a7.2 7.2 0 0 0 0-4H172v-8.3h3.8v-4H172V142h-4v3.7h-3.8v4h3.8v8.4h-4.9a7.2 7.2 0 0 0 0 4zM140 217.2a1.4 1.4 0 1 1 1.4-1.4 1.4 1.4 0 0 1-1.4 1.4zm28.5-4.1a1.4 1.4 0 1 1 1.4 1.3 1.4 1.4 0 0 1-1.4-1.3zm31.4 1.3a1.4 1.4 0 1 1-1.4 1.4 1.4 1.4 0 0 1 1.4-1.4zm34 8.2a1.4 1.4 0 0 1 .2.9 1.7 1.7 0 0 1 0 .1 1.4 1.4 0 0 1-.5 1 1.4 1.4 0 0 1-.5.1l.2-1.8v-.1-.5a1.3 1.3 0 0 1 .6.3zm-29.4-21a4.3 4.3 0 0 0-1.2-.6l-.4-.2h-.1a4.3 4.3 0 0 0-1.2-.1h-.2a4.4 4.4 0 0 0-.7 0 4.4 4.4 0 0 0-.6.2l-.3.1a4.2 4.2 0 0 0-.5.3 5.4 5.4 0 0 0-1.1.8 5 5 0 0 1-2.2-4.1 5 5 0 1 1 8.5 3.6zm-6.4-10a4.3 4.3 0 1 1 4.3-4.3 4.3 4.3 0 0 1-4.3 4.3zm-.8-12.8a3.4 3.4 0 1 1-3.4-3.4 3.4 3.4 0 0 1 3.4 3.3zm-8.3-9.4a3 3 0 1 1-3 3 3 3 0 0 1 3-3zm-5.5-3.4a2.3 2.3 0 1 1-2.3 2.3 2.3 2.3 0 0 1 2.3-2.3zm-17 13a3.5 3.5 0 1 1 3.5 3.5 3.5 3.5 0 0 1-3.4-3.4zm7.2 8.6a3.8 3.8 0 0 1-2.1 3.4 5.7 5.7 0 0 0-1.7-.3 5.6 5.6 0 0 0-1.6.3 3.8 3.8 0 1 1 5.4-3.4zm-3.8-13.5a2.6 2.6 0 1 1 2.6-2.6 2.6 2.6 0 0 1-2.6 2.7zm0-6.6a1.6 1.6 0 1 1 1.6-1.6 1.6 1.6 0 0 1-1.5 1.6zm-4.8 29a4.8 4.8 0 0 1 3.2-4.5h.2a4.6 4.6 0 0 1 1.3-.2 4.7 4.7 0 0 1 1.5.2 4.8 4.8 0 0 1 3.3 4.5 4.7 4.7 0 0 1-1 2.8 4.3 4.3 0 0 0-2.6-1.5h-1.7a4.2 4.2 0 0 0-.5 0 4.3 4.3 0 0 0-2.6 1.6 4.7 4.7 0 0 1-1-2.9zm13.1-32.4a1.9 1.9 0 1 1-1.8 1.9 1.9 1.9 0 0 1 1.9-1.8zm-16.6 0a1.9 1.9 0 1 1-1.8 1.9 1.9 1.9 0 0 1 1.9-1.8zm-5.1 1.9a2.3 2.3 0 1 1-2.3 2.3 2.3 2.3 0 0 1 2.3-2.3zm-19 21.3a4.3 4.3 0 1 1 4.4 4.3 4.3 4.3 0 0 1-4.3-4.3zM134 198a5 5 0 0 1 10.1 0 5 5 0 0 1-2.2 4.1 5.3 5.3 0 0 0-1-.8 4.3 4.3 0 0 0-.6-.3h-.3a5 5 0 0 0-.6-.2 4.4 4.4 0 0 0-.7-.1h-.2a4.4 4.4 0 0 0-1.2.1h-.1l-.4.2a4.3 4.3 0 0 0-1.2.6 5 5 0 0 1-1.6-3.6zm17.1-28.6a3 3 0 1 1-3 3 3 3 0 0 1 3-3zm-5 6a3.4 3.4 0 1 1-3.4 3.4 3.4 3.4 0 0 1 3.4-3.5zm-40.2 48.3a1.4 1.4 0 0 1 0-.2 1.3 1.3 0 0 1 .7-1.2l.1.4v.2l.3 1.9a1.4 1.4 0 0 1-1-1.2z" transform="translate(-69.2 -136.8)"/>
    </g>
    <g>
        <path fill="#fb0f0c" d="M134.3 208.2l-4.5-4.2 1.1-4h.1a2.2 2.2 0 0 1-1.3.4 7.8 7.8 0 0 0-5.8 3.3c-1.6 2-3.3 3.2-4.9 3a38.4 38.4 0 0 0-3 10.6c12.5-4.2 10.4 9.4-1.6 7.9 5.6 5.4 11.6 3.4 13.2-.8 5 1.4 9.2-.3 10-4.3-13.3 5.7-14.7-7.8-1.6-7a18.3 18.3 0 0 1-1.7-4.8zM165.4 206.8l-5.1-3.1 1.6-13.4c-2-1-5.4.6-6.3 1s-3 1.5-5 .8v-.1a54.6 54.6 0 0 0-.7 12.3l-6.3 5.4a17.3 17.3 0 0 1-.5 2.3c14-5 14 9.1.3 7 1 4.2 10 5.6 12.7 2.4 5.5 2 8.4-1.7 10-4.4-12.7 3.2-12.7-9.5.2-7.3a11.9 11.9 0 0 1-.8-3zM224 217.3a38.4 38.4 0 0 0-3-10.7v.2c-1.6 0-3.3-1-4.9-3.1a7.8 7.8 0 0 0-5.9-3.3 2.1 2.1 0 0 1-1.2-.3l1.2 4-4.5 4.1a18.1 18.1 0 0 1-1.8 4.8c13.2-.8 11.7 12.7-1.5 7 .8 4 5 5.7 10 4.3 1.6 4.2 7.6 6.2 13.1.8-12 1.5-14-12-1.5-7.8zM196.4 209.7l-6.3-5.4a55 55 0 0 0-.8-12.2c-1.8.7-4-.3-5-.8s-4.2-2-6.2-.9l1.6 13.3-5.2 3.1v.2a11.5 11.5 0 0 1-.8 2.7c13-2.2 13 10.5.2 7.3 1.7 2.6 4.6 6.4 10 4.4 2.7 3.2 11.7 1.8 12.7-2.5-13.6 2.2-13.7-11.9.3-6.9a17.7 17.7 0 0 1-.4-2.2z" transform="translate(-69.2 -136.8)"/>
    </g>
    <g>
        <path fill="#1862a8" d="M296.4 254h43c21.9 0 33.3 10 33.3 33.5S356.8 323 337.2 323H317v33h-20.6zM317 305h20c6.8 0 15-3.8 15-15.8 0-14-9.6-14.4-19.9-14.4H317zM416.8 268c28.4 0 40.3 15.8 40.3 44 0 30-13.8 46.5-40.3 46.5S376.5 342 376.5 312c0-28.1 12-43.9 40.3-43.9zm21.4 44.6c0-13.8-5.5-24-21.3-24s-21.4 10.2-21.4 24c0 16.8 5.7 28.6 21.3 28.6s21.4-11.8 21.4-28.6zM468 249.7h20.6V356H468zM502.7 270.4c2.6 1.5 6.2 2.4 10.6 2.4a20.8 20.8 0 0 0 10-2.4V356h-20.6zm10.3-23.6c8.4 0 12.4 1.7 12.4 8.7 0 5.3-3.6 8.6-12.4 8.6s-12.4-3.3-12.4-8.6c0-7 4-8.7 12.4-8.7zM536.3 326.5c4.6 9.2 12.1 14.7 24 14.7 4.8 0 12.8-2.2 12.8-10 0-13.8-38.5-5.7-38.5-34.4 0-17.4 13.4-28.8 30.8-28.8 9.2 0 17.9 3.3 22.7 9.9V300c-3.7-9-12.5-13.2-22-13.2-6.5 0-12.5 3.7-12.5 8.8 0 14.8 37.6 3.7 37.6 34.9 0 17.2-13.9 27.9-30.5 27.9a33.7 33.7 0 0 1-24.4-10zM668.3 344a38.3 38.3 0 0 1-28.8 14.5c-28 0-40.4-18.7-40.4-45.8 0-27.3 13.8-44.7 38.2-44.7 25.8 0 35.3 16.9 35.3 41.7 0 3.6-.5 7.2-.7 10.6h-53c.2 14.8 8.8 21.7 23.3 21.7 14.2 0 20-6.5 26.1-16.2zm-9.8-40.2c-.4-11.4-9.8-16.9-20.2-16.9-9.4 0-18.5 6-19.5 16.9zM683.8 270.4h19.8v21.3h.2c3.6-12.8 12.8-23.7 27.5-23.7 20.9 0 25.1 15 25.1 31.3V356h-20.6v-47.3c0-11.9-1-21-13.3-21-13.4 0-18.1 11.7-18.1 23.4V356h-20.6zM176.9 158H172v-5a7.1 7.1 0 0 1 4.9 5zM163.1 158h4.9V153a7.2 7.2 0 0 0-4.9 4.9zM171.9 166.8a2 2 0 0 0 .2-.9 2.1 2.1 0 1 0-4.2 0 2.2 2.2 0 0 0 .1.8 7.2 7.2 0 0 1-4.9-4.8h13.7a7.1 7.1 0 0 1-5 4.8zM218.3 331.5c-.9 20.6-22.2 37-48.5 37s-47.6-16.8-48.4-37l-7.6-81.1a206 206 0 0 1 56-6.6 202 202 0 0 1 56.3 6.8zm-58-29.7l3.8-37.5c-5.4-1.1-6.5 7.3-4.8 9.1-6.7.8-4.2 7.8-.4 7.8-1.8 6.6-12.2 5-13-.4 7.7 3.6 9-8.7.9-6.8 2.3-6.3-.4-9.6-3.3-9.6s-5.5 3.3-3.2 9.6c-8-2-6.8 10.4.9 6.8-.8 5.4-11.2 7-13 .4 3.8 0 6.3-7-.4-7.8 1.6-1.8.6-10.2-4.8-9.1l3.8 37.5zm52.7 0l3.8-37.5c-5.4-1.1-6.5 7.3-4.8 9.1-6.7.8-4.2 7.8-.4 7.8-1.8 6.6-12.2 5-13-.4 7.7 3.6 9-8.7.9-6.8 2.3-6.3-.4-9.6-3.3-9.6s-5.5 3.3-3.2 9.6c-8-2-6.8 10.4.9 6.8-.8 5.4-11.2 7-13 .4 3.8 0 6.3-7-.4-7.8 1.7-1.8.6-10.2-4.8-9.1l3.8 37.5zm-24.8 50.7l4.3-41.4c-6-1.2-7.2 8-5.3 10-7.4 1-4.7 8.6-.5 8.6-2 7.4-13.4 5.6-14.3-.4 8.5 4 9.9-9.6 1-7.5 2.6-7-.5-10.6-3.6-10.6s-6.2 3.6-3.6 10.6c-9-2.1-7.5 11.5 1 7.5-1 6-12.3 7.7-14.4.4 4.3 0 7-7.6-.4-8.5 1.8-2 .7-11.3-5.3-10l4.2 41.3z" transform="translate(-69.2 -136.8)"/>
    </g>
    <g>
        <path fill="#fff" d="M140 217.5a1.7 1.7 0 1 1 1.7-1.7 1.7 1.7 0 0 1-1.7 1.7zM170 214.7a1.7 1.7 0 1 1 1.6-1.6 1.7 1.7 0 0 1-1.7 1.6zM199.9 217.5a1.7 1.7 0 1 1 1.7-1.7 1.7 1.7 0 0 1-1.7 1.7zM232.7 225.1v-.4l.3-1.8.2-1.1.4.2a1.7 1.7 0 0 1 .5.4 1.7 1.7 0 0 1 .4 1 1.6 1.6 0 0 1 0 .3 1.6 1.6 0 0 1-.7 1 1.3 1.3 0 0 1-.6.3zM229.7 209.8a5.3 5.3 0 1 1 5.3-5.4 5.3 5.3 0 0 1-5.3 5.4zM224.3 199.7a5 5 0 1 1 5-5 5 5 0 0 1-5 5zM217.6 191.4a4.1 4.1 0 1 1 4.1-4 4.1 4.1 0 0 1-4 4zM211.3 185.3a3.6 3.6 0 1 1 3.6-3.6 3.6 3.6 0 0 1-3.6 3.6zM205.1 180.9a2.9 2.9 0 1 1 2.9-2.9 2.9 2.9 0 0 1-2.9 2.9zM198.2 202.5l-.2-.2a5.3 5.3 0 0 1-2.3-4.3 5.3 5.3 0 1 1 10.7 0 5.3 5.3 0 0 1-1.7 3.8l-.2.2-.2-.2a4 4 0 0 0-1-.6l-.5-.1a4 4 0 0 0-1.1-.1h-.3a5.1 5.1 0 0 0-.7 0 4.6 4.6 0 0 0-.5.2l-.3.1a4.5 4.5 0 0 0-.5.3 5 5 0 0 0-1 .7zM198 191.9a4.6 4.6 0 1 1 4.7-4.6 4.6 4.6 0 0 1-4.6 4.6zM200 177.6a2.4 2.4 0 1 1 2.3-2.4 2.4 2.4 0 0 1-2.4 2.4zM194 182.5a3.7 3.7 0 1 1 3.6-3.8 3.7 3.7 0 0 1-3.7 3.8zM189 175.7a3.3 3.3 0 1 1 3.3-3.3 3.3 3.3 0 0 1-3.3 3.3zM183.5 170.9a2.6 2.6 0 1 1 2.6-2.6 2.6 2.6 0 0 1-2.6 2.6zM170 182.8a3.8 3.8 0 1 1 3.8-3.7 3.8 3.8 0 0 1-3.8 3.7zM171.6 191.3h-.1a5.5 5.5 0 0 0-3.2 0h-.2a4 4 0 0 1-2.3-3.7 4 4 0 1 1 5.9 3.7zM170 174.5a3 3 0 1 1 2.8-3 3 3 0 0 1-2.9 3zM170 167.8a2 2 0 1 1 2-1.9 2 2 0 0 1-2 2zM166.2 199.9l-.3-.3a5 5 0 0 1-1-3 5 5 0 0 1 3.4-4.9h.2a5 5 0 0 1 3 0 5 5 0 0 1 2.5 7.8l-.2.3-.3-.3a4 4 0 0 0-2.4-1.4v-.3.3a4 4 0 0 0-.4 0H169a4 4 0 0 0-2.6 1.5zM178.3 168.2a2.1 2.1 0 1 1 2.1-2.2 2.1 2.1 0 0 1-2.1 2.2zM161.7 168.2a2.1 2.1 0 1 1 2.1-2.2 2.1 2.1 0 0 1-2.1 2.2zM156.5 170.9a2.6 2.6 0 1 1 2.6-2.6 2.6 2.6 0 0 1-2.6 2.6zM141.9 191.9a4.6 4.6 0 1 1 4.6-4.6 4.6 4.6 0 0 1-4.6 4.6zM141.8 202.5l-.2-.2a5.1 5.1 0 0 0-1-.8 4.1 4.1 0 0 0-.5-.2l-.3-.1a3.9 3.9 0 0 0-.6-.2 4.6 4.6 0 0 0-.6 0h-.3a4 4 0 0 0-1 0h-.2l-.4.2a4.2 4.2 0 0 0-1 .6l-.2.2-.2-.2a5.3 5.3 0 0 1-1.7-3.9 5.3 5.3 0 1 1 10.7 0 5.3 5.3 0 0 1-2.3 4.4zM151 175.7a3.3 3.3 0 1 1 3.3-3.3 3.3 3.3 0 0 1-3.3 3.3zM146 182.5a3.7 3.7 0 1 1 3.7-3.8 3.7 3.7 0 0 1-3.7 3.8zM140 177.6a2.4 2.4 0 1 1 2.4-2.4 2.4 2.4 0 0 1-2.4 2.4zM134.8 180.9a2.9 2.9 0 1 1 2.9-2.9 2.9 2.9 0 0 1-2.9 2.9zM128.7 185.3a3.6 3.6 0 1 1 3.6-3.6 3.6 3.6 0 0 1-3.7 3.6zM122.3 191.4a4.1 4.1 0 1 1 4.1-4 4.1 4.1 0 0 1-4 4zM115.6 199.7a5 5 0 1 1 5.1-5 5 5 0 0 1-5 5zM110.3 209.8a5.3 5.3 0 1 1 5.3-5.4 5.3 5.3 0 0 1-5.3 5.4zM107.3 225.2l-.5-.1a1.7 1.7 0 0 1-1.3-1.4 1.9 1.9 0 0 1 0-.2 1.6 1.6 0 0 1 .3-1 1.6 1.6 0 0 1 .6-.5l.4-.2.2 1 .2 2z" transform="translate(-69.2 -136.8)"/>
    </g>
    <g>
        <path d="M140 213.4a2.4 2.4 0 1 0 2.4 2.4 2.4 2.4 0 0 0-2.4-2.4zm0 3.8a1.4 1.4 0 1 1 1.4-1.4 1.4 1.4 0 0 1-1.4 1.4zM172.3 213a2.4 2.4 0 1 0-2.4 2.4 2.4 2.4 0 0 0 2.4-2.3zm-3.8 0a1.4 1.4 0 1 1 1.4 1.4 1.4 1.4 0 0 1-1.4-1.3zM199.9 218.2a2.4 2.4 0 1 0-2.4-2.4 2.4 2.4 0 0 0 2.4 2.4zm0-3.8a1.4 1.4 0 1 1-1.4 1.4 1.4 1.4 0 0 1 1.4-1.4z" transform="translate(-69.2 -136.8)"/>
        <path d="M265.4 313.7c-.6.3-14.2 7.3-23-5.3l14.7-8.2-4-7.3 3.8-2.2.4-.1v-.3-.7a10.7 10.7 0 0 0-1.2-4.8 9.2 9.2 0 0 0-4-3.8l-.2-.1h-.2l-.2.1-.2.1c3-4.8 6.1-10.5 6.1-14.4a5.2 5.2 0 0 0-.2-1.8 3.3 3.3 0 0 0-1.9-1.9 26.4 26.4 0 0 0 .5-4.4c0-1.8-.4-3-1-3.7a2.8 2.8 0 0 0-2.4-.7c-1-2.6-3.3-6-6.2-6.1-2.2-.1-4 1.7-5.6 5.5a6.8 6.8 0 0 0-1 .1l-.5.1c-.9.2-1.6.4-3.8-1.7-1.4-1-5.1-2.7-7.2-1.3-1.3.8-1.6 2.6-1 5.2l.1 1a12.7 12.7 0 0 1 .3 2 .6.6 0 0 1 0 .3s-.4 0-1.7-.7l.8-8.3-.4-.2-2.8-.8a5 5 0 0 0 .7-2.5 4.4 4.4 0 0 0-.5-1.8 8.3 8.3 0 0 0 3-6.4v-.4a3 3 0 0 0 1.7-2.6 3.6 3.6 0 0 0-.2-1c3-1.3 4.2-5.3 4.8-8.8a2.3 2.3 0 0 0 1.3-.4 2.4 2.4 0 0 0 .9-1.6 2.3 2.3 0 0 0-.5-1.7 2.4 2.4 0 0 0-1-.8c.7-3.5 2.7-7.2 5.8-11l.3-.5-.4-.3a5.8 5.8 0 0 0-5-1.2 6 6 0 0 0-4.7-9.9 5.8 5.8 0 0 0-1 .1 5.8 5.8 0 0 0-4.3-9.6 5.6 5.6 0 0 0-2.4.6 4.8 4.8 0 0 0-6.6-6.4 4.3 4.3 0 0 0 .3-1.3 4.3 4.3 0 0 0-7-3.4 3.2 3.2 0 0 0 0-.4 3.5 3.5 0 0 0-5.7-2.8 3 3 0 0 0-6.1 0 37.8 37.8 0 0 0-4.1-4 4 4 0 0 0-3.7-2.8l-2.6-1.6a3.3 3.3 0 0 0-3-1.8 3.4 3.4 0 0 0-.7.1l-2.2-.8a2.8 2.8 0 0 0-2.3-1.1 2.9 2.9 0 0 0-.8.1l-.6-.2.3-.7.1-.4v-.2l.2-.6v-.1-.5-.1-.6-.7-.2-.6l-.2-.5v-.4a7.7 7.7 0 0 0-4.8-4.8V150h3.7v-5h-3.7v-3.6h-5v3.7h-3.7v4.9h3.7v2.6a7.6 7.6 0 0 0-4.7 4.8v.4l-.1.5-.1.7v2.1c0 .2 0 0 0 0l.1.6.1.3.1.4a7.8 7.8 0 0 0 .3.7l-.6.2a3 3 0 0 0-.8-.2 2.8 2.8 0 0 0-2.2 1.1l-2.3.9a3.3 3.3 0 0 0-.7-.1 3.3 3.3 0 0 0-3 1.8l-2.5 1.6a4 4 0 0 0-3.8 2.8 38 38 0 0 0-4.1 4 3 3 0 0 0-6.1 0 3.5 3.5 0 0 0-5.7 2.8v.3a4.3 4.3 0 0 0-2.7-.9 4.3 4.3 0 0 0-4.3 4.3 4.3 4.3 0 0 0 .3 1.4 4.7 4.7 0 0 0-2.3-.6 4.8 4.8 0 0 0-4.3 7 5.7 5.7 0 0 0-2.4-.6 5.8 5.8 0 0 0-4.2 9.6 5.8 5.8 0 0 0-1.1-.1 6 6 0 0 0-4.7 9.8 5.8 5.8 0 0 0-5 1.3l-.4.3.3.4a28 28 0 0 1 5.8 11 2.4 2.4 0 0 0 .7 4.6c.6 3.4 1.8 7.5 4.8 8.7a3.6 3.6 0 0 0-.2 1 3 3 0 0 0 1.7 2.7v.4a8.3 8.3 0 0 0 3 6.4 4.3 4.3 0 0 0-.5 1.8 5 5 0 0 0 .6 2.4l-2.7.8h-.4l.8 8.5c-1.5.8-1.9.8-2 .7a.6.6 0 0 1 0-.2 12.3 12.3 0 0 1 .4-2l.2-1a10.3 10.3 0 0 0 .2-2.2 3.4 3.4 0 0 0-1.3-3c-2.1-1.4-5.8.3-7.2 1.3-2.2 2-3 1.9-3.8 1.7l-.6-.1a6.8 6.8 0 0 0-1-.1c-1.4-3.8-3.3-5.6-5.5-5.5-2.9 0-5.3 3.6-6.2 6a2.7 2.7 0 0 0-2.3.8c-.7.7-1.1 2-1.1 3.7a26.7 26.7 0 0 0 .5 4.4 3.3 3.3 0 0 0-1.9 2 5.1 5.1 0 0 0-.2 1.7c0 3.9 3 9.6 6 14.4h-.1l-.2-.1-.2-.1h-.2a9.2 9.2 0 0 0-4 4 10.5 10.5 0 0 0-1.2 5.4v.3l.4.1 3.8 2.2-4 7.4 14.8 8.1c-8.8 12.6-22.5 5.6-23 5.3l-.8-.4v1c.8 9.3 4.9 16.8 11.6 21.6a4 4 0 0 0-1.5 2.9 3 3 0 0 0 0 .5c.4 2.6 4.5 4.5 6 5a1.2 1.2 0 0 0-.1.6 1.1 1.1 0 0 0 0 .2c.2 1 1.4 1.3 2.7 1.8l1.4.5c1 .6 1.1.6 1.3 1.2l.1.5c.4 2.2 3 2.6 5.8 3a28.5 28.5 0 0 1 3.7.6l-4.3 2.4-.4.2 4 7.4-3.8 2.1-.1.2-.2.1v.3a9.2 9.2 0 0 0 1.2 5.4 10.4 10.4 0 0 0 4 3.8l.2.2.4-.2 3.8-2.2 4.1 7.4 3.6-2a9.7 9.7 0 0 0 3.4 4.2c.7.5.6.7.2 1.9l-.2.3a2.8 2.8 0 0 0 .2 2.8c1.2 1.7 5 1.7 7.8 1.7h1.6a4 4 0 0 0-.3 1.2 2.7 2.7 0 0 0 .4 1.5c1 1.5 3.4 2 5 2h3.6c.3.8 1.2 2 3.6 2.5a33 33 0 0 0 24.7-8 3.2 3.2 0 0 0 5.7 0 32.9 32.9 0 0 0 24.6 8c2.5-.5 3.3-1.7 3.6-2.6h3.6c1.7.1 4-.4 5-1.9a2.7 2.7 0 0 0 .5-1.5 4 4 0 0 0-.3-1.3h1.6c2.8 0 6.6.1 7.8-1.7a2.3 2.3 0 0 0 .4-1.3 4 4 0 0 0-.3-1.4l-.1-.4a3.9 3.9 0 0 1-.3-1.1c0-.3.1-.5.5-.7a9.7 9.7 0 0 0 3.4-4.2l3.6 2 4-7.4 3.9 2.1.3.2h.3a10.5 10.5 0 0 0 4-4 9.3 9.3 0 0 0 1.2-5.4v-.2l-.4-.2-4-2.2 4.2-7.4-4.7-2.5a28.6 28.6 0 0 1 3.7-.7c2.7-.4 5.3-.7 5.7-3l.2-.4c.2-.6.2-.7 1.3-1.2l1.4-.6c1.3-.4 2.5-.9 2.7-1.7a1.3 1.3 0 0 0 0-.3 1.2 1.2 0 0 0-.1-.5c1.5-.6 5.6-2.4 6-5.1a2.9 2.9 0 0 0 0-.5 4 4 0 0 0-1.5-2.9 28.6 28.6 0 0 0 11.5-21.7l.1-.9zm-24.9-5.4l-7.3-5-.1-4.4 11 7.4zm-5-2.2l4 2.7-6 3.3-.1-4.9zm-2.2 0v-1.5l1.3.8zm-9.5 31.2a19.3 19.3 0 0 0 3.8 2 2 2 0 0 1 .4 1.9c-.6 1.6-4 2.6-6 3.1l-1.3.5-4.4-2.5a32 32 0 0 0 2-7 64.2 64.2 0 0 1 7.5-6.4c.9-.8.6-1 .3-1.1s-1.5 1 0-.9c.6-.8 2.7-4.8 3.6-6.2s.5-1.9-.2-.7a40 40 0 0 1-6.5 8.8c-.7.8-1.6 1.3-1.1.3.2-.6-.5-.6-1 0a23 23 0 0 1-2.2 2.8v-.4l1-10.8 12-6.6c2 4.4 2.5 16.3-8 22.3l-.6.4zm5.1 2.5a26.3 26.3 0 0 0 7.2 1.4c-1.5.9-4.4 2.8-5.8 3.1-1.7.7-.8 0-.8-.2-.1-.4-.3-.6-1.1-.2a20.2 20.2 0 0 1-4.6 2.6l-1.9-1 .5-.1c2.3-.7 5.8-1.7 6.5-3.8a2.6 2.6 0 0 0 0-1.8zm-8.9 35.3l-3.6-2 12.5-22.7 3.6 2zm8.2-12.7l5 2.7-2 3.9-5-2.8zm-5.4-3l-2.1 3.8-5.2-2.8.1-2.4 2.1-1.4zm-4.1-3.4l4-2.8 2.7 1.5-2 3.9zm1.5 8.1l-2 3.9-2.9-1.5.2-5zm-2.6 4.7l-2 3.9-.4-.2.1-5zm8.3-15l-2.2-1.2 4-2.8.3.2zm-23.2 11.8l-3.6-2 24.1-16.3 3.6 2zm11.9-6.9l-.4 13.3-3.6-2 .3-8.8zm-9.7 17.4l.4.9c.5 1.2.6 2 .4 2.4s-.5.5-1.2.7a53.1 53.1 0 0 1-7.8 1.7l-.7.1.3.7c.6 1 .8 1.6.5 2.1s-1 .8-2.2 1a21 21 0 0 1-7.3-.5 7.6 7.6 0 0 0-4.3 0l-1 .1a18.6 18.6 0 0 1-7.8-.6 16.5 16.5 0 0 0 .5-4.3v-.5l9-1.4c.8-.1 1.2-.3.9-.8s-.6-.5.2-.7l9.7-2.4c.8-.3 1-.5.3-.6-.7-.1-.3-.2.2-.5 3.7-1.7 7-3.5 4.8-2.9-2.2 1-5.7 3-8.7 3.6-1.2.3-.8 0-1-.2s-.3-.3-1 0a38.8 38.8 0 0 1-8.6 3.5s0-.6-.6-.5-3.5 1.3-5.3 1.7a12.3 12.3 0 0 0-1.7-5.5 22 22 0 0 0 4.2-4.6 59.3 59.3 0 0 0 6.6-1.1l-.3.6c-.5 1.3-.7 2-.3 2.3s1-.2 1.2-.4a19.7 19.7 0 0 0 2.5-2.4l1-1.3a54.4 54.4 0 0 0 8.2-3.3l12 6.6a9.5 9.5 0 0 1-2.5 4.3c-1 1-1 1.4-.6 2.2zm-39.7 2.6c-1.8-.3-4.6-1.5-5.2-1.6s-.7.4-.7.4a38.7 38.7 0 0 1-8.6-3.5c-.7-.3-.7-.3-1 0s.2.5-1 .3c-3-.7-6.5-2.6-8.7-3.7-2.1-.6 1.2 1.2 4.9 3 .4.3.8.3.2.4-.8.2-.6.4.3.6 1.5.5 9.2 2.4 9.6 2.5.8.1.5.2.3.6s0 .7.8.8l9 1.4v.6a16.4 16.4 0 0 0 .6 4.2 18.6 18.6 0 0 1-8 .6l-1-.1a7.5 7.5 0 0 0-4.2 0 21 21 0 0 1-7.4.5c-1.2-.1-2-.5-2.2-1s0-1.1.5-2.1l.4-.7h-.7a53 53 0 0 1-7.9-1.7c-.6-.2-1-.4-1.1-.7a3.5 3.5 0 0 1 .4-2.5l.3-.8c.5-.8.4-1.2-.6-2.2a9.4 9.4 0 0 1-2.5-4.3L144 363a54.8 54.8 0 0 0 8 3.3l1.1 1.3a19.7 19.7 0 0 0 2.5 2.4c.2.3.7.7 1.2.4s.2-1-.3-2.3l-.3-.7a58 58 0 0 0 6.6 1.2 22 22 0 0 0 4.3 4.6 12.2 12.2 0 0 0-1.8 5.5zM113 349.3l3.5-2 24.2 16.3-3.6 2zm16.1 20.7l-3.5 2-.4-13.2 3.7 2.5zm-21.9-17.5l3.7-2 12.5 22.7-3.7 2zm6.5 13.7l-5 2.8-2.1-3.8 5-2.8zm5.4-3l-2.1-3.8 5-2.8 2.2 1.4v2.4zm5.2-1.7l.1 5-2.7 1.4-2.2-3.8zm-7.8-3l-2.2-3.8 2.7-1.5 4 2.8zm-2.6-4.7l-2.2-3.8.3-.1 4.1 2.7zm8.2 15l2.4-1.3.1 5-.3.1zm-12.6-24.5c-1.4-.3-4.3-2.2-5.8-3.1a26.2 26.2 0 0 0 7.1-1.4 2.6 2.6 0 0 0 0 1.7c.8 2.1 4.3 3.1 6.6 3.8l.4.1-1.8 1a20.3 20.3 0 0 1-4.6-2.5c-.8-.4-1-.3-1.1.1 0 .2.9 1-.8.3zm6.4-7.9c-10.4-6-10-17.9-8-22.3l12 6.7 1 10.7v.4a22.8 22.8 0 0 1-2.3-2.8c-.4-.5-1.1-.6-.9 0 .5 1-.4.6-1-.3a39.8 39.8 0 0 1-6.6-8.8c-.7-1.1-1.1-.7-.2.7s3 5.4 3.7 6.2c1.4 2 .1.9-.1 1s-.6.3.3 1a64.1 64.1 0 0 1 7.4 6.3 31.4 31.4 0 0 0 2.1 7.2l-4.3 2.4-1.4-.4c-2-.6-5.3-1.6-5.9-3.2a2 2 0 0 1 .5-1.9 19.4 19.4 0 0 0 3.7-2l.6-.4zm-16.3-40.2l2.1-3.9 5.1 2.8v2.6l-2 1.3zm4.3 3.4l-4.1 2.8-2.8-1.5 2.1-3.9zm-1.7-8.1l2.1-3.9 2.7 1.5-.2 5zm2.6-4.7l2.1-3.9.3.2-.2 4.9zm7.1 22.3l.2-4.9 6.6 3.6.5 5.3zm7.4 5.2l.5 5.3-8-4.4.1-5zm-7.2-11.2l.1-2.4 2.1-1.4 3.8 2 .5 5.3zm3.2-4.4l2.4-1.7.3 3.2zm-3 .8l.1-4.4 4.8-3.3.4 4.1zm.1-5.7v-1.7l1.4.8zm2.4-1.5l-2.3-1.3.2-5 4.2 2.3.2 2.3zm-3-7.9a36.1 36.1 0 0 0 4.2-6l.8 8.8zm0 1.1l-1 29.1-3.5-2 1-29zm9.8 64l-4-2.7 6.2-3.5.1 5zm2.3-.1v1.7l-1.3-1zm4.8 4.9l-3.7-2.5-.2-6.6a37 37 0 0 0 3.8 5.8zm3 2l-2-1.3-.1-2.6.2-.1a42.1 42.1 0 0 0 3.2 3.2zm2.1 0a45.6 45.6 0 0 0 3.8 2.9l-1 .5-4-2.8zm3.8 4l1-.5a49.7 49.7 0 0 0 4.3 2.6l-1.2.7zm-6.4 2.4l-1.2.7v-1.6zm1 .6l4 2.8-6 3.3-.2-5zm21.5 3.4l1.3.4.5 1.3.1.4a24.9 24.9 0 0 1-1.8-2zm10.3 2a59.1 59.1 0 0 0 11.7 0 19.3 19.3 0 0 1-3.5 3.7 3 3 0 0 0-4.7 0 19.3 19.3 0 0 1-3.5-3.7zm20.2.2l.1-.5.5-1.2 1.3-.4-.1.1a23.8 23.8 0 0 1-1.8 2zm12.8-6.4a50.7 50.7 0 0 0 4.4-2.6l.8.4-4 2.8zm6.6 3.6l4.1-2.7 2.1 1.1-.2 5zm5-3.4l1.3-.8v1.5zm-1.4-5.7l-4 2.7-.9-.4 1.6-1.2a49 49 0 0 0 2.2-1.8zm-.4-1.4a42.6 42.6 0 0 0 3.2-3.3l.2.1-.1 2.6-2 1.3zm4.4-4.6a36.4 36.4 0 0 0 3.8-5.8l-.2 6.6-3.7 2.5.1-3.3zm6-.8l-1.4 1v-1.7zm-1.3-1.9l.1-5 6.2 3.5-4 2.8zm7.1-61l.8-8.7a36.7 36.7 0 0 0 4.2 5.8zm8.6-3.7l.9 29-3.5 2-1-29zm-4.3 10.3l-1.4-1 1.3-.7zm-.3-7.8l.2 5-2.2 1.2-2.3-1.5.2-2.4zm.3 9l.2 4.5-5.3-3.6.4-4zm-2.8 3.6l-2.7 1.5.2-3zm.9.7l2.1 1.4v2.4l-6.4 3.5.5-5.3zm2.2 4.9l.2 4.9-7.3 4 .5-5.3zm.2 6l.2 4.9-8.1 4.5.5-5.3zm4.7-27.2l.3-.2 2.1 3.9-2.2 1.2zm3 4.5l2 3.9-4.6 2.5-.1-5zm2.5 4.8l2.1 3.8-5.1 2.8-2-1.3V295zm2.6 4.7l2.1 3.8-2.7 1.5-4-2.7zm4.4 8.7l-4-2.8 2.3-1.3 2 3.9zm1.2-.7l-12.5-22.7 3.6-2 12.5 22.7zm-.8-24.1l-5 2.8-2.1-3.9 5-2.7zm-2.4 7.5l-2.1-3.9 5-2.7 2 3.8zm5.5-2l2.1 4-5 2.7-2-3.8zm7.3 13.4l-5 2.7-2-3.8 5-2.8zm-2.6-4.8l-5 2.8-2.2-3.8 5-2.8zM252 282a8.3 8.3 0 0 1 3.3 3.4 9.8 9.8 0 0 1 1 4.2v.4l-3.7 2-4.4-8zm-5.7-33c2.4 0 4.7 3.4 5.4 5.8l.1.4h.4a2 2 0 0 1 2 .3c1 1 1 3.5.2 7.7v.4l.3.1a2.4 2.4 0 0 1 1.6 1.5c1.4 3.9-4.2 13-6 15.9l-.6 1-2 1-2.8-5a30 30 0 0 1 2.3-5.7c.3-.4.3-1.2-.4-1-.4 0-.3 0-.2-.8l.1-1 .1-.4a13 13 0 0 0 .4-2.4l1-5c.2-.6-.3-.5-.4-.4s-.2.6-.2-.4l-.2-5.3c0-1-.3-.7-.3 0a40.7 40.7 0 0 1-.7 7.9 4.7 4.7 0 0 0-1.8-1.6v-1.5-1.6c0-1.8-.2-3.6-1.4-4.6a3 3 0 0 0-1.5-.7c1.4-3 3-4.6 4.6-4.6zM228 260c.7-.5.5-1.6.2-3.2l-.3-1c-.3-1.5-.4-3.5.7-4.2 1.5-1 4.7.3 6 1.3 2.3 2.2 3.5 2.2 4.7 2l.5-.2a3.2 3.2 0 0 1 2.7.4c1.2 1 1.1 3.5 1 5.4v2.2l.3.1c2.8 1.3 2.5 3.9 2 6.2-.5 2-1.3 5.2-2 7.3l-.3-.5-.4.3-6.2 3.4a56 56 0 0 1 .8-5.9c0-.8-.2-1-.7-.9-.3.7-.5 1-.5-.5l-.1-8.3c0-1.5-.4-1.6-.6-1-.2.3-.3.1-.4-.4s-1-4.9-1.4-5.5-.5-.4-.3.2 1.5 6 1.3 8.8c0 .3.1 1.3-.4.5-.2-.4-.4.6-.2 1.2a36.5 36.5 0 0 1 1.3 7.6c.1 1.1-.8-.9-.4 1.1l.1 4-6.5 3.5a31.2 31.2 0 0 1-4.9-7.2l.6-5.7c1.7.7 2.5.2 2.7-.3.5-1-.6-2.8-2.4-3.9l.7-7.2c1.2.6 2 .7 2.4.4zm-3.4 10l.2-2c1.2.9 1.8 2 1.6 2.3 0 0-.5.2-1.8-.3zm9.2-47.3a1.4 1.4 0 0 1 .2.8 1.7 1.7 0 0 1 0 .2 1.4 1.4 0 0 1-.5.9 1.4 1.4 0 0 1-.5.2l.2-1.8v-.2l.1-.5a1.3 1.3 0 0 1 .5.3zm-4.2-23.3a5 5 0 1 1-5 5 5 5 0 0 1 5-5zm.6 11a19.1 19.1 0 0 0-3.3 4 48 48 0 0 0-1.5-5.7 6 6 0 0 0 4.2 1.8 5.7 5.7 0 0 0 .6 0zm-6.6-6.3c-.7-1.4-1.4-3-2.3-4.5a5.7 5.7 0 0 0 3 .8 5.8 5.8 0 0 0 1 0 6 6 0 0 0-1.8 3.7zm.6-14.2a4.8 4.8 0 1 1-4.8 4.8 4.8 4.8 0 0 1 4.8-4.8zm-6.7-6.4a3.8 3.8 0 1 1-3.8 3.8 3.8 3.8 0 0 1 3.8-3.8zm1 11.7a48 48 0 0 0-2.5-3.3 4.7 4.7 0 0 0 3.3-.1 5.7 5.7 0 0 0-.8 2.9v.5zm-7.3-16.8a3.3 3.3 0 1 1-3.3 3.3 3.3 3.3 0 0 1 3.3-3.3zm1.7 9.9l-2.4-2.3a4.1 4.1 0 0 0 .7 0 4.3 4.3 0 0 0 1.9-.4 4.7 4.7 0 0 0-.2 2.7zm-7.8-12.8a2.5 2.5 0 1 1-2.6 2.5 2.6 2.6 0 0 1 2.5-2.5zm2 7.6l-2-1.5a3.5 3.5 0 0 0 2-.6 3.9 3.9 0 0 0-.1.7 4.4 4.4 0 0 0 .1 1.4zm19 32.5a13.8 13.8 0 0 0-.8 1.8l-1-.4c-1-9.1-7.4-23.3-21.8-33.8-.7-1.3-1.5-2.6-2.4-3.8 19.6 12 24.7 29 26 36.2zm-10.6 6c1 2 3.9 4.2 8.5 4-2.3 1.9-4.7 2.6-7 2a5.9 5.9 0 0 1-4.3-3.5l-.1-.4-.5.1a9 9 0 0 1-7-.6 4.9 4.9 0 0 1-2-2.4c4.2 1.5 7.6 1.4 9.4-.5a3.6 3.6 0 0 0 .7-4c-.9-2-3.6-4-8.5-3.9a19 19 0 0 0 1.4-4l4.6-4.3v-.3l-1-3a1.9 1.9 0 0 0 .5 0 7.2 7.2 0 0 1 5.5 3.1c1.6 2.1 3.4 3.3 5 3.3a38.5 38.5 0 0 1 2.6 9.4c-4.7-1.4-6.8 0-7.5.7a3.7 3.7 0 0 0-.4 4.3zM207 198a6 6 0 0 0-6-6h-.5a5.3 5.3 0 0 0 2.7-5.4 89.7 89.7 0 0 1 6.3 17.3l-3.2 3v-.7a6.2 6.2 0 0 0-1.2-3.9 6 6 0 0 0 1.9-4.3zm-2.6 3.6a4.3 4.3 0 0 0-1.2-.6l-.4-.2a4.3 4.3 0 0 0-1.3-.1h-.2a4.4 4.4 0 0 0-.7 0 4.4 4.4 0 0 0-.6.2l-.3.2a4.2 4.2 0 0 0-.5.2 5.4 5.4 0 0 0-1.1.8 5 5 0 0 1-2.2-4.1 5 5 0 1 1 8.5 3.6zm-6.4-10a4.3 4.3 0 1 1 4.3-4.3 4.3 4.3 0 0 1-4.3 4.3zm5.7-6.3a55.9 55.9 0 0 1 16.5 21c-1.2-.2-2.6-1.2-3.8-2.9a8.2 8.2 0 0 0-6.3-3.4 1.5 1.5 0 0 1-.7-.2 80.4 80.4 0 0 0-5.7-14.5zm-2-6l-1.6-1a3 3 0 0 0 1.4-.5v.2a3.6 3.6 0 0 0 .2 1.2zm-1.9-6a2 2 0 1 1-2 2 2 2 0 0 1 2-2.1zm-1.6 5.5v-.3a49.8 49.8 0 0 1 3.2 5 5.2 5.2 0 0 0-4.9-1.2 4.4 4.4 0 0 0 1.7-3.6zm-1 0a3.4 3.4 0 1 1-3.4-3.4 3.4 3.4 0 0 1 3.4 3.3zm-4.4-6l2 1.7a4.4 4.4 0 0 0-1 0 4.4 4.4 0 0 0-1.8.3 4 4 0 0 0 .8-2.2zm-6.2-4.5l.8.5a3.9 3.9 0 0 0-1 .5 3.2 3.2 0 0 0 .2-.9v-.2zm2.2 1.2a3 3 0 1 1-3 3 3 3 0 0 1 3.1-3.1zm-5.4-3.5a2.3 2.3 0 1 1-2.3 2.3 2.3 2.3 0 0 1 2.3-2.3zm-2-.3a2.9 2.9 0 0 0-.4.4v-.1a2.6 2.6 0 0 0 0-.5zm2 5.9a3.3 3.3 0 0 0 1.7-.5 3.8 3.8 0 0 0-.2 1.3 4 4 0 0 0 4 4 4 4 0 0 0 1.5-.3 4.4 4.4 0 0 0 3.4 7 4.4 4.4 0 0 0 1 0 5.3 5.3 0 0 0 3.2 9.5h.2a6 6 0 0 0-3.3 5.4 6 6 0 0 0 2.5 4.9 7.5 7.5 0 0 0-1.1 2.1l-3-2.4v-.2-1.8c0-18.8-9.4-27.6-17.5-31.7l-.2-1.6a2.8 2.8 0 0 0 4.5.8v.2a3.3 3.3 0 0 0 3.3 3.3zm2.9 44.7c1.1 2 4.1 3.8 9.4 3.2a6.5 6.5 0 0 1-4.4 2.8c-3 .7-6 .2-7.1-1.2l-.2-.3-.4.1c-4.3 1.6-7-.6-8.8-3.3 3.8.8 6.9.1 8.3-1.8a3.5 3.5 0 0 0 .1-4c-1-1.8-4-3.4-8.9-2.7a13.1 13.1 0 0 0 .5-2l5.3-3.1-1.6-13.3c1.2-.5 3.2 0 5.5 1a7.9 7.9 0 0 0 4.8 1 55.3 55.3 0 0 1 .7 11.5v.3l6.4 5.5.2 1.3c-4.3-1.4-7.8-1-9.5.9a3.6 3.6 0 0 0-.3 4.1zm-29.7-.5c1.5 2 4.5 2.6 8.4 1.8-2 2.7-4.5 4.9-8.9 3.3h-.3l-.2.2c-1.2 1.4-4.2 2-7.1 1.2a6.5 6.5 0 0 1-4.4-2.8c5.2.6 8.2-1.2 9.4-3.2a3.6 3.6 0 0 0-.3-4.1c-1.7-2-5.2-2.3-9.6-1l.2-1.2 6.5-5.5v-.3a55.6 55.6 0 0 1 .6-11.5 7.9 7.9 0 0 0 4.8-1c2.4-1 4.4-1.5 5.6-1l-1.6 13v.3l5.3 3.1a12.5 12.5 0 0 0 .5 2c-5-.6-7.8 1-9 2.7a3.5 3.5 0 0 0 .2 4zm-9.2-13.5c-.4-15.2 5.2-26.4 16.4-32.3l-.2 1.5a34 34 0 0 0-14.4 30v2.5l-5.3 4.6v-.3a11.3 11.3 0 0 0-.2-2.3l3.7-3zm16-29.4l-2 16.7c-1.8-.5-4.2.4-6 1.2-.7.4-2.6 1.3-4.2.9a31 31 0 0 1 12.2-18.8zm1.3 33l-4-2.5.3-2.4 3.7 2.2a12.8 12.8 0 0 0 0 1.3 12.4 12.4 0 0 0 0 1.3zm.2-3.8l-3.7-2.2 4-34a7.6 7.6 0 0 0 2.4 1.3 2.6 2.6 0 0 0 1 1 3.6 3.6 0 0 0-.1 6.7 4.4 4.4 0 0 0-.4 8.3 4.8 4.8 0 0 0-3 4.4 4.7 4.7 0 0 0 2 3.9 5.7 5.7 0 0 0-1.6 8.8 7.5 7.5 0 0 0-.6 1.8zm7.6-36.1a2.6 2.6 0 0 0-5.3 0 6.7 6.7 0 0 1-3.5-3.6h12.3a6.6 6.6 0 0 1-3.5 3.6zm3-1a3.6 3.6 0 0 0-.1.4v-.1h-.1zm-9 14a3.5 3.5 0 1 1 3.4 3.5 3.5 3.5 0 0 1-3.4-3.4zm7.1 8.6a3.8 3.8 0 0 1-2.1 3.4 5.7 5.7 0 0 0-1.7-.2 5.6 5.6 0 0 0-1.6.2 3.8 3.8 0 1 1 5.4-3.4zm-3.8-13.4a2.6 2.6 0 1 1 2.6-2.6 2.6 2.6 0 0 1-2.6 2.6zm0-6.7a1.6 1.6 0 1 1 1.6-1.6 1.6 1.6 0 0 1-1.5 1.6zm-5.4-2.2v.1a2.4 2.4 0 0 0-.2-.4zm.6 31.2a4.8 4.8 0 0 1 3.2-4.5h.2a4.6 4.6 0 0 1 1.3-.2 4.7 4.7 0 0 1 1.5.2 4.8 4.8 0 0 1 3.3 4.5 4.7 4.7 0 0 1-1 2.9 4.3 4.3 0 0 0-2.6-1.6h-1.7a4.2 4.2 0 0 0-.5 0 4.3 4.3 0 0 0-2.6 1.7 4.7 4.7 0 0 1-1-3zm10.5 0a5.7 5.7 0 0 0-3-5 4.7 4.7 0 0 0-1-8.3 4.4 4.4 0 0 0-.3-8.3 3.6 3.6 0 0 0-.1-6.7 2.6 2.6 0 0 0 1-1 7.5 7.5 0 0 0 2.3-1.2l4.1 34-3.6 2.1a7.4 7.4 0 0 0-.7-1.9 5.7 5.7 0 0 0 1.3-3.7zm17 6.7l3.5 2.8a11 11 0 0 0-.3 2.3v.3l-5.2-4.6v-2.6a34 34 0 0 0-14.4-29.9l-.2-1.5c11.2 6 16.9 17 16.4 32.3v.7zm-4-11.5c-1.5.4-3.4-.5-4.1-.8-1.8-1-4.3-1.8-6.1-1.2l-2-16.8c7.8 5.8 11 12.6 12.3 18.8zm-13.5 11.5l3.7-2.2.3 2.5-4 2.4a13.2 13.2 0 0 0 0-1.4 12.2 12.2 0 0 0 0-1.3zm3.1-39a1.9 1.9 0 1 1-1.8 1.8 1.9 1.9 0 0 1 1.9-1.8zm-2.1-6.7h-3.7v-3.7a6.7 6.7 0 0 1 3.8 3.7zm-11.4-8.5v-3h3.8v-3.6h3v3.7h3.8v2.9h-3.8v3.4a7.5 7.5 0 0 0-3 0V149zm2.8 4.7v3.7h-3.7a6.7 6.7 0 0 1 3.7-3.7zm-4.1 5.8a7.9 7.9 0 0 1 .1-1h5v-5a6.4 6.4 0 0 1 3 0v5h5a8.7 8.7 0 0 1 .2 1v.3a6.6 6.6 0 0 1-.2 1.6h-13a6.3 6.3 0 0 1-.2-1.6v-.3zm-1.7 4.6a1.9 1.9 0 1 1-1.9 1.9 1.9 1.9 0 0 1 1.9-1.8zm-2.8 1.4a3 3 0 0 0 0 .5 3.1 3.1 0 0 0-.4-.3zm-2.4.5a2.3 2.3 0 1 1-2.3 2.3 2.3 2.3 0 0 1 2.3-2.3zm-1.6 6.3a3.9 3.9 0 0 0-.2-1.3 3.3 3.3 0 0 0 5-2.7v-.3a2.8 2.8 0 0 0 4.5-.8l-.2 1.6c-8.1 4.1-17.5 13-17.5 31.7v2l-3 2.4a7.6 7.6 0 0 0-1-2.1 6 6 0 0 0 2.5-4.8 6 6 0 0 0-3.3-5.4h.2a5.3 5.3 0 0 0 3.1-9.6 4.5 4.5 0 0 0 1 .1 4.4 4.4 0 0 0 3.5-7 3.9 3.9 0 0 0 1.4.2 4 4 0 0 0 4-4zm-27.5 48c1.8 1.9 5.3 2 9.4.4a4.9 4.9 0 0 1-2 2.5 9 9 0 0 1-7 .6l-.5-.1-.2.4a5.9 5.9 0 0 1-4.2 3.6c-2.3.5-4.7-.3-7-2 4.6 0 7.5-2 8.5-4.1a3.7 3.7 0 0 0-.3-4.3c-.7-.8-2.8-2.1-7.5-.7a38.8 38.8 0 0 1 2.6-9.4c1.7 0 3.4-1.1 5-3.2a7.2 7.2 0 0 1 5.5-3.1 1.7 1.7 0 0 0 .4 0l-.8 3v.3l4.5 4.3a18.4 18.4 0 0 0 1.4 4c-5-.1-7.6 1.8-8.5 3.8a3.6 3.6 0 0 0 .7 4.1zm-7.7-14.2a55.9 55.9 0 0 1 16.5-20.9 80.6 80.6 0 0 0-5.7 14.5 1.5 1.5 0 0 1-.7.2 8.2 8.2 0 0 0-6.3 3.4c-1.3 1.8-2.6 2.7-3.8 3zm14 .7l-3.3-3a90.1 90.1 0 0 1 6.2-17.3 5.4 5.4 0 0 0 0 .8 5.3 5.3 0 0 0 2.8 4.6h-.5a6 6 0 0 0-4.1 10.4 6.1 6.1 0 0 0-1.2 3.9v.7zm4-19.6a4.3 4.3 0 1 1 4.2 4.3 4.3 4.3 0 0 1-4.3-4.2zm-3.8 10.8a5 5 0 0 1 10.1 0 5 5 0 0 1-2.2 4.1 5.3 5.3 0 0 0-1-.8 4.3 4.3 0 0 0-.6-.3h-.3a5 5 0 0 0-.6-.2 4.4 4.4 0 0 0-.7-.1h-.2a4.4 4.4 0 0 0-1.2.1h-.1l-.4.2a4.3 4.3 0 0 0-1.2.6 5 5 0 0 1-1.6-3.6zm19.3-29.8v.1a3.2 3.2 0 0 0 .1 1 3.9 3.9 0 0 0-1-.6zm-2.2 1.2a3 3 0 1 1-3 3 3 3 0 0 1 3-3zm-4 3.2a4 4 0 0 0 .8 2.1 4.4 4.4 0 0 0-1.8-.3 4.4 4.4 0 0 0-1 0l2-1.8zm-1 2.7a3.4 3.4 0 1 1-3.4 3.4 3.4 3.4 0 0 1 3.4-3.4zm-2.7 6.9a5.2 5.2 0 0 0-5 1.1 49.8 49.8 0 0 1 3.3-4.9v.3a4.4 4.4 0 0 0 1.7 3.5zm-3.3-9a2 2 0 1 1-2.1 2 2 2 0 0 1 2.1-2zm-1.7 4.7a3 3 0 0 0 1.3.4l-1.5 1a3.5 3.5 0 0 0 .2-1.2v-.3zm1.4 1.5l-2.4 3.8a52.8 52.8 0 0 0-21.8 33.8l-1 .4a14.7 14.7 0 0 0-.8-1.8 54.4 54.4 0 0 1 26-36.2zm-26.8 35a19 19 0 0 0-3.3-4 5.7 5.7 0 0 0 .6 0 6 6 0 0 0 4.3-1.6 48.8 48.8 0 0 0-1.5 5.5zm3.4-10.2a6 6 0 0 0-1.6-3.8 5.8 5.8 0 0 0 1 0 5.7 5.7 0 0 0 2.9-.7c-.9 1.4-1.6 3-2.3 4.4zm4.3-12.3a4.9 4.9 0 0 0 1.7.3 4.8 4.8 0 0 0 1.5-.3 54 54 0 0 0-2.5 3.3v-.5a5.7 5.7 0 0 0-.7-3zm6.2-6.2a4.3 4.3 0 0 0 1.8.4 4.1 4.1 0 0 0 .8 0c-.9.7-1.7 1.5-2.4 2.3a4.8 4.8 0 0 0 0-1 4.7 4.7 0 0 0-.2-1.8zm6-4.7a3.5 3.5 0 0 0 2 .6c-.8.5-1.4 1-2 1.6a4.3 4.3 0 0 0 .2-1.4 3.9 3.9 0 0 0-.1-.8zm2-5.5a2.5 2.5 0 1 1-2.6 2.6 2.6 2.6 0 0 1 2.6-2.6zm-6.2 3a3.3 3.3 0 1 1-3.3 3.3 3.3 3.3 0 0 1 3.4-3.4zm-6.3 5.1a3.8 3.8 0 1 1-3.8 3.9 3.8 3.8 0 0 1 3.8-4zm-11.5 11.2a4.8 4.8 0 1 1 4.8 4.7 4.8 4.8 0 0 1-4.7-4.8zm-5.6 9.8a5 5 0 1 1 5 5 5 5 0 0 1-5-5.2zm.6 19.2a1.4 1.4 0 0 1 0-.2 1.3 1.3 0 0 1 .7-1.2l.1.5v.2l.3 1.8a1.4 1.4 0 0 1-1-1.3zm6.7 10.1c-3-.9-4-5.3-4.6-8.7l-.3-2.3v-.2l-.2-.9v-.6a28.5 28.5 0 0 0-5.8-11 4.8 4.8 0 0 1 4.4-.7c3.9 1.3 7.2 6.8 7.8 8.8l.2.5.5-.2c4.1-1.7 7.5-1.9 8.9-.4a2.7 2.7 0 0 1 .2 3.2c-1 2-4 4-9 3.4l-1.5-.2 1 1c3.9 3.7 7.3 3.6 9 3.3a6.8 6.8 0 0 0 4.8-3.8 9.7 9.7 0 0 0 7.5-.8 5.9 5.9 0 0 0 2.7-4l.1-.9-.8.4c-4.9 2-8 1.4-9.2.1a2.6 2.6 0 0 1-.5-3c.8-1.7 3.4-3.5 8.4-3.2h.8l-.4-.7c-2.3-4.5-2.5-8.3-.6-10.2h.1a3.8 3.8 0 0 1 .4-.4 3 3 0 0 1 .4-.2h.2l.4-.2h1.8a3.6 3.6 0 0 1 .5 0 3.4 3.4 0 0 1 .5.3h.1l.3.2.4.3c1.7 1.4 2.8 4.4 1.7 9.2l-.2.9.8-.4c5-1.8 8.1-1 9.3.4a2.6 2.6 0 0 1 .2 3c-1 1.7-4 3.4-9.3 2.6l-.7-.1.2.7c.4 2 2.5 3.6 5.4 4.3 2.7.6 6 .4 7.8-1.4 6.1 2 9.2-2.9 10.4-4.7l.7-1-1.2.3c-4.7 1.2-7.5.1-8.5-1.3a2.5 2.5 0 0 1 0-2.9c1-1.6 3.7-3 8.7-2.2l1 .2-.5-.9c-1.2-2.5-1.5-6.7 0-9l.1-.3.1-.2.2-.2.1-.2.2-.1.2-.1.2-.2h.2l.2-.2h.2l.3-.1h.7a5.1 5.1 0 0 1 .5 0h1.6l.3.2h.2a1.9 1.9 0 0 1 .2.2l.1.1.2.2.2.1.2.2.1.2a1.7 1.7 0 0 1 .1.2c1.6 2.3 1.2 6.6 0 9.1l-.4.9 1-.2c5-.8 7.7.6 8.7 2.2a2.5 2.5 0 0 1 0 3c-1 1.3-3.8 2.4-8.5 1.2l-1.2-.3.6 1c1.2 1.8 4.3 6.7 10.4 4.7 1.8 1.8 5.2 2 7.8 1.4 3-.7 5-2.3 5.5-4.3l.2-.7-.8.1c-5.2.8-8.2-.9-9.2-2.6a2.6 2.6 0 0 1 .2-3c1.1-1.4 4.2-2.2 9.2-.4l.9.4-.2-1c-1.2-4.7 0-7.7 1.6-9.2l.3-.2h.1l.3-.2a4.3 4.3 0 0 1 .5-.3h.1a3.7 3.7 0 0 1 .5-.1H202.6l.4.2h.2a2.7 2.7 0 0 1 .4.3 3.3 3.3 0 0 1 .4.3h.1c2 2 1.7 5.8-.6 10.3l-.4.8h.9c5-.4 7.5 1.4 8.3 3.1a2.6 2.6 0 0 1-.5 3c-1.2 1.3-4.3 2-9.2-.2l-.8-.3.2.9a5.9 5.9 0 0 0 2.7 4 9.7 9.7 0 0 0 7.4.7 6.8 6.8 0 0 0 4.8 3.8c1.7.4 5.2.5 9-3.2l1-1-1.4.2c-5 .6-8-1.5-9-3.5a2.7 2.7 0 0 1 .2-3.1c1.4-1.5 4.7-1.4 8.8.4l.6.2.1-.5c.6-2 4-7.5 7.8-8.8a4.8 4.8 0 0 1 4.4.7 28.1 28.1 0 0 0-5.8 11.2v.4l-.2 1v.1l-.3 2.3c-.5 3.4-1.6 7.8-4.5 8.7a255.3 255.3 0 0 0-57.6-6.4h-.4a254.6 254.6 0 0 0-57 6.4zm0 1.7a2.6 2.6 0 0 1 .2-.7 253.7 253.7 0 0 1 56.8-6.4h.4a254.5 254.5 0 0 1 57.3 6.3 2.5 2.5 0 0 1 .1.8 2.1 2.1 0 0 1-1.4 2v-.1a254.6 254.6 0 0 0-56-6h-.5a254.3 254.3 0 0 0-55.4 5.8v.1a2.1 2.1 0 0 1-1.4-1.9zm1.8 3v-.2a253.2 253.2 0 0 1 55-6h.6a253.6 253.6 0 0 1 55.7 6v.2a7.3 7.3 0 0 1-2.7 5.8 241.1 241.1 0 0 0-53-5.7h-.5a240.5 240.5 0 0 0-52.4 5.6 7.3 7.3 0 0 1-2.7-5.8zM223 247a3.8 3.8 0 0 1-.7 2.2 216 216 0 0 0-52.7-5.7c-20 0-38.7 2-52.3 5.6a3.9 3.9 0 0 1-.6-2.1 3.5 3.5 0 0 1 .4-1.6 239.3 239.3 0 0 1 52.2-5.6h.5a243.6 243.6 0 0 1 52.8 5.7v-.1a3.4 3.4 0 0 1 .4 1.5zm-53.4-2.5c21.8 0 42.2 2.4 55.9 6.6L223 277l-5.3 54.6c-.4 9.8-5.6 19-14.5 25.9S182.4 368 169.8 368c-25.6 0-47-16.4-48-36.6l-7.5-80.7c13.8-4 33.9-6.4 55.4-6.4zm-54.5 25.5c-1.4.6-1.9.4-2 .3-.1-.3.5-1.5 1.8-2.4zm-15.4-15.2h.6c1.2.3 2.3.4 4.6-1.9 1.4-1 4.6-2.2 6-1.3 1.2.8 1 2.7.7 4.2l-.2 1c-.4 1.7-.6 2.8.1 3.3.5.4 1.3.2 2.6-.5l.6 7.2c-1.8 1-3 3-2.4 4 .2.5 1 1 2.8.2l.6 5.6c-1 2.7-3.7 5.9-5 7.4l-6.4-3.5.2-4c.3-2-.6 0-.4-1.1a36.3 36.3 0 0 1 1.2-7.6c.2-.6 0-1.5-.1-1.2-.6.8-.4-.1-.4-.5-.3-2.8 1.1-8.2 1.3-8.8s0-.7-.4-.1-1.2 4.8-1.3 5.5-.3.6-.5.2c-.2-.5-.7-.4-.6 1.1v8.3c0 1.5-.3 1.2-.6.6-.5-.2-.7 0-.7.9a60.2 60.2 0 0 1 .8 6l-6.9-3.8-.2.4c-.7-2.1-1.5-5.3-2-7.2-.6-2.4-.8-5 2-6.2l.2-.2v-2.2c0-2-.1-4.4 1-5.4a3 3 0 0 1 2.8-.4zm-8 31l2.1-3.8 5 2.7-2.1 3.9zm4.6 3.7l-2.2 3.8-5-2.8 2.2-3.8zm-2-8.4l2-3.8 5 2.7-2 3.9zm-11-15.7a2.4 2.4 0 0 1 1.6-1.5l.4-.2v-.4c-.8-4.2-.7-6.7.2-7.6a2 2 0 0 1 1.9-.4h.4l.2-.4c.7-2.3 3-5.7 5.4-5.8 1.6 0 3.2 1.6 4.5 4.6a3 3 0 0 0-1.6.7c-1.1 1-1.3 2.8-1.3 4.6v3.2a4.7 4.7 0 0 0-1.8 1.5 40.9 40.9 0 0 1-.7-7.8c0-.7-.3-1-.3 0L92 261c0 1-.1.5-.2.4s-.6-.2-.4.5l1 4.9a12.8 12.8 0 0 0 .4 2.3v.3l.2 1.2c.1.9.2.9-.2.7-.7 0-.7.7-.4 1.1a30.1 30.1 0 0 1 2.3 5.6l-2.8 5-2-1-.6-1c-1.7-3-7.3-12-6-15.8zm0 24.6v-.3a9.8 9.8 0 0 1 1-4.3 8.3 8.3 0 0 1 3.4-3.4l3.8 2.1-4.4 8zm5.3 1.4l5 2.8-2 3.8-5-2.8zm-4.7 8.6l2.1-3.9 5 2.8-2.1 3.8zm5.9 3.2l12.5-22.7 3.7 2-12.6 22.7zm4.5 2.5l2.1-3.9 2.3 1.3-4 2.8zm1.3.7l11-7.4-.1 4.5-7.3 4.9zm9.5-.9l1.3-.8v1.5zm1.2 1.8l-.1 5-6-3.4 4-2.8zM74.7 315c3.3 1.4 15.5 5.5 23.6-6l8.7 4.7a16.8 16.8 0 0 0-1.3 6.8 18.9 18.9 0 0 0 9 16.4 26.8 26.8 0 0 1-24.7.7c-8.7-4-14.1-12-15.3-22.6zm26.4 36.1c-3-.4-4.7-.7-5-2.2v-.5c-.3-.9-.5-1.2-2-1.8l-1.4-.6c-.8-.3-2-.7-2.1-1 0-.1 0-.3.3-.5l.5-.6-.7-.2c-2.2-.8-5.7-2.6-6-4.6a3 3 0 0 1 1.3-2.6 28 28 0 0 0 3.6 2 30 30 0 0 0 13 2.7 16.6 16.6 0 0 1 3.4 2.4c2 1.4-1.7.2 0 1.3 2.7 1 6.2 2 7.9 2.7l-8.1 4.5a23.5 23.5 0 0 0-4.7-1zm.2 4.6l5-2.8 2.2 3.9-5 2.8zm2.6 4.7l5-2.7 2.2 3.8-5 2.8zm1.3 13.2a9.5 9.5 0 0 1-3.4-3.3 8.4 8.4 0 0 1-1.1-4.1v-.6l3.8-2 4.4 8zm4-3.7l5-2.8 2 3.8-5 2.8zm4.7 8.5l-2.1-3.8 5-2.8 2 3.8zm21.3 14c-1.5 0-3.5-.4-4.2-1.5a2.4 2.4 0 0 1 .2-2.5l.3-.6h-.7a20 20 0 0 0-2.4 0c-2.4 0-6 0-7-1.4a1.9 1.9 0 0 1 0-1.8l.2-.4c.4-1.2.7-2-.6-3a8.6 8.6 0 0 1-3-3.9l12.8-7a11 11 0 0 0 2.8 4.4c.4.4.5.5.5.7a.7.7 0 0 1-.1.3l-.5 1a6.6 6.6 0 0 0-.5 2.2 2.2 2.2 0 0 0 .2.8 47.3 47.3 0 0 1-8.8-3.2c-2.2-.6 1.2 1.1 5 2.8.4.2.8.2.2.4-.9.1-.6.3.3.5 1.5.4 7.2 1.6 9.7 2.3.6.2.7.4.2.7s.4.7 1 .5h1.2a2.3 2.3 0 0 0-.1.5 2 2 0 0 0 .2.9c.4.8 1.3 1.3 3 1.5a22 22 0 0 0 7.7-.5 5.8 5.8 0 0 1 2.8-.3c-2.5 2.2-8.9 7-20.4 6.5zm7.4 2.4a3.8 3.8 0 0 1-2.7-1.6 28.6 28.6 0 0 0 17-7h.8a19.9 19.9 0 0 0 8.3-.6 10.2 10.2 0 0 0 .6 1.3c-4.7 5.5-17.8 9.2-24 8zm27.3-6.2c-2 0-3.8-3.7-3.8-8.2s1.8-8.1 3.8-8.1 3.8 3.7 3.8 8.1-1.7 8.2-3.8 8.2zm27.3 6.2c-6.2 1.3-19.2-2.4-23.9-7.9a10.7 10.7 0 0 0 .6-1.3 19.8 19.8 0 0 0 8.2.7l.8-.2h.1a28.6 28.6 0 0 0 17 7 3.8 3.8 0 0 1-2.8 1.7zm21.6-13.6c-1.3 1-1 1.8-.6 3l.2.4a1.9 1.9 0 0 1 0 1.8c-1 1.4-4.6 1.3-7 1.3a20 20 0 0 0-2.4 0h-.7l.3.7a2.4 2.4 0 0 1 .2 2.4c-.7 1.1-2.7 1.6-4.2 1.5a29 29 0 0 1-20.4-6.4 5.8 5.8 0 0 1 2.8.2 22 22 0 0 0 7.8.5c1.6-.2 2.5-.7 3-1.5a2 2 0 0 0 .1-.9 2.4 2.4 0 0 0 0-.5h1.2c.6.2 1.2 0 .9-.5s-.3-.5.2-.6c2.5-.8 8.2-2 9.7-2.3.9-.3 1.2-.5.3-.6-.6-.1-.2-.1.3-.4 3.7-1.7 7-3.4 5-2.8a47.4 47.4 0 0 1-8.9 3.2 2.2 2.2 0 0 0 .2-.8 6.7 6.7 0 0 0-.5-2.2l-.5-1c-.2-.4-.2-.4.4-1a11 11 0 0 0 2.8-4.5l12.9 7.1a8.6 8.6 0 0 1-3.2 3.9zm7.1-2.8l-5-2.8 2.2-3.8 5 2.8zm2.6-4.7l-5-2.8 2.2-3.8 5 2.8zm10.5-8v.5a8.4 8.4 0 0 1-1 4 9.5 9.5 0 0 1-3.5 3.4l-3.7-2 4.4-8zm-5.3-1.4l-5-2.8 2.1-3.9 5 2.8zm4.7-8.6l-2.1 3.9-5-2.8 2-3.9zM255 339c-.3 2-3.7 3.8-6 4.5l-.7.3.5.5c.3.3.3.4.3.5 0 .4-1.3.8-2 1l-1.6.6c-1.4.7-1.6 1-1.8 1.9l-.1.5c-.3 1.4-2 1.8-5 2.1a23.5 23.5 0 0 0-4.7 1l-8.1-4.4c1.7-.7 5.2-1.7 7.9-2.7 1.8-1.1-2 0 0-1.3a16.7 16.7 0 0 1 3.5-2.4 30 30 0 0 0 12.9-2.8 28.3 28.3 0 0 0 3.6-2 3 3 0 0 1 1.4 2.7zm-5.3-1.5a26.8 26.8 0 0 1-24.7-.7 18.9 18.9 0 0 0 9-16.4 16.8 16.8 0 0 0-1.3-6.8l8.7-4.8c8 11.6 20.3 7.5 23.6 6a26.6 26.6 0 0 1-15.3 22.7z" transform="translate(-69.2 -136.8)"/>
        <path d="M160.7 302.3l4-38.4-.5-.1a4.4 4.4 0 0 0-5 2.4 9.5 9.5 0 0 0-1 4.5 6 6 0 0 0 .3 2.4c-2.8.6-3.8 2.4-3.8 4v.2a4.7 4.7 0 0 0 3.6 4.3 5.8 5.8 0 0 1-6 3.4c-2.3-.1-4.8-1.3-5.6-3.4 2 .6 3.8.3 5-1a4.7 4.7 0 0 0 .5-5.3c-.9-1.6-2.6-2.2-4.7-2a12.3 12.3 0 0 0 .7-3.7 6.5 6.5 0 0 0-1-3.7 4.2 4.2 0 0 0-7.2 0 6.5 6.5 0 0 0-1 3.7 12.5 12.5 0 0 0 .7 3.8c-2.1-.3-3.8.4-4.7 1.9a4.7 4.7 0 0 0 .6 5.3c1.1 1.3 3 1.6 5 1-.8 2-3.3 3.3-5.6 3.4a5.8 5.8 0 0 1-6-3.4 4.7 4.7 0 0 0 3.6-4.3v-.2c0-1.7-1-3.4-4-4a6 6 0 0 0 .5-2.4 9.5 9.5 0 0 0-1-4.5 4.4 4.4 0 0 0-5-2.4h-.5l3.9 38.5zm-37.1-37.6a3.5 3.5 0 0 1 3.5 2c1.3 2.3 1.1 5.6.3 6.4l-.6.7 1 .1c2.5.4 3.8 1.6 3.7 3.4a3.6 3.6 0 0 1-3.3 3.4h-.6l.2.6c.8 3.1 3.7 5 7.2 4.7 3-.1 6.3-2 6.7-5l.1-1-.8.4c-2 1-3.7.8-4.8-.4a3.7 3.7 0 0 1-.4-4.2c.8-1.3 2.4-1.8 4.5-1.3l.9.2-.4-.9c-1.5-4.1-.6-6.4 0-7.4a3.2 3.2 0 0 1 5.6 0c.6 1 1.5 3.3 0 7.4l-.4.9 1-.2c2-.5 3.6 0 4.4 1.3a3.7 3.7 0 0 1-.4 4.2c-1.1 1.2-2.8 1.3-4.8.4l-.8-.4v1c.5 3 3.8 4.9 6.8 5 3.5.3 6.4-1.6 7.2-4.7l.2-.6h-.6a3.6 3.6 0 0 1-3.3-3.4c-.1-1.8 1.2-3 3.7-3.4h1l-.6-.8c-.8-.8-1-4.1.4-6.4a3.5 3.5 0 0 1 3.5-2L161 289H126l-2.5-24.3zM161 290l-1.2 11.4h-32.5l-1.2-11.4zM213.4 302.3l4-38.4-.5-.1a4.4 4.4 0 0 0-5 2.4 9.5 9.5 0 0 0-1 4.5 6 6 0 0 0 .3 2.4c-2.8.6-3.8 2.4-3.8 4v.2a4.7 4.7 0 0 0 3.5 4.3 5.8 5.8 0 0 1-6 3.4c-2.3-.1-4.7-1.3-5.5-3.4 2 .6 3.8.3 5-1a4.7 4.7 0 0 0 .5-5.3c-.9-1.6-2.6-2.2-4.7-2a12.4 12.4 0 0 0 .7-3.7 6.5 6.5 0 0 0-1-3.7 4.2 4.2 0 0 0-7.2 0 6.5 6.5 0 0 0-1 3.7 12.5 12.5 0 0 0 .7 3.8c-2.1-.3-3.8.4-4.7 1.9a4.7 4.7 0 0 0 .5 5.3c1.2 1.3 3 1.6 5 1-.8 2-3.2 3.3-5.5 3.4a5.8 5.8 0 0 1-6-3.4 4.7 4.7 0 0 0 3.6-4.3v-.2c0-1.7-1-3.4-4-4a6 6 0 0 0 .5-2.4 9.5 9.5 0 0 0-1-4.5 4.4 4.4 0 0 0-5-2.4h-.5l3.9 38.5zm-37.2-37.6a3.5 3.5 0 0 1 3.6 2c1.3 2.3 1.1 5.6.3 6.4l-.6.7 1 .1c2.5.4 3.8 1.6 3.7 3.4a3.6 3.6 0 0 1-3.3 3.4h-.6l.2.6c.8 3.1 3.7 5 7.2 4.7 3-.1 6.3-2 6.7-5l.2-1-.9.4c-2 1-3.7.8-4.8-.4a3.7 3.7 0 0 1-.4-4.2c.8-1.3 2.4-1.8 4.5-1.3l.9.2-.4-.9c-1.5-4.1-.6-6.4 0-7.4a3.2 3.2 0 0 1 5.6 0c.6 1 1.5 3.3 0 7.4l-.4.9 1-.2c2-.5 3.6 0 4.4 1.3a3.7 3.7 0 0 1-.4 4.2c-1.1 1.2-2.8 1.3-4.8.4l-.9-.4.1.9c.5 3.1 3.8 5 6.7 5.1 3.6.3 6.4-1.6 7.3-4.7l.2-.6h-.7a3.6 3.6 0 0 1-3.3-3.4c0-1.8 1.3-3 3.8-3.4h1l-.7-.8c-.8-.8-1-4.1.4-6.4a3.5 3.5 0 0 1 3.5-2l-2.5 24.2h-35l-2.6-24.2zm37.5 25.2l-1.1 11.4H180l-1.1-11.4zM160.3 323.3a5.1 5.1 0 0 0 .6 5.8c1.3 1.5 3.3 1.8 5.6 1-.9 2.4-3.7 3.8-6.2 4s-5.6-.9-6.8-4a5 5 0 0 0 4-4.6v-.3c0-1.8-1.1-3.7-4.3-4.3a6.5 6.5 0 0 0 .5-2.7 10.4 10.4 0 0 0-1.2-5 4.8 4.8 0 0 0-5.4-2.6l-.5.1L151 353h37.8l4.3-42.2-.4-.1a4.8 4.8 0 0 0-5.5 2.6 10.5 10.5 0 0 0-1.2 5 6.5 6.5 0 0 0 .5 2.6c-3.2.6-4.3 2.6-4.3 4.4v.2a5 5 0 0 0 4 4.7c-1.2 3-4.2 4-6.7 3.9s-5.4-1.6-6.2-4c2.2.8 4.2.5 5.5-1a5.1 5.1 0 0 0 .6-5.8c-1-1.7-2.9-2.4-5.2-2a13.7 13.7 0 0 0 .8-4.2 7.1 7.1 0 0 0-1.2-4.1 4.6 4.6 0 0 0-7.8 0 7.2 7.2 0 0 0-1.1 4 13.7 13.7 0 0 0 .8 4.3c-2.4-.4-4.3.3-5.3 2zm27.5 28.7h-36l-1.3-12.6h38.6zm-21.1-30.3c-1.7-4.6-.7-7.1 0-8.2a3.6 3.6 0 0 1 6.2 0c.7 1 1.7 3.6 0 8.2l-.3.8.9-.2c2.3-.5 4 0 5 1.5a4.1 4.1 0 0 1-.5 4.7c-1.2 1.3-3.1 1.5-5.4.4l-.8-.3.2.9c.5 3.4 4 5.4 7.3 5.6 3.9.2 7-1.8 8-5.2l.1-.6h-.6a4 4 0 0 1-3.7-3.8c-.1-2 1.4-3.4 4.2-3.8h1l-.7-.8c-1-1-1-4.5.4-7.1a4 4 0 0 1 4-2.2l-2.7 26.8h-38.9l-2.7-26.8a4 4 0 0 1 4 2.2c1.4 2.6 1.3 6.1.4 7.1l-.7.7 1 .1c2.8.4 4.3 1.7 4.1 3.8a4 4 0 0 1-3.6 3.8h-.7l.2.6c1 3.4 4 5.4 8 5.2 3.2-.2 6.8-2.2 7.3-5.6l.1-1-.8.5c-2.2 1-4.1.8-5.3-.5a4.1 4.1 0 0 1-.5-4.7c.9-1.5 2.6-2 5-1.5l.9.2z" transform="translate(-69.2 -136.8)"/>
    </g>
</svg>