<?xml version="1.0" encoding="UTF-8" standalone="no"?>
<svg
   xmlns:dc="http://purl.org/dc/elements/1.1/"
   xmlns:cc="http://creativecommons.org/ns#"
   xmlns:rdf="http://www.w3.org/1999/02/22-rdf-syntax-ns#"
   xmlns:svg="http://www.w3.org/2000/svg"
   xmlns="http://www.w3.org/2000/svg"
   xmlns:sodipodi="http://sodipodi.sourceforge.net/DTD/sodipodi-0.dtd"
   xmlns:inkscape="http://www.inkscape.org/namespaces/inkscape"
   version="1.1"
   id="svg2"
   xml:space="preserve"
   width="546.17334"
   height="159.94667"
   viewBox="0 0 546.17334 159.94667"
   sodipodi:docname="SAPO2h+cmyk.eps"><metadata
     id="metadata8"><rdf:RDF><cc:Work
         rdf:about=""><dc:format>image/svg+xml</dc:format><dc:type
           rdf:resource="http://purl.org/dc/dcmitype/StillImage" /></cc:Work></rdf:RDF></metadata><defs
     id="defs6" /><sodipodi:namedview
     pagecolor="#ffffff"
     bordercolor="#666666"
     borderopacity="1"
     objecttolerance="10"
     gridtolerance="10"
     guidetolerance="10"
     inkscape:pageopacity="0"
     inkscape:pageshadow="2"
     inkscape:window-width="640"
     inkscape:window-height="480"
     id="namedview4" /><g
     id="g10"
     inkscape:groupmode="layer"
     inkscape:label="ink_ext_XXXXXX"
     transform="matrix(1.3333333,0,0,-1.3333333,0,159.94667)"><g
       id="g12"
       transform="scale(0.1)"><path
         d="m 1163.69,481.957 c -15.14,28.742 -39.74,43.527 -71.9,43.527 -22.32,0 -45.77,-7.187 -45.77,-32.511 0,-43.172 127.87,-25.028 127.87,-114.344 0,-57.141 -38.61,-90.813 -93.81,-90.813 -28.01,0 -57.12,8.743 -80.221,32.559 v 65.871 c 14.391,-31.476 44.661,-48.508 76.061,-48.508 28.74,0 45.79,9.512 45.79,31.465 0,55.969 -130.163,19.258 -130.163,127.539 0,50.676 41.993,85.481 93.813,85.481 46.52,0 70.73,-22.325 78.33,-32.532 v -67.734"
         style="fill:#176fc1;fill-opacity:1;fill-rule:nonzero;stroke:none"
         id="path14" /><path
         d="m 1329.39,294.625 h 52.21 v 170.684 c 0,50.339 -35.94,71.914 -86.63,71.914 -43.51,0 -66.57,-10.657 -92.7,-40.918 v -55.606 c 18.54,26.492 47.29,44.317 86.24,44.317 22.36,0 40.11,-6.496 40.11,-23.86 0,-47.304 -138.08,-18.613 -138.08,-107.871 0,-37.117 28,-65.469 66.19,-65.469 37.87,0 61.31,15.938 71.89,52.149 h 0.77 z m -50.34,278.535 c 0,17.02 -6.8,21.543 -23.8,21.543 -17.03,0 -23.86,-4.523 -23.86,-21.543 0,-17.031 6.83,-23.808 23.86,-23.808 17,0 23.8,6.777 23.8,23.808 z m 76.48,0 c 0,17.02 -6.87,21.543 -23.85,21.543 -17.04,0 -23.86,-4.523 -23.86,-21.543 0,-17.031 6.82,-23.808 23.86,-23.808 16.98,0 23.85,6.777 23.85,23.808 z m -25.8,-175.656 c 0,-34.785 -15.47,-68.867 -54.09,-68.867 -18.52,0 -30.62,8.781 -30.62,27.636 0,34.825 66.95,37.911 84.71,54.961 v -13.73"
         style="fill:#176fc1;fill-opacity:1;fill-rule:nonzero;stroke:none"
         id="path16" /><path
         d="m 1420.17,587.535 h 56.76 V 417.66 h 0.75 l 76.8,112.715 h 72.25 l -91.9,-118.457 92.66,-117.293 h -76.07 l -73.74,110.164 h -0.75 V 294.625 h -56.76 v 292.91"
         style="fill:#176fc1;fill-opacity:1;fill-rule:nonzero;stroke:none"
         id="path18" /><path
         d="m 1811.25,377.836 c -17.01,-26.875 -32.89,-44.629 -71.86,-44.629 -40.12,0 -63.58,18.887 -64.32,59.824 h 146.03 c 0.75,9.453 1.86,19.278 1.86,29.16 0,68.45 -26.07,115.032 -97.2,115.032 -66.94,0 -105.18,-48.098 -105.18,-123.371 0,-74.52 34.05,-126.036 111.19,-126.036 31.07,0 60.21,16.653 79.48,40.118 z m -136.18,60.578 c 2.64,30.242 27.63,46.602 53.71,46.602 28.36,0 54.45,-15.168 55.6,-46.602 h -109.31"
         style="fill:#176fc1;fill-opacity:1;fill-rule:nonzero;stroke:none"
         id="path20" /><path
         d="m 1911.12,294.625 h -56.74 v 235.75 h 52.6 v -67.676 h 0.74 c 5.3,42.364 20.8,75.637 56.75,74.524 15.87,-0.801 23.86,-4.942 29.89,-9.836 v -65.848 c -7.94,11.66 -18.53,16.688 -32.54,16.688 -42.37,0 -50.7,-47.032 -50.7,-78.797 V 294.625"
         style="fill:#176fc1;fill-opacity:1;fill-rule:nonzero;stroke:none"
         id="path22" /><path
         d="m 2010.99,587.535 h 56.76 V 475.504 h 0.75 c 7.55,31.414 32.88,61.719 73.38,61.719 57.52,0 69.23,-41.262 69.23,-86.321 V 294.625 h -56.74 v 130.223 c 0,32.902 -3.01,57.902 -36.68,57.902 -37.07,0 -49.94,-32.16 -49.94,-64.406 V 294.625 h -56.76 v 292.91"
         style="fill:#176fc1;fill-opacity:1;fill-rule:nonzero;stroke:none"
         id="path24" /><path
         d="m 2432.04,377.836 c -16.99,-26.875 -32.91,-44.629 -71.89,-44.629 -40.08,0 -63.53,18.887 -64.3,59.824 h 146.04 c 0.78,9.453 1.89,19.278 1.89,29.16 0,68.45 -26.09,115.032 -97.23,115.032 -66.93,0 -105.1,-48.098 -105.1,-123.371 0,-74.52 34.03,-126.036 111.14,-126.036 31.03,0 60.17,16.653 79.45,40.118 z m -136.19,60.578 c 2.67,30.242 27.66,46.602 53.79,46.602 28.32,0 54.41,-15.168 55.59,-46.602 h -109.38"
         style="fill:#176fc1;fill-opacity:1;fill-rule:nonzero;stroke:none"
         id="path26" /><path
         d="m 2607.18,311.313 c -15.02,-15.567 -30.92,-23.497 -56.29,-23.497 -55.66,0 -66.19,39.348 -66.19,81.7 0,43.156 1.44,76.113 2.24,108.711 h -33.69 v 39.66 c 33.26,7.597 55.59,37.851 64.34,69.648 h 26.07 l -1.5,-57.16 h 68.46 v -52.148 h -69.65 c -0.31,-33.028 -1.86,-65.918 -1.86,-98.465 0,-24.153 4.55,-46.555 30.28,-46.555 20.13,0 29.14,11.75 37.79,29.211 v -51.105"
         style="fill:#176fc1;fill-opacity:1;fill-rule:nonzero;stroke:none"
         id="path28" /><path
         d="m 2628.29,375.953 c 12.54,-25.312 33.3,-40.488 66.25,-40.488 13.24,0 35.18,6.16 35.18,27.644 0,37.883 -106.02,15.52 -106.02,94.641 0,48.016 36.76,79.473 84.81,79.473 25.37,0 49.2,-9.082 62.44,-27.325 v -61.281 c -10.24,25.039 -34.44,36.399 -60.55,36.399 -17.75,0 -34.43,-10.305 -34.43,-24.289 0,-40.899 103.73,-10.137 103.73,-96.114 0,-47.304 -38.26,-76.797 -84.04,-76.797 -28.38,0 -46.51,9.094 -67.37,27.188 v 60.949"
         style="fill:#176fc1;fill-opacity:1;fill-rule:nonzero;stroke:none"
         id="path30" /><path
         d="m 2806.98,237.887 h 56.78 v 93.035 h 0.74 c 6.82,-17.734 24.55,-43.106 66.55,-43.106 59,0 87.42,63.946 87.42,126.036 0,53.722 -12.48,123.371 -80.22,123.371 -42.4,0 -59.76,-21.223 -77.18,-64.719 h -0.75 v 57.871 h -53.34 z m 159.28,170.261 c 0,-41.257 -21.17,-72.683 -51.09,-72.683 -45.76,0 -54.85,33.34 -54.85,75.769 0,29.465 11.35,69.239 51.84,69.239 44.63,0 54.1,-31.055 54.1,-72.325"
         style="fill:#176fc1;fill-opacity:1;fill-rule:nonzero;stroke:none"
         id="path32" /><path
         d="m 3039.33,416.078 c 0,-82.871 38.16,-128.262 110.82,-128.262 73.06,0 111.19,45.391 111.19,128.262 0,77.656 -32.99,121.145 -111.19,121.145 -77.99,0 -110.82,-43.489 -110.82,-121.145 z m 110.82,-80.613 c -42.74,0 -58.65,32.605 -58.65,78.719 0,38.254 15.07,66.289 58.96,66.289 43.5,0 58.63,-28.035 58.63,-66.289 0,-46.114 -15.84,-78.719 -58.94,-78.719"
         style="fill:#176fc1;fill-opacity:1;fill-rule:nonzero;stroke:none"
         id="path34" /><path
         d="m 3290.07,587.535 h 56.72 v -292.91 h -56.72 v 292.91"
         style="fill:#176fc1;fill-opacity:1;fill-rule:nonzero;stroke:none"
         id="path36" /><path
         d="m 3413.39,595.445 c 23.09,0 34.04,-4.543 34.04,-23.828 0,-14.746 -9.8,-23.808 -34.04,-23.808 -24.18,0 -33.96,9.062 -33.96,23.808 0,19.285 10.85,23.828 33.96,23.828 z m -28.34,-65.07 c 7.17,-4.102 16.99,-6.465 29.1,-6.465 11,0 19.63,2.363 27.6,6.465 v -235.75 h -56.7 v 235.75"
         style="fill:#176fc1;fill-opacity:1;fill-rule:nonzero;stroke:none"
         id="path38" /><path
         d="m 3476.79,375.953 c 12.46,-25.312 33.2,-40.488 66.15,-40.488 13.18,0 35.2,6.16 35.2,27.644 0,37.883 -105.98,15.52 -105.98,94.641 0,48.016 36.72,79.473 84.78,79.473 25.32,0 49.18,-9.082 62.45,-27.325 v -61.281 c -10.2,25.039 -34.48,36.399 -60.55,36.399 -17.83,0 -34.45,-10.305 -34.45,-24.289 0,-40.899 103.69,-10.137 103.69,-96.114 0,-47.304 -38.19,-76.797 -83.99,-76.797 -28.4,0 -46.6,9.094 -67.3,27.188 v 60.949"
         style="fill:#176fc1;fill-opacity:1;fill-rule:nonzero;stroke:none"
         id="path40" /><path
         d="m 3840.54,377.836 c -17.01,-26.875 -32.85,-44.629 -71.86,-44.629 -40.09,0 -63.63,18.887 -64.33,59.824 h 146.11 c 0.64,9.453 1.84,19.278 1.84,29.16 0,68.45 -26.12,115.032 -97.23,115.032 -66.91,0 -105.25,-48.098 -105.25,-123.371 0,-74.52 34.12,-126.036 111.3,-126.036 31.02,0 60.08,16.653 79.42,40.118 z m -136.19,60.578 c 2.69,30.242 27.61,46.602 53.69,46.602 28.53,0 54.47,-15.168 55.64,-46.602 h -109.33"
         style="fill:#176fc1;fill-opacity:1;fill-rule:nonzero;stroke:none"
         id="path42" /><path
         d="m 3877.47,530.375 h 54.44 v -58.68 h 0.8 c 9.78,35.223 35.13,65.528 75.68,65.528 57.42,0 69.14,-41.262 69.14,-86.321 V 294.625 h -56.72 v 130.223 c 0,32.902 -3.03,57.902 -36.68,57.902 -37.09,0 -49.92,-32.16 -49.92,-64.406 V 294.625 h -56.74 v 235.75"
         style="fill:#176fc1;fill-opacity:1;fill-rule:nonzero;stroke:none"
         id="path44" /><path
         d="m 157.93,463.563 c -5.149,31.246 12.644,57.292 14.136,59.41 l 7.008,-5.735 11.516,-9.437 -0.086,169.031 -49.344,41.102 -16.637,-20.293 -6.832,-8.34 -16.371,13.301 c 0,0 -9.3161,-1.25 -23.2927,-18.145 -13.789,-16.676 -13.0117,-25.762 -13.0117,-25.762 l 16.5821,-13.461 -6.9688,-8.5 L 57.9961,616.445 106,577.109 h -0.008 l 20.266,-16.601 0.004,0.004 4.859,-3.985 C 129.875,555.199 107.738,532.098 75.6563,530.969 43.1211,529.852 13.8984,549.832 13.8984,549.832 12.1797,537.859 -1.51172,482.426 62.2148,430.207 121.758,380.531 177.152,402.68 188.57,406.715 c 0,0 -25.343,24.734 -30.64,56.848"
         style="fill:#fddd04;fill-opacity:1;fill-rule:evenodd;stroke:none"
         id="path46" /><path
         d="m 754.168,463.789 c 5.148,31.246 -12.645,57.293 -14.137,59.41 l -7.008,-5.734 -11.515,-9.438 0.09,169.032 49.343,41.101 16.633,-20.293 6.832,-8.34 16.371,13.301 c 0,0 9.317,-1.25 23.293,-18.144 13.789,-16.676 13.012,-25.762 13.012,-25.762 l -16.578,-13.457 6.965,-8.504 16.633,-20.289 -48.004,-39.332 0.007,-0.004 -20.265,-16.602 v 0.004 l -4.863,-3.984 c 1.246,-1.328 23.386,-24.43 55.464,-25.559 32.536,-1.117 61.762,18.864 61.762,18.864 1.715,-11.973 15.406,-67.407 -48.316,-119.625 -59.543,-49.672 -114.942,-27.532 -126.356,-23.493 0,0 25.34,24.735 30.637,56.848"
         style="fill:#fddd04;fill-opacity:1;fill-rule:evenodd;stroke:none"
         id="path48" /><path
         d="M 703.488,259.125 852.672,136.129 836.02,115.82 828.738,105.84 845.887,91.1406 839.898,75.8984 825.199,57.6719 811.316,49.7695 793.789,64.2891 786.129,54.9297 769.5,34.6406 624.25,153.512"
         style="fill:#fddd04;fill-opacity:1;fill-rule:evenodd;stroke:none"
         id="path50" /><path
         d="M 208.781,258.473 59.5977,135.48 76.25,115.172 83.5352,105.191 66.3867,90.4883 72.375,75.25 87.0703,57.0117 100.953,49.1211 118.48,63.6289 126.145,54.2813 142.77,33.9883 288.02,152.859"
         style="fill:#fddd04;fill-opacity:1;fill-rule:evenodd;stroke:none"
         id="path52" /><path
         d="m 710.148,733.98 25.961,148.833 -25.961,35.644 c 0,0 -227.746,232.683 -516.613,0 l -14.812,-40.531 32.074,-181.106 481.555,4.5 17.796,32.66"
         style="fill:#b40659;fill-opacity:1;fill-rule:evenodd;stroke:none"
         id="path54" /><path
         d="m 455.996,893.961 c -16.43,0 -29.824,-13.199 -29.824,-29.531 0,-7.09 2.59,-13.645 6.797,-18.629 -3.715,1.371 -6.946,2.004 -11.051,2.004 -16.43,0 -29.727,-13.153 -29.727,-29.434 0,-16.281 13.297,-29.531 29.727,-29.531 10.656,0 20.047,5.426 25.277,13.738 -0.246,-2.492 -0.246,-4.254 -0.246,-6.453 0,-16.281 -13.347,-35.695 -29.824,-35.695 -13.25,0 -25.57,8.605 -29.383,20.539 -3.863,-11.934 -16.429,-20.539 -29.679,-20.539 -16.43,0 -29.875,19.414 -29.875,35.695 0,2.199 0,3.961 -0.196,6.453 5.231,-8.312 14.668,-13.738 25.278,-13.738 16.429,0 29.781,13.25 29.781,29.531 0,16.281 -13.352,29.434 -29.781,29.434 -4.059,0 -7.332,-0.633 -11,-2.004 4.207,4.984 6.746,11.539 6.746,18.629 0,16.332 -13.348,29.531 -29.825,29.531 -16.429,0 -29.726,-13.199 -29.726,-29.531 0,-7.09 2.492,-13.645 6.797,-18.629 -3.766,1.371 -7.043,2.004 -11.102,2.004 -16.379,0 -29.676,-13.153 -29.676,-29.434 0,-16.281 13.297,-29.531 29.676,-29.531 10.613,0 20,5.426 25.328,13.738 -0.144,-2.687 -0.144,-4.254 -0.144,-6.453 0,-16.281 -13.496,-35.695 -29.922,-35.695 -13.301,0 -25.43,8.605 -29.289,20.539 C 247.219,769.035 237,760.43 223.754,760.43 c -16.434,0 -24.008,17.461 -28.117,33.004 -0.539,2.152 -1.563,6.652 -1.953,9.144 5.226,-8.312 14.617,-13.738 25.277,-13.738 16.477,0 27.769,13.25 27.769,29.531 0,16.281 -13.347,29.434 -29.824,29.434 -3.961,0 -7.285,-0.633 -11,-2.004 4.25,4.984 6.696,11.539 6.696,18.629 0,16.332 -15.594,29.726 -32.024,29.726 H 163.27 l 37.648,-213.715 h 510.105 l 37.508,213.52 h -19.515 c -16.375,0 -29.723,-13.199 -29.723,-29.531 0,-7.09 2.543,-13.645 6.797,-18.629 -3.766,1.371 -7.043,2.004 -11.055,2.004 -16.426,0 -29.773,-13.153 -29.773,-29.434 0,-16.281 10.957,-31 27.383,-31 10.66,0 20.043,5.332 25.277,13.645 -0.535,-2.789 -0.977,-4.547 -1.367,-6.797 -3.278,-16.625 -12.278,-33.688 -28.703,-33.688 -13.25,0 -23.176,8.504 -26.993,20.438 -3.906,-11.934 -16.035,-20.539 -29.285,-20.539 -16.476,0 -30.019,19.414 -30.019,35.695 0,2.199 -0.246,3.961 -0.047,6.453 5.23,-8.312 14.668,-13.738 25.226,-13.738 16.477,0 29.821,13.25 29.821,29.531 0,16.281 -13.344,29.434 -29.821,29.434 -4.007,0 -7.285,-0.633 -11.05,-2.004 4.3,4.984 6.793,11.539 6.793,18.629 0,16.332 -13.297,29.531 -29.723,29.531 -16.43,0 -29.777,-13.199 -29.777,-29.531 0,-7.09 2.543,-13.645 6.742,-18.629 -3.711,1.371 -7.035,2.004 -11.043,2.004 -16.43,0 -29.731,-13.153 -29.731,-29.434 0,-16.281 13.301,-29.531 29.731,-29.531 10.605,0 19.996,5.426 25.324,13.738 -0.293,-2.687 -0.293,-4.742 -0.293,-6.992 0,-16.332 -13.394,-35.156 -29.777,-35.156 -13.297,0 -25.91,8.605 -29.727,20.539 -3.863,-11.934 -16.086,-20.539 -29.383,-20.539 -16.48,0 -29.777,19.414 -29.777,35.695 0,2.199 0,3.422 -0.293,6.453 5.23,-8.312 14.617,-13.738 25.273,-13.738 16.43,0 29.778,13.25 29.778,29.531 0,16.281 -13.348,29.434 -29.778,29.434 -4.007,0 -7.328,-0.633 -11.046,-2.004 4.207,4.984 6.75,11.539 6.75,18.629 0,16.332 -13.301,29.531 -29.731,29.531"
         style="fill:#fddd04;fill-opacity:1;fill-rule:evenodd;stroke:none"
         id="path56" /><path
         d="m 470.395,1030.7 c 10.921,5.69 18.41,17.29 18.41,30.67 0,16.4 -11.164,30.08 -26.145,33.55 h 1.891 v 24.74 h 23.668 v 18.04 h -23.668 v 24.35 h -17.797 v -24.35 h -23.957 v -18.04 h 23.957 v -24.74 h 1.016 c -14.981,-3.47 -26.149,-17.15 -26.149,-33.55 0,-13.36 7.469,-24.95 18.367,-30.65 -162.691,-6.2 -261.265,-112.556 -261.265,-112.556 l 6.89,-21.516 44.985,17.75 c 0,0 56.031,69.77 150.687,90.212 -63.805,-33.641 -87.222,-90.212 -87.222,-90.212 0,0 23.417,-15.937 23.859,-15.937 0.391,0 37.598,15.937 37.598,15.937 0,0 6.992,52.805 75.933,93.872 -0.976,-13.782 -9.191,-93.872 -9.191,-93.872 l 32.609,-16.378 32.613,16.378 c 0,0 -8.214,80.09 -9.144,93.872 68.988,-41.067 75.937,-93.872 75.937,-93.872 0,0 36.571,-15.011 37.008,-15.011 0.488,0 24.399,15.011 24.399,15.011 0,0 -21.661,56.571 -85.465,90.212 94.609,-20.442 148.976,-90.212 148.976,-90.212 l 45.032,-17.75 6.894,21.516 c 0,0 -98.594,106.036 -260.726,112.536"
         style="fill:#fddd04;fill-opacity:1;fill-rule:evenodd;stroke:none"
         id="path58" /><path
         d="M 721.211,681.621 721.238,197.18 C 721.238,112.828 662.625,95.6797 575.902,79.9492 509.133,67.8398 460.695,65.6914 455.059,49.25 449.418,65.6914 402.738,67.8398 335.961,79.9492 249.238,95.6797 190.648,112.828 190.648,197.18 c 0,0 -0.101,484.863 0,484.863 l 530.563,-0.422"
         style="fill:#176fc1;fill-opacity:1;fill-rule:evenodd;stroke:none"
         id="path60" /><path
         d="m 723.434,410.164 -0.004,96.645 10.949,8.957 4.816,3.945 c 0,0 0,0 0,-0.004 4.289,-6.863 16.774,-29.605 12.461,-55.785 -4.312,-26.164 -22.496,-47.559 -28.222,-53.758 z m 0.011,-212.984 -0.004,41.293 13.852,-11.457 -3.059,-25.719 -0.617,-5.207 -2.262,-19.031 -9.632,-3.137 c 1.125,7.148 1.722,14.867 1.722,23.258 z m 26.141,-14.16 -13.606,-4.442 1.688,14.203 z m -8.242,40.683 37.871,-30.992 -24.649,-8.063 -16.281,13.332 z m 57.125,-47.812 -23.707,-7.77 -4.981,-1.633 -24.593,-8.047 -4.977,-1.632 -7.094,-2.329 -4.629,-1.511 -14.105,-4.617 c 2.765,6.238 4.937,13.089 6.453,20.628 l 9.941,3.25 4.629,1.508 18.235,5.961 4.984,1.629 23.758,7.774 z m 8.679,-6.039 -13.847,-16.903 -14.488,11.86 24.632,8.07 z m 15.868,-12.993 -13.852,-16.89 -2.801,-3.418 -13.828,-16.86 -2.797,-3.421 -13.84,-16.8794 -2.8,-3.4218 -13.84,-16.879 -2.801,-3.4101 -13.812,-16.8516 -12.426,10.1602 13.761,16.8008 2.848,3.4726 13.836,16.8863 2.801,3.422 13.832,16.879 2.801,3.422 13.82,16.867 2.801,3.41 13.844,16.903 z m 26.402,-21.609 -13.855,-16.891 -23.012,18.832 13.844,16.899 z m -30.48,-37.1719 -23.004,18.8319 13.82,16.871 23.012,-18.84 z m 24.347,-7.1484 C 842.988,88.3984 841.25,80.4883 831.121,68.1289 821.145,55.9609 813.902,52.8711 811.543,52.1406 l -14.68,12.0313 6.059,7.3984 v 0 l 18.805,22.9414 6.914,8.4373 z m -63.984,5.6719 13.832,16.8864 23.008,-18.8278 -13.836,-16.8789 z m 6.371,-39.1328 -23.004,18.832 13.836,16.8906 23.004,-18.832 z M 769.043,37.1797 746.043,56 759.867,72.8789 782.871,54.0586 Z m -45.449,37.1914 3.054,25.6989 13.965,-11.4294 -13.828,-16.8789 z m 33.656,34.5779 -13.84,-16.8904 -16.144,13.2114 3.058,25.71 z m -8.008,46.172 24.594,8.059 16.668,-13.649 -13.824,-16.871 z m 24.641,-25.871 -13.836,-16.891 -29.106,23.821 1.598,13.468 11.723,3.84 z m -51.285,-25.859 -3.043,-25.6019 -16.215,13.2812 3.027,25.6017 0.613,5.207 1.899,16.051 c 0.988,1.582 1.926,3.211 2.816,4.89 l 16.219,5.309 -1.023,-8.629 -0.621,-5.199 -3.055,-25.711 z M 700.723,127 c 0.957,1.078 1.91,2.172 2.808,3.301 l -0.601,-5.11 z m -1.45,-32.7187 -19.035,15.5777 c 6.481,4.082 12.317,8.68 17.461,13.911 l 4.614,-3.782 z M 575.504,82.1289 c -16.973,-3.0781 -32.91,-5.5391 -46.977,-7.707 -38.394,-5.9219 -65.078,-10.043 -73.441,-20.6328 -8.109,10.6601 -33.559,14.6328 -73.113,20.8007 -13.629,2.1211 -29.078,4.5313 -45.618,7.5391 -86.679,15.7227 -143.5,32.2231 -143.5,115.0511 0,4.636 -0.089,446.367 -0.011,481.097 h 6.215 l 0.007,-0.043 h 511.844 8.094 l 0.027,-481.054 c 0,-82.828 -56.828,-99.3284 -143.527,-115.0511 z m -362.895,12.1524 -3.039,25.7067 4.614,3.774 c 5.14,-5.223 10.98,-9.821 17.457,-13.903 z m -4.257,36.0197 c 0.902,-1.129 1.851,-2.223 2.808,-3.301 l -2.207,-1.809 z m -16.02,-52.5119 -3.043,25.6019 -0.617,5.199 -3.059,25.711 -0.617,5.199 -1.027,8.629 16.219,-5.309 c 0.89,-1.679 1.828,-3.308 2.816,-4.898 l 1.898,-16.043 0.618,-5.207 3.023,-25.6017 z m -7.234,-6.0274 -13.828,16.8789 13.964,11.4294 3.055,-25.6989 z m -15.86,-12.9336 -13.812,16.8516 -2.801,3.4101 -13.84,16.879 -2.801,3.4218 -13.839,16.8794 -2.797,3.421 -13.828,16.86 -2.801,3.418 -13.8518,16.89 12.4528,10.192 13.844,-16.903 2.801,-3.41 13.82,-16.867 2.801,-3.422 13.836,-16.879 2.797,-3.422 13.836,-16.8863 2.847,-3.4726 13.762,-16.8008 z M 142.84,37.1797 129.012,54.0586 152.016,72.8789 165.844,56 Z m -30.461,37.1797 23.004,18.832 13.832,-16.8906 -23.004,-18.832 z M 100.344,52.1406 C 97.9805,52.8711 90.7422,55.9609 80.7617,68.1289 70.6328,80.4883 68.8945,88.3984 68.5977,90.9297 l 14.6445,12.0193 6.9141,-8.4373 18.8047,-22.9414 v 0 l 6.062,-7.3984 z M 118.75,113.488 132.582,96.6016 109.578,77.7813 95.7461,94.6602 Z m -39.6289,1.453 23.0119,18.84 L 115.949,116.91 92.9453,98.0781 Z M 62.4688,135.25 85.4883,154.09 99.332,137.191 76.3203,118.359 Z m 45.9692,37.629 24.632,-8.07 -14.488,-11.86 -13.848,16.903 z m 73.121,-41.899 3.058,-25.71 -16.144,-13.2114 -13.84,16.8904 z m -46.356,1.68 -13.824,16.871 16.672,13.649 24.594,-8.059 z m 32.418,20.828 11.723,-3.84 1.597,-13.468 -29.105,-23.821 -13.832,16.891 z m -38.121,35.614 23.762,-7.774 4.98,-1.629 18.235,-5.961 4.628,-1.508 9.942,-3.25 c 1.516,-7.539 3.683,-14.39 6.449,-20.628 l -14.101,4.617 -4.625,1.511 -7.094,2.329 -4.981,1.632 -24.593,8.047 -4.981,1.633 -23.707,7.77 z m 41.039,34.601 3.059,-25.723 -16.282,-13.332 -24.648,8.063 z m 5.363,-45.125 -13.605,4.442 11.918,9.761 z m 12.532,59.887 0.004,-41.285 c 0,-8.391 0.597,-16.11 1.722,-23.258 l -9.629,3.137 -2.261,19.031 -0.622,5.207 -3.054,25.719 z m 535.132,409.859 0.618,-5.199 3.058,-25.723 1.52,-12.769 0.574,-4.832 1.582,-13.305 0.617,-5.203 0.106,-0.875 0.574,-4.832 2.379,-20.012 0.621,-5.203 3.055,-25.707 v -0.008 l -6.84,-5.597 -8.004,-6.536 -0.004,137.036 z m 3.84,31.36 13.832,-16.879 -13.621,-11.16 -3.062,25.707 z m 16.508,13.484 13.809,-16.855 2.797,-3.418 13.839,-16.891 2.797,-3.414 13.828,-16.879 2.801,-3.418 13.832,-16.891 2.801,-3.414 13.828,-16.883 0.016,-0.015 -12.977,-10.805 -0.097,0.121 -13.833,16.879 -2.796,3.418 -13.84,16.887 -2.797,3.414 -13.832,16.879 -2.797,3.414 -13.84,16.891 -2.801,3.414 -13.714,16.742 z m 26.383,21.66 13.836,-16.879 -22.992,-18.84 -13.832,16.883 z m 30.473,-37.187 -22.997,-18.84 -13.835,16.894 22.992,18.836 z m 11.933,22.547 c 2.399,-0.79 9.805,-4.055 19.949,-16.426 9.969,-12.168 11.59,-19.883 11.852,-22.348 l -14.797,-12.117 -31.773,38.777 z m -18.305,-61.68 -13.824,16.879 22.992,18.84 13.829,-16.879 z m 39.629,-1.465 -22.992,-18.84 -13.836,16.887 22.992,18.84 z m 16.633,-20.293 -23,-18.844 -13.828,16.879 22.992,18.844 z m -45.359,-37.164 -24.606,8.051 13.246,10.851 13.829,-16.879 z m -27.996,39.203 13.836,-16.887 -15.422,-12.636 -24.617,8.058 z m -16.629,20.297 13.828,-16.879 -28.383,-23.254 -12.734,4.168 -1.473,12.399 z m -32.438,7.359 15.797,12.946 13.844,-16.891 -26.582,-21.777 v 0 z m 56.805,-83.461 h -0.004 l -24.621,8.039 -4.98,1.625 -19.172,6.258 -0.676,5.707 -0.621,5.203 -1.004,8.469 8.105,-2.652 4.981,-1.629 v 0 l 24.617,-8.055 4.977,-1.629 24.605,-8.054 h 0.008 z m -46.395,-4.089 -1.804,15.179 14.539,-4.746 z m 0.618,-5.204 17.097,14.012 24.625,-8.039 -1.816,-1.488 -36.852,-30.192 v 0 z m 96.765,-24.929 c 27.367,-0.934 51.942,12.394 60.192,17.41 2.851,-17.242 10.058,-66.625 -48.071,-114.258 -24.968,-20.832 -52.113,-31.391 -80.687,-31.391 -0.004,0 -0.004,0 -0.008,0 -18.617,0 -32.934,4.528 -40.309,7.125 6.575,7.149 24.426,28.645 28.864,55.555 0.293,1.785 0.515,3.559 0.676,5.305 0.05,0.594 0.054,1.172 0.093,1.758 0.078,1.144 0.164,2.297 0.188,3.422 0.011,0.453 -0.02,0.89 -0.016,1.339 0,1.239 0.008,2.481 -0.051,3.692 -0.031,0.699 -0.109,1.375 -0.16,2.062 -0.066,0.938 -0.117,1.891 -0.215,2.809 -0.062,0.57 -0.16,1.117 -0.23,1.68 -0.133,1.007 -0.25,2.023 -0.414,3.003 -0.11,0.637 -0.246,1.247 -0.367,1.872 -0.164,0.875 -0.321,1.765 -0.508,2.617 -0.11,0.496 -0.246,0.965 -0.363,1.453 -0.227,0.945 -0.45,1.902 -0.7,2.812 -0.136,0.496 -0.289,0.957 -0.429,1.442 -0.258,0.871 -0.508,1.754 -0.778,2.59 -0.172,0.531 -0.359,1.027 -0.539,1.543 -0.258,0.75 -0.511,1.515 -0.777,2.23 -0.219,0.586 -0.445,1.129 -0.668,1.691 -0.234,0.606 -0.473,1.231 -0.711,1.809 -0.254,0.602 -0.508,1.156 -0.758,1.731 -0.219,0.492 -0.433,1.007 -0.648,1.476 -0.239,0.516 -0.469,0.973 -0.703,1.461 -0.231,0.48 -0.461,0.984 -0.688,1.434 -0.277,0.554 -0.543,1.05 -0.812,1.562 -0.172,0.332 -0.356,0.692 -0.524,1.004 -0.226,0.422 -0.437,0.785 -0.652,1.176 -0.195,0.347 -0.403,0.726 -0.586,1.047 -0.172,0.293 -0.317,0.535 -0.481,0.804 -0.207,0.356 -0.425,0.735 -0.621,1.043 -0.265,0.438 -0.496,0.801 -0.722,1.157 -0.063,0.093 -0.137,0.218 -0.196,0.308 0,0 -0.004,0.004 -0.004,0.008 l 0.293,0.238 37.547,30.766 c 5.754,-5.606 26.563,-23.766 55.543,-24.785 z m -647.633,77.519 c -0.003,-26.98 -0.003,-59.316 0,-93.804 l -8.062,6.582 -6.844,5.597 0.004,0.008 3.055,25.707 0.621,5.203 2.379,20.012 0.574,4.832 0.102,0.875 0.621,5.203 1.582,13.305 0.574,4.832 1.516,12.769 3.058,25.723 0.621,5.199 0.215,1.809 z M 160.109,463.922 c -4.312,26.18 8.168,48.922 12.457,55.785 0.004,0.004 0.004,0.004 0.004,0.004 l 4.817,-3.945 11.011,-9.008 c 0,-21.856 0,-44.5 0.004,-67.149 l 0.004,-29.527 c -5.64,6.094 -23.965,27.563 -28.297,53.84 z m -15.8,-63.399 c -0.004,0 -0.004,0 -0.008,0 -28.574,0 -55.719,10.559 -80.6877,31.391 -58.13283,47.633 -50.9258,97.016 -48.0703,114.258 8.2461,-5.016 32.8242,-18.344 60.1914,-17.41 28.9806,1.019 49.7856,19.179 55.5426,24.785 l 37.547,-30.766 0.293,-0.238 c 0,-0.004 -0.004,-0.008 -0.004,-0.008 -0.058,-0.09 -0.133,-0.215 -0.195,-0.308 -0.227,-0.356 -0.457,-0.719 -0.727,-1.157 -0.191,-0.308 -0.41,-0.687 -0.617,-1.043 -0.164,-0.269 -0.308,-0.511 -0.48,-0.804 -0.188,-0.321 -0.391,-0.7 -0.586,-1.047 -0.215,-0.391 -0.426,-0.754 -0.653,-1.176 -0.171,-0.312 -0.351,-0.672 -0.523,-1.004 -0.269,-0.512 -0.535,-1.008 -0.812,-1.562 -0.227,-0.45 -0.457,-0.954 -0.688,-1.434 -0.234,-0.488 -0.465,-0.945 -0.703,-1.461 -0.215,-0.469 -0.43,-0.984 -0.649,-1.476 -0.253,-0.575 -0.503,-1.129 -0.757,-1.731 -0.243,-0.578 -0.477,-1.203 -0.711,-1.809 -0.227,-0.562 -0.449,-1.105 -0.668,-1.691 -0.27,-0.715 -0.52,-1.48 -0.778,-2.23 -0.179,-0.516 -0.367,-1.012 -0.539,-1.543 -0.269,-0.836 -0.519,-1.719 -0.777,-2.59 -0.141,-0.485 -0.297,-0.946 -0.43,-1.442 -0.254,-0.91 -0.472,-1.867 -0.703,-2.812 -0.117,-0.488 -0.25,-0.957 -0.359,-1.453 -0.192,-0.852 -0.344,-1.742 -0.512,-2.617 -0.117,-0.625 -0.258,-1.235 -0.363,-1.872 -0.164,-0.98 -0.281,-1.996 -0.414,-3.003 -0.071,-0.563 -0.168,-1.11 -0.231,-1.68 -0.097,-0.918 -0.148,-1.871 -0.218,-2.809 -0.047,-0.687 -0.125,-1.363 -0.157,-2.062 -0.058,-1.211 -0.05,-2.453 -0.05,-3.692 0,-0.449 -0.028,-0.886 -0.016,-1.339 0.019,-1.125 0.109,-2.278 0.183,-3.422 0.04,-0.586 0.043,-1.164 0.098,-1.758 0.156,-1.746 0.383,-3.52 0.676,-5.305 4.437,-26.91 22.289,-48.406 28.863,-55.555 -7.375,-2.597 -21.691,-7.125 -40.308,-7.125 z m 28.191,153.168 -3.059,-25.707 v 0 l -36.847,30.192 -1.817,1.488 24.621,8.039 z m -12.117,15.637 14.539,4.746 -1.805,-15.179 z m -33.656,-6.344 h -0.004 l -16.215,13.282 h 0.008 l 24.601,8.054 4.981,1.629 24.617,8.055 v 0 l 4.976,1.629 8.11,2.652 -1.004,-8.469 -0.621,-5.203 -0.68,-5.707 -19.168,-6.258 -4.98,-1.625 z m -22.735,18.625 13.832,16.879 13.242,-10.851 -24.601,-8.051 z m -3.414,2.797 -0.098,-0.121 -12.9761,10.805 0.0156,0.015 13.8285,16.883 2.797,3.414 13.835,16.891 2.801,3.418 13.828,16.879 2.797,3.414 13.836,16.891 2.797,3.418 13.813,16.855 12.976,-10.824 -13.719,-16.742 -2.796,-3.414 -13.84,-16.891 -2.797,-3.414 -13.832,-16.879 -2.797,-3.414 -13.84,-16.887 -2.797,-3.418 z M 61.1016,616.75 74.9375,633.629 97.9336,614.785 84.1055,597.906 Z m 30.4726,37.18 22.9918,-18.84 -13.836,-16.887 -22.9917,18.84 z m -24.3125,7.484 c 0.2578,2.465 1.8828,10.18 11.8516,22.348 10.1445,12.371 17.5508,15.636 19.9492,16.426 L 113.832,688.074 82.0586,649.297 Z m 63.9293,-6.027 -13.828,-16.879 -22.9919,18.84 13.8279,16.879 z m -6.355,39.144 22.992,-18.836 -13.836,-16.894 -22.996,18.84 z m 16.633,20.297 22.988,-18.836 -13.832,-16.883 -22.992,18.84 z m 12.418,-72.328 13.84,16.891 15.8,-12.946 -3.058,-25.722 v 0 z m 6.773,-45.176 -24.613,-8.058 -15.422,12.636 13.836,16.887 z m -23.398,24.883 13.828,16.879 28.762,-23.566 -1.477,-12.399 -12.734,-4.168 z m 49.949,55.145 -3.066,-25.707 -13.618,11.16 13.828,16.879 z m -6.633,214.597 c 15.883,0 29.817,-12.859 29.817,-27.519 0,-6.422 -2.192,-12.532 -6.168,-17.2 l 2.445,-3.503 c 3.551,1.312 6.609,1.871 10.234,1.871 15.227,0 27.617,-12.215 27.617,-27.227 0,-15.578 -10.992,-27.324 -25.562,-27.324 -9.652,0 -18.402,4.75 -23.41,12.711 l -4.051,-1.52 c 0.395,-2.515 1.426,-7.058 2.004,-9.367 6.16,-23.312 16.051,-34.648 30.25,-34.648 11.754,0 22.043,6.554 27.41,17.082 5.547,-10.27 16.887,-17.082 29.258,-17.082 17.797,0 32.129,20.738 32.129,37.902 0,2.156 -0.004,3.695 0.14,6.336 l -4.062,1.312 c -5.106,-7.968 -13.879,-12.726 -23.469,-12.726 -15.144,0 -27.469,12.258 -27.469,27.324 0,15.012 12.325,27.227 27.469,27.227 3.695,0 6.692,-0.543 10.344,-1.875 l 2.43,3.519 c -4.036,4.68 -6.262,10.781 -6.262,17.188 0,15.066 12.348,27.324 27.519,27.324 15.231,0 27.618,-12.258 27.618,-27.324 0,-6.332 -2.211,-12.446 -6.227,-17.207 l 2.461,-3.493 c 3.496,1.309 6.559,1.868 10.227,1.868 15.203,0 27.57,-12.215 27.57,-27.227 0,-15.066 -12.367,-27.324 -27.57,-27.324 -9.649,0 -18.403,4.75 -23.411,12.711 l -4.066,-1.352 c 0.187,-2.41 0.187,-4.117 0.187,-6.281 0,-17.164 14.309,-37.902 32.079,-37.902 12.386,0 24.086,6.984 29.671,17.179 5.528,-10.195 17.118,-17.179 29.395,-17.179 17.746,0 32.035,20.738 32.035,37.902 0,2.152 0,3.852 0.231,6.242 l -4.067,1.387 c -5.004,-7.957 -13.754,-12.707 -23.406,-12.707 -15.176,0 -27.52,12.258 -27.52,27.324 0,15.012 12.344,27.227 27.52,27.227 3.707,0 6.687,-0.543 10.285,-1.871 l 2.453,3.496 c -4.047,4.8 -6.277,10.91 -6.277,17.207 0,15.066 12.391,27.324 27.617,27.324 15.176,0 27.52,-12.258 27.52,-27.324 0,-6.332 -2.211,-12.442 -6.227,-17.207 l 2.453,-3.496 c 3.555,1.312 6.629,1.871 10.281,1.871 15.204,0 27.571,-12.215 27.571,-27.227 0,-15.066 -12.367,-27.324 -27.571,-27.324 -9.648,0 -18.398,4.75 -23.406,12.707 l -4.066,-1.387 c 0.285,-2.929 0.285,-4.035 0.285,-6.242 0,-21.344 17.191,-37.902 31.98,-37.902 12.239,0 23.825,6.984 29.379,17.179 5.563,-10.195 17.285,-17.179 29.739,-17.179 18.011,0 31.98,20.086 31.98,37.363 0,2.246 0,4.187 0.277,6.758 l -4.05,1.429 c -5.106,-7.968 -13.879,-12.726 -23.469,-12.726 -15.172,0 -27.52,12.258 -27.52,27.324 0,15.012 12.348,27.227 27.52,27.227 3.66,0 6.734,-0.559 10.281,-1.871 l 2.457,3.492 c -4.015,4.769 -6.226,10.883 -6.226,17.211 0,15.066 12.367,27.324 27.57,27.324 15.176,0 27.516,-12.258 27.516,-27.324 0,-6.407 -2.223,-12.508 -6.258,-17.188 l 2.426,-3.519 c 3.656,1.332 6.636,1.875 10.296,1.875 15.227,0 27.614,-12.215 27.614,-27.227 0,-15.066 -12.387,-27.324 -27.614,-27.324 -9.472,0 -18.425,4.867 -23.359,12.711 l -3.547,5.629 -0.523,-6.633 c -0.137,-1.738 -0.078,-3.133 -0.02,-4.481 0.028,-0.695 0.059,-1.394 0.059,-2.148 0,-17.164 14.379,-37.902 32.23,-37.902 12.313,0 23.637,6.797 29.215,17.043 5.254,-10.575 15.227,-16.946 27.063,-16.946 14.949,0 26.492,13.262 30.878,35.52 0.211,1.219 0.438,2.289 0.688,3.465 0.207,0.984 0.43,2.035 0.672,3.293 l -4.039,1.593 c -4.969,-7.898 -13.719,-12.613 -23.406,-12.613 -15.762,0 -25.176,14.641 -25.176,28.793 0,15.012 12.367,27.227 27.566,27.227 3.664,0 6.645,-0.543 10.297,-1.875 l 2.438,3.507 c -4.043,4.743 -6.27,10.852 -6.27,17.2 0,15.066 12.344,27.324 27.516,27.324 h 16.886 L 709.172,682.648 H 202.773 l -36.871,209.301 z m 247.184,-42.426 c -1.879,0.336 -3.782,0.493 -5.844,0.493 -17.609,0 -31.938,-14.196 -31.938,-31.645 0,-17.504 14.329,-31.742 31.938,-31.742 8.777,0 16.918,3.406 22.824,9.344 -0.078,-15.137 -12.367,-33.332 -27.617,-33.332 -12.289,0 -23.762,7.988 -27.281,18.996 l -2.086,6.539 -2.117,-6.531 c -3.567,-11.012 -15.164,-19.004 -27.582,-19.004 -12.426,0 -27.606,15.39 -27.664,33.382 5.914,-5.968 14.078,-9.394 22.875,-9.394 17.636,0 31.988,14.238 31.988,31.742 0,17.449 -14.352,31.645 -31.988,31.645 -2.055,0 -3.942,-0.153 -5.801,-0.485 2.449,4.524 3.758,9.649 3.758,14.899 0,17.5 -14.372,31.738 -32.036,31.738 -17.605,0 -31.933,-14.238 -31.933,-31.738 0,-5.293 1.308,-10.418 3.758,-14.907 -1.891,0.336 -3.793,0.493 -5.856,0.493 -17.582,0 -31.887,-14.196 -31.887,-31.645 0,-17.504 14.305,-31.742 31.887,-31.742 8.793,0 17,3.465 22.973,9.496 0,-15.074 -12.785,-33.484 -27.711,-33.484 -12.192,0 -23.625,7.992 -27.188,19.004 l -2.086,6.449 -2.113,-6.442 c -3.847,-11.726 -13.535,-19.011 -25.281,-19.011 -11.91,0 -20.406,10.257 -25.973,31.332 -0.047,0.183 -0.097,0.379 -0.148,0.59 5.754,-5.067 13.269,-7.934 21.328,-7.934 17.09,0 29.977,13.648 29.977,31.742 0,17.449 -14.368,31.645 -32.032,31.645 -2.015,0 -3.918,-0.161 -5.801,-0.496 2.415,4.484 3.704,9.609 3.704,14.91 0,14.5 -11.633,27.449 -26.36,30.965 l 43.5,17.164 0.367,0.457 c 0.528,0.656 50.625,61.992 134.336,85.672 -53.644,-33.95 -74.41,-82.915 -74.629,-83.446 l -0.687,-1.656 1.484,-1.012 c 23.981,-16.324 24.196,-16.324 25.102,-16.324 0.613,0 0.844,0 38.469,16.121 l 1.152,0.492 0.164,1.246 c 0.07,0.508 7.356,50.309 71.195,90.031 -1.832,-21.167 -8.761,-88.777 -8.839,-89.515 l -0.153,-1.516 33.942,-17.05 c -16.664,-1.102 -29.887,-14.848 -29.887,-31.629 0,-5.239 1.32,-10.364 3.797,-14.907 z m 273.101,0 c -1.886,0.336 -3.781,0.493 -5.828,0.493 -17.633,0 -31.98,-14.196 -31.98,-31.645 0,-18.621 12.996,-33.207 29.59,-33.207 8.113,0 15.671,2.875 21.421,7.941 -1.961,-8.812 -8.566,-30.367 -26.214,-30.367 -11.622,0 -21.161,7.242 -24.887,18.903 l -2.078,6.496 -2.125,-6.485 c -3.606,-11.015 -15.039,-19.011 -27.188,-19.011 -14.976,0 -27.816,18.41 -27.816,33.484 0,0.027 0,0.059 0,0.086 5.941,-6.02 14.269,-9.582 22.976,-9.582 17.661,0 32.028,14.238 32.028,31.742 0,17.449 -14.367,31.645 -32.028,31.645 -2.039,0 -3.925,-0.157 -5.804,-0.493 2.449,4.489 3.754,9.614 3.754,14.907 0,17.5 -14.325,31.738 -31.93,31.738 -17.637,0 -31.984,-14.238 -31.984,-31.738 0,-5.25 1.312,-10.379 3.757,-14.907 -1.882,0.336 -3.785,0.493 -5.855,0.493 -17.609,0 -31.934,-14.196 -31.934,-31.645 0,-17.504 14.325,-31.742 31.934,-31.742 8.723,0 16.867,3.406 22.832,9.351 0,-0.132 0,-0.261 0,-0.394 0,-14.926 -12.301,-32.945 -27.57,-32.945 -12.489,0 -24.106,7.988 -27.629,19 l -2.09,6.531 -2.113,-6.527 c -3.567,-11.012 -15.039,-19.004 -27.286,-19.004 -15.199,0 -27.457,18.156 -27.566,33.281 5.906,-5.906 14.023,-9.293 22.773,-9.293 17.637,0 31.985,14.238 31.985,31.742 0,17.449 -14.348,31.645 -31.985,31.645 -2.062,0 -3.968,-0.157 -5.851,-0.493 2.449,4.528 3.762,9.653 3.762,14.907 0,17.468 -14.274,31.679 -31.836,31.734 l 33.738,16.945 -0.156,1.516 c -0.075,0.738 -7.004,68.375 -8.801,89.515 63.769,-39.64 71.141,-89.523 71.207,-90.031 l 0.172,-1.269 1.18,-0.485 c 36.972,-15.175 37.269,-15.175 37.851,-15.175 0.84,0 1.121,0 25.566,15.347 l 1.536,0.965 -0.649,1.696 c -0.203,0.531 -19.469,49.539 -72.922,83.5 83.493,-23.672 132.125,-84.993 132.633,-85.645 l 0.371,-0.477 43.844,-17.281 c -14.07,-3.312 -24.582,-15.871 -24.582,-30.855 0,-5.266 1.316,-10.391 3.777,-14.907 z M 181.227,917.582 C 191.738,928.324 294.496,1028.8 454.82,1028.8 615,1028.8 718.059,928.332 728.617,917.578 l -5.773,-18.012 -42.293,16.672 c -5.102,6.266 -59.703,71.047 -149.867,90.532 l -1.496,-4.12 c 56.203,-29.627 79.554,-77.841 83.734,-87.377 -7.813,-4.898 -18.824,-11.75 -21.801,-13.476 -4.062,1.57 -22.07,8.926 -34.863,14.176 -1.543,8.574 -12.789,56.097 -76.789,94.197 l -3.617,2.15 0.285,-4.19 c 0.851,-12.622 7.859,-81.321 8.996,-92.442 l -30.262,-15.2 -30.258,15.2 c 1.137,11.121 8.149,79.82 9.043,92.432 l 0.301,4.22 -3.633,-2.17 c -64.011,-38.135 -75.254,-85.709 -76.789,-94.221 -12.953,-5.547 -31.176,-13.316 -35.418,-15.051 -3.012,1.911 -13.691,9.125 -21.281,14.286 4.418,9.453 29.176,57.785 85.48,87.466 l -1.496,4.12 C 290.527,987.27 234.398,922.387 229.258,916.242 L 186.996,899.57 Z m 242.601,143.788 c 0,17.77 14.082,32.22 31.387,32.22 17.305,0 31.383,-14.45 31.383,-32.22 0,-12.32 -6.785,-23.03 -16.711,-28.45 -4.965,0.19 -9.985,0.3 -15.067,0.3 -4.828,0 -9.601,-0.1 -14.328,-0.28 -9.902,5.42 -16.664,16.13 -16.664,28.43 z m 1.176,60.49 v 13.63 h 23.961 v 24.35 h 13.379 v -24.35 h 23.668 v -13.63 h -23.668 v -24.59 c -2.305,0.48 -4.688,0.73 -7.129,0.73 -2.137,0 -4.219,-0.22 -6.25,-0.59 v 24.45 z M 767.457,396.109 c 0.004,0 0.004,0 0.008,0 29.637,0 57.73,10.903 83.5,32.403 40.469,33.16 57.121,73.258 49.484,119.164 -0.16,0.961 -0.297,1.789 -0.394,2.472 l -0.504,3.504 -2.93,-1.996 c -0.277,-0.191 -28.992,-19.586 -60.437,-18.48 -26.602,0.933 -46.426,17.703 -52.239,23.203 l 2.024,1.656 24.312,19.922 46.594,38.18 -17.934,21.875 -6.441,7.863 16.371,13.41 0.078,0.93 c 0.035,0.39 0.66,9.816 -12.883,26.348 -13.707,16.714 -23.203,18.171 -23.597,18.226 l -0.953,0.133 -16.383,-13.434 -4.785,5.844 v 0 l -0.969,1.184 -1.828,2.23 h -0.004 l -16.633,20.293 -26.402,-21.633 -0.66,-0.543 -20.434,-16.843 v 0.582 h -9.773 l 37.515,213.566 h -22.144 c -0.899,0 -1.786,-0.063 -2.668,-0.133 l 7.273,22.684 -0.883,0.949 c -1.008,1.082 -98.281,103.752 -255.547,112.892 8.383,6.71 13.821,17.1 13.821,28.81 0,16.06 -10.168,29.71 -24.254,34.64 v 21.44 h 23.668 v 22.45 h -23.668 v 24.35 H 444.547 V 1139.9 H 420.59 v -22.45 h 23.957 v -21.11 c -14.547,-4.65 -25.133,-18.57 -25.133,-34.97 0,-11.68 5.414,-22.06 13.766,-28.77 C 275.379,1023.73 178.109,920.75 177.102,919.664 l -0.875,-0.945 7.207,-22.5 c -0.946,0.082 -1.895,0.144 -2.856,0.144 h -19.937 l 37.648,-213.722 h -9.887 l -0.043,-0.621 -20.445,16.843 -0.66,0.543 -26.402,21.633 -16.633,-20.293 h -0.004 l -1.828,-2.23 -0.969,-1.184 v 0 l -4.785,-5.844 -16.383,13.434 -0.9531,-0.133 C 98.9023,704.734 89.4063,703.277 75.6992,686.563 62.1563,670.031 62.7813,660.605 62.8164,660.215 l 0.0781,-0.93 16.3711,-13.41 -6.4414,-7.863 -17.9375,-21.875 46.5973,-38.18 24.313,-19.922 2.023,-1.656 c -5.812,-5.5 -25.636,-22.27 -52.238,-23.203 -31.4453,-1.106 -60.1601,18.289 -60.4414,18.48 l -2.9258,1.996 -0.5039,-3.504 c -0.0976,-0.683 -0.2343,-1.511 -0.3945,-2.472 -7.63671,-45.906 9.0156,-86.004 49.4844,-119.164 25.7695,-21.5 53.8632,-32.403 83.5002,-32.403 0.004,0 0.004,0 0.008,0 21.289,0 37.097,5.684 43.843,8.114 l 0.254,0.09 0.028,-160.122 -18.524,-15.175 0.012,-0.114 L 56.25,135.871 75.7031,112.148 80.4414,106.359 64.1953,93.0313 64.1289,92.0781 C 64.1055,91.6719 63.6445,82.0586 77.3477,65.3281 90.9063,48.8008 100.262,47.5898 100.652,47.5508 l 0.926,-0.1094 16.242,13.3086 4.977,-6.0703 h -0.004 l 19.43,-23.7109 1.707,1.3906 91.715,75.0706 c 25.543,-14.7191 60.027,-22.4105 99.921,-29.6487 16.594,-3.0118 32.071,-5.4219 45.727,-7.5508 39.398,-6.1524 67.867,-10.5899 71.676,-21.6914 l 2.09,-6.0899 2.086,6.0899 c 3.769,10.9922 32.414,15.4023 72.054,21.5195 14.094,2.1719 30.063,4.6328 47.098,7.7227 39.902,7.2382 74.391,14.9375 99.937,29.6487 l 91.719,-75.0706 1.711,-1.3906 19.426,23.7109 v 0 l 4.973,6.0703 16.246,-13.3086 0.921,0.1094 c 0.391,0.039 9.75,1.25 23.305,17.7773 13.703,16.7305 13.242,26.3438 13.219,26.75 l -0.066,0.9532 -16.247,13.3277 4.743,5.789 19.449,23.723 -113.672,93.031 0.012,0.114 -18.532,15.183 -0.007,160.086 0.179,-0.062 c 6.746,-2.43 22.555,-8.114 43.844,-8.114"
         style="fill:#231f20;fill-opacity:1;fill-rule:nonzero;stroke:none"
         id="path62" /><path
         d="m 717.949,214.629 v 0"
         style="fill:#231f20;fill-opacity:1;fill-rule:nonzero;stroke:none"
         id="path64" /><path
         d="m 720.992,240.359 v 0 0 z"
         style="fill:#231f20;fill-opacity:1;fill-rule:nonzero;stroke:none"
         id="path66" /><path
         d="m 724.133,169.969 v 0"
         style="fill:#231f20;fill-opacity:1;fill-rule:nonzero;stroke:none"
         id="path68" /><path
         d="m 719.992,173.352 v 0"
         style="fill:#231f20;fill-opacity:1;fill-rule:nonzero;stroke:none"
         id="path70" /><path
         d="m 729.117,171.59 v 0"
         style="fill:#231f20;fill-opacity:1;fill-rule:nonzero;stroke:none"
         id="path72" /><path
         d="m 488.996,394.711 c 0,0 3.871,1.305 9.418,-12.715 0,0 6.684,-12.387 15.289,11.902 0,0 27.051,76.575 39.692,40.364 0,0 3.984,-31.266 22.593,1.449 0,0 18.133,35.078 24.032,3.883 0,0 4.21,-12.864 20.23,-2.16 0,0 12.34,8.187 17.074,-6.7 0,0 4.793,-9.64 -8.961,-18.336 0,0 -16.883,-8.507 1.649,-19.363 0,0 5.113,-3.414 2.164,-11.89 0,0 -1.594,-8.223 -14.547,-12.422 0,0 -14.695,-3.684 -14.719,-21.047 0,0 2.371,-9.094 -7.176,-12.27 0,0 -12.812,-3.816 -33.949,-4.937 0,0 -38.519,-3.336 -43.281,-47.348 l -38.977,-20.008 9.469,131.598"
         style="fill:#fddd04;fill-opacity:1;fill-rule:evenodd;stroke:none"
         id="path74" /><path
         d="m 488.996,296.09 c 0,0 10.59,28.637 34.82,50.781 l 10.547,51.043 -4.269,-43.601 c 0,0 26.293,25.343 37.383,32.562 l 15.281,33.254 -6.156,-26.492 27.558,18.84 c 0,0 -81.031,-57.473 -105.594,-116.387 h -9.57"
         style="fill:#176fc1;fill-opacity:1;fill-rule:evenodd;stroke:none"
         id="path76" /><path
         d="m 481.047,275.93 c 0,0 1.195,35.738 17.918,33.675 0,0 7.297,-0.218 6.828,-9.832 0,0 0.297,-4.39 4.949,-4.796 0,0 7.434,-0.247 13.289,14.714 0,0 15.496,28.614 29.164,18.817 0,0 5.977,-1.805 2.649,-16.973 0,0 -0.699,-17.094 20.758,0.77 0,0 38.906,32.277 50.531,16.445 0,0 3.808,-6.039 -2.77,-16.039 0,0 -2.578,-4.34 1.907,-9.93 0,0 5.113,-7.941 18.867,1.516 0,0 19.343,13.551 24.621,1.016 0,0 2.742,-5.184 -1.578,-12.442 0,0 -3.957,-10.402 10.207,-13.867 0,0 20.449,-2.176 16.551,-17.102 0,0 -1.442,-12.937 -20.329,-10.14 0,0 -12.855,1.722 -4.765,-16.641 0,0 1.879,-6.664 -3.434,-11.133 0,0 -4.742,-6.343 -19.445,-1.133 0,0 -13.66,5.614 -21.488,-7.417 0,0 -5.286,-18.559 -34.227,6.281 0,0 -29.801,25.476 -24.473,-5.059 0,0 10.403,-47.031 -27.593,-16.015 0,0 -21.145,18.277 -21.911,8.226 0,0 -0.632,-28.812 -25.328,-0.527 0,0 -10.683,11.465 -14.511,10.285 l 3.613,57.301"
         style="fill:#fddd04;fill-opacity:1;fill-rule:evenodd;stroke:none"
         id="path78" /><path
         d="m 481.047,275.93 c 0,0 1.195,35.738 17.918,33.675 0,0 7.297,-0.218 6.828,-9.832 0,0 0.297,-4.39 4.949,-4.796 0,0 7.434,-0.247 13.289,14.714 0,0 15.496,28.614 29.164,18.817 0,0 5.977,-1.805 2.649,-16.973 0,0 -0.699,-17.094 20.758,0.77 0,0 38.906,32.277 50.531,16.445 0,0 3.808,-6.039 -2.77,-16.039 0,0 -2.578,-4.34 1.907,-9.93 0,0 5.113,-7.941 18.867,1.516 0,0 19.343,13.551 24.621,1.016 0,0 2.742,-5.184 -1.578,-12.442 0,0 -3.957,-10.402 10.207,-13.867 0,0 20.449,-2.176 16.551,-17.102 0,0 -1.442,-12.937 -20.329,-10.14 0,0 -12.855,1.722 -4.765,-16.641 0,0 1.879,-6.664 -3.434,-11.133 0,0 -4.742,-6.343 -19.445,-1.133 0,0 -13.66,5.614 -21.488,-7.417 0,0 -5.286,-18.559 -34.227,6.281 0,0 -29.801,25.476 -24.473,-5.059 0,0 10.403,-47.031 -27.593,-16.015 0,0 -21.145,18.277 -21.911,8.226 0,0 -0.632,-28.812 -25.328,-0.527 0,0 -10.683,11.465 -14.511,10.285 z"
         style="fill:none;stroke:#176fc1;stroke-width:3.97358;stroke-linecap:butt;stroke-linejoin:miter;stroke-miterlimit:3.86369;stroke-dasharray:none;stroke-opacity:1"
         id="path80" /><path
         d="m 477.434,223.309 c 0,0 15.39,33.046 81.402,42.289 l 34.043,34.175 -23.258,-32.382 c 0,0 32.977,3.175 45.117,2.625 l 29.004,16.761 -18.379,-16.902 c 0,0 23.2,-1.387 30.364,-2.348 0,0 -133.348,6.075 -178.293,-49.941 v 5.723"
         style="fill:#176fc1;fill-opacity:1;fill-rule:evenodd;stroke:none"
         id="path82" /><path
         d="m 420.844,394.484 c 0,0 -3.867,1.313 -9.442,-12.691 0,0 -6.718,-12.375 -15.257,11.937 0,0 -26.879,76.637 -39.606,40.458 0,0 -4.055,-31.258 -22.59,1.496 0,0 -18.051,35.121 -24.015,3.945 0,0 -4.243,-12.852 -20.239,-2.113 0,0 -12.324,8.214 -17.093,-6.661 0,0 -4.821,-9.628 8.921,-18.355 0,0 16.86,-8.551 -1.699,-19.359 0,0 -5.121,-3.403 -2.191,-11.887 0,0 1.574,-8.223 14.523,-12.457 0,0 14.68,-3.719 14.668,-21.082 0,0 -2.398,-9.09 7.149,-12.281 0,0 12.8,-3.856 33.933,-5.028 0,0 38.512,-3.418 43.168,-47.445 l 38.93,-20.098 -9.16,131.621"
         style="fill:#fddd04;fill-opacity:1;fill-rule:evenodd;stroke:none"
         id="path84" /><path
         d="m 420.613,295.863 c 0,0 -10.523,28.66 -34.703,50.864 l -10.422,51.066 4.168,-43.613 c 0,0 -26.234,25.41 -37.308,32.652 l -15.203,33.289 6.101,-26.508 -27.516,18.907 c 0,0 80.887,-57.661 105.309,-116.633 l 9.574,-0.024"
         style="fill:#176fc1;fill-opacity:1;fill-rule:evenodd;stroke:none"
         id="path86" /><path
         d="m 428.52,275.684 c 0,0 -1.118,35.742 -17.836,33.714 0,0 -7.301,-0.195 -6.864,-9.812 0,0 -0.3,-4.387 -4.957,-4.785 0,0 -7.433,-0.227 -13.254,14.746 0,0 -15.429,28.652 -29.121,18.883 0,0 -5.98,-1.793 -2.683,-16.969 0,0 0.656,-17.09 -20.754,0.824 0,0 -38.832,32.367 -50.492,16.567 0,0 -3.829,-6.036 2.73,-16.051 0,0 2.563,-4.348 -1.93,-9.922 0,0 -5.132,-7.93 -18.867,1.555 0,0 -19.312,13.597 -24.621,1.078 0,0 -2.75,-5.176 1.555,-12.453 0,0 3.929,-10.403 -10.246,-13.84 0,0 -20.45,-2.121 -16.586,-17.063 0,0 1.41,-12.937 20.304,-10.187 0,0 12.856,1.691 4.723,-16.653 0,0 -1.894,-6.656 3.406,-11.14 0,0 4.731,-6.356 19.442,-1.172 0,0 13.676,5.574 21.476,-7.477 0,0 5.239,-18.566 34.239,6.203 0,0 29.863,25.411 24.461,-5.117 0,0 -10.512,-47.004 27.554,-16.082 0,0 21.188,18.231 21.934,8.176 0,0 0.562,-28.809 25.324,-0.582 0,0 10.715,11.438 14.543,10.246 l -3.48,57.313"
         style="fill:#fddd04;fill-opacity:1;fill-rule:evenodd;stroke:none"
         id="path88" /><path
         d="m 428.52,275.684 c 0,0 -1.118,35.742 -17.836,33.714 0,0 -7.301,-0.195 -6.864,-9.812 0,0 -0.3,-4.387 -4.957,-4.785 0,0 -7.433,-0.227 -13.254,14.746 0,0 -15.429,28.652 -29.121,18.883 0,0 -5.98,-1.793 -2.683,-16.969 0,0 0.656,-17.09 -20.754,0.824 0,0 -38.832,32.367 -50.492,16.567 0,0 -3.829,-6.036 2.73,-16.051 0,0 2.563,-4.348 -1.93,-9.922 0,0 -5.132,-7.93 -18.867,1.555 0,0 -19.312,13.597 -24.621,1.078 0,0 -2.75,-5.176 1.555,-12.453 0,0 3.929,-10.403 -10.246,-13.84 0,0 -20.45,-2.121 -16.586,-17.063 0,0 1.41,-12.937 20.304,-10.187 0,0 12.856,1.691 4.723,-16.653 0,0 -1.894,-6.656 3.406,-11.14 0,0 4.731,-6.356 19.442,-1.172 0,0 13.676,5.574 21.476,-7.477 0,0 5.239,-18.566 34.239,6.203 0,0 29.863,25.411 24.461,-5.117 0,0 -10.512,-47.004 27.554,-16.082 0,0 21.188,18.231 21.934,8.176 0,0 0.562,-28.809 25.324,-0.582 0,0 10.715,11.438 14.543,10.246 z"
         style="fill:none;stroke:#176fc1;stroke-width:3.97358;stroke-linecap:butt;stroke-linejoin:miter;stroke-miterlimit:3.86369;stroke-dasharray:none;stroke-opacity:1"
         id="path90" /><path
         d="m 432.012,223.055 c 0,0 -15.321,33.078 -81.305,42.476 l -33.969,34.258 23.184,-32.437 c 0,0 -32.973,3.253 -45.113,2.73 l -28.961,16.828 18.336,-16.945 c 0,0 -23.2,-1.332 -30.368,-2.274 0,0 133.364,5.758 178.18,-50.363 l 0.016,5.727"
         style="fill:#176fc1;fill-opacity:1;fill-rule:evenodd;stroke:none"
         id="path92" /><path
         d="m 496.965,432.891 h -86.258 c 0,0 -54.008,43.441 -21.359,111.023 0,0 26.941,42.461 23.449,59.574 0,0 9.476,-11.343 10.719,-20.984 0,0 -15.993,-44.113 1.164,-72.832 l 2.558,3.586 c 0,0 -9.898,54.113 14.645,91.488 0,0 22.512,35.137 19.805,50.192 0,0 25.871,-17.008 15.304,-61.825 0,0 -13.07,-36.261 -7.82,-52.812 0,0 4.328,28.254 12.59,41.027 0,0 10.39,22.293 5.527,35.61 0,0 29.035,-12.075 19.332,-60.43 0,0 -13.469,-40.914 -2.828,-67.953 0,0 -0.156,22 6.625,41.836 0,0 3.328,11.547 1.187,21.214 0,0 53.43,-49.8 -14.64,-118.714"
         style="fill:#fddd04;fill-opacity:1;fill-rule:nonzero;stroke:none"
         id="path94" /><path
         d="m 423.516,504.813 c -23.25,-28.282 -2.106,-52.778 -2.106,-52.778 l -2.086,0.637 c -3.566,3.164 -10.609,11.266 -9.668,27.324 0.856,14.531 8.102,26.121 12.168,31.473 6.813,10.066 13.457,18.355 16.785,30.941 1.395,5.36 1.204,15.832 0.075,20.879 26.039,-14.961 25.867,-38.176 19.589,-52.785 -5.242,-12.215 -5.871,-22.606 -4.449,-30.145 10.727,7.539 11.364,22.774 12.035,27.965 20.137,-25.761 8.368,-50.625 -4.343,-55.601 8,8.433 16.367,21.367 6.707,41.465 -1.778,-7.989 -9.086,-14.958 -16.68,-20.719 -3.445,13.129 -1.242,28.234 1.766,36.054 4.308,11.157 6.535,29.266 -7.84,40.254 0.785,-14.695 -10.004,-30.441 -21.953,-44.964"
         style="fill:#176fc1;fill-opacity:1;fill-rule:nonzero;stroke:none"
         id="path96" /><path
         d="m 469.086,86.1094 c 0,0 -12.844,-10 -28.633,0 L 420.184,402.219 399.461,425.414 H 509.469 L 488.996,402.219 469.086,86.1094"
         style="fill:#fddd04;fill-opacity:1;fill-rule:nonzero;stroke:none"
         id="path98" /><path
         d="m 469.086,86.1094 c 0,0 -12.844,-10 -28.633,0 l -20.269,316.1096 -20.723,23.195 h 110.008 l -20.473,-23.195 z"
         style="fill:none;stroke:#176fc1;stroke-width:4.41511;stroke-linecap:butt;stroke-linejoin:miter;stroke-miterlimit:3.86369;stroke-dasharray:none;stroke-opacity:1"
         id="path100" /><path
         d="m 420.184,402.219 h 68.812"
         style="fill:none;stroke:#176fc1;stroke-width:4.41511;stroke-linecap:butt;stroke-linejoin:miter;stroke-miterlimit:3.86369;stroke-dasharray:none;stroke-opacity:1"
         id="path102" /><path
         d="m 422.168,371.285 h 64.879"
         style="fill:none;stroke:#176fc1;stroke-width:4.41511;stroke-linecap:butt;stroke-linejoin:miter;stroke-miterlimit:3.86369;stroke-dasharray:none;stroke-opacity:1"
         id="path104" /></g></g></svg>
