<?xml version="1.0" encoding="UTF-8"?>
<!-- Generator: Adobe Illustrator 16.0.3, SVG Export Plug-In . SVG Version: 6.00 Build 0)  -->
<!DOCTYPE svg PUBLIC "-//W3C//DTD SVG 1.1//EN" "http://www.w3.org/Graphics/SVG/1.1/DTD/svg11.dtd">
<svg version="1.1" id="Layer_1" xmlns="http://www.w3.org/2000/svg" xmlns:xlink="http://www.w3.org/1999/xlink" x="0px" y="0px" width="566.93px" height="93.754px" viewBox="0 0 566.93 93.754" enable-background="new 0 0 566.93 93.754" xml:space="preserve"><script xmlns=""/>
<path fill="#041E42" d="M264.588,54.663h-23.774l11.884-31.01L264.588,54.663z M375.749,89.829h37.5V3.804h-32.236v45.341  L347.067,3.804h-40.81V73.95l-27.08-70.146h-52.333l-19.629,50.859h-31.967c-1.592,10.166-7.476,15.557-17.769,15.557  c-11.89,0-18.511-9.189-18.511-23.403c0-14.213,6.748-23.286,18.511-23.286c9.683,0,15.928,5.151,17.28,13.486h35.419v-2.334  C210.179,15.688,193.749,0,157.846,0c-38.73,0-53.437,19.365-53.437,46.816c0,0.63,0.02,1.25,0.034,1.875  c-4.858-5.908-14.18-9.35-29.565-11.557l-22.426-3.188c-8.457-1.221-13.726-2.197-13.726-6.367c0-3.555,3.306-7.358,12.505-7.358  c10.171,0,15.811,3.926,15.811,10.298h36.025v-1.836c0-17.163-17.158-28.438-50.864-28.438c-34.673,0-49.878,12.627-49.878,30.396  c0,13.848,9.067,21.938,30.391,24.882l25.371,3.545c9.067,1.23,12.012,3.066,12.012,6.865c0,4.902-4.658,7.607-15.078,7.607  c-11.763,0-17.148-5.029-17.148-12.012H0v1.963c0,19.111,18.013,30.137,53.433,30.137c32.729,0,51.704-7.227,54.814-25.488  c6.548,15.674,21.948,25.615,49.599,25.615c20.972,0,32.739-5.713,39.804-14.326l-4.013,10.4h33.696l4.78-12.373h41.176l4.78,12.373  h28.188h6.123h26.113V40.317L375.749,89.829z M519.127,54.663h-23.77l11.885-31.01L519.127,54.663z M566.93,89.829L533.717,3.804  h-52.334L454.304,73.95V3.794h-32.969v86.035h26.836h6.133h27.567l4.775-12.373h41.182l4.785,12.373H566.93z"/>
<rect x="255.118" y="24.22" fill="none" width="188.62" height="45.29"/>
</svg>