<svg width="154" height="28" viewBox="0 0 154 28" xmlns="http://www.w3.org/2000/svg"><script xmlns=""/><g fill="#31312F" fill-rule="evenodd"><path d="M16.958 15.003c-.106-.215-.254-.525-.485-.816a.782.782 0 0 0-.615-.32c-.4 0-.671.29-.671.693 0 .139.046.264.106.38l.126.255c.021.042.02.085-.016.104-.042.024-.083.003-.105-.034l-.142-.229a.73.73 0 0 0-.608-.35.734.734 0 0 0-.726.743c0 .116.029.225.076.323l.075.158c.021.043.022.085-.015.108-.038.023-.08 0-.102-.034a5.795 5.795 0 0 0-.114-.169.655.655 0 0 0-.538-.274c-.364 0-.664.273-.664.69 0 .131.056.294.115.426.295.654.44 1.292.44 2.273 0 2.313-1.81 4.189-3.997 4.189a4.29 4.29 0 0 1-4.181-2.892.151.151 0 0 0-.19-.1L.42 21.455a.152.152 0 0 0-.101.19 9.025 9.025 0 0 0 8.731 6.282c3.933 0 7.202-2.635 8.4-6.192.749-2.22.519-4.689-.491-6.731m-8-.604a.418.418 0 1 1 0-.836.418.418 0 0 1 0 .836m0-3.583a.418.418 0 1 1 0-.836.418.418 0 0 1 0 .836m0 1.792a.418.418 0 1 1 0-.836.418.418 0 0 1 0 .836m3.295 2.021a2.214 2.214 0 0 0-.315-.264 4.777 4.777 0 0 0-.743-.436c-.173-.08-.255-.122-.469-.182-.159-.045-.31-.065-.454-.005a.481.481 0 0 0-.276.59c.055.198.215.277.387.36.275.132.411.202.645.346.182.112.337.216.522.348.22.157.497.182.693.009.222-.197.226-.541.01-.766m1.496-1.046a3.666 3.666 0 0 0-.906-.692 1.202 1.202 0 0 0-.313-.122.53.53 0 0 0-.534.17.513.513 0 0 0-.043.593c.093.16.216.239.36.344.217.157.367.276.57.447.131.111.243.231.424.256a.565.565 0 0 0 .576-.302c.116-.229.044-.511-.135-.694M11.13 12.06a2.487 2.487 0 0 0-.411-.144.945.945 0 0 0-.432-.021.474.474 0 0 0-.282.718c.072.108.168.156.3.202l.312.113c.094.034.202.077.288.094.155.03.318-.02.43-.13.267-.256.178-.669-.205-.833m-.434-1.906a1.354 1.354 0 0 0-.242-.045.513.513 0 0 0-.328.072.46.46 0 0 0-.147.596.46.46 0 0 0 .25.213c.098.034.21.07.313.082a.468.468 0 0 0 .502-.345.473.473 0 0 0-.348-.573m2.236.751a1.975 1.975 0 0 0-.364-.184 1.522 1.522 0 0 0-.431-.106.526.526 0 0 0-.546.612c.029.16.134.3.28.372l.325.164c.12.061.246.137.377.172.16.043.334.007.465-.094.311-.241.246-.717-.106-.936m2.373 1.744a3.249 3.249 0 0 0-.385-.4 2.741 2.741 0 0 0-.41-.31.69.69 0 0 0-.494-.106.54.54 0 0 0-.399.332.54.54 0 0 0 .109.56c.102.109.196.18.309.28.141.125.277.248.41.383.118.122.248.215.427.222a.555.555 0 0 0 .511-.303.597.597 0 0 0-.078-.658"/><path d="M.96 12.962c.106.215.254.525.484.816a.78.78 0 0 0 .616.319c.399 0 .671-.29.671-.693a.835.835 0 0 0-.106-.38l-.127-.254c-.02-.043-.02-.085.016-.105.043-.024.083-.003.106.035.034.057.142.229.142.229.13.202.35.35.608.35a.734.734 0 0 0 .726-.743.737.737 0 0 0-.077-.324c-.019-.039-.055-.118-.075-.157-.02-.043-.021-.086.016-.108.038-.023.08-.001.102.034.028.042.084.127.114.169.122.17.318.274.538.274.363 0 .664-.274.664-.69 0-.132-.056-.294-.116-.426-.295-.654-.439-1.292-.439-2.273 0-2.314 1.81-4.189 3.997-4.189A4.29 4.29 0 0 1 13 7.738c.025.08.11.123.19.099l4.308-1.326a.152.152 0 0 0 .102-.19A9.025 9.025 0 0 0 8.868.04c-3.933 0-7.201 2.634-8.4 6.19-.748 2.22-.518 4.69.492 6.732m7.999 4.186a.418.418 0 1 1 0 .836.418.418 0 0 1 0-.836m0-1.792a.418.418 0 1 1 0 .836.418.418 0 0 1 0-.836m-3.295-2.021c.089.092.21.191.314.264.246.17.472.31.744.436.173.08.255.121.469.182.159.045.31.065.454.005a.481.481 0 0 0 .276-.59c-.055-.199-.216-.277-.387-.36a5.936 5.936 0 0 1-.645-.346 8.85 8.85 0 0 1-.522-.348c-.22-.157-.498-.183-.694-.01-.221.197-.225.542-.009.767M4.168 14.38c.281.288.6.535.906.693.102.052.178.09.313.121a.529.529 0 0 0 .534-.17.513.513 0 0 0 .043-.593c-.094-.159-.216-.238-.36-.343a9.013 9.013 0 0 1-.57-.447c-.132-.111-.243-.232-.424-.256a.565.565 0 0 0-.576.302c-.116.228-.045.51.134.694m2.62 1.524c.126.054.23.097.411.144a.945.945 0 0 0 .431.021.474.474 0 0 0 .283-.718c-.073-.109-.168-.156-.3-.203a29.125 29.125 0 0 1-.312-.112c-.094-.035-.202-.078-.288-.094a.492.492 0 0 0-.431.129c-.267.257-.177.67.206.833m.434 1.906c.069.02.157.039.242.046a.513.513 0 0 0 .328-.072.461.461 0 0 0 .146-.596.46.46 0 0 0-.25-.214 1.524 1.524 0 0 0-.312-.081.468.468 0 0 0-.502.345c-.067.257.092.501.348.572m-2.236-.751a1.943 1.943 0 0 0 .794.291.526.526 0 0 0 .547-.613.525.525 0 0 0-.28-.372c-.114-.057-.201-.1-.325-.164-.12-.06-.246-.136-.378-.171a.536.536 0 0 0-.464.094c-.311.241-.246.716.106.936m-2.374-1.744a3.347 3.347 0 0 0 .796.71.69.69 0 0 0 .493.106.54.54 0 0 0 .4-.333.54.54 0 0 0-.11-.559c-.102-.109-.195-.181-.308-.28a7.784 7.784 0 0 1-.41-.383c-.119-.122-.249-.215-.427-.222a.555.555 0 0 0-.512.303.596.596 0 0 0 .078.658m46.893-5.705c-1.653 0-3.552.563-4.677 1.899V2.06a.15.15 0 0 0-.15-.15H40.3a.15.15 0 0 0-.15.15v25.16c0 .083.067.15.15.15h4.377a.15.15 0 0 0 .15-.15V17.208c-.018-1.931 1.097-3.45 3.235-3.449 2.25.002 3.2 1.585 3.2 3.519v9.942c0 .083.067.15.15.15h4.377a.15.15 0 0 0 .15-.15V16.469c0-3.798-2.04-6.857-6.435-6.857M62.31 1.49c-1.593-.013-2.906 1.292-2.906 2.918 0 1.547 1.3 2.848 2.883 2.848 1.744 0 3.079-1.512 2.86-3.215-.183-1.426-1.4-2.54-2.838-2.552m2.184 8.58h-4.377a.15.15 0 0 0-.15.15v17a.15.15 0 0 0 .15.151h4.377a.15.15 0 0 0 .15-.15V10.219a.15.15 0 0 0-.15-.15m13.039 13.575c-2.356 0-4.363-1.83-4.363-4.96 0-3.164 2.007-4.923 4.363-4.923 2.391 0 4.29 1.759 4.29 4.923 0 3.165-1.899 4.96-4.29 4.96m.985-14.032c-2.567 0-4.466 1.125-5.24 2.356V2.06a.15.15 0 0 0-.15-.15h-4.306a.15.15 0 0 0-.15.15v25.16c0 .083.067.15.15.15h4.236a.15.15 0 0 0 .15-.15v-1.96c.914 1.477 2.743 2.532 5.134 2.532 4.923 0 8.158-3.903 8.158-9.143 0-5.134-2.919-9.037-7.982-9.037m35.989 13.753a7.951 7.951 0 0 1-1.265.102c-1.336 0-2.04-.492-2.04-2.005v-7.244h3.331a.15.15 0 0 0 .15-.15V10.22a.15.15 0 0 0-.15-.15h-3.33V5.05a.15.15 0 0 0-.15-.15h-4.326a.15.15 0 0 0-.15.15l-.006 5.02h-2.99a.15.15 0 0 0-.15.15v3.85c0 .082.067.15.15.15h2.98v8.052c0 3.34 2.11 5.345 5.485 5.345 1.272 0 2.09-.211 2.539-.382a.153.153 0 0 0 .099-.144v-3.576a.15.15 0 0 0-.177-.149m30.379.278c-2.46 0-4.29-1.865-4.29-4.96 0-3.094 1.9-4.888 4.29-4.888 2.392 0 4.31 1.759 4.31 4.853 0 3.13-1.918 4.995-4.31 4.995m8.689-21.733h-4.354a.15.15 0 0 0-.15.15v9.731c-.492-.914-1.899-2.145-4.888-2.145-4.888 0-8.299 3.974-8.299 9.037 0 5.24 3.517 9.108 8.44 9.108 2.32 0 4.079-1.055 4.853-2.426l.009 1.855a.15.15 0 0 0 .15.149h4.239a.15.15 0 0 0 .15-.15V2.06a.15.15 0 0 0-.15-.15m-32.222 14.84c.106-1.582 1.442-3.41 3.868-3.41 2.673 0 3.798 1.687 3.869 3.41h-7.737zm3.798-7.208c-4.43 0-8.51 3.586-8.51 9.107 0 5.838 4.185 9.248 8.932 9.248 3.543 0 6.037-1.73 7.28-4.036a.15.15 0 0 0-.074-.208l-3.506-1.524a.15.15 0 0 0-.186.058c-.668 1.033-1.771 1.702-3.479 1.702-2.32 0-4.255-1.653-4.36-3.939h12.237a.15.15 0 0 0 .15-.137c.02-.25.061-.788.061-1.304 0-5.556-3.2-8.967-8.545-8.967zm-27.945 7.3-2.461-.528c-.95-.176-1.582-.654-1.582-1.498 0-.984.984-1.723 2.215-1.723 1.687 0 2.47.955 2.747 1.87a.149.149 0 0 0 .197.093l3.484-1.35a.15.15 0 0 0 .089-.187c-.618-1.803-2.448-3.977-6.552-3.977-3.728 0-6.47 2.567-6.47 5.661 0 2.426 1.512 4.498 4.852 5.237l2.286.527c1.336.282 1.864.847 1.864 1.62 0 .915-.739 1.724-2.286 1.724-1.96 0-2.978-1.17-3.148-2.477a.147.147 0 0 0-.18-.125l-3.712.814a.15.15 0 0 0-.117.165c.277 1.985 2.105 5.21 7.192 5.21 4.536 0 6.716-2.884 6.716-5.697 0-2.532-1.723-4.656-5.134-5.36m-59.811 5.174-3.83-1.277a.153.153 0 0 0-.193.1c-.431 1.301-1.625 2.77-3.928 2.77-2.391 0-4.43-1.759-4.43-4.888 0-3.13 2.003-4.853 4.395-4.853 1.99 0 3.074 1.087 3.609 2.306a.15.15 0 0 0 .186.084l3.924-1.354a.15.15 0 0 0 .094-.192c-.956-2.68-3.567-5.17-7.919-5.17-5.028 0-8.967 3.834-8.967 9.179 0 5.31 4.009 9.177 9.108 9.177 4.533 0 7.227-2.86 8.05-5.699a.15.15 0 0 0-.099-.183"/></g></svg>