<?xml version="1.0" encoding="UTF-8"?>
<!-- Generator: Adobe Illustrator 18.0.0, SVG Export Plug-In . SVG Version: 6.00 Build 0)  -->
<!DOCTYPE svg PUBLIC "-//W3C//DTD SVG 1.1//EN" "http://www.w3.org/Graphics/SVG/1.1/DTD/svg11.dtd">
<svg version="1.1" id="Layer_1" xmlns="http://www.w3.org/2000/svg" xmlns:xlink="http://www.w3.org/1999/xlink" x="0px" y="0px" viewBox="0 0 124.7 37" enable-background="new 0 0 124.7 37" xml:space="preserve"><script xmlns=""/>
<g>
	<g>
		<path fill="#5B6770" d="M103.1,35.8c-2.7,0-4.6-1.8-4.6-5.2c0-3.2,1.9-5.2,4.4-5.2c2.8,0,4.2,2.2,4.2,5v0.3h-7.2    c0,2.5,1.3,3.9,3.3,3.9c1.4,0,2.6-0.6,3.6-1.5l0.2,1.3C106,35.2,104.7,35.8,103.1,35.8z M99.9,29.6h5.7c-0.1-1.8-1.1-3.1-2.8-3.1    C101.4,26.5,100.2,27.6,99.9,29.6z"/>
		<path fill="#5B6770" d="M103.6,16.8c-2.7,0-4.6-1.8-4.6-5.2c0-3.2,1.9-5.2,4.4-5.2c2.8,0,4.2,2.2,4.2,5v0.3h-7.2    c0,2.5,1.3,3.9,3.3,3.9c1.4,0,2.6-0.6,3.6-1.5l0.2,1.3C106.5,16.3,105.2,16.8,103.6,16.8z M100.4,10.7h5.7    c-0.1-1.8-1.1-3.1-2.8-3.1C101.9,7.6,100.7,8.7,100.4,10.7z"/>
		<path fill="#5B6770" d="M75.9,16.8c-2.7,0-4.6-1.8-4.6-5.2c0-3.2,1.9-5.2,4.4-5.2c2.8,0,4.2,2.2,4.2,5v0.3h-7.2    c0,2.5,1.3,3.9,3.3,3.9c1.4,0,2.6-0.6,3.6-1.5l0.2,1.3C78.8,16.3,77.5,16.8,75.9,16.8z M72.7,10.7h5.7c-0.1-1.8-1.1-3.1-2.8-3.1    C74.2,7.6,73,8.7,72.7,10.7z"/>
		<path fill="#5B6770" d="M54.4,6.5c-2.6,0-4.6,1.9-4.6,5.2c0,3.3,2,5.2,4.6,5.2c2.6,0,4.6-1.9,4.6-5.2C59,8.4,57,6.5,54.4,6.5z     M54.4,15.7c-1.9,0-3.2-1.6-3.2-4c0-2.5,1.3-4,3.2-4c1.9,0,3.3,1.6,3.3,4C57.7,14.1,56.3,15.7,54.4,15.7z"/>
		<path fill="#5B6770" d="M51.6,4.3c0-0.3,0.1-0.5,0.3-0.7c0.2-0.2,0.4-0.3,0.7-0.3c0.3,0,0.5,0.1,0.7,0.3c0.2,0.2,0.3,0.4,0.3,0.7    c0,0.2-0.1,0.5-0.3,0.7c-0.2,0.2-0.4,0.3-0.7,0.3c-0.3,0-0.5-0.1-0.7-0.3C51.7,4.7,51.6,4.5,51.6,4.3z"/>
		<path fill="#5B6770" d="M55.4,4.3c0-0.3,0.1-0.5,0.3-0.7c0.2-0.2,0.4-0.3,0.7-0.3c0.3,0,0.5,0.1,0.7,0.3c0.2,0.2,0.3,0.4,0.3,0.7    c0,0.2-0.1,0.5-0.3,0.7c-0.2,0.2-0.4,0.3-0.7,0.3c-0.3,0-0.5-0.1-0.7-0.3C55.5,4.7,55.4,4.5,55.4,4.3z"/>
		<path fill="#5B6770" d="M111.2,10v6.6h-1.4V7l1.3-0.3v2c0.7-1.1,1.9-2.2,3.5-2.2l0.2,1.3C113.2,7.9,111.8,8.7,111.2,10z"/>
		<path fill="#5B6770" d="M110.7,28.9v6.6h-1.4v-9.6l1.3-0.3v2c0.7-1.1,1.9-2.2,3.5-2.2l0.2,1.3C112.7,26.8,111.3,27.6,110.7,28.9z"/>
		<path fill="#5B6770" d="M76.2,28.9v6.6h-1.4v-9.6l1.3-0.3v2c0.7-1.1,1.9-2.2,3.5-2.2l0.2,1.3C78.3,26.8,76.9,27.6,76.2,28.9z"/>
		<path fill="#5B6770" d="M83.4,10v6.6h-1.4V7l1.3-0.3v2c0.7-1.1,1.9-2.2,3.5-2.2l0.2,1.3C85.5,7.9,84.1,8.7,83.4,10z"/>
		<path fill="#5B6770" d="M120,20.4c-2.6,0-4.5-0.9-4.5-2.6c0-1,0.8-1.9,2.3-2.6c-0.5-0.3-0.7-0.7-0.7-1c0-0.5,0.3-0.9,1-1.3    c-1.1-0.5-1.8-1.6-1.8-3c0-2.1,1.7-3.4,3.7-3.4c1,0,4.6,0,4.6,0l0.2,1h-2.1c0.8,0.8,1,1.7,1,2.3c0,2.1-1.7,3.4-3.7,3.4    c-0.3,0-0.6,0-0.9-0.1c-0.4,0.2-0.6,0.5-0.6,0.7c0,0.4,0.4,0.5,2.2,0.9l0.7,0.1c2.2,0.4,3.4,1,3.4,2.5    C124.7,19.3,122.6,20.4,120,20.4z M118.8,15.6c-1.4,0.6-2,1.3-2,2.1c0,1,1.3,1.6,3.2,1.6c2,0,3.3-0.8,3.3-1.8    c0-0.8-0.6-1.2-2.4-1.5l-1-0.2C119.5,15.8,119.2,15.7,118.8,15.6z M119.8,7.5c-1.4,0-2.3,1-2.3,2.4c0,1.3,0.9,2.3,2.3,2.3    c1.4,0,2.3-1,2.3-2.3C122.2,8.5,121.3,7.5,119.8,7.5z"/>
		<path fill="#5B6770" d="M43.5,16.8c-1.6,0-2.9-0.4-3.8-0.9l0.2-1.5c0.9,0.6,2.2,1.1,3.7,1.1c1.7,0,3-1,3-2.6    c0-1.4-0.7-2.1-2.9-3.1c-2.8-1.2-3.8-2.1-3.8-4.2c0-2.2,1.8-3.6,4.2-3.6c1.4,0,2.4,0.3,3.2,0.8L47,4.2c-0.8-0.5-1.8-0.9-3-0.9    c-1.7,0-2.6,1-2.6,2.3c0,1.3,0.7,1.9,2.9,2.9c2.7,1.2,3.8,2.2,3.8,4.3C48,15.3,46.1,16.8,43.5,16.8z"/>
		<path fill="#5B6770" d="M68.1,16.6l-0.3-1.4c-0.8,0.9-1.7,1.7-3.2,1.7c-2.2,0-4-1.6-4-4.9c0-3.6,2.1-5.4,4.5-5.4    c1,0,1.9,0.2,2.6,0.5V1.8l1.4-0.3v15.1H68.1z M67.7,8.3c-0.8-0.4-1.5-0.6-2.5-0.6c-1.8,0-3.2,1.3-3.2,4.1c0,2.4,1.2,3.7,2.7,3.7    c1.2,0,2.1-0.7,3-1.8V8.3z"/>
		<path fill="#5B6770" d="M92.5,16.7c-1.4,0-2.5-0.3-3.6-0.6V1.8l1.4-0.3V8C91,7.2,92,6.5,93.4,6.5c2.2,0,4,1.6,4,4.9    C97.4,15,95.3,16.7,92.5,16.7z M93.2,7.7c-1.1,0-2,0.7-2.9,1.7v5.7c0.6,0.3,1.3,0.4,2.3,0.4c2,0,3.4-1.3,3.4-4.1    C96,9,94.8,7.7,93.2,7.7z"/>
		<path fill="#5B6770" d="M58.5,29.5h-1.8v6.1h-1.4V21.1h3.6c3,0,4.8,1.5,4.8,4.1C63.6,28,61.5,29.5,58.5,29.5z M58.7,22.4h-2v5.8    h1.9c2.2,0,3.5-1,3.5-3C62.1,23.3,60.9,22.4,58.7,22.4z"/>
		<path fill="#5B6770" d="M71.3,35.6l-0.2-1.3c-0.9,0.9-2.1,1.5-3.5,1.5c-1.7,0-3-0.9-3-2.7c0-2.3,1.9-3.4,6.4-3.9v-0.6    c0-1.3-0.8-1.9-2.1-1.9c-1.2,0-2.3,0.4-3.4,0.9l-0.2-1.2c1.2-0.5,2.3-0.9,3.7-0.9c2.2,0,3.3,1,3.3,3.1v7.1H71.3z M71,30.3    c-3.9,0.4-5,1.3-5,2.7c0,1.1,0.7,1.6,1.8,1.6c1.1,0,2.2-0.6,3.2-1.5V30.3z"/>
		<path fill="#5B6770" d="M85.3,35.7c-1.6,0-2.6-0.6-2.6-2.4v-6.5h-1.5v-1.2h1.5v-3.4l1.4-0.2v3.7h2.3l0.2,1.2h-2.5v6.2    c0,1,0.4,1.4,1.5,1.4c0.3,0,0.7-0.1,0.9-0.1l0.2,1.2C86.4,35.6,85.9,35.7,85.3,35.7z"/>
		<path fill="#5B6770" d="M95,35.6v-6.8c0-1.3-0.6-2.1-1.8-2.1c-1,0-2.1,0.6-3.2,1.7v7.2h-1.4v-9.9h1.1l0.2,1.5    c1.1-1,2.2-1.7,3.6-1.7c2,0,3,1.1,3,3v7.1H95z"/>
		<path fill="#5B6770" d="M119,35.8c-1.3,0-2.7-0.4-3.6-0.9l0.2-1.3c0.9,0.6,2.1,1.1,3.5,1.1c1.4,0,2.2-0.6,2.2-1.6    c0-1-0.6-1.4-2.6-1.9c-2.2-0.6-3.1-1.3-3.1-2.9c0-1.6,1.3-2.7,3.4-2.7c1.2,0,2.2,0.3,3.1,0.7l-0.2,1.3c-0.9-0.5-1.9-0.8-2.9-0.8    c-1.4,0-2,0.6-2,1.4c0,0.8,0.5,1.2,2.2,1.7c2.3,0.6,3.5,1.4,3.5,3.1C122.7,34.7,121.3,35.8,119,35.8z"/>
		<path fill="#5B6770" d="M48.4,32.3c0.7-1.3,1.2-2.9,1.6-4.8l-1.3-0.3c-0.3,1.7-0.6,3.1-1.2,4.2L44,27.8c0.4-0.2,1.2-0.6,1.6-1    c0.6-0.5,1.6-1.6,1.6-2.9c0-1.7-1.3-3.1-3.4-3.1c-2.1,0-3.5,1.5-3.5,3.3c0,1.3,0.5,2.2,1.5,3.3c-2,0.9-3.5,2.2-3.5,4.4    c0,2.3,1.8,3.9,4.6,3.9c1.9,0,3.5-0.8,4.8-2.4l2.3,2.3l1.5-0.4L48.4,32.3z M41.7,24.2c0-1.1,0.8-2,2.1-2c1.3,0,2.2,0.7,2.2,1.8    c0,1.2-0.9,2.1-1.5,2.4c-0.6,0.3-1,0.5-1.3,0.6C42.1,25.9,41.7,25.2,41.7,24.2z M42.9,34.6c-1.9,0-3.1-1.2-3.1-2.8    c0-1.5,1-2.7,2.8-3.4l4.2,4.1C45.8,33.9,44.4,34.6,42.9,34.6z"/>
	</g>
	<path fill="#0086BF" d="M16.5,7c-0.4,1.5-0.6,2.8-0.8,4.9c0,0,0,0.3,0.2,0.3c0.2,0,0.3,0,0.4-0.2c1.4-4.8,4.9-7.4,6.7-8.2   c0.1-0.1,0.2-0.2,0.2-0.3c0-0.2-0.3-0.4-0.6-0.4c-0.1,0-0.1,0-0.2,0l0,0v0c0-0.6-0.7-1.3-1.6-1.3c-0.2,0-0.4,0-0.7,0.1l0,0l0,0   c0.1-0.2,0-0.3-0.1-0.4c0,0-0.1,0-0.1,0c-0.2,0-0.4,0.1-0.7,0.4C18.2,2.7,17.1,4.8,16.5,7z"/>
	<path fill="#C8E0EF" d="M27.7,4.9c-0.6-0.1-1.2-0.2-1.7-0.2c-3.5,0-6,2.6-6.6,3.6c0,0-0.1,0.1-0.1,0.3c0,0.1,0.1,0.1,0.2,0.1l0.2,0   c0.5-0.1,1.2-0.2,2.1-0.2c0.5,0,0.9,0,1.4,0.1c1.2,0.2,3.6,0.8,4.8,2.1c0.1,0.1,0.2,0.1,0.2,0c0.1-0.1,0.2-0.4,0.2-0.6   c0-0.6-0.3-0.8-0.5-0.9l0,0l0,0c0.3-0.1,0.5-0.6,0.5-1.2c0-0.5-0.2-1.1-0.6-1.4l0,0l0,0c0.3-0.1,0.6-0.6,0.5-0.9   C28.2,5.2,28,5,27.7,4.9z"/>
	<path fill="#0086BF" d="M22.8,32.4c0.1,0,0.2,0,0.3-0.1c0.1-0.2,0.1-0.3-0.1-0.5c-1.6-1.4-2.6-2.3-3.6-3.8   c-0.1-0.1-0.1-0.2-0.2-0.3c-0.9-1.4-1.7-2.7-3-7.3c-0.1-0.2-0.2-0.3-0.3-0.3c0,0,0,0-0.1,0c0,0-0.3,0.1-0.2,0.4   c0,0.1,0,0.4,0.1,0.6c0.1,1.5,0.4,4.6,1.1,7c0.9,2.9,1.4,4.3,2.6,6.3c0.1,0.1,0.2,0.2,0.3,0.2l0,0c0.1,0,0.2,0,0.3-0.1   c0.1-0.1,0.1-0.2,0.1-0.2l0,0l0,0c0.7,0.1,1.5-0.1,2-0.7c0.3-0.3,0.5-0.8,0.5-1.2v0l0,0C22.7,32.4,22.8,32.4,22.8,32.4z"/>
	<path fill="#C8E0EF" d="M25.4,26.5c-4.4-0.7-5.9-3.3-7.1-5.4c-0.2-0.4-0.4-0.7-0.6-1c0,0-0.1-0.2-0.3-0.2c0,0-0.1,0-0.1,0   c0,0-0.2,0-0.1,0.4l0,0.1c0.5,2.2,1.4,4.3,2.7,6.3c1,1.4,2.1,2.8,3.8,3.8c0.2,0.1,0.4,0.1,0.5-0.1c0.1-0.1,0.1-0.2,0-0.3l0,0l0,0   c0.9-0.5,1.7-1.5,1.2-2.7l0,0l0,0c0.2,0,0.3-0.2,0.3-0.4C25.9,26.9,25.8,26.6,25.4,26.5z"/>
	<path fill="#0086BF" d="M25.4,25.1L25.4,25.1c0.1,0,0.2,0,0.3,0c0.2,0,0.4-0.2,0.5-0.4c0.1-0.2,0-0.4-0.2-0.5l0,0l0,0   c0.5-0.7,0.4-1.3,0.3-1.6c-0.1-0.5-0.5-0.9-0.9-1.1l0,0l0,0c0.1-0.3,0.1-0.6,0-0.8c-0.1-0.2-0.4-0.4-0.6-0.4c-0.1,0-0.2,0-0.3,0   c-0.9,0.2-1.5,0.4-2.1,0.4l0,0c-0.9,0-1.6-0.4-3-1.2c-0.1-0.1-0.2-0.1-0.3-0.1c-0.1,0-0.2,0-0.2,0.1c-0.1,0.2,0,0.5,0,0.5   C18.8,20.1,21.1,25.1,25.4,25.1z"/>
	<path fill="#0086BF" d="M28.1,12.9L28.1,12.9C28.1,12.9,28.1,12.9,28.1,12.9c0,0,0.1,0,0.2,0c0,0,0.1,0,0.1,0   c0.1-0.1,0.1-0.3,0-0.3c-0.2-0.3-0.4-0.6-1-1.1c-1.8-1.5-4.4-2-6.2-2c-1.4,0-2.5,0.3-3,0.8c-0.7,0.9-1.1,2.1-1.1,2.7l0,0   c0,0,0,0.1,0,0.1l0,0c0,0,0,0.1,0,0.2c0.1,0.1,0.2,0.1,0.3,0c0,0,0,0,0,0c1.1-0.4,2.3-0.7,3.6-0.7c2.9,0,5.3,1.2,6.5,2.3   c0,0,0.2,0.2,0.4,0.2c0.1,0,0.1,0,0.1,0c0,0,0.1,0,0.1-0.1c0-0.1,0-0.1-0.1-0.2l0,0l0,0c0.3-0.2,0.4-0.5,0.4-0.8   C28.5,13.6,28.3,13.1,28.1,12.9z"/>
	<path fill="#002D72" d="M28.1,19c0.1-0.3,0-0.7-0.2-1.2l0,0l0,0c0,0,0,0,0.1,0l0,0c0,0,0.1,0,0.1-0.1c0.1-0.1,0-0.2,0-0.3   c0-0.1-0.1-0.3-0.3-0.7c-0.9-1.5-3.9-3.1-7-3.1c-1,0-1.8,0.2-2.7,0.5c-0.7,0.3-1,0.5-1.1,0.6c-0.1,0.1-0.2,0.3-0.2,0.5   c-0.1,0.7,0,2.8,0.2,3.5c0,0,0,0.1,0.2,0.2c0.1,0,0.2-0.1,0.2-0.1c1.2-1.6,2.6-2.4,4.1-2.4c2.4,0,4.6,2.1,5.7,3.3   c0.1,0.1,0.2,0.2,0.3,0.2c0,0,0.1,0,0.1,0c0.1,0,0.1-0.1,0.1-0.1c0-0.1-0.1-0.2-0.1-0.2l0,0l0,0C27.6,19.5,28,19.4,28.1,19z"/>
	<path fill="#0086BF" d="M7.7,1.8c-0.9,0-1.6,0.7-1.6,1.3l0,0l0,0c-0.1,0-0.1,0-0.2,0c-0.3,0-0.5,0.2-0.6,0.4c0,0.1,0,0.2,0.2,0.3   c1.8,0.8,5.3,3.4,6.7,8.2c0.1,0.2,0.2,0.2,0.4,0.2c0.3-0.1,0.2-0.3,0.2-0.3C12.6,9.8,12.4,8.5,12,7c-0.6-2.2-1.7-4.2-2.7-5.1   C8.9,1.6,8.7,1.4,8.5,1.5C8.4,1.6,8.3,1.7,8.4,1.9l0,0l0,0C8.2,1.8,8,1.8,7.7,1.8z"/>
	<path fill="#C8E0EF" d="M9.1,8.4c-0.6-1-3-3.6-6.6-3.6C2,4.7,1.4,4.8,0.8,4.9C0.4,5,0.2,5.2,0.2,5.5c0,0.4,0.2,0.8,0.5,0.9l0,0l0,0   C0.3,6.7,0.1,7.3,0.1,7.8c0,0.6,0.2,1.1,0.5,1.2l0,0l0,0C0.4,9.2,0.2,9.4,0.1,10c0,0.3,0,0.5,0.2,0.6c0.1,0.1,0.2,0.1,0.2,0   c1.3-1.3,3.6-1.9,4.8-2.1c0.4-0.1,0.9-0.1,1.4-0.1c0.9,0,1.7,0.1,2.1,0.2l0.2,0c0.1,0,0.1,0,0.2-0.1C9.2,8.5,9.1,8.4,9.1,8.4z"/>
	<path fill="#0086BF" d="M8.4,34.5c0.1,0.1,0.2,0.1,0.3,0.1c0.1,0,0.2-0.1,0.3-0.2c1.2-2,1.8-3.4,2.6-6.3c0.7-2.4,1-5.5,1.1-7   c0-0.3,0-0.5,0.1-0.6c0-0.3-0.2-0.4-0.2-0.4c0,0,0,0-0.1,0c-0.1,0-0.2,0-0.3,0.3c-1.3,4.6-2.1,5.9-3,7.3C9.2,27.8,9.1,27.9,9,28   c-0.9,1.5-2,2.4-3.6,3.8c-0.2,0.1-0.2,0.3-0.1,0.5c0.1,0.1,0.2,0.1,0.3,0.1c0,0,0.1,0,0.1,0l0,0v0c0,0.4,0.2,0.8,0.5,1.2   c0.5,0.5,1.3,0.8,2,0.7l0,0l0,0C8.4,34.3,8.4,34.4,8.4,34.5z"/>
	<path fill="#C8E0EF" d="M4.7,30.6c1.7-1,2.8-2.4,3.8-3.8c1.4-2,2.3-4.1,2.7-6.3l0-0.1c0.1-0.3-0.1-0.4-0.1-0.4c0,0-0.1,0-0.1,0   c-0.2,0-0.3,0.2-0.3,0.2c-0.2,0.3-0.4,0.7-0.6,1c-1.2,2.1-2.7,4.7-7.1,5.4c-0.4,0.1-0.5,0.4-0.4,0.5c0,0.2,0.2,0.4,0.3,0.4l0,0l0,0   c-0.4,1.2,0.3,2.3,1.2,2.7l0,0l0,0c-0.1,0.1-0.1,0.2,0,0.3C4.3,30.6,4.5,30.7,4.7,30.6z"/>
	<path fill="#0086BF" d="M9.7,20c0,0,0.1-0.3,0-0.5c-0.1-0.2-0.3-0.2-0.6,0c-1.4,0.8-2.1,1.2-3,1.2c-0.6,0-1.2-0.2-2.1-0.4   c-0.1,0-0.2,0-0.3,0c-0.3,0-0.5,0.1-0.6,0.4c-0.1,0.2-0.1,0.5,0,0.8l0,0l0,0c-0.4,0.2-0.8,0.6-0.9,1.1c-0.1,0.4-0.1,1,0.3,1.6l0,0   l0,0c-0.2,0.1-0.3,0.3-0.2,0.5c0.1,0.2,0.2,0.3,0.5,0.4c0.1,0,0.2,0,0.3,0C7.3,25.1,9.7,20.1,9.7,20z"/>
	<path fill="#002D72" d="M14.2,12.1c0.3,0,0.5-0.1,0.6-0.2c0.1-0.1,0.1-0.3,0.1-0.3c0.2-3.4,0.5-5.2,1.5-7.6   c0.3-0.8,0.6-1.3,1.4-2.5c0-0.1,0-0.1,0-0.2c0-0.1-0.2-0.2-0.4-0.3c-0.1-0.1-0.3-0.1-0.5-0.1c-0.3,0-0.7,0.1-1,0.2l0,0l0,0   c-0.4-1-1.6-1-1.8-1c0,0,0,0,0,0c0,0,0,0,0,0c-0.1,0-1.4,0-1.8,1l0,0l0,0c-0.3-0.2-0.7-0.2-1-0.2c-0.2,0-0.3,0-0.5,0.1   c-0.2,0.1-0.4,0.2-0.4,0.3c0,0.1,0,0.1,0,0.2c0.8,1.3,1,1.7,1.4,2.5c1,2.4,1.4,4.2,1.5,7.6c0,0,0,0.2,0.1,0.3   C13.8,12.1,14,12.1,14.2,12.1L14.2,12.1L14.2,12.1L14.2,12.1z"/>
	<path fill="#002D72" d="M16.8,36c0.4,0,0.8-0.1,1.1-0.4c0.3-0.3,0.1-0.7,0.1-0.7c-2.8-5.1-3-11.9-3.1-14.2l0,0   c0-0.4-0.3-0.6-0.7-0.6c-0.5,0-0.7,0.2-0.7,0.6l0,0c-0.1,2.3-0.3,9.1-3.1,14.2c0,0-0.2,0.4,0.1,0.7c0.3,0.2,0.7,0.4,1.1,0.4   c0.2,0,0.4,0,0.5-0.1l0,0l0,0c0.3,1.1,1.7,1.1,2,1.1c0,0,0.1,0,0.1,0c0,0,0,0,0.1,0c0.3,0,1.8-0.1,2-1.1l0,0l0,0   C16.5,35.9,16.6,36,16.8,36z"/>
	<path fill="#0086BF" d="M0.4,15.2c0,0,0.1,0,0.1,0c0.2,0,0.4-0.2,0.4-0.2c1.2-1.1,3.7-2.3,6.5-2.3c1.2,0,2.4,0.2,3.6,0.7   c0,0,0,0,0,0c0.1,0,0.2,0,0.3,0c0.1-0.1,0-0.1,0-0.2l0,0c0,0,0-0.1,0-0.1l0,0c-0.1-0.6-0.5-1.9-1.1-2.7c-0.4-0.5-1.6-0.8-3-0.8   c-1.8,0-4.4,0.5-6.2,2c-0.6,0.5-0.8,0.8-1,1.1c0,0.1-0.1,0.2,0,0.3c0,0,0.1,0,0.1,0l0,0c0.1,0,0.1,0,0.2,0c0,0,0,0,0,0l0,0   C0.1,13.1,0,13.6,0,14.1c0,0.2,0.1,0.6,0.4,0.8l0,0l0,0C0.3,14.9,0.3,15,0.3,15C0.3,15.1,0.4,15.2,0.4,15.2z"/>
	<path fill="#002D72" d="M0.9,19.9C0.9,19.9,0.9,19.9,0.9,19.9c0.2,0,0.3,0,0.4-0.2c1.1-1.2,3.3-3.3,5.7-3.3c1.5,0,2.9,0.8,4.1,2.4   c0,0,0.1,0.1,0.2,0.1c0.1,0,0.2-0.2,0.2-0.2c0.2-0.7,0.3-2.8,0.2-3.5c0-0.2-0.1-0.4-0.2-0.5c-0.1-0.1-0.3-0.3-1.1-0.6   c-0.8-0.3-1.7-0.5-2.7-0.5c-3.1,0-6.1,1.6-7,3.1c-0.2,0.4-0.3,0.5-0.3,0.7c0,0.1-0.1,0.2,0,0.3c0.1,0.1,0.1,0.1,0.2,0l0,0l0,0   c-0.3,0.5-0.3,0.9-0.2,1.2c0.1,0.4,0.5,0.5,0.5,0.5l0,0l0,0c0,0-0.1,0.1-0.1,0.2C0.8,19.8,0.8,19.8,0.9,19.9z"/>
</g>
<g>
</g>
<g>
</g>
<g>
</g>
<g>
</g>
<g>
</g>
<g>
</g>
</svg>