<?xml version="1.0" encoding="UTF-8"?>
<!-- Generator: Adobe Illustrator 17.1.0, SVG Export Plug-In . SVG Version: 6.00 Build 0)  -->
<!DOCTYPE svg PUBLIC "-//W3C//DTD SVG 1.1//EN" "http://www.w3.org/Graphics/SVG/1.1/DTD/svg11.dtd">
<svg version="1.1" id="Lager_1" xmlns="http://www.w3.org/2000/svg" xmlns:xlink="http://www.w3.org/1999/xlink" x="0px" y="0px" viewBox="0 0 241 67" enable-background="new 0 0 241 67" xml:space="preserve"><script xmlns=""/>
	<g>
		<g>
			<g>
				<path fill="#171717" d="M49.2,0c3,0,19.1,2.5,19.1,2.5l0,0c0,0,0,0,0,0l0,0c0,0,0,0,0,0l0,0c0,0-16.1,2.5-19.1,2.5l0,0H26.6l0,0      c-3,0-15.8-2.5-15.8-2.5l0,0c0,0,0,0,0,0l0,0c0,0,0,0,0,0l0,0c0,0,12.8-2.5,15.8-2.5l0,0H49.2"/>
			</g>
			<g>
				<path fill="#171717" d="M56.2,61.6c3.1,0,16.4,2.6,16.4,2.6l0,0c0,0,0,0,0,0l0,0c0,0,0,0,0,0l0,0c0,0-13.4,2.5-16.4,2.5l0,0H34.3       l0,0c-2.9,0-19.1-2.5-19.1-2.5l0,0c0,0,0,0,0,0l0,0c0,0,0,0,0,0l0,0c0,0,16.2-2.6,19.1-2.6l0,0H56.2"/>
				<line fill="#171717" x1="15.3" y1="64.2" x2="15.3" y2="64.2"/>
			</g>
			<g>
				<path fill="#171717" d="M33.2,17.5c3,0,15.8,2.6,15.8,2.6l0,0c0,0,0,0,0,0l0,0c0,0,0,0,0,0l0,0c0,0-12.7,2.5-15.8,2.5l0,0H20.5       l0,0c-3,0-14.4-2.5-14.4-2.5l0,0c0,0,0,0,0,0l0,0c0,0,0,0,0,0l0,0c0,0,11.4-2.6,14.4-2.6l0,0H33.2"/>
				<line fill="#171717" x1="6.2" y1="20.1" x2="6.2" y2="20.1"/>
			</g>
			<g>
				<path fill="#171717" d="M62.7,44.1c3.5,0,14.4,2.5,14.4,2.5l0,0c0,0,0,0,0,0l0,0c0,0,0,0,0,0l0,0c0,0-10.9,2.6-14.4,2.6l0,0h-12         l0,0c-3.5,0-16.4-2.6-16.4-2.6l0,0c0,0,0,0,0,0l0,0c0,0,0,0,0,0l0,0c0,0,12.9-2.5,16.4-2.5l0,0H62.7"/>
				<line fill="#171717" x1="41.5" y1="47.9" x2="41.5" y2="47.9"/>
				<line fill="#171717" x1="41.5" y1="45.4" x2="41.5" y2="45.4"/>
			</g>
			<g>
				<path fill="#171717" d="M53.9,35.3c2.9,0,14.9,2.5,14.9,2.5l0,0c0,0,0,0,0,0l0,0c0,0,0,0,0,0l0,0c0,0-12,2.6-14.9,2.6l0,0H41.2         l0,0c-2.9,0-15.3-2.6-15.3-2.6l0,0c0,0,0,0,0,0l0,0c0,0,0,0,0,0l0,0c0,0,12.3-2.5,15.3-2.5l0,0H53.9"/>
			</g>
			<g>
				<line fill="#171717" x1="14.8" y1="28.9" x2="14.8" y2="28.9"/>
				<path fill="#171717" d="M42.3,26.4c3.1,0,15.3,2.5,15.3,2.5h0c0,0,0,0,0,0l0,0c0,0,0,0,0,0l0,0c0,0-12.2,2.5-15.3,2.5l0,0H29.5       l0,0c-3.1,0-14.8-2.5-14.8-2.5l0,0c0,0,0,0,0,0l0,0c0,0,0,0,0,0l0,0c0,0,11.7-2.5,14.8-2.5l0,0H42.3"/>
			</g>
			<g>
				<path fill="#171717" d="M65.3,52.9c3,0,17.1,2.5,17.1,2.5l0,0c0,0,0,0,0,0l0,0c0,0,0,0,0,0l0,0c0,0-14.1,2.6-17.1,2.6l0,0       c-4.7,0-35.6,0-40.3,0l0,0c-3.1,0-24-2.6-24-2.6l0,0c0,0,0,0,0,0l0,0c0,0,0,0,0,0l0,0c0,0,20.9-2.5,24-2.5l0,0       C29.7,52.9,60.7,52.9,65.3,52.9L65.3,52.9"/>
				<line fill="#171717" x1="1.2" y1="55.5" x2="1.2" y2="55.5"/>
			</g>
			<g>
				<line fill="#171717" x1="18.1" y1="8.7" x2="18.1" y2="8.7"/>
				<path fill="#171717" d="M58.4,8.7c3.6,0,24,2.6,24,2.6l0,0c0,0,0,0,0,0l0,0c0,0,0,0,0,0l0,0c0,0-20.4,2.6-24,2.6l0,0       c-4.7,0-35.6,0-40.3,0l0,0C15.5,13.8,1,11.2,1,11.2h0c0,0,0,0,0,0l0,0c0,0,0,0,0,0l0,0c0,0,14.5-2.6,17.1-2.6l0,0       C22.8,8.7,53.7,8.7,58.4,8.7L58.4,8.7"/>
			</g>
		</g>
		<g>
			<path fill="#171717" d="M193.5,36.4c-0.5,0-0.8,0.3-0.8,0.8v16.1l-7.3-14.9c-0.6-1.1-1.5-2.1-3.4-2.1c-1.9,0-2.8,1-3.1,1.7     c-0.3,0.6-0.4,1.5-0.4,2.7v16h2.9c0.5,0,0.8-0.3,0.8-0.8V39.8c0,0,6.8,14,7.3,14.9c0.6,1.1,1.3,2.1,3.4,2.1c1.9,0,2.8-1,3-1.6     c0.3-0.6,0.4-1.5,0.4-2.5V36.4H193.5z"/>
			<path fill="#171717" d="M126.1,56.7h4.7l-6.4-7.2c3.3-1.1,5.7-3.7,5.7-6.8c0-3.5-2.6-6.3-6.1-6.3h-7.4c-0.5,0-1,0.2-1.3,0.5     c-0.4,0.3-0.5,0.8-0.5,1.3v18.5h3.8V39.8h5.3c1.7,0,2.7,1.3,2.7,2.9c0,2.7-3.4,3.5-4.9,4.1c-1.3,0.5-2.1,2.3-0.4,4.5L126.1,56.7z"/>
			<path fill="#171717" d="M215.1,11.2c-0.4-1-1-2.1-2.9-2.1c-1.9,0-2.5,1.1-2.9,2.1l-6.6,18.3h3.5c0,0,0.5,0,0.7-0.5l1.4-4.4h7.9     l1.4,4.4c0.2,0.5,0.7,0.5,0.7,0.5h3.5L215.1,11.2z M209.2,21.5l3-8.9l3,8.9H209.2z"/>
			<path fill="#171717" d="M142.7,38.4c-0.4-1-1-2.1-2.9-2.1c-1.9,0-2.5,1.1-2.9,2.1l-6.6,18.3h3.5c0,0,0.5,0,0.7-0.5l1.4-4.4h7.9     l1.4,4.4c0.2,0.5,0.7,0.5,0.7,0.5h3.5L142.7,38.4z M136.8,48.7l3-8.9l3,8.9H136.8z"/>
			<path fill="#171717" d="M119.2,29.6c1.9,0,2.7-1.1,3.1-2.1l6.5-18.2h-3.5c0,0-0.5,0-0.7,0.5l-5.4,16.2l-5.4-16.2     c-0.2-0.5-0.7-0.5-0.7-0.5h-3.6l6.6,18.2C116.5,28.5,117.3,29.6,119.2,29.6z"/>
			<path fill="#171717" d="M135,26.1c-1.3,0-1.5-0.2-1.5-1.4v-3.9h6.8c0.3,0,0.5-0.2,0.5-0.5v-2.2c0-0.3-0.2-0.5-0.5-0.5h-6.8V14     c0-1.2,0.2-1.4,1.5-1.4l10.4,0c-0.4-2.2-2.2-3.4-4.8-3.4h-5.9c-3.3,0-4.9,1.1-4.9,4.5v11.4c0,3.3,1.6,4.5,4.9,4.5h6.2     c2.5,0,4.3-1.2,4.8-3.4H135z"/>
			<path fill="#171717" d="M176.3,36.4h-20.5c-2.9,0-4.9,1.5-4.9,4.5v15.8h3.7v-8.6h6.9c0.3,0,0.5-0.2,0.5-0.5v-2.2     c0-0.3-0.2-0.5-0.5-0.5h-6.9v-3.8c0-1,0.4-1.4,1.5-1.4h11.1v16.9h3.7V39.8h5.3c0.3,0,0.5-0.2,0.5-0.5v-2.4     C176.8,36.6,176.6,36.4,176.3,36.4z"/>
			<path fill="#171717" d="M228.7,36.4h-14.2c-0.3,0-0.5,0.2-0.5,0.5v2.4c0,0.3,0.2,0.5,0.5,0.5h5.2v16.9h3.7v-1.4V39.8h5.2     c0.3,0,0.5-0.2,0.5-0.5v-2.4C229.1,36.6,229,36.4,228.7,36.4z"/>
			<path fill="#171717" d="M108.5,19.6c-1.1-1.1-2.4-1.9-4-2.5l-3.4-1.3c-1.1-0.4-1.6-0.7-1.9-1c-0.2-0.3-0.4-0.5-0.4-1     c0-0.4,0.1-0.6,0.4-0.9c0.3-0.2,0.6-0.4,1.7-0.4h7.5c-0.4-2.2-2.3-3.4-4.8-3.4h-2.6c-2.3,0-3.6,0.6-4.5,1.5     c-0.9,0.9-1.4,2.1-1.4,3.3c0,1.3,0.5,2.6,1.4,3.4c0.9,0.9,2,1.4,3.2,1.8l3.2,1.2c1.4,0.5,2.3,1.1,2.9,1.7c0.6,0.6,0.8,1,0.9,1.9     c0,0.7-0.2,1.1-0.5,1.4c-0.3,0.3-0.8,0.8-2.3,0.8h-9.6c0.4,2.2,2.3,3.4,4.9,3.4h5.7c1.5,0,3-0.6,4-1.6c1-1,1.5-2.4,1.5-3.9     C110.4,22.3,109.7,20.7,108.5,19.6z"/>
			<path fill="#171717" d="M181.9,19.6c-1.1-1.1-2.4-1.9-4-2.5l-3.4-1.3c-1.1-0.4-1.6-0.7-1.9-1c-0.2-0.3-0.4-0.5-0.4-1     c0-0.4,0.1-0.6,0.4-0.9c0.3-0.2,0.6-0.4,1.7-0.4h7.5c-0.4-2.2-2.3-3.4-4.8-3.4h-2.6c-2.3,0-3.6,0.6-4.5,1.5     c-0.9,0.9-1.4,2.1-1.4,3.3c0,1.3,0.5,2.6,1.4,3.4c0.9,0.9,2,1.4,3.2,1.8l3.2,1.2c1.4,0.5,2.3,1.1,2.9,1.7c0.6,0.6,0.8,1,0.8,1.9     c0,0.7-0.2,1.1-0.5,1.4c-0.3,0.3-0.8,0.8-2.3,0.8h-9.6c0.4,2.2,2.3,3.4,4.9,3.4h5.7c1.5,0,3.1-0.6,4-1.6c1-1,1.5-2.4,1.5-3.9     C183.8,22.3,183.1,20.7,181.9,19.6z"/>
			<g>
				<path fill="#171717" d="M211.4,35.1c0.3,0,0.5-0.2,0.5-0.5v-2.1c0-0.3-0.2-0.5-0.5-0.5h-2.6c-0.3,0-0.5,0.2-0.5,0.5v2.1      c0,0.3,0.2,0.5,0.5,0.5H211.4z"/>
				<path fill="#171717" d="M205.4,35.1c0.3,0,0.5-0.2,0.5-0.5v-2.1c0-0.3-0.2-0.5-0.5-0.5h-2.6c-0.3,0-0.5,0.2-0.5,0.5v2.1      c0,0.3,0.2,0.5,0.5,0.5H205.4z"/>
				<path fill="#171717" d="M210,38.4c-0.4-1-1-2.1-2.9-2.1c-1.9,0-2.5,1.1-2.9,2.1l-6.6,18.3h3.5c0,0,0.5,0,0.7-0.5l1.4-4.4h7.9      l1.4,4.4c0.2,0.5,0.7,0.5,0.7,0.5h3.5L210,38.4z M204.1,48.7l3-8.9l3,8.9H204.1z"/>
			</g>
			<path fill="#171717" d="M162.7,9.2c-0.5,0-0.8,0.3-0.8,0.8v16.1l-7.3-14.9c-0.6-1.1-1.5-2.1-3.4-2.1c-1.9,0-2.8,1-3.1,1.7     c-0.3,0.6-0.4,1.5-0.4,2.7v16h2.9c0.5,0,0.8-0.3,0.8-0.8V12.6c0,0,6.8,14,7.3,14.9c0.6,1.1,1.3,2.1,3.4,2.1c1.9,0,2.8-1,3-1.6     c0.3-0.6,0.4-1.5,0.4-2.5V9.2H162.7z"/>
			<g>
				<path fill="#171717" d="M199.6,29.5h4.8l-9-10.3l8.8-9.9h-4.7l-7.1,8.1c-0.5,0.6-0.8,1.1-0.8,1.8v0c0,0.8,0.5,1.4,0.9,1.9      L199.6,29.5z"/>
				<path fill="#171717" d="M190,10c0-0.5-0.3-0.8-0.8-0.8h-3v20.3l3,0c0.5,0,0.8-0.3,0.8-0.8V10z"/>
			</g>
			<path fill="#171717" d="M108.7,56.7h4.8l-9-10.3l8.8-9.9h-4.7l-7.1,8.1c-0.5,0.6-0.8,1.1-0.8,1.8v0c0,0.8,0.5,1.4,0.9,1.9     L108.7,56.7z"/>
			<path fill="#171717" d="M99,37.2c0-0.5-0.3-0.8-0.8-0.8h-3v20.3h3c0.5,0,0.8-0.3,0.8-0.8V37.2z"/>
		</g>
	</g>
</svg>