<svg xmlns="http://www.w3.org/2000/svg" xmlns:xlink="http://www.w3.org/1999/xlink" height="32" viewBox="0 0 220 32" width="220"><mask id="a" fill="#fff"><path d="m0 0h41.0023439v23.5590676h-41.0023439z" fill="#fff" fill-rule="evenodd"></path></mask><g fill="#0072ba" fill-rule="evenodd" transform="translate(.982904)"><path d="m31.6200213 21.8549735c.4610959-.7492181.4243893-1.9082434.0306726-2.7162927-.4897573-1.1127649-1.3335076-1.7237045-2.6961795-1.8433783l-16.3988257-.1895673c-1.9107576-.121685-3.6646319-.6974265-4.90411018-2.2697789-1.04136289-1.3199312-1.26914531-3.3860635-.59736317-4.88751676.72558506-1.80164328 2.39548663-2.96720541 4.34395655-3.12408867h29.604172c-.1412955-.85732676-.4183554-1.7986263-.7622917-2.55538687-.9764977-2.47694524-3.5756309-3.96683334-6.0897856-4.14734965-4.7261081-.25543812-9.0484429-.01206794-13.8268454-.11715961-4.7452156.25141547-10.98585052-.54406309-15.18197477 1.21785655-2.42515366.92822593-5.08814635 3.46299673-5.1198247 6.23057826-.09402939 3.42528445-.03117552 16.10617805-.03117552 16.10617805l27.93829309-.0155877c1.5100013-.0326841 2.870159-.288625 3.691282-1.6885064" mask="url(#a)" transform="translate(.017096)"></path><path d="m218.557985 19.7561572-17.842956-.0045255s-.698935.0548086-1.17059-.4168469c-.471153-.4711526-.385169-1.1077365-.385169-1.1077365l-.004525-4.405302s-.010057-.7044661.421875-1.1363979c.432434-.4319318 1.03734-.392711 1.03734-.392711 6.768607-.0050283 6.867665 0 7.212607 0h.809055c.465622 0 .965436.0990577 1.185675.389694.22376.2956646.251416.5274697.251416.7778795v.633567l4.315798-.0050283s.016091-2.5976247-.00352-2.677072c-.040226-.6471434.224766-1.3209369-1.002142-2.48197356-1.162545-1.09969128-2.608184-.94280802-2.608184-.94280802h.178002l-11.329787.01558776s-1.107736-.02614721-1.52408.04726611c-.201133.03519816-.270021.05330008-.42439.09453222-1.308869.29264761-2.844012 1.5240806-2.928487 3.08084519v8.7216028s.060842 1.0665044.139284 1.4280399c.078944.3615354.149341.4872432.196607.5973631.84375 1.7352696 2.608687 2.1340146 5.017247 2.0947938l18.458924.0216217z"></path><path d="m192.798459 7.99996962h-4.420387l.013576 16.07751668 4.409828-.0155877z"></path><g transform="translate(0 7.979354)"><path d="m137.186362 5.88463057c0 1.25707737-.691393 1.48284846-.922192 1.48787677-.08347.01558776-10.024941 0-10.024941 0l-.005028-3.04363572s7.531904-.01558776 10.02494-.01558776c.452045.10408601.927221.31426934.927221 1.57134671zm-31.176022-1.56078726h5.712662l.007543 11.77428949 4.392228-.0075425v-11.76775265h5.696069v11.77529515h4.430946v-4.336917h9.96259s.544063-.0105594.7638.3037099c.170963.2443759.210184.502831.2308 1.1313697.021621.9015759.004022 1.9444472.011062 2.9018374h4.391725c-.08347-2.1636816.540041-4.7582893-1.409435-6.13101777.808552-.49729981 1.51151-1.91427742 1.51151-4.05130894s-.30723-4.17852517-1.445639-5.15401721c-1.099691-.94280802-3.341814-.69893501-4.902602-.76178888l-29.353259.01558776zm-18.6987744-4.31630085h-1.7206875l-7.099973 7.09192768-7.185957-7.08086539h-17.6202021s-3.1582811-.31527501-3.1582811 5.19524934c0 5.51052431 3.1582811 5.02328111 3.1582811 5.02328111l10.606716-.0080452s.7462012.0160905.7462012.7622917c0 .7462011-.7517323.7798908-.7517323.7798908l-21.1711942.0155877v4.3112726l23.2403435-.0155878s3.1477218.1226908 3.1477218-5.1273672c0-5.41146661-3.1477218-5.04440002-3.1477218-5.04440002h-6.9923671l-3.6349649-.00251416s-.746704-.07089916-.746704-.81710028c0-.74670396.746704-.78089646.746704-.78089646l13.7544377.00100566 6.8299527 6.79022906v4.9860717h4.3157981v-5.0283095l6.6836289-6.64088827z"></path><path d="m38.7255254.60490563-25.047518-.06888784c-1.6100647-.01860475-3.1235858.36706659-4.09404955 1.7126422-.51188191.69843219-.6742963 1.75488001-.33237126 2.61371527.38818549 1.26160284 1.73778371 2.03344834 2.99335261 2.14759097l15.9960581.23482205c1.5100013.01759908 2.9646913.38768266 4.1111458 1.25607171 1.6960488 1.3274737 2.4256565 3.39813151 1.7478404 5.50348471-.5762443 1.9565152-2.63232 3.1919708-4.6456551 3.3196899l-29.30347912.0196104-.15084928.047769c.18906444.9578929.35298733 1.7865583.92370045 2.7283607 1.41144647 2.3296158 4.38418302 3.7144122 6.94912368 3.8939228 4.51693037.035701 9.36774057-.0804529 13.94501067-.0271528 4.8337139-.2966703 10.2039484.5269668 14.2678281-.9428081 2.3235818-.8301739 4.556654-2.1998854 4.9654556-5.4682865 0-5.3114033.0311755-16.97054447.0311755-16.97054447z"></path></g><path d="m161.374541 14.0208674v4.2635036s-.010056.6883755-.502831 1.0685157c-.597363.4615989-1.12081.4082988-1.12081.4082988l-10.42268.0110623s-.682844-.0432435-1.205285-.502831c-.523447-.4605931-.491769-1.0478997-.491769-1.0478997l-.003017-4.2635036v-.0940294s-.003017-.5707131.484226-1.0579563c.487243-.487746 1.285236-.5133904 1.285236-.5133904h10.384968s.588312-.0336897 1.079075.4289148c.544063.5138932.512887 1.2993152.512887 1.2993152zm3.310639-4.99663114c-.963424-1.04789969-2.388447-1.03734233-2.388447-1.03734233h-15.587759s-1.367197.0472682-2.357271 1.03734233c-.990075.98957134-1.01421 2.38844704-1.01421 2.38844704l-.022628 9.2395186s.031176 1.4139606 1.005662 2.388447c.973984.9739835 2.427668 1.0101874 2.427668 1.0101874l15.579714-.0045255s1.414463-.0316784 2.388447-1.0056619c.974486-.9744864 1.005662-2.388447 1.005662-2.388447v-9.2395186s-.104086-1.3752427-1.036838-2.38844704z"></path><path d="m94.1073258 7.98689602h-6.8902924l-.0236331 16.08757328h4.36055l-.0105594-12.0332474 7.7667268 12.025705 6.7002223.0105594.018605-16.08757329h-4.386697v11.56209479"></path><path d="m174.469768 7.97734223h-6.913926l.007543 16.09712707h4.36055l-.01056-12.0332474 7.766224 12.025705 6.700725.0105594.005029-16.07500252-4.373121-.01257077v11.56209479"></path></g></svg>
