<?xml version="1.0" encoding="UTF-8" standalone="no"?>
<svg
   viewBox="0 0 400 101"
   fill="none"
   version="1.1"
   id="svg4"
   sodipodi:docname="valcon.svg"
   inkscape:version="1.1.2 (0a00cf5339, 2022-02-04)"
   xmlns:inkscape="http://www.inkscape.org/namespaces/inkscape"
   xmlns:sodipodi="http://sodipodi.sourceforge.net/DTD/sodipodi-0.dtd"
   xmlns="http://www.w3.org/2000/svg"
   xmlns:svg="http://www.w3.org/2000/svg">
  <defs
     id="defs8" />
  <sodipodi:namedview
     id="namedview6"
     pagecolor="#ffffff"
     bordercolor="#666666"
     borderopacity="1.0"
     inkscape:pageshadow="2"
     inkscape:pageopacity="0.0"
     inkscape:pagecheckerboard="0"
     showgrid="false"
     inkscape:zoom="3.325"
     inkscape:cx="197.74436"
     inkscape:cy="50.37594"
     inkscape:window-width="1920"
     inkscape:window-height="1021"
     inkscape:window-x="1920"
     inkscape:window-y="0"
     inkscape:window-maximized="1"
     inkscape:current-layer="svg4" />
  <path
     fill-rule="evenodd"
     clip-rule="evenodd"
     d="M176.727 0h-19.266v96.8511h19.266V0Zm-44.851 40.3392c-4.562-11.4055-14.298-14.8276-24.034-14.8276-18.9583 0-35.6352 13.4773-35.6352 36.7057S88.8837 98.923 107.842 98.923c9.736 0 19.472-3.4222 24.034-14.8225v12.7506h18.85V27.5834h-18.85v12.7558Zm-21.445 42.3079c-11.4968 0-18.6485-9.0244-18.6485-20.4298 0-11.4055 7.1517-20.4248 18.6485-20.4248 12.327 0 20.302 9.0193 20.302 20.4248 0 11.4054-7.975 20.4298-20.302 20.4298Zm136.325-20.4298c0-20.7288 15.127-36.7057 39.059-36.7057 23.926 0 39.054 15.9769 39.054 36.7057 0 20.7287-15.122 36.7057-39.054 36.7057-23.932 0-39.059-15.977-39.059-36.7057Zm19.581 0c0 11.4054 7.564 20.4298 19.478 20.4298 11.909 0 19.473-9.0244 19.473-20.4298 0-11.4055-7.559-20.4248-19.473-20.4248-11.914 0-19.478 9.0193-19.478 20.4248Zm81.84-21.8781c5.18-10.3695 13.156-14.8276 24.344-14.8276 15.333 0 27.453 8.3956 27.479 31.4178v39.9217h-19.272V62.2173c0-10.5757-1.992-19.3889-13.902-19.3889-9.118 0-18.237 5.0766-18.237 23.2285v30.7942h-19.266V27.5834h18.854v12.7558ZM41.0205 66.3301l18.5459-38.7467h21.6507L42.1635 101h-3.1099L0 27.5834h22.4797l18.5408 38.7467ZM219.926 98.923c-25.276 0-38.745-16.379-38.745-36.7057 0-20.3217 13.469-36.7057 38.745-36.7057 8.706 0 17.511 1.9687 24.034 7.1535v16.9046l-1.343.6184c-7.724-6.6433-14.175-8.1894-20.596-8.1894-16.78 0-21.238 11.7147-21.238 20.2186 0 8.5038 4.458 20.2185 21.238 20.2185 6.4 0 12.826-1.5514 20.596-8.1895l1.343.6237v16.8994c-6.528 5.1847-15.328 7.1536-24.034 7.1536Z"
     fill="#E6E6E6"
     id="path2"
     style="fill:#000000" />
</svg>
