<svg xmlns="http://www.w3.org/2000/svg" id="Layer_1" data-name="Layer 1" viewBox="0 0 175.13 86.8"> <defs> <style>.cls-1{fill:none;stroke:#000;stroke-miterlimit:10;stroke-width:0.75px;}</style> </defs> <polygon points="63.6 33.3 32.2 46.9 32.2 37.4 55.3 28.5 32.2 19.6 32.2 10.4 63.6 24.2 63.6 33.3"></polygon> <polygon points="84.2 0 84.2 57.3 75.1 57.3 75.1 0 84.2 0"></polygon> <path d="M109.3,28.6c0,9,2.1,12.7,7,12.7s6.9-3.7,6.9-12.7S121.1,16,116.3,16s-7,3.6-7,12.6Zm23.9,0c0,12.9-6.1,20-16.9,20s-17-7.1-17-20,6.1-20,17-20,16.9,7.2,16.9,20Z"></path> <path d="M2.6,73,5.9,83.4,9.2,73h2.6L7.2,86.4H4.6L0,73Z"></path> <path d="M23.6,72.7a6.9,6.9,0,0,1,2.5.4A4.31,4.31,0,0,1,28,74.4a7.39,7.39,0,0,1,1.7,5.2A7.84,7.84,0,0,1,28,84.9a5.66,5.66,0,0,1-4.4,1.7,5.58,5.58,0,0,1-4.4-1.8,7.56,7.56,0,0,1-1.7-5.2,7.84,7.84,0,0,1,1.7-5.3A6.06,6.06,0,0,1,23.6,72.7Zm3.6,7a5.7,5.7,0,0,0-1-3.6,3.17,3.17,0,0,0-2.6-1.3A2.93,2.93,0,0,0,21,76.1a5.34,5.34,0,0,0-1,3.6,5.22,5.22,0,0,0,1,3.5,3.22,3.22,0,0,0,2.6,1.2,3.09,3.09,0,0,0,2.6-1.2A5.61,5.61,0,0,0,27.2,79.7Z"></path> <path d="M39.3,84.3h5.6v2.1h-8V73h2.5V84.3Z"></path> <path d="M53.6,73v8.4a3.29,3.29,0,0,0,.8,2.4,3.81,3.81,0,0,0,4.4,0,2.92,2.92,0,0,0,.8-2.4V73h2.5v8.4a5.72,5.72,0,0,1-1.4,4,5.81,5.81,0,0,1-4.1,1.4,6,6,0,0,1-4.1-1.4,5,5,0,0,1-1.4-4V73Z"></path> <path d="M73.4,73l3.7,8,3.7-8h3.4V86.4H81.7V76.2l-3.8,8.7H76.3l-4-9V86.4H69.8V73Z"></path> <path d="M92.3,73H101v2.1H94.7v3.5h5.9v2.1H94.7v3.5H101v2.1H92.3Z"></path> <path d="M111.4,73l6,9.5V73h2.5V86.4h-2.5l-6.2-9.8v9.8h-2.5V73Z"></path> <path d="M126.1,73H137v2.1h-4.2V86.4h-2.5V75.1h-4.2Z"></path> <path d="M145.3,73h3.1l4.4,13.4h-2.6l-.9-2.9h-5l-1,2.9h-2.6Zm-.4,8.7h3.8l-1.9-5.8Z"></path> <path d="M161.9,84.3h5.6v2.1h-8V73H162V84.3Z"></path> <path d="M171,76.29v1.39h-.67V74.12h1.09a2.22,2.22,0,0,1,.62.08,1.23,1.23,0,0,1,.43.21.75.75,0,0,1,.24.32,1.11,1.11,0,0,1,.08.41,1.21,1.21,0,0,1-.05.34.9.9,0,0,1-.16.29.88.88,0,0,1-.24.23,1.19,1.19,0,0,1-.34.16.7.7,0,0,1,.22.2l.89,1.32h-.6a.23.23,0,0,1-.14,0,.22.22,0,0,1-.1-.09l-.75-1.14a.19.19,0,0,0-.09-.09.33.33,0,0,0-.15,0Zm0-.48h.41a1,1,0,0,0,.32,0,.63.63,0,0,0,.23-.13.56.56,0,0,0,.14-.2.66.66,0,0,0,0-.25.5.5,0,0,0-.18-.41.83.83,0,0,0-.54-.15H171Z"></path> <circle class="cls-1" cx="171.73" cy="75.9" r="3.03"></circle> </svg>
