<svg id="Layer_1" data-name="Layer 1" xmlns="http://www.w3.org/2000/svg" viewBox="0 0 449.52 97.94"><script xmlns=""/><defs><style>.cls-1{fill:#542e4c;}</style></defs><title>zwap_RGB_plume</title><path class="cls-1" d="M132.12,36.07c-3.15,11.86-6.2,23.3-9.46,35.6L112.1,36.07H95.84L85.34,71.62,79.16,48.53H63.89C68,62.23,72,76,76.14,89.52H92.4C96.2,77.94,100,66.15,104,54c4,12.19,7.79,24.05,11.56,35.57h16.33c5.31-17.69,10.55-35.41,16-53.45Z" transform="translate(-12.1 -13.08)"/><path class="cls-1" d="M166.11,76.63l-3-2.63V71.62l3-2.73h21.19v7.74h14.3V46.15L189.77,36.07H155.9c0,4.11,0,8.08,0,12.42h27.33l3.91,3.66v4H159.46l-11.2,10.19v13.2l11.4,10h15.5V76.63Z" transform="translate(-12.1 -13.08)"/><path class="cls-1" d="M326.18,76.83H293.47l-5.77-5.14V53.78L293,48.71h18.31V64h14.84V36.07H286.46L273,48.12V77.41l13.7,12.11h24.53v3.9l-5.73,5H279c0,3.49,0,7.73,0,11.34v1.09h33.83l13.31-12.63" transform="translate(-12.1 -13.08)"/><path class="cls-1" d="M229.69,36.07,224,40.89l-1.44-4.82h-12.8c0,17.2,0,34,0,50.86,0,7.71,0,24.06,0,24.06s9.81.06,14.74,0V89.47h0V60.69h0l0-7.85L229,48.69h15.85l5.38,4.9V71.81L245,76.68h-8.09V89.52h14.86c4.64-4.29,9-8.37,13.22-12.25V48.15L251.86,36.07Z" transform="translate(-12.1 -13.08)"/><path class="cls-1" d="M353.89,36.07l-5.77,4.79-1.48-4.79H334.18v40.8l14.47-.07v-24l4.69-4.18h22.54c.06-4.39.1-8.42,0-12.53Z" transform="translate(-12.1 -13.08)"/><path class="cls-1" d="M383.94,76.82h14.33V36.07H384Z" transform="translate(-12.1 -13.08)"/><path class="cls-1" d="M383.82,27.66l14.5,0V13.08H383.83Z" transform="translate(-12.1 -13.08)"/><path class="cls-1" d="M461.62,17.46V13.08H446.86c0,7.15,0,15.77,0,23H419.59L406.32,48.3V77.36l13.51,12.16H434V76.72h-7.63l-5.24-5V53.69l5.19-4.93H446.7V64h14.92Q461.62,40.63,461.62,17.46Z" transform="translate(-12.1 -13.08)"/><path class="cls-1" d="M46.06,61.87,59.41,48.53h-19L12.1,76.82h19Z" transform="translate(-12.1 -13.08)"/><rect class="cls-1" y="22.99" width="28.33" height="14.74"/><rect class="cls-1" x="18.98" y="61.69" width="28.33" height="14.74"/></svg>