<?xml version="1.0" standalone="no"?>
<!DOCTYPE svg PUBLIC "-//W3C//DTD SVG 20010904//EN"
 "http://www.w3.org/TR/2001/REC-SVG-20010904/DTD/svg10.dtd">
<svg version="1.0" xmlns="http://www.w3.org/2000/svg"
 width="700.000000pt" height="700.000000pt" viewBox="0 0 700.000000 700.000000"
 preserveAspectRatio="xMidYMid meet">
<metadata>
Created by potrace 1.11, written by Peter Selinger 2001-2013
</metadata>
<g transform="translate(0.000000,700.000000) scale(0.100000,-0.100000)"
fill="#000000" stroke="none">
<path d="M3265 6994 c-484 -48 -778 -120 -1160 -283 -794 -340 -1476 -1022
-1816 -1816 -200 -469 -284 -881 -284 -1395 0 -514 84 -926 284 -1395 340
-794 1022 -1476 1816 -1816 469 -200 881 -284 1395 -284 514 0 926 84 1395
284 794 340 1476 1022 1816 1816 200 469 284 881 284 1395 0 514 -84 926 -284
1395 -340 794 -1022 1476 -1816 1816 -326 139 -612 216 -980 265 -104 14 -564
27 -650 18z m-1867 -2240 c255 -74 629 -282 1027 -570 252 -183 467 -324 494
-324 4 0 15 13 24 30 30 50 141 153 208 193 35 21 100 49 144 64 69 23 96 27
205 27 109 0 136 -4 205 -27 44 -15 109 -43 144 -64 67 -40 178 -143 208 -193
9 -17 20 -30 24 -30 27 0 242 141 494 324 399 289 767 493 1031 572 70 20 112
26 194 27 97 1 111 -1 163 -26 68 -34 103 -74 157 -181 99 -198 141 -516 141
-1076 0 -563 -42 -878 -143 -1078 -56 -113 -110 -166 -195 -192 -79 -24 -124
-25 -234 -4 -265 50 -654 258 -1149 615 -118 85 -234 167 -258 182 -69 45
-193 117 -201 117 -4 0 -15 -13 -24 -30 -30 -50 -141 -153 -208 -193 -35 -21
-100 -49 -144 -64 -69 -23 -96 -27 -205 -27 -109 0 -136 4 -205 27 -44 15
-109 43 -144 64 -67 40 -178 143 -208 193 -9 17 -20 30 -24 30 -8 0 -132 -72
-201 -117 -24 -15 -140 -97 -258 -182 -495 -357 -884 -565 -1149 -615 -110
-21 -155 -20 -234 4 -85 26 -139 79 -195 192 -101 200 -143 515 -143 1078 0
649 56 978 200 1177 36 50 104 92 168 103 71 13 195 2 291 -26z"/>
</g>
</svg>
