<svg width="100" height="202" viewBox="0 0 100 202" fill="none" xmlns="http://www.w3.org/2000/svg">
<g clip-path="url(#clip0_31_69)">
<path d="M49.0037 119.817C47.6585 127.083 49.2446 130.706 50.936 132.671C53.6152 135.782 56.7178 134.921 59.6331 138.617C61.794 141.355 63.0141 145.537 62.0489 149.221C61.0875 152.891 59.0837 154.45 56.2512 157.898C53.4478 161.311 47.0818 169.06 47.5541 176.699C48.0113 184.088 54.5306 185.916 54.8015 195.016C54.888 197.917 54.302 200.293 53.8354 201.765" stroke="#0B0F24" stroke-width="3" stroke-miterlimit="10" stroke-linecap="round"/>
<path d="M99.9983 51.9357C99.9879 50.6593 99.9362 49.3857 99.8412 48.1186C99.8308 47.9779 99.8195 47.8371 99.8083 47.6963C99.7509 46.9933 99.6794 46.2913 99.5947 45.593C99.4762 44.6131 99.3313 43.6371 99.1582 42.6675C99.1338 42.5305 99.1093 42.3935 99.0839 42.2574C99.0322 41.9814 98.9795 41.7055 98.923 41.4305C98.8948 41.2925 98.8666 41.1555 98.8374 41.0176C98.7791 40.7426 98.7189 40.4685 98.6568 40.1944L98.6399 40.1203C98.5195 39.5975 98.3915 39.0776 98.2551 38.5595C98.2278 38.4544 98.1996 38.3502 98.1714 38.2451L98.145 38.1503C98.1243 38.0752 98.1036 38.0001 98.083 37.925L98.0538 37.8208L97.9936 37.6106L97.9607 37.4942L97.9042 37.2999L97.8675 37.1761C97.844 37.0982 97.8214 37.0203 97.7979 36.9433L97.7546 36.8016C97.7311 36.7227 97.7067 36.6448 97.6822 36.566L97.6436 36.444L97.5872 36.2638L97.5373 36.1089L97.4903 35.9625L97.4386 35.8058L97.3849 35.6453L97.336 35.4998L97.2702 35.3074C97.241 35.2229 97.2128 35.1385 97.1836 35.0549L97.1366 34.9207L97.0707 34.7349L97.0303 34.6213L96.9616 34.4317L96.9249 34.3304L96.8525 34.1333L96.8205 34.0469C96.6944 33.7072 96.5637 33.3693 96.4301 33.0323L96.4216 33.0126C96.3887 32.93 96.3558 32.8484 96.3228 32.7667L96.3078 32.7311C96.0303 32.0478 95.7339 31.373 95.4273 30.7029C95.3266 30.4842 95.2203 30.2683 95.1168 30.0506C94.9014 29.5972 94.6803 29.1467 94.4517 28.7009C94.3257 28.456 94.1977 28.2119 94.0679 27.9679C93.8402 27.5409 93.6051 27.1185 93.3652 26.6981C93.2335 26.4672 93.1046 26.2354 92.9691 26.0073C92.6719 25.5033 92.3633 25.0058 92.0491 24.5131C91.9654 24.3817 91.8863 24.2475 91.8017 24.117C91.4141 23.5211 91.0115 22.9335 90.6004 22.3535C90.4329 22.1179 90.2598 21.887 90.0886 21.6543C89.8252 21.2948 89.559 20.9382 89.2871 20.5853C89.0886 20.3281 88.8873 20.0737 88.6841 19.8203C88.4235 19.4956 88.1592 19.1746 87.891 18.8555C87.6794 18.603 87.4677 18.3506 87.2513 18.1028C86.9597 17.7687 86.6615 17.442 86.3624 17.1145C86.194 16.9305 86.0322 16.74 85.8609 16.5579C85.4037 16.0718 84.9334 15.5978 84.4583 15.1285L84.3285 15.0018C83.9127 14.5935 83.4903 14.1928 83.0613 13.7986L82.9494 13.6953C81.543 12.4077 80.0688 11.195 78.5373 10.0631L78.4197 9.9768C68.0528 2.35106 55.0453 -1.55801 42.0171 0.580951C39.7114 0.959188 37.4047 1.52701 35.1121 2.29756C32.178 3.28304 29.2664 4.60077 26.4094 6.27609C15.3943 12.7352 7.49781 23.3587 3.54673 34.9855C1.74335 40.293 0.55614 46.0576 0.153506 51.8841C-0.398705 59.8609 0.51757 67.955 3.32848 75.1565C5.48182 80.6733 8.65586 86.6547 12.6784 92.2719L12.6662 92.2635C12.7339 92.3573 12.8017 92.4521 12.8694 92.546L12.8835 92.5647C12.9447 92.6501 13.0068 92.7346 13.0679 92.8191L13.0924 92.8529C13.2269 93.0368 13.3614 93.2198 13.4969 93.4019L13.5185 93.432C13.5844 93.5211 13.6512 93.6094 13.7179 93.6985L13.7226 93.7041C13.7923 93.7971 13.8619 93.889 13.9324 93.982L13.9484 94.0026C14.0115 94.0861 14.0745 94.1687 14.1385 94.2523L14.1667 94.2898C14.3068 94.4728 14.448 94.6558 14.59 94.8379L14.5947 94.8445C14.8111 95.1214 15.0293 95.3964 15.2485 95.6704L15.2739 95.7014C15.3435 95.7877 15.4131 95.8741 15.4828 95.9604L15.4865 95.9651C15.5608 96.0562 15.6352 96.1472 15.7095 96.2382L15.7198 96.2514C15.7885 96.3358 15.8581 96.4194 15.9277 96.5038L15.9522 96.5329C16.0989 96.7103 16.2476 96.8877 16.3962 97.0642L16.4131 97.0848C16.4837 97.1683 16.5552 97.2519 16.6258 97.3354L16.6417 97.3532C16.7932 97.5306 16.9447 97.7061 17.098 97.8826L17.1168 97.9042C17.1921 97.9905 17.2673 98.0769 17.3426 98.1623L17.3445 98.1641C17.4197 98.2505 17.4959 98.3359 17.5731 98.4223L17.6069 98.4607C17.6728 98.5349 17.7386 98.6081 17.8045 98.6813L17.8365 98.717C17.9898 98.8878 18.1441 99.0576 18.2993 99.2266L18.32 99.2491C18.3953 99.3308 18.4705 99.4124 18.5458 99.4941L18.5561 99.5053C18.7151 99.6771 18.875 99.847 19.0359 100.017L19.0557 100.037C19.2165 100.207 19.3783 100.376 19.5411 100.544L19.5486 100.553C19.6276 100.634 19.7067 100.716 19.7866 100.797L19.8007 100.811C19.9635 100.977 20.1272 101.143 20.2918 101.307L20.3153 101.331C20.3906 101.406 20.4658 101.481 20.542 101.556L20.5637 101.578C20.6455 101.658 20.7283 101.74 20.8111 101.821L20.8205 101.83C20.8976 101.905 20.9748 101.98 21.0519 102.055L21.0933 102.095C21.1695 102.168 21.2457 102.241 21.3219 102.314L21.3332 102.326C21.4169 102.405 21.5006 102.485 21.5844 102.564L21.6069 102.586C21.6831 102.658 21.7593 102.729 21.8355 102.801L21.8647 102.828C22.0322 102.985 22.2005 103.139 22.3699 103.293L22.3953 103.316C22.4724 103.386 22.5505 103.458 22.6286 103.527L22.6568 103.552C22.8261 103.704 22.9964 103.856 23.1667 104.007L23.2015 104.037C23.3736 104.188 23.5467 104.338 23.7198 104.487L23.7311 104.497C23.813 104.567 23.8948 104.637 23.9757 104.706L24.0086 104.734C24.1817 104.88 24.3548 105.025 24.5298 105.17L24.5665 105.2C24.6408 105.261 24.7151 105.322 24.7894 105.383L24.8355 105.42C25.0096 105.562 25.1845 105.703 25.3605 105.842L25.3915 105.867C25.4781 105.935 25.5655 106.005 25.6521 106.072L25.6568 106.076C25.7471 106.147 25.8384 106.218 25.9296 106.288L25.956 106.308C26.0359 106.37 26.1168 106.432 26.1968 106.493L26.2344 106.522C26.4122 106.658 26.5919 106.792 26.7716 106.926L26.8111 106.955C26.8929 107.016 26.9748 107.076 27.0566 107.136L27.082 107.155C27.1742 107.222 27.2673 107.29 27.3605 107.356H27.3614C27.4508 107.421 27.5401 107.486 27.6305 107.549L27.67 107.577C27.7565 107.638 27.8431 107.699 27.9296 107.76L27.9428 107.769C28.0331 107.833 28.1243 107.896 28.2156 107.959L28.2617 107.991C28.337 108.042 28.4122 108.094 28.4875 108.146L28.5458 108.185C28.7274 108.308 28.9089 108.429 29.0914 108.549L29.1366 108.579C29.2156 108.631 29.2946 108.683 29.3736 108.734L29.4188 108.763C29.6032 108.882 29.7885 109.001 29.9748 109.117L30.0293 109.152C30.1084 109.202 30.1874 109.25 30.2673 109.299L30.3087 109.324C30.4009 109.381 30.4941 109.438 30.5862 109.493L30.6295 109.52C30.7095 109.568 30.7894 109.616 30.8694 109.663L30.9221 109.695C31.1102 109.807 31.2993 109.918 31.4884 110.027L31.5354 110.054C31.6173 110.101 31.7001 110.148 31.7829 110.195L31.828 110.22C31.924 110.274 32.0199 110.328 32.1159 110.38L32.129 110.388C32.2203 110.439 32.3116 110.488 32.4037 110.538L32.4508 110.563C32.543 110.613 32.6352 110.663 32.7283 110.713L32.7368 110.717C32.8355 110.77 32.9343 110.821 33.0331 110.874L33.0707 110.894C33.1526 110.937 33.2354 110.979 33.3181 111.021L33.3812 111.053C33.574 111.152 33.7678 111.249 33.9625 111.344L34.0058 111.366C34.0933 111.408 34.1798 111.451 34.2673 111.493L34.3068 111.512C34.4047 111.559 34.5016 111.605 34.5994 111.651L34.6408 111.671C34.7245 111.71 34.8083 111.749 34.892 111.787L34.9588 111.818C35.0463 111.859 35.1338 111.898 35.2212 111.937L35.2495 111.95C35.3492 111.995 35.4489 112.039 35.5477 112.083L35.59 112.102C35.6747 112.139 35.7593 112.176 35.844 112.211L35.907 112.239C36.1046 112.323 36.3021 112.406 36.5006 112.487L36.559 112.511C36.6408 112.545 36.7236 112.577 36.8054 112.61L36.8666 112.635C36.9644 112.673 37.0623 112.713 37.161 112.75L37.2015 112.765C37.288 112.799 37.3755 112.832 37.4621 112.865L37.5289 112.89C37.6173 112.924 37.7067 112.957 37.7951 112.99L37.829 113.002C37.9296 113.038 38.0293 113.075 38.13 113.111L38.1874 113.131C38.2692 113.16 38.3511 113.189 38.4329 113.218L38.5063 113.243C38.7057 113.311 38.9052 113.379 39.1055 113.444L39.1789 113.467C39.2626 113.494 39.3473 113.522 39.431 113.548L39.4828 113.564C39.5862 113.597 39.6907 113.629 39.7941 113.661L39.8139 113.666C39.9089 113.695 40.0049 113.723 40.1008 113.752L40.1629 113.77C40.2589 113.799 40.3548 113.827 40.4508 113.854L40.4705 113.86C40.574 113.889 40.6784 113.918 40.7819 113.947L40.8431 113.964C40.9268 113.986 41.0115 114.009 41.0952 114.031L41.1648 114.05L41.2871 114.082C39.7537 116.26 38.5881 118.912 37.7396 120.741C37.4555 121.353 37.1864 122.006 37.3379 122.648C37.6182 123.834 39.1761 124.498 40.5985 124.877C42.3614 125.348 44.1723 125.643 46.0105 125.828C46.6352 125.891 47.2617 125.939 47.8892 125.973C48.1874 125.988 48.4846 126.001 48.7829 126.011C50.6399 126.07 52.5016 126.003 54.3454 125.808C56.1827 125.615 57.9926 125.311 59.7528 124.831C61.1723 124.445 62.7274 123.773 63.0021 122.586C63.1507 121.944 62.8779 121.292 62.591 120.681C61.7208 118.829 60.5204 116.134 58.9437 113.945L59.0952 113.905C59.3417 113.837 59.5881 113.767 59.8327 113.694C59.9964 113.647 60.1591 113.597 60.3219 113.546C60.4846 113.495 60.6465 113.444 60.8083 113.391C61.051 113.312 61.2927 113.231 61.5336 113.147C61.6944 113.092 61.8544 113.035 62.0143 112.976C62.1742 112.918 62.3332 112.86 62.4922 112.8C62.7302 112.71 62.9682 112.618 63.2043 112.523C63.5985 112.365 63.9898 112.202 64.3783 112.032C64.5336 111.965 64.6888 111.896 64.8431 111.826C64.9973 111.756 65.1516 111.685 65.305 111.614C65.4583 111.542 65.6116 111.469 65.765 111.396C66.0707 111.249 66.3746 111.098 66.6756 110.944C66.9023 110.829 67.1272 110.711 67.352 110.592C67.5759 110.472 67.7998 110.35 68.0218 110.227C68.1704 110.145 68.3172 110.062 68.4649 109.978C68.6116 109.893 68.7593 109.809 68.9052 109.723C69.051 109.638 69.1968 109.552 69.3426 109.464C69.6192 109.298 69.8929 109.129 70.1657 108.958C70.3228 108.858 70.4799 108.759 70.6352 108.657C70.7772 108.565 70.9193 108.472 71.0604 108.378C71.2015 108.285 71.3426 108.191 71.4828 108.095C71.6229 108 71.7631 107.904 71.9023 107.808C72.0416 107.711 72.1798 107.614 72.3181 107.516C72.4564 107.418 72.5938 107.319 72.7311 107.22C74.924 105.63 76.9823 103.861 78.8873 101.969C79.0895 101.768 79.2909 101.566 79.4903 101.363C79.6907 101.159 79.8892 100.954 80.0867 100.747C80.1855 100.644 80.2843 100.54 80.3821 100.436C80.5787 100.228 80.7735 100.019 80.9682 99.8076C81.162 99.5964 81.3548 99.3843 81.5467 99.1703C81.8346 98.8502 82.1187 98.5264 82.4009 98.1998C82.5891 97.9821 82.7753 97.7634 82.9616 97.5428C83.797 96.5508 84.6069 95.5334 85.3915 94.4907C85.479 94.3752 85.5655 94.2588 85.6521 94.1424C85.8252 93.9097 85.9964 93.676 86.1667 93.4404C86.7631 92.6173 87.3435 91.7801 87.9061 90.9307C88.8713 89.4732 89.7876 87.978 90.6521 86.4501C91.5157 84.9221 92.3275 83.3613 93.0829 81.7742C93.3351 81.2449 93.5806 80.7127 93.8195 80.1777C93.939 79.9102 94.0576 79.6418 94.1742 79.3734C94.2325 79.2392 94.2899 79.104 94.3473 78.9698C94.9221 77.622 95.4564 76.2583 95.9494 74.8815C96.2946 73.9176 96.6192 72.9471 96.923 71.971V71.9663C96.9672 71.8284 97.0096 71.6904 97.0519 71.5524C97.1366 71.2727 97.2203 70.994 97.3021 70.7134C97.4244 70.2929 97.543 69.8724 97.6568 69.451C97.8092 68.8888 97.955 68.3247 98.0933 67.7597C98.1281 67.619 98.162 67.4772 98.1958 67.3355C98.2965 66.9113 98.3943 66.4861 98.4865 66.061C98.5486 65.7775 98.6088 65.4931 98.6671 65.2097C98.7255 64.9253 98.7819 64.6409 98.8365 64.3565C98.9456 63.7878 99.0472 63.2181 99.1413 62.6474C99.1648 62.5048 99.1874 62.3621 99.2109 62.2195C99.3012 61.6488 99.384 61.0772 99.4592 60.5057C99.5157 60.0767 99.5674 59.6478 99.6154 59.2189C99.6944 58.5037 99.7622 57.7885 99.8167 57.0734C99.8384 56.7871 99.8581 56.5009 99.8769 56.2155C99.9578 54.9288 99.9983 53.643 99.9973 52.36C99.9973 52.2173 99.9973 52.0746 99.9955 51.9329L99.9983 51.9357Z" fill="#EE237B"/>
<path d="M82.556 31.8263L82.0433 28.4635C82.0244 28.3414 81.8485 28.3414 81.8297 28.4635L81.3179 31.8263C81.1655 32.8249 80.381 33.6086 79.38 33.7597L76.0094 34.2703C75.8871 34.2891 75.8871 34.4646 76.0094 34.4833L79.38 34.9939C80.381 35.146 81.1665 35.9296 81.3179 36.9273L81.8297 40.2902C81.8485 40.4122 82.0244 40.4122 82.0433 40.2902L82.556 36.9273C82.7074 35.9287 83.4929 35.145 84.4939 34.9939L85.0386 34.9113L87.8645 34.4833C87.9868 34.4646 87.9868 34.2891 87.8645 34.2703L84.9868 33.8339L84.4939 33.7588C83.4929 33.6067 82.7074 32.823 82.556 31.8254V31.8263Z" fill="white"/>
</g>
<defs>
<clipPath id="clip0_31_69">
<rect width="100" height="202" fill="white"/>
</clipPath>
</defs>
</svg>
