<svg xmlns="http://www.w3.org/2000/svg" width="100" height="48"><path d="M0 10.878V0h100v11H0v-.122zm0 37V37h100v11H0v-.122zm99.288-26.586c-.558-.738-1.408-1.144-2.39-1.144-1.84 0-3.38 1.05-5.15 3.509-1.507 2.093-3.382 4.698-4.755 4.698-.33 0-.575-.107-.75-.33-.422-.538-.419-1.73.012-3.446.489-1.943 1.425-3.3 2.278-3.3.615 0 .842.344.923.555a1.17 1.17 0 00-.754.224c-.294.215-.455.55-.455.943 0 .352.123.668.348.891.217.216.51.33.847.33.857 0 1.456-.709 1.456-1.724 0-.645-.244-1.257-.667-1.679-.466-.462-1.125-.697-1.958-.697-2.042 0-3.84 1.737-4.73 2.772a54.337 54.337 0 01-2.704 2.88c.544-1.798.426-3.478-.342-4.564-.49-.692-1.216-1.073-2.045-1.073-1.26 0-2.1.564-2.528.95l.21-.78h-4.303l-.258 1.046h1.2c-.557 1.813-2.084 3.483-2.812 4.204a5.61 5.61 0 00.227-1.221c.11-1.347-.24-2.564-.962-3.34a2.599 2.599 0 00-1.945-.859c-2.152 0-4.02 1.297-5.554 3.854l-.462.793c-.992 1.721-2.019 3.5-3.683 3.5a1.31 1.31 0 01-1.095-.532c-.686-.899-.722-2.925-.091-5.162.796-2.821 2.5-5.676 4.22-5.676.29 0 .53.11.732.338.66.74.695 2.517.61 3.214l-.017.133h1.254l1.312-4.735H63.31l-.035.048-.49.667c-.279-.33-1.152-1.14-3.024-1.14-2.136 0-5.888 2.276-7.156 7.163-.615 2.367-.347 4.448.754 5.86.785 1.006 1.944 1.584 3.179 1.584 2.09 0 3.953-1.58 4.745-2.822.123.85.672 2.822 3.118 2.822 2.194 0 4.758-1.65 7.437-4.778l-2.073 8.065h3.101l1.021-4.156c.256.328.853.87 2.024.87 1.656 0 4.407-1.887 6.79-4.63-.329 1.369-.14 2.602.538 3.496.546.718 1.354 1.13 2.22 1.13 2.876 0 4.889-2.39 5.569-3.329-.014.871.27 1.692.809 2.302.584.663 1.428 1.027 2.376 1.027 2.521 0 4.723-1.746 5.477-4.344.525-1.808.382-3.373-.4-4.407zm-31.561 4.03c-.418 1.615-1.362 3.502-2.647 3.502-.293 0-.509-.095-.656-.29-.405-.533-.32-1.818.254-3.82.646-2.253 1.418-3.349 2.36-3.349.24 0 .43.096.584.293.465.596.508 2.102.105 3.663zm10.057.053c-.496 2.1-1.341 3.305-2.32 3.305-.764 0-1.11-.714-1.178-.873.07-.303.57-2.438.821-3.423.39-1.536 1.287-2.694 2.083-2.694.241 0 .438.092.582.273.288.36.523 1.245.012 3.412zm19.796-.054c-.418 1.616-1.361 3.503-2.647 3.503-.293 0-.508-.095-.657-.29-.404-.533-.319-1.818.256-3.82.646-2.253 1.417-3.349 2.36-3.349.238 0 .43.096.584.293.465.596.507 2.102.104 3.663zm-49.798-1.955c.214.213.5.325.825.325.589 0 1.218-.368 1.218-1.404a1.86 1.86 0 00-.558-1.343c-.532-.531-1.395-.823-2.43-.823-2.072 0-3.507.844-4.04 2.376-.397 1.138.212 2.353 1.714 3.422l.204.145c.873.615 1.4.987 1.266 1.777-.106.627-.785 1.078-1.617 1.07-1.272-.011-1.482-.67-1.516-.897.225-.101.796-.428.796-1.139 0-.337-.104-.613-.309-.817-.315-.314-.753-.348-.927-.348-.41 0-1.112.144-1.226 1.114a1.65 1.65 0 00.008.368c-.095.138-.496.667-1.15.874a.537.537 0 01-.523-.12c-.207-.2-.245-.584-.106-1.08.141-.502 1.65-6.595 1.65-6.595h-3.065l-.232.833c-.237-.381-.822-.983-2.165-.983-2.061 0-3.8 2.012-4.663 3.735C30.21 25.304 28.86 28 27.813 28a.303.303 0 01-.257-.117c-.112-.147-.251-.58.085-1.831.276-1.028 2.468-10.005 2.468-10.005h-5.23l-.282 1.23h1.964l-1.355 5.414C24.207 26.61 22.462 28 21.271 28c-.249 0-.425-.07-.539-.21-.32-.399-.107-1.343.048-2.032.217-.964.907-3.74 1.035-4.255h2.166l.316-1.252h-2.154l.746-3.044h-1.175l-.036.053c-1.547 2.319-2.241 3.068-4.554 3.068h-.094l-.288 1.173h1.852l-.294 1.412c-1.023 3.847-2.978 5.444-3.798 5.444-.402 0-.626-.067-.749-.225-.202-.263-.176-.84.083-1.816.467-1.765 2.448-8.83 2.687-9.682h1.974l.361-1.184-4.207-.01c-1.513 0-3.294.127-5.036 1.073-2.18 1.184-3.756 3.403-4.686 6.597-.006.023-.581 2.286-1.094 3.97-.54 1.776-1.969 1.968-2.558 1.968-.366 0-.758-.178-1.073-.488l-.204-.2v1.599l.092.021c.547.131 1.199.196 1.937.196 2.024 0 3.821-1.46 4.744-2.71.753-1.019 1.002-1.927 1.378-3.302l.083-.305h3.044a143.3 143.3 0 00-.846 2.957c-.286 1.052-.213 1.87.219 2.434.425.554 1.187.835 2.267.835 1.094 0 3.07-.267 4.412-1.98.033.418.161.962.564 1.378.383.395.94.596 1.656.596 1.662 0 3.541-1.087 4.454-2.195.02.421.13 1.116.588 1.615.353.385.847.58 1.467.58 1.855 0 3.554-1.482 4.328-2.686.133.802.682 2.686 2.915 2.686 1.43 0 2.486-.9 3.066-1.555.122.498.533 1.555 1.829 1.555 1.368 0 2.736-.915 3.365-1.63.582 1.126 1.239 1.63 3.467 1.63 2.115 0 3.862-1.439 4.168-2.781.33-1.455-.472-2.045-1.801-3.023l-.161-.119-.275-.198c-.656-.473-1.224-.88-1.224-1.58 0-.76.617-1.1 1.23-1.1.506 0 .784.2.903.314-.151.144-.422.465-.422.93 0 .328.119.629.335.845zm-36.154-.786h-3.08c1.195-4.05 2.619-5.838 4.719-5.924l-1.64 5.924zm25.158 2.213c-.605 2.32-1.325 3.355-2.334 3.355a.645.645 0 01-.54-.27c-.44-.575-.423-1.987.044-3.683.653-2.376 1.48-2.696 2.204-2.696.22 0 .408.097.556.288.406.525.432 1.621.07 3.006z" fill="#09C" fill-rule="evenodd"/></svg>
