<?xml version="1.0" encoding="utf-8"?>
<!-- Generator: Adobe Illustrator 26.0.3, SVG Export Plug-In . SVG Version: 6.00 Build 0)  -->
<svg version="1.1" id="Layer_1" xmlns="http://www.w3.org/2000/svg" xmlns:xlink="http://www.w3.org/1999/xlink" x="0px" y="0px"
	 viewBox="0 0 1880 828.4" style="enable-background:new 0 0 1880 828.4;" xml:space="preserve">
<style type="text/css">
	.st0{fill:#FFFFFF;}
</style>
<path class="st0" d="M250.8,367.5l62.6-46.7v200.8h76.6c28.9,0,49-18.7,49-45.8c0-27.1-20.1-45.8-49-45.8h-42l53.7-53.7
	c14.9-14.9,18.2-24.3,18.2-34.6c0-20.5-15.9-35-41.1-35H250.8v-56h138.7c54.2,0,92.9,32.7,92.9,79.8c0,22.4-4.7,39.2-21.5,56
	l-11.2,11.2c30.4,14.9,51.8,45.3,51.8,84.1c0,56.5-45.3,95.7-108.8,95.7h-142V367.5z"/>
<path class="st0" d="M535.6,250.8h62.6v69.1h-62.6V250.8z M535.6,380.6l62.6-46.7v243.7h-62.6V380.6z"/>
<path class="st0" d="M643,498.2V319.9l62.6-48.6v67.2h68.2v58.4h-68.2v94.3c0,17.3,10.7,28,28,28h40.2v58.4h-51.8
	C672.9,577.6,643,547.7,643,498.2z"/>
<path class="st0" d="M888.1,338.5h42v58.4H890c-17.3,0-28,10.7-28,28v152.7h-62.6V427.3C799.4,370.3,831.2,338.5,888.1,338.5z"/>
<path class="st0" d="M933.9,458.1c0-67.7,47.2-124.2,122.3-124.2c74.7,0,122.3,52.3,122.3,124.2c0,3.3,0,6.5-0.5,9.8H1038l71.9-49
	c-10.7-18.2-29-29.9-53.7-29.9c-40.2,0-64,31.3-64,69.1c0,46.7,29.9,69.1,66.3,69.1c21.5,0,40.6-9.3,51.8-28h62.6
	c-16.3,54.6-64.4,83.1-114.4,83.1C993.2,582.3,933.9,541.2,933.9,458.1z"/>
<path class="st0" d="M1299.5,250.8h70.5v58.4h-68.6c-17.3,0-28,10.7-28,28v21h127.9v219.5h-62.6V416.5h-65.4v161.1h-62.6V339.5
	C1210.8,282.5,1242.6,250.8,1299.5,250.8z"/>
<path class="st0" d="M1452.7,294.6l62.6-48.6v331.5h-62.6V294.6z"/>
<path class="st0" d="M1566.6,294.6l62.6-48.6v331.5h-62.6V294.6z"/>
</svg>
