<?xml version="1.0" encoding="utf-8"?>
<!-- Generator: Adobe Illustrator 23.0.4, SVG Export Plug-In . SVG Version: 6.00 Build 0)  -->
<svg version="1.1" id="Lager_1" xmlns="http://www.w3.org/2000/svg" xmlns:xlink="http://www.w3.org/1999/xlink" x="0px" y="0px"
	 viewBox="0 0 1026.34961 420.46558" style="enable-background:new 0 0 1026.34961 420.46558;" xml:space="preserve">
<style type="text/css">
	.st0{fill:#E4E8DA;}
	.st1{fill:#0BB70B;}
</style>
<polygon class="st0" points="426.94958,193.96414 380.94958,193.96414 380.94958,149.96414 358.94958,149.96414 
	358.94958,260.96414 380.94958,260.96414 380.94958,215.96414 426.94958,215.96414 426.94958,260.96414 449.94958,260.96414 
	449.94958,149.96414 426.94958,149.96414 "/>
<path class="st0" d="M503.13367,181.07365c-9.94308,0-19.3176,3.93738-26.40894,11.08467
	c-7.4584,7.51662-11.56369,18.00139-11.56369,29.51361c0,12.29341,4.14108,22.78938,11.98004,30.35301
	c7.25696,7.00401,17.14633,10.86305,27.84598,10.86305c20.61591,0,31.68262-12.66722,35.1701-24.51967l0.16119-0.54842
	l-18.22076-5.41251l-0.18359,0.50812c-2.7085,7.43828-8.3493,11.21002-16.77023,11.21002
	c-9.94308,0-17.81339-6.90329-18.55206-16.16141h53.78928l0.5686-0.00449l0.00446-0.56856c0-0.07611,0.01794-0.30443,0.0448-0.64467
	c0.08502-1.12369,0.25964-3.45612,0.25964-5.69231C541.25848,196.02184,527.00421,181.07365,503.13367,181.07365z
	 M487.05499,212.96414c0.75659-6.82272,6.61679-13.84689,16.37631-13.84689c11.33987,0,15.87491,7.04208,16.38528,13.84689
	H487.05499z"/>
<path class="st0" d="M645.39191,181.621c-10.64288,0-18.27295,3.85455-23.92871,12.10986
	c-4.05121-7.71136-12.20276-12.10986-22.52924-12.10986c-7.18439,0-16.6507,3.15842-21.58441,10.05051v-7.70737h-21v77h22v-45.07736
	c0-8.62689,5.58417-14.41992,13.89435-14.41992c8.32837,0,13.10565,5.02974,13.10565,13.80211v45.69518h21v-45.07736
	c0-8.49034,5.47021-14.41992,13.30688-14.41992c11.04193,0,12.69312,8.64702,12.69312,13.80211v45.69518h21v-49.86758
	c0-9.55807-2.98602-17.34555-8.62842-22.52303C659.83203,184.08998,652.96851,181.621,645.39191,181.621z"/>
<path class="st0" d="M736.02258,181.77768c-6.95563,0-15.92078,2.68611-21.17303,10.07739v-7.89093h-22v77h22v-44.30511
	c0-9.08575,5.45703-15.19217,13.578-15.19217c8.53076,0,13.422,5.31177,13.422,14.57437v44.92291h22v-48.4753
	C763.84955,193.54283,753.18542,181.77768,736.02258,181.77768z"/>
<path class="st0" d="M816.53363,181.07365c-9.94305,0-19.32202,3.93738-26.40887,11.08467
	c-7.45398,7.51662-11.5592,17.99916-11.5592,29.51361c0,12.29341,4.14105,22.78938,11.98004,30.35301
	c7.25696,7.00401,17.1463,10.86305,27.84595,10.86305c20.61139,0,31.67816-12.66722,35.16565-24.51967l0.16113-0.54842
	l-18.21625-5.41251l-0.18359,0.50812c-2.71295,7.43828-8.35376,11.21002-16.77472,11.21002
	c-9.94305,0-17.81335-6.90329-18.55206-16.16141h53.78931l0.56854-0.00449l0.00452-0.56856
	c0-0.07611,0.01788-0.30443,0.04474-0.64467c0.08508-1.12369,0.25964-3.45612,0.25964-5.69231
	C854.65845,196.02184,840.40417,181.07365,816.53363,181.07365z M800.01941,212.96414
	c0.76111-6.82272,6.62128-13.84689,16.37183-13.84689c11.34882,0,15.88385,7.04208,16.39423,13.84689H800.01941z"/>
<path class="st0" d="M915.34955,202.96414v-19h-15v-23h-20v11.7435c0,7.04793-4.28101,11.2565-11.45282,11.2565h-4.54718v19h14
	v34.81419c0,14.84074,9.49506,24.06303,24.7851,24.06303c6.35248,0,10.1604-1.19083,11.85974-1.90042l0.35516-0.14548v-18.90375
	l-0.71552,0.20627c-0.99646,0.28085-3.66553,0.58366-6.05353,0.58366c-5.92188,0-8.23096-2.26447-8.23096-8.07483v-30.64268
	H915.34955z"/>
<g>
	<path class="st1" d="M252.94957,242.91051v-53.91699c0-1.02078-0.50272-1.97607-1.34406-2.55409l-40.40123-27.26158
		c-1.05708-0.72624-2.45233-0.72624-3.50943,0l-40.40123,27.26158c-0.84134,0.57802-1.34406,1.53331-1.34406,2.55409v53.87184
		c0,1.71141,1.38737,3.09879,3.09877,3.09879h24.80246c1.7114,0,3.09877-1.38737,3.09877-3.09879v-25.80244
		c0-1.71141,1.38737-3.09877,3.09877-3.09877h18.80246c1.7114,0,3.09877,1.38736,3.09877,3.09877v25.84758
		c0,1.68648,1.36716,3.05365,3.05365,3.05365h24.8927C251.58241,245.96414,252.94957,244.59698,252.94957,242.91051z"/>
	<g>
		<path class="st1" d="M210.27065,111c-54.80133,0-99.1571,44.35576-99.1571,99.15709
			c0,21.32489,6.67264,40.98163,18.15295,57.10524c0.87219,1.22491,0.70552,2.90781-0.35777,3.9711l-13.70779,13.70779
			c-5.60123,5.60123-5.60123,14.68433,0,20.28555c2.72493,2.87631,6.50955,4.2388,10.14279,4.2388s7.26648-1.36246,10.14279-4.2388
			l13.7097-13.70969c1.08371-1.08371,2.78313-1.19888,4.03258-0.31134c16.87704,11.98828,37.74487,18.72003,60.01636,18.06464
			c53.57999-1.57675,97.42584-47.92828,96.15411-101.51636C308.12512,154.06493,264.26868,111,210.27065,111 M210.27065,284.1843
			c-38.20726,0-74.02722-33.15329-74.02722-74.02721c0-41.46954,34.12657-74.99179,75.81892-74.006
			c39.26413,0.92838,71.28592,32.95016,72.21429,72.21429C285.26245,250.05774,251.74017,284.1843,210.27065,284.1843"/>
	</g>
</g>
</svg>
