<svg xmlns="http://www.w3.org/2000/svg" viewBox="0 0 566.9 144.9" style="enable-background:new 0 0 566.9 144.9" xml:space="preserve"><path style="fill:none" d="M-144.9-145.2h856.8v434.8h-856.8z"/><path d="M121.3 0h24.6v144.9h-24.6V0zm-20.9 60.2c1.9 5.9 2.4 10 2.4 21.1V145H45.6c-16.3 0-19.1-.2-25.9-2.2-12-3.3-19.8-15-19.8-29.6V80.6h78v-2.4c0-6.7-.7-10.2-2.8-13.7-3.3-4.6-7.8-6.1-20.2-6.1H5.7V39.1h51.9c4.1 0 7.8.2 11.3.2 12.4.7 20.2 3.7 25.9 10.5 2.6 3 4.5 6.5 5.6 10.4zM78.1 99.7H23.4s.2 7.6.2 13.3c0 9.1 5 12.6 18.5 12.6h36V99.7zm214.8-48.2c-9.8 9.8-15 24.1-15 41.5 0 15.4 5 29.6 13.5 38.7 9.1 9.5 20.2 13.3 41.1 13.3H369v-19.3h-32.8c-15 0-22.2-2.8-27.2-10.7-3.9-5.9-5.7-12.8-5.7-22.4 0-24.3 8.9-34.1 31.3-34.1H369V39.1h-36.5c-19.6 0-30.5 3.5-39.6 12.4zm-27.3 19.4v32.6h-76.1v2.4c0 6.7.6 10.2 2.8 13.7 3.3 4.6 7.8 6.1 20.2 6.1h49.3l.1 19.3h-51.6c-16.3 0-19.1-.2-25.9-2.2-12-3.3-19.8-15-19.8-29.6V81.3c0-11.1.4-15.2 2.4-21.1 1.1-3.9 3-7.4 5.7-10.4 5.6-6.7 13.5-9.8 25.9-10.4 3.5 0 7.2-.2 11.3-.2h10c16.3 0 19.1.2 25.9 2.2 12 3.2 19.8 14.9 19.8 29.5zm-21.5 13.4s-.2-7.6-.2-13.3c0-9.1-5-12.6-18.5-12.6h-12.9c-12.4 0-17 1.5-20.2 6.1-2.2 3.5-2.8 6.9-2.8 13.7v6.1h54.6zm322.8-3V145h-57.2c-16.3 0-19.1-.2-25.9-2.2-12-3.3-19.8-15-19.8-29.6V80.6h78v-2.4c0-6.7-.7-10.2-2.8-13.7-3.3-4.6-7.8-6.1-20.2-6.1h-49.3V39.1h51.9c4.1 0 7.8.2 11.3.2 12.4.6 20.2 3.7 25.9 10.4 2.6 3.1 4.6 6.5 5.7 10.4 2 6 2.4 10.1 2.4 21.2zm-24.7 18.4h-54.6s.2 7.6.2 13.3c0 9.1 5 12.6 18.5 12.6h36V99.7zM421 0h-24.5v39.1h-16.1v19.3h16.1v51c0 15.2 2.2 22.8 8 28.5 5.6 5.2 11.7 7 25 7h20.7v-19.3h-12c-7.6 0-11.7-1.1-14.3-3.9-2.2-2.4-2.9-5.4-2.9-15.2v-48h36.6V39.1H421V0z" style="fill:#fff"/></svg>