<?xml version="1.0" encoding="UTF-8" standalone="no"?>
<!-- Created with Inkscape (http://www.inkscape.org/) -->

<svg
   version="1.1"
   id="svg2"
   xml:space="preserve"
   width="166.17332"
   height="51.066666"
   viewBox="0 0 166.17332 51.066666"
   sodipodi:docname="oracle.eps"
   xmlns:inkscape="http://www.inkscape.org/namespaces/inkscape"
   xmlns:sodipodi="http://sodipodi.sourceforge.net/DTD/sodipodi-0.dtd"
   xmlns="http://www.w3.org/2000/svg"
   xmlns:svg="http://www.w3.org/2000/svg"><defs
     id="defs6" /><sodipodi:namedview
     id="namedview4"
     pagecolor="#ffffff"
     bordercolor="#666666"
     borderopacity="1.0"
     inkscape:pageshadow="2"
     inkscape:pageopacity="0.0"
     inkscape:pagecheckerboard="0" /><g
     id="g8"
     inkscape:groupmode="layer"
     inkscape:label="ink_ext_XXXXXX"
     transform="matrix(1.3333333,0,0,-1.3333333,0,51.066667)"><g
       id="g10"
       transform="scale(0.1)"><path
         d="m 1140.83,242.891 c 0.98,0 2.02,0.097 2.6,1.035 0.43,0.351 0.49,0.82 0.49,1.347 0,0.899 -0.51,1.602 -1.23,1.973 -0.84,0.332 -1.46,0.332 -2.99,0.332 h -0.84 v -4.687 h 1.97 m -1.13,7.265 c 2.15,0 3.15,-0.097 4.26,-0.41 2.79,-0.918 3.05,-3.574 3.05,-4.492 0,-0.215 -0.08,-0.742 -0.18,-1.328 -0.14,-0.625 -0.47,-1.934 -1.97,-2.793 -0.2,-0.117 -0.3,-0.215 -0.63,-0.371 l 3.69,-6.66 h -3.59 l -3.3,6.191 h -2.17 v -6.191 h -3.2 v 16.054 h 4.04 m 1.39,-22.812 c 7.91,0 14.28,6.347 14.28,14.277 0,7.93 -6.37,14.414 -14.28,14.414 -8.01,0 -14.38,-6.484 -14.38,-14.414 0,-7.93 6.37,-14.277 14.38,-14.277 m -11.35,14.336 c 0,6.23 5.02,11.289 11.35,11.289 6.29,0 11.27,-5.059 11.27,-11.289 0,-6.192 -4.98,-11.25 -11.27,-11.25 -6.33,0 -11.35,5.058 -11.35,11.25 m -99.57,-91.543 c -18.91,0 -34.842,12.695 -39.764,30.058 h 104.884 l 14.45,22.5 H 990.406 c 4.903,17.403 20.854,30.059 39.764,30.059 h 72.01 l 14.4,22.559 h -88.05 c -35.214,0 -63.788,-28.575 -63.788,-63.868 0,-35.254 28.574,-63.769 63.788,-63.769 h 75.74 l 14.4,22.461 h -88.5 M 730.035,127.676 h 75.742 l 14.336,22.461 h -88.398 c -22.91,0 -41.367,18.535 -41.367,41.308 0,22.871 18.457,41.309 41.367,41.309 h 71.953 l 14.512,22.559 h -88.145 c -35.273,0 -63.926,-28.575 -63.926,-63.868 0,-35.254 28.653,-63.769 63.926,-63.769 m -466.043,22.461 h -70.855 c -22.805,0 -41.282,18.535 -41.282,41.308 0,22.871 18.477,41.309 41.282,41.309 h 70.855 c 22.883,0 41.34,-18.438 41.34,-41.309 0,-22.773 -18.457,-41.308 -41.34,-41.308 m -72.488,-22.461 h 74.187 c 35.293,0 63.711,28.515 63.711,63.769 0,35.293 -28.418,63.868 -63.711,63.868 h -74.187 c -35.254,0 -63.848,-28.575 -63.848,-63.868 0,-35.254 28.594,-63.769 63.848,-63.769 m 258.367,41.328 c 23.899,0 43.113,19.336 43.113,43.164 0,23.828 -19.214,43.145 -43.113,43.145 H 342.488 V 127.676 h 24.543 v 105.078 h 81.211 c 11.399,0 20.637,-9.199 20.637,-20.586 0,-11.367 -9.238,-20.723 -20.637,-20.723 l -69.211,0.059 73.305,-63.828 h 35.609 l -49.234,41.328 h 11.16 m 406.004,-18.789 v 105.098 h -24.59 v -115.43 c 0,-3.145 1.328,-6.231 3.633,-8.457 2.344,-2.422 5.566,-3.75 8.945,-3.75 H 955.68 l 14.57,22.539 H 855.875 m -300.391,22.461 h 65.469 l -34.59,55.82 -63.496,-100.82 h -29.004 l 77.305,120.996 c 3.301,4.902 8.965,7.871 15.156,7.871 6.055,0 11.621,-2.871 14.922,-7.656 l 77.539,-121.211 h -28.926 l -13.632,22.539 h -66.289 l -14.454,22.461"
         style="fill:#e32124;fill-opacity:1;fill-rule:nonzero;stroke:none"
         id="path12" /></g></g></svg>
