<?xml version="1.0" encoding="utf-8"?>
<!-- Generator: Adobe Illustrator 24.0.3, SVG Export Plug-In . SVG Version: 6.00 Build 0)  -->
<svg version="1.1" id="Lager_1" xmlns="http://www.w3.org/2000/svg" xmlns:xlink="http://www.w3.org/1999/xlink" x="0px" y="0px"
	 viewBox="0 0 1494.8438 264.7379" style="enable-background:new 0 0 1494.8438 264.7379;" xml:space="preserve">
<style type="text/css">
	.st0{fill:#FFFFFF;}
</style>
<polygon class="st0" points="228.7712,81.8972 156.7183,81.8972 156.7183,223.7897 113.0042,223.7897 113.0042,81.8972 
	40.948,81.8972 40.948,40.9484 228.7712,40.9484 "/>
<polygon class="st0" points="870.838,223.7897 1031.2417,223.7897 1031.2417,182.8415 914.5547,182.8415 914.5547,149.2491 
	1012.547,149.2491 1012.547,111.09 914.5547,111.09 914.5547,81.8972 1031.2417,81.8972 1031.2417,40.9484 870.838,40.9484 "/>
<path class="st0" d="M739.4365,40.9484h-77.0108v182.8413h75.9631c69.9286,0,107.6678-36.1562,107.6678-92.5998
	C846.0565,70.682,810.3944,40.9484,739.4365,40.9484z M738.3887,182.8415h-32.2487V81.8972h32.2487
	c43.8659,0,63.4284,15.5258,63.4284,50.3408C801.8171,167.2345,782.2546,182.8415,738.3887,182.8415z"/>
<path class="st0" d="M423.212,108.0133c0-38.3783-26.0264-67.065-77.5377-67.065h-96.4517v182.8415h43.7145v-53.6378
	c0,0,66.1847-0.1145,70.6715-0.1145c8.7989,0,13.4122,4.0435,13.4122,9.9152c0,4.5942,0,43.8371,0,43.8371h43.7141v-44.3205
	c0-12.4735-9.7104-21.6878-22.5942-23.5368C414.3066,144.9158,423.212,128.1057,423.212,108.0133z M292.9371,81.897h52.7372
	c21.9794,0,32.7732,7.4914,32.7732,26.0082c0,16.7933-10.1075,26.1162-32.7732,26.1162h-52.7372V81.897z"/>
<path class="st0" d="M1236.658,108.0133c0-38.3783-26.0265-67.065-77.5374-67.065h-96.4517v182.8415h43.7141v-53.6378
	c0,0,66.1851-0.1145,70.6715-0.1145c8.799,0,13.4122,4.0435,13.4122,9.9152c0,4.5942,0,43.8371,0,43.8371h43.7141v-44.3205
	c0-12.4735-9.7101-21.6872-22.5941-23.5368C1227.7527,144.916,1236.658,128.1057,1236.658,108.0133z M1106.3831,81.897h52.7375
	c21.9791,0,32.7732,7.4914,32.7732,26.0082c0,16.7933-10.1074,26.1162-32.7732,26.1162h-52.7375V81.897z"/>
<path class="st0" d="M1312.3171,40.9484l-60.349,182.8413h44.6189l13.5397-40.9482h85.6348l13.5134,40.9482h44.6208
	l-60.2596-182.8413H1312.3171z M1322.9164,144.1606l20.5873-62.2634h18.9452l20.5475,62.2634H1322.9164z"/>
<path class="st0" d="M500.7367,40.9484l-60.3489,182.8413h44.6189l13.5397-40.9482h85.6347l13.5134,40.9482h44.6208
	L582.0557,40.9484H500.7367z M511.3359,144.1606l20.5873-62.2634h18.9451l20.5475,62.2634H511.3359z"/>
<polygon class="st0" points="1416.1455,61.7014 1420.8627,61.7014 1420.8627,45.1288 1428.0612,45.1288 1428.0612,40.9484 
	1408.9474,40.9484 1408.9474,45.1288 1416.1455,45.1288 "/>
<polygon class="st0" points="1446.8374,40.9484 1442.5466,50.1532 1438.254,40.9484 1430.9987,40.9484 1430.9987,61.7014 
	1435.2891,61.7014 1435.1489,44.9293 1435.3738,44.9293 1440.4557,56.0557 1444.2394,56.0557 1449.3231,44.9293 1449.5477,44.9293 
	1449.406,61.7014 1453.8958,61.7014 1453.8958,40.9484 "/>
</svg>
