<?xml version="1.0" encoding="UTF-8"?><svg id="Lager_1" xmlns="http://www.w3.org/2000/svg" viewBox="0 0 282.73 125.63"><defs><style>.cls-1{fill:#fff;}.cls-2{fill:#d51224;}</style></defs><g><path class="cls-1" d="M51,93.37h5.71l4.45,9.97c.91,2.09,1.9,5.52,2.02,5.86,.04-.19,.99-3.65,1.98-5.86l4.34-9.97h5.18l-11.34,26.11h-.53l-11.8-26.11Z"/><path class="cls-1" d="M78.18,93.37h17.13v4.68h-11.8v5.94h10.39v4.57h-10.39v6.01h12.33v4.68h-17.66v-25.88Z"/><path class="cls-1" d="M100.79,93.37h9.59c5.29,0,9.63,2.47,9.63,8.53,0,3.92-2.06,6.39-5.06,7.58l5.9,9.78h-6.09l-5.25-8.98h-3.39v8.98h-5.33v-25.88Zm9.44,12.41c2.63,0,4.3-1.03,4.3-3.88s-1.75-3.84-4.3-3.84h-4.11v7.73h4.11Z"/><path class="cls-1" d="M124.73,93.11h.42l12.75,14.01,12.56-14.01h.46v26.15h-5.14v-9.71c0-1.75,.19-4.53,.19-4.53,0,0-1.56,2.28-2.78,3.65l-5.14,5.75h-.49l-5.14-5.75c-1.22-1.37-2.78-3.65-2.78-3.65,0,0,.19,2.78,.19,4.53v9.71h-5.1v-26.15Z"/><path class="cls-1" d="M156.44,93.37h5.33v25.88h-5.33v-25.88Z"/><path class="cls-1" d="M166.37,106.32c0-7.65,5.9-13.25,13.32-13.25,4.68,0,8.03,1.68,10.35,5.29l-4.07,2.89c-1.22-1.98-3.31-3.39-6.28-3.39-4.68,0-7.84,3.62-7.84,8.45s3.16,8.53,7.84,8.53c3.35,0,5.22-1.6,6.66-3.81l4.15,2.86c-2.25,3.5-5.82,5.71-10.81,5.71-7.42,0-13.32-5.63-13.32-13.29Z"/><path class="cls-1" d="M194.35,109.89v-16.52h5.33v16.22c0,3.77,1.64,5.21,5.18,5.21s5.1-1.45,5.1-5.21v-16.22h5.33v16.52c0,6.55-4.53,9.71-10.43,9.71s-10.51-3.16-10.51-9.71Z"/><path class="cls-1" d="M220.57,93.37h5.33v21.2h11.72v4.68h-17.05v-25.88Z"/><path class="cls-1" d="M240.41,110.05v-16.52h5.33v16.22c0,3.77,1.64,5.21,5.18,5.21s5.1-1.45,5.1-5.21v-16.22h5.33v16.52c0,6.55-4.53,9.71-10.43,9.71s-10.51-3.16-10.51-9.71Z"/><path class="cls-1" d="M264.19,114.31l4.34-2.51c1.14,1.87,2.63,3.24,5.25,3.24,2.21,0,3.62-1.1,3.62-2.63,0-1.83-1.45-2.47-3.88-3.54l-1.33-.57c-3.84-1.64-6.4-3.69-6.4-8.03,0-4,3.05-7.04,7.8-7.04,3.39,0,5.82,1.18,7.58,4.26l-4.15,2.66c-.91-1.64-1.9-2.28-3.43-2.28s-2.55,.99-2.55,2.28c0,1.6,.99,2.25,3.27,3.24l1.33,.57c4.53,1.94,7.08,3.92,7.08,8.37,0,4.8-3.77,7.42-8.83,7.42s-8.15-2.36-9.71-5.44Z"/></g><g><g><path class="cls-2" d="M23.38,26.61c-.71,2.56-1.18,5.14-.59,7.16,.56,2,1.97,3.35,3.82,4.57,1.83,1.23,4.02,2.23,6.27,3.26l3.44,1.53c1.17,.51,2.34,1.04,3.52,1.6,1.19,.55,2.37,1.14,3.55,1.77,1.19,.62,2.36,1.31,3.51,2.05,2.32,1.47,4.57,3.24,6.51,5.47,1.91,2.22,3.46,5,3.97,7.97,.75,3.39-.29,6.59-.98,8.41s-3.07,4.22-3.07,4.22c0,0,1.25-2.56,1.56-4.5s-.6-4.91-1.59-6.88c-.98-1.98-2.39-3.6-4.11-5.01-3.43-2.84-7.87-4.92-12.39-7.17-1.14-.56-2.29-1.12-3.45-1.73-1.16-.59-2.32-1.22-3.48-1.9-2.32-1.35-4.65-2.89-6.75-4.99-1.03-1.07-2.02-2.29-2.7-3.76-.72-1.44-1.05-3.13-.93-4.7,.11-1.58,.65-2.99,1.35-4.2,.7-1.22,1.59-2.26,2.56-3.17Z"/><path class="cls-2" d="M30.48,0c-.52,1.27-.93,2.54-1.16,3.76-.21,1.23-.2,2.42,.03,3.49,.47,2.14,1.82,3.91,3.48,5.59,1.65,1.68,3.64,3.22,5.66,4.8l3.1,2.37c1.05,.79,2.09,1.62,3.14,2.46,1.05,.84,2.09,1.71,3.11,2.63,1.03,.9,2.04,1.87,3.01,2.87,1.96,2.01,3.79,4.26,5.26,6.83,1.44,2.57,2.5,5.51,2.67,8.52,.18,4.26-1.23,7.51-1.73,8.45-.91,1.68-2.73,3.09-3.28,3.65,0,0,1.59-2.26,1.82-4.05,.15-1.15-.15-5.09-.92-7.3-.76-2.22-1.95-4.21-3.43-6.05-2.95-3.7-6.87-6.88-10.87-10.23-1-.84-2.02-1.68-3.03-2.56-1.02-.87-2.03-1.76-3.02-2.71-1.99-1.88-3.95-3.93-5.61-6.39-.81-1.24-1.55-2.59-2.05-4.08-.5-1.49-.74-3.13-.56-4.71,.18-1.58,.74-3.04,1.52-4.26,.79-1.22,1.78-2.23,2.86-3.07Z"/></g><path class="cls-2" d="M.78,122.09c.27,.11,6.67,3.33,11.7,2.05,7.12-1.8,10.24-6.55,11.49-8.68,1.26-2.13,2.09-4.51,2.69-7,.61-2.49,.99-5.1,1.5-7.77,.51-2.66,1.14-5.43,2.36-8.11,1.19-2.67,3.01-5.18,5.26-7.11,.56-.49,1.14-.94,1.74-1.38,.58-.44,1.18-.87,1.8-1.28,1.24-.81,2.59-1.5,3.98-2.06,2.79-1.13,5.73-1.58,8.24-2.08,2.54-.49,4.61-1.12,6.31-2.33,.86-.59,1.64-1.3,2.37-2.11,.73-.82,1.41-1.71,2.02-2.57,.58-.89,1.08-1.77,1.48-2.69,.42-.91,.74-1.85,.95-2.84,.47-1.97,.6-4.15,.44-6.52-.16-2.36-.59-4.87-1.02-7.49-.22-1.31-1.73-10.02-.54-12.82,.45-1.48,1.29-2.8,2.33-3.84,1.04-1.05,2.26-1.83,3.56-2.4,.65-.28,1.31-.52,2-.68,.7-.15,1.37-.29,2.19-.17,.86,.13,.87,.74-.06,.81-.41,.03-1.06,.05-2.05,.54-.58,.23-.89,.42-1.42,.75-1.07,.67-2.02,1.5-2.75,2.44-1.49,1.91-1.88,4.28-1.16,6.54,1.21,2.59,3.56,7.47,4.14,8.71,1.16,2.46,8.57,16.13,.08,25.46-9.77,10.75-21.8,6.29-28.71,9.51-6.91,3.22-9.21,11.95-9.81,14.49-.61,2.54-1.12,5.2-1.9,7.86-.77,2.65-2.19,5.97-3.76,8.36-1.56,2.4-6.06,7.92-15.32,7.92-4.4,0-10.43-3.03-10.43-3.03-.75-.41-.55-.87,.32-.51Z"/></g></svg>