<svg id="Layer_1" data-name="Layer 1" xmlns="http://www.w3.org/2000/svg" viewBox="0 0 785.96 145.32"><defs><style>.cls-1{fill:#fff;}.cls-2{fill:#fdb913;}</style></defs><title>xlent-logo-orange-white</title><path class="cls-1" d="M208.34,153.57V27.63H187V172.94H301V153.57Z" transform="translate(-8 -27.63)"/><path class="cls-1" d="M636.7,27.63V47h64.58V172.94h21V47h62.32L794,27.63Z" transform="translate(-8 -27.63)"/><path class="cls-1" d="M593.23,27.63V142.36C588.07,137.1,481.05,27.63,481.05,27.63H324.18V172.94H447.52V153.57H345.46v-47h68.9L424.6,87.19H345.46V47H471.92C480,55.28,593.83,171.27,595,172.47l.45.47h17.88V27.63ZM469.56,172.94H490.5V98.06L469.56,75.68v97.26Z" transform="translate(-8 -27.63)"/><path class="cls-2" d="M162.89,27.63H136.08L103.32,67.48l13.85,14.84,45.72-54.69Zm-127.12,0H8l66.29,71-64.24,74.3H36.81s49.08-56.78,51.26-59.32c2.31,2.47,55,59.32,55,59.32h28L35.77,27.63Z" transform="translate(-8 -27.63)"/></svg>